<?xml version="1.0" encoding="UTF-8"?>
<svg xmlns="http://www.w3.org/2000/svg" xmlns:xlink="http://www.w3.org/1999/xlink" width="375pt" height="374.999991pt" viewBox="0 0 375 374.999991" version="1.2">
<defs>
<clipPath id="clip1">
  <path d="M 24 21 L 347 21 L 347 304 L 24 304 Z M 24 21 "/>
</clipPath>
<clipPath id="clip2">
  <path d="M 401.886719 235.882812 L 169.6875 453.15625 L -77.820312 188.648438 L 154.378906 -28.625 Z M 401.886719 235.882812 "/>
</clipPath>
<clipPath id="clip3">
  <path d="M 401.886719 235.882812 L 169.6875 453.15625 L -77.820312 188.648438 L 154.378906 -28.625 Z M 401.886719 235.882812 "/>
</clipPath>
<clipPath id="clip4">
  <path d="M 260.800781 279.207031 C 111.039062 135.519531 152.039062 317.910156 102.507812 303.09375 C 0.980469 272.710938 3.589844 124.082031 79.019531 47.71875 C 154.464844 -28.652344 245.890625 80.8125 318.226562 156.105469 C 390.5625 231.402344 307.476562 323.96875 260.800781 279.207031 Z M 260.800781 279.207031 "/>
</clipPath>
<linearGradient id="linear0" gradientUnits="userSpaceOnUse" x1="1582.350878" y1="-434.89001" x2="1815.622516" y2="-434.89001" gradientTransform="matrix(-1.44137,-1.540376,1.539776,-1.440809,3279.421026,2177.802228)">
<stop offset="0" style="stop-color:rgb(9.399414%,57.598877%,97.299194%);stop-opacity:1;"/>
<stop offset="0.125" style="stop-color:rgb(9.399414%,57.598877%,97.299194%);stop-opacity:1;"/>
<stop offset="0.140625" style="stop-color:rgb(9.399414%,57.598877%,97.299194%);stop-opacity:1;"/>
<stop offset="0.144531" style="stop-color:rgb(9.945679%,57.785034%,97.172546%);stop-opacity:1;"/>
<stop offset="0.148438" style="stop-color:rgb(10.493469%,57.971191%,97.045898%);stop-opacity:1;"/>
<stop offset="0.152344" style="stop-color:rgb(11.332703%,58.256531%,96.852112%);stop-opacity:1;"/>
<stop offset="0.15625" style="stop-color:rgb(12.173462%,58.543396%,96.658325%);stop-opacity:1;"/>
<stop offset="0.160156" style="stop-color:rgb(13.012695%,58.828735%,96.464539%);stop-opacity:1;"/>
<stop offset="0.164062" style="stop-color:rgb(13.853455%,59.115601%,96.270752%);stop-opacity:1;"/>
<stop offset="0.167969" style="stop-color:rgb(14.692688%,59.40094%,96.075439%);stop-opacity:1;"/>
<stop offset="0.171875" style="stop-color:rgb(15.533447%,59.687805%,95.881653%);stop-opacity:1;"/>
<stop offset="0.175781" style="stop-color:rgb(16.372681%,59.973145%,95.687866%);stop-opacity:1;"/>
<stop offset="0.179688" style="stop-color:rgb(17.21344%,60.26001%,95.49408%);stop-opacity:1;"/>
<stop offset="0.183594" style="stop-color:rgb(18.052673%,60.545349%,95.300293%);stop-opacity:1;"/>
<stop offset="0.1875" style="stop-color:rgb(18.893433%,60.832214%,95.106506%);stop-opacity:1;"/>
<stop offset="0.191406" style="stop-color:rgb(19.732666%,61.117554%,94.91272%);stop-opacity:1;"/>
<stop offset="0.195312" style="stop-color:rgb(20.573425%,61.402893%,94.718933%);stop-opacity:1;"/>
<stop offset="0.199219" style="stop-color:rgb(21.412659%,61.688232%,94.523621%);stop-opacity:1;"/>
<stop offset="0.203125" style="stop-color:rgb(22.253418%,61.975098%,94.329834%);stop-opacity:1;"/>
<stop offset="0.207031" style="stop-color:rgb(23.092651%,62.260437%,94.136047%);stop-opacity:1;"/>
<stop offset="0.210938" style="stop-color:rgb(23.933411%,62.547302%,93.942261%);stop-opacity:1;"/>
<stop offset="0.214844" style="stop-color:rgb(24.772644%,62.832642%,93.748474%);stop-opacity:1;"/>
<stop offset="0.21875" style="stop-color:rgb(25.613403%,63.119507%,93.554688%);stop-opacity:1;"/>
<stop offset="0.222656" style="stop-color:rgb(26.452637%,63.404846%,93.359375%);stop-opacity:1;"/>
<stop offset="0.226562" style="stop-color:rgb(27.293396%,63.691711%,93.165588%);stop-opacity:1;"/>
<stop offset="0.230469" style="stop-color:rgb(28.132629%,63.977051%,92.971802%);stop-opacity:1;"/>
<stop offset="0.234375" style="stop-color:rgb(28.973389%,64.263916%,92.778015%);stop-opacity:1;"/>
<stop offset="0.238281" style="stop-color:rgb(29.812622%,64.549255%,92.584229%);stop-opacity:1;"/>
<stop offset="0.242187" style="stop-color:rgb(30.653381%,64.834595%,92.390442%);stop-opacity:1;"/>
<stop offset="0.246094" style="stop-color:rgb(31.492615%,65.119934%,92.196655%);stop-opacity:1;"/>
<stop offset="0.25" style="stop-color:rgb(32.333374%,65.406799%,92.002869%);stop-opacity:1;"/>
<stop offset="0.253906" style="stop-color:rgb(33.172607%,65.692139%,91.807556%);stop-opacity:1;"/>
<stop offset="0.257812" style="stop-color:rgb(34.013367%,65.979004%,91.61377%);stop-opacity:1;"/>
<stop offset="0.261719" style="stop-color:rgb(34.8526%,66.264343%,91.419983%);stop-opacity:1;"/>
<stop offset="0.265625" style="stop-color:rgb(35.693359%,66.551208%,91.226196%);stop-opacity:1;"/>
<stop offset="0.269531" style="stop-color:rgb(36.532593%,66.836548%,91.03241%);stop-opacity:1;"/>
<stop offset="0.273438" style="stop-color:rgb(37.371826%,67.123413%,90.838623%);stop-opacity:1;"/>
<stop offset="0.277344" style="stop-color:rgb(38.21106%,67.408752%,90.643311%);stop-opacity:1;"/>
<stop offset="0.28125" style="stop-color:rgb(39.051819%,67.694092%,90.449524%);stop-opacity:1;"/>
<stop offset="0.285156" style="stop-color:rgb(39.891052%,67.979431%,90.255737%);stop-opacity:1;"/>
<stop offset="0.289062" style="stop-color:rgb(40.731812%,68.266296%,90.061951%);stop-opacity:1;"/>
<stop offset="0.292969" style="stop-color:rgb(41.571045%,68.551636%,89.868164%);stop-opacity:1;"/>
<stop offset="0.296875" style="stop-color:rgb(42.411804%,68.838501%,89.674377%);stop-opacity:1;"/>
<stop offset="0.300781" style="stop-color:rgb(43.251038%,69.12384%,89.479065%);stop-opacity:1;"/>
<stop offset="0.304687" style="stop-color:rgb(44.091797%,69.410706%,89.285278%);stop-opacity:1;"/>
<stop offset="0.308594" style="stop-color:rgb(44.93103%,69.696045%,89.091492%);stop-opacity:1;"/>
<stop offset="0.3125" style="stop-color:rgb(45.77179%,69.98291%,88.897705%);stop-opacity:1;"/>
<stop offset="0.316406" style="stop-color:rgb(46.611023%,70.26825%,88.703918%);stop-opacity:1;"/>
<stop offset="0.320312" style="stop-color:rgb(47.451782%,70.555115%,88.510132%);stop-opacity:1;"/>
<stop offset="0.324219" style="stop-color:rgb(48.291016%,70.840454%,88.316345%);stop-opacity:1;"/>
<stop offset="0.328125" style="stop-color:rgb(49.131775%,71.125793%,88.122559%);stop-opacity:1;"/>
<stop offset="0.332031" style="stop-color:rgb(49.971008%,71.411133%,87.927246%);stop-opacity:1;"/>
<stop offset="0.335937" style="stop-color:rgb(50.811768%,71.697998%,87.733459%);stop-opacity:1;"/>
<stop offset="0.339844" style="stop-color:rgb(51.651001%,71.983337%,87.539673%);stop-opacity:1;"/>
<stop offset="0.34375" style="stop-color:rgb(52.49176%,72.270203%,87.345886%);stop-opacity:1;"/>
<stop offset="0.347656" style="stop-color:rgb(53.330994%,72.555542%,87.1521%);stop-opacity:1;"/>
<stop offset="0.351562" style="stop-color:rgb(54.171753%,72.842407%,86.958313%);stop-opacity:1;"/>
<stop offset="0.355469" style="stop-color:rgb(55.010986%,73.127747%,86.763%);stop-opacity:1;"/>
<stop offset="0.359375" style="stop-color:rgb(55.851746%,73.414612%,86.569214%);stop-opacity:1;"/>
<stop offset="0.363281" style="stop-color:rgb(56.690979%,73.699951%,86.375427%);stop-opacity:1;"/>
<stop offset="0.367187" style="stop-color:rgb(57.531738%,73.986816%,86.181641%);stop-opacity:1;"/>
<stop offset="0.371094" style="stop-color:rgb(58.370972%,74.272156%,85.987854%);stop-opacity:1;"/>
<stop offset="0.375" style="stop-color:rgb(59.211731%,74.557495%,85.794067%);stop-opacity:1;"/>
<stop offset="0.378906" style="stop-color:rgb(60.050964%,74.842834%,85.600281%);stop-opacity:1;"/>
<stop offset="0.382812" style="stop-color:rgb(60.891724%,75.1297%,85.406494%);stop-opacity:1;"/>
<stop offset="0.386719" style="stop-color:rgb(61.730957%,75.415039%,85.211182%);stop-opacity:1;"/>
<stop offset="0.390625" style="stop-color:rgb(62.571716%,75.701904%,85.017395%);stop-opacity:1;"/>
<stop offset="0.394531" style="stop-color:rgb(63.41095%,75.987244%,84.823608%);stop-opacity:1;"/>
<stop offset="0.398437" style="stop-color:rgb(64.251709%,76.274109%,84.629822%);stop-opacity:1;"/>
<stop offset="0.402344" style="stop-color:rgb(65.090942%,76.559448%,84.436035%);stop-opacity:1;"/>
<stop offset="0.40625" style="stop-color:rgb(65.931702%,76.846313%,84.242249%);stop-opacity:1;"/>
<stop offset="0.410156" style="stop-color:rgb(66.770935%,77.131653%,84.046936%);stop-opacity:1;"/>
<stop offset="0.414062" style="stop-color:rgb(67.611694%,77.418518%,83.853149%);stop-opacity:1;"/>
<stop offset="0.417969" style="stop-color:rgb(68.450928%,77.703857%,83.659363%);stop-opacity:1;"/>
<stop offset="0.421875" style="stop-color:rgb(69.291687%,77.989197%,83.465576%);stop-opacity:1;"/>
<stop offset="0.425781" style="stop-color:rgb(70.13092%,78.274536%,83.27179%);stop-opacity:1;"/>
<stop offset="0.429687" style="stop-color:rgb(70.97168%,78.561401%,83.078003%);stop-opacity:1;"/>
<stop offset="0.433594" style="stop-color:rgb(71.810913%,78.846741%,82.88269%);stop-opacity:1;"/>
<stop offset="0.4375" style="stop-color:rgb(72.651672%,79.133606%,82.688904%);stop-opacity:1;"/>
<stop offset="0.441406" style="stop-color:rgb(73.490906%,79.418945%,82.495117%);stop-opacity:1;"/>
<stop offset="0.445312" style="stop-color:rgb(74.331665%,79.705811%,82.301331%);stop-opacity:1;"/>
<stop offset="0.449219" style="stop-color:rgb(75.170898%,79.99115%,82.107544%);stop-opacity:1;"/>
<stop offset="0.453125" style="stop-color:rgb(76.011658%,80.278015%,81.913757%);stop-opacity:1;"/>
<stop offset="0.457031" style="stop-color:rgb(76.850891%,80.563354%,81.719971%);stop-opacity:1;"/>
<stop offset="0.460937" style="stop-color:rgb(77.69165%,80.85022%,81.526184%);stop-opacity:1;"/>
<stop offset="0.464844" style="stop-color:rgb(78.530884%,81.135559%,81.330872%);stop-opacity:1;"/>
<stop offset="0.46875" style="stop-color:rgb(79.371643%,81.420898%,81.137085%);stop-opacity:1;"/>
<stop offset="0.472656" style="stop-color:rgb(80.210876%,81.706238%,80.943298%);stop-opacity:1;"/>
<stop offset="0.476562" style="stop-color:rgb(81.051636%,81.993103%,80.749512%);stop-opacity:1;"/>
<stop offset="0.480469" style="stop-color:rgb(81.890869%,82.278442%,80.555725%);stop-opacity:1;"/>
<stop offset="0.484375" style="stop-color:rgb(82.731628%,82.565308%,80.361938%);stop-opacity:1;"/>
<stop offset="0.488281" style="stop-color:rgb(83.500671%,82.841492%,80.186462%);stop-opacity:1;"/>
<stop offset="0.492187" style="stop-color:rgb(84.27124%,83.117676%,80.010986%);stop-opacity:1;"/>
<stop offset="0.496094" style="stop-color:rgb(84.057617%,83.251953%,80.099487%);stop-opacity:1;"/>
<stop offset="0.5" style="stop-color:rgb(83.843994%,83.387756%,80.189514%);stop-opacity:1;"/>
<stop offset="0.503906" style="stop-color:rgb(83.630371%,83.522034%,80.278015%);stop-opacity:1;"/>
<stop offset="0.507812" style="stop-color:rgb(83.416748%,83.657837%,80.366516%);stop-opacity:1;"/>
<stop offset="0.511719" style="stop-color:rgb(83.203125%,83.792114%,80.455017%);stop-opacity:1;"/>
<stop offset="0.515625" style="stop-color:rgb(82.989502%,83.927917%,80.545044%);stop-opacity:1;"/>
<stop offset="0.519531" style="stop-color:rgb(82.775879%,84.063721%,80.633545%);stop-opacity:1;"/>
<stop offset="0.523438" style="stop-color:rgb(82.562256%,84.199524%,80.722046%);stop-opacity:1;"/>
<stop offset="0.527344" style="stop-color:rgb(82.348633%,84.333801%,80.810547%);stop-opacity:1;"/>
<stop offset="0.53125" style="stop-color:rgb(82.136536%,84.469604%,80.900574%);stop-opacity:1;"/>
<stop offset="0.535156" style="stop-color:rgb(81.922913%,84.603882%,80.989075%);stop-opacity:1;"/>
<stop offset="0.539062" style="stop-color:rgb(81.70929%,84.739685%,81.079102%);stop-opacity:1;"/>
<stop offset="0.542969" style="stop-color:rgb(81.495667%,84.873962%,81.167603%);stop-opacity:1;"/>
<stop offset="0.546875" style="stop-color:rgb(81.282043%,85.009766%,81.256104%);stop-opacity:1;"/>
<stop offset="0.550781" style="stop-color:rgb(81.06842%,85.144043%,81.344604%);stop-opacity:1;"/>
<stop offset="0.554687" style="stop-color:rgb(80.854797%,85.279846%,81.434631%);stop-opacity:1;"/>
<stop offset="0.558594" style="stop-color:rgb(80.641174%,85.415649%,81.523132%);stop-opacity:1;"/>
<stop offset="0.5625" style="stop-color:rgb(80.427551%,85.551453%,81.611633%);stop-opacity:1;"/>
<stop offset="0.566406" style="stop-color:rgb(80.213928%,85.68573%,81.700134%);stop-opacity:1;"/>
<stop offset="0.570312" style="stop-color:rgb(80.000305%,85.821533%,81.790161%);stop-opacity:1;"/>
<stop offset="0.574219" style="stop-color:rgb(79.786682%,85.955811%,81.878662%);stop-opacity:1;"/>
<stop offset="0.578125" style="stop-color:rgb(79.574585%,86.091614%,81.968689%);stop-opacity:1;"/>
<stop offset="0.582031" style="stop-color:rgb(79.360962%,86.225891%,82.05719%);stop-opacity:1;"/>
<stop offset="0.585938" style="stop-color:rgb(79.147339%,86.361694%,82.145691%);stop-opacity:1;"/>
<stop offset="0.589844" style="stop-color:rgb(78.933716%,86.497498%,82.234192%);stop-opacity:1;"/>
<stop offset="0.59375" style="stop-color:rgb(78.720093%,86.633301%,82.324219%);stop-opacity:1;"/>
<stop offset="0.597656" style="stop-color:rgb(78.50647%,86.767578%,82.41272%);stop-opacity:1;"/>
<stop offset="0.601562" style="stop-color:rgb(78.292847%,86.903381%,82.501221%);stop-opacity:1;"/>
<stop offset="0.605469" style="stop-color:rgb(78.079224%,87.037659%,82.589722%);stop-opacity:1;"/>
<stop offset="0.609375" style="stop-color:rgb(77.865601%,87.173462%,82.679749%);stop-opacity:1;"/>
<stop offset="0.613281" style="stop-color:rgb(77.651978%,87.307739%,82.76825%);stop-opacity:1;"/>
<stop offset="0.617187" style="stop-color:rgb(77.43988%,87.443542%,82.858276%);stop-opacity:1;"/>
<stop offset="0.621094" style="stop-color:rgb(77.226257%,87.579346%,82.946777%);stop-opacity:1;"/>
<stop offset="0.625" style="stop-color:rgb(77.012634%,87.715149%,83.035278%);stop-opacity:1;"/>
<stop offset="0.628906" style="stop-color:rgb(76.799011%,87.849426%,83.123779%);stop-opacity:1;"/>
<stop offset="0.632812" style="stop-color:rgb(76.585388%,87.985229%,83.213806%);stop-opacity:1;"/>
<stop offset="0.636719" style="stop-color:rgb(76.371765%,88.119507%,83.302307%);stop-opacity:1;"/>
<stop offset="0.640625" style="stop-color:rgb(76.158142%,88.25531%,83.390808%);stop-opacity:1;"/>
<stop offset="0.644531" style="stop-color:rgb(75.944519%,88.389587%,83.479309%);stop-opacity:1;"/>
<stop offset="0.648437" style="stop-color:rgb(75.730896%,88.525391%,83.569336%);stop-opacity:1;"/>
<stop offset="0.652344" style="stop-color:rgb(75.517273%,88.659668%,83.657837%);stop-opacity:1;"/>
<stop offset="0.65625" style="stop-color:rgb(75.30365%,88.795471%,83.747864%);stop-opacity:1;"/>
<stop offset="0.660156" style="stop-color:rgb(75.090027%,88.931274%,83.836365%);stop-opacity:1;"/>
<stop offset="0.664062" style="stop-color:rgb(74.87793%,89.067078%,83.924866%);stop-opacity:1;"/>
<stop offset="0.667969" style="stop-color:rgb(74.664307%,89.201355%,84.013367%);stop-opacity:1;"/>
<stop offset="0.671875" style="stop-color:rgb(74.450684%,89.337158%,84.103394%);stop-opacity:1;"/>
<stop offset="0.675781" style="stop-color:rgb(74.237061%,89.471436%,84.191895%);stop-opacity:1;"/>
<stop offset="0.679687" style="stop-color:rgb(74.023438%,89.607239%,84.280396%);stop-opacity:1;"/>
<stop offset="0.683594" style="stop-color:rgb(73.809814%,89.741516%,84.368896%);stop-opacity:1;"/>
<stop offset="0.6875" style="stop-color:rgb(73.596191%,89.877319%,84.458923%);stop-opacity:1;"/>
<stop offset="0.691406" style="stop-color:rgb(73.382568%,90.013123%,84.547424%);stop-opacity:1;"/>
<stop offset="0.695312" style="stop-color:rgb(73.168945%,90.148926%,84.637451%);stop-opacity:1;"/>
<stop offset="0.699219" style="stop-color:rgb(72.955322%,90.283203%,84.725952%);stop-opacity:1;"/>
<stop offset="0.703125" style="stop-color:rgb(72.741699%,90.419006%,84.814453%);stop-opacity:1;"/>
<stop offset="0.707031" style="stop-color:rgb(72.528076%,90.553284%,84.902954%);stop-opacity:1;"/>
<stop offset="0.710938" style="stop-color:rgb(72.315979%,90.689087%,84.992981%);stop-opacity:1;"/>
<stop offset="0.714844" style="stop-color:rgb(72.102356%,90.823364%,85.081482%);stop-opacity:1;"/>
<stop offset="0.71875" style="stop-color:rgb(71.888733%,90.959167%,85.169983%);stop-opacity:1;"/>
<stop offset="0.722656" style="stop-color:rgb(71.67511%,91.093445%,85.258484%);stop-opacity:1;"/>
<stop offset="0.726562" style="stop-color:rgb(71.461487%,91.229248%,85.348511%);stop-opacity:1;"/>
<stop offset="0.730469" style="stop-color:rgb(71.247864%,91.365051%,85.437012%);stop-opacity:1;"/>
<stop offset="0.734375" style="stop-color:rgb(71.034241%,91.500854%,85.525513%);stop-opacity:1;"/>
<stop offset="0.738281" style="stop-color:rgb(70.820618%,91.635132%,85.614014%);stop-opacity:1;"/>
<stop offset="0.742188" style="stop-color:rgb(70.606995%,91.770935%,85.704041%);stop-opacity:1;"/>
<stop offset="0.746094" style="stop-color:rgb(70.393372%,91.905212%,85.792542%);stop-opacity:1;"/>
<stop offset="0.75" style="stop-color:rgb(70.179749%,92.041016%,85.882568%);stop-opacity:1;"/>
<stop offset="0.753906" style="stop-color:rgb(69.966125%,92.175293%,85.971069%);stop-opacity:1;"/>
<stop offset="0.757812" style="stop-color:rgb(69.754028%,92.311096%,86.05957%);stop-opacity:1;"/>
<stop offset="0.761719" style="stop-color:rgb(69.540405%,92.446899%,86.148071%);stop-opacity:1;"/>
<stop offset="0.765625" style="stop-color:rgb(69.326782%,92.582703%,86.238098%);stop-opacity:1;"/>
<stop offset="0.769531" style="stop-color:rgb(69.113159%,92.71698%,86.326599%);stop-opacity:1;"/>
<stop offset="0.773438" style="stop-color:rgb(68.899536%,92.852783%,86.4151%);stop-opacity:1;"/>
<stop offset="0.777344" style="stop-color:rgb(68.685913%,92.987061%,86.503601%);stop-opacity:1;"/>
<stop offset="0.78125" style="stop-color:rgb(68.47229%,93.122864%,86.593628%);stop-opacity:1;"/>
<stop offset="0.785156" style="stop-color:rgb(68.258667%,93.257141%,86.682129%);stop-opacity:1;"/>
<stop offset="0.789062" style="stop-color:rgb(68.045044%,93.392944%,86.772156%);stop-opacity:1;"/>
<stop offset="0.792969" style="stop-color:rgb(67.831421%,93.527222%,86.860657%);stop-opacity:1;"/>
<stop offset="0.796875" style="stop-color:rgb(67.617798%,93.663025%,86.949158%);stop-opacity:1;"/>
<stop offset="0.800781" style="stop-color:rgb(67.404175%,93.798828%,87.037659%);stop-opacity:1;"/>
<stop offset="0.804688" style="stop-color:rgb(67.192078%,93.934631%,87.127686%);stop-opacity:1;"/>
<stop offset="0.808594" style="stop-color:rgb(66.978455%,94.068909%,87.216187%);stop-opacity:1;"/>
<stop offset="0.8125" style="stop-color:rgb(66.764832%,94.204712%,87.304688%);stop-opacity:1;"/>
<stop offset="0.816406" style="stop-color:rgb(66.551208%,94.338989%,87.393188%);stop-opacity:1;"/>
<stop offset="0.820312" style="stop-color:rgb(66.337585%,94.474792%,87.483215%);stop-opacity:1;"/>
<stop offset="0.828125" style="stop-color:rgb(66.317749%,94.487%,87.490845%);stop-opacity:1;"/>
<stop offset="0.84375" style="stop-color:rgb(66.299438%,94.499207%,87.5%);stop-opacity:1;"/>
<stop offset="0.875" style="stop-color:rgb(66.299438%,94.499207%,87.5%);stop-opacity:1;"/>
<stop offset="1" style="stop-color:rgb(66.299438%,94.499207%,87.5%);stop-opacity:1;"/>
</linearGradient>
<clipPath id="clip5">
  <path d="M 28.125 161 L 292 161 L 292 337.304688 L 28.125 337.304688 Z M 28.125 161 "/>
</clipPath>
<clipPath id="clip6">
  <path d="M 65 155 L 302 155 L 302 337.304688 L 65 337.304688 Z M 65 155 "/>
</clipPath>
<clipPath id="clip7">
  <path d="M 35 111 L 346.875 111 L 346.875 337.304688 L 35 337.304688 Z M 35 111 "/>
</clipPath>
</defs>
<g id="surface1">
<g clip-path="url(#clip1)" clip-rule="nonzero">
<g clip-path="url(#clip2)" clip-rule="nonzero">
<g clip-path="url(#clip3)" clip-rule="nonzero">
<g clip-path="url(#clip4)" clip-rule="nonzero">
<path style=" stroke:none;fill-rule:nonzero;fill:url(#linear0);" d="M 175.585938 510.566406 L 536.628906 172.730469 L 200.394531 -186.597656 L -160.644531 151.238281 Z M 175.585938 510.566406 "/>
</g>
</g>
</g>
</g>
<g clip-path="url(#clip5)" clip-rule="nonzero">
<path style=" stroke:none;fill-rule:nonzero;fill:rgb(15.689087%,73.728943%,66.268921%);fill-opacity:1;" d="M 274.195312 221.730469 L 63.613281 221.730469 L 63.613281 212.882812 L 274.203125 212.882812 L 274.203125 221.730469 Z M 93.226562 243.6875 C 86.097656 249.988281 75.148438 265.230469 75.148438 265.230469 C 75.148438 265.230469 74.484375 253.796875 80.125 246.339844 C 85.765625 238.878906 80.949219 221.980469 80.949219 221.980469 C 80.949219 221.980469 77.132812 226.125 75.640625 234.238281 C 74.152344 242.363281 71 241.527344 68.347656 248.65625 L 64.699219 237.550781 L 62.875 249.652344 C 62.875 249.652344 58.898438 242.523438 54.917969 240.863281 C 50.9375 239.207031 48.613281 229.59375 43.140625 227.109375 C 43.140625 227.109375 42.316406 234.0625 42.980469 239.539062 C 43.644531 245.003906 49.777344 254.453125 49.777344 254.453125 C 49.777344 254.453125 46.132812 252.460938 42.648438 250.476562 C 39.164062 248.484375 35.683594 241.035156 28.382812 239.707031 C 28.382812 239.707031 32.363281 246.167969 33.191406 252.300781 C 34.015625 258.429688 38.660156 262.074219 42.316406 266.382812 C 45.960938 270.691406 47.785156 280.140625 56.082031 285.769531 L 76.484375 285.769531 C 76.484375 285.769531 78.476562 283.945312 83.613281 274.828125 C 88.753906 265.710938 96.882812 266.210938 99.539062 253.78125 C 102.195312 241.351562 107.003906 242.1875 106.671875 236.21875 C 106.664062 236.230469 100.359375 237.390625 93.226562 243.6875 Z M 233.542969 248.824219 L 161.109375 325.402344 L 194.527344 337.292969 L 251.421875 337.292969 L 291.058594 256.789062 Z M 98.699219 193.441406 C 98.730469 193.613281 98.882812 193.734375 99.050781 193.734375 C 99.078125 193.734375 99.097656 193.734375 99.121094 193.730469 C 99.316406 193.691406 99.449219 193.5 99.410156 193.304688 L 93.867188 165.347656 C 93.710938 164.566406 93.910156 163.765625 94.421875 163.148438 C 94.929688 162.53125 95.675781 162.179688 96.472656 162.179688 L 113.554688 162.179688 C 113.757812 162.179688 113.914062 162.015625 113.914062 161.820312 C 113.914062 161.621094 113.75 161.464844 113.554688 161.464844 L 96.472656 161.464844 C 95.457031 161.464844 94.503906 161.914062 93.859375 162.699219 C 93.214844 163.480469 92.960938 164.503906 93.15625 165.5 Z M 98.699219 193.441406 "/>
</g>
<g clip-path="url(#clip6)" clip-rule="nonzero">
<path style=" stroke:none;fill-rule:nonzero;fill:rgb(73.728943%,90.19928%,88.62915%);fill-opacity:1;" d="M 297.652344 231.617188 C 288.257812 228.996094 273.960938 224.984375 267.410156 223.144531 L 267.410156 253.515625 L 233.542969 248.824219 L 161.109375 325.402344 L 194.496094 337.273438 L 65.675781 337.273438 L 65.675781 285.78125 L 76.476562 285.78125 C 76.476562 285.78125 78.46875 283.960938 83.609375 274.84375 C 88.746094 265.726562 96.875 266.226562 99.53125 253.796875 C 102.191406 241.367188 106.996094 242.199219 106.664062 236.230469 C 106.664062 236.230469 100.359375 237.390625 93.226562 243.6875 C 86.097656 249.988281 75.148438 265.230469 75.148438 265.230469 C 75.148438 265.230469 74.484375 253.796875 80.125 246.339844 C 85.765625 238.878906 80.949219 221.980469 80.949219 221.980469 C 80.949219 221.980469 77.132812 226.125 75.640625 234.238281 C 74.152344 242.363281 71 241.527344 68.347656 248.65625 L 65.671875 240.511719 L 65.671875 221.140625 L 251.695312 221.140625 C 250.449219 220.789062 249.152344 220.351562 247.800781 219.792969 C 238.648438 216.011719 222.085938 208.285156 222.085938 208.285156 L 228.078125 195.992188 L 255.679688 204.972656 L 261.203125 192.367188 C 261.203125 192.367188 260.414062 189.375 261.359375 183.699219 C 262.304688 178.027344 267.984375 168.882812 267.984375 168.882812 L 266.1875 163.304688 L 279.5 156.589844 C 281.394531 159.109375 284.390625 160.527344 289.59375 165.414062 C 294.796875 170.300781 296.695312 179.125 296.851562 190.789062 C 297.007812 202.449219 300.789062 216.480469 301.109375 223.097656 C 301.433594 229.722656 297.652344 231.617188 297.652344 231.617188 Z M 177.761719 193.636719 C 177.761719 193.636719 179.105469 193.636719 180.679688 195.53125 L 191.113281 171.035156 L 152.832031 170.914062 L 135.132812 213.179688 L 171.6875 213.179688 C 170.945312 211.984375 170.101562 210.605469 169.269531 209.160156 C 166.773438 204.855469 167.113281 200.894531 167.113281 200.894531 L 165.523438 198.0625 L 176.109375 191.417969 Z M 131.84375 164.175781 C 131.363281 163.9375 130.777344 164.105469 130.488281 164.566406 C 130.183594 165.074219 130.351562 165.734375 130.875 166.019531 L 143.289062 172.851562 L 146.871094 171.695312 Z M 267.402344 337.265625 L 267.402344 304.824219 L 251.425781 337.265625 Z M 146.492188 162.765625 L 148.441406 158.039062 L 152.65625 155.269531 C 152.65625 155.269531 155.410156 158.90625 157.636719 159.347656 C 158.136719 159.445312 158.511719 159.515625 158.867188 159.582031 L 158.144531 157.382812 C 157.6875 155.984375 156.378906 155.039062 154.90625 155.039062 L 134.191406 155.039062 L 143.886719 158.046875 Z M 82.632812 159.082031 C 82.226562 156.980469 83.835938 155.035156 85.980469 155.035156 L 133.113281 155.035156 C 132.605469 155.972656 130.855469 158.953125 129.101562 159.199219 C 127.019531 159.496094 114.234375 160.238281 109.328125 167.222656 C 104.425781 174.207031 102.339844 179.554688 101.15625 191.589844 C 100.035156 202.90625 99.050781 211.984375 98.933594 213.023438 L 93.078125 213.128906 Z M 93.15625 165.484375 L 98.699219 193.441406 C 98.730469 193.613281 98.882812 193.734375 99.050781 193.734375 C 99.078125 193.734375 99.097656 193.734375 99.121094 193.730469 C 99.316406 193.691406 99.449219 193.5 99.410156 193.304688 L 93.867188 165.347656 C 93.710938 164.566406 93.910156 163.765625 94.421875 163.148438 C 94.929688 162.53125 95.675781 162.179688 96.472656 162.179688 L 113.554688 162.179688 C 113.757812 162.179688 113.914062 162.015625 113.914062 161.820312 C 113.914062 161.621094 113.75 161.464844 113.554688 161.464844 L 96.472656 161.464844 C 95.457031 161.464844 94.503906 161.914062 93.859375 162.699219 C 93.214844 163.46875 92.960938 164.488281 93.15625 165.484375 Z M 93.15625 165.484375 "/>
</g>
<path style=" stroke:none;fill-rule:nonzero;fill:rgb(100%,100%,100%);fill-opacity:1;" d="M 167.457031 160.832031 C 159.429688 159.640625 159.878906 159.789062 157.644531 159.347656 C 155.417969 158.90625 152.660156 155.269531 152.660156 155.269531 L 148.445312 158.039062 L 146.5 162.765625 L 143.902344 158.039062 L 133.269531 154.742188 C 133.269531 154.742188 131.1875 158.898438 129.109375 159.199219 C 127.023438 159.496094 114.238281 160.238281 109.335938 167.222656 C 104.429688 174.207031 102.347656 179.554688 101.160156 191.589844 C 99.96875 203.621094 98.933594 213.128906 98.933594 213.128906 L 135.167969 213.128906 L 153.59375 170.914062 L 180.941406 171.003906 C 177.9375 165.015625 173.683594 161.757812 167.457031 160.832031 Z M 143.289062 172.851562 L 130.875 166.019531 C 130.351562 165.734375 130.175781 165.074219 130.488281 164.566406 C 130.769531 164.105469 131.355469 163.9375 131.84375 164.175781 L 146.878906 171.6875 Z M 192.4375 213.121094 L 171.648438 213.121094 C 170.910156 211.9375 170.089844 210.578125 169.261719 209.152344 C 166.769531 204.851562 167.105469 200.886719 167.105469 200.886719 L 165.519531 198.058594 L 176.101562 191.414062 L 177.761719 193.636719 C 177.761719 193.636719 179.105469 193.636719 180.679688 195.53125 L 185.355469 184.554688 C 188.46875 196.332031 192.4375 213.121094 192.4375 213.121094 Z M 296.863281 247.378906 C 293.710938 254.316406 283.925781 258.253906 274.464844 258.253906 C 265 258.253906 235.191406 258.253906 235.191406 258.253906 L 247.015625 280.945312 L 226.339844 294.417969 L 214.679688 271.015625 C 214.679688 271.015625 209.320312 279.996094 205.691406 284.882812 C 202.0625 289.769531 201.589844 293.550781 201.589844 293.550781 L 180.265625 288.066406 C 180.265625 288.066406 200.480469 237.285156 203.632812 228.78125 C 206.785156 220.269531 217.355469 211.597656 227.140625 213.175781 C 229.726562 213.589844 233.507812 214.417969 237.675781 215.398438 C 241.285156 217.015625 244.914062 218.59375 247.800781 219.792969 C 256.949219 223.574219 263.886719 222.15625 263.886719 222.15625 L 297.441406 231.605469 C 297.449219 231.609375 300.015625 240.441406 296.863281 247.378906 Z M 296.863281 247.378906 "/>
<path style=" stroke:none;fill-rule:nonzero;fill:rgb(92.158508%,62.348938%,58.428955%);fill-opacity:1;" d="M 277.503906 157.902344 L 266.199219 163.3125 C 266.199219 163.3125 265.519531 161.859375 263.976562 159.542969 C 262.433594 157.226562 259.144531 157.804688 255.953125 159.445312 C 252.761719 161.085938 249.570312 160.316406 246.867188 157.996094 C 244.15625 155.679688 242.394531 150.726562 242.394531 150.726562 C 242.394531 150.726562 238.675781 150.933594 240.535156 148.765625 C 242.394531 146.597656 241.15625 144.746094 241.671875 137.3125 C 242.183594 129.886719 247.863281 126.894531 247.863281 126.894531 C 254.183594 121.675781 266.96875 120.90625 272.378906 129.210938 C 277.792969 137.515625 271.996094 147.5625 273.058594 150.074219 C 274.125 152.585938 277.503906 157.902344 277.503906 157.902344 Z M 216.320312 192.382812 C 213.710938 191.417969 211.105469 191.898438 209.167969 194.21875 C 207.234375 196.535156 201.824219 201.941406 201.339844 202.8125 C 200.859375 203.6875 197.183594 204.550781 194.957031 205.03125 C 192.730469 205.515625 192.828125 207.0625 194.574219 207.351562 C 196.3125 207.644531 200.46875 207.644531 202.695312 207.253906 C 204.917969 206.867188 205.789062 205.800781 207.820312 204.257812 C 209.851562 202.714844 209.363281 203.101562 211.691406 201.460938 C 214.007812 199.820312 216.136719 200.300781 218.359375 201.558594 C 220.582031 202.8125 223.910156 205.144531 223.910156 205.144531 L 227.925781 197.015625 C 227.921875 197.023438 218.925781 193.351562 216.320312 192.382812 Z M 175.457031 301.003906 C 174.050781 304.480469 167.910156 311.648438 167.910156 311.648438 L 176.191406 320.007812 C 176.191406 320.007812 182.847656 317.496094 185.589844 316.089844 C 188.328125 314.683594 189.550781 312.722656 189.292969 309.136719 C 189.03125 305.558594 189.585938 303.152344 190.398438 300.195312 C 191.210938 297.242188 193.285156 291.328125 193.285156 291.328125 L 180.265625 288.074219 C 180.265625 288.066406 176.863281 297.527344 175.457031 301.003906 Z M 226.339844 294.425781 C 226.339844 294.425781 231.367188 306.4375 233.488281 311.070312 C 235.613281 315.703125 235.136719 322.382812 232.78125 325.050781 L 242.679688 329.527344 L 248.808594 324.660156 L 248.808594 310.289062 L 239.144531 286.023438 Z M 149.671875 170.984375 C 146.566406 171.835938 146.253906 171.835938 144.851562 172.304688 C 143.453125 172.773438 141.894531 173.390625 141.199219 175.410156 C 140.5 177.425781 137.464844 184.253906 137.464844 184.253906 L 143.6875 193.4375 L 152.550781 173.46875 C 152.542969 173.46875 152.777344 170.125 149.671875 170.984375 Z M 175.09375 187.527344 C 174.546875 185.507812 173.378906 183.71875 170.117188 182.320312 C 166.851562 180.921875 165.0625 179.835938 162.652344 178.671875 C 160.242188 177.503906 159.390625 179.214844 160.554688 180.765625 C 161.722656 182.320312 162.730469 183.71875 162.730469 183.71875 C 162.730469 183.71875 155.421875 183.71875 153.011719 183.5625 C 150.601562 183.40625 150.054688 184.730469 150.132812 185.816406 C 150.132812 185.816406 148.34375 186.667969 149.203125 187.910156 C 149.203125 187.910156 148.035156 188.527344 148.734375 189.773438 C 148.734375 189.773438 148.113281 190.703125 150.289062 191.632812 C 152.464844 192.5625 165.453125 198.160156 165.453125 198.160156 L 176.101562 191.40625 C 176.101562 191.414062 175.632812 189.550781 175.09375 187.527344 Z M 143.894531 158.039062 L 146.5 163.3125 L 148.441406 158.039062 L 149.835938 157.070312 L 150.441406 153.191406 C 150.441406 153.191406 153.839844 153.433594 157.355469 150.765625 C 160.875 148.097656 161.96875 141.125 161.96875 141.125 C 161.96875 141.125 164.148438 139.550781 164.332031 136.699219 C 164.515625 133.851562 162.390625 132.640625 162.390625 132.640625 C 163.421875 121.425781 153.351562 111.429688 140.984375 115.734375 C 128.609375 120.035156 130.25 132.945312 130.25 132.945312 C 128.003906 133.675781 126.789062 136.460938 128.308594 139.675781 C 129.824219 142.890625 133.582031 141.980469 133.582031 141.980469 L 136.800781 147.25 L 135.101562 155.25 Z M 143.894531 158.039062 "/>
<g clip-path="url(#clip7)" clip-rule="nonzero">
<path style=" stroke:none;fill-rule:nonzero;fill:rgb(17.248535%,25.489807%,47.839355%);fill-opacity:1;" d="M 244.660156 143.300781 C 244.660156 142.882812 245 142.546875 245.414062 142.546875 C 245.832031 142.546875 246.171875 142.882812 246.171875 143.300781 C 246.171875 143.714844 245.832031 144.054688 245.414062 144.054688 C 245 144.054688 244.660156 143.714844 244.660156 143.300781 Z M 241.832031 139.53125 C 241.890625 139.566406 241.957031 139.585938 242.023438 139.585938 C 242.144531 139.585938 242.261719 139.527344 242.328125 139.410156 C 242.398438 139.285156 244.191406 136.472656 248.058594 138.261719 C 248.242188 138.347656 248.457031 138.269531 248.542969 138.085938 C 248.625 137.90625 248.546875 137.691406 248.367188 137.605469 C 243.898438 135.535156 241.734375 138.992188 241.714844 139.03125 C 241.605469 139.207031 241.664062 139.429688 241.832031 139.53125 Z M 249.191406 154.628906 C 249.082031 154.792969 249.121094 155.019531 249.285156 155.132812 C 249.347656 155.175781 249.421875 155.195312 249.484375 155.195312 C 249.601562 155.195312 249.714844 155.144531 249.785156 155.039062 C 249.816406 154.988281 250.640625 153.789062 251.179688 152.566406 C 251.480469 151.882812 251.296875 151.136719 250.71875 150.660156 C 250.136719 150.179688 249.34375 150.132812 248.757812 150.542969 C 247.792969 151.207031 245.929688 152.328125 245.910156 152.339844 C 245.742188 152.445312 245.683594 152.664062 245.785156 152.835938 C 245.890625 153.003906 246.113281 153.0625 246.28125 152.957031 C 246.359375 152.910156 248.191406 151.8125 249.167969 151.136719 C 249.539062 150.875 249.980469 150.992188 250.261719 151.214844 C 250.386719 151.316406 250.777344 151.695312 250.523438 152.273438 C 250.011719 153.4375 249.199219 154.617188 249.191406 154.628906 Z M 265.613281 142.371094 C 265.660156 142.390625 265.703125 142.394531 265.75 142.394531 C 265.894531 142.394531 266.03125 142.3125 266.082031 142.167969 C 266.113281 142.089844 266.816406 140.3125 265.554688 138.933594 C 264.296875 137.566406 261.976562 138.191406 261.878906 138.21875 C 261.691406 138.269531 261.574219 138.472656 261.632812 138.660156 C 261.683594 138.847656 261.878906 138.964844 262.074219 138.914062 C 262.09375 138.90625 264.070312 138.378906 265.027344 139.421875 C 265.976562 140.457031 265.4375 141.835938 265.417969 141.894531 C 265.339844 142.082031 265.421875 142.292969 265.613281 142.371094 Z M 269.34375 173.300781 C 265.992188 179.566406 261.28125 190.867188 261.234375 190.984375 C 261.15625 191.164062 261.25 191.378906 261.429688 191.457031 C 261.476562 191.476562 261.523438 191.484375 261.566406 191.484375 C 261.710938 191.484375 261.839844 191.398438 261.898438 191.261719 C 261.945312 191.152344 266.640625 179.878906 269.976562 173.644531 C 273.316406 167.40625 280.167969 163.746094 285.90625 165.152344 C 286.097656 165.199219 286.296875 165.082031 286.34375 164.886719 C 286.390625 164.691406 286.273438 164.496094 286.078125 164.449219 C 280.039062 162.964844 272.835938 166.773438 269.34375 173.300781 Z M 245.402344 319.640625 C 245.472656 319.707031 245.558594 319.738281 245.648438 319.738281 C 245.746094 319.738281 245.839844 319.699219 245.910156 319.628906 C 247.332031 318.125 246.554688 316.003906 245.949219 315.09375 C 245.839844 314.921875 245.609375 314.882812 245.449219 314.996094 C 245.285156 315.105469 245.238281 315.328125 245.351562 315.496094 C 245.363281 315.515625 246.769531 317.671875 245.390625 319.132812 C 245.253906 319.277344 245.257812 319.503906 245.402344 319.640625 Z M 182.679688 308.429688 C 182.523438 308.550781 182.492188 308.78125 182.613281 308.9375 C 182.6875 309.027344 182.789062 309.078125 182.902344 309.078125 C 182.980469 309.078125 183.058594 309.054688 183.125 309 C 185.511719 307.160156 184.242188 304.121094 184.230469 304.089844 C 184.152344 303.90625 183.945312 303.820312 183.753906 303.898438 C 183.574219 303.976562 183.488281 304.191406 183.566406 304.375 C 183.613281 304.480469 184.621094 306.933594 182.679688 308.429688 Z M 207.234375 196.898438 C 207.058594 196.800781 206.835938 196.867188 206.746094 197.042969 C 206.71875 197.085938 204.09375 201.84375 203.195312 203.640625 C 202.746094 204.539062 202.851562 205.398438 203.476562 205.945312 C 203.820312 206.242188 204.269531 206.394531 204.742188 206.394531 C 205.183594 206.394531 205.632812 206.257812 206.03125 205.988281 C 206.191406 205.878906 206.238281 205.652344 206.121094 205.488281 C 206.011719 205.324219 205.78125 205.28125 205.621094 205.398438 C 205.007812 205.820312 204.316406 205.714844 203.953125 205.398438 C 203.585938 205.078125 203.546875 204.550781 203.839844 203.960938 C 204.734375 202.175781 207.351562 197.433594 207.378906 197.386719 C 207.46875 197.210938 207.402344 196.988281 207.234375 196.898438 Z M 130.25 132.953125 C 128.503906 128.535156 127.605469 122.65625 133.386719 117.082031 C 139.164062 111.503906 149.835938 110.902344 153.820312 113.195312 C 157.804688 115.484375 158.707031 118.570312 158.707031 118.570312 C 158.707031 118.570312 163.890625 120.957031 164.285156 125.839844 C 164.582031 129.398438 163.492188 132.746094 162.878906 134.292969 C 162.898438 135.503906 162.722656 137.613281 161.40625 138.984375 C 160.585938 139.839844 159.460938 140.28125 158.046875 140.300781 C 158.015625 140.300781 157.980469 140.300781 157.949219 140.300781 C 155.023438 140.300781 153.105469 138.367188 152.65625 134.96875 C 151.285156 134.175781 150.070312 134.8125 150.054688 134.820312 C 150.035156 134.832031 150.015625 134.832031 149.996094 134.839844 C 149.996094 134.925781 149.996094 135.015625 149.984375 135.101562 C 149.582031 138.613281 147.640625 140.617188 144.65625 140.617188 C 144.625 140.617188 144.589844 140.617188 144.558594 140.617188 C 143.144531 140.597656 142.011719 140.15625 141.199219 139.304688 C 139.84375 137.890625 139.691406 135.6875 139.726562 134.496094 C 139.726562 134.410156 139.738281 134.324219 139.75 134.234375 L 135.519531 134.515625 L 134.09375 137.496094 C 134.085938 137.488281 131.996094 137.371094 130.25 132.953125 Z M 148.347656 133.175781 C 147.621094 132.730469 146.402344 132.222656 144.6875 132.222656 C 144.625 132.222656 144.558594 132.222656 144.492188 132.222656 C 143.210938 132.25 142.160156 132.492188 141.378906 132.925781 C 140.828125 133.238281 140.46875 133.84375 140.449219 134.507812 C 140.417969 135.589844 140.546875 137.574219 141.71875 138.796875 C 142.394531 139.507812 143.359375 139.878906 144.570312 139.890625 C 148.1875 139.933594 149.050781 136.855469 149.269531 135.007812 C 149.347656 134.285156 148.988281 133.558594 148.347656 133.175781 Z M 162.152344 134.242188 L 161.753906 133.097656 C 161.605469 132.902344 161.433594 132.730469 161.21875 132.609375 C 160.4375 132.171875 159.390625 131.929688 158.105469 131.90625 C 156.289062 131.851562 155.003906 132.398438 154.25 132.855469 C 153.613281 133.238281 153.253906 133.960938 153.339844 134.695312 C 153.554688 136.546875 154.472656 139.617188 158.035156 139.578125 C 159.246094 139.558594 160.203125 139.195312 160.886719 138.484375 C 162.039062 137.273438 162.175781 135.328125 162.152344 134.242188 Z M 138.664062 127.929688 L 135.863281 133.757812 L 139.84375 133.5 C 139.875 133.5 139.902344 133.503906 139.933594 133.511719 C 140.15625 133 140.535156 132.570312 141.023438 132.296875 C 141.90625 131.800781 143.066406 131.535156 144.46875 131.5 C 146.453125 131.460938 147.875 132.046875 148.714844 132.554688 C 149.300781 132.90625 149.703125 133.464844 149.886719 134.097656 C 150.308594 133.921875 151.390625 133.601562 152.621094 134.144531 C 152.726562 133.363281 153.175781 132.652344 153.871094 132.238281 C 154.710938 131.730469 156.132812 131.144531 158.117188 131.183594 C 159.402344 131.207031 160.464844 131.449219 161.316406 131.867188 L 157.792969 121.757812 C 157.800781 121.757812 157.199219 125.242188 138.664062 127.929688 Z M 145.3125 135.140625 C 144.824219 135.140625 144.433594 135.53125 144.433594 136.019531 C 144.433594 136.507812 144.824219 136.894531 145.3125 136.894531 C 145.800781 136.894531 146.195312 136.507812 146.195312 136.019531 C 146.195312 135.535156 145.800781 135.140625 145.3125 135.140625 Z M 156.59375 135.140625 C 156.105469 135.140625 155.714844 135.53125 155.714844 136.019531 C 155.714844 136.507812 156.105469 136.894531 156.59375 136.894531 C 157.082031 136.894531 157.472656 136.507812 157.472656 136.019531 C 157.472656 135.535156 157.082031 135.140625 156.59375 135.140625 Z M 151.253906 141.730469 C 151.070312 141.808594 150.988281 142.019531 151.058594 142.207031 C 151.117188 142.34375 151.253906 142.429688 151.390625 142.429688 C 151.4375 142.429688 151.488281 142.421875 151.527344 142.402344 C 152.164062 142.136719 153.496094 141.574219 153.910156 140.515625 C 154.113281 140.007812 154.082031 139.449219 153.8125 138.863281 C 153.027344 137.109375 152.164062 135.5625 152.160156 135.550781 C 152.0625 135.375 151.839844 135.308594 151.671875 135.40625 C 151.496094 135.503906 151.4375 135.726562 151.527344 135.894531 C 151.535156 135.90625 152.382812 137.429688 153.15625 139.15625 C 153.339844 139.566406 153.371094 139.921875 153.242188 140.246094 C 152.941406 141.023438 151.800781 141.503906 151.253906 141.730469 Z M 146.324219 143.898438 C 146.179688 144.035156 146.175781 144.261719 146.3125 144.40625 C 146.371094 144.464844 147.761719 145.878906 151.28125 145.878906 C 151.480469 145.878906 151.636719 145.714844 151.636719 145.519531 C 151.636719 145.316406 151.476562 145.160156 151.28125 145.160156 C 148.113281 145.160156 146.859375 143.929688 146.832031 143.910156 C 146.695312 143.769531 146.46875 143.761719 146.324219 143.898438 Z M 150.445312 153.191406 C 147.074219 153.082031 146.054688 152.699219 144.84375 152.320312 C 143.632812 151.9375 143.445312 153.398438 145.605469 154.550781 C 146.683594 155.125 148.402344 156.082031 149.867188 156.90625 Z M 161.09375 187.734375 C 161.269531 187.734375 161.425781 187.605469 161.453125 187.421875 C 161.480469 187.226562 161.34375 187.046875 161.148438 187.011719 L 150.1875 185.457031 C 149.992188 185.429688 149.808594 185.566406 149.777344 185.761719 C 149.75 185.957031 149.886719 186.140625 150.082031 186.171875 L 161.042969 187.730469 C 161.0625 187.730469 161.082031 187.734375 161.09375 187.734375 Z M 149.292969 187.566406 C 149.105469 187.515625 148.902344 187.632812 148.851562 187.820312 C 148.796875 188.015625 148.914062 188.210938 149.105469 188.261719 L 159.355469 191.003906 C 159.390625 191.007812 159.421875 191.015625 159.449219 191.015625 C 159.605469 191.015625 159.753906 190.910156 159.792969 190.75 C 159.84375 190.554688 159.726562 190.359375 159.539062 190.304688 Z M 158.503906 193.371094 C 158.652344 193.371094 158.796875 193.273438 158.847656 193.125 C 158.914062 192.933594 158.808594 192.734375 158.621094 192.667969 L 148.855469 189.441406 C 148.667969 189.375 148.464844 189.480469 148.402344 189.667969 C 148.335938 189.855469 148.441406 190.058594 148.628906 190.125 L 158.390625 193.351562 C 158.425781 193.363281 158.464844 193.371094 158.503906 193.371094 Z M 162.476562 183.460938 C 162.332031 183.597656 162.328125 183.824219 162.46875 183.96875 L 164.554688 186.113281 C 164.625 186.1875 164.71875 186.226562 164.816406 186.226562 C 164.90625 186.226562 164.996094 186.191406 165.070312 186.121094 C 165.210938 185.984375 165.21875 185.757812 165.074219 185.613281 L 162.992188 183.464844 C 162.847656 183.328125 162.621094 183.324219 162.476562 183.460938 Z M 152.035156 173.601562 C 151.988281 173.40625 151.800781 173.28125 151.605469 173.328125 L 147.652344 174.199219 C 147.457031 174.246094 147.332031 174.433594 147.378906 174.628906 C 147.417969 174.796875 147.566406 174.910156 147.730469 174.910156 C 147.757812 174.910156 147.78125 174.910156 147.808594 174.902344 L 151.761719 174.03125 C 151.957031 173.992188 152.082031 173.796875 152.035156 173.601562 Z M 94.582031 246.5 C 94.519531 246.558594 88.273438 252.519531 83.601562 261.691406 C 81.84375 265.140625 80.109375 267.359375 78.4375 269.5 C 75.667969 273.039062 73.058594 276.390625 70.847656 284.628906 L 68.257812 284.628906 C 69.175781 272.519531 75.363281 265.535156 75.425781 265.472656 C 75.5625 265.320312 75.550781 265.09375 75.402344 264.964844 C 75.25 264.832031 75.023438 264.839844 74.894531 264.988281 C 74.875 265.015625 74.175781 265.796875 73.21875 267.265625 C 72.984375 265.726562 72.332031 262.183594 70.933594 259.125 C 71.9375 251.308594 74.308594 247.164062 76.046875 244.132812 C 77.152344 242.199219 78.03125 240.667969 78.03125 238.972656 C 78.03125 234.929688 79.015625 229.847656 79.023438 229.796875 C 79.0625 229.601562 78.933594 229.410156 78.734375 229.371094 C 78.539062 229.332031 78.351562 229.464844 78.3125 229.660156 C 78.300781 229.710938 77.304688 234.859375 77.304688 238.972656 C 77.304688 240.480469 76.507812 241.859375 75.414062 243.773438 C 73.742188 246.695312 71.488281 250.640625 70.386719 257.8125 C 69.695312 255.929688 69.511719 254.285156 69.332031 252.574219 C 69.195312 251.316406 69.058594 250.019531 68.710938 248.582031 C 68.667969 248.386719 68.472656 248.277344 68.277344 248.316406 C 68.082031 248.363281 67.964844 248.558594 68.007812 248.753906 C 68.347656 250.144531 68.484375 251.421875 68.613281 252.652344 C 68.84375 254.785156 69.058594 256.800781 70.238281 259.335938 C 72.035156 263.191406 72.605469 268.085938 72.613281 268.140625 C 72.613281 268.164062 72.625 268.183594 72.632812 268.210938 C 70.6875 271.457031 68.101562 277.074219 67.535156 284.636719 L 67.34375 284.636719 C 67.253906 282.035156 67.28125 279.558594 67.3125 277.152344 C 67.371094 272.292969 67.421875 267.695312 66.414062 263.207031 C 64.8125 256.0625 65.664062 250.136719 65.671875 250.078125 C 65.695312 249.886719 65.566406 249.703125 65.363281 249.671875 C 65.167969 249.636719 64.980469 249.773438 64.953125 249.976562 C 64.949219 250.035156 64.070312 256.085938 65.703125 263.367188 C 66.695312 267.78125 66.640625 272.332031 66.582031 277.152344 C 66.5625 278.664062 66.550781 280.203125 66.554688 281.785156 C 65.554688 278.722656 63.984375 276.636719 62.445312 274.613281 C 62.054688 274.101562 61.671875 273.59375 61.300781 273.070312 C 61.542969 272.402344 62.621094 268.960938 61.847656 262.121094 C 61.019531 254.816406 63.1875 249.867188 63.207031 249.8125 C 63.285156 249.632812 63.207031 249.417969 63.027344 249.339844 C 62.84375 249.253906 62.628906 249.339844 62.550781 249.519531 C 62.472656 249.695312 60.863281 253.378906 60.941406 259.152344 C 58.675781 252.617188 55.738281 249.773438 53.523438 247.625 C 51.941406 246.089844 50.683594 244.878906 50.265625 242.890625 C 49.140625 237.5 47.042969 234.625 46.953125 234.507812 C 46.835938 234.34375 46.605469 234.3125 46.449219 234.429688 C 46.289062 234.546875 46.253906 234.773438 46.371094 234.9375 C 46.390625 234.960938 48.464844 237.820312 49.558594 243.039062 C 50.019531 245.25 51.34375 246.527344 53.015625 248.148438 C 55.476562 250.527344 58.84375 253.78125 61.132812 262.21875 C 61.757812 267.761719 61.117188 271.042969 60.78125 272.304688 C 59.621094 270.59375 58.609375 268.6875 58.019531 266.03125 C 56.160156 257.757812 50.207031 254.289062 49.953125 254.148438 C 49.777344 254.050781 49.558594 254.109375 49.460938 254.285156 C 49.363281 254.460938 49.421875 254.675781 49.597656 254.777344 C 49.65625 254.8125 55.523438 258.234375 57.308594 266.191406 C 58.214844 270.222656 60.070312 272.667969 61.875 275.039062 C 63.855469 277.648438 65.722656 280.105469 66.515625 284.570312 C 66.523438 284.597656 66.542969 284.609375 66.550781 284.628906 L 60.636719 284.628906 C 60.265625 283.320312 58.988281 280.171875 54.792969 276.5 C 52.15625 274.191406 50.714844 271.015625 49.328125 267.945312 C 47.933594 264.859375 46.613281 261.9375 44.195312 260.210938 C 39.625 256.953125 36.453125 250.679688 36.421875 250.621094 C 36.328125 250.445312 36.113281 250.367188 35.9375 250.457031 C 35.761719 250.546875 35.691406 250.761719 35.773438 250.9375 C 35.90625 251.207031 39.058594 257.433594 43.773438 260.796875 C 46.035156 262.414062 47.308594 265.242188 48.671875 268.238281 C 50.089844 271.378906 51.5625 274.628906 54.324219 277.042969 C 58.15625 280.386719 59.457031 283.308594 59.886719 284.625 L 48.917969 284.625 C 47.191406 284.625 45.792969 286.023438 45.792969 287.746094 L 45.792969 321.671875 C 45.792969 330.320312 52.808594 337.328125 61.464844 337.328125 L 70.847656 337.328125 C 79.503906 337.328125 86.519531 330.320312 86.519531 321.671875 L 86.519531 287.746094 C 86.519531 286.023438 85.121094 284.625 83.394531 284.625 L 71.597656 284.625 C 73.753906 276.664062 76.308594 273.390625 79.003906 269.933594 C 80.703125 267.761719 82.457031 265.515625 84.246094 262.007812 C 88.859375 252.949219 95.019531 247.074219 95.085938 247.015625 C 95.226562 246.878906 95.234375 246.652344 95.097656 246.507812 C 94.953125 246.371094 94.726562 246.363281 94.582031 246.5 Z M 177.738281 150.621094 C 177.144531 149.996094 176.832031 149.183594 176.863281 148.324219 L 177.464844 131.636719 C 177.523438 129.933594 178.910156 128.59375 180.617188 128.578125 L 223.972656 128.292969 C 223.980469 128.292969 223.988281 128.292969 223.992188 128.292969 C 225.730469 128.292969 227.152344 129.699219 227.164062 131.4375 L 227.28125 147.300781 C 227.296875 149.066406 228.0625 150.75 229.386719 151.921875 L 232.792969 154.9375 C 232.929688 155.054688 232.957031 155.253906 232.851562 155.410156 C 232.78125 155.515625 232.667969 155.566406 232.550781 155.566406 C 232.5 155.566406 232.441406 155.554688 232.390625 155.527344 L 227.007812 152.839844 C 226.175781 152.425781 225.238281 152.195312 224.300781 152.183594 L 179.984375 151.597656 C 179.128906 151.589844 178.328125 151.238281 177.738281 150.621094 Z M 177.585938 148.34375 C 177.5625 149.007812 177.800781 149.636719 178.265625 150.121094 C 178.71875 150.601562 179.339844 150.867188 180.003906 150.882812 L 224.320312 151.46875 C 225.359375 151.480469 226.402344 151.734375 227.339844 152.203125 L 230.257812 153.660156 L 228.910156 152.46875 C 227.433594 151.160156 226.578125 149.289062 226.566406 147.316406 L 226.449219 131.449219 C 226.4375 130.109375 225.339844 129.023438 224 129.023438 C 223.992188 129.023438 223.988281 129.023438 223.980469 129.023438 L 180.621094 129.308594 C 179.304688 129.316406 178.238281 130.355469 178.191406 131.671875 Z M 182.296875 134.695312 C 182.300781 134.695312 182.300781 134.695312 182.296875 134.695312 L 220.367188 134.15625 C 220.566406 134.15625 220.722656 133.988281 220.722656 133.792969 C 220.71875 133.589844 220.574219 133.410156 220.359375 133.433594 L 182.289062 133.972656 C 182.085938 133.972656 181.929688 134.144531 181.929688 134.339844 C 181.9375 134.535156 182.101562 134.695312 182.296875 134.695312 Z M 182.160156 139.585938 L 219.683594 139.585938 C 219.882812 139.585938 220.039062 139.421875 220.039062 139.226562 C 220.039062 139.03125 219.878906 138.867188 219.683594 138.867188 L 182.160156 138.867188 C 181.957031 138.867188 181.800781 139.03125 181.800781 139.226562 C 181.800781 139.421875 181.964844 139.585938 182.160156 139.585938 Z M 182.160156 145.15625 C 182.164062 145.15625 182.164062 145.15625 182.160156 145.15625 L 219.414062 144.746094 C 219.617188 144.746094 219.773438 144.582031 219.773438 144.378906 C 219.773438 144.179688 219.578125 144.027344 219.40625 144.023438 L 182.152344 144.433594 C 181.949219 144.433594 181.792969 144.59375 181.792969 144.796875 C 181.800781 144.992188 181.964844 145.15625 182.160156 145.15625 Z M 240.914062 143.546875 C 240.84375 143.359375 240.941406 143.152344 241.121094 143.085938 L 242.132812 142.707031 C 243.929688 138.84375 248.105469 140.144531 248.894531 140.429688 L 251.441406 139.65625 C 250.820312 139.078125 250.214844 138.40625 249.636719 137.644531 C 245.558594 132.210938 244.316406 130.289062 244.316406 130.289062 C 244.316406 130.289062 244.992188 125.539062 250.203125 122.261719 C 255.414062 118.980469 267.300781 115.582031 274.320312 123.164062 C 281.34375 130.746094 278.507812 137.195312 283.945312 141.042969 C 289.386719 144.886719 290.96875 157.21875 279.304688 161.066406 C 267.636719 164.914062 257.789062 156.089844 261.976562 147.035156 C 261.976562 147.035156 268.660156 145.226562 267.527344 139.910156 C 266.394531 134.59375 260.507812 137.417969 260.507812 137.417969 L 261.410156 143.527344 C 261.410156 143.527344 256.507812 143.917969 252.070312 140.222656 L 249.347656 141.046875 C 249.640625 141.941406 250.265625 144.222656 249.453125 145.859375 C 249.0625 146.644531 248.390625 147.171875 247.46875 147.417969 C 247.121094 147.511719 246.789062 147.554688 246.464844 147.554688 C 245.871094 147.554688 245.3125 147.40625 244.785156 147.101562 C 243.238281 146.214844 242.445312 144.28125 242.164062 143.46875 L 241.378906 143.761719 C 241.339844 143.773438 241.292969 143.789062 241.253906 143.789062 C 241.109375 143.78125 240.972656 143.695312 240.914062 143.546875 Z M 242.777344 143.019531 C 242.882812 143.351562 243.214844 144.328125 243.832031 145.207031 C 244.789062 146.574219 245.949219 147.082031 247.285156 146.714844 C 248.015625 146.519531 248.507812 146.132812 248.808594 145.527344 C 249.5625 144.023438 248.816406 141.679688 248.601562 141.082031 C 247.84375 140.800781 244.308594 139.707031 242.777344 143.019531 Z M 318.460938 248.453125 C 311.472656 248.453125 300.980469 250.738281 291.984375 253.101562 C 287.4375 256.429688 280.878906 258.253906 274.457031 258.253906 C 272.746094 258.253906 270.367188 258.253906 267.617188 258.253906 C 264.296875 258.703125 260.304688 259.917969 256.964844 262.914062 C 249.726562 269.382812 248.964844 276.988281 248.964844 283.269531 C 248.964844 287.472656 248.710938 310.269531 248.542969 324.875 L 242.679688 329.535156 L 233.027344 324.855469 C 233.027344 324.855469 230.800781 327.730469 224.253906 330.613281 C 217.707031 333.492188 221.375 337.15625 221.375 337.15625 C 221.375 337.15625 227.660156 337.15625 232.507812 337.15625 C 237.351562 337.15625 241.410156 334.277344 248.484375 329.167969 L 248.503906 328.933594 C 248.445312 333.960938 248.40625 337.292969 248.40625 337.292969 L 346.644531 337.292969 C 346.644531 337.292969 346.644531 302.480469 346.644531 280.222656 C 346.636719 257.960938 332.933594 248.453125 318.460938 248.453125 Z M 240.785156 290.121094 L 239.148438 286.015625 L 227.046875 293.957031 Z M 180.140625 288.425781 L 191.765625 295.816406 C 192.542969 293.46875 193.289062 291.320312 193.289062 291.320312 L 180.269531 288.066406 C 180.265625 288.066406 180.21875 288.195312 180.140625 288.425781 Z M 254.800781 227.160156 C 260.980469 226.171875 264.988281 222.097656 265.148438 221.925781 C 265.203125 221.875 265.226562 221.804688 265.242188 221.738281 C 265.242188 221.738281 265.246094 221.738281 265.246094 221.738281 C 265.300781 221.738281 265.34375 221.726562 265.398438 221.707031 C 265.546875 221.640625 269.070312 220.019531 272.042969 214.976562 C 273.773438 212.042969 277.726562 204.558594 280.90625 198.542969 C 283.171875 194.261719 285.125 190.558594 285.730469 189.53125 C 286.179688 188.777344 286.703125 188.316406 287.296875 188.164062 C 288.003906 187.984375 288.605469 188.328125 288.625 188.335938 C 288.792969 188.4375 289.015625 188.386719 289.117188 188.21875 C 289.222656 188.046875 289.171875 187.828125 289 187.722656 C 288.96875 187.703125 288.15625 187.207031 287.132812 187.460938 C 286.34375 187.65625 285.667969 188.230469 285.113281 189.167969 C 284.5 190.207031 282.539062 193.917969 280.273438 198.207031 C 277.101562 204.214844 273.148438 211.683594 271.429688 214.605469 C 268.589844 219.433594 265.148438 221.027344 265.117188 221.042969 C 265.007812 221.09375 264.933594 221.199219 264.914062 221.308594 C 264.816406 221.308594 264.71875 221.339844 264.648438 221.417969 C 264.609375 221.457031 260.636719 225.492188 254.703125 226.445312 C 248.574219 227.425781 232.140625 230.121094 232.140625 230.121094 C 232.019531 230.140625 231.914062 230.226562 231.867188 230.335938 L 215.433594 269.296875 C 215.355469 269.480469 215.441406 269.695312 215.628906 269.773438 C 215.675781 269.792969 215.722656 269.796875 215.773438 269.796875 C 215.917969 269.796875 216.046875 269.714844 216.105469 269.578125 L 232.460938 230.804688 C 234.308594 230.492188 249.0625 228.070312 254.800781 227.160156 Z M 235.183594 258.613281 C 235.242188 258.613281 235.308594 258.597656 235.359375 258.566406 C 235.535156 258.46875 235.59375 258.246094 235.496094 258.078125 C 233.351562 254.25 230.5 251.328125 230.472656 251.296875 C 230.332031 251.152344 230.101562 251.152344 229.964844 251.289062 C 229.824219 251.425781 229.824219 251.660156 229.960938 251.796875 C 229.984375 251.824219 232.773438 254.6875 234.871094 258.429688 C 234.933594 258.546875 235.058594 258.613281 235.183594 258.613281 Z M 255.464844 204.699219 C 255.308594 204.824219 255.28125 205.050781 255.414062 205.207031 L 258.390625 208.890625 C 258.460938 208.984375 258.566406 209.027344 258.667969 209.027344 C 258.746094 209.027344 258.832031 209.003906 258.898438 208.949219 C 259.054688 208.828125 259.078125 208.597656 258.949219 208.441406 L 255.972656 204.757812 C 255.847656 204.597656 255.621094 204.578125 255.464844 204.699219 Z M 180.519531 194.777344 C 180.382812 194.921875 180.382812 195.148438 180.523438 195.285156 L 185.675781 200.261719 C 185.746094 200.328125 185.839844 200.367188 185.929688 200.367188 C 186.027344 200.367188 186.121094 200.328125 186.191406 200.257812 C 186.328125 200.113281 186.328125 199.886719 186.183594 199.75 L 181.03125 194.769531 C 180.882812 194.632812 180.65625 194.632812 180.519531 194.777344 Z M 137.238281 183.96875 C 137.238281 183.96875 135.71875 185.183594 133.855469 186.609375 C 133.191406 187.117188 132.601562 187.292969 131.84375 187.515625 C 130.605469 187.878906 129.0625 188.328125 126.535156 190.488281 C 125.773438 191.140625 124.589844 192.191406 123.164062 193.46875 L 123.976562 182.769531 C 123.988281 182.566406 123.839844 182.398438 123.644531 182.378906 C 123.4375 182.367188 123.273438 182.515625 123.253906 182.710938 L 122.394531 194.027344 C 122.394531 194.066406 122.402344 194.105469 122.40625 194.144531 C 116.316406 199.617188 106.859375 208.292969 106.738281 208.402344 C 106.585938 208.539062 106.582031 208.769531 106.71875 208.910156 C 106.789062 208.988281 106.886719 209.027344 106.984375 209.027344 C 107.070312 209.027344 107.160156 208.996094 107.230469 208.929688 C 107.386719 208.789062 123.039062 194.433594 127.003906 191.035156 C 129.414062 188.972656 130.875 188.546875 132.046875 188.203125 C 132.808594 187.984375 133.523438 187.773438 134.300781 187.183594 C 136.167969 185.75 137.6875 184.527344 137.6875 184.527344 C 137.84375 184.402344 137.871094 184.175781 137.746094 184.019531 C 137.621094 183.871094 137.394531 183.84375 137.238281 183.96875 Z M 143.5625 158.261719 C 143.394531 158.15625 143.171875 158.203125 143.058594 158.371094 L 140.070312 163.101562 L 131.03125 159.285156 C 130.847656 159.207031 130.632812 159.289062 130.554688 159.472656 C 130.476562 159.652344 130.5625 159.867188 130.742188 159.945312 L 140.0625 163.882812 C 140.109375 163.902344 140.15625 163.910156 140.207031 163.910156 C 140.332031 163.910156 140.441406 163.851562 140.515625 163.742188 L 143.667969 158.757812 C 143.785156 158.585938 143.730469 158.367188 143.5625 158.261719 Z M 149.097656 158.253906 C 148.921875 158.351562 148.863281 158.574219 148.960938 158.742188 L 151.457031 163.199219 C 151.515625 163.296875 151.613281 163.371094 151.730469 163.382812 C 151.742188 163.382812 151.753906 163.382812 151.773438 163.382812 C 151.871094 163.382812 151.96875 163.34375 152.042969 163.265625 L 155.457031 159.589844 C 155.59375 159.445312 155.585938 159.210938 155.4375 159.082031 C 155.292969 158.945312 155.058594 158.953125 154.925781 159.101562 L 151.851562 162.414062 L 149.601562 158.386719 C 149.496094 158.214844 149.273438 158.15625 149.097656 158.253906 Z M 176.269531 319.921875 L 167.910156 311.648438 C 167.910156 311.648438 158.765625 319.25 155.964844 321.269531 C 153.15625 323.285156 152.597656 324.742188 153.382812 325.753906 C 153.808594 326.300781 154.652344 327.152344 155.34375 327.816406 C 155.976562 328.425781 156.902344 328.628906 157.726562 328.324219 L 178.074219 320.925781 L 178.746094 322.269531 L 192.996094 316.777344 L 190.867188 313.753906 Z M 132.019531 166.742188 C 132.074219 166.765625 132.125 166.773438 132.171875 166.773438 C 132.308594 166.773438 132.4375 166.695312 132.496094 166.566406 L 133.210938 165.03125 C 133.296875 164.847656 133.21875 164.632812 133.035156 164.546875 C 132.855469 164.464844 132.640625 164.542969 132.554688 164.722656 L 131.839844 166.257812 C 131.761719 166.449219 131.839844 166.65625 132.019531 166.742188 Z M 132.019531 166.742188 "/>
</g>
</g>
</svg>
