<?xml version="1.0" encoding="UTF-8"?>
<svg xmlns="http://www.w3.org/2000/svg" xmlns:xlink="http://www.w3.org/1999/xlink" width="375pt" height="374.999991pt" viewBox="0 0 375 374.999991" version="1.2">
<defs>
<clipPath id="clip1">
  <path d="M 13 17 L 345 17 L 345 300 L 13 300 Z M 13 17 "/>
</clipPath>
<clipPath id="clip2">
  <path d="M 270.277344 -123.535156 L 459.609375 180.007812 L 117.886719 393.15625 L -71.449219 89.613281 Z M 270.277344 -123.535156 "/>
</clipPath>
<clipPath id="clip3">
  <path d="M 270.277344 -123.535156 L 459.609375 180.007812 L 117.886719 393.15625 L -71.449219 89.613281 Z M 270.277344 -123.535156 "/>
</clipPath>
<clipPath id="clip4">
  <path d="M 49.003906 261.695312 C 85.441406 306.871094 232.949219 306.699219 272.507812 286.179688 C 370.777344 235.242188 371.351562 38.605469 254.710938 18.878906 C 163.441406 3.488281 212.824219 105.800781 126.0625 81.863281 C -1.773438 46.625 -9.652344 189.011719 49.003906 261.695312 Z M 49.003906 261.695312 "/>
</clipPath>
<linearGradient id="linear0" gradientUnits="userSpaceOnUse" x1="-331.984251" y1="-429.88199" x2="-140.545691" y2="-429.88199" gradientTransform="matrix(2.108107,-1.314917,-1.313717,-2.106183,126.10756,-1049.511755)">
<stop offset="0" style="stop-color:rgb(100%,100%,77.999878%);stop-opacity:1;"/>
<stop offset="0.125" style="stop-color:rgb(100%,100%,77.999878%);stop-opacity:1;"/>
<stop offset="0.132812" style="stop-color:rgb(100%,100%,77.999878%);stop-opacity:1;"/>
<stop offset="0.136719" style="stop-color:rgb(99.67041%,99.845886%,78.070068%);stop-opacity:1;"/>
<stop offset="0.140625" style="stop-color:rgb(99.34082%,99.691772%,78.140259%);stop-opacity:1;"/>
<stop offset="0.144531" style="stop-color:rgb(98.841858%,99.456787%,78.245544%);stop-opacity:1;"/>
<stop offset="0.148438" style="stop-color:rgb(98.342896%,99.223328%,78.352356%);stop-opacity:1;"/>
<stop offset="0.152344" style="stop-color:rgb(97.842407%,98.989868%,78.457642%);stop-opacity:1;"/>
<stop offset="0.15625" style="stop-color:rgb(97.343445%,98.756409%,78.564453%);stop-opacity:1;"/>
<stop offset="0.160156" style="stop-color:rgb(96.844482%,98.522949%,78.671265%);stop-opacity:1;"/>
<stop offset="0.164062" style="stop-color:rgb(96.34552%,98.28949%,78.778076%);stop-opacity:1;"/>
<stop offset="0.167969" style="stop-color:rgb(95.846558%,98.05603%,78.883362%);stop-opacity:1;"/>
<stop offset="0.171875" style="stop-color:rgb(95.347595%,97.822571%,78.990173%);stop-opacity:1;"/>
<stop offset="0.175781" style="stop-color:rgb(94.848633%,97.589111%,79.095459%);stop-opacity:1;"/>
<stop offset="0.179688" style="stop-color:rgb(94.34967%,97.355652%,79.202271%);stop-opacity:1;"/>
<stop offset="0.183594" style="stop-color:rgb(93.850708%,97.122192%,79.309082%);stop-opacity:1;"/>
<stop offset="0.1875" style="stop-color:rgb(93.351746%,96.888733%,79.415894%);stop-opacity:1;"/>
<stop offset="0.191406" style="stop-color:rgb(92.852783%,96.653748%,79.521179%);stop-opacity:1;"/>
<stop offset="0.195312" style="stop-color:rgb(92.353821%,96.420288%,79.627991%);stop-opacity:1;"/>
<stop offset="0.199219" style="stop-color:rgb(91.853333%,96.186829%,79.733276%);stop-opacity:1;"/>
<stop offset="0.203125" style="stop-color:rgb(91.35437%,95.953369%,79.840088%);stop-opacity:1;"/>
<stop offset="0.207031" style="stop-color:rgb(90.855408%,95.71991%,79.946899%);stop-opacity:1;"/>
<stop offset="0.210938" style="stop-color:rgb(90.356445%,95.48645%,80.053711%);stop-opacity:1;"/>
<stop offset="0.214844" style="stop-color:rgb(89.857483%,95.252991%,80.158997%);stop-opacity:1;"/>
<stop offset="0.21875" style="stop-color:rgb(89.358521%,95.019531%,80.265808%);stop-opacity:1;"/>
<stop offset="0.222656" style="stop-color:rgb(88.859558%,94.786072%,80.371094%);stop-opacity:1;"/>
<stop offset="0.226562" style="stop-color:rgb(88.360596%,94.552612%,80.477905%);stop-opacity:1;"/>
<stop offset="0.230469" style="stop-color:rgb(87.861633%,94.319153%,80.584717%);stop-opacity:1;"/>
<stop offset="0.234375" style="stop-color:rgb(87.362671%,94.085693%,80.691528%);stop-opacity:1;"/>
<stop offset="0.238281" style="stop-color:rgb(86.862183%,93.850708%,80.796814%);stop-opacity:1;"/>
<stop offset="0.242187" style="stop-color:rgb(86.36322%,93.617249%,80.903625%);stop-opacity:1;"/>
<stop offset="0.246094" style="stop-color:rgb(85.864258%,93.383789%,81.010437%);stop-opacity:1;"/>
<stop offset="0.25" style="stop-color:rgb(85.365295%,93.15033%,81.117249%);stop-opacity:1;"/>
<stop offset="0.253906" style="stop-color:rgb(84.866333%,92.91687%,81.222534%);stop-opacity:1;"/>
<stop offset="0.257812" style="stop-color:rgb(84.367371%,92.683411%,81.329346%);stop-opacity:1;"/>
<stop offset="0.261719" style="stop-color:rgb(83.868408%,92.449951%,81.434631%);stop-opacity:1;"/>
<stop offset="0.265625" style="stop-color:rgb(83.369446%,92.216492%,81.541443%);stop-opacity:1;"/>
<stop offset="0.269531" style="stop-color:rgb(82.870483%,91.983032%,81.648254%);stop-opacity:1;"/>
<stop offset="0.273438" style="stop-color:rgb(82.371521%,91.749573%,81.755066%);stop-opacity:1;"/>
<stop offset="0.277344" style="stop-color:rgb(81.871033%,91.516113%,81.860352%);stop-opacity:1;"/>
<stop offset="0.28125" style="stop-color:rgb(81.37207%,91.282654%,81.967163%);stop-opacity:1;"/>
<stop offset="0.285156" style="stop-color:rgb(80.873108%,91.049194%,82.072449%);stop-opacity:1;"/>
<stop offset="0.289062" style="stop-color:rgb(80.374146%,90.815735%,82.17926%);stop-opacity:1;"/>
<stop offset="0.292969" style="stop-color:rgb(79.875183%,90.58075%,82.286072%);stop-opacity:1;"/>
<stop offset="0.296875" style="stop-color:rgb(79.376221%,90.34729%,82.392883%);stop-opacity:1;"/>
<stop offset="0.300781" style="stop-color:rgb(78.877258%,90.113831%,82.498169%);stop-opacity:1;"/>
<stop offset="0.304687" style="stop-color:rgb(78.378296%,89.880371%,82.60498%);stop-opacity:1;"/>
<stop offset="0.308594" style="stop-color:rgb(77.879333%,89.646912%,82.710266%);stop-opacity:1;"/>
<stop offset="0.3125" style="stop-color:rgb(77.380371%,89.413452%,82.817078%);stop-opacity:1;"/>
<stop offset="0.316406" style="stop-color:rgb(76.879883%,89.179993%,82.923889%);stop-opacity:1;"/>
<stop offset="0.320312" style="stop-color:rgb(76.38092%,88.946533%,83.030701%);stop-opacity:1;"/>
<stop offset="0.324219" style="stop-color:rgb(75.881958%,88.713074%,83.135986%);stop-opacity:1;"/>
<stop offset="0.328125" style="stop-color:rgb(75.382996%,88.479614%,83.242798%);stop-opacity:1;"/>
<stop offset="0.332031" style="stop-color:rgb(74.884033%,88.246155%,83.349609%);stop-opacity:1;"/>
<stop offset="0.335937" style="stop-color:rgb(74.385071%,88.012695%,83.456421%);stop-opacity:1;"/>
<stop offset="0.339844" style="stop-color:rgb(73.886108%,87.77771%,83.561707%);stop-opacity:1;"/>
<stop offset="0.34375" style="stop-color:rgb(73.387146%,87.54425%,83.668518%);stop-opacity:1;"/>
<stop offset="0.347656" style="stop-color:rgb(72.888184%,87.310791%,83.773804%);stop-opacity:1;"/>
<stop offset="0.351562" style="stop-color:rgb(72.389221%,87.077332%,83.880615%);stop-opacity:1;"/>
<stop offset="0.355469" style="stop-color:rgb(71.888733%,86.843872%,83.987427%);stop-opacity:1;"/>
<stop offset="0.359375" style="stop-color:rgb(71.389771%,86.610413%,84.094238%);stop-opacity:1;"/>
<stop offset="0.363281" style="stop-color:rgb(70.890808%,86.376953%,84.199524%);stop-opacity:1;"/>
<stop offset="0.367187" style="stop-color:rgb(70.391846%,86.143494%,84.306335%);stop-opacity:1;"/>
<stop offset="0.371094" style="stop-color:rgb(69.892883%,85.910034%,84.411621%);stop-opacity:1;"/>
<stop offset="0.375" style="stop-color:rgb(69.393921%,85.676575%,84.518433%);stop-opacity:1;"/>
<stop offset="0.378906" style="stop-color:rgb(68.894958%,85.443115%,84.625244%);stop-opacity:1;"/>
<stop offset="0.382812" style="stop-color:rgb(68.395996%,85.209656%,84.732056%);stop-opacity:1;"/>
<stop offset="0.386719" style="stop-color:rgb(67.897034%,84.97467%,84.837341%);stop-opacity:1;"/>
<stop offset="0.390625" style="stop-color:rgb(67.398071%,84.741211%,84.944153%);stop-opacity:1;"/>
<stop offset="0.394531" style="stop-color:rgb(66.897583%,84.507751%,85.049438%);stop-opacity:1;"/>
<stop offset="0.398437" style="stop-color:rgb(66.398621%,84.274292%,85.15625%);stop-opacity:1;"/>
<stop offset="0.402344" style="stop-color:rgb(65.899658%,84.040833%,85.263062%);stop-opacity:1;"/>
<stop offset="0.40625" style="stop-color:rgb(65.400696%,83.807373%,85.369873%);stop-opacity:1;"/>
<stop offset="0.410156" style="stop-color:rgb(64.901733%,83.573914%,85.475159%);stop-opacity:1;"/>
<stop offset="0.414062" style="stop-color:rgb(64.402771%,83.340454%,85.58197%);stop-opacity:1;"/>
<stop offset="0.417969" style="stop-color:rgb(63.903809%,83.106995%,85.687256%);stop-opacity:1;"/>
<stop offset="0.421875" style="stop-color:rgb(63.404846%,82.873535%,85.794067%);stop-opacity:1;"/>
<stop offset="0.425781" style="stop-color:rgb(62.905884%,82.640076%,85.900879%);stop-opacity:1;"/>
<stop offset="0.429687" style="stop-color:rgb(62.406921%,82.406616%,86.00769%);stop-opacity:1;"/>
<stop offset="0.433594" style="stop-color:rgb(61.906433%,82.173157%,86.112976%);stop-opacity:1;"/>
<stop offset="0.4375" style="stop-color:rgb(61.407471%,81.939697%,86.219788%);stop-opacity:1;"/>
<stop offset="0.441406" style="stop-color:rgb(60.908508%,81.704712%,86.326599%);stop-opacity:1;"/>
<stop offset="0.445312" style="stop-color:rgb(60.409546%,81.471252%,86.433411%);stop-opacity:1;"/>
<stop offset="0.449219" style="stop-color:rgb(59.910583%,81.237793%,86.538696%);stop-opacity:1;"/>
<stop offset="0.453125" style="stop-color:rgb(59.411621%,81.004333%,86.645508%);stop-opacity:1;"/>
<stop offset="0.457031" style="stop-color:rgb(58.912659%,80.770874%,86.750793%);stop-opacity:1;"/>
<stop offset="0.460937" style="stop-color:rgb(58.413696%,80.537415%,86.857605%);stop-opacity:1;"/>
<stop offset="0.464844" style="stop-color:rgb(57.914734%,80.303955%,86.964417%);stop-opacity:1;"/>
<stop offset="0.46875" style="stop-color:rgb(57.415771%,80.070496%,87.071228%);stop-opacity:1;"/>
<stop offset="0.472656" style="stop-color:rgb(56.916809%,79.837036%,87.176514%);stop-opacity:1;"/>
<stop offset="0.476562" style="stop-color:rgb(56.417847%,79.603577%,87.283325%);stop-opacity:1;"/>
<stop offset="0.480469" style="stop-color:rgb(55.917358%,79.370117%,87.388611%);stop-opacity:1;"/>
<stop offset="0.484375" style="stop-color:rgb(55.418396%,79.136658%,87.495422%);stop-opacity:1;"/>
<stop offset="0.488281" style="stop-color:rgb(54.919434%,78.901672%,87.602234%);stop-opacity:1;"/>
<stop offset="0.492187" style="stop-color:rgb(54.420471%,78.668213%,87.709045%);stop-opacity:1;"/>
<stop offset="0.496094" style="stop-color:rgb(53.921509%,78.434753%,87.814331%);stop-opacity:1;"/>
<stop offset="0.5" style="stop-color:rgb(53.422546%,78.201294%,87.921143%);stop-opacity:1;"/>
<stop offset="0.503906" style="stop-color:rgb(52.923584%,77.967834%,88.026428%);stop-opacity:1;"/>
<stop offset="0.507812" style="stop-color:rgb(52.424622%,77.734375%,88.13324%);stop-opacity:1;"/>
<stop offset="0.511719" style="stop-color:rgb(51.925659%,77.500916%,88.240051%);stop-opacity:1;"/>
<stop offset="0.515625" style="stop-color:rgb(51.426697%,77.267456%,88.346863%);stop-opacity:1;"/>
<stop offset="0.519531" style="stop-color:rgb(50.926208%,77.033997%,88.452148%);stop-opacity:1;"/>
<stop offset="0.523438" style="stop-color:rgb(50.427246%,76.800537%,88.55896%);stop-opacity:1;"/>
<stop offset="0.527344" style="stop-color:rgb(49.928284%,76.567078%,88.664246%);stop-opacity:1;"/>
<stop offset="0.53125" style="stop-color:rgb(49.429321%,76.333618%,88.771057%);stop-opacity:1;"/>
<stop offset="0.535156" style="stop-color:rgb(48.930359%,76.098633%,88.877869%);stop-opacity:1;"/>
<stop offset="0.539062" style="stop-color:rgb(48.431396%,75.865173%,88.98468%);stop-opacity:1;"/>
<stop offset="0.542969" style="stop-color:rgb(47.932434%,75.631714%,89.089966%);stop-opacity:1;"/>
<stop offset="0.546875" style="stop-color:rgb(47.433472%,75.398254%,89.196777%);stop-opacity:1;"/>
<stop offset="0.550781" style="stop-color:rgb(46.934509%,75.164795%,89.303589%);stop-opacity:1;"/>
<stop offset="0.554687" style="stop-color:rgb(46.435547%,74.931335%,89.4104%);stop-opacity:1;"/>
<stop offset="0.558594" style="stop-color:rgb(45.935059%,74.697876%,89.515686%);stop-opacity:1;"/>
<stop offset="0.5625" style="stop-color:rgb(45.436096%,74.464417%,89.622498%);stop-opacity:1;"/>
<stop offset="0.566406" style="stop-color:rgb(44.937134%,74.230957%,89.727783%);stop-opacity:1;"/>
<stop offset="0.570312" style="stop-color:rgb(44.438171%,73.997498%,89.834595%);stop-opacity:1;"/>
<stop offset="0.574219" style="stop-color:rgb(43.939209%,73.764038%,89.941406%);stop-opacity:1;"/>
<stop offset="0.578125" style="stop-color:rgb(43.440247%,73.530579%,90.048218%);stop-opacity:1;"/>
<stop offset="0.582031" style="stop-color:rgb(42.941284%,73.297119%,90.153503%);stop-opacity:1;"/>
<stop offset="0.585937" style="stop-color:rgb(42.442322%,73.06366%,90.260315%);stop-opacity:1;"/>
<stop offset="0.589844" style="stop-color:rgb(41.943359%,72.828674%,90.365601%);stop-opacity:1;"/>
<stop offset="0.59375" style="stop-color:rgb(41.444397%,72.595215%,90.472412%);stop-opacity:1;"/>
<stop offset="0.597656" style="stop-color:rgb(40.943909%,72.361755%,90.579224%);stop-opacity:1;"/>
<stop offset="0.601562" style="stop-color:rgb(40.444946%,72.128296%,90.686035%);stop-opacity:1;"/>
<stop offset="0.605469" style="stop-color:rgb(39.945984%,71.894836%,90.791321%);stop-opacity:1;"/>
<stop offset="0.609375" style="stop-color:rgb(39.447021%,71.661377%,90.898132%);stop-opacity:1;"/>
<stop offset="0.613281" style="stop-color:rgb(38.948059%,71.427917%,91.003418%);stop-opacity:1;"/>
<stop offset="0.617188" style="stop-color:rgb(38.449097%,71.194458%,91.110229%);stop-opacity:1;"/>
<stop offset="0.621094" style="stop-color:rgb(37.950134%,70.960999%,91.217041%);stop-opacity:1;"/>
<stop offset="0.625" style="stop-color:rgb(37.451172%,70.727539%,91.323853%);stop-opacity:1;"/>
<stop offset="0.628906" style="stop-color:rgb(36.952209%,70.49408%,91.429138%);stop-opacity:1;"/>
<stop offset="0.632812" style="stop-color:rgb(36.453247%,70.26062%,91.53595%);stop-opacity:1;"/>
<stop offset="0.636719" style="stop-color:rgb(35.952759%,70.025635%,91.642761%);stop-opacity:1;"/>
<stop offset="0.640625" style="stop-color:rgb(35.453796%,69.792175%,91.749573%);stop-opacity:1;"/>
<stop offset="0.644531" style="stop-color:rgb(34.954834%,69.558716%,91.854858%);stop-opacity:1;"/>
<stop offset="0.648438" style="stop-color:rgb(34.455872%,69.325256%,91.96167%);stop-opacity:1;"/>
<stop offset="0.652344" style="stop-color:rgb(33.956909%,69.091797%,92.066956%);stop-opacity:1;"/>
<stop offset="0.65625" style="stop-color:rgb(33.457947%,68.858337%,92.173767%);stop-opacity:1;"/>
<stop offset="0.660156" style="stop-color:rgb(32.958984%,68.624878%,92.280579%);stop-opacity:1;"/>
<stop offset="0.664062" style="stop-color:rgb(32.460022%,68.391418%,92.38739%);stop-opacity:1;"/>
<stop offset="0.667969" style="stop-color:rgb(31.96106%,68.157959%,92.492676%);stop-opacity:1;"/>
<stop offset="0.671875" style="stop-color:rgb(31.462097%,67.9245%,92.599487%);stop-opacity:1;"/>
<stop offset="0.675781" style="stop-color:rgb(30.961609%,67.69104%,92.704773%);stop-opacity:1;"/>
<stop offset="0.679687" style="stop-color:rgb(30.462646%,67.457581%,92.811584%);stop-opacity:1;"/>
<stop offset="0.683594" style="stop-color:rgb(29.963684%,67.222595%,92.918396%);stop-opacity:1;"/>
<stop offset="0.6875" style="stop-color:rgb(29.464722%,66.989136%,93.025208%);stop-opacity:1;"/>
<stop offset="0.691406" style="stop-color:rgb(28.965759%,66.755676%,93.130493%);stop-opacity:1;"/>
<stop offset="0.695312" style="stop-color:rgb(28.466797%,66.522217%,93.237305%);stop-opacity:1;"/>
<stop offset="0.699219" style="stop-color:rgb(27.967834%,66.288757%,93.34259%);stop-opacity:1;"/>
<stop offset="0.703125" style="stop-color:rgb(27.468872%,66.055298%,93.449402%);stop-opacity:1;"/>
<stop offset="0.707031" style="stop-color:rgb(26.96991%,65.821838%,93.556213%);stop-opacity:1;"/>
<stop offset="0.710938" style="stop-color:rgb(26.470947%,65.588379%,93.663025%);stop-opacity:1;"/>
<stop offset="0.714844" style="stop-color:rgb(25.970459%,65.354919%,93.768311%);stop-opacity:1;"/>
<stop offset="0.71875" style="stop-color:rgb(25.471497%,65.12146%,93.875122%);stop-opacity:1;"/>
<stop offset="0.722656" style="stop-color:rgb(24.972534%,64.888%,93.980408%);stop-opacity:1;"/>
<stop offset="0.726562" style="stop-color:rgb(24.473572%,64.654541%,94.087219%);stop-opacity:1;"/>
<stop offset="0.730469" style="stop-color:rgb(23.974609%,64.421082%,94.194031%);stop-opacity:1;"/>
<stop offset="0.734375" style="stop-color:rgb(23.475647%,64.187622%,94.300842%);stop-opacity:1;"/>
<stop offset="0.738281" style="stop-color:rgb(22.976685%,63.952637%,94.406128%);stop-opacity:1;"/>
<stop offset="0.742188" style="stop-color:rgb(22.477722%,63.719177%,94.512939%);stop-opacity:1;"/>
<stop offset="0.746094" style="stop-color:rgb(21.97876%,63.485718%,94.619751%);stop-opacity:1;"/>
<stop offset="0.75" style="stop-color:rgb(21.479797%,63.252258%,94.726562%);stop-opacity:1;"/>
<stop offset="0.753906" style="stop-color:rgb(20.979309%,63.018799%,94.831848%);stop-opacity:1;"/>
<stop offset="0.757812" style="stop-color:rgb(20.480347%,62.785339%,94.93866%);stop-opacity:1;"/>
<stop offset="0.761719" style="stop-color:rgb(19.981384%,62.55188%,95.043945%);stop-opacity:1;"/>
<stop offset="0.765625" style="stop-color:rgb(19.482422%,62.31842%,95.150757%);stop-opacity:1;"/>
<stop offset="0.769531" style="stop-color:rgb(18.983459%,62.084961%,95.257568%);stop-opacity:1;"/>
<stop offset="0.773438" style="stop-color:rgb(18.484497%,61.851501%,95.36438%);stop-opacity:1;"/>
<stop offset="0.777344" style="stop-color:rgb(17.985535%,61.618042%,95.469666%);stop-opacity:1;"/>
<stop offset="0.78125" style="stop-color:rgb(17.486572%,61.384583%,95.576477%);stop-opacity:1;"/>
<stop offset="0.785156" style="stop-color:rgb(16.98761%,61.149597%,95.681763%);stop-opacity:1;"/>
<stop offset="0.789062" style="stop-color:rgb(16.488647%,60.916138%,95.788574%);stop-opacity:1;"/>
<stop offset="0.792969" style="stop-color:rgb(15.989685%,60.682678%,95.895386%);stop-opacity:1;"/>
<stop offset="0.796875" style="stop-color:rgb(15.490723%,60.449219%,96.002197%);stop-opacity:1;"/>
<stop offset="0.800781" style="stop-color:rgb(14.990234%,60.215759%,96.107483%);stop-opacity:1;"/>
<stop offset="0.804688" style="stop-color:rgb(14.491272%,59.9823%,96.214294%);stop-opacity:1;"/>
<stop offset="0.808594" style="stop-color:rgb(13.99231%,59.74884%,96.31958%);stop-opacity:1;"/>
<stop offset="0.8125" style="stop-color:rgb(13.493347%,59.515381%,96.426392%);stop-opacity:1;"/>
<stop offset="0.816406" style="stop-color:rgb(12.994385%,59.281921%,96.533203%);stop-opacity:1;"/>
<stop offset="0.820312" style="stop-color:rgb(12.495422%,59.048462%,96.640015%);stop-opacity:1;"/>
<stop offset="0.824219" style="stop-color:rgb(11.99646%,58.815002%,96.7453%);stop-opacity:1;"/>
<stop offset="0.828125" style="stop-color:rgb(11.497498%,58.581543%,96.852112%);stop-opacity:1;"/>
<stop offset="0.832031" style="stop-color:rgb(10.998535%,58.348083%,96.958923%);stop-opacity:1;"/>
<stop offset="0.835938" style="stop-color:rgb(10.499573%,58.114624%,97.065735%);stop-opacity:1;"/>
<stop offset="0.839844" style="stop-color:rgb(9.999084%,57.879639%,97.171021%);stop-opacity:1;"/>
<stop offset="0.84375" style="stop-color:rgb(9.500122%,57.646179%,97.277832%);stop-opacity:1;"/>
<stop offset="0.875" style="stop-color:rgb(9.449768%,57.621765%,97.288513%);stop-opacity:1;"/>
<stop offset="1" style="stop-color:rgb(9.399414%,57.598877%,97.299194%);stop-opacity:1;"/>
</linearGradient>
<clipPath id="clip5">
  <path d="M 25 112.191406 L 349 112.191406 L 349 335 L 25 335 Z M 25 112.191406 "/>
</clipPath>
</defs>
<g id="surface1">
<g clip-path="url(#clip1)" clip-rule="nonzero">
<g clip-path="url(#clip2)" clip-rule="nonzero">
<g clip-path="url(#clip3)" clip-rule="nonzero">
<g clip-path="url(#clip4)" clip-rule="nonzero">
<path style=" stroke:none;fill-rule:nonzero;fill:url(#linear0);" d="M 104.011719 473.625 L -136.230469 88.460938 L 267.339844 -163.265625 L 507.582031 221.898438 Z M 104.011719 473.625 "/>
</g>
</g>
</g>
</g>
<path style=" stroke:none;fill-rule:nonzero;fill:rgb(69.018555%,90.589905%,88.238525%);fill-opacity:1;" d="M 307.382812 233.527344 C 307.382812 233.527344 282.8125 234.230469 274.21875 234.28125 L 274.21875 331.609375 L 71.546875 331.609375 L 71.546875 233.394531 L 269.160156 233.394531 C 263.921875 231.078125 260.46875 225.046875 260.46875 225.046875 C 260.46875 225.046875 257.339844 213.925781 251.917969 210.007812 C 250.304688 208.804688 254.347656 202.667969 256.390625 197.785156 C 258.433594 192.902344 261.515625 187.277344 261.515625 187.277344 L 265.648438 183.546875 L 275.3125 181.511719 C 275.3125 181.511719 282.664062 183.953125 287.699219 189.246094 C 292.734375 194.535156 303.898438 214.0625 307.707031 220.84375 C 311.515625 227.621094 307.382812 233.527344 307.382812 233.527344 Z M 182.308594 172.859375 C 182.308594 172.859375 180.871094 171.644531 179.203125 169.992188 C 177.542969 168.335938 174.992188 168.5625 174.992188 168.5625 C 174.992188 168.5625 163.148438 166.90625 160.757812 166.816406 C 158.367188 166.722656 157.832031 171.980469 157.832031 171.980469 L 150.96875 180.914062 L 182.300781 182.128906 L 182.300781 172.859375 Z M 182.308594 172.859375 "/>
<path style=" stroke:none;fill-rule:nonzero;fill:rgb(0%,74.899292%,65.879822%);fill-opacity:1;" d="M 133.027344 333.285156 L 103.492188 332.910156 C 103.492188 332.910156 99.046875 333.390625 99.046875 326.601562 C 99.046875 319.808594 100.429688 312.910156 100.429688 312.910156 L 105.539062 314.503906 L 115.449219 320.765625 L 127.191406 323.207031 L 131.425781 325.433594 C 134.0625 326.785156 135.898438 332.328125 133.027344 333.285156 Z M 71.546875 229.550781 L 71.546875 233.410156 L 274.226562 233.410156 L 274.226562 229.550781 Z M 71.546875 229.550781 "/>
<path style=" stroke:none;fill-rule:nonzero;fill:rgb(100%,100%,100%);fill-opacity:1;" d="M 314.480469 249.300781 C 314.480469 249.300781 310.75 251.65625 307.292969 253.832031 C 303.832031 256.003906 280.050781 274.71875 280.050781 274.71875 L 244.320312 274.71875 L 260.992188 296.15625 L 236.753906 306.902344 L 230.761719 293.132812 L 221.578125 315.535156 L 221.066406 316.09375 L 203.507812 309.382812 L 217.9375 270.175781 C 213.265625 262.769531 212.203125 251.132812 215.175781 246.6875 C 218.148438 242.246094 221.96875 237.800781 233.015625 237.800781 C 244.058594 237.800781 273.363281 237.800781 273.363281 237.800781 L 273.179688 234.289062 L 307.378906 233.527344 C 313.570312 238.601562 314.480469 249.300781 314.480469 249.300781 Z M 98.769531 229.496094 L 115.441406 229.496094 C 115.441406 229.496094 118.921875 218.574219 117.847656 210.757812 C 116.78125 202.9375 113.480469 187.375 113.480469 187.375 L 111.101562 187.375 L 106.074219 187.214844 C 106.074219 187.214844 102.242188 185.175781 99.117188 180.644531 C 95.996094 176.117188 89.578125 176.738281 89.578125 176.738281 L 90.644531 173.71875 L 81.28125 171.324219 C 81.28125 171.324219 70.5 173.1875 59.976562 175.769531 C 49.457031 178.347656 47.855469 191.050781 49.8125 196.734375 C 51.773438 202.417969 55.695312 214.859375 55.695312 214.859375 C 55.695312 214.859375 45.976562 227.296875 44.105469 240.976562 C 42.234375 254.65625 49.363281 269.652344 59.113281 269.652344 C 68.859375 269.652344 104.941406 269.652344 104.941406 269.652344 L 113.589844 245.644531 C 113.589844 245.644531 116.945312 246.492188 121.78125 247.960938 C 126.617188 246.683594 134.863281 248.535156 134.863281 248.535156 C 126.761719 237.847656 98.769531 229.496094 98.769531 229.496094 Z M 200.820312 321.542969 C 200.820312 321.542969 191.664062 327.273438 188.84375 329.03125 C 186.023438 330.785156 184.265625 333.476562 188.136719 333.476562 C 192.011719 333.476562 210.453125 333.476562 210.453125 333.476562 C 210.453125 333.476562 212.796875 331.441406 212.683594 327.660156 C 209.867188 327.042969 200.648438 326.183594 200.648438 326.183594 Z M 243.886719 314.648438 C 243.269531 312.089844 239.539062 311.734375 239.539062 311.734375 L 239.339844 314.519531 L 237.929688 320.839844 C 237.929688 320.839844 233.703125 330.316406 234.875 333.601562 C 236.046875 336.882812 238.042969 335.347656 240.039062 333.59375 C 242.035156 331.839844 252.839844 323.414062 256.972656 318.503906 C 261.101562 313.59375 257.398438 309.667969 257.398438 309.667969 C 257.398438 309.667969 246.390625 311.707031 243.886719 314.648438 Z M 243.886719 314.648438 "/>
<path style=" stroke:none;fill-rule:nonzero;fill:rgb(96.859741%,60.389709%,56.858826%);fill-opacity:1;" d="M 251.917969 210.007812 L 268.394531 216.859375 C 263.777344 224.796875 257.4375 234.722656 251.742188 235.984375 C 246.035156 237.242188 240.066406 234.269531 234.359375 228.769531 C 228.65625 223.265625 216.703125 205.40625 216.703125 205.40625 C 216.703125 205.40625 204.574219 206.304688 203.21875 206.582031 C 201.859375 206.851562 201.40625 205.230469 202.585938 204.777344 C 203.765625 204.324219 207.835938 202.523438 207.835938 202.523438 C 207.835938 202.523438 202.855469 203.339844 201.320312 203.421875 C 199.777344 203.515625 199.507812 201.886719 200.78125 201.527344 C 202.046875 201.164062 206.847656 199.90625 206.847656 199.90625 C 206.847656 199.90625 201.867188 199.90625 199.609375 200.082031 C 197.347656 200.257812 197.433594 198.367188 198.789062 198.101562 C 200.148438 197.832031 206.300781 196.480469 206.300781 196.480469 C 206.300781 196.480469 200.234375 196.300781 198.152344 195.578125 C 196.070312 194.855469 197.519531 193.234375 198.785156 193.234375 C 200.050781 193.234375 210.914062 193.414062 210.914062 193.414062 C 210.914062 193.414062 207.472656 189.800781 206.386719 188.632812 C 205.300781 187.460938 205.753906 185.746094 208.46875 187.375 C 211.183594 188.996094 219.371094 191.921875 222.804688 195.34375 C 226.238281 198.761719 247.246094 217.78125 247.246094 217.78125 Z M 182.636719 162.480469 C 184.894531 159.664062 185.121094 154.605469 185.121094 154.605469 C 185.121094 154.605469 187.378906 152.917969 187.269531 150.777344 C 187.15625 148.636719 185.574219 147.960938 185.574219 147.960938 L 185.378906 145.945312 C 185.378906 145.945312 186.808594 141.949219 184.699219 138.359375 C 182.589844 134.769531 179.933594 135.242188 179.933594 135.242188 L 179.324219 136.054688 L 172.386719 134.769531 L 161.796875 143.890625 C 161.796875 143.890625 153.207031 145.945312 152.796875 149.675781 C 152.390625 153.402344 155.691406 157.132812 155.691406 157.132812 L 159.847656 162.417969 L 160.757812 166.820312 L 169.328125 169.394531 L 173.339844 175.152344 L 175.855469 169.792969 L 175.632812 165.179688 C 175.632812 165.179688 180.375 165.292969 182.636719 162.480469 Z M 194.765625 219.464844 C 194.765625 219.464844 193.71875 217.164062 187.820312 217.164062 C 181.925781 217.164062 179.386719 219.488281 179.386719 219.488281 L 179.386719 229.429688 L 197.972656 229.429688 C 197.972656 229.429688 199.285156 224.847656 197.511719 222.5 C 195.734375 220.144531 194.765625 219.464844 194.765625 219.464844 Z M 134.257812 248.121094 C 134.257812 248.121094 127.191406 246.910156 121.792969 247.9375 C 121.792969 247.9375 117.796875 246.453125 113.605469 245.617188 L 109.136719 258.128906 L 104.953125 269.625 L 106.859375 269.402344 L 101.699219 316.34375 C 101.699219 316.34375 106.628906 323.945312 113.980469 326.261719 C 121.332031 328.578125 129.609375 327.746094 127.191406 323.203125 C 124.773438 318.660156 126.351562 313.007812 126.351562 313.007812 L 131.992188 281.152344 C 131.992188 281.152344 134.632812 275.652344 137.519531 270 C 140.398438 264.339844 140.960938 254.238281 134.257812 248.121094 Z M 203.605469 317.695312 C 202.769531 320.371094 199.996094 321.941406 199.996094 321.941406 L 200.640625 326.1875 L 212.679688 327.664062 L 217.496094 314.746094 L 206.195312 310.316406 C 206.203125 310.316406 204.445312 315.015625 203.605469 317.695312 Z M 236.757812 306.902344 L 235.460938 310.132812 C 235.460938 310.132812 239.441406 312.160156 241.042969 312.160156 C 242.640625 312.160156 243.886719 314.648438 243.886719 314.648438 L 257.40625 309.667969 L 249.789062 299.648438 Z M 273.246094 155.058594 L 261.703125 151.539062 L 243.960938 148.972656 C 243.960938 148.972656 242.242188 153.726562 242.050781 157.054688 C 241.859375 160.382812 241.667969 164.082031 241.382812 164.84375 C 241.101562 165.605469 239.097656 168.457031 239.570312 168.933594 C 240.046875 169.40625 241.765625 169.125 241.765625 169.125 C 241.765625 169.125 242.429688 175.113281 245.296875 177.207031 C 248.15625 179.300781 256.167969 178.730469 256.167969 178.730469 L 261.511719 187.28125 C 261.511719 187.28125 268.757812 180.632812 271.242188 180.632812 C 273.726562 180.632812 273.246094 155.058594 273.246094 155.058594 Z M 108.628906 178.117188 C 108.628906 178.117188 112.425781 176.496094 114.433594 175.878906 C 116.445312 175.261719 117.0625 173.800781 116.753906 172.644531 C 116.445312 171.488281 115.285156 167.945312 114.976562 166.472656 C 114.664062 165.007812 112.730469 165.546875 112.964844 166.859375 C 113.195312 168.171875 113.355469 169.945312 113.355469 169.945312 C 113.355469 169.945312 112.117188 169.945312 106.160156 169.867188 C 103.945312 169.839844 102.449219 170.164062 101.429688 170.773438 C 103.730469 167.496094 103.226562 162.664062 103.226562 162.664062 C 103.226562 162.664062 105.566406 162.421875 105.644531 161.542969 C 105.726562 160.65625 103.796875 159.296875 103.550781 157.613281 C 103.308594 155.925781 101.054688 147.652344 101.054688 147.652344 C 101.054688 147.652344 88.082031 146.53125 87.515625 146.765625 C 86.949219 147.011719 72.769531 159.132812 72.769531 159.613281 C 72.769531 160.09375 77.121094 171.335938 77.121094 171.335938 L 83.160156 176.476562 L 86.949219 185.070312 L 90.574219 175.195312 C 90.574219 175.195312 92.1875 175.355469 98.148438 173.265625 C 98.855469 173.019531 99.464844 172.675781 99.992188 172.277344 C 99.441406 173.292969 99.234375 174.59375 99.117188 176.109375 C 98.808594 179.960938 98.886719 187.367188 98.886719 187.367188 L 111.113281 187.367188 Z M 108.628906 178.117188 "/>
<g clip-path="url(#clip5)" clip-rule="nonzero">
<path style=" stroke:none;fill-rule:nonzero;fill:rgb(15.689087%,25.099182%,49.409485%);fill-opacity:1;" d="M 337.453125 334.21875 C 328.75 334.21875 238.6875 334.21875 238.6875 334.21875 C 238.6875 334.21875 255.335938 320.515625 256.976562 318.507812 C 258.617188 316.5 259.375 313.859375 257.859375 311.472656 C 256.34375 309.082031 249.789062 299.65625 249.789062 299.65625 L 253.65625 296.480469 L 244.328125 274.710938 L 244.402344 274.710938 C 241.421875 268.441406 235.777344 255.859375 235.71875 255.714844 C 235.679688 255.621094 235.679688 255.519531 235.71875 255.425781 C 235.757812 255.335938 235.835938 255.261719 235.933594 255.234375 L 275.328125 242.769531 L 273.710938 239.558594 C 273.625 239.382812 273.691406 239.171875 273.871094 239.085938 C 274.046875 239.003906 274.257812 239.066406 274.34375 239.246094 L 276.003906 242.554688 L 278.507812 241.757812 C 278.699219 241.699219 278.890625 241.804688 278.949219 241.988281 C 279.007812 242.171875 278.902344 242.371094 278.71875 242.429688 L 276.25 243.210938 C 276.230469 243.316406 276.167969 243.414062 276.0625 243.460938 C 276.011719 243.484375 275.957031 243.5 275.90625 243.5 C 275.8125 243.5 275.734375 243.453125 275.667969 243.394531 L 236.515625 255.785156 C 237.484375 257.933594 242.523438 269.140625 245.179688 274.710938 L 280.042969 274.710938 C 280.042969 274.710938 292.640625 263.914062 298.300781 258.976562 C 303.957031 254.039062 308.265625 248.964844 319.511719 247.707031 C 327.695312 246.789062 334.164062 251.015625 335.550781 256.292969 C 336.941406 261.570312 346.523438 306.054688 348.417969 316.992188 C 350.3125 327.929688 346.15625 334.21875 337.453125 334.21875 Z M 241.042969 312.160156 L 230.933594 293.441406 C 230.933594 293.441406 230.941406 293.441406 230.941406 293.441406 C 231.113281 293.347656 231.171875 293.132812 231.074219 292.960938 L 218.457031 270.609375 C 218.363281 270.4375 218.148438 270.378906 217.976562 270.476562 C 217.804688 270.570312 217.746094 270.785156 217.84375 270.957031 L 230.460938 293.308594 C 230.5 293.378906 230.566406 293.425781 230.636719 293.453125 L 221.578125 315.535156 C 221.578125 315.535156 221.578125 318.421875 221.578125 322.761719 C 221.578125 327.101562 223.027344 333.601562 234.875 333.601562 C 234.875 333.601562 239.230469 326.011719 240.433594 323.484375 C 241.648438 320.949219 241.042969 312.160156 241.042969 312.160156 Z M 122.585938 321.4375 C 127.921875 324.234375 131.992188 325.777344 131.992188 325.777344 L 131.992188 281.152344 C 131.992188 281.152344 120.0625 302.832031 117.53125 307.59375 C 115 312.34375 117.25 318.640625 122.585938 321.4375 Z M 59.125 269.402344 C 51.121094 269.402344 44.105469 274.855469 39.890625 284.511719 C 36.878906 291.417969 29.914062 312.988281 26.191406 324.710938 C 24.96875 328.570312 27.847656 332.511719 31.910156 332.53125 L 103.484375 332.902344 C 103.484375 332.902344 100.957031 329.6875 101.101562 323.8125 C 101.238281 317.9375 106.859375 269.394531 106.859375 269.394531 C 106.859375 269.394531 67.125 269.402344 59.125 269.402344 Z M 212.09375 205.765625 C 208.507812 206.050781 204.015625 206.421875 203.21875 206.585938 C 201.859375 206.855469 201.40625 205.234375 202.585938 204.78125 C 203.765625 204.328125 207.835938 202.53125 207.835938 202.53125 C 207.835938 202.53125 202.855469 203.34375 201.320312 203.429688 C 199.777344 203.523438 199.507812 201.894531 200.78125 201.53125 C 202.046875 201.171875 206.847656 199.910156 206.847656 199.910156 C 206.847656 199.910156 201.867188 199.910156 199.609375 200.089844 C 197.347656 200.265625 197.433594 198.375 198.789062 198.105469 C 200.148438 197.835938 206.300781 196.484375 206.300781 196.484375 C 206.300781 196.484375 200.234375 196.308594 198.152344 195.585938 C 196.070312 194.863281 197.519531 193.242188 198.785156 193.242188 C 199.863281 193.242188 207.921875 193.375 210.265625 193.414062 C 210.1875 193.105469 210.097656 192.789062 210.003906 192.46875 C 208.902344 191.3125 207.117188 189.429688 206.386719 188.640625 C 205.398438 187.570312 205.695312 186.0625 207.808594 187.03125 C 205.589844 182.695312 202.28125 178.667969 198.085938 177.179688 C 190.488281 174.476562 181.800781 172.132812 181.800781 172.132812 C 181.800781 172.132812 181.976562 176.996094 173.480469 177.71875 C 164.972656 178.441406 157.917969 171.585938 157.917969 171.585938 C 157.917969 171.585938 154.300781 172.484375 149.410156 173.753906 C 144.53125 175.011719 137.113281 178.078125 134.761719 185.109375 C 132.40625 192.140625 127.339844 214.3125 128.066406 221.167969 C 128.789062 228.019531 133.855469 229.457031 133.855469 229.457031 L 171.3125 229.457031 L 171.859375 217.078125 C 171.859375 217.078125 173.3125 217.28125 176.253906 217.390625 C 179.078125 217.496094 179.386719 219.683594 179.386719 219.683594 C 179.386719 219.683594 183.992188 217.496094 188.488281 217.496094 C 192.988281 217.496094 194.765625 219.480469 194.765625 219.480469 L 198.007812 218.855469 C 199.996094 222.710938 200.726562 229.464844 200.726562 229.464844 C 200.726562 229.464844 202.15625 229.464844 206.570312 229.464844 C 210.980469 229.464844 213.648438 222.25 213.46875 217.023438 C 213.355469 214.019531 212.71875 209.890625 212.09375 205.765625 Z M 258.019531 162.429688 L 258.019531 157.941406 C 258.019531 157.941406 264.179688 156.566406 264.640625 161.148438 C 265.101562 165.730469 260.78125 168.480469 260.78125 168.480469 L 261.242188 169.761719 C 261.242188 169.761719 256.640625 178.375 262.710938 184.058594 C 268.777344 189.738281 282.203125 187.085938 283.21875 178.378906 C 284.234375 169.675781 278.066406 164.820312 278.066406 164.820312 C 278.066406 164.820312 282.574219 156.113281 276.78125 147.320312 C 270.992188 138.523438 259.125 138.523438 252.414062 140.171875 C 245.699219 141.816406 243.953125 148.875 243.953125 148.875 C 243.953125 148.875 248.085938 161.328125 258.019531 162.429688 Z M 64.324219 166.328125 C 64.324219 166.328125 63.066406 170.574219 66.070312 173.089844 C 69.074219 175.597656 73.4375 174.152344 73.4375 174.152344 C 73.4375 174.152344 76.539062 178.113281 81.09375 177.335938 C 85.644531 176.5625 85.84375 173.765625 85.84375 173.765625 C 85.84375 173.765625 89.136719 171.933594 88.945312 168.457031 C 88.753906 164.976562 86.8125 163.046875 86.8125 163.046875 C 86.8125 163.046875 81.902344 163.695312 81.289062 159.765625 C 80.320312 153.585938 86.71875 153.585938 86.71875 153.585938 L 88.074219 161.3125 C 88.074219 161.3125 91.855469 161.3125 93.40625 157.644531 C 94.953125 153.976562 94.472656 153.109375 94.472656 153.109375 C 94.472656 153.109375 99.023438 150.402344 101.546875 149.148438 C 104.066406 147.894531 105.519531 142.875 101.648438 139.207031 C 97.773438 135.535156 91.476562 138.429688 91.476562 138.429688 C 91.476562 138.429688 87.601562 133.121094 82.074219 133.699219 C 76.550781 134.273438 74.707031 140.457031 74.707031 140.457031 C 74.707031 140.457031 69.570312 139.59375 66.761719 142.675781 C 63.949219 145.769531 66.761719 151.171875 66.761719 151.171875 C 66.761719 151.171875 61.722656 154.164062 61.042969 158.988281 C 60.351562 163.820312 64.324219 166.328125 64.324219 166.328125 Z M 149.582031 148.527344 C 149.292969 143.503906 148.804688 140.316406 152.496094 134.90625 C 156.183594 129.496094 162.382812 126.496094 172.378906 127.46875 C 182.371094 128.441406 182.265625 135.390625 182.265625 135.390625 C 182.265625 135.390625 186.4375 136.644531 186.4375 140.320312 C 186.4375 143.992188 185.371094 145.925781 185.371094 145.925781 C 185.660156 138.101562 179.941406 136.265625 179.941406 136.265625 C 173.636719 140.519531 161.804688 143.898438 161.804688 143.898438 L 161.621094 147.429688 L 165.15625 147.429688 C 165.421875 146.773438 166.355469 145.402344 169.636719 145.402344 C 172.410156 145.402344 173.734375 146.214844 174.316406 146.765625 C 175.164062 146.558594 175.792969 146.765625 176.160156 146.96875 C 176.582031 146.339844 177.753906 145.179688 180.660156 145.179688 C 184.519531 145.179688 185.527344 146.867188 185.566406 146.9375 C 185.582031 146.964844 185.59375 146.996094 185.601562 147.023438 C 185.628906 147.128906 186.246094 149.65625 184.921875 151.347656 C 184.171875 152.308594 182.964844 152.800781 181.332031 152.800781 C 179.765625 152.800781 178.5 152.375 177.578125 151.546875 C 177.753906 152.117188 177.917969 152.679688 177.992188 153.042969 C 178.0625 153.390625 177.957031 153.738281 177.703125 154.058594 C 177.136719 154.75 175.957031 155.128906 175.355469 155.128906 C 175.160156 155.128906 175 154.972656 175 154.777344 C 175 154.578125 175.160156 154.421875 175.355469 154.421875 C 175.804688 154.421875 176.753906 154.097656 177.15625 153.605469 C 177.339844 153.382812 177.304688 153.226562 177.300781 153.175781 C 177.117188 152.253906 176.273438 149.820312 176.265625 149.792969 C 176.234375 149.707031 176.246094 149.621094 176.277344 149.542969 C 175.988281 148.722656 175.9375 147.980469 175.9375 147.652344 C 175.757812 147.535156 175.355469 147.332031 174.761719 147.402344 C 174.863281 147.851562 175.285156 150.09375 174.070312 151.652344 C 173.320312 152.609375 172.113281 153.101562 170.480469 153.101562 C 168.769531 153.101562 167.425781 152.601562 166.480469 151.617188 C 165.328125 150.417969 165.117188 148.839844 165.078125 148.140625 L 161.59375 148.140625 L 161.332031 153.273438 L 157.738281 148.925781 C 151.632812 151.054688 155.703125 157.140625 155.703125 157.140625 C 155.703125 157.140625 149.875 153.554688 149.582031 148.527344 Z M 176.628906 147.546875 C 176.628906 147.882812 176.679688 149.617188 177.847656 150.824219 C 178.652344 151.65625 179.824219 152.085938 181.332031 152.085938 C 182.734375 152.085938 183.757812 151.691406 184.363281 150.910156 C 185.378906 149.609375 185 147.605469 184.921875 147.246094 C 184.757812 147.03125 183.742188 145.875 180.652344 145.875 C 177.558594 145.875 176.761719 147.273438 176.628906 147.546875 Z M 165.765625 147.832031 C 165.765625 147.835938 165.703125 149.792969 166.988281 151.125 C 167.792969 151.960938 168.964844 152.386719 170.472656 152.386719 C 171.878906 152.386719 172.898438 151.992188 173.503906 151.210938 C 174.53125 149.898438 174.136719 147.871094 174.066406 147.535156 C 173.925781 147.332031 172.964844 146.097656 169.644531 146.097656 C 166.113281 146.097656 165.777344 147.757812 165.765625 147.832031 Z M 159.78125 158.3125 C 159.78125 158.3125 158.054688 158.753906 155.695312 157.132812 L 159.855469 162.417969 Z M 170.027344 149.375 C 170.453125 149.375 170.796875 149.03125 170.796875 148.605469 C 170.796875 148.179688 170.453125 147.835938 170.027344 147.835938 C 169.597656 147.835938 169.253906 148.179688 169.253906 148.605469 C 169.253906 149.03125 169.597656 149.375 170.027344 149.375 Z M 99.394531 155.949219 C 98.964844 155.949219 98.625 156.292969 98.625 156.71875 C 98.625 157.144531 98.964844 157.488281 99.394531 157.488281 C 99.824219 157.488281 100.164062 157.144531 100.164062 156.71875 C 100.171875 156.292969 99.824219 155.949219 99.394531 155.949219 Z M 180.835938 149.375 C 181.265625 149.375 181.609375 149.03125 181.609375 148.605469 C 181.609375 148.179688 181.265625 147.835938 180.835938 147.835938 C 180.410156 147.835938 180.066406 148.179688 180.066406 148.605469 C 180.066406 149.03125 180.417969 149.375 180.835938 149.375 Z M 243.691406 165.015625 C 244.117188 165.015625 244.460938 164.675781 244.460938 164.246094 C 244.460938 163.820312 244.117188 163.480469 243.691406 163.480469 C 243.261719 163.480469 242.917969 163.820312 242.917969 164.246094 C 242.917969 164.675781 243.261719 165.015625 243.691406 165.015625 Z M 176.820312 143.359375 C 176.667969 143.476562 176.632812 143.703125 176.753906 143.851562 C 176.871094 144.003906 177.097656 144.035156 177.246094 143.917969 C 177.339844 143.851562 179.453125 142.285156 182.445312 143.945312 C 182.5 143.976562 182.558594 143.992188 182.617188 143.992188 C 182.742188 143.992188 182.859375 143.925781 182.925781 143.808594 C 183.019531 143.636719 182.960938 143.417969 182.789062 143.328125 C 179.375 141.4375 176.917969 143.28125 176.820312 143.359375 Z M 166.613281 143.558594 C 166.441406 143.640625 166.371094 143.859375 166.460938 144.03125 C 166.523438 144.15625 166.648438 144.21875 166.777344 144.21875 C 166.832031 144.21875 166.890625 144.207031 166.9375 144.179688 C 166.964844 144.167969 169.902344 142.710938 172.410156 144.101562 C 172.582031 144.195312 172.800781 144.136719 172.890625 143.964844 C 172.984375 143.792969 172.925781 143.578125 172.753906 143.484375 C 169.90625 141.910156 166.746094 143.484375 166.613281 143.558594 Z M 174.71875 158.300781 C 174.757812 158.300781 174.789062 158.300781 174.828125 158.300781 C 175.027344 158.300781 175.179688 158.136719 175.179688 157.941406 C 175.179688 157.742188 175.019531 157.578125 174.816406 157.589844 C 172.128906 157.652344 171.460938 155.949219 171.429688 155.871094 C 171.363281 155.6875 171.160156 155.597656 170.980469 155.660156 C 170.796875 155.726562 170.699219 155.929688 170.769531 156.113281 C 170.804688 156.207031 171.589844 158.300781 174.71875 158.300781 Z M 175.832031 169.238281 L 175.632812 165.1875 C 172.820312 165.1875 171.199219 164.945312 170.960938 166.085938 C 170.757812 167.042969 172.886719 167.878906 175.832031 169.238281 Z M 246.085938 161.332031 C 246.152344 161.398438 246.246094 161.433594 246.332031 161.433594 C 246.421875 161.433594 246.515625 161.390625 246.589844 161.328125 C 246.726562 161.1875 246.71875 160.964844 246.582031 160.828125 C 244.578125 158.90625 242.570312 159.875 242.484375 159.914062 C 242.3125 160 242.242188 160.210938 242.324219 160.386719 C 242.410156 160.566406 242.621094 160.632812 242.800781 160.546875 C 242.859375 160.511719 244.453125 159.769531 246.085938 161.332031 Z M 244.242188 173.484375 C 244.058594 173.535156 243.945312 173.734375 244.007812 173.921875 C 244.050781 174.074219 244.191406 174.179688 244.34375 174.179688 C 244.375 174.179688 244.40625 174.171875 244.441406 174.167969 C 244.511719 174.148438 246.257812 173.628906 247.167969 172.570312 C 247.800781 171.835938 247.734375 171.09375 247.398438 170.71875 C 247.128906 170.417969 246.5625 170.234375 245.851562 170.707031 C 244.890625 171.34375 243.570312 171.355469 243.558594 171.355469 C 243.359375 171.355469 243.203125 171.515625 243.203125 171.710938 C 243.203125 171.910156 243.359375 172.066406 243.558594 172.066406 C 243.617188 172.066406 245.097656 172.058594 246.238281 171.296875 C 246.515625 171.113281 246.761719 171.074219 246.863281 171.191406 C 246.984375 171.324219 246.984375 171.699219 246.628906 172.117188 C 245.855469 173.003906 244.257812 173.476562 244.242188 173.484375 Z M 261.953125 163.519531 C 262 163.546875 262.050781 163.550781 262.105469 163.550781 C 262.234375 163.550781 262.359375 163.480469 262.421875 163.347656 C 262.453125 163.277344 263.21875 161.640625 262.230469 160.492188 C 261.253906 159.363281 259.554688 159.652344 259.480469 159.664062 C 259.289062 159.699219 259.164062 159.882812 259.199219 160.074219 C 259.230469 160.261719 259.410156 160.394531 259.605469 160.355469 C 259.621094 160.355469 260.984375 160.125 261.6875 160.945312 C 262.378906 161.746094 261.789062 163.035156 261.78125 163.046875 C 261.703125 163.230469 261.773438 163.441406 261.953125 163.519531 Z M 251.589844 209.875 C 251.515625 210.054688 251.601562 210.261719 251.78125 210.335938 C 255.054688 211.695312 271.425781 218.480469 272.027344 218.582031 C 272.117188 218.59375 272.214844 218.605469 272.316406 218.605469 C 273.007812 218.605469 273.773438 218.226562 274.324219 217.582031 C 274.925781 216.886719 282.308594 202.890625 283.148438 201.304688 C 283.238281 201.132812 283.171875 200.914062 282.996094 200.832031 C 282.824219 200.738281 282.605469 200.804688 282.519531 200.980469 C 279.246094 207.199219 274.214844 216.632812 273.785156 217.136719 C 273.246094 217.765625 272.574219 217.976562 272.152344 217.90625 C 271.550781 217.761719 259.804688 212.914062 252.050781 209.699219 C 251.871094 209.605469 251.667969 209.691406 251.589844 209.875 Z M 250.007812 310.757812 C 250.039062 310.761719 250.074219 310.769531 250.105469 310.769531 C 250.257812 310.769531 250.402344 310.671875 250.449219 310.511719 C 251.179688 307.964844 249.519531 306.285156 249.453125 306.214844 C 249.316406 306.074219 249.09375 306.074219 248.953125 306.214844 C 248.816406 306.351562 248.816406 306.574219 248.953125 306.710938 C 249.011719 306.773438 250.382812 308.191406 249.769531 310.324219 C 249.710938 310.507812 249.824219 310.703125 250.007812 310.757812 Z M 207.269531 322.164062 C 207.078125 322.203125 206.960938 322.394531 207 322.585938 C 207.324219 324.082031 207.113281 325.492188 207.113281 325.511719 C 207.078125 325.703125 207.21875 325.886719 207.410156 325.914062 C 207.429688 325.914062 207.441406 325.917969 207.460938 325.917969 C 207.632812 325.917969 207.785156 325.796875 207.808594 325.625 C 207.816406 325.558594 208.039062 324.074219 207.691406 322.449219 C 207.652344 322.242188 207.460938 322.125 207.269531 322.164062 Z M 168.417969 170.550781 L 166.25 174.574219 L 160.558594 172.761719 C 160.367188 172.703125 160.175781 172.808594 160.117188 172.992188 C 160.058594 173.175781 160.15625 173.371094 160.347656 173.429688 L 166.324219 175.335938 C 166.355469 175.347656 166.394531 175.355469 166.429688 175.355469 C 166.554688 175.355469 166.679688 175.289062 166.738281 175.171875 L 169.050781 170.882812 C 169.144531 170.714844 169.078125 170.496094 168.90625 170.40625 C 168.722656 170.3125 168.511719 170.378906 168.417969 170.550781 Z M 177.550781 170.167969 C 177.378906 170.265625 177.320312 170.484375 177.417969 170.648438 L 179.566406 174.375 C 179.632812 174.488281 179.75 174.554688 179.875 174.554688 C 179.933594 174.554688 179.996094 174.539062 180.054688 174.507812 C 180.226562 174.410156 180.285156 174.191406 180.1875 174.027344 L 178.039062 170.300781 C 177.9375 170.128906 177.722656 170.078125 177.550781 170.167969 Z M 128.335938 263.21875 L 117.578125 305.347656 C 117.53125 305.539062 117.644531 305.726562 117.835938 305.773438 C 117.859375 305.78125 117.894531 305.789062 117.921875 305.789062 C 118.078125 305.789062 118.222656 305.683594 118.261719 305.523438 L 129.019531 263.394531 C 129.066406 263.203125 128.957031 263.015625 128.765625 262.96875 C 128.578125 262.914062 128.390625 263.027344 128.335938 263.21875 Z M 124.585938 262.996094 C 125.046875 263.039062 125.484375 263.066406 125.898438 263.066406 C 127.703125 263.066406 129.0625 262.605469 129.871094 261.722656 C 130.292969 261.253906 130.542969 260.691406 130.640625 260.035156 C 130.675781 259.976562 130.695312 259.902344 130.683594 259.832031 C 130.683594 259.824219 130.675781 259.8125 130.675781 259.796875 C 130.714844 259.332031 130.675781 258.828125 130.5625 258.28125 C 129.890625 255.089844 127.441406 250.746094 122.566406 248.105469 C 122.394531 248.015625 122.175781 248.082031 122.085938 248.246094 C 121.992188 248.414062 122.050781 248.632812 122.230469 248.722656 C 126.589844 251.085938 128.921875 254.867188 129.726562 257.828125 C 127.902344 255.15625 124.113281 251.757812 123.910156 251.574219 C 123.765625 251.441406 123.539062 251.453125 123.410156 251.597656 C 123.277344 251.742188 123.289062 251.964844 123.433594 252.097656 C 125.140625 253.621094 129.5625 257.921875 129.957031 259.832031 C 129.890625 260.394531 129.695312 260.875 129.351562 261.253906 C 129.125 261.503906 128.835938 261.707031 128.496094 261.871094 C 128.496094 261.234375 128.269531 260.183594 127.128906 258.847656 C 125.363281 256.765625 121.246094 253.96875 121.074219 253.851562 C 120.910156 253.746094 120.695312 253.785156 120.582031 253.941406 C 120.46875 254.105469 120.515625 254.324219 120.675781 254.433594 C 120.714844 254.460938 124.882812 257.296875 126.589844 259.296875 C 127.84375 260.777344 127.824219 261.785156 127.761719 262.132812 C 127.058594 262.332031 126.203125 262.402344 125.21875 262.339844 C 125.253906 262.226562 125.285156 262.109375 125.292969 261.964844 C 125.320312 261.394531 125.015625 260.789062 124.394531 260.171875 C 122.945312 258.726562 118.84375 256.175781 118.664062 256.0625 C 118.5 255.957031 118.28125 256.011719 118.175781 256.175781 C 118.070312 256.339844 118.125 256.554688 118.289062 256.660156 C 118.328125 256.6875 122.5 259.277344 123.894531 260.664062 C 124.355469 261.125 124.59375 261.558594 124.582031 261.910156 C 124.574219 262.070312 124.527344 262.1875 124.476562 262.265625 C 120.964844 261.746094 111.6875 256.523438 110.230469 255.695312 L 113.933594 245.738281 C 113.992188 245.585938 113.933594 245.414062 113.800781 245.324219 L 81.222656 222.839844 L 70.894531 195.492188 C 70.828125 195.308594 70.617188 195.21875 70.4375 195.289062 C 70.253906 195.355469 70.164062 195.558594 70.234375 195.742188 L 80.609375 223.203125 C 80.636719 223.265625 80.683594 223.328125 80.742188 223.367188 L 113.183594 245.75 L 108.808594 257.519531 C 105.738281 256.214844 83.035156 246.542969 79.886719 245.289062 C 76.5 243.9375 68.773438 239.722656 66.460938 235.285156 C 64.109375 230.765625 57.003906 216.625 56.933594 216.480469 C 56.847656 216.300781 56.636719 216.238281 56.457031 216.324219 C 56.28125 216.40625 56.214844 216.617188 56.300781 216.796875 C 56.371094 216.941406 63.476562 231.085938 65.828125 235.613281 C 68.421875 240.597656 76.863281 244.851562 79.617188 245.945312 C 82.976562 247.285156 108.609375 258.210938 108.867188 258.3125 C 108.914062 258.332031 108.960938 258.339844 109.007812 258.339844 C 109.050781 258.339844 109.097656 258.332031 109.144531 258.3125 C 109.238281 258.273438 109.304688 258.203125 109.335938 258.109375 L 109.980469 256.363281 C 111.8125 257.410156 121.109375 262.625 124.585938 262.996094 Z M 98.878906 187.011719 C 98.683594 187.011719 98.523438 187.171875 98.523438 187.367188 L 98.523438 217.226562 C 98.523438 217.425781 98.683594 217.582031 98.878906 217.582031 C 99.078125 217.582031 99.234375 217.425781 99.234375 217.226562 L 99.234375 187.367188 C 99.230469 187.171875 99.070312 187.011719 98.878906 187.011719 Z M 88.449219 190.203125 C 88.449219 190.964844 87.832031 191.582031 87.066406 191.582031 C 86.304688 191.582031 85.683594 190.964844 85.683594 190.203125 C 85.683594 189.441406 86.304688 188.824219 87.066406 188.824219 C 87.832031 188.824219 88.449219 189.449219 88.449219 190.203125 Z M 87.746094 190.203125 C 87.746094 189.828125 87.441406 189.527344 87.066406 189.527344 C 86.691406 189.527344 86.390625 189.828125 86.390625 190.203125 C 86.390625 190.578125 86.691406 190.878906 87.066406 190.878906 C 87.441406 190.878906 87.746094 190.578125 87.746094 190.203125 Z M 88.449219 199.320312 C 88.449219 200.082031 87.832031 200.699219 87.066406 200.699219 C 86.304688 200.699219 85.683594 200.082031 85.683594 199.320312 C 85.683594 198.558594 86.304688 197.941406 87.066406 197.941406 C 87.832031 197.941406 88.449219 198.566406 88.449219 199.320312 Z M 87.746094 199.320312 C 87.746094 198.945312 87.441406 198.644531 87.066406 198.644531 C 86.691406 198.644531 86.390625 198.945312 86.390625 199.320312 C 86.390625 199.695312 86.691406 199.996094 87.066406 199.996094 C 87.441406 199.996094 87.746094 199.695312 87.746094 199.320312 Z M 101.171875 165.417969 C 101.371094 165.398438 101.507812 165.226562 101.496094 165.035156 C 101.476562 164.839844 101.304688 164.695312 101.113281 164.714844 C 99.710938 164.839844 98.386719 163.171875 98.371094 163.152344 C 98.253906 163 98.03125 162.96875 97.878906 163.085938 C 97.726562 163.203125 97.695312 163.425781 97.8125 163.578125 C 97.871094 163.65625 99.253906 165.421875 100.960938 165.421875 C 101.035156 165.429688 101.101562 165.421875 101.171875 165.417969 Z M 101.324219 152.636719 C 101.402344 152.457031 101.332031 152.25 101.152344 152.167969 C 99.488281 151.402344 97.964844 152.648438 97.382812 153.410156 C 97.265625 153.566406 97.300781 153.785156 97.457031 153.902344 C 97.523438 153.949219 97.59375 153.976562 97.667969 153.976562 C 97.773438 153.976562 97.878906 153.929688 97.953125 153.835938 C 98.003906 153.765625 99.296875 152.097656 100.855469 152.8125 C 101.035156 152.886719 101.238281 152.804688 101.324219 152.636719 Z M 85.011719 155.339844 C 84.925781 155.417969 82.84375 157.375 82.773438 159.757812 C 82.765625 159.953125 82.917969 160.113281 83.113281 160.117188 C 83.121094 160.117188 83.121094 160.117188 83.128906 160.117188 C 83.320312 160.117188 83.476562 159.96875 83.484375 159.777344 C 83.550781 157.691406 85.480469 155.871094 85.5 155.851562 C 85.644531 155.722656 85.652344 155.496094 85.519531 155.351562 C 85.382812 155.214844 85.15625 155.203125 85.011719 155.339844 Z M 258.867188 177.953125 C 258.527344 177.265625 257.953125 177.722656 256.175781 178.722656 L 257.828125 181.367188 C 258.5 179.609375 258.988281 178.191406 258.867188 177.953125 Z M 185.082031 129.167969 L 184.601562 116.914062 C 184.554688 115.652344 185.007812 114.464844 185.890625 113.566406 C 186.773438 112.664062 187.964844 112.179688 189.21875 112.191406 L 227.253906 112.691406 C 229.710938 112.726562 231.6875 114.667969 231.75 117.121094 L 231.96875 125.609375 C 232.023438 127.761719 232.96875 129.824219 234.578125 131.261719 L 244.59375 140.273438 C 244.722656 140.394531 244.742188 140.589844 244.644531 140.734375 C 244.578125 140.832031 244.46875 140.886719 244.355469 140.886719 C 244.300781 140.886719 244.242188 140.871094 244.195312 140.847656 L 230.699219 134.03125 C 229.570312 133.460938 228.273438 133.164062 227.046875 133.179688 L 189.691406 133.527344 C 189.679688 133.527344 189.660156 133.527344 189.644531 133.527344 C 187.175781 133.535156 185.179688 131.625 185.082031 129.167969 Z M 185.304688 116.886719 L 185.785156 129.140625 C 185.863281 131.214844 187.558594 132.832031 189.632812 132.832031 C 189.644531 132.832031 189.660156 132.832031 189.671875 132.832031 L 227.027344 132.484375 C 227.054688 132.484375 227.082031 132.484375 227.105469 132.484375 C 228.457031 132.484375 229.800781 132.804688 231.007812 133.410156 L 242.148438 139.035156 L 234.097656 131.789062 C 232.351562 130.21875 231.316406 127.972656 231.257812 125.628906 L 231.039062 117.140625 C 230.988281 115.066406 229.3125 113.425781 227.238281 113.402344 L 189.203125 112.902344 C 188.132812 112.871094 187.144531 113.300781 186.390625 114.0625 C 185.652344 114.820312 185.265625 115.824219 185.304688 116.886719 Z M 190.488281 119.136719 L 223.332031 119.339844 C 223.523438 119.339844 223.679688 119.183594 223.6875 118.992188 C 223.6875 118.796875 223.53125 118.640625 223.339844 118.640625 L 190.496094 118.4375 C 190.304688 118.4375 190.148438 118.59375 190.140625 118.785156 C 190.132812 118.980469 190.292969 119.136719 190.488281 119.136719 Z M 189.460938 123.410156 L 224.140625 124.023438 C 224.140625 124.023438 224.148438 124.023438 224.148438 124.023438 C 224.339844 124.023438 224.5 123.871094 224.503906 123.675781 C 224.511719 123.476562 224.351562 123.320312 224.15625 123.3125 L 189.476562 122.703125 C 189.289062 122.703125 189.121094 122.851562 189.113281 123.050781 C 189.113281 123.246094 189.269531 123.40625 189.460938 123.410156 Z M 223.953125 127.789062 C 223.945312 127.789062 223.945312 127.789062 223.953125 127.789062 L 191.101562 127.992188 C 190.90625 127.992188 190.746094 128.152344 190.753906 128.347656 C 190.753906 128.542969 190.910156 128.695312 191.109375 128.695312 L 223.953125 128.492188 C 224.148438 128.492188 224.308594 128.335938 224.300781 128.136719 C 224.300781 127.941406 224.140625 127.789062 223.953125 127.789062 Z M 223.953125 127.789062 "/>
</g>
</g>
</svg>
