<?xml version="1.0" encoding="UTF-8"?>
<svg xmlns="http://www.w3.org/2000/svg" xmlns:xlink="http://www.w3.org/1999/xlink" width="375pt" height="374.999991pt" viewBox="0 0 375 374.999991" version="1.2">
<defs>
<clipPath id="clip1">
  <path d="M 17 5 L 359 5 L 359 350 L 17 350 Z M 17 5 "/>
</clipPath>
<clipPath id="clip2">
  <path d="M 98.207031 -25.132812 L 419.363281 205.257812 L 240.121094 455.117188 L -81.035156 224.722656 Z M 98.207031 -25.132812 "/>
</clipPath>
<clipPath id="clip3">
  <path d="M 98.207031 -25.132812 L 419.363281 205.257812 L 240.121094 455.117188 L -81.035156 224.722656 Z M 98.207031 -25.132812 "/>
</clipPath>
<clipPath id="clip4">
  <path d="M 321.429688 188.09375 C 318.710938 186.144531 316.03125 184.429688 313.253906 182.847656 C 292.941406 171.570312 277.558594 153.125 271.363281 130.777344 C 266.804688 114.75 257.054688 99.933594 242.378906 89.40625 C 233.410156 82.972656 223.347656 78.632812 213.066406 76.609375 C 201.542969 74.308594 192.03125 66.046875 187.949219 55.09375 C 182.34375 39.957031 171.988281 26.5625 157.269531 17.238281 C 124.105469 -3.671875 78.714844 3.070312 55.90625 34.863281 C 29.398438 71.820312 41.777344 104.777344 55.113281 124.632812 C 63.195312 136.605469 61.667969 152.796875 51.65625 163.3125 C 44.816406 170.546875 37.863281 178.519531 33.492188 185.472656 C 5.042969 230.296875 15.152344 290.230469 56.808594 323.40625 C 92.953125 352.214844 141.378906 353 177.796875 330.355469 C 190.410156 322.527344 206.484375 323.359375 218.484375 332.171875 L 218.753906 332.367188 C 258.574219 360.933594 313.878906 351.835938 342.300781 311.929688 C 370.394531 272.199219 361.074219 216.328125 321.429688 188.09375 Z M 321.429688 188.09375 "/>
</clipPath>
<linearGradient id="linear0" gradientUnits="userSpaceOnUse" x1="-36.862345" y1="91.945" x2="266.425096" y2="91.945" gradientTransform="matrix(1.358985,0.974907,-0.974671,1.358657,98.696192,-24.781189)">
<stop offset="0" style="stop-color:rgb(9.399414%,57.598877%,97.299194%);stop-opacity:1;"/>
<stop offset="0.125" style="stop-color:rgb(9.526062%,57.681274%,97.276306%);stop-opacity:1;"/>
<stop offset="0.128906" style="stop-color:rgb(9.938049%,57.948303%,97.206116%);stop-opacity:1;"/>
<stop offset="0.132812" style="stop-color:rgb(10.224915%,58.13446%,97.157288%);stop-opacity:1;"/>
<stop offset="0.136719" style="stop-color:rgb(10.510254%,58.319092%,97.106934%);stop-opacity:1;"/>
<stop offset="0.140625" style="stop-color:rgb(10.797119%,58.505249%,97.058105%);stop-opacity:1;"/>
<stop offset="0.144531" style="stop-color:rgb(11.082458%,58.691406%,97.009277%);stop-opacity:1;"/>
<stop offset="0.148437" style="stop-color:rgb(11.369324%,58.877563%,96.960449%);stop-opacity:1;"/>
<stop offset="0.152344" style="stop-color:rgb(11.654663%,59.062195%,96.910095%);stop-opacity:1;"/>
<stop offset="0.15625" style="stop-color:rgb(11.941528%,59.248352%,96.861267%);stop-opacity:1;"/>
<stop offset="0.160156" style="stop-color:rgb(12.226868%,59.432983%,96.810913%);stop-opacity:1;"/>
<stop offset="0.164062" style="stop-color:rgb(12.513733%,59.619141%,96.762085%);stop-opacity:1;"/>
<stop offset="0.167969" style="stop-color:rgb(12.799072%,59.803772%,96.713257%);stop-opacity:1;"/>
<stop offset="0.171875" style="stop-color:rgb(13.085938%,59.989929%,96.664429%);stop-opacity:1;"/>
<stop offset="0.175781" style="stop-color:rgb(13.371277%,60.174561%,96.614075%);stop-opacity:1;"/>
<stop offset="0.179687" style="stop-color:rgb(13.658142%,60.360718%,96.565247%);stop-opacity:1;"/>
<stop offset="0.183594" style="stop-color:rgb(13.943481%,60.546875%,96.516418%);stop-opacity:1;"/>
<stop offset="0.1875" style="stop-color:rgb(14.230347%,60.733032%,96.46759%);stop-opacity:1;"/>
<stop offset="0.191406" style="stop-color:rgb(14.515686%,60.917664%,96.417236%);stop-opacity:1;"/>
<stop offset="0.195312" style="stop-color:rgb(14.802551%,61.103821%,96.368408%);stop-opacity:1;"/>
<stop offset="0.199219" style="stop-color:rgb(15.087891%,61.288452%,96.318054%);stop-opacity:1;"/>
<stop offset="0.203125" style="stop-color:rgb(15.374756%,61.474609%,96.269226%);stop-opacity:1;"/>
<stop offset="0.207031" style="stop-color:rgb(15.661621%,61.659241%,96.220398%);stop-opacity:1;"/>
<stop offset="0.210937" style="stop-color:rgb(15.948486%,61.845398%,96.17157%);stop-opacity:1;"/>
<stop offset="0.214844" style="stop-color:rgb(16.233826%,62.031555%,96.121216%);stop-opacity:1;"/>
<stop offset="0.21875" style="stop-color:rgb(16.520691%,62.217712%,96.072388%);stop-opacity:1;"/>
<stop offset="0.222656" style="stop-color:rgb(16.80603%,62.402344%,96.02356%);stop-opacity:1;"/>
<stop offset="0.226562" style="stop-color:rgb(17.092896%,62.588501%,95.974731%);stop-opacity:1;"/>
<stop offset="0.230469" style="stop-color:rgb(17.378235%,62.773132%,95.924377%);stop-opacity:1;"/>
<stop offset="0.234375" style="stop-color:rgb(17.6651%,62.95929%,95.875549%);stop-opacity:1;"/>
<stop offset="0.238281" style="stop-color:rgb(17.950439%,63.143921%,95.825195%);stop-opacity:1;"/>
<stop offset="0.242188" style="stop-color:rgb(18.237305%,63.330078%,95.776367%);stop-opacity:1;"/>
<stop offset="0.246094" style="stop-color:rgb(18.522644%,63.516235%,95.727539%);stop-opacity:1;"/>
<stop offset="0.25" style="stop-color:rgb(18.809509%,63.702393%,95.678711%);stop-opacity:1;"/>
<stop offset="0.253906" style="stop-color:rgb(19.094849%,63.887024%,95.628357%);stop-opacity:1;"/>
<stop offset="0.257812" style="stop-color:rgb(19.381714%,64.073181%,95.579529%);stop-opacity:1;"/>
<stop offset="0.261719" style="stop-color:rgb(19.667053%,64.257812%,95.530701%);stop-opacity:1;"/>
<stop offset="0.265625" style="stop-color:rgb(19.953918%,64.44397%,95.481873%);stop-opacity:1;"/>
<stop offset="0.269531" style="stop-color:rgb(20.239258%,64.628601%,95.431519%);stop-opacity:1;"/>
<stop offset="0.273438" style="stop-color:rgb(20.526123%,64.814758%,95.38269%);stop-opacity:1;"/>
<stop offset="0.277344" style="stop-color:rgb(20.811462%,64.99939%,95.333862%);stop-opacity:1;"/>
<stop offset="0.28125" style="stop-color:rgb(21.098328%,65.185547%,95.285034%);stop-opacity:1;"/>
<stop offset="0.285156" style="stop-color:rgb(21.383667%,65.371704%,95.23468%);stop-opacity:1;"/>
<stop offset="0.289062" style="stop-color:rgb(21.670532%,65.557861%,95.185852%);stop-opacity:1;"/>
<stop offset="0.292969" style="stop-color:rgb(21.955872%,65.742493%,95.135498%);stop-opacity:1;"/>
<stop offset="0.296875" style="stop-color:rgb(22.242737%,65.92865%,95.08667%);stop-opacity:1;"/>
<stop offset="0.300781" style="stop-color:rgb(22.528076%,66.113281%,95.037842%);stop-opacity:1;"/>
<stop offset="0.304687" style="stop-color:rgb(22.814941%,66.299438%,94.989014%);stop-opacity:1;"/>
<stop offset="0.308594" style="stop-color:rgb(23.100281%,66.48407%,94.93866%);stop-opacity:1;"/>
<stop offset="0.3125" style="stop-color:rgb(23.387146%,66.670227%,94.889832%);stop-opacity:1;"/>
<stop offset="0.316406" style="stop-color:rgb(23.672485%,66.856384%,94.841003%);stop-opacity:1;"/>
<stop offset="0.320312" style="stop-color:rgb(23.959351%,67.042542%,94.792175%);stop-opacity:1;"/>
<stop offset="0.324219" style="stop-color:rgb(24.24469%,67.227173%,94.741821%);stop-opacity:1;"/>
<stop offset="0.328125" style="stop-color:rgb(24.531555%,67.41333%,94.692993%);stop-opacity:1;"/>
<stop offset="0.332031" style="stop-color:rgb(24.816895%,67.597961%,94.642639%);stop-opacity:1;"/>
<stop offset="0.335937" style="stop-color:rgb(25.10376%,67.784119%,94.593811%);stop-opacity:1;"/>
<stop offset="0.339844" style="stop-color:rgb(25.389099%,67.96875%,94.544983%);stop-opacity:1;"/>
<stop offset="0.34375" style="stop-color:rgb(25.675964%,68.154907%,94.496155%);stop-opacity:1;"/>
<stop offset="0.347656" style="stop-color:rgb(25.96283%,68.339539%,94.445801%);stop-opacity:1;"/>
<stop offset="0.351562" style="stop-color:rgb(26.249695%,68.525696%,94.396973%);stop-opacity:1;"/>
<stop offset="0.355469" style="stop-color:rgb(26.535034%,68.711853%,94.348145%);stop-opacity:1;"/>
<stop offset="0.359375" style="stop-color:rgb(26.821899%,68.89801%,94.299316%);stop-opacity:1;"/>
<stop offset="0.363281" style="stop-color:rgb(27.107239%,69.082642%,94.248962%);stop-opacity:1;"/>
<stop offset="0.367187" style="stop-color:rgb(27.394104%,69.268799%,94.200134%);stop-opacity:1;"/>
<stop offset="0.371094" style="stop-color:rgb(27.679443%,69.45343%,94.14978%);stop-opacity:1;"/>
<stop offset="0.375" style="stop-color:rgb(27.966309%,69.639587%,94.100952%);stop-opacity:1;"/>
<stop offset="0.378906" style="stop-color:rgb(28.251648%,69.824219%,94.052124%);stop-opacity:1;"/>
<stop offset="0.382812" style="stop-color:rgb(28.538513%,70.010376%,94.003296%);stop-opacity:1;"/>
<stop offset="0.386719" style="stop-color:rgb(28.823853%,70.196533%,93.952942%);stop-opacity:1;"/>
<stop offset="0.390625" style="stop-color:rgb(29.110718%,70.38269%,93.904114%);stop-opacity:1;"/>
<stop offset="0.394531" style="stop-color:rgb(29.396057%,70.567322%,93.855286%);stop-opacity:1;"/>
<stop offset="0.398437" style="stop-color:rgb(29.682922%,70.753479%,93.806458%);stop-opacity:1;"/>
<stop offset="0.402344" style="stop-color:rgb(29.968262%,70.93811%,93.756104%);stop-opacity:1;"/>
<stop offset="0.40625" style="stop-color:rgb(30.255127%,71.124268%,93.707275%);stop-opacity:1;"/>
<stop offset="0.410156" style="stop-color:rgb(30.540466%,71.308899%,93.656921%);stop-opacity:1;"/>
<stop offset="0.414062" style="stop-color:rgb(30.827332%,71.495056%,93.608093%);stop-opacity:1;"/>
<stop offset="0.417969" style="stop-color:rgb(31.112671%,71.681213%,93.559265%);stop-opacity:1;"/>
<stop offset="0.421875" style="stop-color:rgb(31.399536%,71.867371%,93.510437%);stop-opacity:1;"/>
<stop offset="0.425781" style="stop-color:rgb(31.684875%,72.052002%,93.460083%);stop-opacity:1;"/>
<stop offset="0.429687" style="stop-color:rgb(31.971741%,72.238159%,93.411255%);stop-opacity:1;"/>
<stop offset="0.433594" style="stop-color:rgb(32.25708%,72.422791%,93.362427%);stop-opacity:1;"/>
<stop offset="0.4375" style="stop-color:rgb(32.543945%,72.608948%,93.313599%);stop-opacity:1;"/>
<stop offset="0.441406" style="stop-color:rgb(32.829285%,72.793579%,93.263245%);stop-opacity:1;"/>
<stop offset="0.445312" style="stop-color:rgb(33.11615%,72.979736%,93.214417%);stop-opacity:1;"/>
<stop offset="0.449219" style="stop-color:rgb(33.401489%,73.164368%,93.164062%);stop-opacity:1;"/>
<stop offset="0.453125" style="stop-color:rgb(33.688354%,73.350525%,93.115234%);stop-opacity:1;"/>
<stop offset="0.457031" style="stop-color:rgb(33.973694%,73.536682%,93.066406%);stop-opacity:1;"/>
<stop offset="0.460937" style="stop-color:rgb(34.260559%,73.722839%,93.017578%);stop-opacity:1;"/>
<stop offset="0.464844" style="stop-color:rgb(34.545898%,73.907471%,92.967224%);stop-opacity:1;"/>
<stop offset="0.46875" style="stop-color:rgb(34.832764%,74.093628%,92.918396%);stop-opacity:1;"/>
<stop offset="0.472656" style="stop-color:rgb(35.118103%,74.278259%,92.869568%);stop-opacity:1;"/>
<stop offset="0.476562" style="stop-color:rgb(35.404968%,74.464417%,92.82074%);stop-opacity:1;"/>
<stop offset="0.480469" style="stop-color:rgb(35.691833%,74.649048%,92.770386%);stop-opacity:1;"/>
<stop offset="0.484375" style="stop-color:rgb(35.978699%,74.835205%,92.721558%);stop-opacity:1;"/>
<stop offset="0.488281" style="stop-color:rgb(36.264038%,75.021362%,92.671204%);stop-opacity:1;"/>
<stop offset="0.492187" style="stop-color:rgb(36.550903%,75.20752%,92.622375%);stop-opacity:1;"/>
<stop offset="0.496094" style="stop-color:rgb(36.836243%,75.392151%,92.573547%);stop-opacity:1;"/>
<stop offset="0.5" style="stop-color:rgb(37.123108%,75.578308%,92.524719%);stop-opacity:1;"/>
<stop offset="0.503906" style="stop-color:rgb(37.408447%,75.762939%,92.474365%);stop-opacity:1;"/>
<stop offset="0.507812" style="stop-color:rgb(37.695312%,75.949097%,92.425537%);stop-opacity:1;"/>
<stop offset="0.511719" style="stop-color:rgb(37.980652%,76.133728%,92.376709%);stop-opacity:1;"/>
<stop offset="0.515625" style="stop-color:rgb(38.267517%,76.319885%,92.327881%);stop-opacity:1;"/>
<stop offset="0.519531" style="stop-color:rgb(38.552856%,76.504517%,92.277527%);stop-opacity:1;"/>
<stop offset="0.523438" style="stop-color:rgb(38.839722%,76.690674%,92.228699%);stop-opacity:1;"/>
<stop offset="0.527344" style="stop-color:rgb(39.125061%,76.876831%,92.178345%);stop-opacity:1;"/>
<stop offset="0.53125" style="stop-color:rgb(39.411926%,77.062988%,92.129517%);stop-opacity:1;"/>
<stop offset="0.535156" style="stop-color:rgb(39.697266%,77.24762%,92.080688%);stop-opacity:1;"/>
<stop offset="0.539062" style="stop-color:rgb(39.984131%,77.433777%,92.03186%);stop-opacity:1;"/>
<stop offset="0.542969" style="stop-color:rgb(40.26947%,77.618408%,91.981506%);stop-opacity:1;"/>
<stop offset="0.546875" style="stop-color:rgb(40.556335%,77.804565%,91.932678%);stop-opacity:1;"/>
<stop offset="0.550781" style="stop-color:rgb(40.841675%,77.989197%,91.88385%);stop-opacity:1;"/>
<stop offset="0.554688" style="stop-color:rgb(41.12854%,78.175354%,91.835022%);stop-opacity:1;"/>
<stop offset="0.558594" style="stop-color:rgb(41.413879%,78.361511%,91.784668%);stop-opacity:1;"/>
<stop offset="0.5625" style="stop-color:rgb(41.700745%,78.547668%,91.73584%);stop-opacity:1;"/>
<stop offset="0.566406" style="stop-color:rgb(41.986084%,78.7323%,91.685486%);stop-opacity:1;"/>
<stop offset="0.570312" style="stop-color:rgb(42.272949%,78.918457%,91.636658%);stop-opacity:1;"/>
<stop offset="0.574219" style="stop-color:rgb(42.558289%,79.103088%,91.58783%);stop-opacity:1;"/>
<stop offset="0.578125" style="stop-color:rgb(42.845154%,79.289246%,91.539001%);stop-opacity:1;"/>
<stop offset="0.582031" style="stop-color:rgb(43.130493%,79.473877%,91.488647%);stop-opacity:1;"/>
<stop offset="0.585937" style="stop-color:rgb(43.417358%,79.660034%,91.439819%);stop-opacity:1;"/>
<stop offset="0.589844" style="stop-color:rgb(43.702698%,79.846191%,91.390991%);stop-opacity:1;"/>
<stop offset="0.59375" style="stop-color:rgb(43.989563%,80.032349%,91.342163%);stop-opacity:1;"/>
<stop offset="0.597656" style="stop-color:rgb(44.274902%,80.21698%,91.291809%);stop-opacity:1;"/>
<stop offset="0.601562" style="stop-color:rgb(44.561768%,80.403137%,91.242981%);stop-opacity:1;"/>
<stop offset="0.605469" style="stop-color:rgb(44.847107%,80.587769%,91.192627%);stop-opacity:1;"/>
<stop offset="0.609375" style="stop-color:rgb(45.133972%,80.773926%,91.143799%);stop-opacity:1;"/>
<stop offset="0.613281" style="stop-color:rgb(45.420837%,80.958557%,91.094971%);stop-opacity:1;"/>
<stop offset="0.617187" style="stop-color:rgb(45.707703%,81.144714%,91.046143%);stop-opacity:1;"/>
<stop offset="0.621094" style="stop-color:rgb(45.993042%,81.329346%,90.995789%);stop-opacity:1;"/>
<stop offset="0.625" style="stop-color:rgb(46.279907%,81.515503%,90.94696%);stop-opacity:1;"/>
<stop offset="0.628906" style="stop-color:rgb(46.565247%,81.70166%,90.898132%);stop-opacity:1;"/>
<stop offset="0.632812" style="stop-color:rgb(46.852112%,81.887817%,90.849304%);stop-opacity:1;"/>
<stop offset="0.636719" style="stop-color:rgb(47.137451%,82.072449%,90.79895%);stop-opacity:1;"/>
<stop offset="0.640625" style="stop-color:rgb(47.424316%,82.258606%,90.750122%);stop-opacity:1;"/>
<stop offset="0.644531" style="stop-color:rgb(47.709656%,82.443237%,90.699768%);stop-opacity:1;"/>
<stop offset="0.648437" style="stop-color:rgb(47.996521%,82.629395%,90.65094%);stop-opacity:1;"/>
<stop offset="0.652344" style="stop-color:rgb(48.28186%,82.814026%,90.602112%);stop-opacity:1;"/>
<stop offset="0.65625" style="stop-color:rgb(48.568726%,83.000183%,90.553284%);stop-opacity:1;"/>
<stop offset="0.660156" style="stop-color:rgb(48.854065%,83.18634%,90.50293%);stop-opacity:1;"/>
<stop offset="0.664062" style="stop-color:rgb(49.14093%,83.372498%,90.454102%);stop-opacity:1;"/>
<stop offset="0.667969" style="stop-color:rgb(49.42627%,83.557129%,90.405273%);stop-opacity:1;"/>
<stop offset="0.671875" style="stop-color:rgb(49.713135%,83.743286%,90.356445%);stop-opacity:1;"/>
<stop offset="0.675781" style="stop-color:rgb(49.998474%,83.927917%,90.306091%);stop-opacity:1;"/>
<stop offset="0.679688" style="stop-color:rgb(50.285339%,84.114075%,90.257263%);stop-opacity:1;"/>
<stop offset="0.683594" style="stop-color:rgb(50.570679%,84.298706%,90.206909%);stop-opacity:1;"/>
<stop offset="0.6875" style="stop-color:rgb(50.857544%,84.484863%,90.158081%);stop-opacity:1;"/>
<stop offset="0.691406" style="stop-color:rgb(51.142883%,84.669495%,90.109253%);stop-opacity:1;"/>
<stop offset="0.695313" style="stop-color:rgb(51.429749%,84.855652%,90.060425%);stop-opacity:1;"/>
<stop offset="0.699219" style="stop-color:rgb(51.715088%,85.041809%,90.010071%);stop-opacity:1;"/>
<stop offset="0.703125" style="stop-color:rgb(52.001953%,85.227966%,89.961243%);stop-opacity:1;"/>
<stop offset="0.707031" style="stop-color:rgb(52.287292%,85.412598%,89.912415%);stop-opacity:1;"/>
<stop offset="0.710938" style="stop-color:rgb(52.574158%,85.598755%,89.863586%);stop-opacity:1;"/>
<stop offset="0.714844" style="stop-color:rgb(52.859497%,85.783386%,89.813232%);stop-opacity:1;"/>
<stop offset="0.71875" style="stop-color:rgb(53.146362%,85.969543%,89.764404%);stop-opacity:1;"/>
<stop offset="0.722656" style="stop-color:rgb(53.431702%,86.154175%,89.71405%);stop-opacity:1;"/>
<stop offset="0.726562" style="stop-color:rgb(53.718567%,86.340332%,89.665222%);stop-opacity:1;"/>
<stop offset="0.730469" style="stop-color:rgb(54.003906%,86.526489%,89.616394%);stop-opacity:1;"/>
<stop offset="0.734375" style="stop-color:rgb(54.290771%,86.712646%,89.567566%);stop-opacity:1;"/>
<stop offset="0.738281" style="stop-color:rgb(54.576111%,86.897278%,89.517212%);stop-opacity:1;"/>
<stop offset="0.742188" style="stop-color:rgb(54.862976%,87.083435%,89.468384%);stop-opacity:1;"/>
<stop offset="0.746094" style="stop-color:rgb(55.148315%,87.268066%,89.419556%);stop-opacity:1;"/>
<stop offset="0.75" style="stop-color:rgb(55.435181%,87.454224%,89.370728%);stop-opacity:1;"/>
<stop offset="0.753906" style="stop-color:rgb(55.722046%,87.638855%,89.320374%);stop-opacity:1;"/>
<stop offset="0.757812" style="stop-color:rgb(56.008911%,87.825012%,89.271545%);stop-opacity:1;"/>
<stop offset="0.761719" style="stop-color:rgb(56.29425%,88.011169%,89.221191%);stop-opacity:1;"/>
<stop offset="0.765625" style="stop-color:rgb(56.581116%,88.197327%,89.172363%);stop-opacity:1;"/>
<stop offset="0.769531" style="stop-color:rgb(56.866455%,88.381958%,89.123535%);stop-opacity:1;"/>
<stop offset="0.773437" style="stop-color:rgb(57.15332%,88.568115%,89.074707%);stop-opacity:1;"/>
<stop offset="0.777344" style="stop-color:rgb(57.43866%,88.752747%,89.024353%);stop-opacity:1;"/>
<stop offset="0.78125" style="stop-color:rgb(57.725525%,88.938904%,88.975525%);stop-opacity:1;"/>
<stop offset="0.785156" style="stop-color:rgb(58.010864%,89.123535%,88.926697%);stop-opacity:1;"/>
<stop offset="0.789062" style="stop-color:rgb(58.297729%,89.309692%,88.877869%);stop-opacity:1;"/>
<stop offset="0.792969" style="stop-color:rgb(58.583069%,89.494324%,88.827515%);stop-opacity:1;"/>
<stop offset="0.796875" style="stop-color:rgb(58.869934%,89.680481%,88.778687%);stop-opacity:1;"/>
<stop offset="0.800781" style="stop-color:rgb(59.155273%,89.866638%,88.729858%);stop-opacity:1;"/>
<stop offset="0.804687" style="stop-color:rgb(59.442139%,90.052795%,88.68103%);stop-opacity:1;"/>
<stop offset="0.808594" style="stop-color:rgb(59.727478%,90.237427%,88.630676%);stop-opacity:1;"/>
<stop offset="0.8125" style="stop-color:rgb(60.014343%,90.423584%,88.581848%);stop-opacity:1;"/>
<stop offset="0.816406" style="stop-color:rgb(60.299683%,90.608215%,88.531494%);stop-opacity:1;"/>
<stop offset="0.820312" style="stop-color:rgb(60.586548%,90.794373%,88.482666%);stop-opacity:1;"/>
<stop offset="0.824219" style="stop-color:rgb(60.871887%,90.979004%,88.433838%);stop-opacity:1;"/>
<stop offset="0.828125" style="stop-color:rgb(61.158752%,91.165161%,88.38501%);stop-opacity:1;"/>
<stop offset="0.832031" style="stop-color:rgb(61.444092%,91.351318%,88.334656%);stop-opacity:1;"/>
<stop offset="0.835938" style="stop-color:rgb(61.730957%,91.537476%,88.285828%);stop-opacity:1;"/>
<stop offset="0.839844" style="stop-color:rgb(62.016296%,91.722107%,88.237%);stop-opacity:1;"/>
<stop offset="0.84375" style="stop-color:rgb(62.303162%,91.908264%,88.188171%);stop-opacity:1;"/>
<stop offset="0.847656" style="stop-color:rgb(62.588501%,92.092896%,88.137817%);stop-opacity:1;"/>
<stop offset="0.851563" style="stop-color:rgb(62.875366%,92.279053%,88.088989%);stop-opacity:1;"/>
<stop offset="0.855469" style="stop-color:rgb(63.160706%,92.463684%,88.038635%);stop-opacity:1;"/>
<stop offset="0.859375" style="stop-color:rgb(63.447571%,92.649841%,87.989807%);stop-opacity:1;"/>
<stop offset="0.863281" style="stop-color:rgb(63.73291%,92.834473%,87.940979%);stop-opacity:1;"/>
<stop offset="0.867188" style="stop-color:rgb(64.019775%,93.02063%,87.892151%);stop-opacity:1;"/>
<stop offset="0.871094" style="stop-color:rgb(64.305115%,93.206787%,87.841797%);stop-opacity:1;"/>
<stop offset="0.875" style="stop-color:rgb(64.59198%,93.392944%,87.792969%);stop-opacity:1;"/>
<stop offset="0.878906" style="stop-color:rgb(64.877319%,93.577576%,87.744141%);stop-opacity:1;"/>
<stop offset="0.882813" style="stop-color:rgb(65.164185%,93.763733%,87.695312%);stop-opacity:1;"/>
<stop offset="0.886719" style="stop-color:rgb(65.45105%,93.948364%,87.644958%);stop-opacity:1;"/>
<stop offset="0.890625" style="stop-color:rgb(65.737915%,94.134521%,87.59613%);stop-opacity:1;"/>
<stop offset="0.894531" style="stop-color:rgb(66.018677%,94.316101%,87.547302%);stop-opacity:1;"/>
<stop offset="0.898438" style="stop-color:rgb(66.299438%,94.499207%,87.5%);stop-opacity:1;"/>
<stop offset="0.90625" style="stop-color:rgb(66.299438%,94.499207%,87.5%);stop-opacity:1;"/>
<stop offset="0.9375" style="stop-color:rgb(66.299438%,94.499207%,87.5%);stop-opacity:1;"/>
<stop offset="1" style="stop-color:rgb(66.299438%,94.499207%,87.5%);stop-opacity:1;"/>
</linearGradient>
<clipPath id="clip5">
  <path d="M 73.003906 91.367188 L 281.269531 91.367188 L 281.269531 367.667969 L 73.003906 367.667969 Z M 73.003906 91.367188 "/>
</clipPath>
<clipPath id="clip6">
  <path d="M 265 28 L 352 28 L 352 159 L 265 159 Z M 265 28 "/>
</clipPath>
<clipPath id="clip7">
  <path d="M 267.011719 16.34375 L 374.078125 55.488281 L 325.664062 187.917969 L 218.597656 148.773438 Z M 267.011719 16.34375 "/>
</clipPath>
<clipPath id="clip8">
  <path d="M 267.011719 16.34375 L 374.078125 55.488281 L 325.664062 187.917969 L 218.597656 148.773438 Z M 267.011719 16.34375 "/>
</clipPath>
<clipPath id="clip9">
  <path d="M 350.304688 120.476562 C 356.933594 102.339844 341.59375 46.925781 304.339844 31.628906 C 267.082031 16.328125 255.691406 66.214844 273.570312 103.003906 C 312.441406 183.007812 334 165.101562 350.304688 120.476562 Z M 350.304688 120.476562 "/>
</clipPath>
<linearGradient id="linear1" gradientUnits="userSpaceOnUse" x1="-699.126998" y1="-763.51001" x2="-456.41798" y2="-763.51001" gradientTransform="matrix(0.270622,-0.740232,-0.743022,-0.271642,-107.01989,-536.283617)">
<stop offset="0" style="stop-color:rgb(73.699951%,90.19928%,88.598633%);stop-opacity:1;"/>
<stop offset="0.125" style="stop-color:rgb(73.699951%,90.19928%,88.598633%);stop-opacity:1;"/>
<stop offset="0.1875" style="stop-color:rgb(73.699951%,90.19928%,88.598633%);stop-opacity:1;"/>
<stop offset="0.21875" style="stop-color:rgb(73.699951%,90.19928%,88.598633%);stop-opacity:1;"/>
<stop offset="0.226562" style="stop-color:rgb(73.699951%,90.19928%,88.598633%);stop-opacity:1;"/>
<stop offset="0.230469" style="stop-color:rgb(73.460388%,90.078735%,88.630676%);stop-opacity:1;"/>
<stop offset="0.234375" style="stop-color:rgb(73.222351%,89.958191%,88.664246%);stop-opacity:1;"/>
<stop offset="0.238281" style="stop-color:rgb(72.572327%,89.628601%,88.751221%);stop-opacity:1;"/>
<stop offset="0.242188" style="stop-color:rgb(71.923828%,89.299011%,88.839722%);stop-opacity:1;"/>
<stop offset="0.246094" style="stop-color:rgb(71.273804%,88.969421%,88.926697%);stop-opacity:1;"/>
<stop offset="0.25" style="stop-color:rgb(70.623779%,88.639832%,89.015198%);stop-opacity:1;"/>
<stop offset="0.253906" style="stop-color:rgb(69.973755%,88.310242%,89.102173%);stop-opacity:1;"/>
<stop offset="0.257812" style="stop-color:rgb(69.32373%,87.980652%,89.190674%);stop-opacity:1;"/>
<stop offset="0.261719" style="stop-color:rgb(68.673706%,87.651062%,89.279175%);stop-opacity:1;"/>
<stop offset="0.265625" style="stop-color:rgb(68.023682%,87.321472%,89.367676%);stop-opacity:1;"/>
<stop offset="0.269531" style="stop-color:rgb(67.373657%,86.991882%,89.454651%);stop-opacity:1;"/>
<stop offset="0.273437" style="stop-color:rgb(66.725159%,86.663818%,89.543152%);stop-opacity:1;"/>
<stop offset="0.277344" style="stop-color:rgb(66.075134%,86.334229%,89.630127%);stop-opacity:1;"/>
<stop offset="0.28125" style="stop-color:rgb(65.42511%,86.004639%,89.718628%);stop-opacity:1;"/>
<stop offset="0.285156" style="stop-color:rgb(64.775085%,85.675049%,89.805603%);stop-opacity:1;"/>
<stop offset="0.289062" style="stop-color:rgb(64.125061%,85.345459%,89.894104%);stop-opacity:1;"/>
<stop offset="0.292969" style="stop-color:rgb(63.475037%,85.015869%,89.982605%);stop-opacity:1;"/>
<stop offset="0.296875" style="stop-color:rgb(62.825012%,84.686279%,90.071106%);stop-opacity:1;"/>
<stop offset="0.300781" style="stop-color:rgb(62.174988%,84.356689%,90.158081%);stop-opacity:1;"/>
<stop offset="0.304687" style="stop-color:rgb(61.526489%,84.0271%,90.246582%);stop-opacity:1;"/>
<stop offset="0.308594" style="stop-color:rgb(60.876465%,83.69751%,90.333557%);stop-opacity:1;"/>
<stop offset="0.3125" style="stop-color:rgb(60.22644%,83.36792%,90.422058%);stop-opacity:1;"/>
<stop offset="0.316406" style="stop-color:rgb(59.576416%,83.03833%,90.509033%);stop-opacity:1;"/>
<stop offset="0.320312" style="stop-color:rgb(58.926392%,82.70874%,90.597534%);stop-opacity:1;"/>
<stop offset="0.324219" style="stop-color:rgb(58.276367%,82.37915%,90.686035%);stop-opacity:1;"/>
<stop offset="0.328125" style="stop-color:rgb(57.626343%,82.051086%,90.774536%);stop-opacity:1;"/>
<stop offset="0.332031" style="stop-color:rgb(56.976318%,81.721497%,90.861511%);stop-opacity:1;"/>
<stop offset="0.335937" style="stop-color:rgb(56.32782%,81.391907%,90.950012%);stop-opacity:1;"/>
<stop offset="0.339844" style="stop-color:rgb(55.677795%,81.062317%,91.036987%);stop-opacity:1;"/>
<stop offset="0.34375" style="stop-color:rgb(55.027771%,80.732727%,91.125488%);stop-opacity:1;"/>
<stop offset="0.347656" style="stop-color:rgb(54.377747%,80.403137%,91.212463%);stop-opacity:1;"/>
<stop offset="0.351562" style="stop-color:rgb(53.727722%,80.073547%,91.300964%);stop-opacity:1;"/>
<stop offset="0.355469" style="stop-color:rgb(53.077698%,79.743958%,91.389465%);stop-opacity:1;"/>
<stop offset="0.359375" style="stop-color:rgb(52.427673%,79.414368%,91.477966%);stop-opacity:1;"/>
<stop offset="0.363281" style="stop-color:rgb(51.777649%,79.084778%,91.564941%);stop-opacity:1;"/>
<stop offset="0.367187" style="stop-color:rgb(51.12915%,78.755188%,91.653442%);stop-opacity:1;"/>
<stop offset="0.371094" style="stop-color:rgb(50.479126%,78.425598%,91.740417%);stop-opacity:1;"/>
<stop offset="0.375" style="stop-color:rgb(49.829102%,78.097534%,91.828918%);stop-opacity:1;"/>
<stop offset="0.378906" style="stop-color:rgb(49.179077%,77.767944%,91.915894%);stop-opacity:1;"/>
<stop offset="0.382812" style="stop-color:rgb(48.529053%,77.438354%,92.004395%);stop-opacity:1;"/>
<stop offset="0.386719" style="stop-color:rgb(47.879028%,77.108765%,92.092896%);stop-opacity:1;"/>
<stop offset="0.390625" style="stop-color:rgb(47.229004%,76.779175%,92.181396%);stop-opacity:1;"/>
<stop offset="0.394531" style="stop-color:rgb(46.578979%,76.449585%,92.268372%);stop-opacity:1;"/>
<stop offset="0.398437" style="stop-color:rgb(45.930481%,76.119995%,92.356873%);stop-opacity:1;"/>
<stop offset="0.402344" style="stop-color:rgb(45.280457%,75.790405%,92.443848%);stop-opacity:1;"/>
<stop offset="0.40625" style="stop-color:rgb(44.630432%,75.460815%,92.532349%);stop-opacity:1;"/>
<stop offset="0.410156" style="stop-color:rgb(43.980408%,75.131226%,92.619324%);stop-opacity:1;"/>
<stop offset="0.414062" style="stop-color:rgb(43.330383%,74.801636%,92.707825%);stop-opacity:1;"/>
<stop offset="0.417969" style="stop-color:rgb(42.680359%,74.472046%,92.796326%);stop-opacity:1;"/>
<stop offset="0.421875" style="stop-color:rgb(42.030334%,74.143982%,92.884827%);stop-opacity:1;"/>
<stop offset="0.425781" style="stop-color:rgb(41.38031%,73.814392%,92.971802%);stop-opacity:1;"/>
<stop offset="0.429687" style="stop-color:rgb(40.731812%,73.484802%,93.060303%);stop-opacity:1;"/>
<stop offset="0.433594" style="stop-color:rgb(40.081787%,73.155212%,93.147278%);stop-opacity:1;"/>
<stop offset="0.4375" style="stop-color:rgb(39.431763%,72.825623%,93.235779%);stop-opacity:1;"/>
<stop offset="0.441406" style="stop-color:rgb(38.781738%,72.496033%,93.322754%);stop-opacity:1;"/>
<stop offset="0.445312" style="stop-color:rgb(38.131714%,72.166443%,93.411255%);stop-opacity:1;"/>
<stop offset="0.449219" style="stop-color:rgb(37.481689%,71.836853%,93.49823%);stop-opacity:1;"/>
<stop offset="0.453125" style="stop-color:rgb(36.831665%,71.507263%,93.586731%);stop-opacity:1;"/>
<stop offset="0.457031" style="stop-color:rgb(36.181641%,71.177673%,93.675232%);stop-opacity:1;"/>
<stop offset="0.460937" style="stop-color:rgb(35.531616%,70.848083%,93.763733%);stop-opacity:1;"/>
<stop offset="0.464844" style="stop-color:rgb(34.881592%,70.518494%,93.850708%);stop-opacity:1;"/>
<stop offset="0.46875" style="stop-color:rgb(34.233093%,70.19043%,93.939209%);stop-opacity:1;"/>
<stop offset="0.472656" style="stop-color:rgb(33.583069%,69.86084%,94.026184%);stop-opacity:1;"/>
<stop offset="0.476562" style="stop-color:rgb(32.933044%,69.53125%,94.114685%);stop-opacity:1;"/>
<stop offset="0.480469" style="stop-color:rgb(32.28302%,69.20166%,94.20166%);stop-opacity:1;"/>
<stop offset="0.484375" style="stop-color:rgb(31.632996%,68.87207%,94.290161%);stop-opacity:1;"/>
<stop offset="0.488281" style="stop-color:rgb(30.982971%,68.54248%,94.378662%);stop-opacity:1;"/>
<stop offset="0.492187" style="stop-color:rgb(30.332947%,68.212891%,94.467163%);stop-opacity:1;"/>
<stop offset="0.496094" style="stop-color:rgb(29.682922%,67.883301%,94.554138%);stop-opacity:1;"/>
<stop offset="0.5" style="stop-color:rgb(29.034424%,67.553711%,94.642639%);stop-opacity:1;"/>
<stop offset="0.503906" style="stop-color:rgb(28.384399%,67.224121%,94.729614%);stop-opacity:1;"/>
<stop offset="0.507812" style="stop-color:rgb(27.734375%,66.894531%,94.818115%);stop-opacity:1;"/>
<stop offset="0.511719" style="stop-color:rgb(27.084351%,66.564941%,94.90509%);stop-opacity:1;"/>
<stop offset="0.515625" style="stop-color:rgb(26.434326%,66.236877%,94.993591%);stop-opacity:1;"/>
<stop offset="0.519531" style="stop-color:rgb(25.784302%,65.907288%,95.082092%);stop-opacity:1;"/>
<stop offset="0.523437" style="stop-color:rgb(25.134277%,65.577698%,95.170593%);stop-opacity:1;"/>
<stop offset="0.527344" style="stop-color:rgb(24.484253%,65.248108%,95.257568%);stop-opacity:1;"/>
<stop offset="0.53125" style="stop-color:rgb(23.835754%,64.918518%,95.346069%);stop-opacity:1;"/>
<stop offset="0.535156" style="stop-color:rgb(23.18573%,64.588928%,95.433044%);stop-opacity:1;"/>
<stop offset="0.539062" style="stop-color:rgb(22.535706%,64.259338%,95.521545%);stop-opacity:1;"/>
<stop offset="0.542969" style="stop-color:rgb(21.885681%,63.929749%,95.608521%);stop-opacity:1;"/>
<stop offset="0.546875" style="stop-color:rgb(21.235657%,63.600159%,95.697021%);stop-opacity:1;"/>
<stop offset="0.550781" style="stop-color:rgb(20.585632%,63.270569%,95.785522%);stop-opacity:1;"/>
<stop offset="0.554687" style="stop-color:rgb(19.935608%,62.940979%,95.874023%);stop-opacity:1;"/>
<stop offset="0.558594" style="stop-color:rgb(19.285583%,62.611389%,95.960999%);stop-opacity:1;"/>
<stop offset="0.5625" style="stop-color:rgb(18.637085%,62.283325%,96.0495%);stop-opacity:1;"/>
<stop offset="0.566406" style="stop-color:rgb(17.987061%,61.953735%,96.136475%);stop-opacity:1;"/>
<stop offset="0.570312" style="stop-color:rgb(17.337036%,61.624146%,96.224976%);stop-opacity:1;"/>
<stop offset="0.574219" style="stop-color:rgb(16.687012%,61.294556%,96.311951%);stop-opacity:1;"/>
<stop offset="0.578125" style="stop-color:rgb(16.036987%,60.964966%,96.400452%);stop-opacity:1;"/>
<stop offset="0.582031" style="stop-color:rgb(15.386963%,60.635376%,96.488953%);stop-opacity:1;"/>
<stop offset="0.585937" style="stop-color:rgb(14.736938%,60.305786%,96.577454%);stop-opacity:1;"/>
<stop offset="0.589844" style="stop-color:rgb(14.086914%,59.976196%,96.664429%);stop-opacity:1;"/>
<stop offset="0.59375" style="stop-color:rgb(13.438416%,59.646606%,96.75293%);stop-opacity:1;"/>
<stop offset="0.597656" style="stop-color:rgb(12.788391%,59.317017%,96.839905%);stop-opacity:1;"/>
<stop offset="0.601562" style="stop-color:rgb(12.138367%,58.987427%,96.928406%);stop-opacity:1;"/>
<stop offset="0.605469" style="stop-color:rgb(11.488342%,58.657837%,97.015381%);stop-opacity:1;"/>
<stop offset="0.609375" style="stop-color:rgb(10.838318%,58.328247%,97.103882%);stop-opacity:1;"/>
<stop offset="0.613281" style="stop-color:rgb(10.188293%,57.998657%,97.192383%);stop-opacity:1;"/>
<stop offset="0.617187" style="stop-color:rgb(9.538269%,57.670593%,97.280884%);stop-opacity:1;"/>
<stop offset="0.625" style="stop-color:rgb(9.468079%,57.633972%,97.290039%);stop-opacity:1;"/>
<stop offset="0.75" style="stop-color:rgb(9.399414%,57.598877%,97.299194%);stop-opacity:1;"/>
<stop offset="1" style="stop-color:rgb(9.399414%,57.598877%,97.299194%);stop-opacity:1;"/>
</linearGradient>
</defs>
<g id="surface1">
<g clip-path="url(#clip1)" clip-rule="nonzero">
<g clip-path="url(#clip2)" clip-rule="nonzero">
<g clip-path="url(#clip3)" clip-rule="nonzero">
<g clip-path="url(#clip4)" clip-rule="nonzero">
<path style=" stroke:none;fill-rule:nonzero;fill:url(#linear0);" d="M 129.179688 -173.042969 L -165.90625 238.296875 L 246.257812 533.972656 L 541.34375 122.636719 Z M 129.179688 -173.042969 "/>
</g>
</g>
</g>
</g>
<g clip-path="url(#clip5)" clip-rule="nonzero">
<path style=" stroke:none;fill-rule:nonzero;fill:rgb(100%,100%,100%);fill-opacity:1;" d="M 276.230469 273.527344 L 273.441406 274.242188 C 274.304688 284.980469 277.984375 339.503906 265.007812 353.035156 C 259.011719 359.285156 250.777344 359.886719 247.988281 359.894531 L 248.128906 367.667969 L 102.933594 367.667969 L 103.515625 355.445312 C 69.757812 345.515625 80.316406 282.128906 82.023438 273.015625 L 78.59375 271.90625 C 74.296875 270.511719 71.976562 265.867188 73.445312 261.597656 C 73.445312 261.597656 76.820312 232.785156 87.332031 212.425781 C 92.148438 203.09375 102.25 196.042969 111.53125 191.113281 C 123.734375 184.621094 150.75 176.894531 161.625 173.914062 C 162.804688 165.148438 162.125 155.621094 162.125 155.621094 C 159.539062 152.96875 158.15625 148.339844 157.53125 142.90625 C 154.898438 144.308594 150.0625 139.828125 150.65625 132.617188 C 150.933594 129.222656 152.527344 128.160156 154.238281 128.039062 C 155.113281 127.972656 156.265625 127.832031 157.332031 127.679688 C 158.082031 115.253906 160.464844 103.726562 160.464844 103.726562 C 162.953125 96.550781 170.414062 91.859375 182.566406 91.859375 C 194.726562 91.859375 214.894531 96.273438 212.40625 126.640625 C 212.238281 128.714844 212.042969 130.6875 211.828125 132.558594 L 215.320312 136.726562 C 217.261719 137.355469 218.996094 139.175781 218.160156 143.949219 C 216.914062 151.058594 210.875 153.039062 208.566406 150.664062 C 205.660156 161.570312 202.460938 165.003906 202.460938 165.003906 C 201.203125 169.585938 201 172.953125 201.386719 175.625 C 210.808594 178.210938 231.179688 184.167969 245.664062 191.046875 C 256.164062 196.035156 267.765625 206.339844 272.648438 216.878906 C 280.609375 234.058594 281.113281 265.582031 281.113281 265.582031 C 281.894531 269.113281 279.734375 272.628906 276.230469 273.527344 "/>
</g>
<path style=" stroke:none;fill-rule:nonzero;fill:rgb(66.268921%,94.509888%,87.449646%);fill-opacity:1;" d="M 190.179688 255.425781 C 190.132812 255.425781 190.085938 255.421875 190.039062 255.414062 C 189.457031 255.335938 189.050781 254.804688 189.125 254.226562 C 189.300781 252.9375 188.179688 252.320312 187.796875 252.152344 C 185.796875 252.042969 167.195312 251.035156 162.976562 250.808594 C 161.769531 250.742188 160.859375 250.984375 160.34375 251.492188 C 159.785156 252.046875 159.796875 252.792969 159.796875 252.804688 C 159.824219 253.386719 159.371094 253.886719 158.785156 253.914062 C 158.167969 253.925781 157.699219 253.488281 157.675781 252.902344 C 157.664062 252.734375 157.628906 251.195312 158.84375 249.988281 C 159.8125 249.027344 161.238281 248.597656 163.089844 248.691406 C 167.546875 248.929688 188.085938 250.042969 188.085938 250.042969 C 188.1875 250.046875 188.289062 250.070312 188.382812 250.105469 C 189.519531 250.503906 191.574219 251.941406 191.230469 254.503906 C 191.160156 255.035156 190.703125 255.425781 190.179688 255.425781 Z M 162.992188 254.65625 C 161.9375 254.65625 161.082031 254.066406 161.082031 253.34375 C 161.082031 252.617188 161.9375 252.03125 162.992188 252.03125 C 164.046875 252.03125 164.902344 252.617188 164.902344 253.34375 C 164.902344 254.066406 164.046875 254.65625 162.992188 254.65625 Z M 187.742188 249.464844 L 161.636719 248.242188 C 159.445312 248.140625 157.605469 249.878906 157.589844 252.070312 L 157.460938 269.121094 C 164.097656 269.433594 170.636719 269.925781 170.636719 269.925781 C 170.636719 269.925781 172.066406 265.75 178.515625 266.703125 C 181.097656 267.085938 185.820312 267.238281 190.742188 267.285156 L 191.421875 253.511719 C 191.527344 251.378906 189.878906 249.5625 187.742188 249.464844 "/>
<path style=" stroke:none;fill-rule:nonzero;fill:rgb(15.689087%,25.099182%,49.409485%);fill-opacity:1;" d="M 195.3125 133.890625 C 194.433594 134.769531 194.433594 136.191406 195.3125 137.070312 C 196.191406 137.949219 197.621094 137.949219 198.5 137.070312 C 199.378906 136.191406 199.378906 134.769531 198.5 133.890625 C 197.621094 133.011719 196.191406 133.011719 195.3125 133.890625 Z M 174.019531 131.980469 C 173.140625 132.859375 173.140625 134.285156 174.019531 135.164062 C 174.898438 136.042969 176.324219 136.042969 177.203125 135.164062 C 178.082031 134.285156 178.082031 132.859375 177.203125 131.980469 C 176.324219 131.101562 174.898438 131.101562 174.019531 131.980469 Z M 162.875 117.464844 C 164.214844 120.953125 163.144531 125.871094 161.949219 129.507812 L 165.621094 131.164062 C 167.382812 128.328125 170.519531 126.425781 174.101562 126.425781 C 178.414062 126.425781 182.082031 129.179688 183.472656 133.015625 C 184.917969 132.6875 187.078125 132.445312 188.980469 133.214844 C 189.035156 132.996094 189.097656 132.773438 189.152344 132.550781 C 189.308594 131.941406 189.410156 131.324219 189.554688 130.714844 C 189.621094 130.410156 189.714844 130.105469 189.8125 129.804688 L 189.984375 129.359375 C 190.042969 129.210938 190.167969 129.078125 190.578125 129 C 190.925781 129.226562 190.992188 129.394531 190.992188 129.550781 L 190.988281 130.027344 C 190.972656 130.339844 190.953125 130.652344 190.910156 130.957031 C 190.851562 131.398438 190.785156 131.832031 190.730469 132.269531 C 192.550781 130.34375 195.125 129.128906 197.980469 129.128906 C 202.238281 129.128906 205.867188 131.8125 207.296875 135.570312 L 210.527344 134.789062 C 206.941406 121.980469 187.65625 118.355469 172.90625 115.320312 C 167.710938 114.25 164.941406 111.445312 163.570312 108.132812 C 162.476562 110.828125 161.667969 114.328125 162.875 117.464844 Z M 205.832031 139.097656 C 205.832031 138.597656 205.78125 138.105469 205.691406 137.628906 C 205.550781 137.492188 205.433594 137.324219 205.386719 137.121094 C 205.339844 136.929688 205.355469 136.742188 205.40625 136.566406 C 204.347656 133.480469 201.421875 131.25 197.980469 131.25 C 195.105469 131.25 192.59375 132.804688 191.226562 135.113281 C 191.28125 135.449219 191.171875 135.804688 190.90625 136.050781 C 190.839844 136.117188 190.765625 136.167969 190.683594 136.207031 C 190.328125 137.105469 190.125 138.078125 190.125 139.097656 C 190.125 143.425781 193.648438 146.945312 197.980469 146.945312 C 202.3125 146.945312 205.832031 143.425781 205.832031 139.097656 Z M 181.953125 136.394531 C 181.953125 136.089844 181.929688 135.789062 181.894531 135.492188 C 181.601562 135.398438 181.351562 135.179688 181.230469 134.875 C 181.070312 134.464844 181.179688 134.015625 181.476562 133.726562 C 180.378906 130.714844 177.492188 128.546875 174.101562 128.546875 C 169.765625 128.546875 166.242188 132.070312 166.242188 136.394531 C 166.242188 140.722656 169.765625 144.242188 174.101562 144.242188 C 178.429688 144.242188 181.953125 140.722656 181.953125 136.394531 Z M 154.183594 128.042969 C 152.90625 115.503906 152.484375 94.863281 163.390625 94.152344 C 164 92.433594 165.289062 91.035156 166.972656 90.261719 C 183.585938 82.652344 202.429688 84.15625 211.035156 90.742188 C 212.234375 91.660156 206.472656 93.316406 207.53125 94.402344 C 211.105469 98.0625 214.273438 99.675781 216.429688 103.972656 C 219.152344 106.75 221.382812 111.0625 220.746094 117.628906 C 220.015625 125.207031 217.835938 131.753906 215.546875 136.808594 C 214.699219 136.488281 213.796875 136.417969 213.039062 136.4375 C 211.925781 138.054688 211.117188 138.9375 211.117188 138.9375 C 211.105469 138.222656 211.039062 137.539062 210.945312 136.867188 L 207.835938 137.621094 C 207.90625 138.105469 207.957031 138.59375 207.957031 139.097656 C 207.957031 144.597656 203.484375 149.066406 197.980469 149.066406 C 194.167969 149.066406 190.847656 146.914062 189.167969 143.765625 C 189.160156 143.773438 189.152344 143.78125 189.144531 143.789062 C 188.921875 143.824219 188.757812 143.785156 188.640625 143.714844 C 188.542969 143.652344 188.480469 143.570312 188.449219 143.476562 C 188.378906 143.300781 188.320312 143.132812 188.273438 142.960938 C 188.179688 142.628906 188.109375 142.292969 188.074219 141.96875 C 187.992188 141.308594 187.996094 140.664062 188 140.019531 C 188.003906 139.796875 188.007812 139.574219 188.015625 139.347656 C 188.011719 139.261719 188.003906 139.183594 188.003906 139.097656 C 188.003906 138.683594 188.039062 138.273438 188.085938 137.875 C 188.128906 137.320312 188.1875 136.773438 188.292969 136.230469 C 188.34375 135.925781 188.40625 135.621094 188.46875 135.316406 C 187.050781 134.59375 185.214844 134.800781 183.976562 135.078125 C 184.035156 135.507812 184.078125 135.949219 184.078125 136.394531 C 184.078125 141.890625 179.601562 146.363281 174.101562 146.363281 C 168.597656 146.363281 164.121094 141.890625 164.121094 136.394531 C 164.121094 135.230469 164.332031 134.117188 164.703125 133.078125 L 161.234375 131.515625 C 160.875 132.460938 160.542969 133.230469 160.320312 133.734375 C 160.191406 132.257812 159.730469 130.804688 158.8125 129.277344 C 158.8125 129.277344 156.394531 127.859375 154.183594 128.042969 Z M 181.433594 145.445312 C 181.726562 145.75 182.085938 145.972656 182.433594 146.210938 C 183.140625 146.679688 183.972656 147.023438 184.816406 147.097656 C 185.667969 147.21875 186.472656 146.964844 187.226562 146.738281 C 187.589844 146.589844 187.964844 146.464844 188.304688 146.277344 C 188.472656 146.175781 188.632812 146.058594 188.789062 145.941406 L 189.019531 145.753906 C 189.101562 145.703125 189.148438 145.570312 189.066406 145.144531 C 188.8125 144.777344 188.691406 144.710938 188.601562 144.722656 L 188.328125 144.730469 C 188.148438 144.742188 187.96875 144.753906 187.800781 144.777344 C 187.453125 144.808594 187.128906 144.867188 186.800781 144.921875 C 186.144531 144.96875 185.511719 144.964844 184.917969 144.984375 C 184.324219 144.992188 183.710938 145.023438 183.128906 144.839844 C 182.839844 144.75 182.582031 144.585938 182.339844 144.410156 C 182.214844 144.324219 182.082031 144.238281 181.953125 144.15625 C 181.886719 144.113281 181.808594 144.074219 181.746094 144.03125 C 181.675781 143.984375 181.558594 143.996094 181.183594 144.109375 C 180.898438 144.378906 180.878906 144.539062 180.917969 144.636719 C 180.960938 144.738281 181.003906 144.839844 181.050781 144.933594 C 181.15625 145.121094 181.28125 145.296875 181.433594 145.445312 Z M 192.101562 128.148438 L 192.441406 128.136719 C 192.660156 128.105469 192.886719 128.117188 193.101562 128.085938 C 193.53125 128.019531 193.976562 127.992188 194.414062 127.992188 C 195.308594 128.050781 196.183594 128.226562 197.058594 128.355469 C 197.933594 128.523438 198.828125 128.5625 199.730469 128.6875 C 200.179688 128.746094 200.625 128.835938 201.082031 128.890625 C 201.308594 128.917969 201.539062 128.933594 201.773438 128.949219 L 202.125 128.96875 C 202.242188 128.988281 202.375 128.933594 202.636719 128.5625 C 202.679688 128.109375 202.59375 127.976562 202.484375 127.917969 L 202.171875 127.71875 C 201.957031 127.59375 201.742188 127.472656 201.519531 127.375 C 201.078125 127.164062 200.613281 127.019531 200.152344 126.867188 C 199.222656 126.578125 198.273438 126.292969 197.285156 126.253906 C 196.296875 126.191406 195.296875 126.304688 194.316406 126.460938 C 193.824219 126.566406 193.332031 126.59375 192.847656 126.730469 C 192.605469 126.796875 192.367188 126.863281 192.136719 126.984375 L 191.800781 127.167969 C 191.691406 127.230469 191.597656 127.359375 191.613281 127.753906 C 191.855469 128.085938 191.988281 128.152344 192.101562 128.148438 Z M 179.816406 151.699219 C 179.265625 151.5625 178.742188 151.332031 178.207031 151.148438 C 177.679688 150.9375 177.164062 150.691406 176.644531 150.46875 L 176.613281 150.457031 C 176.519531 150.417969 176.425781 150.390625 176.324219 150.382812 C 175.796875 150.339844 175.339844 150.726562 175.292969 151.25 C 175.246094 151.832031 175.269531 152.269531 175.332031 152.769531 C 175.398438 153.253906 175.507812 153.734375 175.667969 154.203125 C 175.976562 155.148438 176.535156 156.03125 177.261719 156.730469 C 177.984375 157.4375 178.859375 157.941406 179.753906 158.285156 C 180.660156 158.617188 181.570312 158.789062 182.492188 158.875 C 184.332031 159.066406 186.339844 158.671875 187.890625 157.566406 C 188.675781 157.035156 189.308594 156.320312 189.808594 155.554688 C 190.054688 155.167969 190.265625 154.757812 190.433594 154.339844 C 190.601562 153.925781 190.792969 153.484375 190.433594 152.914062 C 189.828125 153.160156 189.679688 153.5 189.46875 153.851562 C 189.253906 154.191406 189.023438 154.515625 188.777344 154.820312 C 188.289062 155.441406 187.722656 155.976562 187.09375 156.394531 C 185.828125 157.25 184.238281 157.445312 182.71875 157.144531 C 181.175781 156.851562 179.734375 156.21875 178.769531 155.21875 C 178.285156 154.714844 177.910156 154.128906 177.625 153.476562 C 177.539062 153.261719 177.464844 153.039062 177.402344 152.8125 C 177.457031 152.832031 177.511719 152.855469 177.566406 152.875 C 178.15625 153.054688 178.730469 153.277344 179.332031 153.414062 C 180.519531 153.753906 181.75 153.925781 182.972656 154.035156 C 184.203125 154.128906 185.441406 154.089844 186.660156 153.929688 C 187.269531 153.851562 187.875 153.722656 188.472656 153.578125 C 189.066406 153.4375 189.675781 153.210938 190.074219 152.558594 C 189.363281 152.316406 188.820312 152.371094 188.253906 152.472656 C 187.6875 152.542969 187.117188 152.597656 186.546875 152.609375 C 185.40625 152.644531 184.265625 152.585938 183.140625 152.441406 C 182.578125 152.339844 182.015625 152.273438 181.464844 152.125 L 180.632812 151.941406 Z M 170.765625 126.21875 L 171.085938 126.113281 C 171.28125 126.019531 171.511719 126 171.710938 125.921875 C 171.910156 125.847656 172.109375 125.769531 172.328125 125.742188 C 172.542969 125.703125 172.746094 125.644531 172.972656 125.640625 C 173.851562 125.589844 174.730469 125.78125 175.601562 125.921875 C 176.472656 126.101562 177.378906 126.214844 178.28125 126.429688 C 178.734375 126.53125 179.179688 126.667969 179.636719 126.777344 C 179.871094 126.828125 180.101562 126.878906 180.339844 126.921875 L 180.695312 126.988281 C 180.808594 127.023438 180.953125 126.984375 181.261719 126.652344 C 181.359375 126.207031 181.285156 126.066406 181.179688 125.988281 L 180.878906 125.746094 C 180.671875 125.597656 180.460938 125.441406 180.242188 125.316406 C 179.804688 125.054688 179.335938 124.851562 178.863281 124.65625 C 177.925781 124.269531 176.941406 123.894531 175.886719 123.828125 C 174.835938 123.738281 173.753906 123.839844 172.714844 124.125 C 172.453125 124.179688 172.199219 124.285156 171.9375 124.355469 C 171.679688 124.417969 171.429688 124.519531 171.1875 124.644531 C 170.945312 124.773438 170.699219 124.878906 170.5 125.078125 L 170.203125 125.359375 C 170.105469 125.457031 170.046875 125.609375 170.175781 125.984375 C 170.511719 126.226562 170.65625 126.253906 170.765625 126.21875 Z M 153.128906 185.144531 L 153.648438 184.90625 C 153.992188 184.742188 154.335938 184.574219 154.671875 184.394531 C 155.316406 183.988281 155.941406 183.546875 156.5625 183.09375 C 157.75 182.125 158.972656 181.136719 159.851562 179.820312 C 160.769531 178.554688 161.460938 177.109375 161.90625 175.601562 C 162.125 174.847656 162.339844 174.09375 162.433594 173.308594 C 162.496094 172.921875 162.492188 172.519531 162.46875 172.125 C 162.449219 171.921875 162.433594 171.726562 162.394531 171.527344 C 162.359375 171.332031 162.246094 171.121094 161.839844 170.992188 C 161.484375 171.226562 161.390625 171.382812 161.367188 171.558594 C 161.351562 171.726562 161.304688 171.902344 161.28125 172.070312 C 161.214844 172.410156 161.152344 172.75 161.074219 173.089844 C 160.949219 173.765625 160.730469 174.429688 160.460938 175.070312 C 159.882812 176.339844 159.039062 177.460938 158.167969 178.539062 L 157.503906 179.34375 C 157.265625 179.601562 157.03125 179.859375 156.804688 180.128906 C 156.367188 180.679688 155.832031 181.152344 155.347656 181.671875 C 154.820312 182.15625 154.269531 182.609375 153.746094 183.113281 C 153.46875 183.34375 153.199219 183.585938 152.925781 183.832031 L 152.527344 184.210938 C 152.386719 184.332031 152.289062 184.515625 152.367188 184.988281 C 152.753906 185.257812 152.960938 185.230469 153.128906 185.144531 Z M 202.3125 167.351562 L 202.285156 166.652344 C 202.289062 166.425781 202.210938 166.183594 201.800781 165.898438 C 201.34375 166.078125 201.226562 166.300781 201.183594 166.53125 L 201.023438 167.222656 C 200.921875 167.683594 200.824219 168.144531 200.746094 168.609375 C 200.554688 169.535156 200.542969 170.488281 200.445312 171.429688 C 200.296875 173.3125 200.257812 175.238281 200.539062 177.148438 C 200.851562 179.054688 201.386719 180.964844 202.359375 182.707031 C 202.628906 183.136719 202.832031 183.585938 203.164062 183.976562 C 203.316406 184.179688 203.464844 184.382812 203.621094 184.582031 L 204.164062 185.128906 C 204.546875 185.472656 204.980469 185.777344 205.460938 185.992188 C 205.6875 186.113281 205.957031 186.171875 206.203125 186.253906 C 206.457031 186.3125 206.773438 186.300781 207.054688 185.941406 C 206.960938 185.742188 206.890625 185.589844 206.808594 185.5 C 206.730469 185.390625 206.648438 185.332031 206.554688 185.292969 C 206.382812 185.175781 206.203125 185.09375 206.042969 184.953125 C 205.710938 184.71875 205.410156 184.433594 205.125 184.140625 C 204.53125 183.5625 204.101562 182.804688 203.738281 182.027344 C 203.066406 180.425781 202.851562 178.640625 202.636719 176.882812 C 202.59375 175.988281 202.460938 175.109375 202.433594 174.199219 C 202.390625 173.296875 202.285156 172.394531 202.3125 171.480469 C 202.324219 170.570312 202.28125 169.65625 202.316406 168.734375 C 202.328125 168.277344 202.320312 167.816406 202.3125 167.351562 Z M 150.453125 187.652344 C 151.03125 189.410156 151.742188 191.128906 152.546875 192.796875 C 154.171875 196.128906 156.191406 199.308594 158.722656 202.078125 C 159.980469 203.46875 161.359375 204.765625 162.894531 205.875 C 164.421875 206.984375 166.058594 207.984375 167.832031 208.699219 C 169.589844 209.417969 171.433594 209.976562 173.328125 210.238281 C 174.265625 210.425781 175.21875 210.449219 176.167969 210.527344 C 176.644531 210.566406 177.121094 210.53125 177.59375 210.535156 C 178.066406 210.519531 178.546875 210.550781 179.015625 210.5 C 180.917969 210.34375 182.769531 210.078125 184.601562 209.652344 C 186.441406 209.269531 188.242188 208.691406 189.996094 208.019531 C 191.746094 207.320312 193.445312 206.488281 195.070312 205.535156 C 196.683594 204.554688 198.21875 203.457031 199.660156 202.242188 C 202.515625 199.792969 204.957031 196.871094 206.847656 193.644531 C 207.804688 192.039062 208.601562 190.347656 209.28125 188.613281 C 209.613281 187.746094 209.917969 186.863281 210.1875 185.972656 C 210.460938 185.089844 210.636719 184.148438 210.398438 183.160156 C 209.78125 183.957031 209.4375 184.773438 209.136719 185.625 C 208.820312 186.46875 208.480469 187.300781 208.105469 188.117188 C 207.351562 189.75 206.464844 191.316406 205.507812 192.828125 C 203.566406 195.832031 201.210938 198.558594 198.457031 200.808594 C 192.960938 205.359375 185.917969 207.738281 178.871094 208.390625 C 178.433594 208.449219 177.992188 208.429688 177.554688 208.453125 C 177.113281 208.457031 176.671875 208.5 176.234375 208.476562 C 175.359375 208.417969 174.476562 208.421875 173.613281 208.265625 C 171.867188 208.066406 170.171875 207.585938 168.535156 206.964844 C 166.886719 206.359375 165.347656 205.480469 163.886719 204.488281 C 162.421875 203.5 161.082031 202.316406 159.851562 201.03125 C 157.375 198.453125 155.40625 195.398438 153.773438 192.191406 C 152.957031 190.585938 152.230469 188.929688 151.554688 187.253906 C 151.214844 186.414062 150.910156 185.5625 150.621094 184.703125 C 150.332031 183.84375 149.996094 183.007812 149.421875 182.203125 C 149.246094 183.183594 149.394531 184.113281 149.640625 185.003906 C 149.890625 185.890625 150.152344 186.777344 150.453125 187.652344 Z M 169.78125 165.582031 C 169.242188 165.042969 168.71875 164.492188 168.191406 163.941406 L 167.402344 163.105469 C 167.140625 162.824219 166.835938 162.589844 166.296875 162.5 C 166.210938 163.042969 166.375 163.417969 166.597656 163.742188 C 166.820312 164.066406 167.046875 164.390625 167.28125 164.707031 C 167.75 165.339844 168.261719 165.941406 168.792969 166.527344 C 169.863281 167.683594 171.011719 168.773438 172.242188 169.789062 C 173.460938 170.820312 174.777344 171.753906 176.226562 172.519531 C 176.953125 172.894531 177.714844 173.21875 178.507812 173.492188 C 179.308594 173.734375 180.132812 173.925781 180.984375 174.015625 C 181.820312 174.089844 182.738281 174.082031 183.511719 173.964844 C 183.910156 173.910156 184.316406 173.882812 184.710938 173.808594 L 185.898438 173.574219 C 187.464844 173.214844 188.996094 172.753906 190.484375 172.183594 C 191.964844 171.605469 193.414062 170.957031 194.792969 170.175781 C 195.488281 169.800781 196.15625 169.375 196.8125 168.9375 C 197.136719 168.710938 197.460938 168.484375 197.78125 168.246094 C 198.101562 168.023438 198.386719 167.71875 198.457031 167.140625 C 197.890625 167 197.527344 167.121094 197.191406 167.308594 C 196.855469 167.484375 196.507812 167.648438 196.164062 167.816406 C 195.476562 168.144531 194.785156 168.464844 194.089844 168.773438 C 192.695312 169.382812 191.292969 169.953125 189.855469 170.425781 C 188.421875 170.890625 186.957031 171.253906 185.488281 171.519531 C 184.75 171.632812 184.015625 171.757812 183.277344 171.824219 C 182.515625 171.9375 181.875 171.945312 181.167969 171.910156 C 178.375 171.707031 175.617188 170.34375 173.191406 168.582031 C 171.980469 167.6875 170.859375 166.65625 169.78125 165.582031 Z M 93.871094 236.015625 C 94.09375 236.359375 94.308594 236.707031 94.542969 237.039062 C 95 237.710938 95.453125 238.386719 95.855469 239.097656 C 96.640625 240.523438 97.324219 242.003906 97.996094 243.476562 C 98.636719 244.960938 99.394531 246.394531 100 247.902344 C 100.332031 248.644531 100.582031 249.414062 100.898438 250.171875 L 101.359375 251.308594 L 101.601562 251.878906 C 101.671875 252.074219 101.816406 252.246094 102.296875 252.347656 C 102.667969 252.050781 102.710938 251.824219 102.679688 251.613281 L 102.613281 250.980469 C 102.554688 250.5625 102.511719 250.136719 102.414062 249.722656 C 102.234375 248.898438 102.023438 248.074219 101.761719 247.269531 C 101.273438 245.648438 100.695312 244.039062 99.894531 242.542969 C 99.117188 241.03125 98.144531 239.632812 97.148438 238.265625 C 96.660156 237.578125 96.164062 236.890625 95.652344 236.222656 C 95.382812 235.894531 95.105469 235.574219 94.804688 235.273438 C 94.652344 235.125 94.496094 234.976562 94.339844 234.835938 C 94.183594 234.6875 93.964844 234.589844 93.539062 234.695312 C 93.390625 235.105469 93.445312 235.320312 93.554688 235.492188 Z M 101.363281 268.902344 C 101.929688 269.101562 102.511719 269.273438 103.085938 269.453125 L 103.957031 269.703125 C 104.246094 269.796875 104.558594 269.820312 105.003906 269.527344 C 104.886719 269.011719 104.644531 268.808594 104.375 268.675781 L 103.574219 268.253906 C 103.035156 267.976562 102.5 267.703125 101.953125 267.449219 C 100.867188 266.925781 99.765625 266.449219 98.667969 265.957031 C 96.464844 264.992188 94.277344 263.980469 92.023438 263.140625 C 89.78125 262.273438 87.5 261.507812 85.230469 260.703125 C 84.101562 260.289062 82.980469 259.855469 81.855469 259.425781 C 81.296875 259.210938 80.726562 259.019531 80.152344 258.835938 L 79.28125 258.574219 C 78.992188 258.488281 78.675781 258.46875 78.253906 258.710938 C 78.386719 259.183594 78.628906 259.386719 78.898438 259.523438 L 79.703125 259.9375 C 80.242188 260.207031 80.785156 260.464844 81.339844 260.703125 C 82.445312 261.175781 83.554688 261.636719 84.652344 262.128906 C 86.84375 263.125 89.015625 264.160156 91.230469 265.097656 C 93.4375 266.0625 95.707031 266.855469 97.964844 267.691406 C 99.09375 268.101562 100.21875 268.527344 101.363281 268.902344 Z M 252.714844 251.101562 L 253.445312 250.34375 C 253.933594 249.839844 254.40625 249.324219 254.832031 248.769531 C 255.273438 248.226562 255.722656 247.6875 256.148438 247.132812 L 257.367188 245.421875 C 258.96875 243.128906 260.492188 240.765625 261.71875 238.25 C 262.980469 235.75 264.039062 233.160156 265 230.542969 C 265.488281 229.238281 265.984375 227.9375 266.429688 226.617188 C 266.644531 225.953125 266.859375 225.289062 267.027344 224.613281 C 267.113281 224.273438 267.191406 223.933594 267.265625 223.59375 C 267.347656 223.25 267.351562 222.882812 267.078125 222.445312 C 266.609375 222.671875 266.421875 222.96875 266.289062 223.289062 L 265.894531 224.238281 L 264.386719 228.066406 L 263.578125 229.957031 C 262.441406 232.457031 261.140625 234.871094 259.84375 237.273438 C 258.535156 239.667969 257.25 242.078125 255.804688 244.394531 L 254.714844 246.128906 C 254.324219 246.6875 253.953125 247.261719 253.578125 247.832031 L 253.015625 248.695312 L 252.433594 249.539062 L 251.859375 250.394531 C 251.65625 250.675781 251.515625 251.003906 251.632812 251.554688 C 252.183594 251.570312 252.476562 251.359375 252.714844 251.101562 Z M 277.652344 259.242188 L 276.636719 259.28125 C 275.96875 259.339844 275.304688 259.425781 274.640625 259.523438 C 273.972656 259.609375 273.324219 259.753906 272.667969 259.894531 C 272.011719 260.023438 271.363281 260.183594 270.71875 260.351562 C 268.132812 261 265.578125 261.75 263.109375 262.722656 C 260.632812 263.671875 258.226562 264.789062 255.835938 265.917969 L 252.234375 267.566406 C 251.632812 267.847656 251.050781 268.15625 250.464844 268.46875 L 249.601562 268.960938 C 249.316406 269.128906 249.054688 269.355469 248.925781 269.84375 C 249.390625 270.050781 249.726562 270 250.039062 269.886719 L 250.964844 269.550781 C 251.578125 269.320312 252.1875 269.078125 252.792969 268.824219 C 254 268.3125 255.210938 267.804688 256.433594 267.332031 C 258.890625 266.40625 261.375 265.570312 263.839844 264.710938 C 266.3125 263.871094 268.742188 262.917969 271.226562 262.152344 C 271.847656 261.945312 272.46875 261.753906 273.09375 261.585938 C 273.71875 261.429688 274.335938 261.199219 274.964844 261.058594 C 275.59375 260.910156 276.214844 260.71875 276.84375 260.558594 L 277.789062 260.34375 C 278.109375 260.28125 278.414062 260.144531 278.699219 259.664062 C 278.332031 259.273438 277.984375 259.21875 277.652344 259.242188 Z M 264.152344 325.226562 C 264.074219 324.796875 264.027344 324.351562 263.871094 323.9375 C 263.601562 323.097656 263.300781 322.261719 262.863281 321.480469 C 262.492188 320.667969 261.976562 319.929688 261.484375 319.179688 C 260.925781 318.484375 260.347656 317.785156 259.652344 317.214844 C 258.320312 316.015625 256.757812 315.113281 255.148438 314.414062 C 254.34375 314.066406 253.542969 313.722656 252.707031 313.457031 C 252.289062 313.324219 251.867188 313.21875 251.433594 313.148438 C 251.21875 313.105469 250.996094 313.085938 250.777344 313.058594 C 250.5625 313.035156 250.316406 313.085938 250.042969 313.429688 C 250.179688 313.847656 250.347656 313.980469 250.539062 314.058594 C 250.734375 314.136719 250.921875 314.207031 251.109375 314.292969 L 252.246094 314.753906 C 252.625 314.898438 252.996094 315.070312 253.371094 315.226562 L 254.453125 315.78125 C 255.851562 316.613281 257.089844 317.65625 258.210938 318.761719 C 259.320312 319.878906 260.410156 321.035156 261.234375 322.402344 C 261.699219 323.054688 262.007812 323.792969 262.394531 324.503906 C 262.605469 324.851562 262.742188 325.238281 262.914062 325.609375 L 263.175781 326.167969 C 263.253906 326.359375 263.40625 326.527344 263.894531 326.628906 C 264.257812 326.328125 264.292969 326.089844 264.25 325.878906 Z M 213.507812 269.867188 C 212.988281 269.285156 212.4375 268.695312 211.871094 268.109375 C 211.257812 267.515625 210.566406 266.976562 209.789062 266.570312 C 209.011719 266.175781 208.167969 265.914062 207.347656 265.761719 C 206.523438 265.609375 205.722656 265.550781 204.972656 265.449219 C 204.21875 265.351562 203.519531 265.199219 202.894531 264.917969 C 202.257812 264.636719 201.789062 264.207031 201.027344 263.683594 C 199.609375 262.773438 198.082031 262.199219 196.53125 261.773438 C 195.757812 261.5625 194.980469 261.371094 194.199219 261.21875 C 193.417969 261.0625 192.609375 261 191.769531 261.257812 C 192.484375 261.757812 193.214844 262.011719 193.96875 262.210938 C 194.714844 262.410156 195.453125 262.640625 196.183594 262.890625 C 197.628906 263.410156 199.054688 263.996094 200.261719 264.820312 L 201.171875 265.515625 C 201.515625 265.792969 201.910156 266.007812 202.308594 266.199219 C 203.109375 266.578125 203.964844 266.761719 204.769531 266.875 C 206.378906 267.09375 207.835938 267.246094 209.066406 267.925781 C 209.671875 268.269531 210.214844 268.726562 210.710938 269.238281 C 211.21875 269.800781 211.71875 270.382812 212.222656 270.988281 L 215.214844 274.613281 L 221.183594 281.902344 C 225.175781 286.75 229.253906 291.53125 233.328125 296.3125 C 235.367188 298.707031 237.390625 301.109375 239.457031 303.476562 C 240.472656 304.671875 241.527344 305.839844 242.570312 307.015625 L 244.132812 308.78125 C 244.648438 309.375 245.222656 309.917969 246.0625 310.246094 C 245.898438 309.363281 245.476562 308.695312 244.988281 308.078125 L 243.554688 306.203125 C 242.59375 304.960938 241.648438 303.707031 240.664062 302.480469 C 238.722656 300.007812 236.742188 297.570312 234.769531 295.121094 C 230.824219 290.230469 226.875 285.339844 222.804688 280.546875 L 216.648438 273.40625 Z M 233.765625 348.960938 C 230.15625 344.996094 227 340.617188 224.171875 336.042969 C 221.339844 331.46875 218.804688 326.707031 216.511719 321.832031 C 214.234375 316.960938 212.136719 311.957031 210.386719 306.90625 C 210.253906 306.53125 209.90625 306.25 209.484375 306.230469 C 202.410156 305.890625 195.320312 305.464844 188.292969 304.820312 C 187.414062 304.738281 186.542969 304.640625 185.667969 304.546875 C 184.839844 304.445312 184.035156 304.28125 183.234375 304.054688 C 181.632812 303.597656 180.085938 302.875 178.617188 302.023438 C 177.140625 301.164062 175.746094 300.152344 174.421875 299.054688 C 173.101562 297.960938 171.816406 296.746094 170.707031 295.503906 L 170.691406 295.484375 C 170.640625 295.425781 170.585938 295.378906 170.523438 295.332031 C 170.472656 295.296875 170.417969 295.265625 170.363281 295.238281 C 170.222656 294.992188 170.101562 294.921875 169.984375 294.910156 L 169.578125 294.867188 C 169.308594 294.851562 169.039062 294.84375 168.769531 294.859375 C 168.238281 294.882812 167.707031 294.945312 167.171875 294.949219 C 166.097656 294.957031 165.023438 294.925781 163.957031 295 C 162.886719 295.046875 161.839844 295.273438 160.785156 295.460938 C 160.257812 295.558594 159.730469 295.640625 159.210938 295.773438 C 158.945312 295.835938 158.6875 295.917969 158.425781 296 L 158.039062 296.132812 C 157.910156 296.167969 157.785156 296.277344 157.699219 296.726562 C 157.878906 297.148438 158.019531 297.230469 158.15625 297.234375 L 158.566406 297.285156 C 158.835938 297.3125 159.105469 297.335938 159.375 297.339844 C 159.914062 297.363281 160.445312 297.332031 160.984375 297.316406 C 162.054688 297.28125 163.125 297.28125 164.179688 297.101562 C 165.238281 296.949219 166.285156 296.691406 167.332031 296.476562 C 167.726562 296.398438 168.121094 296.34375 168.511719 296.289062 C 167.484375 297.570312 166.277344 298.710938 164.902344 299.632812 C 163.277344 300.738281 161.453125 301.5625 159.550781 302.160156 C 157.644531 302.753906 155.660156 303.128906 153.648438 303.308594 C 151.652344 303.484375 149.578125 303.507812 147.632812 303.304688 L 147.601562 303.300781 C 147.15625 303.253906 146.734375 303.542969 146.628906 303.992188 C 145.265625 309.746094 143.585938 315.425781 141.441406 320.929688 C 139.3125 326.4375 136.597656 331.714844 133.328125 336.609375 C 130 341.449219 126.050781 345.910156 121.277344 349.335938 C 118.914062 351.066406 116.34375 352.511719 113.640625 353.640625 C 112.28125 354.1875 110.886719 354.632812 109.476562 355.019531 C 108.0625 355.410156 106.644531 355.769531 105.160156 356.054688 C 106.660156 356.324219 108.199219 356.195312 109.6875 355.925781 C 111.171875 355.636719 112.621094 355.171875 114.039062 354.648438 C 116.859375 353.550781 119.546875 352.121094 122.027344 350.386719 C 124.496094 348.640625 126.785156 346.644531 128.855469 344.453125 C 130.933594 342.261719 132.796875 339.886719 134.523438 337.421875 C 137.902344 332.445312 140.667969 327.074219 142.90625 321.515625 C 145.058594 316.195312 146.777344 310.71875 148.195312 305.175781 C 150.09375 305.34375 151.9375 305.335938 153.808594 305.191406 C 155.9375 305.023438 158.0625 304.648438 160.125 304.023438 C 162.1875 303.398438 164.199219 302.515625 166.019531 301.300781 C 167.5 300.332031 168.832031 299.125 169.976562 297.761719 C 172.222656 300.140625 174.714844 302.183594 177.539062 303.859375 C 179.132812 304.785156 180.828125 305.582031 182.644531 306.101562 C 183.542969 306.363281 184.484375 306.554688 185.417969 306.667969 C 186.308594 306.765625 187.199219 306.863281 188.089844 306.945312 C 191.644531 307.296875 195.195312 307.503906 198.746094 307.714844 C 202.078125 307.898438 205.40625 308.058594 208.742188 308.1875 C 210.535156 313.128906 212.59375 317.90625 214.851562 322.621094 C 217.21875 327.527344 219.8125 332.335938 222.753906 336.933594 C 225.703125 341.523438 228.953125 345.953125 232.773438 349.894531 C 234.675781 351.863281 236.714844 353.710938 238.917969 355.359375 C 241.105469 356.996094 243.503906 358.484375 246.21875 359.078125 C 243.976562 357.480469 241.726562 356.101562 239.617188 354.445312 C 237.519531 352.789062 235.574219 350.933594 233.765625 348.960938 Z M 116.375 296.914062 L 127.542969 285.019531 C 131.28125 281.09375 134.949219 277.019531 138.878906 273.417969 L 138.914062 273.386719 L 138.945312 273.351562 C 140.125 272.164062 141.539062 271.03125 142.972656 270.03125 C 144.421875 269.03125 145.933594 268.113281 147.515625 267.328125 C 149.097656 266.546875 150.726562 265.851562 152.410156 265.304688 C 153.257812 265.039062 154.105469 264.789062 154.972656 264.597656 C 155.839844 264.398438 156.695312 264.179688 157.542969 263.644531 C 156.597656 263.324219 155.660156 263.347656 154.757812 263.515625 C 153.851562 263.660156 152.949219 263.863281 152.054688 264.085938 C 150.277344 264.550781 148.523438 265.144531 146.84375 265.917969 C 145.164062 266.6875 143.53125 267.5625 141.996094 268.59375 C 140.449219 269.628906 138.996094 270.71875 137.605469 272.066406 L 137.675781 272 C 136.636719 272.921875 135.582031 273.839844 134.613281 274.800781 C 133.617188 275.746094 132.644531 276.707031 131.683594 277.679688 C 129.746094 279.609375 127.847656 281.5625 125.988281 283.558594 C 122.234375 287.511719 118.621094 291.589844 114.984375 295.648438 L 104.1875 307.914062 C 102.378906 309.945312 100.578125 311.988281 98.792969 314.046875 L 96.15625 317.164062 C 95.292969 318.222656 94.316406 319.175781 93.855469 320.585938 C 95.203125 319.957031 96.03125 318.875 96.976562 317.894531 L 99.769531 314.917969 L 105.261719 308.875 C 108.921875 304.851562 112.644531 300.878906 116.375 296.914062 Z M 211.433594 292.507812 L 211.347656 292.351562 C 211.332031 292.300781 211.226562 292.246094 210.796875 292.195312 C 210.363281 292.234375 210.257812 292.269531 210.238281 292.3125 L 210.140625 292.4375 C 210.078125 292.519531 210.023438 292.601562 209.980469 292.683594 C 209.890625 292.847656 209.84375 293.011719 209.777344 293.167969 C 209.65625 293.488281 209.472656 293.773438 209.449219 294.078125 C 209.390625 294.378906 209.429688 294.710938 209.359375 294.992188 C 209.328125 295.136719 209.242188 295.242188 209.171875 295.347656 C 209.136719 295.390625 209.121094 295.472656 209.089844 295.539062 L 209.058594 295.65625 C 209.042969 295.699219 209.070312 295.804688 209.203125 296.167969 C 209.417969 296.488281 209.523438 296.542969 209.589844 296.535156 C 209.652344 296.527344 209.722656 296.519531 209.789062 296.503906 C 209.921875 296.472656 210.027344 296.410156 210.132812 296.335938 C 210.332031 296.1875 210.480469 295.992188 210.648438 295.828125 C 210.988281 295.488281 211.304688 295.121094 211.472656 294.707031 C 211.667969 294.300781 211.644531 293.855469 211.628906 293.441406 C 211.613281 293.230469 211.613281 293.027344 211.550781 292.820312 C 211.527344 292.714844 211.480469 292.609375 211.433594 292.507812 Z M 211.972656 285.527344 L 212.117188 285.375 C 212.203125 285.269531 212.28125 285.15625 212.324219 285.03125 C 212.429688 284.789062 212.484375 284.535156 212.578125 284.289062 C 212.769531 283.792969 212.976562 283.273438 213.007812 282.738281 C 213.074219 282.203125 212.914062 281.679688 212.761719 281.183594 C 212.675781 280.933594 212.605469 280.683594 212.472656 280.449219 C 212.40625 280.332031 212.328125 280.222656 212.238281 280.113281 L 212.097656 279.953125 C 212.066406 279.898438 211.9375 279.859375 211.511719 279.945312 C 211.125 280.144531 211.039062 280.21875 211.035156 280.277344 L 210.992188 280.457031 C 210.96875 280.574219 210.945312 280.695312 210.933594 280.808594 C 210.90625 281.035156 210.921875 281.25 210.914062 281.46875 C 210.90625 281.90625 210.820312 282.328125 210.886719 282.738281 C 210.925781 283.152344 211.046875 283.578125 211.066406 284.015625 C 211.085938 284.234375 211.03125 284.441406 211 284.648438 C 210.988281 284.757812 210.988281 284.867188 210.992188 284.984375 L 211.015625 285.164062 C 211.023438 285.226562 211.101562 285.3125 211.433594 285.511719 C 211.808594 285.605469 211.925781 285.578125 211.972656 285.527344 Z M 138.929688 297.363281 C 138.734375 297.246094 138.523438 297.140625 138.308594 297.046875 L 137.984375 296.914062 C 137.875 296.867188 137.722656 296.882812 137.398438 297.125 C 137.265625 297.503906 137.304688 297.652344 137.382812 297.746094 L 137.625 298.019531 C 137.789062 298.1875 137.964844 298.355469 138.148438 298.496094 C 138.523438 298.792969 138.914062 299.050781 139.285156 299.351562 C 140.019531 299.949219 140.757812 300.566406 141.578125 301.066406 C 142.382812 301.597656 143.304688 301.929688 144.238281 302.238281 C 144.703125 302.390625 145.1875 302.53125 145.683594 302.609375 C 145.9375 302.636719 146.191406 302.652344 146.445312 302.660156 L 146.84375 302.628906 C 146.972656 302.628906 147.117188 302.550781 147.269531 302.136719 C 147.195312 301.683594 147.113281 301.570312 147.007812 301.53125 L 146.714844 301.394531 C 146.519531 301.289062 146.324219 301.179688 146.132812 301.09375 C 145.746094 300.886719 145.34375 300.730469 144.953125 300.511719 C 144.167969 300.105469 143.425781 299.601562 142.609375 299.21875 C 141.800781 298.816406 140.945312 298.472656 140.121094 298.058594 C 139.707031 297.851562 139.324219 297.597656 138.929688 297.363281 Z M 144.117188 286.074219 C 144.070312 285.644531 143.925781 285.1875 143.867188 284.71875 C 143.835938 284.480469 143.863281 284.25 143.863281 284.015625 C 143.863281 283.898438 143.84375 283.78125 143.820312 283.65625 L 143.765625 283.472656 C 143.746094 283.410156 143.65625 283.335938 143.292969 283.207031 C 142.90625 283.195312 142.792969 283.246094 142.753906 283.300781 L 142.644531 283.476562 C 142.578125 283.59375 142.527344 283.714844 142.496094 283.839844 C 142.433594 284.085938 142.410156 284.339844 142.335938 284.589844 C 142.195312 285.089844 142.019531 285.605469 142 286.148438 C 141.953125 286.695312 142.132812 287.253906 142.363281 287.804688 C 142.476562 288.078125 142.628906 288.375 142.84375 288.621094 C 142.96875 288.746094 143.109375 288.855469 143.25 288.953125 L 143.503906 289.0625 C 143.574219 289.105469 143.714844 289.085938 144.007812 288.773438 C 144.214844 288.378906 144.261719 288.277344 144.246094 288.238281 L 144.230469 288.105469 C 144.226562 288 144.230469 287.910156 144.214844 287.835938 C 144.210938 287.652344 144.164062 287.496094 144.160156 287.296875 C 144.136719 286.914062 144.199219 286.5 144.117188 286.074219 Z M 143.769531 271.117188 C 143.402344 270.996094 143.28125 271.011719 143.226562 271.054688 L 143.070312 271.191406 C 142.980469 271.289062 142.890625 271.390625 142.832031 271.503906 C 142.703125 271.726562 142.617188 271.96875 142.484375 272.191406 C 142.222656 272.644531 141.925781 273.117188 141.800781 273.664062 C 141.648438 274.203125 141.707031 274.796875 141.863281 275.386719 C 141.890625 275.53125 141.953125 275.679688 142.003906 275.824219 C 142.054688 275.96875 142.117188 276.109375 142.21875 276.242188 C 142.3125 276.375 142.398438 276.5 142.53125 276.605469 L 142.730469 276.75 C 142.78125 276.804688 142.914062 276.8125 143.292969 276.605469 C 143.605469 276.296875 143.675781 276.203125 143.664062 276.15625 L 143.675781 275.992188 C 143.667969 275.898438 143.703125 275.785156 143.699219 275.699219 C 143.707031 275.515625 143.703125 275.339844 143.71875 275.15625 C 143.742188 274.792969 143.894531 274.417969 143.890625 274.011719 C 143.917969 273.609375 143.878906 273.148438 143.933594 272.695312 C 143.960938 272.464844 144.042969 272.257812 144.101562 272.039062 C 144.132812 271.929688 144.148438 271.8125 144.152344 271.691406 L 144.148438 271.503906 C 144.148438 271.441406 144.082031 271.347656 143.769531 271.117188 Z M 189.839844 297.214844 C 187.085938 297.078125 184.339844 296.785156 181.621094 296.359375 C 181.792969 296.449219 181.964844 296.539062 182.136719 296.625 C 182.804688 296.984375 183.480469 297.328125 184.1875 297.523438 C 184.894531 297.730469 185.566406 297.769531 186.328125 297.695312 C 187.085938 297.640625 187.859375 297.515625 188.632812 297.410156 C 189.035156 297.351562 189.4375 297.28125 189.839844 297.214844 Z M 176.78125 279.636719 C 174.15625 280.050781 171.523438 280.402344 168.878906 280.558594 L 172.089844 281.132812 C 175.285156 281.65625 178.488281 282.136719 181.667969 282.726562 C 184.855469 283.285156 188.007812 284.027344 191.171875 284.722656 C 192.75 285.074219 194.332031 285.414062 195.902344 285.808594 C 196.691406 285.988281 197.476562 286.199219 198.257812 286.410156 L 198.691406 286.527344 C 199.257812 286.550781 199.816406 286.578125 200.378906 286.601562 C 200.699219 286.617188 200.949219 286.886719 200.933594 287.207031 C 200.925781 287.515625 200.664062 287.761719 200.355469 287.765625 C 200.242188 287.765625 200.132812 287.761719 200.019531 287.761719 C 199.738281 287.855469 199.472656 287.859375 199.214844 287.820312 L 198.679688 287.757812 C 192.878906 287.75 187.082031 287.632812 181.273438 287.449219 C 178.089844 287.332031 174.910156 287.226562 171.695312 286.90625 C 170.128906 286.746094 168.550781 286.585938 167.03125 286.546875 C 166.28125 286.535156 165.515625 286.550781 164.917969 286.683594 C 164.625 286.746094 164.386719 286.847656 164.292969 286.933594 C 164.199219 287.011719 164.148438 287.089844 164.097656 287.328125 C 164.050781 287.550781 164.058594 287.886719 164.085938 288.226562 L 164.09375 288.320312 C 164.09375 288.320312 164.09375 288.320312 164.109375 288.34375 C 164.144531 288.398438 164.210938 288.492188 164.3125 288.59375 C 164.71875 288.996094 165.375 289.398438 166.019531 289.746094 C 167.34375 290.4375 168.789062 291.019531 170.25 291.546875 C 173.179688 292.59375 176.226562 293.402344 179.296875 294.058594 C 185.433594 295.347656 191.75 296.117188 198.003906 295.691406 L 198.015625 295.6875 C 198.414062 295.660156 198.757812 295.960938 198.785156 296.359375 C 198.808594 296.722656 198.554688 297.046875 198.207031 297.113281 C 195.089844 297.734375 191.976562 298.308594 188.804688 298.707031 C 188.011719 298.808594 187.214844 298.878906 186.394531 298.90625 C 185.582031 298.953125 184.652344 298.859375 183.855469 298.570312 C 182.46875 298.066406 181.167969 297.328125 180.324219 296.148438 C 179.855469 296.066406 179.390625 295.992188 178.921875 295.90625 C 175.769531 295.296875 172.640625 294.53125 169.570312 293.503906 C 168.03125 292.980469 166.507812 292.40625 165.019531 291.617188 C 164.320312 291.234375 163.625 290.84375 162.9375 290.210938 L 162.898438 290.226562 C 162.714844 290.285156 162.53125 290.339844 162.351562 290.378906 C 161.988281 290.460938 161.625 290.492188 161.261719 290.542969 C 160.53125 290.632812 159.804688 290.757812 159.074219 290.707031 C 158.339844 290.683594 157.609375 290.539062 156.878906 290.457031 C 156.511719 290.410156 156.148438 290.417969 155.78125 290.398438 C 155.601562 290.386719 155.417969 290.355469 155.234375 290.3125 L 154.957031 290.234375 C 154.867188 290.210938 154.773438 290.109375 154.675781 289.730469 C 154.761719 289.34375 154.847656 289.242188 154.9375 289.210938 L 155.210938 289.125 C 155.390625 289.074219 155.574219 289.039062 155.757812 289.019531 C 156.121094 288.984375 156.484375 288.980469 156.851562 288.921875 C 157.578125 288.8125 158.304688 288.636719 159.03125 288.59375 C 159.761719 288.511719 160.496094 288.613281 161.222656 288.675781 C 161.488281 288.699219 161.75 288.722656 162.011719 288.757812 C 161.996094 288.699219 161.980469 288.644531 161.976562 288.585938 L 161.957031 288.40625 C 161.925781 287.957031 161.894531 287.492188 161.996094 286.933594 C 162.082031 286.398438 162.394531 285.707031 162.925781 285.289062 C 163.445312 284.859375 163.988281 284.707031 164.464844 284.59375 C 165.421875 284.402344 166.261719 284.425781 167.09375 284.449219 C 168.75 284.519531 170.335938 284.710938 171.925781 284.902344 C 175.03125 285.253906 178.199219 285.484375 181.359375 285.679688 C 183.503906 285.816406 185.652344 285.929688 187.804688 286.035156 C 185.613281 285.660156 183.429688 285.273438 181.261719 284.800781 C 178.09375 284.136719 174.945312 283.371094 171.792969 282.640625 L 167.046875 281.621094 C 166.253906 281.449219 165.464844 281.269531 164.683594 281.066406 L 163.519531 280.753906 C 162.25 280.769531 160.980469 280.769531 159.714844 280.769531 L 155.441406 280.8125 C 154.730469 280.808594 154.019531 280.796875 153.308594 280.761719 L 152.242188 280.691406 C 151.886719 280.664062 151.527344 280.570312 151.171875 280.183594 C 151.527344 279.800781 151.878906 279.699219 152.234375 279.667969 L 153.292969 279.570312 C 154 279.507812 154.707031 279.480469 155.414062 279.441406 C 156.828125 279.378906 158.246094 279.328125 159.65625 279.234375 C 162.480469 279.027344 165.296875 278.734375 168.109375 278.492188 C 170.921875 278.230469 173.738281 278.082031 176.535156 277.789062 C 177.859375 277.664062 179.171875 277.476562 180.488281 277.316406 C 179.601562 277.097656 178.722656 276.855469 177.847656 276.578125 C 177.472656 276.453125 177.09375 276.351562 176.722656 276.210938 L 175.617188 275.761719 C 174.867188 275.496094 174.179688 275.042969 173.472656 274.671875 C 173.132812 274.441406 172.796875 274.203125 172.472656 273.957031 C 172.148438 273.710938 171.855469 273.390625 171.558594 273.109375 C 171.414062 272.957031 171.292969 272.773438 171.160156 272.609375 C 171.027344 272.445312 170.90625 272.269531 170.808594 272.066406 C 170.585938 271.722656 170.457031 271.179688 170.835938 270.722656 C 171.09375 270.878906 171.242188 270.980469 171.398438 271.097656 C 171.527344 271.214844 171.644531 271.332031 171.742188 271.464844 C 171.832031 271.597656 171.949219 271.722656 172.082031 271.835938 C 172.210938 271.949219 172.320312 272.074219 172.457031 272.179688 C 172.753906 272.375 173.007812 272.605469 173.316406 272.78125 C 173.636719 272.949219 173.9375 273.132812 174.246094 273.308594 C 174.921875 273.589844 175.554688 273.917969 176.265625 274.136719 L 177.304688 274.5 C 177.65625 274.613281 178.019531 274.691406 178.378906 274.789062 C 181.25 275.550781 184.242188 275.910156 187.234375 276.261719 L 189.488281 276.527344 L 191.75 276.722656 L 194.023438 276.925781 L 196.300781 277.042969 C 197.820312 277.097656 199.34375 277.160156 200.867188 277.136719 C 201.628906 277.136719 202.390625 277.140625 203.152344 277.175781 L 204.300781 277.230469 C 204.683594 277.25 205.066406 277.34375 205.460938 277.71875 C 205.09375 278.113281 204.714844 278.21875 204.332031 278.257812 L 203.183594 278.363281 C 202.417969 278.429688 201.652344 278.46875 200.882812 278.503906 C 199.351562 278.589844 197.8125 278.546875 196.273438 278.578125 L 193.964844 278.628906 L 191.652344 278.59375 L 189.335938 278.542969 L 187.019531 278.363281 C 185.957031 278.285156 184.894531 278.160156 183.839844 277.992188 L 183.09375 278.257812 C 182.402344 278.457031 181.707031 278.65625 181.007812 278.828125 C 179.609375 279.15625 178.195312 279.421875 176.78125 279.636719 Z M 161.082031 253.34375 C 161.082031 254.066406 161.9375 254.65625 162.992188 254.65625 C 164.046875 254.65625 164.902344 254.066406 164.902344 253.34375 C 164.902344 252.617188 164.046875 252.03125 162.992188 252.03125 C 161.9375 252.03125 161.082031 252.617188 161.082031 253.34375 Z M 189.125 254.226562 C 189.300781 252.9375 188.179688 252.320312 187.796875 252.152344 C 185.796875 252.042969 167.195312 251.035156 162.976562 250.808594 C 161.769531 250.742188 160.859375 250.984375 160.34375 251.492188 C 159.785156 252.046875 159.796875 252.792969 159.796875 252.804688 C 159.824219 253.386719 159.371094 253.886719 158.785156 253.914062 C 158.167969 253.925781 157.699219 253.488281 157.675781 252.902344 C 157.664062 252.734375 157.628906 251.195312 158.84375 249.988281 C 159.8125 249.027344 161.238281 248.597656 163.089844 248.691406 C 167.546875 248.929688 188.085938 250.042969 188.085938 250.042969 C 188.1875 250.046875 188.289062 250.070312 188.382812 250.105469 C 189.519531 250.503906 191.574219 251.941406 191.230469 254.503906 C 191.160156 255.035156 190.703125 255.425781 190.179688 255.425781 C 190.132812 255.425781 190.085938 255.421875 190.039062 255.414062 C 189.457031 255.335938 189.050781 254.804688 189.125 254.226562 "/>
<path style=" stroke:none;fill-rule:nonzero;fill:rgb(15.289307%,24.708557%,48.629761%);fill-opacity:1;" d="M 161.558594 240.339844 C 161.203125 240.144531 160.828125 240.089844 160.472656 240.039062 C 160.203125 240.011719 159.929688 239.992188 159.667969 239.957031 C 159.144531 239.886719 158.640625 239.78125 158.234375 239.59375 C 157.828125 239.40625 157.554688 239.15625 157.382812 238.789062 C 157.210938 238.421875 157.15625 237.933594 157.171875 237.429688 C 157.171875 236.921875 157.257812 236.402344 157.347656 235.855469 C 157.539062 234.710938 157.734375 233.421875 157.15625 232.113281 C 156.859375 231.476562 156.367188 230.964844 155.878906 230.589844 C 155.390625 230.207031 154.894531 229.910156 154.40625 229.617188 L 153.683594 229.179688 C 153.472656 229.027344 153.257812 228.910156 153.070312 228.730469 C 152.679688 228.414062 152.355469 228.015625 152.089844 227.574219 C 151.566406 226.671875 151.28125 225.683594 150.800781 224.574219 C 149.914062 226.917969 151.742188 229.558594 153.746094 230.644531 C 154.675781 231.285156 155.617188 231.863281 155.929688 232.664062 C 156.269531 233.464844 156.160156 234.550781 155.976562 235.609375 C 155.878906 236.175781 155.777344 236.78125 155.773438 237.402344 C 155.757812 238.023438 155.804688 238.695312 156.105469 239.367188 C 156.398438 240.046875 157.019531 240.59375 157.640625 240.871094 C 158.265625 241.15625 158.886719 241.269531 159.484375 241.355469 C 159.78125 241.398438 160.074219 241.421875 160.371094 241.445312 C 160.574219 241.484375 160.765625 241.503906 160.910156 241.589844 C 161.199219 241.726562 161.410156 242.015625 161.542969 242.457031 C 161.679688 242.890625 161.722656 243.410156 161.742188 243.9375 C 161.761719 244.480469 161.628906 244.984375 161.972656 245.65625 C 162.621094 245.234375 162.6875 244.621094 162.808594 244.03125 C 162.921875 243.4375 162.964844 242.808594 162.835938 242.136719 C 162.714844 241.488281 162.296875 240.710938 161.558594 240.339844 Z M 205.261719 226.441406 C 204.652344 226.457031 204.03125 226.554688 203.40625 226.828125 C 202.796875 227.085938 202.125 227.660156 201.925781 228.464844 C 201.808594 228.855469 201.839844 229.234375 201.867188 229.585938 C 201.902344 229.859375 201.941406 230.128906 201.960938 230.390625 C 202.007812 230.914062 202.011719 231.429688 201.921875 231.867188 C 201.824219 232.304688 201.640625 232.628906 201.320312 232.871094 C 200.996094 233.121094 200.53125 233.277344 200.035156 233.375 C 199.539062 233.484375 199.015625 233.511719 198.460938 233.542969 C 197.300781 233.613281 196 233.699219 194.847656 234.546875 C 194.289062 234.972656 193.898438 235.566406 193.636719 236.121094 C 193.367188 236.6875 193.183594 237.234375 193.007812 237.773438 L 192.738281 238.570312 C 192.632812 238.8125 192.566406 239.046875 192.433594 239.265625 C 192.207031 239.71875 191.890625 240.125 191.515625 240.476562 C 190.75 241.179688 189.84375 241.675781 188.867188 242.386719 C 191.347656 242.738281 193.527344 240.382812 194.15625 238.191406 C 194.578125 237.144531 194.9375 236.105469 195.652344 235.621094 C 196.359375 235.117188 197.445312 234.984375 198.515625 234.9375 C 199.09375 234.90625 199.703125 234.875 200.316406 234.746094 C 200.925781 234.625 201.570312 234.429688 202.164062 233.992188 C 202.761719 233.5625 203.164062 232.835938 203.292969 232.167969 C 203.441406 231.496094 203.417969 230.867188 203.367188 230.265625 C 203.34375 229.964844 203.304688 229.675781 203.265625 229.382812 C 203.257812 229.171875 203.234375 228.980469 203.285156 228.824219 C 203.359375 228.511719 203.59375 228.246094 204 228.019531 C 204.390625 227.789062 204.890625 227.636719 205.402344 227.5 C 205.925781 227.363281 206.445312 227.382812 207.027344 226.902344 C 206.476562 226.363281 205.859375 226.429688 205.261719 226.441406 Z M 178.929688 228.703125 C 179.234375 229.308594 179.359375 230.128906 179.152344 230.835938 C 178.953125 231.542969 178.558594 232.089844 178.152344 232.558594 C 177.746094 233.039062 177.285156 233.4375 176.84375 233.8125 C 176.027344 234.503906 175.25 235.273438 175 236.101562 C 174.726562 236.921875 175.078125 237.96875 175.386719 239.054688 C 176.234375 241.167969 175.949219 244.367188 173.769531 245.605469 C 174.105469 244.441406 174.519531 243.5 174.695312 242.472656 C 174.777344 241.964844 174.777344 241.449219 174.679688 240.957031 C 174.65625 240.703125 174.5625 240.472656 174.496094 240.21875 L 174.222656 239.421875 C 174.035156 238.886719 173.84375 238.339844 173.707031 237.734375 C 173.574219 237.132812 173.519531 236.425781 173.703125 235.746094 C 174.09375 234.371094 175.070312 233.507812 175.949219 232.742188 C 176.367188 232.378906 176.765625 232.035156 177.089844 231.648438 C 177.425781 231.269531 177.695312 230.859375 177.796875 230.46875 C 177.902344 230.078125 177.847656 229.707031 177.65625 229.304688 C 177.464844 228.902344 177.144531 228.5 176.785156 228.109375 C 176.605469 227.914062 176.410156 227.726562 176.21875 227.535156 C 175.980469 227.265625 175.726562 226.988281 175.578125 226.605469 C 175.246094 225.851562 175.421875 224.984375 175.746094 224.410156 C 176.078125 223.8125 176.511719 223.355469 176.976562 222.96875 C 177.445312 222.59375 177.894531 222.167969 178.660156 222.257812 C 178.492188 222.992188 178.070312 223.292969 177.738281 223.722656 C 177.414062 224.140625 177.117188 224.566406 176.945312 224.988281 C 176.765625 225.414062 176.746094 225.769531 176.875 226.0625 C 176.933594 226.21875 177.070312 226.355469 177.203125 226.515625 C 177.410156 226.722656 177.621094 226.929688 177.824219 227.152344 C 178.230469 227.597656 178.632812 228.082031 178.929688 228.703125 "/>
<path style=" stroke:none;fill-rule:nonzero;fill:rgb(96.859741%,60.389709%,56.858826%);fill-opacity:1;" d="M 142.234375 181.769531 C 142.074219 181.785156 141.910156 181.804688 141.75 181.832031 C 141.429688 181.882812 141.117188 181.949219 140.8125 182.050781 C 140.507812 182.140625 140.203125 182.246094 139.902344 182.347656 C 139.75 182.40625 139.59375 182.4375 139.460938 182.535156 C 139.390625 182.585938 139.328125 182.65625 139.273438 182.734375 C 139.246094 182.78125 139.210938 182.804688 139.191406 182.871094 C 139.175781 182.949219 139.179688 183.085938 139.214844 183.324219 C 139.328125 183.535156 139.40625 183.644531 139.464844 183.695312 C 139.523438 183.738281 139.5625 183.738281 139.613281 183.757812 C 139.707031 183.785156 139.796875 183.804688 139.882812 183.804688 C 140.050781 183.800781 140.195312 183.734375 140.347656 183.691406 C 140.652344 183.589844 140.957031 183.496094 141.257812 183.378906 C 141.558594 183.277344 141.851562 183.144531 142.140625 182.992188 C 142.28125 182.917969 142.425781 182.839844 142.5625 182.753906 C 142.707031 182.679688 142.851562 182.613281 142.855469 182.109375 C 142.550781 181.710938 142.394531 181.746094 142.234375 181.769531 Z M 133.167969 185.613281 C 132.871094 185.621094 132.578125 185.664062 132.285156 185.699219 L 131.417969 185.871094 C 130.839844 185.992188 130.261719 186.097656 129.683594 186.230469 L 127.972656 186.671875 C 125.703125 187.320312 123.460938 188.082031 121.316406 189.0625 C 119.160156 190.015625 117.054688 191.074219 115.011719 192.242188 C 113.992188 192.832031 112.976562 193.433594 112.015625 194.113281 C 111.535156 194.457031 111.0625 194.808594 110.613281 195.195312 C 110.167969 195.582031 109.65625 195.894531 109.492188 196.652344 C 110.265625 196.714844 110.703125 196.347656 111.222656 196.078125 C 111.730469 195.804688 112.234375 195.515625 112.734375 195.230469 L 115.710938 193.464844 C 117.714844 192.316406 119.773438 191.273438 121.878906 190.335938 C 123.984375 189.390625 126.132812 188.558594 128.324219 187.839844 L 129.972656 187.316406 C 130.523438 187.160156 131.085938 187.027344 131.640625 186.878906 C 132.757812 186.5625 133.886719 186.425781 134.96875 185.746094 C 134.359375 185.597656 133.765625 185.585938 133.167969 185.613281 Z M 161.429688 98.082031 C 161.238281 98.132812 161.085938 98.246094 160.914062 98.324219 C 160.585938 98.515625 160.261719 98.734375 160 99.007812 C 159.453125 99.539062 159.027344 100.171875 158.691406 100.828125 C 158.007812 102.140625 157.59375 103.542969 157.335938 104.945312 C 157.070312 106.347656 156.980469 107.769531 156.980469 109.171875 C 156.992188 109.878906 157.023438 110.578125 157.074219 111.28125 C 157.113281 111.976562 157.171875 112.6875 157.714844 113.332031 C 158.117188 112.601562 158.101562 111.933594 158.105469 111.25 C 158.117188 110.570312 158.148438 109.890625 158.203125 109.214844 C 158.289062 107.859375 158.464844 106.519531 158.714844 105.210938 C 158.980469 103.90625 159.351562 102.625 159.945312 101.484375 C 160.238281 100.910156 160.597656 100.394531 160.984375 99.90625 C 161.171875 99.65625 161.371094 99.414062 161.582031 99.175781 C 161.785156 98.914062 162.058594 98.800781 162.113281 98.183594 C 161.847656 98.050781 161.625 98.042969 161.429688 98.082031 Z M 188.6875 87.664062 C 186.503906 87.6875 184.332031 87.933594 182.210938 88.40625 C 180.09375 88.890625 178.027344 89.542969 176.003906 90.308594 C 174.992188 90.691406 173.992188 91.105469 173.03125 91.601562 C 172.550781 91.847656 172.082031 92.121094 171.625 92.414062 C 171.179688 92.71875 170.667969 92.929688 170.453125 93.636719 C 171.164062 93.824219 171.601562 93.546875 172.105469 93.371094 C 172.609375 93.195312 173.09375 92.996094 173.585938 92.808594 C 174.5625 92.414062 175.527344 92 176.511719 91.628906 C 178.472656 90.875 180.476562 90.242188 182.519531 89.765625 C 184.566406 89.324219 186.625 88.996094 188.710938 88.886719 C 189.742188 88.890625 190.792969 88.832031 191.820312 88.972656 C 192.875 89.027344 193.847656 89.3125 195.015625 89.09375 C 194.109375 88.402344 193.035156 88.054688 191.949219 87.953125 C 190.871094 87.738281 189.78125 87.734375 188.6875 87.664062 Z M 275.269531 273.878906 C 275.125 273.308594 274.546875 272.96875 273.980469 273.113281 L 247.964844 279.761719 C 251.023438 262.558594 254.445312 241.402344 254.445312 232.945312 C 254.445312 218.398438 259.984375 208.515625 260.039062 208.417969 C 260.328125 207.90625 260.152344 207.261719 259.644531 206.972656 C 259.132812 206.679688 258.484375 206.855469 258.195312 207.367188 C 257.957031 207.785156 252.324219 217.804688 252.324219 232.945312 C 252.324219 247.699219 241.3125 303.910156 241.199219 304.476562 C 241.085938 305.050781 241.460938 305.605469 242.035156 305.71875 C 242.105469 305.734375 242.175781 305.742188 242.242188 305.742188 C 242.738281 305.742188 243.183594 305.390625 243.28125 304.886719 C 243.46875 303.9375 245.371094 294.226562 247.554688 282.054688 L 274.503906 275.167969 C 275.070312 275.023438 275.414062 274.445312 275.269531 273.878906 Z M 119.773438 350.289062 C 119.222656 350.085938 118.613281 350.371094 118.410156 350.921875 C 116.597656 355.90625 109.867188 363.132812 109.796875 363.203125 C 109.398438 363.632812 109.421875 364.304688 109.847656 364.703125 C 110.054688 364.894531 110.316406 364.988281 110.574219 364.988281 C 110.859375 364.988281 111.140625 364.878906 111.347656 364.65625 C 111.636719 364.34375 118.445312 357.039062 120.40625 351.644531 C 120.609375 351.097656 120.324219 350.488281 119.773438 350.289062 Z M 111.148438 299.410156 C 110.949219 298.734375 108.558594 290.5 106.132812 280.25 L 83.292969 275.496094 C 82.71875 275.378906 82.347656 274.816406 82.46875 274.242188 C 82.589844 273.667969 83.152344 273.300781 83.726562 273.421875 L 105.601562 277.972656 C 103.3125 268.015625 101.136719 256.617188 100.917969 248.480469 C 100.449219 231.503906 92.515625 215.929688 92.4375 215.773438 C 92.167969 215.253906 92.371094 214.613281 92.894531 214.347656 C 93.414062 214.078125 94.054688 214.28125 94.324219 214.804688 C 94.660156 215.453125 102.558594 230.964844 103.039062 248.425781 C 103.507812 265.503906 113.089844 298.484375 113.183594 298.816406 C 113.351562 299.378906 113.027344 299.96875 112.464844 300.132812 C 112.367188 300.160156 112.265625 300.171875 112.167969 300.171875 C 111.707031 300.171875 111.28125 299.871094 111.148438 299.410156 "/>
<g clip-path="url(#clip6)" clip-rule="nonzero">
<g clip-path="url(#clip7)" clip-rule="nonzero">
<g clip-path="url(#clip8)" clip-rule="nonzero">
<g clip-path="url(#clip9)" clip-rule="nonzero">
<path style=" stroke:none;fill-rule:nonzero;fill:url(#linear1);" d="M 345 215.65625 L 201.945312 163.355469 L 267.628906 -16.304688 L 410.679688 35.996094 Z M 345 215.65625 "/>
</g>
</g>
</g>
</g>
</g>
</svg>
