<?xml version="1.0" encoding="UTF-8"?>
<svg xmlns="http://www.w3.org/2000/svg" xmlns:xlink="http://www.w3.org/1999/xlink" width="375pt" height="374.999991pt" viewBox="0 0 375 374.999991" version="1.2">
<defs>
<filter id="alpha" filterUnits="objectBoundingBox" x="0%" y="0%" width="100%" height="100%">
  <feColorMatrix type="matrix" in="SourceGraphic" values="0 0 0 0 1 0 0 0 0 1 0 0 0 0 1 0 0 0 1 0"/>
</filter>
<mask id="mask0">
  <g filter="url(#alpha)">
<rect x="0" y="0" width="375" height="374.999991" style="fill:rgb(0%,0%,0%);fill-opacity:0.4;stroke:none;"/>
  </g>
</mask>
<clipPath id="clip2">
  <path d="M 1 1 L 22.71875 1 L 22.71875 16.480469 L 1 16.480469 Z M 1 1 "/>
</clipPath>
<clipPath id="clip1">
  <rect x="0" y="0" width="23" height="17"/>
</clipPath>
<g id="surface5" clip-path="url(#clip1)">
<g clip-path="url(#clip2)" clip-rule="nonzero">
<path style=" stroke:none;fill-rule:nonzero;fill:rgb(97.648621%,100%,92.939758%);fill-opacity:1;" d="M 1.769531 9.769531 C 0.875 13.878906 5.589844 17.074219 10.886719 16.101562 C 16.976562 14.980469 23.746094 9.070312 22.074219 4.789062 C 18.949219 -3.21875 2.4375 4.511719 1.769531 9.769531 Z M 1.769531 9.769531 "/>
</g>
</g>
</defs>
<g id="surface1">
<path style=" stroke:none;fill-rule:nonzero;fill:rgb(97.648621%,100%,92.939758%);fill-opacity:1;" d="M 297.363281 275.113281 C 292.628906 266.867188 295.464844 254.035156 294.445312 244.839844 C 291.894531 221.875 292.125 204.292969 301.710938 182.9375 C 309.800781 164.914062 323.441406 148.453125 339.957031 137.550781 C 348.617188 131.902344 349.570312 134.316406 353.964844 144.027344 C 356.824219 151.269531 361.523438 157.511719 365.539062 164.859375 C 370.460938 175.195312 374.171875 186.011719 374.3125 197.679688 C 374.179688 225.636719 363.105469 252.050781 336.425781 263.6875 C 327.917969 267.597656 324.617188 271.96875 317.585938 278.933594 C 312.261719 284.203125 303.679688 282.78125 299 277.410156 C 298.363281 276.683594 297.820312 275.914062 297.363281 275.113281 Z M 297.363281 275.113281 "/>
<path style=" stroke:none;fill-rule:nonzero;fill:rgb(96.859741%,60.389709%,56.858826%);fill-opacity:1;" d="M 218.105469 203.046875 C 201.652344 193.503906 156.523438 130.035156 142.136719 127.632812 C 127.75 125.234375 67.589844 120.792969 48.964844 119.347656 C 43.203125 118.902344 37.414062 118.792969 31.660156 118.367188 C 8 116.625 10.664062 90.695312 4.816406 96.382812 C 0.65625 100.429688 10.535156 121.648438 12.007812 128.023438 C 13.480469 134.398438 22.683594 130.445312 27.394531 131.542969 C 45.449219 135.738281 102.085938 158.949219 116.96875 157.703125 C 123.542969 157.152344 190.59375 252.511719 212.558594 252.195312 C 234.523438 251.878906 218.105469 203.046875 218.105469 203.046875 Z M 218.105469 203.046875 "/>
<path style=" stroke:none;fill-rule:nonzero;fill:rgb(97.648621%,100%,92.939758%);fill-opacity:1;" d="M 60.53125 117.851562 C 53.519531 118.605469 49.316406 122.855469 50.058594 132.484375 C 50.929688 143.367188 62.691406 149.027344 72.273438 152.945312 C 89.699219 159.476562 99.292969 158.890625 116.71875 166.726562 C 127.0625 171.378906 135.363281 179.125 143.835938 186.457031 C 155.105469 196.210938 165.625 207.019531 177.664062 215.84375 C 187.519531 223.066406 204.28125 234.292969 217.164062 233.070312 C 223.242188 232.496094 227.371094 226.292969 227.371094 220.273438 C 227.371094 208.953125 225.625 205.035156 218.21875 197.199219 C 209.941406 188.929688 202.539062 179.351562 194.695312 170.644531 C 179.882812 154.101562 166.816406 131.898438 144.597656 124.0625 C 136.757812 121.449219 129.351562 120.578125 121.074219 120.578125 C 99.824219 119.144531 88.484375 120.898438 67.398438 118.046875 C 64.902344 117.710938 62.59375 117.628906 60.53125 117.851562 Z M 60.53125 117.851562 "/>
<path style=" stroke:none;fill-rule:nonzero;fill:rgb(96.859741%,60.389709%,56.858826%);fill-opacity:1;" d="M 87.609375 216.789062 C 86.203125 242.070312 86.421875 263.625 83.285156 266.152344 C 75.683594 272.269531 57.984375 268.265625 57.722656 272.269531 C 57.460938 276.273438 92.433594 278.960938 96.785156 275.882812 C 99.941406 273.648438 98.707031 267.367188 100.21875 260.789062 C 102.589844 250.460938 107.089844 235.46875 111.554688 222.640625 C 103.457031 221.105469 95.359375 219.640625 87.609375 216.789062 Z M 87.609375 216.789062 "/>
<path style=" stroke:none;fill-rule:nonzero;fill:rgb(97.648621%,100%,92.939758%);fill-opacity:1;" d="M 263.324219 268.742188 L 242.113281 224.386719 C 242.113281 224.386719 213.898438 223.980469 212.09375 221.09375 C 208.101562 214.703125 154.257812 130.925781 117.609375 142.359375 C 95.625 149.214844 78.960938 203.148438 86.464844 231.300781 C 89.199219 241.574219 102.921875 245.214844 107.675781 241.738281 C 112.429688 238.261719 119.683594 208.105469 122.050781 205.796875 C 127.964844 200.042969 150.097656 272.34375 192.324219 277.0625 C 234.550781 281.78125 263.324219 268.742188 263.324219 268.742188 Z M 263.324219 268.742188 "/>
<path style=" stroke:none;fill-rule:nonzero;fill:rgb(15.689087%,25.099182%,49.409485%);fill-opacity:1;" d="M 232.949219 162.679688 C 232.933594 158.128906 230.75 127.152344 232.035156 125.667969 C 233.316406 124.183594 245.308594 122.308594 246.972656 125.136719 C 248.636719 127.964844 249.273438 164.484375 247.625 166.1875 C 245.980469 167.894531 232.96875 167.230469 232.949219 162.679688 Z M 232.949219 162.679688 "/>
<path style=" stroke:none;fill-rule:nonzero;fill:rgb(96.859741%,60.389709%,56.858826%);fill-opacity:1;" d="M 328.40625 174.042969 C 329.644531 169.003906 333.015625 158.964844 339.71875 154.679688 C 343.796875 152.074219 344.707031 154.691406 353.195312 150.820312 C 361.683594 146.953125 369.15625 109.433594 337.648438 101.914062 C 337.5625 101.894531 337.480469 101.859375 337.398438 101.835938 C 324.984375 97.90625 317.175781 105.609375 311.40625 117.761719 C 307.972656 124.996094 301.449219 124.949219 300.296875 127.464844 C 299.140625 129.980469 303.097656 130.984375 301.917969 135.808594 C 300.734375 140.628906 299.476562 150.386719 302.15625 152.632812 C 303.355469 153.632812 304.539062 154.859375 311.804688 156.277344 C 310.164062 164.660156 299.699219 165.949219 298.867188 168.050781 C 297.757812 170.851562 310.480469 171.414062 316.871094 171.730469 C 323.261719 172.042969 327.871094 176.226562 328.40625 174.042969 Z M 328.40625 174.042969 "/>
<use xlink:href="#surface5" transform="matrix(1,0,0,1,314,134)" mask="url(#mask0)"/>
<path style=" stroke:none;fill-rule:nonzero;fill:rgb(15.689087%,25.099182%,49.409485%);fill-opacity:1;" d="M 313.007812 123.300781 C 312.011719 125.191406 313.296875 126.835938 315.050781 127.578125 C 316.609375 128.234375 319.421875 129.054688 321.09375 128.472656 C 321.328125 128.394531 321.375 128.144531 321.230469 127.960938 C 320.371094 126.875 318.347656 126.859375 317.105469 126.597656 C 316.308594 126.425781 315.535156 126.1875 314.839844 125.753906 C 314.082031 125.28125 314.046875 124.359375 313.957031 123.558594 C 313.910156 123.097656 313.269531 122.8125 313.007812 123.300781 Z M 313.007812 123.300781 "/>
<path style=" stroke:none;fill-rule:nonzero;fill:rgb(15.689087%,25.099182%,49.409485%);fill-opacity:1;" d="M 315.519531 116.375 C 315.230469 117.296875 317.574219 118.0625 319.949219 119.34375 C 321.484375 120.171875 323.617188 123.410156 323.882812 122.664062 C 324.152344 121.917969 325.742188 118.875 322.265625 116.40625 C 318.785156 113.941406 315.996094 114.859375 315.519531 116.375 Z M 315.519531 116.375 "/>
<path style=" stroke:none;fill-rule:nonzero;fill:rgb(15.689087%,25.099182%,49.409485%);fill-opacity:1;" d="M 304.273438 141.140625 C 305.707031 141.738281 308.683594 143.398438 309.917969 141.6875 C 310.042969 141.511719 309.910156 141.261719 309.722656 141.207031 C 308.898438 140.96875 308 141.136719 307.140625 140.925781 C 306.265625 140.707031 305.429688 140.347656 304.550781 140.128906 C 303.875 139.960938 303.664062 140.886719 304.273438 141.140625 Z M 304.273438 141.140625 "/>
<path style=" stroke:none;fill-rule:nonzero;fill:rgb(97.648621%,100%,92.939758%);fill-opacity:1;" d="M 343.421875 143.636719 C 344.152344 143.234375 345.144531 142.878906 345.992188 143.039062 C 347.359375 143.296875 346.089844 145.394531 345.492188 145.847656 C 344.640625 146.492188 343.535156 146.820312 342.527344 147.121094 C 341.660156 147.382812 340.46875 147.558594 339.726562 148.082031 C 339.554688 148.203125 339.546875 148.511719 339.792969 148.566406 C 341.214844 148.886719 343.203125 148.160156 344.515625 147.664062 C 346.082031 147.074219 347.078125 146.214844 347.613281 144.628906 C 347.953125 143.605469 347.628906 142.316406 346.507812 141.964844 C 345.179688 141.546875 343.902344 142.085938 342.925781 142.996094 C 342.578125 143.320312 343.019531 143.855469 343.421875 143.636719 Z M 343.421875 143.636719 "/>
<path style=" stroke:none;fill-rule:nonzero;fill:rgb(97.648621%,100%,92.939758%);fill-opacity:1;" d="M 314.925781 156.984375 C 320.085938 157.207031 325.308594 157.203125 330.28125 155.648438 C 330.515625 155.574219 330.484375 155.1875 330.222656 155.207031 C 325.121094 155.550781 320.03125 155.746094 314.925781 155.976562 C 314.277344 156.003906 314.277344 156.953125 314.925781 156.984375 Z M 314.925781 156.984375 "/>
<path style=" stroke:none;fill-rule:nonzero;fill:rgb(15.689087%,25.099182%,49.409485%);fill-opacity:1;" d="M 315.613281 128.890625 C 316.875 127.695312 315.773438 125.804688 314.285156 125.589844 C 314.183594 125.484375 314.046875 125.410156 313.875 125.378906 C 313.136719 125.257812 312.378906 125.585938 312.089844 126.316406 C 312.054688 126.398438 312.050781 126.480469 312.03125 126.5625 C 311.613281 127.367188 312.046875 128.367188 312.789062 128.851562 C 312.996094 128.988281 313.21875 129.074219 313.445312 129.089844 C 314.148438 129.453125 314.980469 129.492188 315.613281 128.890625 Z M 315.613281 128.890625 "/>
<path style=" stroke:none;fill-rule:nonzero;fill:rgb(96.859741%,60.389709%,56.858826%);fill-opacity:1;" d="M 245.625 161.796875 C 243.496094 162.628906 240.796875 158.953125 240.097656 157.117188 C 239.285156 154.96875 239.339844 152.1875 239.121094 149.9375 C 238.851562 147.128906 237.058594 140.042969 236.144531 140.035156 C 235.230469 140.03125 235.601562 145.304688 234.699219 147.574219 C 234.097656 149.074219 233.363281 148.578125 232.113281 149.542969 C 231.035156 150.375 230.585938 151.679688 230.328125 152.917969 C 230.023438 154.351562 230.1875 155.1875 229.128906 156.292969 C 228.234375 157.222656 226.984375 157.765625 226.597656 159.183594 C 226.09375 161.050781 227.375 163.597656 227.65625 165.472656 C 228.386719 170.363281 234.542969 174.203125 234.03125 179.121094 C 233.515625 184.039062 229.183594 197.574219 228.09375 203.378906 C 226.636719 211.136719 244.691406 210.730469 245.707031 204.066406 C 246.722656 197.398438 247.8125 183.804688 248.753906 178.363281 C 249.1875 175.863281 252.996094 166.253906 253.222656 163.441406 C 253.546875 159.40625 252.40625 149.535156 249.46875 149.855469 C 247.246094 150.097656 248.554688 160.652344 245.625 161.796875 Z M 245.625 161.796875 "/>
<path style=" stroke:none;fill-rule:nonzero;fill:rgb(97.648621%,100%,92.939758%);fill-opacity:1;" d="M 299.242188 166.238281 C 303.976562 175.136719 316.898438 180.25 326.167969 175.0625 C 326.503906 174.875 326.363281 174.308594 325.96875 174.324219 C 321.355469 174.535156 317.277344 175.675781 312.609375 174.761719 C 307.210938 173.703125 303.140625 170.113281 300.007812 165.789062 C 299.675781 165.335938 298.96875 165.722656 299.242188 166.238281 Z M 299.242188 166.238281 "/>
<path style=" stroke:none;fill-rule:nonzero;fill:rgb(97.648621%,100%,92.939758%);fill-opacity:1;" d="M 304.636719 162.234375 C 303.917969 162.824219 303.289062 163.496094 302.878906 164.335938 C 302.570312 164.96875 302.316406 166.046875 303.015625 166.492188 C 303.179688 166.59375 303.394531 166.523438 303.492188 166.367188 C 303.660156 166.089844 303.628906 165.882812 303.636719 165.566406 C 303.648438 165.175781 303.785156 164.84375 303.96875 164.507812 C 304.320312 163.859375 304.855469 163.328125 305.234375 162.695312 C 305.472656 162.300781 304.957031 161.972656 304.636719 162.234375 Z M 304.636719 162.234375 "/>
<path style=" stroke:none;fill-rule:nonzero;fill:rgb(97.648621%,100%,92.939758%);fill-opacity:1;" d="M 313.367188 166.105469 C 311.953125 167.074219 310 169.035156 311.097656 170.90625 C 311.195312 171.070312 311.445312 171.035156 311.496094 170.855469 C 311.726562 170.042969 311.730469 169.257812 312.164062 168.503906 C 312.578125 167.785156 313.195312 167.230469 313.84375 166.726562 C 314.199219 166.449219 313.734375 165.851562 313.367188 166.105469 Z M 313.367188 166.105469 "/>
<path style=" stroke:none;fill-rule:nonzero;fill:rgb(97.648621%,100%,92.939758%);fill-opacity:1;" d="M 317.980469 167.300781 C 317.566406 167.746094 317.191406 168.222656 316.863281 168.734375 C 316.558594 169.210938 316.148438 169.761719 316.46875 170.316406 C 316.507812 170.378906 316.574219 170.421875 316.648438 170.417969 C 317.253906 170.398438 317.4375 169.882812 317.699219 169.414062 C 318.003906 168.871094 318.300781 168.335938 318.675781 167.835938 C 318.980469 167.429688 318.316406 166.9375 317.980469 167.300781 Z M 317.980469 167.300781 "/>
<path style=" stroke:none;fill-rule:nonzero;fill:rgb(97.648621%,100%,92.939758%);fill-opacity:1;" d="M 326.648438 166.246094 C 326.082031 167.117188 325.628906 168.046875 325.140625 168.964844 C 324.667969 169.855469 324.074219 170.589844 323.832031 171.582031 C 323.789062 171.757812 323.96875 171.875 324.121094 171.804688 C 325.9375 170.960938 326.710938 168.300781 327.410156 166.5625 C 327.59375 166.109375 326.894531 165.871094 326.648438 166.246094 Z M 326.648438 166.246094 "/>
<path style=" stroke:none;fill-rule:nonzero;fill:rgb(73.329163%,89.7995%,88.238525%);fill-opacity:1;" d="M 339.914062 190.65625 C 339.078125 183.808594 336.457031 178.535156 332.609375 174.574219 C 334.003906 171.769531 335.089844 168.21875 334.039062 166.152344 C 331.160156 161.027344 321.464844 163.449219 316.925781 163.398438 C 313.839844 163.4375 311.128906 163.035156 308.542969 161.597656 C 306.398438 160.53125 303.9375 158.058594 301.359375 159.285156 C 299.472656 160.183594 299.582031 161.894531 298.34375 163.230469 C 296.851562 164.839844 295.453125 164.898438 293.347656 165.152344 C 285.375 166.109375 281.546875 169.339844 274.660156 172.535156 C 259.648438 179.496094 253.246094 214.769531 231.363281 205.953125 C 225.8125 203.714844 219.679688 191.804688 212.992188 193.28125 C 205.152344 195.457031 209.070312 216.789062 208.636719 222.449219 C 207.765625 231.59375 202.539062 238.992188 203.410156 248.570312 C 204.714844 261.632812 216.476562 262.066406 225.191406 269.03125 C 229.109375 272.078125 231.289062 278.175781 236.082031 279.914062 C 240.4375 282.09375 246.101562 279.480469 250.457031 278.609375 C 255.953125 277.578125 267.941406 274.113281 273.199219 268.636719 C 273.347656 268.671875 273.5 268.707031 273.648438 268.742188 C 295.152344 259.539062 310.933594 241.863281 325.824219 223.214844 C 334.855469 212.628906 341.628906 204.683594 339.914062 190.65625 Z M 339.914062 190.65625 "/>
<path style=" stroke:none;fill-rule:nonzero;fill:rgb(73.329163%,89.7995%,88.238525%);fill-opacity:1;" d="M 310.367188 251.371094 C 315.335938 245.167969 319.554688 239.109375 322.675781 234.550781 C 327.644531 227.300781 351.707031 192.902344 332.402344 188.679688 C 320.171875 186.003906 306.859375 190.429688 297.390625 197.960938 C 292.707031 201.683594 287.390625 205.339844 283.023438 209.292969 C 279.246094 212.714844 273.265625 217.066406 270.835938 221.523438 C 265.816406 217.253906 265.992188 209.449219 262.082031 204.417969 C 260.003906 201.746094 256.757812 201.363281 255.273438 198.707031 C 253.589844 195.691406 255.433594 191.589844 252.992188 188.839844 C 251.082031 186.6875 247.824219 187.167969 245.140625 187.574219 C 238.179688 188.628906 231.730469 192.507812 226.320312 196.847656 C 218.5 203.121094 222.859375 209.644531 223.179688 218.226562 C 223.449219 225.441406 221.191406 232.015625 226.683594 237.960938 C 230.8125 242.429688 233.144531 247.476562 236 252.847656 C 243.28125 266.558594 256.289062 282.917969 273.933594 279.542969 C 282.992188 277.808594 290.851562 271.78125 297.414062 265.613281 C 302.09375 261.214844 306.355469 256.378906 310.367188 251.371094 Z M 310.367188 251.371094 "/>
<path style=" stroke:none;fill-rule:nonzero;fill:rgb(15.689087%,25.099182%,49.409485%);fill-opacity:1;" d="M 368.84375 125.824219 C 368.617188 124.203125 368.234375 122.585938 367.703125 121.097656 C 365.359375 114.554688 361.871094 110.5625 356.269531 106.574219 C 353.636719 104.699219 351.046875 102.675781 348.039062 101.425781 C 342.8125 99.246094 336.277344 97.070312 331.050781 98.375 C 326.257812 99.246094 318.851562 103.164062 314.058594 98.8125 C 312.753906 103.601562 317.546875 104.90625 321.03125 106.648438 C 322.335938 107.519531 324.515625 107.085938 325.386719 108.824219 C 325.824219 110.132812 323.644531 111.871094 324.515625 114.050781 C 326.257812 117.96875 331.921875 116.226562 334.972656 117.535156 C 337.191406 118.273438 338.234375 119.34375 341.070312 123.558594 C 343.90625 127.777344 336.539062 128.679688 334.972656 134.945312 C 333.226562 141.910156 340.199219 137.558594 344.121094 137.558594 C 350.691406 137.558594 351.226562 145.910156 346.878906 149.3125 C 344.121094 151.632812 337.730469 154.824219 338.164062 156.277344 C 338.601562 157.730469 341.796875 155.429688 346.878906 155.550781 C 350.230469 155.632812 352.25 154.824219 355.15625 153.085938 C 363.332031 148.183594 369.160156 138.707031 369.082031 129.082031 C 369.074219 128.019531 368.996094 126.917969 368.84375 125.824219 Z M 368.84375 125.824219 "/>
<path style=" stroke:none;fill-rule:nonzero;fill:rgb(73.329163%,89.7995%,88.238525%);fill-opacity:1;" d="M 131.65625 150.738281 C 127.339844 149.949219 120.863281 148.496094 117.613281 152.382812 C 115.347656 155.085938 115.9375 158.617188 118.101562 161.117188 C 121.941406 165.550781 132.988281 167.0625 132.402344 158.746094 C 132.375 158.378906 132.15625 157.984375 131.761719 157.90625 C 126.074219 156.789062 124.414062 162.363281 125.199219 166.96875 C 126.070312 172.046875 131.253906 174.507812 133.8125 168.925781 C 134.097656 168.304688 133.367188 167.644531 132.828125 168.167969 C 131.820312 169.15625 130.222656 171.285156 128.667969 170.035156 C 127.371094 168.988281 126.960938 166.898438 126.808594 165.34375 C 126.636719 163.605469 126.882812 161.617188 128.085938 160.277344 C 128.703125 159.585938 129.613281 159.445312 130.492188 159.457031 C 131.257812 159.46875 130.210938 161.628906 129.742188 162.121094 C 126.789062 165.234375 120.308594 161.648438 118.503906 158.917969 C 116.695312 156.179688 118.457031 152.730469 121.308594 151.695312 C 124.390625 150.582031 128.257812 151.199219 131.402344 151.65625 C 131.996094 151.742188 132.265625 150.851562 131.65625 150.738281 Z M 131.65625 150.738281 "/>
<path style=" stroke:none;fill-rule:nonzero;fill:rgb(73.329163%,89.7995%,88.238525%);fill-opacity:1;" d="M 124.496094 200.257812 C 126.914062 196.210938 130.234375 192.703125 132.386719 188.507812 C 132.546875 188.191406 132.144531 187.851562 131.882812 188.121094 C 128.582031 191.496094 125.800781 195.566406 123.460938 199.65625 C 123.078125 200.328125 124.101562 200.921875 124.496094 200.257812 Z M 124.496094 200.257812 "/>
<path style=" stroke:none;fill-rule:nonzero;fill:rgb(73.329163%,89.7995%,88.238525%);fill-opacity:1;" d="M 103.472656 152.597656 C 109.15625 144.269531 116.496094 138.894531 126.890625 139.046875 C 136.242188 139.183594 145.097656 144.199219 151.6875 150.511719 C 159.980469 158.460938 165.027344 169.332031 171.5 178.679688 C 174.921875 183.625 178.097656 188.707031 181.277344 193.8125 C 183.816406 197.890625 187.277344 201.261719 189.765625 205.433594 C 190.007812 205.835938 190.730469 205.691406 190.691406 205.183594 C 190.363281 200.921875 186.691406 197.707031 184.117188 194.585938 C 179.59375 189.089844 176.230469 182.316406 172.160156 176.449219 C 164.914062 165.996094 159.421875 154.183594 149.324219 146.039062 C 134.894531 134.394531 111.773438 133.601562 102.664062 152.121094 C 102.394531 152.667969 103.132812 153.097656 103.472656 152.597656 Z M 103.472656 152.597656 "/>
<path style=" stroke:none;fill-rule:nonzero;fill:rgb(73.329163%,89.7995%,88.238525%);fill-opacity:1;" d="M 66.378906 117.300781 C 82.152344 123.414062 100.121094 121.089844 116.636719 120.945312 C 131.8125 120.808594 150.320312 121.230469 162.738281 131.152344 C 168.988281 136.148438 174.476562 142.84375 179.738281 148.835938 C 185.675781 155.601562 190.136719 162.890625 194.972656 170.394531 C 201.347656 180.292969 210.265625 188.636719 217.5625 197.859375 C 218.234375 198.707031 219.550781 197.621094 219.027344 196.730469 C 212.835938 186.175781 202.425781 178.5625 196.0625 168.078125 C 191.589844 160.699219 186.90625 153.875 181.230469 147.347656 C 175.71875 141.007812 169.832031 134.210938 163.234375 128.976562 C 152.207031 120.222656 136.023438 119.480469 122.566406 119.125 C 103.75 118.625 85.089844 121.25 66.570312 116.601562 C 66.109375 116.488281 65.953125 117.132812 66.378906 117.300781 Z M 66.378906 117.300781 "/>
<path style=" stroke:none;fill-rule:nonzero;fill:rgb(73.329163%,89.7995%,88.238525%);fill-opacity:1;" d="M 127.84375 215.96875 C 135.9375 221.96875 139.441406 232.695312 144.898438 240.855469 C 151.304688 250.433594 158.75 258.78125 167.230469 266.554688 C 181.359375 279.515625 199.476562 283.597656 217.730469 277.4375 C 218.820312 277.070312 218.386719 275.472656 217.257812 275.71875 C 208.039062 277.742188 199.195312 279.28125 189.847656 277.09375 C 179.65625 274.710938 171.796875 267.929688 164.28125 261.058594 C 155.902344 253.398438 148.632812 243.964844 142.820312 234.234375 C 138.796875 227.511719 135.496094 219.195312 128.246094 215.289062 C 127.785156 215.042969 127.445312 215.671875 127.84375 215.96875 Z M 127.84375 215.96875 "/>
<path style=" stroke:none;fill-rule:nonzero;fill:rgb(73.329163%,89.7995%,88.238525%);fill-opacity:1;" d="M 317.75 262.648438 C 318.710938 253.582031 324.691406 244.316406 331.144531 238.15625 C 332.75 236.625 334.570312 235.363281 336.53125 234.339844 C 337.507812 233.832031 338.527344 233.546875 339.589844 233.296875 C 341.710938 232.796875 341.40625 234.199219 341.128906 235.808594 C 341.039062 236.34375 339.09375 238.785156 339.421875 236.765625 C 339.621094 235.546875 340.417969 234.445312 341.054688 233.421875 C 342.808594 230.601562 345.730469 228.683594 348.453125 226.902344 C 351.949219 224.613281 355.421875 222.5 358.074219 219.199219 C 360.894531 215.683594 361.910156 210.695312 362.519531 206.355469 C 363.757812 197.574219 362.136719 186.308594 355.539062 179.839844 C 355.101562 179.410156 354.386719 179.960938 354.691406 180.492188 C 359.757812 189.296875 362.1875 198.195312 360.488281 208.375 C 359.652344 213.386719 357.730469 217.839844 353.886719 221.238281 C 350.828125 223.945312 347.003906 225.640625 343.867188 228.25 C 342.28125 229.566406 334.800781 236.941406 338.726562 239.238281 C 342.335938 241.351562 342.789062 233.910156 342.488281 232.273438 C 342.433594 231.964844 342.09375 231.742188 341.796875 231.746094 C 335.09375 231.820312 329.597656 237.183594 325.828125 242.21875 C 321.421875 248.105469 317.476562 255.152344 317.054688 262.648438 C 317.027344 263.101562 317.703125 263.082031 317.75 262.648438 Z M 317.75 262.648438 "/>
<path style=" stroke:none;fill-rule:nonzero;fill:rgb(97.648621%,100%,92.939758%);fill-opacity:1;" d="M 258.617188 203.875 C 262.601562 204.574219 262.050781 208.566406 262.859375 211.523438 C 263.957031 215.519531 268.457031 216.023438 268.441406 220.96875 C 268.429688 223.921875 267.054688 233.640625 272.09375 233.4375 C 272.367188 233.425781 272.617188 233.101562 272.433594 232.84375 C 270.199219 229.707031 270.019531 226.152344 270.128906 222.363281 C 270.21875 219.460938 270.242188 216.195312 267.566406 214.351562 C 263.625 211.632812 264.511719 208.953125 262.933594 205.179688 C 262.179688 203.382812 260.5 202.972656 258.734375 202.992188 C 258.242188 202.996094 258.105469 203.78125 258.617188 203.875 Z M 258.617188 203.875 "/>
<path style=" stroke:none;fill-rule:nonzero;fill:rgb(97.648621%,100%,92.939758%);fill-opacity:1;" d="M 269.484375 223.929688 C 272.796875 219.242188 278.234375 217.457031 282.9375 214.554688 C 284.992188 213.289062 286.507812 210.570312 287.789062 208.617188 C 291.90625 202.339844 295.140625 194.308594 303.054688 192.460938 C 303.683594 192.3125 303.671875 191.355469 303.054688 191.203125 C 296.683594 189.621094 291.566406 199.277344 288.96875 203.519531 C 286.714844 207.203125 284.679688 211.578125 280.964844 214.003906 C 276.398438 216.988281 271.644531 218.574219 268.894531 223.585938 C 268.683594 223.976562 269.234375 224.28125 269.484375 223.929688 Z M 269.484375 223.929688 "/>
<path style=" stroke:none;fill-rule:nonzero;fill:rgb(97.648621%,100%,92.939758%);fill-opacity:1;" d="M 227.542969 209.824219 C 227.554688 211.246094 227.558594 212.773438 227.839844 214.171875 C 228.335938 216.667969 227.242188 218.089844 226.105469 220.179688 C 224.527344 223.082031 223.945312 226.394531 223.851562 229.65625 C 223.65625 236.59375 227.589844 243.257812 232.304688 248.035156 C 237.53125 253.328125 239.703125 258.980469 241.792969 265.90625 C 242.722656 268.980469 245.597656 273.054688 249.179688 270.742188 C 249.589844 270.476562 249.617188 269.667969 249.027344 269.585938 C 246.019531 269.160156 244.757812 268.417969 243.691406 265.382812 C 243.082031 263.652344 242.789062 261.820312 242.25 260.066406 C 240.792969 255.3125 237.894531 251.21875 234.546875 247.621094 C 229.332031 242.027344 225.496094 236.300781 225.554688 228.351562 C 225.585938 224.234375 227.417969 220.445312 229.734375 217.15625 C 230.339844 216.296875 228.441406 210.808594 228.359375 209.828125 C 228.316406 209.308594 227.535156 209.292969 227.542969 209.824219 Z M 227.542969 209.824219 "/>
<path style=" stroke:none;fill-rule:nonzero;fill:rgb(97.648621%,100%,92.939758%);fill-opacity:1;" d="M 232.597656 207.390625 C 237.675781 207.898438 245.742188 205.082031 248.050781 200.164062 C 248.21875 199.808594 247.871094 199.382812 247.492188 199.605469 C 245.175781 200.976562 243.238281 202.816406 240.8125 204.058594 C 238.214844 205.386719 235.332031 206.019531 232.472656 206.46875 C 231.910156 206.558594 232.113281 207.34375 232.597656 207.390625 Z M 232.597656 207.390625 "/>
<path style=" stroke:none;fill-rule:nonzero;fill:rgb(97.648621%,100%,92.939758%);fill-opacity:1;" d="M 233.902344 197.054688 C 234.015625 198.089844 234.410156 199.003906 234.972656 199.875 C 235.1875 200.214844 235.4375 200.519531 235.753906 200.769531 C 236.136719 201.078125 236.40625 200.925781 236.78125 200.738281 C 236.910156 200.671875 236.9375 200.46875 236.828125 200.375 C 236.882812 200.417969 236.761719 199.9375 236.675781 199.847656 C 236.4375 199.589844 236.226562 199.308594 236.03125 199.019531 C 235.546875 198.324219 235.167969 197.550781 234.71875 196.835938 C 234.503906 196.5 233.855469 196.597656 233.902344 197.054688 Z M 233.902344 197.054688 "/>
<path style=" stroke:none;fill-rule:nonzero;fill:rgb(97.648621%,100%,92.939758%);fill-opacity:1;" d="M 242.589844 193.574219 C 242.589844 194.046875 242.753906 194.503906 242.941406 194.929688 C 243.144531 195.378906 243.476562 196.136719 244.011719 196.238281 C 244.28125 196.289062 244.597656 196.117188 244.578125 195.808594 C 244.550781 195.375 244.1875 195.015625 243.964844 194.65625 C 243.769531 194.339844 243.546875 193.949219 243.515625 193.574219 C 243.464844 192.988281 242.589844 192.964844 242.589844 193.574219 Z M 242.589844 193.574219 "/>
<path style=" stroke:none;fill-rule:nonzero;fill:rgb(97.648621%,100%,92.939758%);fill-opacity:1;" d="M 298.324219 165.996094 C 301.128906 171.703125 309.484375 175.863281 315.742188 174.140625 C 316.046875 174.054688 316.03125 173.625 315.742188 173.535156 C 313.019531 172.691406 310.140625 172.613281 307.410156 171.695312 C 303.9375 170.53125 301.46875 168.074219 299.210938 165.3125 C 298.785156 164.785156 298.058594 165.453125 298.324219 165.996094 Z M 298.324219 165.996094 "/>
<path style=" stroke:none;fill-rule:nonzero;fill:rgb(97.648621%,100%,92.939758%);fill-opacity:1;" d="M 243.164062 130.300781 C 242.957031 136.203125 242.003906 142.671875 243.878906 148.386719 C 243.996094 148.75 244.574219 148.703125 244.5625 148.296875 C 244.347656 142.292969 244.234375 136.308594 244.101562 130.300781 C 244.089844 129.695312 243.183594 129.699219 243.164062 130.300781 Z M 243.164062 130.300781 "/>
<path style=" stroke:none;fill-rule:nonzero;fill:rgb(73.329163%,89.7995%,88.238525%);fill-opacity:1;" d="M 352.527344 125.769531 C 351.714844 126.898438 351.03125 128.019531 349.605469 128.386719 C 348.519531 128.664062 347.363281 128.574219 346.265625 128.769531 C 344.84375 129.019531 343.660156 130.59375 344.601562 131.957031 C 345.476562 133.226562 347.679688 133.21875 348.9375 132.65625 C 350.546875 131.9375 352 129.648438 351.5625 127.851562 C 351.476562 127.5 350.988281 127.363281 350.742188 127.632812 C 349.824219 128.644531 349.925781 130.324219 348.679688 131.105469 C 348.105469 131.460938 347.492188 131.542969 346.832031 131.515625 C 345.976562 131.480469 345.101562 130.53125 346.367188 130.171875 C 347.726562 129.785156 349.167969 129.914062 350.507812 129.402344 C 351.839844 128.894531 352.480469 127.269531 353.136719 126.125 C 353.371094 125.722656 352.789062 125.40625 352.527344 125.769531 Z M 352.527344 125.769531 "/>
<path style=" stroke:none;fill-rule:nonzero;fill:rgb(97.648621%,100%,92.939758%);fill-opacity:1;" d="M 344.597656 110.199219 C 343.023438 110.835938 341.304688 111.265625 339.617188 111.460938 C 337.878906 111.664062 336.242188 111.191406 334.535156 111.046875 C 334.191406 111.019531 334.03125 111.488281 334.261719 111.710938 C 336.996094 114.324219 342.246094 112.867188 344.894531 110.894531 C 345.210938 110.660156 345.03125 110.023438 344.597656 110.199219 Z M 344.597656 110.199219 "/>
<path style=" stroke:none;fill-rule:nonzero;fill:rgb(97.648621%,100%,92.939758%);fill-opacity:1;" d="M 330.347656 105.199219 C 331.449219 105.351562 332.558594 105.386719 333.664062 105.484375 C 334.738281 105.582031 335.785156 105.953125 336.859375 105.984375 C 337.183594 105.996094 337.308594 105.601562 337.109375 105.382812 C 335.617188 103.753906 332.308594 104.058594 330.347656 104.324219 C 329.910156 104.382812 329.910156 105.140625 330.347656 105.199219 Z M 330.347656 105.199219 "/>
<path style=" stroke:none;fill-rule:nonzero;fill:rgb(97.648621%,100%,92.939758%);fill-opacity:1;" d="M 353.660156 146.800781 C 356.089844 144.484375 358.773438 140.789062 358.71875 137.265625 C 358.714844 136.902344 358.222656 136.765625 358.035156 137.082031 C 357.191406 138.5 356.746094 140.15625 356.027344 141.644531 C 355.226562 143.292969 354.175781 144.886719 353.113281 146.378906 C 352.878906 146.710938 353.382812 147.0625 353.660156 146.800781 Z M 353.660156 146.800781 "/>
<path style=" stroke:none;fill-rule:nonzero;fill:rgb(97.648621%,100%,92.939758%);fill-opacity:1;" d="M 232.578125 152.359375 C 232.53125 154.398438 232.144531 159.039062 234.523438 159.996094 C 234.773438 160.09375 235.015625 159.847656 235.023438 159.613281 C 235.054688 158.585938 234.375 157.589844 234.148438 156.578125 C 233.839844 155.195312 233.808594 153.769531 233.777344 152.359375 C 233.757812 151.585938 232.597656 151.585938 232.578125 152.359375 Z M 232.578125 152.359375 "/>
<path style=" stroke:none;fill-rule:nonzero;fill:rgb(97.648621%,100%,92.939758%);fill-opacity:1;" d="M 230.304688 158.882812 C 230.125 159.890625 230.152344 160.859375 230.53125 161.820312 C 230.855469 162.628906 231.621094 163.835938 232.597656 163.824219 C 232.902344 163.820312 233.066406 163.550781 233.015625 163.273438 C 232.902344 162.609375 232.199219 162.089844 231.847656 161.519531 C 231.378906 160.773438 231.332031 159.886719 231.425781 159.035156 C 231.496094 158.394531 230.414062 158.25 230.304688 158.882812 Z M 230.304688 158.882812 "/>
<path style=" stroke:none;fill-rule:nonzero;fill:rgb(73.329163%,89.7995%,88.238525%);fill-opacity:1;" d="M 141.628906 115.433594 C 138.101562 119.148438 136.015625 124.65625 139.761719 128.945312 C 142.332031 131.882812 145.558594 130.511719 146.167969 127.011719 C 146.242188 126.589844 146.058594 126.273438 145.664062 126.121094 C 137.371094 122.90625 136.597656 139.085938 146.765625 136.59375 C 147.238281 136.476562 147.257812 135.726562 146.765625 135.621094 C 144.570312 135.15625 142.378906 135.164062 141.011719 133.089844 C 140 131.5625 140.453125 129.390625 141.550781 128.066406 C 142.105469 127.402344 142.894531 127.164062 143.722656 127.121094 C 146.335938 126.988281 142.417969 129.4375 140.75 127.957031 C 137.125 124.742188 139.789062 119.066406 142.339844 116.148438 C 142.765625 115.660156 142.078125 114.957031 141.628906 115.433594 Z M 141.628906 115.433594 "/>
<path style=" stroke:none;fill-rule:nonzero;fill:rgb(97.648621%,100%,92.939758%);fill-opacity:1;" d="M 265.339844 251.253906 C 262.636719 254.648438 258.019531 263.476562 263.335938 266.820312 C 268.042969 269.78125 272.269531 263.933594 271.621094 259.554688 C 271.523438 258.875 270.628906 258.945312 270.316406 259.382812 C 268.277344 262.246094 266.679688 266.179688 269.359375 269.152344 C 272.222656 272.324219 276.972656 268.832031 278.832031 266.476562 C 279.222656 265.980469 278.632812 265.386719 278.136719 265.785156 C 276.171875 267.351562 273.441406 269.621094 270.785156 268.273438 C 267.660156 266.691406 270.292969 261.890625 271.550781 260.105469 C 271.113281 260.050781 270.679688 259.992188 270.242188 259.9375 C 271.074219 265.390625 263.203125 269.222656 262.359375 262.308594 C 261.925781 258.765625 264.148438 254.65625 266.152344 251.878906 C 266.496094 251.40625 265.703125 250.792969 265.339844 251.253906 Z M 265.339844 251.253906 "/>
<path style=" stroke:none;fill-rule:nonzero;fill:rgb(15.689087%,25.099182%,49.409485%);fill-opacity:1;" d="M 358.160156 149.816406 C 363.785156 148 368.726562 142.964844 370.960938 137.523438 C 373.835938 130.515625 370.867188 127.074219 366.734375 121.707031 C 364.199219 118.414062 363.773438 114.792969 363.589844 110.792969 C 363.503906 108.953125 363.300781 106.722656 361.992188 105.289062 C 359.753906 102.835938 356.433594 102.277344 353.308594 101.648438 C 347.980469 100.574219 342.617188 100.269531 337.347656 98.820312 C 336.40625 98.5625 336.078125 99.917969 336.953125 100.25 C 344.097656 102.976562 352.289062 101.488281 359.230469 104.777344 C 363.578125 106.835938 362.097656 114.472656 363.402344 118.421875 C 365.117188 123.605469 370.917969 126.101562 371.175781 131.925781 C 371.484375 139.015625 364.128906 146.738281 357.960938 149.09375 C 357.519531 149.265625 357.691406 149.96875 358.160156 149.816406 Z M 358.160156 149.816406 "/>
</g>
</svg>
