<?xml version="1.0" encoding="UTF-8"?>
<svg xmlns="http://www.w3.org/2000/svg" xmlns:xlink="http://www.w3.org/1999/xlink" width="375pt" height="374.999991pt" viewBox="0 0 375 374.999991" version="1.2">
<defs>
<clipPath id="clip1">
  <path d="M 68.558594 340 L 123.121094 340 L 123.121094 373.199219 L 68.558594 373.199219 Z M 68.558594 340 "/>
</clipPath>
<clipPath id="clip2">
  <path d="M 216 55.375 L 350.152344 55.375 L 350.152344 126.945312 L 216 126.945312 Z M 216 55.375 "/>
</clipPath>
<clipPath id="clip3">
  <path d="M 333 63 L 350.152344 63 L 350.152344 85 L 333 85 Z M 333 63 "/>
</clipPath>
</defs>
<g id="surface1">
<path style=" stroke:none;fill-rule:nonzero;fill:rgb(15.689087%,25.099182%,49.409485%);fill-opacity:1;" d="M 137.136719 18.554688 C 137.71875 26.09375 133 33.164062 131.199219 34.820312 C 130.984375 35.015625 129.890625 35.984375 128.65625 37.507812 C 127.738281 38.640625 127.089844 39.65625 126.679688 40.335938 C 125.542969 39.882812 123.691406 39.3125 121.367188 39.347656 C 117.914062 39.398438 115.382812 40.757812 114.246094 41.46875 C 113.964844 40.335938 113.683594 39.203125 113.398438 38.074219 C 112.011719 37.003906 104 30.621094 103.511719 20.097656 C 103.394531 17.710938 103.039062 10.042969 108.878906 4.835938 C 109.304688 4.453125 114.417969 0.0390625 121.367188 0.851562 C 130.148438 1.882812 136.519531 10.632812 137.136719 18.554688 "/>
<path style=" stroke:none;fill-rule:nonzero;fill:rgb(92.158508%,62.348938%,58.428955%);fill-opacity:1;" d="M 214.511719 59.359375 C 207.96875 58.015625 202.554688 58.054688 200.769531 58.148438 C 189.199219 58.800781 184.804688 70.835938 167.160156 84.742188 C 165.269531 86.230469 162.4375 88.441406 158.699219 90.894531 C 155.085938 93.34375 151.273438 96.160156 147.375 99.367188 C 141.789062 103.953125 137.007812 108.550781 132.96875 112.851562 C 140.003906 116.007812 155.742188 121.78125 171.789062 115.828125 C 177.523438 113.707031 181.539062 110.738281 185.457031 107.484375 C 194.316406 100.117188 208.703125 86.25 223.570312 61.9375 C 221.421875 61.140625 218.332031 60.140625 214.511719 59.359375 "/>
<path style=" stroke:none;fill-rule:nonzero;fill:rgb(92.158508%,62.348938%,58.428955%);fill-opacity:1;" d="M 139.578125 249.59375 C 144.160156 251.15625 148.585938 252.769531 152.851562 254.410156 C 152.316406 282.320312 151.789062 310.261719 151.253906 338.175781 C 145.535156 337.875 139.804688 337.59375 134.085938 337.304688 C 131.386719 322.015625 128.765625 306.511719 126.214844 290.824219 C 123.605469 274.761719 121.144531 258.871094 118.835938 243.167969 C 125.5 245.007812 132.433594 247.148438 139.578125 249.59375 "/>
<path style=" stroke:none;fill-rule:nonzero;fill:rgb(92.158508%,62.348938%,58.428955%);fill-opacity:1;" d="M 81.933594 247.574219 C 90.179688 251.222656 97.742188 252.949219 103.597656 253.792969 C 102.027344 269.820312 99.96875 286.570312 97.320312 303.957031 C 95.109375 318.535156 92.625 332.542969 89.964844 345.980469 C 84.296875 345.582031 78.609375 345.144531 72.949219 344.722656 C 71.570312 309.90625 70.207031 275.125 68.847656 240.328125 C 72.394531 242.726562 76.75 245.289062 81.933594 247.574219 "/>
<g clip-path="url(#clip1)" clip-rule="nonzero">
<path style=" stroke:none;fill-rule:nonzero;fill:rgb(15.689087%,25.099182%,49.409485%);fill-opacity:1;" d="M 98.925781 358.132812 C 109.027344 368.578125 123.148438 367.527344 123.039062 370.117188 C 122.941406 372.378906 109.441406 374.78125 95.644531 371.832031 C 88.199219 370.242188 82.386719 367.460938 78.515625 365.246094 C 78.148438 367.5625 77.785156 369.878906 77.421875 372.195312 C 74.492188 371.898438 71.546875 371.609375 68.609375 371.320312 C 69.8125 361.117188 71.011719 350.894531 72.207031 340.671875 C 78.320312 341.101562 84.441406 341.53125 90.550781 341.964844 C 91.691406 346.886719 93.96875 353.007812 98.925781 358.132812 "/>
</g>
<path style=" stroke:none;fill-rule:nonzero;fill:rgb(73.728943%,90.19928%,88.62915%);fill-opacity:1;" d="M 116.15625 329.816406 C 139.539062 327.355469 162.929688 324.882812 186.308594 322.421875 C 184.078125 301.574219 181.46875 280.230469 178.449219 258.425781 C 170.726562 202.820312 161.136719 150.613281 150.503906 102.078125 C 141.273438 100.71875 132.046875 99.351562 122.816406 97.976562 C 120.59375 175.28125 118.371094 252.554688 116.15625 329.816406 "/>
<path style=" stroke:none;fill-rule:nonzero;fill:rgb(73.728943%,90.19928%,88.62915%);fill-opacity:1;" d="M 90.933594 129.578125 C 80.996094 161.230469 64.863281 231.984375 47.421875 324.746094 C 55.429688 327.789062 64.695312 330.777344 75.109375 333.230469 C 86.984375 336.027344 97.867188 337.542969 107.324219 338.320312 C 118.863281 259.457031 130.402344 180.585938 141.945312 101.71875 C 135.742188 98.847656 124.042969 94.609375 112.972656 99.027344 C 99.367188 104.457031 93.910156 120.101562 90.933594 129.578125 "/>
<path style=" stroke:none;fill-rule:nonzero;fill:rgb(15.689087%,25.099182%,49.409485%);fill-opacity:1;" d="M 184.488281 52.992188 C 185.871094 50.15625 187.15625 47.324219 188.019531 44.300781 C 189.03125 40.789062 189.0625 37.207031 189.21875 33.582031 C 189.242188 32.835938 189.304688 32.085938 189.386719 31.351562 C 189.847656 34.242188 190.730469 36.992188 189.609375 42.144531 C 188.558594 46.957031 186.742188 49.21875 184.488281 52.992188 Z M 237.933594 43.746094 C 238.175781 40.394531 237.929688 37.175781 237.195312 34.132812 C 233.9375 20.839844 225.214844 14.089844 225.214844 14.089844 C 225.011719 13.929688 224.78125 13.75 224.527344 13.558594 C 224.664062 13.625 224.8125 13.679688 224.957031 13.761719 C 233.074219 17.683594 239.300781 25.367188 239.808594 34.605469 C 239.980469 37.882812 239.25 40.90625 237.933594 43.746094 Z M 186.914062 77.925781 C 187.195312 78.082031 183.972656 84.4375 177.222656 96.984375 C 183.074219 98.558594 190.453125 99.890625 199 99.984375 C 202.820312 100.023438 206.351562 99.808594 209.574219 99.457031 C 216.128906 91.347656 223.601562 80.457031 229.890625 66.644531 C 233.417969 58.90625 235.960938 51.621094 237.816406 45.082031 C 239.75 41.335938 240.636719 37.269531 240.089844 32.996094 C 239.546875 28.578125 237.632812 24.335938 234.851562 20.878906 C 231.675781 16.929688 227.441406 14.164062 222.777344 12.34375 C 220.597656 10.929688 217.46875 9.367188 213.40625 8.796875 C 211.421875 8.507812 206.015625 7.839844 200.410156 10.789062 C 193.46875 14.445312 190.953125 21.191406 190.199219 23.332031 C 189.304688 25.875 189.105469 27.78125 189.183594 29.476562 C 188.984375 31.03125 188.820312 32.585938 188.765625 34.171875 C 188.628906 38.03125 188.445312 41.765625 187.222656 45.46875 C 187.222656 45.46875 186.226562 49.304688 183.414062 54.1875 C 179.585938 60.84375 166.289062 74.441406 146.320312 89.851562 C 150.265625 91.449219 154.996094 93.054688 160.417969 94.324219 C 165.9375 95.609375 170.957031 96.246094 175.242188 96.558594 C 182.746094 83.976562 186.636719 77.777344 186.914062 77.925781 "/>
<path style=" stroke:none;fill-rule:nonzero;fill:rgb(92.158508%,62.348938%,58.428955%);fill-opacity:1;" d="M 105.230469 17.289062 C 106.304688 17.234375 107.144531 17.578125 107.601562 17.808594 C 107.625 16.613281 107.871094 12.015625 111.488281 8.128906 C 112.53125 7 116.101562 3.554688 121.554688 3.574219 C 126.476562 3.617188 129.746094 6.464844 130.773438 7.398438 C 135.265625 11.441406 135.722656 16.84375 135.804688 18.082031 C 135.953125 19.730469 136.105469 21.375 136.253906 23.019531 C 136.386719 31.226562 130.027344 38.054688 122.125 38.195312 C 121.726562 38.199219 115.980469 38.433594 112.503906 34.550781 C 111.023438 32.878906 110.269531 31.015625 109.289062 28.472656 C 109.039062 27.804688 108.847656 27.230469 108.726562 26.847656 C 108.292969 27.050781 106.671875 27.738281 104.695312 27.179688 C 104.238281 27.042969 102.515625 26.527344 101.472656 24.800781 C 101.296875 24.492188 99.960938 22.203125 101.175781 19.863281 C 102 18.242188 103.65625 17.335938 105.230469 17.289062 "/>
<path style=" stroke:none;fill-rule:nonzero;fill:rgb(92.158508%,62.348938%,58.428955%);fill-opacity:1;" d="M 119.492188 48.59375 C 117.195312 48.578125 113.941406 48.675781 110.09375 49.214844 C 103.472656 50.152344 98.390625 52.015625 96.746094 52.707031 C 86.074219 57.210938 85.96875 70.027344 74.03125 89.058594 C 71.628906 92.890625 67.015625 100.136719 59.214844 107.988281 C 37.546875 129.773438 30.414062 136.804688 30.414062 136.804688 C 28.90625 138.292969 25.566406 141.644531 26.457031 144.011719 C 26.515625 144.15625 26.8125 144.941406 27.519531 145.1875 C 29.921875 146.011719 34.105469 139.601562 34.167969 139.640625 C 34.207031 139.671875 32.679688 142.441406 28.316406 147.960938 C 26.453125 150.3125 24.777344 152.269531 25.425781 153.839844 C 25.757812 154.636719 26.523438 155.015625 26.75 155.140625 C 28.175781 155.835938 30.097656 155.410156 31.625 154.003906 C 30.105469 156.613281 30.96875 159.265625 32.308594 159.835938 C 33.355469 160.273438 35 159.59375 36.167969 158.144531 C 36.253906 159.738281 36.613281 161.828125 38.019531 162.597656 C 40.464844 163.917969 46.0625 161.226562 64.59375 139.757812 C 78.433594 123.726562 85.351562 115.71875 93.785156 102.402344 C 101.8125 89.777344 111.621094 71.769531 119.492188 48.59375 "/>
<path style=" stroke:none;fill-rule:nonzero;fill:rgb(92.158508%,62.348938%,58.428955%);fill-opacity:1;" d="M 103.496094 97.238281 C 110.949219 101.148438 119.378906 102.808594 127.777344 101.726562 C 132.859375 101.054688 137.6875 99.414062 142.105469 96.949219 C 142.929688 80.429688 144.117188 63.886719 139.589844 47.804688 C 133.019531 46.324219 127.585938 47.425781 126.507812 47.660156 L 124.820312 26.910156 L 114.195312 27.777344 L 115.882812 48.53125 C 110.679688 48.632812 105.804688 49.394531 101.460938 50.691406 C 101.941406 66.222656 100.894531 81.875 103.496094 97.238281 "/>
<path style=" stroke:none;fill-rule:nonzero;fill:rgb(92.158508%,62.348938%,58.428955%);fill-opacity:1;" d="M 248.269531 74.503906 C 247.507812 75.082031 246.941406 75.535156 246.449219 75.9375 C 248.296875 74.691406 249.339844 74.082031 250.429688 74.429688 C 250.429688 74.429688 251.226562 74.664062 251.753906 75.453125 C 253.871094 78.617188 242.464844 96.773438 218.261719 110.210938 C 218.226562 110.226562 218.210938 110.242188 218.1875 110.253906 C 216.9375 110.941406 194.207031 123.292969 176.675781 120.867188 C 159.792969 118.53125 149.5 102.722656 135.808594 81.660156 C 127.597656 69.042969 122.5625 57.558594 119.53125 49.535156 C 126.246094 48.554688 131.855469 48.617188 135.84375 48.878906 C 135.84375 48.878906 137.46875 49.078125 139.804688 49.566406 C 139.804688 49.566406 144.027344 50.453125 147.988281 51.945312 C 156.117188 55.015625 169.96875 87.105469 184.777344 89.914062 C 197.832031 92.386719 220.347656 73.773438 234.542969 62.027344 C 235.445312 61.289062 239.207031 58.074219 241.289062 59.226562 C 241.746094 59.472656 242.28125 60 242.488281 60.730469 C 242.828125 61.832031 242.347656 63.132812 241.289062 64.113281 C 244.734375 61.464844 248.007812 60.835938 249.175781 62.03125 C 249.847656 62.714844 249.855469 64.011719 249.667969 64.839844 C 249.28125 66.582031 247.78125 67.394531 247.296875 67.628906 C 249.160156 66.871094 251.050781 67.140625 252.128906 68.238281 C 252.320312 68.449219 252.914062 69.042969 252.957031 69.90625 C 253.003906 71.21875 251.660156 71.890625 248.269531 74.503906 "/>
<path style=" stroke:none;fill-rule:nonzero;fill:rgb(15.689087%,25.099182%,49.409485%);fill-opacity:1;" d="M 121.226562 37.710938 C 124.050781 38.160156 126.90625 37.628906 129.398438 36.203125 C 129.617188 36.089844 129.429688 35.734375 129.226562 35.867188 C 126.804688 37.273438 124.015625 37.777344 121.257812 37.34375 C 121 37.277344 120.992188 37.664062 121.226562 37.710938 "/>
<path style=" stroke:none;fill-rule:nonzero;fill:rgb(15.689087%,25.099182%,49.409485%);fill-opacity:1;" d="M 121.496094 29.765625 C 122.820312 30.511719 124.359375 30.636719 125.78125 30.089844 C 126.0625 29.984375 125.925781 29.53125 125.640625 29.640625 C 124.316406 30.136719 122.957031 30.050781 121.726562 29.359375 C 121.449219 29.203125 121.21875 29.617188 121.496094 29.765625 "/>
<path style=" stroke:none;fill-rule:nonzero;fill:rgb(15.689087%,25.099182%,49.409485%);fill-opacity:1;" d="M 136.898438 17.121094 C 137.003906 15.675781 137.164062 11.03125 134.039062 6.914062 C 128.867188 0.09375 119.691406 1.34375 118.953125 1.464844 C 113.429688 2.3125 107.882812 6.085938 106.472656 10.753906 C 106.058594 12.152344 105.628906 14.769531 105.859375 17.644531 C 105.9375 18.726562 106.078125 19.597656 106.183594 20.148438 C 105.136719 19.402344 103.566406 19.769531 103.027344 20.972656 C 102.917969 21.234375 103.300781 21.429688 103.421875 21.179688 C 103.867188 20.191406 105.21875 19.859375 106.042969 20.570312 C 106.117188 20.632812 106.207031 20.621094 106.28125 20.582031 C 106.316406 20.714844 106.335938 20.792969 106.335938 20.792969 C 106.734375 22.320312 107.242188 23.542969 107.644531 24.351562 C 108.003906 22.882812 108.367188 21.414062 108.738281 19.945312 C 109.789062 20.117188 111.878906 20.289062 114.09375 19.304688 C 118.941406 17.136719 119.757812 11.4375 119.804688 11.03125 C 120.792969 12.25 123.132812 14.832031 127.09375 16.347656 C 131.503906 18.046875 135.363281 17.4375 136.898438 17.121094 "/>
<path style=" stroke:none;fill-rule:nonzero;fill:rgb(15.689087%,25.099182%,49.409485%);fill-opacity:1;" d="M 124.796875 24.894531 C 125.097656 25.796875 125.382812 26.714844 125.65625 27.609375 C 125.105469 27.570312 124.550781 27.503906 124.007812 27.414062 C 123.71875 27.351562 123.625 27.78125 123.894531 27.820312 C 124.574219 27.945312 125.242188 28.023438 125.949219 28.03125 C 126.027344 28.023438 126.09375 27.984375 126.121094 27.933594 C 126.117188 27.914062 126.117188 27.914062 126.128906 27.914062 C 126.125 27.886719 126.132812 27.855469 126.128906 27.808594 C 126.128906 27.785156 126.136719 27.785156 126.136719 27.773438 C 125.820312 26.773438 125.5 25.769531 125.183594 24.769531 C 125.089844 24.503906 124.679688 24.636719 124.796875 24.894531 "/>
<path style=" stroke:none;fill-rule:nonzero;fill:rgb(15.689087%,25.099182%,49.409485%);fill-opacity:1;" d="M 41.976562 149.011719 C 40.414062 151.75 38.84375 154.515625 36.746094 156.890625 C 35.882812 157.875 34.121094 160.117188 32.617188 159.761719 C 31.410156 159.484375 31.003906 158.023438 31.140625 156.964844 C 31.277344 156.050781 31.734375 155.199219 32.152344 154.394531 C 32.207031 154.28125 32.167969 154.199219 32.09375 154.136719 C 34.332031 152.019531 36.183594 149.25 37.890625 146.742188 C 38.0625 146.5 37.707031 146.183594 37.542969 146.4375 C 36.039062 148.640625 34.429688 150.769531 32.679688 152.78125 C 31.753906 153.839844 30.71875 155.039062 29.328125 155.445312 C 27.726562 155.902344 25.871094 155.089844 25.917969 153.234375 C 25.964844 151.886719 26.816406 150.664062 27.585938 149.605469 C 28.429688 148.4375 29.289062 147.269531 30.136719 146.117188 L 35.261719 139.117188 C 35.441406 138.871094 35.082031 138.566406 34.910156 138.8125 C 32.671875 141.886719 30.425781 144.933594 28.171875 148.011719 C 26.914062 149.730469 24.414062 152.488281 25.828125 154.769531 C 27.121094 156.863281 29.945312 156.03125 31.457031 154.722656 C 30.769531 156.113281 30.1875 157.742188 31.113281 159.136719 C 31.949219 160.441406 33.332031 160.503906 34.519531 159.644531 C 38.039062 157.089844 40.296875 152.910156 42.394531 149.21875 C 42.546875 148.953125 42.128906 148.742188 41.976562 149.011719 "/>
<path style=" stroke:none;fill-rule:nonzero;fill:rgb(97.648621%,100%,92.939758%);fill-opacity:1;" d="M 159.464844 113.507812 C 152.855469 116.355469 142.371094 119.917969 129.074219 120.539062 C 112.441406 121.308594 99.363281 117.082031 92.144531 114.136719 C 94.5 107.851562 96.910156 99.46875 97.90625 89.410156 C 99.410156 74.195312 97.027344 61.617188 94.78125 53.5 C 96.136719 52.703125 98.171875 51.582031 100.742188 50.46875 C 103.59375 49.230469 121.039062 41.945312 141.109375 48.269531 C 143.027344 48.871094 145.339844 49.714844 147.890625 50.910156 C 147.84375 58.207031 148.257812 66.464844 149.519531 75.457031 C 151.644531 90.632812 155.550781 103.457031 159.464844 113.507812 "/>
<g clip-path="url(#clip2)" clip-rule="nonzero">
<path style=" stroke:none;fill-rule:nonzero;fill:rgb(92.158508%,62.348938%,58.428955%);fill-opacity:1;" d="M 345.609375 77.023438 C 344.875 77.632812 344.320312 78.097656 343.851562 78.519531 C 345.648438 77.210938 346.675781 76.558594 347.773438 76.867188 C 347.773438 76.867188 348.578125 77.082031 349.132812 77.84375 C 351.367188 80.925781 340.628906 99.480469 316.925781 113.800781 C 316.894531 113.816406 316.871094 113.828125 316.859375 113.84375 C 315.640625 114.582031 293.378906 127.753906 275.769531 125.972656 C 258.800781 124.261719 247.957031 108.835938 233.496094 88.285156 C 224.835938 75.976562 219.386719 64.683594 216.066406 56.777344 C 222.746094 55.546875 228.347656 55.40625 232.355469 55.53125 C 232.355469 55.53125 233.984375 55.671875 236.332031 56.070312 C 236.332031 56.070312 240.589844 56.804688 244.601562 58.160156 C 252.835938 60.933594 267.847656 92.480469 282.75 94.742188 C 295.890625 96.746094 317.699219 77.316406 331.457031 65.070312 C 332.335938 64.296875 335.96875 60.949219 338.101562 62.023438 C 338.566406 62.265625 339.117188 62.765625 339.359375 63.476562 C 339.734375 64.566406 339.300781 65.882812 338.28125 66.910156 C 341.625 64.144531 344.878906 63.394531 346.09375 64.542969 C 346.785156 65.199219 346.839844 66.492188 346.683594 67.324219 C 346.367188 69.085938 344.898438 69.953125 344.414062 70.207031 C 346.246094 69.382812 348.144531 69.574219 349.273438 70.644531 C 349.472656 70.839844 350.089844 71.421875 350.15625 72.28125 C 350.21875 73.582031 348.910156 74.285156 345.609375 77.023438 "/>
</g>
<g clip-path="url(#clip3)" clip-rule="nonzero">
<path style=" stroke:none;fill-rule:nonzero;fill:rgb(15.689087%,25.099182%,49.409485%);fill-opacity:1;" d="M 344.867188 63.859375 C 346.261719 64.058594 347.023438 65.300781 346.957031 66.660156 C 346.898438 67.953125 346.125 68.972656 345.242188 69.871094 C 347.132812 69.257812 349.839844 69.503906 350.121094 71.921875 C 350.242188 73.019531 349.523438 73.859375 348.785156 74.558594 C 347.441406 75.847656 345.972656 77.042969 344.523438 78.214844 C 341.683594 80.527344 338.71875 82.664062 335.648438 84.660156 C 335.394531 84.820312 335.121094 84.453125 335.375 84.277344 C 337.769531 82.726562 340.101562 81.078125 342.367188 79.332031 C 344.570312 77.640625 346.925781 75.886719 348.84375 73.859375 C 349.507812 73.152344 349.949219 72.253906 349.421875 71.308594 C 349.019531 70.589844 348.242188 70.109375 347.421875 69.988281 C 345.773438 69.75 344.195312 70.832031 342.882812 71.683594 C 340.570312 73.195312 338.339844 74.820312 336.195312 76.5625 C 335.957031 76.757812 335.691406 76.363281 335.921875 76.179688 C 338.449219 74.140625 341.144531 71.917969 344.058594 70.402344 C 344.074219 70.367188 344.082031 70.320312 344.128906 70.292969 C 345.289062 69.21875 346.6875 67.894531 346.476562 66.152344 C 346.199219 63.894531 343.867188 64.175781 342.351562 64.925781 C 339.425781 66.347656 336.648438 68.273438 333.894531 70.007812 C 333.640625 70.171875 333.359375 69.789062 333.617188 69.628906 C 335.792969 68.246094 337.976562 66.90625 340.191406 65.601562 C 341.554688 64.800781 343.199219 63.632812 344.867188 63.859375 "/>
</g>
<path style=" stroke:none;fill-rule:nonzero;fill:rgb(92.158508%,62.348938%,58.428955%);fill-opacity:1;" d="M 267.511719 227.304688 C 271.910156 261.855469 276.304688 296.378906 280.691406 330.945312 C 275.171875 332.296875 269.636719 333.671875 264.113281 335 C 259.269531 322.1875 254.507812 308.78125 249.917969 294.773438 C 244.4375 278.074219 239.644531 261.886719 235.445312 246.34375 C 241.078125 244.550781 248.257812 241.589844 255.777344 236.632812 C 260.519531 233.519531 264.390625 230.28125 267.511719 227.304688 "/>
<path style=" stroke:none;fill-rule:nonzero;fill:rgb(92.158508%,62.348938%,58.428955%);fill-opacity:1;" d="M 231.445312 244.054688 C 230.6875 259.90625 229.796875 275.964844 228.78125 292.207031 C 227.789062 308.074219 226.699219 323.753906 225.515625 339.238281 C 219.851562 340.082031 214.179688 340.933594 208.519531 341.796875 C 205.246094 314.074219 201.96875 286.316406 198.699219 258.59375 C 202.78125 256.550781 207.015625 254.503906 211.425781 252.496094 C 218.292969 249.359375 224.996094 246.558594 231.445312 244.054688 "/>
<path style=" stroke:none;fill-rule:nonzero;fill:rgb(92.158508%,62.348938%,58.428955%);fill-opacity:1;" d="M 229.832031 25.015625 C 231.433594 27.125 230.496094 29.597656 230.371094 29.941406 C 229.621094 31.816406 228.015625 32.601562 227.582031 32.820312 C 225.730469 33.703125 224.023438 33.296875 223.550781 33.164062 C 223.503906 33.566406 223.40625 34.167969 223.273438 34.867188 C 222.726562 37.523438 222.289062 39.488281 221.121094 41.382812 C 218.335938 45.796875 212.625 46.519531 212.234375 46.582031 C 204.414062 47.769531 197.015625 42.097656 195.777344 33.980469 C 195.644531 32.332031 195.535156 30.683594 195.398438 29.039062 C 195.273438 27.808594 194.824219 22.398438 198.589844 17.667969 C 199.445312 16.578125 202.207031 13.226562 207.046875 12.367188 C 212.429688 11.441406 216.523438 14.238281 217.730469 15.171875 C 221.945312 18.40625 222.949219 22.898438 223.171875 24.070312 C 223.570312 23.765625 224.351562 23.289062 225.417969 23.167969 C 226.976562 22.964844 228.757812 23.578125 229.832031 25.015625 "/>
<path style=" stroke:none;fill-rule:nonzero;fill:rgb(92.158508%,62.348938%,58.428955%);fill-opacity:1;" d="M 234.679688 55.476562 C 230.183594 54.925781 225.246094 54.988281 220.097656 55.753906 L 218.3125 35.003906 L 207.691406 35.925781 L 209.476562 56.664062 C 208.382812 56.617188 202.84375 56.4375 196.605469 58.988281 C 194.800781 75.601562 198.71875 91.714844 202.285156 107.863281 C 207.039062 109.5625 212.085938 110.378906 217.203125 110.183594 C 225.667969 109.863281 233.707031 106.8125 240.402344 101.714844 C 240.421875 86.132812 236.789062 70.875 234.679688 55.476562 "/>
<path style=" stroke:none;fill-rule:nonzero;fill:rgb(15.689087%,25.099182%,49.409485%);fill-opacity:1;" d="M 262.859375 331.140625 C 268.816406 329.699219 274.78125 328.269531 280.734375 326.835938 C 283.601562 336.71875 286.472656 346.597656 289.34375 356.46875 C 286.496094 357.25 283.644531 358.019531 280.800781 358.78125 C 279.308594 354.339844 277.832031 349.894531 276.351562 345.460938 C 274.550781 349.496094 270.628906 356.644531 262.765625 361.4375 C 250.839844 368.71875 236.027344 366.808594 235.472656 364.277344 C 234.925781 361.746094 249.035156 360.441406 257.277344 348.476562 C 261.320312 342.613281 262.546875 336.191406 262.859375 331.140625 "/>
<path style=" stroke:none;fill-rule:nonzero;fill:rgb(15.689087%,25.099182%,49.409485%);fill-opacity:1;" d="M 207.703125 339.710938 C 213.820312 339.199219 219.925781 338.6875 226.023438 338.175781 C 227.359375 348.378906 228.683594 358.582031 230.019531 368.792969 C 227.078125 369.117188 224.160156 369.449219 221.226562 369.78125 C 220.4375 365.167969 219.644531 360.550781 218.859375 355.945312 C 216.476562 359.660156 211.511719 366.125 203.003906 369.679688 C 190.089844 375.0625 175.75 370.917969 175.589844 368.34375 C 175.425781 365.769531 189.566406 366.609375 199.53125 356.035156 C 204.441406 350.824219 206.640625 344.648438 207.703125 339.710938 "/>
<path style=" stroke:none;fill-rule:nonzero;fill:rgb(15.689087%,25.099182%,49.409485%);fill-opacity:1;" d="M 207.015625 47 C 209.867188 47.347656 212.691406 46.71875 215.125 45.195312 C 215.339844 45.070312 215.144531 44.722656 214.941406 44.859375 C 212.5625 46.355469 209.804688 46.953125 207.023438 46.625 C 206.765625 46.582031 206.785156 46.96875 207.015625 47 "/>
<path style=" stroke:none;fill-rule:nonzero;fill:rgb(15.689087%,25.099182%,49.409485%);fill-opacity:1;" d="M 206.667969 39.144531 C 208.164062 39.421875 209.648438 39.054688 210.832031 38.09375 C 211.074219 37.898438 210.796875 37.515625 210.554688 37.703125 C 209.464844 38.585938 208.136719 38.949219 206.757812 38.679688 C 206.457031 38.632812 206.367188 39.097656 206.667969 39.144531 "/>
<path style=" stroke:none;fill-rule:nonzero;fill:rgb(15.689087%,25.099182%,49.409485%);fill-opacity:1;" d="M 217.015625 26.65625 C 218.820312 26.558594 220.617188 26.472656 222.40625 26.390625 C 223.027344 27.78125 223.632812 29.164062 224.230469 30.558594 C 224.492188 29.691406 224.792969 28.394531 224.929688 26.824219 C 224.929688 26.824219 224.929688 26.730469 224.941406 26.605469 C 225.023438 26.632812 225.109375 26.625 225.171875 26.546875 C 225.859375 25.707031 227.257812 25.800781 227.859375 26.707031 C 228.019531 26.941406 228.355469 26.675781 228.203125 26.433594 C 227.480469 25.335938 225.855469 25.238281 224.964844 26.152344 C 224.972656 25.589844 224.964844 24.707031 224.863281 23.625 C 224.601562 20.75 223.757812 18.242188 223.113281 16.933594 C 220.949219 12.574219 214.851562 9.773438 209.269531 9.84375 C 208.515625 9.839844 199.265625 10.148438 195.292969 17.730469 C 192.894531 22.308594 193.828125 26.855469 194.171875 28.265625 C 201.644531 27.609375 209.257812 27.070312 217.015625 26.65625 "/>
<path style=" stroke:none;fill-rule:nonzero;fill:rgb(15.689087%,25.099182%,49.409485%);fill-opacity:1;" d="M 206.984375 33.867188 C 206.828125 34.921875 206.695312 35.957031 206.539062 36.996094 C 206.542969 37.007812 206.550781 37.007812 206.550781 37.027344 C 206.558594 37.074219 206.574219 37.117188 206.574219 37.128906 C 206.589844 37.140625 206.589844 37.140625 206.589844 37.160156 C 206.628906 37.203125 206.6875 37.242188 206.78125 37.234375 C 207.472656 37.105469 208.121094 36.914062 208.769531 36.679688 C 209.019531 36.582031 208.863281 36.179688 208.582031 36.285156 C 208.054688 36.476562 207.527344 36.636719 206.992188 36.757812 C 207.109375 35.820312 207.242188 34.875 207.386719 33.941406 C 207.449219 33.652344 207.035156 33.589844 206.984375 33.867188 "/>
<path style=" stroke:none;fill-rule:nonzero;fill:rgb(97.648621%,100%,92.939758%);fill-opacity:1;" d="M 286.066406 241.8125 C 278.054688 247.347656 266.195312 254.167969 250.683594 258.691406 C 226.875 265.644531 206.375 263.722656 194.902344 261.746094 C 192.382812 241.488281 190.792969 218.117188 191.34375 192.246094 C 192.054688 159.132812 196.128906 130.011719 201.085938 105.917969 C 204.5 107.417969 210.890625 109.691406 219.105469 109.382812 C 229.722656 108.984375 237.296875 104.488281 240.472656 102.332031 C 246.078125 109.628906 253.40625 120.875 258.035156 135.90625 C 264.660156 157.417969 260.597656 169.855469 264.054688 190.566406 C 266.203125 203.492188 271.574219 221.386719 286.066406 241.8125 "/>
<path style=" stroke:none;fill-rule:nonzero;fill:rgb(97.648621%,100%,92.939758%);fill-opacity:1;" d="M 216.667969 31.191406 C 215.777344 27.054688 210.417969 27.484375 210.179688 31.699219 C 210.179688 31.699219 210.183594 31.703125 210.183594 31.703125 C 211.078125 35.839844 216.433594 35.414062 216.667969 31.195312 C 216.667969 31.195312 216.667969 31.191406 216.667969 31.191406 Z M 203.890625 35 C 202.289062 36.886719 198.945312 36.40625 198.257812 33.21875 C 198.441406 29.960938 201.664062 28.964844 203.542969 30.570312 C 204.875 31.695312 205.019531 33.683594 203.890625 35 "/>
<path style=" stroke:none;fill-rule:nonzero;fill:rgb(15.689087%,25.099182%,49.409485%);fill-opacity:1;" d="M 201.6875 30.429688 C 201.238281 30.363281 201.03125 31.234375 201.226562 32.363281 C 201.421875 33.492188 201.941406 34.476562 202.394531 34.53125 C 202.839844 34.589844 203.046875 33.726562 202.851562 32.597656 C 202.644531 31.46875 202.128906 30.5 201.6875 30.429688 Z M 213.496094 30.902344 C 213.320312 29.761719 213.554688 28.910156 213.992188 28.980469 C 214.441406 29.058594 214.9375 30.03125 215.105469 31.171875 C 215.273438 32.316406 215.046875 33.167969 214.605469 33.101562 C 214.167969 33.019531 213.667969 32.035156 213.496094 30.902344 "/>
<path style=" stroke:none;fill-rule:nonzero;fill:rgb(97.648621%,100%,92.939758%);fill-opacity:1;" d="M 133.558594 22.246094 C 133.074219 18.046875 127.703125 17.945312 127.050781 22.117188 C 127.050781 22.117188 127.050781 22.121094 127.050781 22.121094 C 127.535156 26.328125 132.910156 26.429688 133.558594 22.253906 C 133.558594 22.25 133.558594 22.25 133.558594 22.246094 Z M 120.46875 24.789062 C 118.691406 26.503906 115.410156 25.699219 115.039062 22.457031 C 115.539062 19.238281 118.84375 18.5625 120.554688 20.34375 C 121.769531 21.597656 121.71875 23.585938 120.46875 24.789062 "/>
<path style=" stroke:none;fill-rule:nonzero;fill:rgb(15.689087%,25.099182%,49.409485%);fill-opacity:1;" d="M 118.722656 20.023438 C 118.28125 19.910156 117.992188 20.757812 118.074219 21.902344 C 118.15625 23.046875 118.582031 24.074219 119.023438 24.171875 C 119.460938 24.273438 119.753906 23.4375 119.667969 22.292969 C 119.578125 21.152344 119.152344 20.132812 118.722656 20.023438 Z M 130.429688 21.65625 C 130.367188 20.5 130.683594 19.671875 131.113281 19.785156 C 131.554688 19.90625 131.949219 20.925781 132 22.078125 C 132.058594 23.234375 131.746094 24.058594 131.316406 23.949219 C 130.886719 23.824219 130.488281 22.796875 130.429688 21.65625 "/>
<path style=" stroke:none;fill-rule:nonzero;fill:rgb(97.648621%,100%,92.939758%);fill-opacity:1;" d="M 219.648438 340.214844 C 217.804688 348.488281 213.902344 356.601562 207.3125 362.128906 C 201.921875 366.652344 195 369.191406 188 369.488281 C 184.1875 369.648438 180.375 369.117188 176.761719 367.90625 C 189.308594 367.191406 202.101562 361.96875 208.53125 350.574219 C 210.320312 347.402344 211.460938 343.917969 211.820312 340.300781 C 211.847656 340.027344 211.421875 339.964844 211.402344 340.226562 C 210.769531 346.59375 207.652344 352.441406 203.144531 356.929688 C 198.667969 361.375 192.890625 364.3125 186.824219 365.917969 C 183.332031 366.847656 179.734375 367.339844 176.128906 367.515625 C 176.003906 367.515625 175.945312 367.613281 175.957031 367.714844 C 175.816406 367.800781 175.773438 368.015625 175.960938 368.089844 C 182.730469 370.523438 190.214844 370.511719 197.03125 368.277344 C 204.488281 365.84375 210.613281 360.769531 214.679688 354.074219 C 217.257812 349.832031 218.992188 345.128906 220.078125 340.28125 C 220.140625 340.019531 219.714844 339.949219 219.648438 340.214844 "/>
<path style=" stroke:none;fill-rule:nonzero;fill:rgb(97.648621%,100%,92.939758%);fill-opacity:1;" d="M 274.242188 328.402344 C 273.976562 336.871094 271.664062 345.582031 266.222656 352.242188 C 261.773438 357.6875 255.453125 361.480469 248.621094 363.082031 C 244.914062 363.957031 241.066406 364.144531 237.277344 363.640625 C 249.46875 360.589844 261.070312 353.066406 265.246094 340.660156 C 266.410156 337.21875 266.882812 333.570312 266.5625 329.941406 C 266.539062 329.671875 266.109375 329.679688 266.132812 329.953125 C 266.695312 336.324219 264.734375 342.664062 261.136719 347.90625 C 257.582031 353.121094 252.445312 357.074219 246.804688 359.800781 C 243.546875 361.375 240.105469 362.535156 236.589844 363.371094 C 236.464844 363.398438 236.4375 363.5 236.453125 363.601562 C 236.335938 363.707031 236.335938 363.9375 236.527344 363.96875 C 243.636719 365.085938 250.980469 363.675781 257.273438 360.210938 C 264.144531 356.421875 269.203125 350.277344 271.949219 342.945312 C 273.691406 338.285156 274.511719 333.339844 274.671875 328.390625 C 274.671875 328.117188 274.242188 328.128906 274.242188 328.402344 "/>
<path style=" stroke:none;fill-rule:nonzero;fill:rgb(15.689087%,25.099182%,49.409485%);fill-opacity:1;" d="M 139.921875 120.738281 L 115.304688 287.832031 C 115.140625 287.894531 114.964844 287.96875 114.804688 288.03125 L 139.457031 120.738281 C 139.605469 120.742188 139.761719 120.75 139.921875 120.738281 "/>
<path style=" stroke:none;fill-rule:nonzero;fill:rgb(15.689087%,25.099182%,49.409485%);fill-opacity:1;" d="M 161.582031 351.449219 C 172.542969 360.992188 186.53125 358.761719 186.621094 361.339844 C 186.703125 363.605469 173.46875 367.140625 159.46875 365.375 C 151.914062 364.425781 145.882812 362.152344 141.839844 360.28125 C 141.667969 362.613281 141.503906 364.953125 141.339844 367.289062 C 138.390625 367.238281 135.457031 367.203125 132.492188 367.164062 C 132.816406 356.878906 133.144531 346.582031 133.464844 336.304688 C 139.585938 336.21875 145.710938 336.113281 151.84375 336.027344 C 153.398438 340.832031 156.195312 346.75 161.582031 351.449219 "/>
<path style=" stroke:none;fill-rule:nonzero;fill:rgb(73.728943%,90.19928%,88.62915%);fill-opacity:1;" d="M 261.457031 91.546875 C 263.835938 89.371094 266.433594 87.5 269.085938 85.699219 C 265.257812 81.574219 260.851562 76.023438 255.238281 68.9375 C 250.71875 63.230469 250.351562 61.835938 247.179688 59.523438 C 236.726562 51.914062 222.546875 53.796875 213.203125 55.039062 C 205.726562 56.027344 201.988281 56.527344 197.160156 58.765625 C 185.707031 64.078125 182.691406 71.675781 170.152344 82.289062 C 173.371094 87.257812 175.929688 92.703125 178.78125 97.859375 C 180.703125 101.332031 182.558594 104.832031 184.375 108.363281 C 184.734375 108.070312 185.09375 107.777344 185.457031 107.480469 C 189.214844 104.355469 193.96875 100.058594 199.332031 94.28125 C 200.257812 98.8125 201.289062 103.335938 202.285156 107.863281 C 207.039062 109.5625 212.085938 110.375 217.203125 110.179688 C 225.664062 109.863281 233.707031 106.808594 240.398438 101.710938 C 240.40625 100.4375 240.378906 99.167969 240.328125 97.886719 C 242.496094 100.871094 244.609375 103.6875 246.710938 106.300781 C 251.179688 100.980469 256.347656 96.230469 261.457031 91.546875 "/>
</g>
</svg>
