<?xml version="1.0" encoding="UTF-8"?>
<svg xmlns="http://www.w3.org/2000/svg" xmlns:xlink="http://www.w3.org/1999/xlink" width="375pt" height="374.999991pt" viewBox="0 0 375 374.999991" version="1.2">
<defs>
<clipPath id="clip1">
  <path d="M 271 228.199219 L 374.894531 228.199219 L 374.894531 374.910156 L 271 374.910156 Z M 271 228.199219 "/>
</clipPath>
<clipPath id="clip2">
  <path d="M 281 228.199219 L 374.894531 228.199219 L 374.894531 351 L 281 351 Z M 281 228.199219 "/>
</clipPath>
</defs>
<g id="surface1">
<path style=" stroke:none;fill-rule:nonzero;fill:rgb(15.689087%,25.099182%,49.409485%);fill-opacity:1;" d="M 96.222656 54.21875 C 97.773438 54.835938 102.984375 56.839844 109.398438 55.738281 C 124.507812 53.160156 135.691406 35.230469 131.296875 20.496094 C 128.617188 11.503906 120.828125 6.039062 116.964844 3.710938 C 117.324219 6.328125 117.28125 9.585938 114.972656 11.097656 C 111.753906 13.207031 107.109375 9.960938 100.773438 10.304688 C 92.761719 10.742188 86.183594 16.691406 83.285156 21.207031 C 75.96875 32.632812 83.175781 49.023438 96.222656 54.21875 "/>
<path style=" stroke:none;fill-rule:nonzero;fill:rgb(92.158508%,62.348938%,58.428955%);fill-opacity:1;" d="M 269.332031 293.28125 C 276.523438 305.621094 283.71875 317.957031 290.90625 330.296875 C 284.613281 334.207031 278.324219 338.121094 272.027344 342.035156 C 261.414062 330.839844 250.796875 319.652344 240.183594 308.457031 C 249.898438 303.402344 259.617188 298.339844 269.332031 293.28125 "/>
<path style=" stroke:none;fill-rule:nonzero;fill:rgb(92.158508%,62.348938%,58.428955%);fill-opacity:1;" d="M 292.136719 208.140625 C 302.15625 218.324219 312.175781 228.5 322.195312 238.675781 C 317.066406 244.027344 311.933594 249.371094 306.804688 254.71875 C 293.75 246.496094 280.699219 238.277344 267.644531 230.058594 C 275.8125 222.75 283.976562 215.449219 292.136719 208.140625 "/>
<path style=" stroke:none;fill-rule:nonzero;fill:rgb(92.158508%,62.348938%,58.428955%);fill-opacity:1;" d="M 100.96875 98.742188 C 111.421875 122.988281 126.691406 138.394531 130.59375 142.0625 C 155.796875 165.730469 170.710938 181.890625 185.894531 178.019531 C 189.808594 177.019531 192.265625 175.097656 209.644531 148.378906 C 209.644531 148.378906 235.21875 109.050781 244 76.292969 C 245.539062 70.550781 246.773438 63.996094 244.246094 62.425781 C 242.777344 61.519531 240.480469 62.554688 238.847656 63.511719 C 239.710938 60.789062 238.964844 58.289062 237.679688 57.695312 C 236.230469 57.023438 233.261719 58.398438 232.035156 61.851562 C 231.820312 60.984375 231.484375 56.273438 228.710938 56.042969 C 226.804688 55.878906 226.269531 58.128906 224.640625 63.050781 C 222.140625 70.605469 221.222656 73.335938 220.078125 73.316406 C 218.660156 73.285156 219.039062 66.351562 214.847656 64.429688 C 214.402344 64.226562 212.890625 63.535156 211.769531 64.183594 C 209.675781 65.390625 210.820312 70.21875 211.777344 79.292969 C 212.246094 83.746094 212.484375 87.425781 212.609375 89.925781 C 202.652344 103.433594 192.691406 116.945312 182.726562 130.453125 C 172.855469 118.714844 164.035156 109.125 157.136719 101.898438 C 140.332031 84.304688 134.003906 79.816406 126.273438 76.835938 C 125.21875 76.429688 103.945312 68.449219 97.605469 76.496094 C 95.855469 78.71875 94.328125 83.347656 100.96875 98.742188 "/>
<path style=" stroke:none;fill-rule:nonzero;fill:rgb(92.158508%,62.348938%,58.428955%);fill-opacity:1;" d="M 82.347656 42.234375 C 82.414062 43.183594 82.671875 44.074219 83.078125 44.859375 C 84.269531 47.164062 86.898438 48.214844 89.023438 48.289062 C 90.25 48.332031 91.261719 48.039062 91.945312 47.773438 C 92.171875 48.746094 92.546875 50.105469 93.167969 51.667969 C 93.621094 52.800781 95.101562 56.507812 97.519531 58.945312 C 102.042969 63.519531 109.132812 62.867188 109.617188 62.835938 C 119.355469 62.179688 126.769531 53.371094 126.082031 43.265625 L 125.691406 37.421875 C 125.007812 27.316406 116.476562 19.585938 106.738281 20.246094 C 101.871094 20.574219 97.578125 22.945312 94.589844 26.488281 C 92.453125 29.027344 90.984375 32.183594 90.453125 35.632812 C 89.730469 35.398438 88.953125 35.292969 88.148438 35.34375 C 84.703125 35.574219 82.105469 38.664062 82.347656 42.234375 "/>
<path style=" stroke:none;fill-rule:nonzero;fill:rgb(92.158508%,62.348938%,58.428955%);fill-opacity:1;" d="M 92.527344 45.835938 L 108.621094 41.011719 L 119.714844 78.019531 L 103.621094 82.839844 L 92.527344 45.835938 "/>
<path style=" stroke:none;fill-rule:nonzero;fill:rgb(15.689087%,25.099182%,49.409485%);fill-opacity:1;" d="M 91.960938 41.234375 C 91.597656 43.070312 91.238281 44.90625 90.875 46.738281 C 90.324219 45.746094 89.613281 44.285156 89.035156 42.421875 C 89.035156 42.421875 87.125 36.273438 88.59375 30.058594 C 91.0625 19.585938 101.316406 16.671875 102.0625 16.476562 C 107.980469 14.914062 117.132812 15.914062 122.355469 23.582031 C 124.8125 27.175781 125.589844 31.054688 125.875 33.425781 C 124.882812 34.035156 122.300781 35.40625 118.785156 34.882812 C 114.375 34.21875 111.511719 31.023438 110.742188 30.117188 C 109.914062 32.027344 108.113281 35.511719 104.585938 38.144531 C 99.335938 42.074219 93.773438 41.507812 91.960938 41.234375 "/>
<path style=" stroke:none;fill-rule:nonzero;fill:rgb(15.689087%,25.099182%,49.409485%);fill-opacity:1;" d="M 71.113281 219.964844 C 74.027344 229.183594 75.539062 233.960938 77.355469 236.859375 C 90.601562 258.003906 157.699219 239.128906 167.113281 236.410156 C 191.863281 266.523438 216.617188 296.640625 241.371094 326.757812 L 291.195312 302.035156 C 277.695312 281.261719 264.191406 260.488281 250.683594 239.714844 C 243.386719 227.957031 220.683594 193.675781 194.003906 187.875 C 191.789062 187.394531 185.257812 186.175781 177.308594 185.238281 C 158.847656 183.070312 144.925781 183.871094 140.691406 184.160156 C 134.210938 184.605469 125.71875 185.527344 115.847656 187.5625 C 116.410156 186.175781 123.753906 167.257812 113.253906 153.335938 C 101.78125 138.113281 77.644531 137.050781 67.441406 146.722656 C 59.742188 154.023438 61.195312 166.304688 63.765625 188.015625 C 65.382812 201.6875 69.082031 213.550781 71.113281 219.964844 "/>
<path style=" stroke:none;fill-rule:nonzero;fill:rgb(15.689087%,25.099182%,49.409485%);fill-opacity:1;" d="M 105.269531 245.304688 C 151.179688 242.851562 187.148438 205.195312 201.242188 188.726562 L 275.503906 251.425781 L 311.394531 208.933594 L 253.8125 160.324219 C 225.753906 133.433594 201.671875 131.652344 192.121094 131.777344 C 180.851562 131.921875 169.648438 134.992188 126.421875 160.605469 C 118.824219 165.101562 111.664062 169.457031 104.980469 173.601562 C 104.960938 172.851562 104.757812 167.410156 102.660156 161.078125 C 101.398438 157.269531 97.734375 147.414062 88.988281 143.230469 C 82.113281 139.941406 72.808594 140.546875 67.070312 144.320312 C 46.105469 158.109375 52.117188 227.808594 84.703125 242.734375 C 91.988281 246.074219 98.996094 245.640625 105.269531 245.304688 "/>
<path style=" stroke:none;fill-rule:nonzero;fill:rgb(79.60968%,92.939758%,86.669922%);fill-opacity:1;" d="M 52.136719 125.699219 L 60.042969 99.449219 C 67.050781 76.207031 91.640625 62.964844 114.691406 70.027344 L 115.039062 70.136719 C 138.089844 77.199219 151.222656 101.996094 144.21875 125.238281 L 136.3125 151.488281 C 129.3125 174.730469 104.71875 187.972656 81.664062 180.910156 L 81.316406 180.800781 C 58.265625 173.738281 45.132812 148.941406 52.136719 125.699219 "/>
<path style=" stroke:none;fill-rule:nonzero;fill:rgb(97.648621%,100%,92.939758%);fill-opacity:1;" d="M 102.375 47.277344 C 103.511719 48.902344 105.753906 49.292969 107.378906 48.160156 C 109.007812 47.023438 109.398438 44.78125 108.265625 43.15625 C 107.128906 41.53125 104.886719 41.136719 103.261719 42.269531 C 101.632812 43.410156 101.242188 45.648438 102.375 47.277344 Z M 117.957031 38.8125 C 119.582031 37.675781 121.824219 38.070312 122.960938 39.699219 C 124.101562 41.324219 123.703125 43.5625 122.078125 44.699219 C 120.453125 45.835938 118.210938 45.441406 117.070312 43.816406 C 115.933594 42.1875 116.332031 39.953125 117.957031 38.8125 "/>
<path style=" stroke:none;fill-rule:nonzero;fill:rgb(79.60968%,92.939758%,86.669922%);fill-opacity:1;" d="M 109.003906 67.226562 C 110.917969 67.304688 112.828125 67.378906 114.738281 67.457031 C 116.304688 67.523438 117.867188 67.589844 117.972656 67.59375 C 120.496094 67.707031 133.472656 70.4375 147.996094 85.09375 C 152.222656 89.359375 157.921875 95.996094 163.019531 105.378906 C 157.328125 110.996094 151.625 116.632812 145.917969 122.308594 C 140.234375 127.96875 134.566406 133.640625 128.878906 139.300781 C 125.007812 133.609375 115.289062 117.714844 110 95.664062 C 118.851562 86.792969 116.300781 75.015625 109.003906 67.226562 "/>
<path style=" stroke:none;fill-rule:nonzero;fill:rgb(69.018555%,90.589905%,88.238525%);fill-opacity:1;" d="M 185.761719 192.097656 C 183.164062 196.839844 183.417969 201.542969 183.496094 203.886719 C 183.574219 206.28125 184.21875 230.367188 177.082031 244.113281 C 170.820312 256.175781 158.242188 260.902344 157.007812 261.347656 C 139.097656 267.789062 121.558594 256.769531 108.652344 248.660156 C 97.683594 241.773438 85.527344 234.132812 80.378906 218.746094 C 79.261719 215.417969 75.398438 203.320312 80.347656 190.550781 C 84.945312 178.667969 96.871094 167.003906 110.160156 163.363281 C 114.398438 162.203125 119.257812 161.722656 123.640625 157.492188 C 127.035156 154.21875 128.441406 150.320312 130.347656 145.050781 C 133.804688 135.453125 132.195312 133.140625 135.726562 128.324219 C 136.601562 127.125 140.074219 122.535156 146.066406 121.046875 C 150.019531 120.070312 153.417969 120.847656 156.066406 121.605469 C 165.234375 124.238281 171.265625 128.328125 182.046875 135.121094 C 194.558594 143.015625 198.230469 144.941406 202.804688 150.523438 C 207.664062 156.449219 208.539062 160.382812 208.519531 163.328125 C 208.496094 168.257812 205.980469 172.015625 204.863281 173.675781 C 202.632812 177.011719 201.253906 177.195312 194.050781 183.523438 C 189.4375 187.570312 187.105469 189.652344 185.761719 192.097656 "/>
<path style=" stroke:none;fill-rule:nonzero;fill:rgb(79.60968%,92.939758%,86.669922%);fill-opacity:1;" d="M 152.433594 164.152344 L 166.003906 172.714844 L 244.910156 47.710938 L 231.332031 39.148438 L 152.433594 164.152344 "/>
<path style=" stroke:none;fill-rule:nonzero;fill:rgb(69.018555%,90.589905%,88.238525%);fill-opacity:1;" d="M 227.882812 38.699219 C 226.585938 44.957031 229.8125 50.984375 234.984375 52.953125 C 238.851562 54.425781 243.390625 53.480469 246.800781 50.632812 C 247.929688 46.507812 249.597656 41.765625 252.121094 36.742188 C 257.644531 25.757812 264.851562 18.25 270.164062 13.625 C 269.945312 12.480469 268.847656 7.484375 264.121094 4.066406 C 258.441406 -0.0390625 252.128906 1.460938 251.242188 1.6875 C 249.875 6.9375 247.292969 14.441406 242.183594 22.421875 C 237.324219 30 231.925781 35.296875 227.882812 38.699219 "/>
<path style=" stroke:none;fill-rule:nonzero;fill:rgb(79.60968%,92.939758%,86.669922%);fill-opacity:1;" d="M 138.785156 171.652344 C 134.199219 178.917969 136.371094 188.527344 143.640625 193.113281 C 150.90625 197.699219 160.519531 195.523438 165.109375 188.257812 C 169.695312 180.988281 167.519531 171.382812 160.25 166.796875 C 152.984375 162.210938 143.371094 164.386719 138.785156 171.652344 "/>
<path style=" stroke:none;fill-rule:nonzero;fill:rgb(79.60968%,92.939758%,86.669922%);fill-opacity:1;" d="M 251.128906 13.148438 L 251.796875 12.222656 C 252.398438 11.394531 252.207031 10.222656 251.378906 9.625 L 245.71875 5.546875 C 244.886719 4.945312 243.71875 5.132812 243.117188 5.964844 L 242.453125 6.890625 C 241.855469 7.71875 242.042969 8.890625 242.875 9.488281 L 248.535156 13.566406 C 249.363281 14.167969 250.535156 13.980469 251.128906 13.148438 Z M 242.742188 24.785156 L 243.410156 23.859375 C 244.007812 23.027344 243.816406 21.859375 242.988281 21.257812 L 237.332031 17.179688 C 236.496094 16.582031 235.328125 16.773438 234.730469 17.605469 L 234.0625 18.53125 C 233.464844 19.359375 233.652344 20.53125 234.488281 21.128906 L 240.144531 25.207031 C 240.972656 25.804688 242.144531 25.613281 242.742188 24.785156 Z M 234.351562 36.417969 L 235.019531 35.496094 C 235.617188 34.664062 235.429688 33.496094 234.601562 32.898438 L 228.9375 28.820312 C 228.109375 28.222656 226.9375 28.410156 226.339844 29.238281 L 225.675781 30.164062 C 225.078125 30.996094 225.265625 32.164062 226.09375 32.761719 L 231.757812 36.84375 C 232.585938 37.441406 233.753906 37.253906 234.351562 36.417969 Z M 268.886719 25.941406 L 269.554688 25.015625 C 270.152344 24.183594 269.960938 23.019531 269.132812 22.421875 L 263.46875 18.339844 C 262.640625 17.742188 261.46875 17.929688 260.871094 18.761719 L 260.207031 19.6875 C 259.609375 20.515625 259.796875 21.6875 260.625 22.285156 L 266.289062 26.363281 C 267.117188 26.964844 268.289062 26.769531 268.886719 25.941406 Z M 260.496094 37.582031 L 261.164062 36.65625 C 261.761719 35.824219 261.570312 34.652344 260.746094 34.054688 L 255.082031 29.976562 C 254.253906 29.378906 253.082031 29.566406 252.484375 30.398438 L 251.816406 31.320312 C 251.21875 32.152344 251.410156 33.320312 252.238281 33.921875 L 257.902344 38 C 258.726562 38.597656 259.898438 38.410156 260.496094 37.582031 Z M 246.691406 41.613281 L 252.351562 45.691406 C 253.183594 46.289062 253.371094 47.460938 252.777344 48.289062 L 252.109375 49.214844 C 251.511719 50.046875 250.339844 50.238281 249.507812 49.640625 L 243.847656 45.558594 C 243.019531 44.957031 242.832031 43.789062 243.429688 42.960938 L 244.09375 42.035156 C 244.695312 41.207031 245.863281 41.011719 246.691406 41.613281 "/>
<path style=" stroke:none;fill-rule:nonzero;fill:rgb(15.689087%,25.099182%,49.409485%);fill-opacity:1;" d="M 246.613281 7.328125 C 247.300781 7.558594 247.339844 10.140625 247.339844 10.644531 C 247.339844 11.695312 247.214844 12.960938 246.628906 13.871094 C 246.214844 13.785156 245.980469 13.398438 246.082031 12.996094 C 246.195312 12.539062 245.496094 12.328125 245.382812 12.78125 C 245.152344 13.6875 245.738281 14.507812 246.652344 14.617188 C 246.710938 14.625 246.734375 14.589844 246.777344 14.578125 C 246.90625 14.597656 247.035156 14.585938 247.136719 14.453125 C 248.050781 13.277344 248.144531 11.355469 248.042969 9.914062 C 247.972656 8.957031 247.902344 6.992188 246.824219 6.628906 C 246.378906 6.480469 246.167969 7.179688 246.613281 7.328125 Z M 241.53125 39.886719 L 127.066406 221.230469 C 126.8125 221.628906 127.433594 222.019531 127.679688 221.621094 L 242.152344 40.273438 C 242.160156 40.257812 242.152344 40.238281 242.160156 40.222656 C 242.207031 40.207031 242.253906 40.207031 242.296875 40.15625 C 245.640625 36.25 248.984375 32.339844 252.515625 28.59375 C 254.273438 26.722656 256.074219 24.894531 257.945312 23.128906 C 259.136719 22.007812 263.320312 17.246094 265.125 19.089844 C 264.289062 19.46875 263.476562 20.386719 262.964844 21.019531 C 262.417969 21.691406 261.542969 22.738281 261.933594 23.675781 C 262.175781 24.265625 262.78125 24.46875 263.34375 24.238281 C 263.78125 24.054688 263.441406 23.40625 263.007812 23.585938 C 262.542969 23.199219 262.496094 22.800781 262.871094 22.394531 C 262.945312 22.28125 263.019531 22.167969 263.09375 22.058594 C 263.339844 21.691406 263.625 21.351562 263.921875 21.03125 C 264.050781 20.890625 265.9375 19.265625 265.960938 19.796875 C 265.976562 20.261719 266.707031 20.292969 266.691406 19.820312 C 266.667969 19.316406 266.351562 18.980469 265.917969 18.914062 C 264.929688 17.519531 263.285156 17.726562 261.949219 18.632812 C 259.492188 20.300781 257.289062 22.695312 255.191406 24.785156 C 250.46875 29.488281 246.132812 34.558594 241.804688 39.621094 C 241.777344 39.652344 241.785156 39.691406 241.769531 39.726562 C 241.679688 39.738281 241.59375 39.785156 241.53125 39.886719 Z M 244.222656 40.695312 L 129.757812 222.035156 C 129.503906 222.4375 130.125 222.824219 130.371094 222.429688 L 244.742188 41.234375 C 244.761719 41.222656 244.78125 41.230469 244.800781 41.210938 C 246.5625 39.246094 248.355469 37.304688 250.191406 35.410156 C 251.476562 34.082031 253.667969 30.980469 255.847656 30.824219 C 254.746094 31.714844 254.121094 33.636719 253.824219 34.734375 C 253.703125 35.1875 254.402344 35.398438 254.523438 34.941406 C 254.820312 33.839844 255.671875 30.984375 257.179688 31.070312 C 257.652344 31.09375 257.679688 30.367188 257.207031 30.339844 C 257.097656 30.335938 257 30.371094 256.902344 30.382812 C 256.886719 30.265625 256.832031 30.15625 256.667969 30.125 C 254.546875 29.691406 253.070312 31.445312 251.714844 32.8125 C 249.207031 35.332031 246.773438 37.925781 244.402344 40.570312 C 244.335938 40.59375 244.273438 40.621094 244.222656 40.695312 Z M 245.023438 44.503906 L 132.449219 222.851562 C 132.195312 223.25 132.8125 223.636719 133.0625 223.242188 L 245.367188 45.324219 C 245.390625 45.296875 245.421875 45.296875 245.441406 45.265625 C 245.5 45.152344 245.558594 45.035156 245.621094 44.921875 L 245.765625 44.699219 C 245.765625 44.683594 245.769531 44.664062 245.769531 44.648438 C 246.144531 43.960938 246.578125 43.300781 247.164062 42.820312 C 247.144531 42.902344 247.125 42.988281 247.105469 43.070312 C 246.875 44.113281 245.535156 48.703125 247.601562 48.5 C 248.066406 48.449219 247.902344 47.738281 247.441406 47.78125 C 247.023438 47.828125 247.550781 44.5 247.582031 44.351562 C 247.664062 43.917969 247.6875 43.230469 247.90625 42.855469 C 247.9375 42.710938 247.972656 42.574219 248.003906 42.429688 C 248.6875 42.371094 249.058594 42.601562 249.117188 43.121094 C 249.242188 43.578125 249.960938 43.414062 249.828125 42.960938 C 249.632812 42.261719 249.320312 41.421875 248.476562 41.328125 C 248.019531 41.273438 247.734375 41.453125 247.546875 41.730469 C 246.980469 41.992188 246.511719 42.378906 246.113281 42.84375 C 246.136719 42.789062 246.15625 42.738281 246.171875 42.679688 L 245.898438 43.117188 C 245.570312 43.546875 245.285156 44.019531 245.023438 44.503906 Z M 239.945312 20.101562 C 240.554688 21.914062 240.285156 23.792969 239.175781 25.351562 C 238.898438 25.730469 239.519531 26.121094 239.789062 25.738281 C 240.816406 24.300781 241.195312 22.550781 240.886719 20.847656 C 242.183594 20.957031 240.855469 25.390625 240.695312 25.992188 C 240.40625 27.101562 240.101562 28.203125 239.777344 29.300781 C 239.058594 31.714844 238.261719 34.09375 237.386719 36.457031 C 237.382812 36.464844 237.390625 36.472656 237.386719 36.476562 L 122.964844 217.75 C 122.710938 218.152344 123.332031 218.542969 123.578125 218.144531 L 238.050781 36.796875 C 238.074219 36.757812 238.054688 36.730469 238.070312 36.6875 C 238.074219 36.679688 238.082031 36.679688 238.085938 36.667969 C 239.515625 32.808594 240.742188 28.875 241.734375 24.875 C 242.066406 23.535156 243.253906 19.953125 240.710938 20.125 C 240.691406 20.0625 240.679688 20 240.664062 19.941406 C 240.515625 19.5 239.796875 19.65625 239.945312 20.101562 Z M 248.863281 8.667969 C 249.644531 8.332031 249.265625 12.734375 249.203125 13.136719 C 249.023438 14.339844 248.742188 15.527344 248.414062 16.703125 C 247.804688 18.863281 247.027344 20.964844 246.261719 23.070312 C 244.523438 27.867188 242.578125 32.550781 240.289062 37.109375 C 240.230469 37.128906 240.164062 37.152344 240.121094 37.222656 L 125.65625 218.566406 C 125.40625 218.964844 126.023438 219.355469 126.273438 218.957031 L 240.636719 37.773438 C 240.722656 37.757812 240.804688 37.707031 240.859375 37.597656 C 243.824219 31.710938 246.28125 25.578125 248.363281 19.320312 C 248.765625 18.117188 251.972656 6.550781 248.527344 8.015625 C 248.09375 8.203125 248.433594 8.851562 248.863281 8.667969 Z M 230.386719 36.898438 C 230.78125 37.773438 232.855469 35.820312 233.125 35.566406 C 233.453125 35.265625 233.753906 34.945312 234.035156 34.601562 C 234.199219 34.417969 234.351562 34.226562 234.492188 34.019531 C 234.765625 33.664062 234.792969 33.597656 234.570312 33.820312 C 234.136719 33.996094 233.792969 33.347656 234.234375 33.171875 C 234.675781 32.996094 235.34375 32.863281 235.476562 33.503906 C 235.492188 33.558594 235.476562 33.613281 235.476562 33.667969 C 235.523438 33.722656 235.558594 33.789062 235.5625 33.875 C 235.625 35.058594 235.214844 36.117188 234.640625 37.105469 C 234.652344 37.101562 234.660156 37.089844 234.664062 37.085938 L 120.894531 217.335938 C 120.640625 217.734375 120.023438 217.34375 120.273438 216.945312 L 233 38.359375 C 233.011719 38.308594 232.996094 38.261719 233.03125 38.214844 C 233.75 37.214844 234.46875 36.179688 234.730469 34.996094 C 234.472656 35.273438 234.207031 35.523438 234.042969 35.699219 C 233.316406 36.445312 230.613281 39.15625 229.738281 37.234375 C 229.546875 36.8125 230.191406 36.472656 230.386719 36.898438 "/>
<path style=" stroke:none;fill-rule:nonzero;fill:rgb(79.60968%,92.939758%,86.669922%);fill-opacity:1;" d="M 111.222656 212.90625 L 139.714844 230.886719 C 140.929688 231.652344 142.546875 231.289062 143.3125 230.074219 L 144.164062 228.726562 C 144.933594 227.511719 144.566406 225.894531 143.351562 225.132812 L 114.855469 207.152344 C 113.640625 206.386719 112.027344 206.753906 111.261719 207.964844 L 110.410156 209.3125 C 109.644531 210.527344 110.011719 212.144531 111.222656 212.90625 "/>
<path style=" stroke:none;fill-rule:nonzero;fill:rgb(92.158508%,62.348938%,58.428955%);fill-opacity:1;" d="M 93.140625 68.824219 C 98.726562 69.0625 108.707031 71.402344 111.570312 77.964844 C 114.25 84.101562 109.597656 91.371094 88.847656 118.472656 C 80.761719 129.03125 73.679688 138.097656 68.015625 145.289062 C 82.519531 153.742188 97.019531 162.195312 111.523438 170.648438 C 113.996094 170.253906 117.628906 169.625 122.003906 168.683594 C 130.925781 166.757812 135.601562 165.101562 137.03125 167.054688 C 137.792969 168.097656 137.269531 169.675781 137.113281 170.136719 C 135.652344 174.507812 128.722656 174.878906 128.839844 176.289062 C 128.941406 177.433594 131.753906 178.050781 139.53125 179.722656 C 144.605469 180.816406 146.898438 181.109375 146.945312 183.019531 C 147.007812 185.804688 142.359375 186.640625 141.519531 186.945312 C 145.085938 187.800781 146.769531 190.601562 146.261719 192.113281 C 145.804688 193.453125 143.402344 194.464844 140.601562 193.894531 C 141.726562 195.414062 143 197.589844 142.257812 199.144531 C 140.96875 201.832031 134.316406 201.304688 128.441406 200.390625 C 94.929688 195.175781 53.074219 173.96875 53.074219 173.96875 C 24.640625 159.558594 22.464844 157.324219 21.050781 153.535156 C 14.546875 136.105469 34.574219 113.085938 50.882812 94.710938 C 56.695312 88.160156 64.414062 80.234375 76.246094 73.949219 C 84.574219 69.523438 89.1875 68.65625 93.140625 68.824219 "/>
<path style=" stroke:none;fill-rule:nonzero;fill:rgb(79.60968%,92.939758%,86.669922%);fill-opacity:1;" d="M 50.539062 92.535156 C 56.894531 85.855469 65.339844 77.757812 78.289062 71.34375 C 88.191406 66.4375 93.984375 66.109375 96.773438 66.109375 C 98.882812 66.113281 100.621094 66.316406 101.78125 66.496094 C 104.1875 66.738281 106.597656 66.980469 109.003906 67.226562 C 116.300781 75.015625 118.851562 86.792969 110 95.664062 C 109.90625 95.28125 109.816406 94.90625 109.726562 94.527344 C 105.691406 100.050781 99.9375 107.210938 92.074219 116.800781 C 91.773438 117.160156 91.496094 117.503906 91.203125 117.863281 C 77.324219 109.707031 63.4375 101.5625 49.257812 93.875 C 49.691406 93.4375 50.113281 92.980469 50.539062 92.535156 "/>
<g clip-path="url(#clip1)" clip-rule="nonzero">
<path style=" stroke:none;fill-rule:nonzero;fill:rgb(15.689087%,25.099182%,49.409485%);fill-opacity:1;" d="M 322.152344 238.160156 C 316.992188 243.699219 311.824219 249.234375 306.660156 254.769531 C 315.53125 263.847656 324.40625 272.929688 333.28125 282.007812 C 335.835938 279.417969 338.394531 276.824219 340.949219 274.234375 C 339.445312 272.378906 337.9375 270.527344 336.429688 268.671875 C 341.84375 266.835938 349.625 263.4375 357.195312 256.9375 C 369.785156 246.125 376.839844 230.957031 374.417969 228.839844 C 371.882812 226.632812 361.886719 241.109375 344.1875 242.683594 C 335.410156 243.464844 327.761719 240.894531 322.152344 238.160156 Z M 310.742188 340.066406 C 328.363281 343.414062 341.894531 332.3125 343.605469 335.007812 C 345.058594 337.289062 332.894531 348.835938 317.152344 356.203125 C 308.726562 360.148438 301.132812 362.03125 295.800781 363.007812 C 296.871094 365.179688 297.941406 367.355469 299.011719 369.527344 C 295.839844 371.324219 292.671875 373.117188 289.5 374.910156 C 283.449219 363.75 277.398438 352.589844 271.34375 341.433594 C 277.824219 337.519531 284.308594 333.605469 290.789062 329.691406 C 295.4375 333.851562 302.089844 338.414062 310.742188 340.066406 "/>
</g>
<g clip-path="url(#clip2)" clip-rule="nonzero">
<path style=" stroke:none;fill-rule:nonzero;fill:rgb(97.648621%,100%,92.939758%);fill-opacity:1;" d="M 311.660156 250.25 C 317.292969 253.066406 323.308594 255.125 329.558594 255.984375 C 339.394531 257.339844 349.296875 255.375 357.675781 249.992188 C 365.34375 245.066406 371.351562 237.707031 374.390625 229.09375 C 374.472656 228.851562 374.21875 228.71875 374.027344 228.789062 C 373.9375 228.703125 373.796875 228.683594 373.691406 228.800781 C 370.628906 232.21875 367.265625 235.363281 363.542969 238.058594 C 357.09375 242.738281 349.582031 246.078125 341.613281 246.917969 C 333.589844 247.753906 325.339844 246.144531 318.5625 241.667969 C 318.269531 241.476562 318 241.941406 318.292969 242.132812 C 322.144531 244.679688 326.492188 246.347656 331.042969 247.128906 C 347.402344 249.933594 362.800781 241.511719 373.570312 229.730469 C 371.859375 234.265625 369.328125 238.441406 366.113281 242.0625 C 360.207031 248.726562 352.152344 253.503906 343.382812 255.1875 C 332.664062 257.253906 321.554688 254.589844 311.9375 249.78125 C 311.625 249.628906 311.351562 250.097656 311.660156 250.25 Z M 281.785156 335.714844 C 285.351562 338.71875 288.941406 341.738281 292.941406 344.15625 C 296.78125 346.484375 300.992188 348.128906 305.402344 348.992188 C 314.304688 350.742188 323.628906 349.21875 331.503906 344.699219 C 335.667969 342.3125 339.332031 339.144531 342.332031 335.402344 C 329.964844 345.941406 312.066406 347.855469 297.8125 339.957031 C 293.992188 337.839844 290.554688 335.09375 287.632812 331.851562 C 287.398438 331.59375 287.796875 331.226562 288.027344 331.484375 C 298.660156 343.28125 315.773438 347.496094 330.628906 341.78125 C 335.019531 340.09375 339.058594 337.628906 342.574219 334.507812 C 342.746094 334.351562 342.953125 334.480469 343.003906 334.644531 C 343.226562 334.550781 343.523438 334.769531 343.339844 335.003906 C 337.867188 342.167969 329.953125 347.347656 321.136719 349.328125 C 312.277344 351.324219 302.746094 350.035156 294.722656 345.792969 C 289.84375 343.207031 285.597656 339.625 281.390625 336.082031 C 281.121094 335.859375 281.523438 335.492188 281.785156 335.714844 "/>
</g>
<path style=" stroke:none;fill-rule:nonzero;fill:rgb(15.689087%,25.099182%,49.409485%);fill-opacity:1;" d="M 85.117188 41.0625 C 85.726562 39.484375 87.824219 38.933594 89.148438 39.960938 C 89.425781 40.175781 89.078125 40.589844 88.804688 40.375 C 87.738281 39.550781 86.085938 40.042969 85.605469 41.289062 C 85.484375 41.613281 84.996094 41.382812 85.117188 41.0625 "/>
<path style=" stroke:none;fill-rule:nonzero;fill:rgb(15.689087%,25.099182%,49.409485%);fill-opacity:1;" d="M 106.828125 61.90625 C 110.207031 62.671875 113.667969 62.257812 116.777344 60.726562 C 117.050781 60.59375 117.207031 61.046875 116.929688 61.175781 C 113.753906 62.742188 110.195312 63.15625 106.738281 62.375 C 106.441406 62.308594 106.527344 61.835938 106.828125 61.90625 "/>
<path style=" stroke:none;fill-rule:nonzero;fill:rgb(15.689087%,25.099182%,49.409485%);fill-opacity:1;" d="M 60.363281 141.050781 C 64.394531 143.195312 68.429688 145.339844 72.460938 147.484375 C 72.769531 147.644531 72.496094 148.109375 72.191406 147.945312 C 68.15625 145.800781 64.121094 143.65625 60.089844 141.511719 C 59.785156 141.351562 60.054688 140.886719 60.363281 141.050781 "/>
<path style=" stroke:none;fill-rule:nonzero;fill:rgb(15.689087%,25.099182%,49.409485%);fill-opacity:1;" d="M 89.214844 117.519531 C 92.984375 113.027344 96.582031 108.410156 100.015625 103.664062 C 100.21875 103.382812 100.683594 103.652344 100.480469 103.933594 C 97.019531 108.722656 93.390625 113.378906 89.59375 117.898438 C 89.371094 118.164062 88.992188 117.78125 89.214844 117.519531 "/>
<path style=" stroke:none;fill-rule:nonzero;fill:rgb(15.689087%,25.099182%,49.409485%);fill-opacity:1;" d="M 133.46875 129.738281 C 134.675781 127.972656 136.089844 126.402344 137.660156 124.984375 L 135.234375 105.816406 C 135.191406 105.472656 135.722656 105.40625 135.765625 105.75 L 138.148438 124.558594 C 139.113281 123.726562 140.121094 122.9375 141.207031 122.246094 C 141.496094 122.058594 141.828125 122.488281 141.535156 122.671875 C 140.335938 123.441406 139.234375 124.3125 138.183594 125.242188 C 138.152344 125.332031 138.085938 125.398438 137.996094 125.410156 C 136.460938 126.796875 135.078125 128.339844 133.894531 130.070312 C 133.695312 130.355469 133.273438 130.023438 133.46875 129.738281 "/>
<path style=" stroke:none;fill-rule:nonzero;fill:rgb(15.689087%,25.099182%,49.409485%);fill-opacity:1;" d="M 133.085938 192.578125 C 135.558594 192.957031 138.027344 193.332031 140.5 193.707031 C 140.574219 193.714844 140.621094 193.761719 140.652344 193.808594 C 142.589844 194.015625 146.828125 193.371094 145.683594 190.550781 C 145.089844 189.085938 143.273438 187.804688 141.726562 187.363281 C 141.707031 187.375 141.695312 187.382812 141.671875 187.382812 C 141.589844 187.382812 141.535156 187.347656 141.496094 187.300781 C 141.449219 187.292969 141.410156 187.273438 141.371094 187.265625 C 141.351562 187.261719 141.351562 187.25 141.335938 187.238281 C 138.601562 186.523438 135.832031 185.996094 133.019531 185.6875 C 132.679688 185.648438 132.675781 185.113281 133.019531 185.148438 C 135.988281 185.476562 138.914062 186.027344 141.796875 186.804688 C 143.316406 186.667969 145.046875 186.125 145.9375 184.796875 C 147.570312 182.367188 144.695312 181.070312 142.773438 180.566406 C 142.4375 180.480469 142.582031 179.960938 142.917969 180.046875 C 144.761719 180.53125 147.597656 181.667969 146.898438 184.128906 C 146.398438 185.902344 144.546875 186.824219 142.800781 187.183594 C 144.613281 188.007812 146.628906 189.742188 146.386719 191.597656 C 146.046875 194.230469 142.316406 194.617188 140.289062 194.300781 C 140.203125 194.289062 140.148438 194.246094 140.117188 194.191406 C 137.730469 193.824219 135.335938 193.464844 132.945312 193.097656 C 132.601562 193.042969 132.75 192.527344 133.085938 192.578125 "/>
<path style=" stroke:none;fill-rule:nonzero;fill:rgb(15.689087%,25.099182%,49.409485%);fill-opacity:1;" d="M 128.6875 175.671875 C 129.757812 176.828125 131.089844 177.605469 132.621094 177.96875 C 132.957031 178.050781 132.820312 178.570312 132.476562 178.488281 C 130.863281 178.101562 129.433594 177.269531 128.304688 176.050781 C 128.070312 175.796875 128.449219 175.414062 128.6875 175.671875 "/>
<path style=" stroke:none;fill-rule:nonzero;fill:rgb(15.689087%,25.099182%,49.409485%);fill-opacity:1;" d="M 235.359375 69.585938 C 236.125 68.113281 237.039062 66.011719 238.269531 64.371094 C 238.210938 64.308594 238.183594 64.222656 238.222656 64.117188 C 238.960938 62.253906 238.890625 60.296875 238.011719 58.496094 C 237.859375 58.179688 238.339844 57.941406 238.492188 58.25 C 239.308594 59.929688 239.480469 61.75 238.996094 63.511719 C 240.328125 62.109375 241.996094 61.34375 244.175781 62.265625 C 244.496094 62.402344 244.320312 62.90625 244 62.773438 C 239.480469 60.863281 237.34375 66.925781 235.804688 69.882812 C 235.648438 70.1875 235.199219 69.886719 235.359375 69.585938 "/>
<path style=" stroke:none;fill-rule:nonzero;fill:rgb(97.648621%,100%,92.939758%);fill-opacity:1;" d="M 189.03125 188.976562 C 194.941406 188.765625 200.753906 190.101562 205.976562 192.886719 C 206.082031 192.949219 206.179688 192.910156 206.253906 192.847656 C 217.640625 202.203125 228.785156 211.839844 239.660156 221.789062 C 239.917969 222.023438 240.296875 221.648438 240.039062 221.410156 C 226.4375 208.96875 212.425781 196.980469 198.03125 185.464844 C 197.761719 185.253906 197.382812 185.632812 197.648438 185.847656 C 198.871094 186.824219 200.082031 187.820312 201.296875 188.8125 C 201.117188 188.816406 200.941406 188.828125 200.761719 188.847656 C 200.03125 188.921875 199.3125 189.089844 198.609375 189.363281 C 198.558594 189.378906 198.535156 189.421875 198.507812 189.457031 C 195.429688 188.679688 192.246094 188.324219 189.03125 188.441406 C 188.683594 188.449219 188.683594 188.992188 189.03125 188.976562 "/>
<path style=" stroke:none;fill-rule:nonzero;fill:rgb(15.689087%,25.099182%,49.409485%);fill-opacity:1;" d="M 93.007812 237.132812 C 101.820312 244.957031 111.753906 251.445312 122.457031 256.375 C 122.765625 256.519531 122.597656 257.03125 122.28125 256.886719 C 111.488281 251.914062 101.492188 245.378906 92.605469 237.492188 C 92.347656 237.265625 92.753906 236.90625 93.007812 237.132812 "/>
<path style=" stroke:none;fill-rule:nonzero;fill:rgb(15.689087%,25.099182%,49.409485%);fill-opacity:1;" d="M 113.941406 48.671875 C 114.625 48.769531 115.304688 48.808594 115.992188 48.804688 C 115.585938 47.707031 115.179688 46.617188 114.769531 45.523438 C 114.652344 45.195312 115.15625 45.019531 115.28125 45.339844 C 115.730469 46.558594 116.183594 47.777344 116.636719 48.992188 C 116.648438 49.011719 116.632812 49.023438 116.636719 49.035156 C 116.648438 49.089844 116.644531 49.136719 116.628906 49.183594 C 116.625 49.191406 116.621094 49.207031 116.613281 49.21875 C 116.578125 49.285156 116.511719 49.34375 116.40625 49.347656 C 115.550781 49.371094 114.699219 49.324219 113.851562 49.203125 C 113.507812 49.152344 113.601562 48.621094 113.941406 48.671875 "/>
<path style=" stroke:none;fill-rule:nonzero;fill:rgb(15.689087%,25.099182%,49.409485%);fill-opacity:1;" d="M 106.636719 46.710938 C 106.160156 46.921875 105.664062 46.03125 105.535156 44.726562 C 105.398438 43.417969 105.675781 42.191406 106.144531 41.984375 C 106.621094 41.773438 107.109375 42.664062 107.246094 43.96875 C 107.382812 45.277344 107.105469 46.503906 106.636719 46.710938 "/>
<path style=" stroke:none;fill-rule:nonzero;fill:rgb(15.689087%,25.099182%,49.409485%);fill-opacity:1;" d="M 121.269531 38.757812 C 121.746094 38.558594 122.222656 39.457031 122.332031 40.769531 C 122.433594 42.078125 122.136719 43.300781 121.65625 43.5 C 121.179688 43.699219 120.707031 42.800781 120.601562 41.488281 C 120.492188 40.183594 120.792969 38.960938 121.269531 38.757812 "/>
<path style=" stroke:none;fill-rule:nonzero;fill:rgb(15.689087%,25.099182%,49.409485%);fill-opacity:1;" d="M 180.210938 33.238281 C 180.257812 33.257812 180.292969 33.285156 180.347656 33.269531 C 181 33.136719 181.65625 33.1875 182.28125 33.476562 C 182.90625 33.757812 183.746094 34.785156 182.5 34.902344 C 181.519531 35.007812 180.746094 34.03125 180.210938 33.238281 Z M 175.964844 23.726562 C 176.386719 23.320312 176.824219 22.9375 177.246094 22.53125 C 177.933594 25.980469 178.625 29.449219 179.316406 32.921875 C 179.316406 32.933594 179.332031 32.933594 179.332031 32.949219 C 179.214844 33.070312 179.148438 33.222656 179.265625 33.40625 C 179.839844 34.246094 180.53125 35.175781 181.507812 35.578125 C 182.246094 35.882812 183.253906 35.828125 183.78125 35.140625 C 184.300781 34.429688 183.898438 33.59375 183.273438 33.105469 C 182.382812 32.414062 181.203125 32.242188 180.109375 32.460938 C 180.109375 32.460938 180.109375 32.480469 180.09375 32.480469 C 179.386719 28.964844 178.695312 25.441406 177.988281 21.921875 C 177.953125 21.722656 177.800781 21.65625 177.652344 21.640625 C 177.496094 21.46875 177.246094 21.367188 177.027344 21.570312 C 176.488281 22.09375 175.929688 22.59375 175.375 23.121094 C 174.992188 23.492188 175.578125 24.082031 175.964844 23.726562 Z M 47.902344 83.140625 C 47.9375 83.160156 47.9375 83.171875 47.953125 83.171875 C 48.777344 83.277344 49.585938 83.441406 50.328125 83.832031 C 51.101562 84.234375 51.640625 85.023438 50.648438 85.511719 C 49.128906 86.238281 48.304688 84.285156 47.902344 83.140625 Z M 47.058594 83.242188 C 47.078125 83.257812 47.058594 83.277344 47.078125 83.289062 C 47.449219 84.367188 47.902344 85.582031 48.929688 86.203125 C 49.703125 86.675781 50.699219 86.59375 51.425781 86.039062 C 52.144531 85.484375 52.296875 84.550781 51.726562 83.832031 C 50.953125 82.851562 49.320312 82.5 48.15625 82.363281 C 47.96875 82.347656 47.832031 82.453125 47.75 82.582031 C 46.859375 79.65625 45.949219 76.726562 45.054688 73.796875 C 44.890625 73.277344 44.097656 73.527344 44.246094 74.046875 C 45.171875 77.113281 46.117188 80.175781 47.058594 83.242188 Z M 164.027344 45.140625 C 164.0625 45.15625 164.0625 45.175781 164.078125 45.175781 C 164.902344 45.277344 165.710938 45.445312 166.449219 45.832031 C 167.226562 46.238281 167.765625 47.027344 166.773438 47.515625 C 165.253906 48.242188 164.449219 46.285156 164.027344 45.140625 Z M 163.199219 45.242188 C 163.199219 45.257812 163.183594 45.277344 163.21875 45.292969 C 163.589844 46.371094 164.042969 47.582031 165.070312 48.207031 C 165.847656 48.679688 166.839844 48.589844 167.5625 48.035156 C 168.285156 47.480469 168.4375 46.554688 167.867188 45.832031 C 167.09375 44.855469 165.457031 44.503906 164.296875 44.367188 C 164.109375 44.351562 163.976562 44.449219 163.890625 44.585938 C 163 41.65625 162.089844 38.722656 161.199219 35.796875 C 161.027344 35.273438 160.238281 35.527344 160.390625 36.050781 C 161.316406 39.113281 162.257812 42.179688 163.199219 45.242188 Z M 39.351562 29.671875 C 39.433594 28.710938 39.515625 27.765625 39.652344 26.804688 C 42.75 27.800781 45.898438 28.609375 49.101562 29.265625 C 49.082031 29.316406 49.03125 29.347656 49.03125 29.417969 C 49.03125 30.445312 49.066406 31.46875 49.113281 32.496094 C 45.699219 32.125 42.449219 31.183594 39.351562 29.671875 Z M 38.453125 36.878906 C 38.472656 36.992188 38.523438 37.042969 38.574219 37.09375 C 38.40625 38.167969 38.824219 39.199219 39.515625 40.074219 C 40.070312 40.800781 41.085938 41.789062 42.023438 41.066406 C 42.800781 40.476562 42.765625 39.25 42.414062 38.441406 C 41.957031 37.414062 40.980469 36.742188 39.871094 36.6875 C 39.332031 36.671875 39.261719 37.515625 39.804688 37.53125 C 40.425781 37.550781 40.964844 37.804688 41.351562 38.289062 C 41.6875 38.695312 42.042969 39.535156 41.738281 40.058594 C 41.113281 41.082031 39.988281 39.3125 39.753906 38.914062 C 39.398438 38.289062 39.214844 37.648438 39.433594 36.941406 C 39.480469 36.753906 39.398438 36.625 39.28125 36.519531 C 39.164062 34.519531 39.195312 32.53125 39.316406 30.542969 C 42.464844 32.058594 45.730469 33.003906 49.199219 33.355469 C 49.347656 35.78125 49.621094 38.203125 50.058594 40.609375 C 50.027344 40.664062 49.992188 40.699219 49.992188 40.765625 C 50.039062 41.859375 50.445312 42.871094 51.253906 43.625 C 51.792969 44.148438 52.851562 44.855469 53.613281 44.386719 C 54.421875 43.878906 54.203125 42.5625 53.832031 41.859375 C 53.34375 40.929688 52.433594 40.359375 51.40625 40.292969 C 50.863281 40.257812 50.800781 41.101562 51.335938 41.136719 C 52.027344 41.183594 52.585938 41.507812 52.96875 42.078125 C 53.242188 42.480469 53.660156 43.660156 52.886719 43.660156 C 52.351562 43.640625 51.707031 42.953125 51.425781 42.550781 C 51.101562 42.097656 50.917969 41.570312 50.863281 41.015625 C 50.917969 40.929688 50.953125 40.847656 50.933594 40.746094 C 50.246094 37.007812 49.910156 33.269531 49.910156 29.484375 C 49.910156 29.363281 49.839844 29.28125 49.789062 29.210938 C 49.957031 28.992188 49.890625 28.558594 49.519531 28.492188 C 46.1875 27.832031 42.9375 26.976562 39.703125 25.933594 C 39.550781 25.878906 39.433594 25.933594 39.332031 25.996094 C 39.113281 25.996094 38.890625 26.117188 38.859375 26.367188 C 38.355469 29.871094 38.21875 33.375 38.453125 36.878906 Z M 166.75 68.898438 C 166.839844 67.9375 166.921875 66.996094 167.058594 66.035156 C 170.15625 67.03125 173.304688 67.839844 176.507812 68.492188 C 176.488281 68.542969 176.4375 68.574219 176.4375 68.644531 C 176.4375 69.671875 176.472656 70.699219 176.523438 71.726562 C 173.085938 71.355469 169.835938 70.414062 166.75 68.898438 Z M 165.859375 76.101562 C 165.878906 76.21875 165.929688 76.273438 165.980469 76.320312 C 165.8125 77.398438 166.230469 78.425781 166.921875 79.300781 C 167.476562 80.027344 168.492188 81.019531 169.433594 80.292969 C 170.207031 79.703125 170.171875 78.476562 169.816406 77.667969 C 169.363281 76.644531 168.390625 75.964844 167.277344 75.917969 C 166.738281 75.898438 166.667969 76.742188 167.210938 76.761719 C 167.832031 76.777344 168.371094 77.027344 168.757812 77.515625 C 169.097656 77.921875 169.445312 78.761719 169.144531 79.285156 C 168.519531 80.3125 167.394531 78.542969 167.15625 78.140625 C 166.804688 77.515625 166.621094 76.878906 166.839844 76.171875 C 166.886719 75.984375 166.804688 75.851562 166.6875 75.746094 C 166.566406 73.746094 166.601562 71.761719 166.722656 69.773438 C 169.871094 71.289062 173.132812 72.230469 176.605469 72.585938 C 176.753906 75.007812 177.027344 77.433594 177.460938 79.839844 C 177.433594 79.890625 177.398438 79.921875 177.398438 79.992188 C 177.449219 81.089844 177.851562 82.097656 178.660156 82.851562 C 179.195312 83.378906 180.257812 84.085938 181.019531 83.613281 C 181.828125 83.105469 181.609375 81.792969 181.238281 81.089844 C 180.746094 80.160156 179.839844 79.585938 178.8125 79.519531 C 178.269531 79.484375 178.207031 80.328125 178.742188 80.363281 C 179.433594 80.410156 179.992188 80.730469 180.375 81.304688 C 180.648438 81.710938 181.066406 82.886719 180.292969 82.886719 C 179.75 82.871094 179.113281 82.179688 178.832031 81.773438 C 178.507812 81.320312 178.324219 80.800781 178.269531 80.246094 C 178.324219 80.160156 178.355469 80.074219 178.339844 79.976562 C 177.652344 76.238281 177.3125 72.5 177.3125 68.710938 C 177.3125 68.59375 177.246094 68.511719 177.195312 68.441406 C 177.363281 68.222656 177.296875 67.785156 176.925781 67.71875 C 173.59375 67.0625 170.34375 66.203125 167.109375 65.160156 C 166.957031 65.109375 166.839844 65.160156 166.738281 65.226562 C 166.515625 65.226562 166.300781 65.34375 166.265625 65.597656 C 165.761719 69.101562 165.625 72.585938 165.859375 76.101562 "/>
<path style=" stroke:none;fill-rule:nonzero;fill:rgb(15.689087%,25.099182%,49.409485%);fill-opacity:1;" d="M 113.628906 51.246094 C 113.707031 51.277344 113.777344 51.273438 113.839844 51.25 C 113.878906 51.269531 113.902344 51.292969 113.953125 51.289062 C 115.3125 51.195312 115.410156 53.105469 114.125 53.316406 C 113.601562 53.398438 113.121094 53.0625 112.898438 52.609375 C 112.675781 52.164062 112.847656 50.898438 113.628906 51.246094 Z M 112.226562 51.976562 C 112.179688 52.859375 112.875 53.738281 113.753906 53.851562 C 114.621094 53.957031 115.535156 53.304688 115.617188 52.414062 C 115.699219 51.484375 114.863281 50.6875 113.953125 50.753906 C 113.929688 50.757812 113.921875 50.773438 113.898438 50.777344 C 113.085938 50.421875 112.277344 51.136719 112.226562 51.976562 "/>
</g>
</svg>
