<?xml version="1.0" encoding="UTF-8"?>
<svg xmlns="http://www.w3.org/2000/svg" xmlns:xlink="http://www.w3.org/1999/xlink" width="375pt" height="374.999991pt" viewBox="0 0 375 374.999991" version="1.2">
<defs>
<clipPath id="clip1">
  <path d="M 266.398438 94.480469 L 349.96875 94.480469 L 349.96875 341 L 266.398438 341 Z M 266.398438 94.480469 "/>
</clipPath>
<clipPath id="clip2">
  <path d="M 290 339 L 341.976562 339 L 341.976562 374.925781 L 290 374.925781 Z M 290 339 "/>
</clipPath>
<clipPath id="clip3">
  <path d="M 25.226562 328 L 77 328 L 77 359 L 25.226562 359 Z M 25.226562 328 "/>
</clipPath>
</defs>
<g id="surface1">
<path style=" stroke:none;fill-rule:nonzero;fill:rgb(92.158508%,62.348938%,58.428955%);fill-opacity:1;" d="M 255.160156 59.351562 C 235.492188 111.90625 221.261719 150.226562 219.492188 155.105469 C 218.941406 156.613281 217.671875 160.25 219.289062 162.140625 C 219.464844 162.363281 219.929688 162.894531 220.578125 162.929688 C 222.984375 163.035156 224.945312 156.011719 225.183594 156.09375 C 225.367188 156.152344 224.597656 160.109375 222.589844 165.164062 C 220.992188 169.214844 220.125 170.953125 221.441406 171.863281 C 223.347656 173.1875 226.101562 170.316406 226.699219 169.871094 C 225.628906 172.753906 226.800781 175.226562 228.105469 175.566406 C 229.25 175.855469 231.066406 174.644531 231.976562 172.421875 C 232.519531 173.914062 233.4375 175.804688 234.863281 176 C 237.632812 176.378906 240.65625 170.167969 242.167969 166.890625 C 253.445312 142.46875 264.757812 101.683594 266.40625 95.800781 C 272.410156 74.328125 276.1875 64.59375 271.132812 59.980469 C 267.367188 56.570312 260.660156 57.667969 255.160156 59.351562 "/>
<path style=" stroke:none;fill-rule:nonzero;fill:rgb(15.689087%,25.099182%,49.409485%);fill-opacity:1;" d="M 250.824219 150.03125 C 255.992188 133.875 261.019531 116.890625 265.789062 99.101562 C 270.457031 81.6875 274.527344 64.816406 278.078125 48.566406 C 275.65625 48.242188 272.683594 48.074219 269.496094 48.488281 C 269.496094 48.488281 264.460938 49.246094 259.59375 51.910156 C 247.90625 58.324219 238.347656 91.105469 238.347656 91.105469 C 231.785156 113.570312 226.789062 131.582031 223.507812 143.648438 C 226.777344 144.898438 230.433594 146.101562 234.453125 147.148438 C 240.464844 148.703125 245.996094 149.570312 250.824219 150.03125 "/>
<path style=" stroke:none;fill-rule:nonzero;fill:rgb(92.158508%,62.348938%,58.428955%);fill-opacity:1;" d="M 148.789062 73.726562 C 134.195312 116.164062 123.667969 147.292969 122.113281 152.296875 C 121.570312 154.050781 120.582031 157.566406 122.226562 159.339844 C 122.421875 159.546875 122.910156 160.058594 123.550781 160.0625 C 125.96875 160.066406 127.769531 153 127.835938 153.03125 C 127.878906 153.039062 127.359375 156.011719 125.117188 162.316406 C 124.164062 165 123.257812 167.273438 124.320312 168.496094 C 124.855469 169.117188 125.667969 169.21875 125.921875 169.25 C 127.417969 169.445312 129.019531 168.460938 129.960938 166.730469 C 129.027344 169.664062 130.296875 172.085938 131.613281 172.363281 C 132.773438 172.605469 134.53125 171.304688 135.339844 169.050781 C 135.945312 170.519531 136.945312 172.371094 138.375 172.488281 C 141.160156 172.746094 143.898438 166.40625 145.269531 163.074219 C 155.457031 138.167969 164.945312 96.921875 166.316406 90.976562 C 168.917969 79.699219 173.890625 57.328125 169.441406 54.988281 C 167.617188 54.023438 162.910156 55.746094 148.789062 73.726562 "/>
<path style=" stroke:none;fill-rule:nonzero;fill:rgb(92.158508%,62.348938%,58.428955%);fill-opacity:1;" d="M 183.449219 268.546875 C 181.8125 288.300781 180.164062 308.054688 178.523438 327.796875 C 173.082031 328.082031 167.648438 328.363281 162.207031 328.660156 C 160.953125 310.839844 159.703125 292.996094 158.453125 275.179688 C 166.777344 272.972656 175.121094 270.753906 183.449219 268.546875 Z M 223.835938 277.226562 C 222.847656 297.238281 221.867188 317.246094 220.875 337.273438 C 215.484375 337.546875 210.078125 337.828125 204.683594 338.085938 C 202.808594 320.632812 200.933594 303.175781 199.039062 285.730469 C 207.300781 282.886719 215.5625 280.058594 223.835938 277.226562 "/>
<path style=" stroke:none;fill-rule:nonzero;fill:rgb(97.648621%,100%,92.939758%);fill-opacity:1;" d="M 239.105469 288.269531 C 207.714844 288.316406 176.304688 288.359375 144.910156 288.414062 C 146.589844 244.371094 150.828125 197.8125 158.464844 149.144531 C 160.566406 135.6875 162.875 122.464844 165.367188 109.488281 C 171.105469 109.714844 177.398438 109.761719 184.144531 109.488281 C 191.90625 109.179688 199.03125 108.507812 205.414062 107.664062 C 213.105469 132.289062 218.578125 153.484375 222.433594 169.949219 C 226.730469 188.296875 231.097656 207.128906 239.105469 288.269531 "/>
<path style=" stroke:none;fill-rule:nonzero;fill:rgb(15.689087%,25.099182%,49.409485%);fill-opacity:1;" d="M 207.257812 25.765625 C 203.558594 22.378906 202.75 19.761719 201.507812 17.257812 C 201.964844 17.792969 202.429688 18.339844 202.863281 18.910156 C 204.96875 21.636719 206.960938 24.398438 209.667969 26.574219 C 212.003906 28.453125 214.5625 29.949219 217.183594 31.386719 C 213.367188 29.703125 210.71875 28.929688 207.257812 25.765625 Z M 164.0625 47.421875 C 159.394531 39.972656 160.03125 30.578125 164.207031 23.082031 C 164.277344 22.945312 164.367188 22.820312 164.4375 22.695312 C 164.347656 22.980469 164.257812 23.253906 164.1875 23.492188 C 164.1875 23.492188 161.089844 33.519531 165.84375 45.632812 C 166.9375 48.410156 168.519531 51.046875 170.535156 53.511719 C 167.953125 52.015625 165.722656 50.066406 164.0625 47.421875 Z M 228.800781 54.050781 C 230.640625 50.269531 232.484375 46.507812 234.316406 42.734375 C 232.984375 41.542969 230.960938 39.8125 228.332031 37.902344 C 225.453125 35.421875 222.015625 33.554688 218.679688 31.738281 C 216.03125 30.292969 213.367188 28.839844 210.941406 27.039062 C 207.964844 24.832031 205.777344 22.035156 203.546875 19.117188 C 202.636719 17.917969 201.65625 16.792969 200.644531 15.703125 C 199.78125 14.339844 198.582031 12.964844 196.492188 11.484375 C 194.726562 10.230469 189.085938 6.363281 181.671875 7.332031 C 175.699219 8.105469 171.851562 11.597656 170.476562 12.902344 C 167.632812 15.578125 166.054688 18.511719 165.132812 20.792969 C 162.488281 24.753906 160.714844 29.234375 160.410156 34.042969 C 160.136719 38.265625 160.976562 42.597656 162.964844 46.339844 C 164.882812 49.953125 167.792969 52.625 171.355469 54.480469 C 180.105469 64.453125 196.035156 71.4375 214.9375 72.960938 C 216.988281 70.890625 219.183594 68.410156 221.355469 65.511719 C 224.054688 61.921875 226.125 58.484375 227.707031 55.4375 C 226.316406 53.777344 224.589844 51.96875 222.460938 50.191406 C 217.953125 46.425781 213.425781 44.265625 210.03125 43.015625 C 213.015625 43.605469 217.679688 44.9375 222.460938 48.261719 C 225.25 50.207031 227.332031 52.296875 228.800781 54.050781 "/>
<path style=" stroke:none;fill-rule:nonzero;fill:rgb(92.158508%,62.348938%,58.428955%);fill-opacity:1;" d="M 201.125 24.699219 C 202.464844 26.824219 201.375 29.097656 201.226562 29.40625 C 200.359375 31.121094 198.777344 31.738281 198.34375 31.90625 C 196.511719 32.589844 194.917969 32.066406 194.5 31.90625 C 194.421875 32.285156 194.285156 32.839844 194.089844 33.488281 C 193.359375 35.964844 192.785156 37.796875 191.507812 39.492188 C 188.503906 43.4375 183.027344 43.664062 182.65625 43.6875 C 175.144531 44.179688 168.589844 38.195312 168.078125 30.40625 C 168.089844 28.839844 168.109375 27.269531 168.125 25.699219 C 168.097656 24.527344 168.125 19.363281 172.070312 15.1875 C 172.96875 14.234375 175.859375 11.28125 180.527344 10.859375 C 185.703125 10.414062 189.359375 13.40625 190.4375 14.394531 C 194.171875 17.792969 194.761719 22.140625 194.875 23.261719 C 195.285156 23.015625 196.0625 22.628906 197.085938 22.59375 C 198.582031 22.527344 200.210938 23.253906 201.125 24.699219 "/>
<path style=" stroke:none;fill-rule:nonzero;fill:rgb(92.158508%,62.348938%,58.428955%);fill-opacity:1;" d="M 179.230469 33.226562 L 189.378906 33.226562 C 189.378906 39.820312 189.378906 46.417969 189.378906 53.011719 C 204.722656 52.082031 217.613281 57.207031 221.753906 66.535156 C 222.5625 68.355469 223.246094 70.800781 223.199219 73.984375 C 217.511719 92.804688 200.28125 105.210938 182.1875 104.332031 C 167.53125 103.632812 154.21875 94.316406 147.605469 80.398438 C 147.617188 78.625 147.867188 68.105469 156.515625 60.109375 C 165.925781 51.410156 177.636719 52.796875 179.230469 53.011719 C 179.230469 46.417969 179.230469 39.820312 179.230469 33.226562 "/>
<path style=" stroke:none;fill-rule:nonzero;fill:rgb(97.648621%,100%,92.939758%);fill-opacity:1;" d="M 165.359375 110 C 163.535156 100.09375 162.261719 87.628906 163.199219 73.347656 C 163.667969 66.234375 164.617188 59.734375 165.78125 53.933594 C 166.792969 53.652344 168.054688 53.363281 169.507812 53.171875 C 170.808594 53 171.96875 52.957031 172.960938 52.957031 C 176.519531 58.203125 180.09375 63.441406 183.65625 68.683594 C 187.777344 63.375 191.898438 58.050781 196.011719 52.738281 C 197.253906 52.796875 198.582031 52.898438 200.019531 53.070312 C 201.304688 53.21875 202.511719 53.410156 203.601562 53.617188 C 204.871094 60.300781 205.910156 67.796875 206.445312 76.003906 C 207.25 88.335938 206.722656 99.375 205.671875 108.703125 C 201.988281 110.695312 194.230469 114.230469 183.863281 114.152344 C 175.472656 114.082031 168.988281 111.671875 165.359375 110 "/>
<path style=" stroke:none;fill-rule:nonzero;fill:rgb(97.648621%,100%,92.939758%);fill-opacity:1;" d="M 185.421875 27.324219 C 184.066406 26.617188 182.394531 27.15625 181.6875 28.507812 C 180.984375 29.859375 181.515625 31.53125 182.871094 32.238281 C 184.226562 32.941406 185.898438 32.410156 186.601562 31.054688 C 187.308594 29.6875 186.785156 28.03125 185.421875 27.324219 Z M 175.03125 29.894531 C 174.324219 31.246094 172.652344 31.785156 171.296875 31.078125 C 169.941406 30.371094 169.410156 28.699219 170.113281 27.347656 C 170.820312 25.992188 172.492188 25.457031 173.847656 26.164062 C 175.199219 26.882812 175.734375 28.542969 175.03125 29.894531 "/>
<path style=" stroke:none;fill-rule:nonzero;fill:rgb(92.158508%,62.348938%,58.428955%);fill-opacity:1;" d="M 206.824219 98.363281 C 214.796875 133.328125 220.742188 158.804688 221.917969 163.71875 C 222.316406 165.378906 223.242188 169.023438 225.59375 169.734375 C 225.863281 169.8125 226.546875 170.019531 227.109375 169.679688 C 229.199219 168.457031 227.148438 161.457031 227.230469 161.441406 C 227.277344 161.433594 228.339844 164.253906 229.617188 170.816406 C 230.152344 173.613281 230.535156 176.027344 232.070312 176.550781 C 232.839844 176.804688 233.59375 176.480469 233.832031 176.382812 C 235.214844 175.785156 236.101562 174.136719 236.035156 172.164062 C 236.714844 175.160156 239.050781 176.59375 240.316406 176.167969 C 241.441406 175.789062 242.296875 173.777344 241.84375 171.429688 C 241.988281 171.84375 242.660156 173.691406 244.257812 174.105469 C 244.367188 174.132812 244.949219 174.289062 245.3125 174.132812 C 247.296875 173.316406 244.839844 162.871094 244.839844 162.871094 C 237.207031 130.722656 229.570312 98.566406 221.941406 66.417969 C 216.34375 62.757812 213.347656 63.632812 212.289062 64.089844 C 207.421875 66.183594 206.945312 75.085938 206.445312 84.339844 C 206.128906 90.1875 206.464844 95.035156 206.824219 98.363281 "/>
<path style=" stroke:none;fill-rule:nonzero;fill:rgb(92.158508%,62.348938%,58.428955%);fill-opacity:1;" d="M 277.683594 305.765625 C 276.046875 317.347656 274.398438 328.9375 272.757812 340.519531 C 267.316406 340.6875 261.875 340.859375 256.4375 341.035156 C 255.1875 330.578125 253.9375 320.113281 252.679688 309.65625 C 261.011719 308.363281 269.351562 307.070312 277.683594 305.765625 Z M 333.957031 305.296875 C 334.21875 317.082031 334.492188 328.835938 334.75 340.621094 C 329.402344 341.308594 324.046875 341.992188 318.695312 342.675781 C 315.734375 332.675781 312.78125 322.667969 309.820312 312.671875 C 317.863281 310.203125 325.910156 307.742188 333.957031 305.296875 "/>
<path style=" stroke:none;fill-rule:nonzero;fill:rgb(73.728943%,90.19928%,88.62915%);fill-opacity:1;" d="M 260.957031 95.050781 C 253.683594 172.886719 246.414062 250.738281 239.140625 328.578125 C 256.917969 329.363281 274.699219 330.15625 292.480469 330.9375 C 292.84375 252.328125 293.21875 173.714844 293.582031 95.101562 C 282.703125 95.078125 271.824219 95.058594 260.957031 95.050781 "/>
<g clip-path="url(#clip1)" clip-rule="nonzero">
<path style=" stroke:none;fill-rule:nonzero;fill:rgb(73.728943%,90.19928%,88.62915%);fill-opacity:1;" d="M 266.703125 95.679688 C 276.890625 177.402344 287.074219 259.117188 297.257812 340.824219 C 314.828125 338.109375 332.386719 335.398438 349.96875 332.691406 C 340.441406 278.542969 330.917969 224.390625 321.378906 170.246094 C 321.632812 168.667969 321.941406 166.457031 322.214844 163.792969 C 322.65625 159.378906 323.0625 155.417969 322.839844 151.121094 C 322.585938 146.429688 321.414062 138.140625 316.421875 129.730469 C 314.886719 127.152344 313.574219 125.539062 312.6875 124.390625 C 308.519531 118.960938 303.3125 110.039062 299.226562 94.882812 C 291.964844 95.324219 284.429688 95.589844 276.648438 95.679688 C 273.28125 95.722656 269.96875 95.722656 266.703125 95.679688 "/>
</g>
<path style=" stroke:none;fill-rule:nonzero;fill:rgb(15.689087%,25.099182%,49.409485%);fill-opacity:1;" d="M 288.527344 14.304688 C 290.808594 16.394531 291.804688 18.554688 293.183594 21.636719 C 295.503906 26.8125 298.371094 33.476562 301.535156 41.449219 C 286.898438 43.550781 272.257812 45.644531 257.621094 47.75 C 258.121094 41.207031 258.75 34.136719 259.558594 26.59375 C 260.125 21.339844 260.5 18.304688 262.859375 15.40625 C 266.65625 10.699219 272.59375 10.019531 274.054688 9.832031 C 274.792969 9.746094 282.714844 8.945312 288.527344 14.304688 "/>
<path style=" stroke:none;fill-rule:nonzero;fill:rgb(92.158508%,62.348938%,58.428955%);fill-opacity:1;" d="M 295.355469 24.097656 C 296.699219 26.222656 295.605469 28.496094 295.457031 28.804688 C 294.59375 30.515625 293.011719 31.132812 292.578125 31.304688 C 290.746094 31.988281 289.152344 31.464844 288.730469 31.304688 C 288.652344 31.679688 288.515625 32.238281 288.324219 32.886719 C 287.59375 35.363281 287.015625 37.195312 285.742188 38.890625 C 282.738281 42.835938 277.261719 43.058594 276.890625 43.085938 C 269.378906 43.570312 262.824219 37.59375 262.3125 29.800781 C 262.324219 28.234375 262.34375 26.664062 262.355469 25.09375 C 262.332031 23.921875 262.355469 18.761719 266.304688 14.585938 C 267.203125 13.632812 270.09375 10.675781 274.757812 10.253906 C 279.9375 9.808594 283.59375 12.804688 284.671875 13.792969 C 288.40625 17.1875 288.996094 21.535156 289.109375 22.660156 C 289.519531 22.414062 290.289062 22.027344 291.320312 21.992188 C 292.816406 21.921875 294.445312 22.652344 295.355469 24.097656 "/>
<path style=" stroke:none;fill-rule:nonzero;fill:rgb(92.158508%,62.348938%,58.428955%);fill-opacity:1;" d="M 273.191406 27.925781 L 286.140625 27.925781 L 286.140625 57.6875 L 273.191406 57.6875 L 273.191406 27.925781 "/>
<path style=" stroke:none;fill-rule:nonzero;fill:rgb(15.689087%,25.099182%,49.409485%);fill-opacity:1;" d="M 260.707031 96.96875 C 260.511719 95.261719 260.261719 92.835938 260.023438 89.917969 C 259.875 88.03125 259.339844 81.785156 259.363281 77.019531 C 259.410156 65.660156 259.589844 59.257812 264.050781 54.472656 C 267.546875 50.71875 272.199219 49.886719 274.558594 49.476562 C 281.109375 48.304688 289.382812 49.941406 294.039062 55.460938 C 296.621094 58.519531 297.316406 61.863281 297.988281 66.523438 C 299.03125 73.8125 299.964844 84.152344 299.359375 97.058594 C 286.480469 97.035156 273.589844 97 260.707031 96.96875 "/>
<path style=" stroke:none;fill-rule:nonzero;fill:rgb(97.648621%,100%,92.939758%);fill-opacity:1;" d="M 279.65625 26.722656 C 278.300781 26.019531 276.625 26.550781 275.921875 27.90625 C 275.214844 29.257812 275.75 30.929688 277.105469 31.632812 C 278.457031 32.339844 280.132812 31.804688 280.835938 30.453125 C 281.542969 29.085938 281.019531 27.429688 279.65625 26.722656 Z M 269.261719 29.292969 C 268.558594 30.644531 266.886719 31.179688 265.53125 30.472656 C 264.175781 29.765625 263.644531 28.097656 264.347656 26.742188 C 265.054688 25.394531 266.726562 24.855469 268.082031 25.5625 C 269.433594 26.265625 269.96875 27.941406 269.261719 29.292969 "/>
<path style=" stroke:none;fill-rule:nonzero;fill:rgb(92.158508%,62.348938%,58.428955%);fill-opacity:1;" d="M 260.753906 56.539062 C 268.839844 65.679688 276.945312 74.800781 285.074219 83.914062 C 290.714844 90.246094 296.367188 96.558594 302.035156 102.867188 C 291.066406 112.046875 280.085938 121.203125 269.113281 130.378906 C 267.195312 130.398438 264.347656 130.398438 260.898438 130.253906 C 253.867188 129.957031 250.113281 129.320312 249.269531 130.980469 C 248.828125 131.878906 249.429688 133.003906 249.613281 133.324219 C 251.296875 136.453125 256.609375 135.824219 256.703125 136.917969 C 256.78125 137.792969 254.722656 138.632812 249.03125 140.921875 C 245.324219 142.410156 243.613281 142.933594 243.84375 144.386719 C 244.160156 146.503906 247.800781 146.539062 248.476562 146.660156 C 245.878906 147.777344 244.957031 150.132812 245.5625 151.210938 C 246.082031 152.167969 248.039062 152.621094 250.089844 151.824219 C 249.429688 153.132812 248.757812 154.941406 249.519531 156.03125 C 250.855469 157.898438 255.835938 156.621094 260.183594 155.167969 C 284.957031 146.808594 313.964844 125.226562 313.964844 125.226562 C 329.542969 114.910156 330.769531 104.496094 330.953125 101.878906 C 331.472656 94.078125 322.734375 84.207031 305.234375 64.773438 C 295.160156 53.59375 291.726562 50.964844 286.765625 49.722656 C 275.226562 46.882812 264.578125 53.777344 260.753906 56.539062 "/>
<path style=" stroke:none;fill-rule:nonzero;fill:rgb(15.689087%,25.099182%,49.409485%);fill-opacity:1;" d="M 305.128906 63.738281 C 298.460938 56.335938 294.183594 50.5 286.34375 48.429688 C 278.160156 46.269531 270.957031 48.929688 270.171875 49.226562 C 264.964844 51.214844 261.628906 54.4375 259.988281 56.253906 C 267.851562 65.476562 275.976562 74.78125 284.351562 84.152344 C 289.996094 90.472656 295.628906 96.671875 301.238281 102.742188 C 291.679688 110.820312 282.132812 118.902344 272.574219 126.988281 C 275.238281 133.4375 277.378906 140.113281 279.878906 146.625 C 298.226562 136.996094 314.015625 125.238281 314.015625 125.238281 C 329.871094 114.75 331.121094 104.15625 331.289062 101.484375 C 331.828125 93.550781 322.9375 83.5 305.128906 63.738281 "/>
<path style=" stroke:none;fill-rule:nonzero;fill:rgb(15.689087%,25.099182%,49.409485%);fill-opacity:1;" d="M 204.070312 334.277344 C 209.882812 333.8125 215.710938 333.34375 221.527344 332.882812 C 222.757812 342.582031 223.996094 352.292969 225.226562 361.980469 C 222.433594 362.289062 219.640625 362.582031 216.847656 362.890625 C 216.109375 358.5 215.378906 354.113281 214.640625 349.722656 C 212.355469 353.246094 207.601562 359.375 199.496094 362.707031 C 187.195312 367.773438 173.550781 363.789062 173.402344 361.332031 C 173.265625 358.878906 186.726562 359.742188 196.253906 349.722656 C 200.917969 344.820312 203.035156 338.976562 204.070312 334.277344 "/>
<path style=" stroke:none;fill-rule:nonzero;fill:rgb(15.689087%,25.099182%,49.409485%);fill-opacity:1;" d="M 161.578125 326.636719 C 167.417969 326.554688 173.253906 326.492188 179.082031 326.40625 C 179.664062 336.164062 180.242188 345.9375 180.824219 355.703125 C 178.007812 355.816406 175.214844 355.933594 172.402344 356.058594 C 171.957031 351.632812 171.527344 347.199219 171.082031 342.773438 C 168.566406 346.140625 163.421875 351.925781 155.105469 354.726562 C 142.484375 358.957031 129.136719 354.078125 129.160156 351.625 C 129.183594 349.164062 142.554688 350.917969 152.726562 341.558594 C 157.734375 336.949219 160.234375 331.253906 161.578125 326.636719 "/>
<g clip-path="url(#clip2)" clip-rule="nonzero">
<path style=" stroke:none;fill-rule:nonzero;fill:rgb(15.689087%,25.099182%,49.409485%);fill-opacity:1;" d="M 317.933594 342.253906 C 323.679688 341.207031 329.414062 340.148438 335.164062 339.089844 C 337.367188 348.617188 339.585938 358.148438 341.796875 367.667969 C 339.054688 368.257812 336.300781 368.839844 333.558594 369.421875 C 332.386719 365.128906 331.199219 360.835938 330.03125 356.542969 C 328.117188 360.273438 324.011719 366.859375 316.28125 371 C 304.566406 377.285156 290.578125 374.703125 290.191406 372.285156 C 289.804688 369.863281 303.277344 369.351562 311.742188 358.421875 C 315.875 353.054688 317.375 347.027344 317.933594 342.253906 "/>
</g>
<path style=" stroke:none;fill-rule:nonzero;fill:rgb(15.689087%,25.099182%,49.409485%);fill-opacity:1;" d="M 255.804688 340.632812 C 261.640625 340.554688 267.476562 340.488281 273.304688 340.410156 C 273.886719 350.167969 274.464844 359.9375 275.042969 369.703125 C 272.234375 369.816406 269.433594 369.929688 266.621094 370.054688 C 266.179688 365.632812 265.75 361.199219 265.300781 356.773438 C 262.789062 360.140625 257.644531 365.929688 249.324219 368.726562 C 236.707031 372.957031 223.359375 368.074219 223.382812 365.621094 C 223.402344 363.164062 236.773438 364.917969 246.945312 355.554688 C 251.964844 350.953125 254.46875 345.253906 255.804688 340.632812 "/>
<path style=" stroke:none;fill-rule:nonzero;fill:rgb(15.689087%,25.099182%,49.409485%);fill-opacity:1;" d="M 256.734375 136.4375 C 256.078125 137.449219 255.164062 138.226562 254.050781 138.703125 C 253.808594 138.816406 253.980469 139.191406 254.21875 139.078125 C 255.402344 138.578125 256.371094 137.746094 257.066406 136.679688 C 257.214844 136.453125 256.871094 136.222656 256.734375 136.4375 "/>
<path style=" stroke:none;fill-rule:nonzero;fill:rgb(15.689087%,25.099182%,49.409485%);fill-opacity:1;" d="M 259.328125 74.269531 C 259.257812 81.921875 259.714844 89.574219 260.683594 97.171875 C 260.71875 97.429688 261.128906 97.320312 261.089844 97.066406 C 260.136719 89.503906 259.679688 81.898438 259.742188 74.28125 C 259.742188 74.007812 259.328125 73.996094 259.328125 74.269531 "/>
<path style=" stroke:none;fill-rule:nonzero;fill:rgb(15.689087%,25.099182%,49.409485%);fill-opacity:1;" d="M 255.585938 149.84375 C 253.765625 150.460938 251.929688 151.074219 250.101562 151.675781 C 250.042969 151.703125 250.011719 151.734375 250 151.78125 C 248.554688 152.203125 245.253906 152.257812 245.753906 149.972656 C 246.011719 148.785156 247.21875 147.570312 248.347656 147.039062 C 248.355469 147.046875 248.371094 147.046875 248.394531 147.046875 C 248.460938 147.039062 248.496094 147.003906 248.519531 146.957031 C 248.539062 146.949219 248.574219 146.933594 248.609375 146.914062 C 248.621094 146.914062 248.621094 146.890625 248.632812 146.890625 C 250.613281 145.980469 252.652344 145.230469 254.742188 144.617188 C 254.996094 144.546875 254.925781 144.140625 254.675781 144.207031 C 252.46875 144.855469 250.316406 145.648438 248.222656 146.617188 C 247.050781 146.707031 245.660156 146.527344 244.808594 145.640625 C 243.25 144 245.261719 142.648438 246.652344 142.011719 C 246.890625 141.898438 246.722656 141.523438 246.480469 141.636719 C 245.140625 142.238281 243.148438 143.476562 244.003906 145.25 C 244.613281 146.535156 246.140625 146.980469 247.519531 147.027344 C 246.242188 147.894531 244.945312 149.472656 245.367188 150.847656 C 245.96875 152.804688 248.847656 152.609375 250.351562 152.097656 C 250.417969 152.074219 250.453125 152.039062 250.464844 151.996094 C 252.238281 151.402344 254.003906 150.8125 255.769531 150.230469 C 256.015625 150.140625 255.835938 149.765625 255.585938 149.84375 "/>
<path style=" stroke:none;fill-rule:nonzero;fill:rgb(15.689087%,25.099182%,49.409485%);fill-opacity:1;" d="M 272.710938 18.183594 C 273.527344 19.558594 275.269531 22.035156 278.230469 23.683594 C 282.632812 26.164062 286.835938 25.164062 288.183594 24.777344 C 288.652344 26.140625 289.117188 27.507812 289.574219 28.875 C 289.894531 28.0625 290.289062 26.867188 290.542969 25.394531 C 290.542969 25.394531 290.554688 25.3125 290.578125 25.183594 C 290.648438 25.21875 290.738281 25.21875 290.808594 25.152344 C 291.53125 24.414062 292.84375 24.617188 293.34375 25.527344 C 293.46875 25.753906 293.820312 25.542969 293.695312 25.300781 C 293.089844 24.210938 291.566406 23.980469 290.632812 24.765625 C 290.691406 24.230469 290.761719 23.402344 290.746094 22.367188 C 290.738281 19.628906 290.132812 17.179688 289.632812 15.894531 C 287.9375 11.582031 282.386719 8.433594 277.070312 8.046875 C 276.53125 8.003906 267.285156 7.480469 263.175781 14.371094 C 261.3125 17.488281 261.355469 20.703125 261.480469 22.242188 C 262.296875 22.605469 264.417969 23.390625 267.042969 22.628906 C 270.347656 21.683594 272.210938 18.96875 272.710938 18.183594 "/>
<path style=" stroke:none;fill-rule:nonzero;fill:rgb(15.689087%,25.099182%,49.409485%);fill-opacity:1;" d="M 265.609375 27.667969 C 265.351562 28.644531 265.40625 29.609375 265.734375 29.824219 C 266.066406 30.039062 266.554688 29.429688 266.816406 28.453125 C 267.078125 27.472656 267.019531 26.503906 266.691406 26.292969 C 266.375 26.082031 265.882812 26.699219 265.609375 27.667969 "/>
<path style=" stroke:none;fill-rule:nonzero;fill:rgb(15.689087%,25.099182%,49.409485%);fill-opacity:1;" d="M 278.628906 41.78125 C 278.84375 41.675781 278.6875 41.332031 278.480469 41.449219 C 276.101562 42.664062 273.441406 43.015625 270.824219 42.46875 C 270.59375 42.425781 270.558594 42.792969 270.789062 42.835938 C 273.472656 43.394531 276.203125 43.015625 278.628906 41.78125 "/>
<path style=" stroke:none;fill-rule:nonzero;fill:rgb(15.689087%,25.099182%,49.409485%);fill-opacity:1;" d="M 276.230469 73.972656 C 281.347656 80.40625 286.640625 86.730469 292.066406 92.917969 C 292.238281 93.109375 292.578125 92.871094 292.398438 92.667969 C 286.957031 86.480469 281.691406 80.167969 276.558594 73.722656 C 276.386719 73.503906 276.054688 73.753906 276.230469 73.972656 "/>
<path style=" stroke:none;fill-rule:nonzero;fill:rgb(15.689087%,25.099182%,49.409485%);fill-opacity:1;" d="M 273.464844 150.601562 C 273.414062 150.648438 273.359375 150.691406 273.3125 150.738281 C 273.242188 150.808594 273.164062 150.851562 273.089844 150.917969 L 296.664062 340.664062 C 296.699219 340.917969 297.109375 340.871094 297.078125 340.621094 L 273.464844 150.601562 "/>
<path style=" stroke:none;fill-rule:nonzero;fill:rgb(15.689087%,25.099182%,49.409485%);fill-opacity:1;" d="M 322.894531 151.636719 C 322.269531 145.132812 320.949219 138.492188 318.164062 132.554688 C 316.933594 129.941406 315.382812 127.507812 313.472656 125.359375 C 313.347656 125.429688 313.222656 125.507812 313.085938 125.574219 C 316.851562 129.804688 319.125 135.117188 320.5625 140.574219 C 322.304688 147.238281 323 154.1875 322.804688 161.066406 C 322.691406 165.160156 322.222656 169.25 321.441406 173.277344 C 321.378906 173.542969 321.792969 173.632812 321.839844 173.382812 C 323.210938 166.21875 323.589844 158.894531 322.894531 151.636719 "/>
<path style=" stroke:none;fill-rule:nonzero;fill:rgb(15.689087%,25.099182%,49.409485%);fill-opacity:1;" d="M 276.980469 28.734375 C 276.714844 29.714844 276.777344 30.679688 277.105469 30.894531 C 277.433594 31.113281 277.921875 30.496094 278.183594 29.519531 C 278.449219 28.542969 278.390625 27.574219 278.0625 27.359375 C 277.730469 27.15625 277.253906 27.757812 276.980469 28.734375 "/>
<path style=" stroke:none;fill-rule:nonzero;fill:rgb(15.689087%,25.099182%,49.409485%);fill-opacity:1;" d="M 272.144531 32.691406 C 271.632812 32.828125 271.121094 32.929688 270.59375 33 C 270.789062 32.121094 270.992188 31.246094 271.199219 30.359375 C 271.253906 30.101562 270.847656 30.011719 270.789062 30.277344 C 270.558594 31.257812 270.347656 32.238281 270.117188 33.203125 C 270.117188 33.214844 270.128906 33.214844 270.128906 33.238281 C 270.128906 33.28125 270.136719 33.316406 270.136719 33.34375 C 270.152344 33.351562 270.152344 33.351562 270.152344 33.363281 C 270.1875 33.40625 270.242188 33.441406 270.320312 33.441406 C 270.980469 33.371094 271.617188 33.25 272.257812 33.078125 C 272.53125 33.011719 272.40625 32.613281 272.144531 32.691406 "/>
<path style=" stroke:none;fill-rule:nonzero;fill:rgb(15.689087%,25.099182%,49.409485%);fill-opacity:1;" d="M 286.175781 45.835938 L 272.917969 45.835938 L 272.917969 55.777344 L 286.175781 55.777344 L 286.175781 45.835938 "/>
<path style=" stroke:none;fill-rule:nonzero;fill:rgb(97.648621%,100%,92.939758%);fill-opacity:1;" d="M 290.542969 30.382812 C 291.386719 30.382812 292.058594 31.0625 292.058594 31.898438 C 292.058594 32.726562 291.371094 33.40625 290.542969 33.40625 C 289.699219 33.40625 289.027344 32.726562 289.027344 31.898438 C 289.027344 31.0625 289.699219 30.382812 290.542969 30.382812 "/>
<path style=" stroke:none;fill-rule:nonzero;fill:rgb(97.648621%,100%,92.939758%);fill-opacity:1;" d="M 197.023438 31.257812 L 195.773438 31.257812 L 195.773438 44.507812 L 197.023438 44.507812 L 197.023438 31.257812 "/>
<path style=" stroke:none;fill-rule:nonzero;fill:rgb(97.648621%,100%,92.939758%);fill-opacity:1;" d="M 323.238281 345.191406 C 323.238281 347.195312 321.613281 348.820312 319.605469 348.820312 C 317.597656 348.820312 315.96875 347.195312 315.96875 345.191406 C 315.96875 343.179688 317.597656 341.554688 319.605469 341.554688 C 321.613281 341.554688 323.238281 343.179688 323.238281 345.191406 "/>
<path style=" stroke:none;fill-rule:nonzero;fill:rgb(97.648621%,100%,92.939758%);fill-opacity:1;" d="M 259.253906 342.28125 C 259.253906 344.019531 257.84375 345.429688 256.101562 345.429688 C 254.363281 345.429688 252.949219 344.019531 252.949219 342.28125 C 252.949219 340.542969 254.363281 339.132812 256.101562 339.132812 C 257.84375 339.132812 259.253906 340.542969 259.253906 342.28125 "/>
<path style=" stroke:none;fill-rule:nonzero;fill:rgb(97.648621%,100%,92.939758%);fill-opacity:1;" d="M 322.753906 344.460938 C 322.753906 346.066406 324.167969 347.367188 325.90625 347.367188 C 327.644531 347.367188 329.058594 346.066406 329.058594 344.460938 C 329.058594 342.855469 327.644531 341.554688 325.90625 341.554688 C 324.167969 341.554688 322.753906 342.855469 322.753906 344.460938 "/>
<path style=" stroke:none;fill-rule:nonzero;fill:rgb(97.648621%,100%,92.939758%);fill-opacity:1;" d="M 258.769531 342.519531 C 258.769531 343.863281 259.851562 344.945312 261.191406 344.945312 C 262.53125 344.945312 263.617188 343.863281 263.617188 342.519531 C 263.617188 341.183594 262.53125 340.101562 261.191406 340.101562 C 259.851562 340.101562 258.769531 341.183594 258.769531 342.519531 "/>
<path style=" stroke:none;fill-rule:nonzero;fill:rgb(15.689087%,25.099182%,49.409485%);fill-opacity:1;" d="M 95.964844 28.851562 C 95.964844 39.375 88.105469 47.914062 78.410156 47.914062 C 68.710938 47.914062 60.847656 39.375 60.847656 28.851562 C 60.847656 18.332031 68.710938 9.792969 78.410156 9.792969 C 88.105469 9.792969 95.964844 18.332031 95.964844 28.851562 "/>
<path style=" stroke:none;fill-rule:nonzero;fill:rgb(97.648621%,100%,92.939758%);fill-opacity:1;" d="M 163.054688 328.695312 C 163.054688 330.433594 161.640625 331.84375 159.902344 331.84375 C 158.160156 331.84375 156.75 330.433594 156.75 328.695312 C 156.75 326.953125 158.160156 325.542969 159.902344 325.542969 C 161.640625 325.542969 163.054688 326.953125 163.054688 328.695312 "/>
<path style=" stroke:none;fill-rule:nonzero;fill:rgb(97.648621%,100%,92.939758%);fill-opacity:1;" d="M 206.847656 336.730469 C 206.847656 338.46875 205.4375 339.878906 203.699219 339.878906 C 201.957031 339.878906 200.546875 338.46875 200.546875 336.730469 C 200.546875 334.988281 201.957031 333.578125 203.699219 333.578125 C 205.4375 333.578125 206.847656 334.988281 206.847656 336.730469 "/>
<path style=" stroke:none;fill-rule:nonzero;fill:rgb(97.648621%,100%,92.939758%);fill-opacity:1;" d="M 163.519531 329.980469 C 163.519531 331.582031 164.820312 332.886719 166.425781 332.886719 C 168.03125 332.886719 169.335938 331.582031 169.335938 329.980469 C 169.335938 328.375 168.03125 327.070312 166.425781 327.070312 C 164.820312 327.070312 163.519531 328.375 163.519531 329.980469 "/>
<path style=" stroke:none;fill-rule:nonzero;fill:rgb(97.648621%,100%,92.939758%);fill-opacity:1;" d="M 206.960938 337.652344 C 206.960938 338.988281 208.046875 340.074219 209.382812 340.074219 C 210.722656 340.074219 211.808594 338.988281 211.808594 337.652344 C 211.808594 336.316406 210.722656 335.234375 209.382812 335.234375 C 208.046875 335.234375 206.960938 336.316406 206.960938 337.652344 "/>
<path style=" stroke:none;fill-rule:nonzero;fill:rgb(15.689087%,25.099182%,49.409485%);fill-opacity:1;" d="M 275.269531 34.941406 C 274.492188 36.050781 272.953125 36.304688 271.832031 35.570312 C 271.527344 35.367188 271.242188 35.863281 271.542969 36.0625 C 272.9375 36.976562 274.8125 36.578125 275.761719 35.230469 C 275.972656 34.929688 275.476562 34.644531 275.269531 34.941406 "/>
<path style=" stroke:none;fill-rule:nonzero;fill:rgb(15.689087%,25.099182%,49.409485%);fill-opacity:1;" d="M 241.570312 175.148438 C 240.820312 176.089844 239.402344 176.273438 238.324219 175.84375 C 237.261719 175.414062 236.578125 174.496094 236.105469 173.488281 C 236.097656 174.527344 235.863281 175.539062 235.035156 176.285156 C 232.914062 178.195312 229.859375 176.578125 229.738281 173.898438 C 229.71875 173.535156 230.289062 173.535156 230.304688 173.898438 C 230.386719 175.761719 232.125 177.089844 233.910156 176.320312 C 235.476562 175.644531 235.644531 174.039062 235.507812 172.527344 C 235.277344 170.039062 234.894531 167.546875 234.582031 165.066406 C 234.539062 164.699219 235.109375 164.707031 235.152344 165.066406 C 235.441406 167.378906 235.753906 169.691406 236.019531 172.007812 C 236.097656 172.027344 236.171875 172.078125 236.207031 172.179688 C 236.691406 173.6875 237.625 175.46875 239.453125 175.496094 C 241.734375 175.527344 241.5625 173.207031 241.480469 171.589844 C 241.324219 168.488281 241.019531 165.398438 240.582031 162.328125 C 240.535156 161.96875 241.082031 161.816406 241.132812 162.175781 C 241.472656 164.570312 241.742188 166.972656 241.914062 169.386719 C 242.03125 170.984375 242.695312 173.742188 241.570312 175.148438 Z M 228.445312 168.644531 C 227.941406 169.808594 226.601562 170.792969 225.300781 170.289062 C 223.769531 169.695312 222.984375 167.277344 222.417969 165.90625 C 221.441406 163.546875 220.855469 161.074219 220.589844 158.535156 C 220.554688 158.171875 221.125 158.175781 221.164062 158.535156 C 221.515625 161.941406 222.484375 165.441406 224.261719 168.398438 C 224.6875 169.105469 224.835938 169.320312 225.664062 169.578125 C 226.578125 169.859375 227.238281 169.597656 227.746094 168.769531 C 228.265625 167.925781 228.21875 166.816406 228.125 165.867188 C 227.972656 164.28125 227.722656 162.691406 227.515625 161.109375 C 227.464844 160.75 228.035156 160.753906 228.082031 161.109375 C 228.257812 162.445312 228.445312 163.78125 228.609375 165.117188 C 228.746094 166.269531 228.921875 167.539062 228.445312 168.644531 Z M 181.898438 35.511719 C 181.222656 36.667969 179.773438 37.089844 178.566406 36.53125 C 178.234375 36.375 178.527344 35.882812 178.855469 36.039062 C 179.78125 36.46875 180.898438 36.097656 181.410156 35.226562 C 181.589844 34.90625 182.085938 35.195312 181.898438 35.511719 Z M 191.324219 115.023438 C 192.363281 119.246094 193.136719 123.511719 193.625 127.820312 C 193.660156 128.078125 194.066406 128.078125 194.035156 127.820312 C 193.535156 123.476562 192.757812 119.167969 191.722656 114.910156 C 191.667969 114.652344 191.269531 114.765625 191.324219 115.023438 Z M 169.726562 116.195312 C 168.167969 121.75 166.9375 127.390625 166.0625 133.09375 C 166.019531 133.359375 166.425781 133.472656 166.460938 133.210938 C 167.339844 127.5 168.558594 121.863281 170.125 116.308594 C 170.195312 116.046875 169.796875 115.949219 169.726562 116.195312 Z M 176.554688 30.882812 C 176.328125 31.863281 176.113281 32.839844 175.882812 33.804688 C 175.882812 33.820312 175.894531 33.820312 175.894531 33.839844 C 175.894531 33.882812 175.910156 33.917969 175.910156 33.941406 C 175.917969 33.953125 175.917969 33.953125 175.917969 33.964844 C 175.953125 34.011719 176.007812 34.042969 176.085938 34.042969 C 176.75 33.976562 177.382812 33.847656 178.023438 33.679688 C 178.273438 33.609375 178.148438 33.214844 177.886719 33.292969 C 177.375 33.433594 176.863281 33.53125 176.339844 33.601562 C 176.535156 32.726562 176.738281 31.847656 176.941406 30.964844 C 177.019531 30.710938 176.625 30.621094 176.554688 30.882812 Z M 179.992188 25.96875 C 185.160156 26.097656 189.84375 25.835938 193.957031 25.394531 C 194.421875 26.757812 194.890625 28.121094 195.339844 29.484375 C 195.660156 28.679688 196.0625 27.484375 196.308594 26.003906 C 196.308594 26.003906 196.320312 25.925781 196.34375 25.800781 C 196.414062 25.835938 196.503906 25.835938 196.574219 25.765625 C 197.296875 25.027344 198.609375 25.234375 199.109375 26.140625 C 199.234375 26.371094 199.585938 26.152344 199.460938 25.914062 C 198.855469 24.820312 197.332031 24.59375 196.398438 25.378906 C 196.457031 24.847656 196.527344 24.015625 196.511719 22.980469 C 196.503906 20.238281 195.898438 17.792969 195.402344 16.507812 C 193.703125 12.199219 188.152344 9.050781 182.835938 8.664062 C 182.128906 8.609375 173.324219 8.128906 168.941406 14.984375 C 166.300781 19.125 166.804688 23.515625 167.015625 24.867188 C 170.855469 25.425781 175.214844 25.859375 179.992188 25.96875 Z M 176.554688 43.4375 C 179.230469 43.996094 181.960938 43.632812 184.394531 42.390625 C 184.613281 42.292969 184.453125 41.949219 184.25 42.0625 C 181.867188 43.277344 179.207031 43.632812 176.589844 43.085938 C 176.359375 43.015625 176.339844 43.382812 176.554688 43.4375 Z M 171.378906 28.277344 C 171.117188 29.257812 171.171875 30.222656 171.5 30.4375 C 171.832031 30.65625 172.324219 30.039062 172.582031 29.0625 C 172.84375 28.085938 172.785156 27.121094 172.457031 26.902344 C 172.140625 26.6875 171.648438 27.300781 171.378906 28.277344 Z M 183.960938 30.132812 C 184.226562 29.15625 184.171875 28.1875 183.839844 27.972656 C 183.503906 27.757812 183.019531 28.371094 182.753906 29.351562 C 182.496094 30.328125 182.550781 31.292969 182.878906 31.511719 C 183.203125 31.714844 183.6875 31.113281 183.960938 30.132812 Z M 198.335938 111.929688 C 200.0625 122.964844 201.808594 134.003906 203.535156 145.039062 C 203.582031 145.296875 203.992188 145.25 203.945312 144.992188 C 202.21875 133.960938 200.476562 122.914062 198.742188 111.886719 C 198.710938 111.628906 198.292969 111.660156 198.335938 111.929688 Z M 204.890625 107.804688 C 201.523438 109.375 198.132812 110.953125 194.523438 111.898438 C 191.210938 112.765625 187.75 112.96875 184.339844 113.183594 C 184.25 113.101562 184.113281 113.113281 184.042969 113.207031 C 177.917969 113.578125 171.367188 113.457031 166.152344 109.828125 C 165.9375 109.679688 165.730469 110.035156 165.949219 110.183594 C 169.058594 112.34375 172.628906 113.277344 176.316406 113.605469 C 176.292969 113.628906 176.261719 113.648438 176.246094 113.695312 C 173.242188 126.113281 171.015625 138.710938 169.558594 151.402344 C 169.523438 151.667969 169.941406 151.667969 169.964844 151.402344 C 171.421875 138.746094 173.65625 126.191406 176.644531 113.796875 C 176.667969 113.726562 176.644531 113.671875 176.597656 113.628906 C 179.070312 113.816406 181.574219 113.761719 184.007812 113.613281 C 184.78125 125.796875 185.371094 137.988281 185.808594 150.175781 C 185.820312 150.441406 186.226562 150.441406 186.214844 150.175781 C 185.785156 137.976562 185.179688 125.785156 184.417969 113.59375 C 187.828125 113.375 191.304688 113.171875 194.628906 112.296875 C 198.265625 111.339844 201.691406 109.75 205.09375 108.167969 C 205.34375 108.042969 205.128906 107.691406 204.890625 107.804688 "/>
<path style=" stroke:none;fill-rule:nonzero;fill:rgb(92.158508%,62.348938%,58.428955%);fill-opacity:1;" d="M 43.398438 81.667969 C 39.433594 126.371094 36.6875 159.113281 36.378906 164.339844 C 36.273438 166.175781 36.160156 169.824219 38.175781 171.148438 C 38.421875 171.304688 39.015625 171.6875 39.640625 171.535156 C 41.988281 170.957031 42.042969 163.667969 42.109375 163.675781 C 42.15625 163.675781 42.363281 166.6875 41.703125 173.347656 C 41.421875 176.179688 41.085938 178.605469 42.414062 179.539062 C 43.078125 180.011719 43.894531 179.917969 44.148438 179.890625 C 45.648438 179.714844 46.96875 178.375 47.464844 176.472656 C 47.265625 179.542969 49.078125 181.585938 50.421875 181.542969 C 51.601562 181.5 53 179.816406 53.242188 177.433594 C 54.183594 178.714844 55.601562 180.273438 57.019531 180.042969 C 59.78125 179.621094 60.917969 172.808594 61.449219 169.246094 C 65.355469 142.625 64.65625 100.316406 64.558594 94.207031 C 64.375 82.636719 63.828125 59.734375 58.941406 58.523438 C 56.941406 58.027344 52.785156 60.828125 43.398438 81.667969 "/>
<path style=" stroke:none;fill-rule:nonzero;fill:rgb(92.158508%,62.348938%,58.428955%);fill-opacity:1;" d="M 79.515625 270.820312 C 77.878906 290.574219 76.230469 310.328125 74.59375 330.070312 C 69.152344 330.355469 63.714844 330.636719 58.273438 330.9375 C 57.019531 313.113281 55.769531 295.273438 54.519531 277.453125 C 62.84375 275.246094 71.191406 273.03125 79.515625 270.820312 Z M 119.90625 279.5 C 118.914062 299.511719 117.933594 319.519531 116.945312 339.546875 C 111.550781 339.820312 106.144531 340.101562 100.753906 340.363281 C 98.875 322.90625 97 305.453125 95.105469 288.007812 C 103.367188 285.160156 111.628906 282.332031 119.90625 279.5 "/>
<path style=" stroke:none;fill-rule:nonzero;fill:rgb(73.728943%,90.19928%,88.62915%);fill-opacity:1;" d="M 135.175781 290.542969 C 103.78125 290.589844 72.371094 290.632812 40.976562 290.6875 C 42.664062 246.648438 46.894531 200.089844 54.527344 151.417969 C 56.632812 137.960938 58.941406 124.738281 61.433594 111.761719 C 67.171875 111.992188 73.464844 112.035156 80.210938 111.761719 C 87.972656 111.453125 95.097656 110.785156 101.480469 109.945312 C 109.171875 134.566406 114.648438 155.757812 118.507812 172.226562 C 122.796875 190.570312 127.164062 209.402344 135.175781 290.542969 "/>
<path style=" stroke:none;fill-rule:nonzero;fill:rgb(92.158508%,62.348938%,58.428955%);fill-opacity:1;" d="M 97.191406 26.972656 C 98.53125 29.097656 97.441406 31.371094 97.292969 31.679688 C 96.429688 33.398438 94.847656 34.011719 94.417969 34.183594 C 92.582031 34.863281 90.992188 34.339844 90.570312 34.183594 C 90.488281 34.558594 90.351562 35.117188 90.15625 35.761719 C 89.429688 38.238281 88.851562 40.070312 87.574219 41.765625 C 84.570312 45.710938 79.09375 45.941406 78.722656 45.960938 C 71.210938 46.453125 64.65625 40.46875 64.144531 32.683594 C 64.15625 31.113281 64.179688 29.542969 64.191406 27.972656 C 64.167969 26.800781 64.191406 21.636719 68.136719 17.460938 C 69.035156 16.507812 71.925781 13.554688 76.59375 13.132812 C 81.769531 12.691406 85.425781 15.679688 86.507812 16.667969 C 90.238281 20.070312 90.828125 24.414062 90.941406 25.542969 C 91.351562 25.289062 92.128906 24.902344 93.152344 24.867188 C 94.65625 24.800781 96.277344 25.527344 97.191406 26.972656 "/>
<path style=" stroke:none;fill-rule:nonzero;fill:rgb(92.158508%,62.348938%,58.428955%);fill-opacity:1;" d="M 75.296875 35.503906 L 85.445312 35.503906 C 85.445312 42.097656 85.445312 48.691406 85.445312 55.285156 C 100.785156 54.355469 113.679688 59.484375 117.820312 68.808594 C 118.628906 70.628906 119.3125 73.074219 119.265625 76.257812 C 113.578125 95.078125 96.347656 107.488281 78.257812 106.613281 C 63.597656 105.90625 50.285156 96.589844 43.675781 82.671875 C 43.683594 80.898438 43.933594 70.378906 52.582031 62.382812 C 61.996094 53.683594 73.703125 55.074219 75.296875 55.285156 C 75.296875 48.691406 75.296875 42.097656 75.296875 35.503906 "/>
<path style=" stroke:none;fill-rule:nonzero;fill:rgb(97.648621%,100%,92.939758%);fill-opacity:1;" d="M 81.488281 29.597656 C 80.132812 28.894531 78.460938 29.429688 77.753906 30.78125 C 77.050781 32.136719 77.585938 33.804688 78.9375 34.511719 C 80.292969 35.214844 81.964844 34.683594 82.671875 33.328125 C 83.375 31.960938 82.851562 30.304688 81.488281 29.597656 Z M 71.097656 32.171875 C 70.390625 33.519531 68.71875 34.058594 67.363281 33.351562 C 66.011719 32.648438 65.476562 30.972656 66.179688 29.625 C 66.886719 28.269531 68.558594 27.730469 69.914062 28.4375 C 71.269531 29.15625 71.800781 30.816406 71.097656 32.171875 "/>
<path style=" stroke:none;fill-rule:nonzero;fill:rgb(92.158508%,62.348938%,58.428955%);fill-opacity:1;" d="M 102.703125 98.839844 C 115.554688 134.25 124.871094 159.773438 126.574219 164.785156 C 127.015625 166.089844 128.277344 169.921875 130.792969 170.425781 C 131.066406 170.484375 131.765625 170.628906 132.292969 170.238281 C 134.261719 168.828125 131.574219 162.046875 131.652344 162.023438 C 131.695312 162.015625 133.015625 164.71875 134.894531 171.140625 C 135.691406 173.867188 136.292969 176.238281 137.867188 176.613281 C 138.664062 176.800781 139.382812 176.410156 139.609375 176.289062 C 140.933594 175.570312 141.660156 173.84375 141.410156 171.882812 C 142.367188 174.804688 144.824219 176.015625 146.046875 175.472656 C 147.132812 174.996094 147.792969 172.910156 147.128906 170.613281 C 147.308594 171.011719 148.148438 172.789062 149.777344 173.058594 C 149.890625 173.074219 150.480469 173.175781 150.832031 172.988281 C 152.734375 171.988281 149.316406 161.816406 149.316406 161.816406 C 138.738281 130.507812 128.15625 99.207031 117.574219 67.898438 C 111.664062 64.769531 108.765625 65.921875 107.753906 66.472656 C 104.597656 68.1875 104.960938 73.042969 103.804688 87.179688 C 103.390625 92.296875 102.964844 96.40625 102.703125 98.839844 "/>
<path style=" stroke:none;fill-rule:nonzero;fill:rgb(15.689087%,25.099182%,49.409485%);fill-opacity:1;" d="M 100.136719 336.550781 C 105.949219 336.085938 111.777344 335.617188 117.59375 335.15625 C 118.824219 344.855469 120.066406 354.566406 121.292969 364.257812 C 118.507812 364.5625 115.707031 364.859375 112.917969 365.164062 C 112.175781 360.777344 111.449219 356.386719 110.710938 351.996094 C 108.421875 355.519531 103.667969 361.648438 95.5625 364.980469 C 83.261719 370.046875 69.617188 366.0625 69.46875 363.605469 C 69.335938 361.152344 82.792969 362.015625 92.320312 351.996094 C 96.984375 347.09375 99.101562 341.25 100.136719 336.550781 "/>
<g clip-path="url(#clip3)" clip-rule="nonzero">
<path style=" stroke:none;fill-rule:nonzero;fill:rgb(15.689087%,25.099182%,49.409485%);fill-opacity:1;" d="M 57.648438 328.910156 C 63.484375 328.832031 69.324219 328.765625 75.148438 328.6875 C 75.730469 338.4375 76.308594 348.210938 76.890625 357.980469 C 74.082031 358.09375 71.28125 358.207031 68.46875 358.332031 C 68.023438 353.90625 67.59375 349.472656 67.148438 345.046875 C 64.632812 348.414062 59.488281 354.207031 51.171875 357 C 38.550781 361.230469 25.207031 356.351562 25.226562 353.898438 C 25.25 351.441406 38.621094 353.191406 48.792969 343.832031 C 53.800781 339.222656 56.304688 333.527344 57.648438 328.910156 "/>
</g>
<path style=" stroke:none;fill-rule:nonzero;fill:rgb(97.648621%,100%,92.939758%);fill-opacity:1;" d="M 59.121094 330.96875 C 59.121094 332.707031 57.710938 334.117188 55.96875 334.117188 C 54.226562 334.117188 52.816406 332.707031 52.816406 330.96875 C 52.816406 329.226562 54.226562 327.824219 55.96875 327.824219 C 57.710938 327.824219 59.121094 329.226562 59.121094 330.96875 "/>
<path style=" stroke:none;fill-rule:nonzero;fill:rgb(97.648621%,100%,92.939758%);fill-opacity:1;" d="M 102.917969 339.003906 C 102.917969 340.742188 101.503906 342.152344 99.765625 342.152344 C 98.023438 342.152344 96.613281 340.742188 96.613281 339.003906 C 96.613281 337.265625 98.023438 335.855469 99.765625 335.855469 C 101.503906 335.855469 102.917969 337.265625 102.917969 339.003906 "/>
<path style=" stroke:none;fill-rule:nonzero;fill:rgb(97.648621%,100%,92.939758%);fill-opacity:1;" d="M 59.585938 332.253906 C 59.585938 333.855469 60.886719 335.160156 62.492188 335.160156 C 64.101562 335.160156 65.402344 333.855469 65.402344 332.253906 C 65.402344 330.648438 64.101562 329.34375 62.492188 329.34375 C 60.886719 329.34375 59.585938 330.648438 59.585938 332.253906 "/>
<path style=" stroke:none;fill-rule:nonzero;fill:rgb(97.648621%,100%,92.939758%);fill-opacity:1;" d="M 103.03125 339.925781 C 103.03125 341.269531 104.113281 342.347656 105.453125 342.347656 C 106.789062 342.347656 107.875 341.269531 107.875 339.925781 C 107.875 338.589844 106.789062 337.507812 105.453125 337.507812 C 104.113281 337.507812 103.03125 338.589844 103.03125 339.925781 "/>
<path style=" stroke:none;fill-rule:nonzero;fill:rgb(15.689087%,25.099182%,49.409485%);fill-opacity:1;" d="M 133.527344 169.082031 C 133.132812 170.289062 131.894531 171.390625 130.550781 171.007812 C 128.96875 170.5625 127.964844 168.226562 127.277344 166.914062 C 126.082031 164.652344 125.269531 162.246094 124.769531 159.742188 C 124.703125 159.386719 125.265625 159.332031 125.335938 159.691406 C 126.007812 163.050781 127.292969 166.449219 129.34375 169.226562 C 129.828125 169.890625 130 170.089844 130.84375 170.265625 C 131.777344 170.464844 132.410156 170.140625 132.839844 169.273438 C 133.28125 168.378906 133.132812 167.285156 132.953125 166.34375 C 132.65625 164.777344 132.253906 163.226562 131.902344 161.667969 C 131.820312 161.3125 132.390625 161.265625 132.46875 161.617188 C 132.769531 162.925781 133.074219 164.242188 133.363281 165.554688 C 133.609375 166.691406 133.902344 167.9375 133.527344 169.082031 "/>
<path style=" stroke:none;fill-rule:nonzero;fill:rgb(15.689087%,25.099182%,49.409485%);fill-opacity:1;" d="M 147.199219 174.34375 C 146.539062 175.347656 145.140625 175.664062 144.035156 175.335938 C 142.929688 175.003906 142.171875 174.15625 141.605469 173.195312 C 141.6875 174.234375 141.554688 175.261719 140.800781 176.082031 C 138.867188 178.175781 135.667969 176.851562 135.300781 174.195312 C 135.25 173.832031 135.816406 173.78125 135.867188 174.140625 C 136.125 175.984375 137.972656 177.152344 139.683594 176.21875 C 141.171875 175.398438 141.195312 173.785156 140.921875 172.296875 C 140.460938 169.835938 139.847656 167.390625 139.304688 164.949219 C 139.226562 164.59375 139.796875 164.542969 139.875 164.894531 C 140.375 167.171875 140.902344 169.441406 141.382812 171.730469 C 141.464844 171.742188 141.542969 171.785156 141.582031 171.882812 C 142.210938 173.339844 143.304688 175.027344 145.128906 174.882812 C 147.398438 174.707031 147.015625 172.414062 146.78125 170.808594 C 146.339844 167.734375 145.75 164.6875 145.027344 161.667969 C 144.945312 161.316406 145.476562 161.113281 145.5625 161.46875 C 146.121094 163.820312 146.613281 166.1875 147.011719 168.574219 C 147.273438 170.15625 148.1875 172.839844 147.199219 174.34375 "/>
<path style=" stroke:none;fill-rule:nonzero;fill:rgb(15.689087%,25.099182%,49.409485%);fill-opacity:1;" d="M 87.117188 0.0742188 C 82.976562 0.0742188 79.617188 3.433594 79.617188 7.570312 C 79.617188 11.710938 82.976562 15.066406 87.117188 15.066406 C 91.261719 15.066406 94.621094 11.710938 94.621094 7.570312 C 94.621094 3.433594 91.261719 0.0742188 87.117188 0.0742188 "/>
<path style=" stroke:none;fill-rule:nonzero;fill:rgb(73.728943%,90.19928%,88.62915%);fill-opacity:1;" d="M 61.425781 112.273438 C 60.902344 107.917969 60.375 103.558594 59.84375 99.203125 C 53.734375 94.015625 47.621094 88.835938 41.507812 83.652344 C 41.632812 80.941406 42.339844 73.15625 48.175781 65.882812 C 53.148438 59.691406 59.195312 57.148438 61.847656 56.210938 C 62.914062 55.90625 64.167969 55.632812 65.582031 55.445312 C 66.875 55.277344 68.039062 55.230469 69.027344 55.230469 C 68.800781 58.496094 68.828125 64.273438 71.238281 70.878906 C 73.5625 77.25 77.078125 81.574219 79.296875 83.929688 C 82.222656 78.863281 85.191406 73.03125 87.910156 66.4375 C 89.550781 62.460938 90.925781 58.636719 92.082031 55.015625 C 92.605469 55.039062 93.148438 55.074219 93.707031 55.113281 C 93.707031 55.113281 94.910156 55.203125 96.085938 55.347656 C 108.578125 56.839844 114.859375 61.714844 114.859375 61.714844 C 123.351562 68.304688 123.953125 80.171875 124.027344 82.542969 C 116.804688 87.90625 109.582031 93.277344 102.355469 98.644531 C 102.152344 102.753906 101.949219 106.867188 101.746094 110.976562 C 98.054688 112.96875 90.296875 116.503906 79.929688 116.425781 C 71.542969 116.355469 65.054688 113.945312 61.425781 112.273438 "/>
<path style=" stroke:none;fill-rule:nonzero;fill:rgb(15.689087%,25.099182%,49.409485%);fill-opacity:1;" d="M 49.527344 181.507812 C 49.574219 181.375 49.621094 181.234375 49.664062 181.097656 C 47.175781 179.46875 47.585938 175.574219 47.664062 172.941406 C 47.671875 172.679688 47.265625 172.683594 47.253906 172.945312 C 47.238281 173.511719 47.210938 174.128906 47.199219 174.753906 C 47.050781 175.894531 46.851562 177.023438 46.4375 178.050781 C 46.007812 179.148438 45.058594 180.242188 43.769531 180.085938 C 42.296875 179.898438 41.699219 178.324219 41.582031 177.039062 C 41.386719 174.996094 41.800781 172.902344 41.960938 170.863281 C 42.136719 168.550781 42.210938 166.226562 42.179688 163.910156 C 42.179688 163.648438 41.769531 163.652344 41.773438 163.914062 C 41.796875 166.984375 41.65625 170.046875 41.351562 173.097656 C 41.136719 175.167969 40.582031 178.203125 42.320312 179.820312 C 43.636719 181.042969 45.457031 180.496094 46.394531 179.109375 C 46.863281 178.398438 47.09375 177.578125 47.253906 176.746094 C 47.394531 178.667969 47.929688 180.492188 49.527344 181.507812 "/>
<path style=" stroke:none;fill-rule:nonzero;fill:rgb(15.689087%,25.099182%,49.409485%);fill-opacity:1;" d="M 87.390625 117.300781 C 88.429688 121.519531 89.203125 125.785156 89.691406 130.09375 C 89.726562 130.355469 90.136719 130.355469 90.101562 130.09375 C 89.601562 125.75 88.828125 121.441406 87.792969 117.183594 C 87.734375 116.925781 87.335938 117.039062 87.390625 117.300781 "/>
<path style=" stroke:none;fill-rule:nonzero;fill:rgb(15.689087%,25.099182%,49.409485%);fill-opacity:1;" d="M 65.792969 118.472656 C 64.234375 124.023438 63.007812 129.664062 62.128906 135.367188 C 62.085938 135.632812 62.492188 135.746094 62.527344 135.484375 C 63.40625 129.773438 64.621094 124.136719 66.191406 118.585938 C 66.261719 118.324219 65.863281 118.222656 65.792969 118.472656 "/>
<path style=" stroke:none;fill-rule:nonzero;fill:rgb(15.689087%,25.099182%,49.409485%);fill-opacity:1;" d="M 100.957031 110.078125 C 97.589844 111.648438 94.199219 113.226562 90.589844 114.171875 C 87.277344 115.039062 83.820312 115.242188 80.40625 115.457031 C 80.316406 115.378906 80.179688 115.386719 80.109375 115.480469 C 73.988281 115.855469 67.433594 115.730469 62.21875 112.105469 C 62.007812 111.957031 61.800781 112.308594 62.015625 112.457031 C 65.125 114.617188 68.699219 115.550781 72.382812 115.878906 C 72.363281 115.902344 72.328125 115.921875 72.3125 115.96875 C 69.308594 128.386719 67.082031 140.984375 65.625 153.679688 C 65.589844 153.941406 66.011719 153.941406 66.03125 153.679688 C 67.492188 141.019531 69.722656 128.46875 72.714844 116.070312 C 72.734375 116.003906 72.714844 115.949219 72.671875 115.902344 C 75.136719 116.097656 77.640625 116.039062 80.078125 115.886719 C 80.847656 128.070312 81.441406 140.261719 81.875 152.449219 C 81.886719 152.714844 82.292969 152.714844 82.28125 152.449219 C 81.851562 140.25 81.25 128.058594 80.484375 115.867188 C 83.902344 115.652344 87.371094 115.445312 90.691406 114.574219 C 94.332031 113.613281 97.757812 112.023438 101.164062 110.441406 C 101.414062 110.316406 101.199219 109.964844 100.957031 110.078125 "/>
<path style=" stroke:none;fill-rule:nonzero;fill:rgb(15.689087%,25.099182%,49.409485%);fill-opacity:1;" d="M 94.402344 114.207031 C 96.132812 125.238281 97.871094 136.277344 99.605469 147.3125 C 99.648438 147.570312 100.058594 147.527344 100.011719 147.265625 C 98.285156 136.234375 96.542969 125.195312 94.8125 114.160156 C 94.777344 113.902344 94.355469 113.933594 94.402344 114.207031 "/>
<path style=" stroke:none;fill-rule:nonzero;fill:rgb(15.689087%,25.099182%,49.409485%);fill-opacity:1;" d="M 72.621094 33.15625 C 72.398438 34.136719 72.179688 35.117188 71.949219 36.082031 C 71.949219 36.09375 71.960938 36.09375 71.960938 36.113281 C 71.960938 36.160156 71.976562 36.191406 71.976562 36.21875 C 71.984375 36.226562 71.984375 36.226562 71.984375 36.238281 C 72.019531 36.289062 72.074219 36.316406 72.15625 36.316406 C 72.816406 36.253906 73.453125 36.128906 74.089844 35.957031 C 74.339844 35.886719 74.214844 35.488281 73.953125 35.570312 C 73.441406 35.707031 72.929688 35.804688 72.40625 35.875 C 72.601562 35 72.804688 34.121094 73.007812 33.238281 C 73.089844 32.984375 72.691406 32.894531 72.621094 33.15625 "/>
<path style=" stroke:none;fill-rule:nonzero;fill:rgb(15.689087%,25.099182%,49.409485%);fill-opacity:1;" d="M 71.914062 45.054688 C 74.457031 46.050781 77.210938 46.144531 79.820312 45.328125 C 80.050781 45.265625 79.949219 44.902344 79.730469 44.980469 C 77.179688 45.785156 74.496094 45.6875 72.011719 44.714844 C 71.792969 44.609375 71.710938 44.964844 71.914062 45.054688 "/>
<path style=" stroke:none;fill-rule:nonzero;fill:rgb(15.689087%,25.099182%,49.409485%);fill-opacity:1;" d="M 76.0625 28.242188 C 81.226562 28.371094 85.914062 28.109375 90.023438 27.667969 C 90.488281 29.03125 90.957031 30.394531 91.410156 31.757812 C 91.730469 30.953125 92.128906 29.757812 92.375 28.277344 C 92.375 28.277344 92.386719 28.199219 92.410156 28.074219 C 92.480469 28.109375 92.570312 28.109375 92.640625 28.039062 C 93.367188 27.300781 94.675781 27.507812 95.175781 28.417969 C 95.300781 28.644531 95.652344 28.425781 95.527344 28.1875 C 94.929688 27.09375 93.398438 26.867188 92.464844 27.652344 C 92.523438 27.121094 92.59375 26.292969 92.582031 25.253906 C 92.570312 22.511719 91.96875 20.070312 91.46875 18.785156 C 89.769531 14.472656 84.21875 11.324219 78.902344 10.9375 C 78.195312 10.882812 69.390625 10.402344 65.011719 17.257812 C 62.367188 21.398438 62.871094 25.789062 63.089844 27.140625 C 66.921875 27.699219 71.28125 28.132812 76.0625 28.242188 "/>
<path style=" stroke:none;fill-rule:nonzero;fill:rgb(15.689087%,25.099182%,49.409485%);fill-opacity:1;" d="M 80.027344 32.410156 C 80.292969 31.429688 80.238281 30.460938 79.90625 30.242188 C 79.578125 30.03125 79.085938 30.644531 78.824219 31.625 C 78.5625 32.601562 78.617188 33.566406 78.949219 33.785156 C 79.269531 33.988281 79.757812 33.386719 80.027344 32.410156 "/>
<path style=" stroke:none;fill-rule:nonzero;fill:rgb(15.689087%,25.099182%,49.409485%);fill-opacity:1;" d="M 67.441406 30.550781 C 67.183594 31.53125 67.238281 32.5 67.570312 32.710938 C 67.898438 32.929688 68.390625 32.316406 68.648438 31.335938 C 68.914062 30.359375 68.855469 29.394531 68.523438 29.175781 C 68.207031 28.964844 67.714844 29.574219 67.441406 30.550781 "/>
<path style=" stroke:none;fill-rule:nonzero;fill:rgb(15.689087%,25.099182%,49.409485%);fill-opacity:1;" d="M 77.964844 37.785156 C 78.152344 37.472656 77.660156 37.179688 77.476562 37.5 C 76.964844 38.371094 75.847656 38.742188 74.921875 38.3125 C 74.59375 38.15625 74.300781 38.648438 74.636719 38.804688 C 75.839844 39.367188 77.289062 38.941406 77.964844 37.785156 "/>
<path style=" stroke:none;fill-rule:nonzero;fill:rgb(15.689087%,25.099182%,49.409485%);fill-opacity:1;" d="M 60.125 85.316406 C 60.152344 84.960938 59.59375 84.960938 59.566406 85.316406 C 59.046875 91.609375 59.15625 97.921875 59.882812 104.195312 C 59.921875 104.546875 60.480469 104.550781 60.441406 104.195312 C 59.710938 97.921875 59.601562 91.609375 60.125 85.316406 "/>
<path style=" stroke:none;fill-rule:nonzero;fill:rgb(15.689087%,25.099182%,49.409485%);fill-opacity:1;" d="M 103.1875 89.761719 C 102.753906 94.113281 102.324219 98.46875 101.894531 102.820312 C 101.863281 103.175781 102.417969 103.171875 102.453125 102.820312 C 102.882812 98.46875 103.3125 94.113281 103.742188 89.761719 C 103.777344 89.40625 103.21875 89.410156 103.1875 89.761719 "/>
</g>
</svg>
