<?xml version="1.0" encoding="UTF-8"?>
<svg xmlns="http://www.w3.org/2000/svg" xmlns:xlink="http://www.w3.org/1999/xlink" width="375pt" height="374.999991pt" viewBox="0 0 375 374.999991" version="1.2">
<defs>
<clipPath id="clip1">
  <path d="M 194 183 L 363.992188 183 L 363.992188 362.933594 L 194 362.933594 Z M 194 183 "/>
</clipPath>
<clipPath id="clip2">
  <path d="M 301 247 L 323.9375 247 L 323.9375 362.933594 L 301 362.933594 Z M 301 247 "/>
</clipPath>
<clipPath id="clip3">
  <path d="M 0.554688 154 L 217.445312 154 L 217.445312 362.933594 L 0.554688 362.933594 Z M 0.554688 154 "/>
</clipPath>
<clipPath id="clip4">
  <path d="M 43 314 L 73.828125 314 L 73.828125 362.933594 L 43 362.933594 Z M 43 314 "/>
</clipPath>
<clipPath id="clip5">
  <path d="M 238 272 L 374.445312 272 L 374.445312 339 L 238 339 Z M 238 272 "/>
</clipPath>
<clipPath id="clip6">
  <path d="M 184.226562 219 L 201.8125 219 L 201.8125 362.933594 L 184.226562 362.933594 Z M 184.226562 219 "/>
</clipPath>
<clipPath id="clip7">
  <path d="M 141 11.933594 L 191 11.933594 L 191 80 L 141 80 Z M 141 11.933594 "/>
</clipPath>
</defs>
<g id="surface1">
<path style=" stroke:none;fill-rule:nonzero;fill:rgb(16.859436%,20.388794%,14.509583%);fill-opacity:1;" d="M 232.90625 183.046875 C 232.90625 183.046875 204.425781 112.984375 249.742188 97.285156 C 291.082031 82.953125 326.136719 169.328125 326.136719 169.328125 L 232.90625 183.046875 "/>
<path style=" stroke:none;fill-rule:nonzero;fill:rgb(36.468506%,32.548523%,25.099182%);fill-opacity:1;" d="M 119.023438 154.101562 L 135.839844 127.617188 L 162.375 136.066406 L 164.503906 158.613281 L 159.75 192.617188 L 119.023438 194.363281 L 119.023438 154.101562 "/>
<path style=" stroke:none;fill-rule:nonzero;fill:rgb(36.468506%,32.548523%,25.099182%);fill-opacity:1;" d="M 242.183594 183.046875 L 247.078125 160.988281 L 276.847656 155.375 L 285.074219 183.046875 L 281.339844 225.175781 L 228.542969 223.308594 L 232.285156 192.988281 L 242.183594 183.046875 "/>
<path style=" stroke:none;fill-rule:nonzero;fill:rgb(36.468506%,32.548523%,25.099182%);fill-opacity:1;" d="M 150.359375 147.011719 C 136.96875 144.59375 127.992188 131.660156 130.414062 118.273438 L 134.285156 96.832031 C 136.707031 83.445312 149.644531 74.472656 163.035156 76.894531 C 176.425781 79.3125 185.402344 92.246094 182.984375 105.632812 L 179.105469 127.070312 C 176.6875 140.457031 163.75 149.429688 150.359375 147.011719 "/>
<path style=" stroke:none;fill-rule:nonzero;fill:rgb(36.468506%,32.548523%,25.099182%);fill-opacity:1;" d="M 260.015625 178.550781 C 273.566406 177.328125 283.65625 165.238281 282.433594 151.691406 L 280.472656 129.992188 C 279.246094 116.445312 267.152344 106.363281 253.601562 107.589844 C 240.050781 108.8125 229.960938 120.898438 231.1875 134.445312 L 233.148438 156.144531 C 234.375 169.691406 246.464844 179.773438 260.015625 178.550781 "/>
<g clip-path="url(#clip1)" clip-rule="nonzero">
<path style=" stroke:none;fill-rule:nonzero;fill:rgb(67.059326%,52.938843%,25.878906%);fill-opacity:1;" d="M 316.003906 300.066406 L 323.027344 362.972656 L 196.488281 362.972656 L 210.46875 269.515625 L 194.953125 285.886719 L 200.75 219.160156 L 204.285156 216.484375 C 207.960938 210.929688 212.207031 205.773438 216.9375 201.140625 C 216.960938 201.117188 216.980469 201.097656 217 201.078125 C 217 201.078125 217 201.066406 217.003906 201.066406 C 222.847656 195.3125 229.425781 190.335938 236.585938 186.25 L 242.183594 183.046875 C 242.183594 183.046875 229.765625 209.789062 254.089844 212.242188 C 277.582031 214.613281 285.074219 183.046875 285.074219 183.046875 L 296.441406 186.816406 C 309.976562 191.289062 321.398438 200.566406 328.558594 212.882812 L 363.105469 272.300781 L 316.003906 300.066406 "/>
</g>
<g clip-path="url(#clip2)" clip-rule="nonzero">
<path style=" stroke:none;fill-rule:nonzero;fill:rgb(16.859436%,20.388794%,14.509583%);fill-opacity:1;" d="M 323.027344 362.972656 L 316.003906 300.066406 L 301.242188 247.242188 L 308.625 362.972656 L 323.027344 362.972656 "/>
</g>
<g clip-path="url(#clip3)" clip-rule="nonzero">
<path style=" stroke:none;fill-rule:nonzero;fill:rgb(65.489197%,76.469421%,58.81958%);fill-opacity:1;" d="M 217.023438 201.035156 C 217.023438 201.035156 217.015625 201.046875 217.003906 201.066406 C 217 201.066406 217 201.078125 217 201.078125 C 216.980469 201.097656 216.960938 201.117188 216.9375 201.140625 C 212.207031 205.773438 207.960938 210.929688 204.285156 216.484375 C 203.457031 217.523438 202.613281 218.59375 201.765625 219.699219 C 201.335938 220.257812 200.898438 220.824219 200.453125 221.398438 L 201.699219 220.402344 L 194.953125 285.886719 L 194.953125 285.914062 L 196.488281 362.972656 L 43.226562 362.972656 L 51.261719 328.515625 L 13.023438 295.144531 C -1.144531 282.777344 -3.566406 261.667969 7.441406 246.421875 L 22.339844 225.773438 L 59.507812 180.15625 C 68.066406 169.65625 79.957031 162.402344 93.203125 159.589844 L 119.023438 154.101562 C 119.023438 154.101562 121.898438 172.53125 142.375 174.578125 C 162.863281 176.632812 164.503906 158.613281 164.503906 158.613281 L 182.578125 168.027344 C 187.269531 170.46875 191.527344 173.652344 195.199219 177.457031 L 205.058594 187.695312 L 217.023438 201.035156 "/>
</g>
<path style=" stroke:none;fill-rule:nonzero;fill:rgb(65.489197%,76.469421%,58.81958%);fill-opacity:1;" d="M 201.765625 219.699219 L 201.699219 220.402344 L 200.453125 221.398438 C 200.898438 220.824219 201.335938 220.257812 201.765625 219.699219 "/>
<path style=" stroke:none;fill-rule:nonzero;fill:rgb(65.489197%,76.469421%,58.81958%);fill-opacity:1;" d="M 216.9375 201.140625 C 216.167969 202.023438 210.832031 208.195312 204.285156 216.484375 C 207.960938 210.929688 212.207031 205.773438 216.9375 201.140625 "/>
<path style=" stroke:none;fill-rule:nonzero;fill:rgb(44.709778%,55.688477%,38.819885%);fill-opacity:1;" d="M 292.789062 325.195312 L 240.824219 318.207031 L 247.816406 266.253906 L 299.78125 273.246094 L 292.789062 325.195312 "/>
<path style=" stroke:none;fill-rule:nonzero;fill:rgb(44.709778%,55.688477%,38.819885%);fill-opacity:1;" d="M 182.714844 310.964844 L 131.625 322.773438 L 119.8125 271.707031 L 170.898438 259.894531 L 182.714844 310.964844 "/>
<path style=" stroke:none;fill-rule:nonzero;fill:rgb(16.859436%,20.388794%,14.509583%);fill-opacity:1;" d="M 130.984375 253.683594 C 129.28125 253.683594 127.730469 254.46875 126.261719 256.0625 C 124.933594 257.496094 124.476562 258.742188 124.910156 259.757812 C 126.472656 263.453125 138.175781 264.761719 143.972656 265.039062 C 142.191406 262.097656 137.039062 254.402344 131.710938 253.734375 C 131.464844 253.703125 131.226562 253.683594 130.984375 253.683594 Z M 157.253906 317.582031 C 156.921875 317.582031 156.621094 317.351562 156.539062 317.015625 L 144.695312 266.535156 C 141.105469 266.410156 125.777344 265.5625 123.5625 260.332031 C 122.886719 258.734375 123.433594 256.960938 125.183594 255.066406 C 127.175781 252.90625 129.4375 251.964844 131.898438 252.28125 C 139.160156 253.195312 145.570312 264.824219 145.914062 265.460938 C 145.917969 265.464844 145.925781 265.472656 145.929688 265.480469 L 145.988281 265.636719 C 145.992188 265.644531 145.992188 265.65625 145.996094 265.664062 L 157.964844 316.6875 C 158.058594 317.078125 157.8125 317.472656 157.421875 317.5625 C 157.363281 317.578125 157.308594 317.582031 157.253906 317.582031 "/>
<path style=" stroke:none;fill-rule:nonzero;fill:rgb(16.859436%,20.388794%,14.509583%);fill-opacity:1;" d="M 125.71875 297.980469 C 125.375 297.980469 125.066406 297.738281 125 297.386719 C 124.925781 296.988281 125.183594 296.605469 125.585938 296.53125 L 177.136719 286.730469 C 177.535156 286.648438 177.917969 286.914062 177.996094 287.3125 C 178.066406 287.710938 177.808594 288.09375 177.410156 288.167969 L 125.855469 297.96875 C 125.808594 297.976562 125.765625 297.980469 125.71875 297.980469 "/>
<path style=" stroke:none;fill-rule:nonzero;fill:rgb(16.859436%,20.388794%,14.509583%);fill-opacity:1;" d="M 154.957031 250.921875 C 154.21875 250.921875 153.515625 251.109375 152.835938 251.484375 C 148.742188 253.726562 146.761719 262.03125 146.210938 264.78125 C 150.851562 263.167969 159.167969 257.667969 159.34375 254.003906 C 159.367188 253.59375 159.425781 252.351562 156.976562 251.355469 C 156.273438 251.070312 155.601562 250.921875 154.957031 250.921875 Z M 145.683594 264.953125 L 145.679688 264.953125 Z M 145.886719 265.65625 L 145.898438 265.65625 Z M 145.765625 266.40625 C 145.492188 266.40625 145.222656 266.304688 145.011719 266.117188 C 144.71875 265.855469 144.589844 265.46875 144.664062 265.082031 C 145.175781 262.269531 147.238281 252.878906 152.136719 250.199219 C 153.800781 249.285156 155.613281 249.21875 157.53125 250 C 160.347656 251.144531 160.871094 252.847656 160.808594 254.074219 C 160.570312 259.050781 150.476562 265.050781 146.097656 266.359375 C 145.988281 266.390625 145.875 266.40625 145.765625 266.40625 "/>
<path style=" stroke:none;fill-rule:nonzero;fill:rgb(16.859436%,20.388794%,14.509583%);fill-opacity:1;" d="M 291.078125 257.613281 C 290.835938 257.613281 290.597656 257.628906 290.351562 257.660156 C 285.023438 258.328125 279.871094 266.027344 278.085938 268.964844 C 283.886719 268.6875 295.589844 267.382812 297.152344 263.683594 C 297.582031 262.664062 297.128906 261.421875 295.800781 259.988281 C 294.332031 258.398438 292.78125 257.613281 291.078125 257.613281 Z M 264.808594 321.511719 C 264.757812 321.511719 264.699219 321.503906 264.640625 321.492188 C 264.25 321.398438 264 321.003906 264.097656 320.609375 L 276.066406 269.59375 C 276.070312 269.582031 276.070312 269.574219 276.074219 269.5625 L 276.132812 269.410156 C 276.136719 269.402344 276.140625 269.394531 276.148438 269.386719 C 276.492188 268.753906 282.902344 257.117188 290.167969 256.207031 C 292.628906 255.902344 294.886719 256.835938 296.882812 258.996094 C 298.632812 260.886719 299.175781 262.660156 298.5 264.257812 C 296.285156 269.488281 280.957031 270.332031 277.367188 270.464844 L 265.523438 320.941406 C 265.441406 321.28125 265.140625 321.511719 264.808594 321.511719 "/>
<path style=" stroke:none;fill-rule:nonzero;fill:rgb(16.859436%,20.388794%,14.509583%);fill-opacity:1;" d="M 296.34375 301.910156 C 296.296875 301.910156 296.253906 301.90625 296.207031 301.894531 L 244.652344 292.09375 C 244.253906 292.023438 243.996094 291.636719 244.070312 291.238281 C 244.144531 290.84375 244.53125 290.574219 244.925781 290.660156 L 296.476562 300.457031 C 296.878906 300.53125 297.136719 300.914062 297.0625 301.316406 C 296.996094 301.667969 296.6875 301.910156 296.34375 301.910156 "/>
<path style=" stroke:none;fill-rule:nonzero;fill:rgb(16.859436%,20.388794%,14.509583%);fill-opacity:1;" d="M 275.640625 268.636719 C 275.691406 268.652344 275.730469 268.644531 275.769531 268.609375 C 275.824219 268.5625 275.8125 268.515625 275.808594 268.496094 C 275.292969 265.972656 273.289062 257.582031 269.175781 255.382812 C 267.914062 254.710938 266.578125 254.675781 265.085938 255.285156 C 262.683594 256.261719 262.707031 257.464844 262.714844 257.863281 C 262.78125 261.359375 270.601562 266.808594 275.640625 268.636719 Z M 275.6875 270.109375 C 275.503906 270.109375 275.320312 270.074219 275.144531 270.011719 L 275.140625 270.011719 C 270.34375 268.273438 261.339844 262.578125 261.25 257.894531 C 261.226562 256.703125 261.773438 255.046875 264.53125 253.925781 C 266.425781 253.15625 268.222656 253.210938 269.867188 254.09375 C 274.414062 256.523438 276.539062 264.769531 277.246094 268.203125 C 277.363281 268.773438 277.171875 269.339844 276.726562 269.71875 C 276.433594 269.976562 276.0625 270.109375 275.6875 270.109375 "/>
<path style=" stroke:none;fill-rule:nonzero;fill:rgb(16.859436%,20.388794%,14.509583%);fill-opacity:1;" d="M 67.953125 263.640625 L 78.996094 216.675781 L 59.359375 257.660156 Z M 67.953125 263.640625 "/>
<g clip-path="url(#clip4)" clip-rule="nonzero">
<path style=" stroke:none;fill-rule:nonzero;fill:rgb(16.859436%,20.388794%,14.509583%);fill-opacity:1;" d="M 43.226562 362.972656 L 51.261719 328.515625 L 63.332031 314.078125 L 73.25 362.972656 L 43.226562 362.972656 "/>
</g>
<path style=" stroke:none;fill-rule:nonzero;fill:rgb(16.859436%,20.388794%,14.509583%);fill-opacity:1;" d="M 210.472656 270.25 C 210.429688 270.25 210.386719 270.246094 210.347656 270.238281 C 209.945312 270.171875 209.679688 269.789062 209.746094 269.390625 L 214.207031 243.714844 C 214.28125 243.3125 214.667969 243.054688 215.054688 243.113281 C 215.457031 243.183594 215.722656 243.5625 215.65625 243.960938 L 211.195312 269.644531 C 211.128906 270 210.820312 270.25 210.472656 270.25 "/>
<path style=" stroke:none;fill-rule:nonzero;fill:rgb(16.859436%,20.388794%,14.509583%);fill-opacity:1;" d="M 316.003906 300.800781 C 315.683594 300.800781 315.390625 300.585938 315.300781 300.261719 L 300.539062 247.441406 C 300.429688 247.046875 300.660156 246.644531 301.046875 246.535156 C 301.4375 246.429688 301.84375 246.660156 301.949219 247.042969 L 316.710938 299.871094 C 316.820312 300.257812 316.59375 300.664062 316.203125 300.773438 C 316.136719 300.792969 316.070312 300.800781 316.003906 300.800781 "/>
<path style=" stroke:none;fill-rule:nonzero;fill:rgb(36.468506%,32.548523%,25.099182%);fill-opacity:1;" d="M 91.136719 279.675781 L 136.757812 305.777344 L 156.1875 299.746094 C 158.195312 299.125 160.347656 300.101562 161.199219 302.019531 C 162.121094 304.101562 161.195312 306.535156 159.125 307.472656 L 151.792969 310.789062 L 180.570312 306.421875 C 182.964844 306.0625 185.226562 307.625 185.730469 309.992188 C 186.226562 312.300781 184.871094 314.613281 182.609375 315.3125 L 149.410156 325.570312 C 139.394531 328.664062 128.746094 329.0625 118.527344 326.722656 L 63.332031 314.078125 L 91.136719 279.675781 "/>
<g clip-path="url(#clip5)" clip-rule="nonzero">
<path style=" stroke:none;fill-rule:nonzero;fill:rgb(36.468506%,32.548523%,25.099182%);fill-opacity:1;" d="M 361.148438 324.199219 L 305.949219 336.847656 C 295.730469 339.191406 285.078125 338.789062 275.0625 335.695312 L 241.867188 325.441406 C 239.910156 324.835938 238.640625 323.039062 238.640625 321.066406 C 238.640625 320.753906 238.671875 320.441406 238.738281 320.117188 C 239.246094 317.746094 241.515625 316.183594 243.898438 316.550781 L 272.679688 320.910156 L 265.351562 317.597656 C 263.820312 316.902344 262.921875 315.398438 262.921875 313.816406 C 262.921875 313.261719 263.027344 312.695312 263.269531 312.144531 C 264.128906 310.222656 266.28125 309.257812 268.28125 309.871094 L 287.71875 315.894531 L 333.34375 289.800781 L 363.101562 272.300781 L 371.273438 287.8125 C 378.066406 300.710938 373.625 316.664062 361.148438 324.199219 "/>
</g>
<path style=" stroke:none;fill-rule:nonzero;fill:rgb(16.859436%,20.388794%,14.509583%);fill-opacity:1;" d="M 51.261719 329.25 C 51.097656 329.25 50.929688 329.195312 50.792969 329.082031 C 50.484375 328.820312 50.4375 328.359375 50.695312 328.050781 L 90.96875 279.402344 C 88.851562 277.992188 82.058594 273.457031 75.273438 268.921875 C 71.183594 266.1875 67.089844 263.449219 64.027344 261.386719 C 61.246094 259.515625 59.839844 258.570312 59.160156 258.015625 C 59.152344 258.015625 59.144531 258.011719 59.140625 258.011719 L 59.140625 258 C 58.46875 257.449219 58.542969 257.296875 58.683594 256.996094 L 58.953125 256.429688 L 59.019531 256.449219 C 60.785156 253.089844 70.890625 231.03125 77.632812 216.183594 C 77.800781 215.816406 78.230469 215.652344 78.601562 215.820312 C 78.972656 215.984375 79.132812 216.421875 78.96875 216.792969 C 78.96875 216.792969 74.320312 227.023438 69.625 237.242188 C 63.605469 250.359375 61.339844 255.292969 60.289062 257.082031 C 63.6875 259.433594 84.25 273.160156 92.460938 278.636719 L 93.136719 279.089844 L 51.828125 328.984375 C 51.679688 329.15625 51.472656 329.25 51.261719 329.25 "/>
<g clip-path="url(#clip6)" clip-rule="nonzero">
<path style=" stroke:none;fill-rule:nonzero;fill:rgb(16.859436%,20.388794%,14.509583%);fill-opacity:1;" d="M 201.765625 219.699219 L 184.832031 286.976562 L 196.488281 362.972656 L 194.953125 285.886719 L 201.765625 219.699219 "/>
</g>
<path style=" stroke:none;fill-rule:nonzero;fill:rgb(16.859436%,20.388794%,14.509583%);fill-opacity:1;" d="M 152.554688 309.921875 C 152.550781 309.921875 152.550781 309.921875 152.550781 309.921875 Z M 183.8125 315.46875 C 183.6875 315.46875 183.566406 315.4375 183.457031 315.375 C 183.101562 315.175781 182.976562 314.730469 183.171875 314.378906 L 183.828125 313.226562 C 184.617188 311.820312 184.535156 310.113281 183.613281 308.765625 C 182.726562 307.472656 181.285156 306.828125 179.769531 307.054688 L 152.785156 311.367188 C 152.355469 311.445312 151.953125 311.1875 151.824219 310.777344 C 151.6875 310.363281 151.875 309.929688 152.265625 309.738281 L 159.582031 306.125 C 161.097656 305.382812 161.777344 303.632812 161.160156 302.0625 C 160.546875 300.492188 158.800781 299.652344 157.191406 300.160156 L 136.980469 306.476562 C 136.589844 306.597656 136.183594 306.382812 136.0625 305.996094 C 135.9375 305.605469 136.15625 305.199219 136.542969 305.078125 L 156.757812 298.757812 C 159.09375 298.027344 161.628906 299.242188 162.527344 301.527344 C 163.417969 303.8125 162.433594 306.359375 160.230469 307.441406 L 156.472656 309.296875 L 179.570312 305.597656 C 181.648438 305.304688 183.613281 306.175781 184.824219 307.941406 C 186.0625 309.75 186.167969 312.050781 185.101562 313.941406 L 184.453125 315.09375 C 184.320312 315.335938 184.070312 315.46875 183.8125 315.46875 "/>
<path style=" stroke:none;fill-rule:nonzero;fill:rgb(16.859436%,20.388794%,14.509583%);fill-opacity:1;" d="M 271.957031 320.464844 L 271.960938 320.464844 C 271.960938 320.464844 271.957031 320.464844 271.957031 320.464844 Z M 240.058594 325.269531 C 239.804688 325.269531 239.554688 325.132812 239.421875 324.894531 L 238.773438 323.742188 C 237.824219 322.066406 237.898438 320.203125 238.96875 318.640625 C 240.242188 316.78125 242.582031 315.804688 244.953125 316.144531 L 245.050781 316.160156 L 268.039062 319.835938 L 264.28125 317.988281 C 262.082031 316.898438 261.097656 314.359375 261.988281 312.074219 C 262.882812 309.789062 265.421875 308.570312 267.753906 309.304688 L 287.972656 315.621094 C 288.355469 315.742188 288.574219 316.152344 288.453125 316.539062 C 288.328125 316.925781 287.917969 317.140625 287.53125 317.019531 L 267.320312 310.703125 C 265.710938 310.199219 263.964844 311.035156 263.351562 312.609375 C 262.738281 314.179688 263.417969 315.925781 264.929688 316.671875 L 272.25 320.28125 C 272.636719 320.472656 272.824219 320.910156 272.691406 321.320312 C 272.558594 321.734375 272.160156 321.980469 271.726562 321.914062 L 244.824219 317.605469 C 242.957031 317.339844 241.121094 318.085938 240.179688 319.464844 C 239.742188 320.105469 239.144531 321.417969 240.050781 323.023438 L 240.703125 324.179688 C 240.898438 324.527344 240.773438 324.976562 240.421875 325.175781 C 240.308594 325.238281 240.183594 325.269531 240.058594 325.269531 "/>
<path style=" stroke:none;fill-rule:nonzero;fill:rgb(16.859436%,20.388794%,14.509583%);fill-opacity:1;" d="M 130.414062 118.273438 L 123.734375 81.351562 C 122.476562 74.40625 126.730469 67.648438 133.542969 65.777344 L 138.953125 64.285156 C 140.558594 57.503906 146.96875 52.984375 153.894531 53.746094 L 160.394531 54.464844 C 169.113281 55.425781 177.289062 59.1875 183.6875 65.183594 C 191.734375 72.714844 192.789062 85.097656 186.140625 93.882812 L 183.136719 97.851562 C 183.136719 97.851562 158.414062 102.933594 148.050781 81.714844 L 130.414062 118.273438 "/>
<path style=" stroke:none;fill-rule:nonzero;fill:rgb(16.859436%,20.388794%,14.509583%);fill-opacity:1;" d="M 227.941406 133.265625 C 227.941406 133.265625 254.113281 130.140625 262.644531 115.550781 C 262.644531 115.550781 267.503906 132.222656 280.621094 131.65625 L 285.074219 117.445312 L 260.558594 102.09375 L 235.726562 110.242188 L 227.941406 133.265625 "/>
<path style=" stroke:none;fill-rule:nonzero;fill:rgb(16.859436%,20.388794%,14.509583%);fill-opacity:1;" d="M 258.199219 179.277344 C 249.058594 179.277344 243.867188 175.242188 243.628906 175.050781 C 243.3125 174.800781 243.261719 174.339844 243.515625 174.023438 C 243.765625 173.703125 244.222656 173.652344 244.539062 173.902344 C 244.601562 173.953125 250.816406 178.757812 261.414062 177.640625 C 261.804688 177.609375 262.175781 177.894531 262.21875 178.292969 C 262.261719 178.699219 261.964844 179.058594 261.566406 179.097656 C 260.390625 179.226562 259.269531 179.277344 258.199219 179.277344 "/>
<path style=" stroke:none;fill-rule:nonzero;fill:rgb(16.859436%,20.388794%,14.509583%);fill-opacity:1;" d="M 157.851562 147.390625 C 154.429688 147.390625 149.984375 146.503906 146.023438 142.921875 C 145.71875 142.652344 145.695312 142.1875 145.96875 141.886719 C 146.238281 141.585938 146.703125 141.5625 147.003906 141.835938 C 154 148.164062 162.96875 145.199219 163.0625 145.167969 C 163.441406 145.039062 163.859375 145.246094 163.992188 145.628906 C 164.121094 146.007812 163.921875 146.425781 163.539062 146.554688 C 163.34375 146.621094 161.042969 147.390625 157.851562 147.390625 "/>
<path style=" stroke:none;fill-rule:nonzero;fill:rgb(16.859436%,20.388794%,14.509583%);fill-opacity:1;" d="M 170.535156 123.164062 L 161.871094 121.683594 C 161.46875 121.617188 161.203125 121.238281 161.273438 120.835938 C 161.339844 120.441406 161.722656 120.175781 162.113281 120.238281 L 168.933594 121.40625 L 168.058594 109.316406 C 168.03125 108.910156 168.332031 108.5625 168.738281 108.53125 C 169.128906 108.496094 169.492188 108.804688 169.519531 109.210938 L 170.535156 123.164062 "/>
<path style=" stroke:none;fill-rule:nonzero;fill:rgb(16.859436%,20.388794%,14.509583%);fill-opacity:1;" d="M 162.375 136.800781 C 162.328125 136.800781 162.28125 136.796875 162.234375 136.789062 C 159.945312 136.347656 158.230469 135.242188 157.140625 133.5 C 154.835938 129.796875 156.242188 124.558594 156.304688 124.335938 L 156.472656 123.71875 L 166.550781 125.105469 L 166.28125 121.878906 C 166.25 121.472656 166.550781 121.125 166.949219 121.089844 C 167.34375 121.0625 167.710938 121.355469 167.746094 121.761719 L 168.160156 126.8125 L 157.578125 125.347656 C 157.300781 126.753906 156.84375 130.25 158.390625 132.734375 C 159.253906 134.109375 160.636719 134.992188 162.511719 135.347656 C 162.910156 135.425781 163.167969 135.808594 163.09375 136.203125 C 163.027344 136.554688 162.71875 136.800781 162.375 136.800781 "/>
<path style=" stroke:none;fill-rule:nonzero;fill:rgb(16.859436%,20.388794%,14.509583%);fill-opacity:1;" d="M 241.289062 152.503906 L 242.300781 138.550781 C 242.332031 138.144531 242.6875 137.839844 243.082031 137.871094 C 243.488281 137.898438 243.792969 138.253906 243.761719 138.652344 L 242.882812 150.746094 L 249.703125 149.578125 C 250.097656 149.515625 250.484375 149.78125 250.550781 150.179688 C 250.617188 150.578125 250.347656 150.957031 249.953125 151.023438 L 241.289062 152.503906 "/>
<path style=" stroke:none;fill-rule:nonzero;fill:rgb(16.859436%,20.388794%,14.509583%);fill-opacity:1;" d="M 249.449219 166.140625 C 249.101562 166.140625 248.796875 165.894531 248.730469 165.542969 C 248.652344 165.148438 248.914062 164.761719 249.3125 164.6875 C 251.183594 164.332031 252.570312 163.449219 253.433594 162.070312 C 254.976562 159.589844 254.515625 156.09375 254.246094 154.6875 L 243.664062 156.148438 L 244.078125 151.097656 C 244.113281 150.695312 244.472656 150.402344 244.867188 150.429688 C 245.273438 150.464844 245.570312 150.816406 245.539062 151.21875 L 245.273438 154.445312 L 255.347656 153.054688 L 255.519531 153.671875 C 255.578125 153.894531 256.984375 159.132812 254.675781 162.839844 C 253.59375 164.582031 251.878906 165.691406 249.585938 166.128906 C 249.539062 166.136719 249.496094 166.140625 249.449219 166.140625 "/>
<path style=" stroke:none;fill-rule:nonzero;fill:rgb(36.468506%,32.548523%,25.099182%);fill-opacity:1;" d="M 146.515625 90.601562 C 146.515625 95.058594 142.894531 98.671875 138.4375 98.671875 C 133.980469 98.671875 130.367188 95.058594 130.367188 90.601562 C 130.367188 86.144531 133.980469 82.53125 138.4375 82.53125 C 142.894531 82.53125 146.515625 86.144531 146.515625 90.601562 "/>
<path style=" stroke:none;fill-rule:nonzero;fill:rgb(36.468506%,32.548523%,25.099182%);fill-opacity:1;" d="M 291.804688 137.042969 C 291.804688 141.5 288.191406 145.113281 283.734375 145.113281 C 279.273438 145.113281 275.660156 141.5 275.660156 137.042969 C 275.660156 132.582031 279.273438 128.972656 283.734375 128.972656 C 288.191406 128.972656 291.804688 132.582031 291.804688 137.042969 "/>
<path style=" stroke:none;fill-rule:nonzero;fill:rgb(16.859436%,20.388794%,14.509583%);fill-opacity:1;" d="M 281.988281 141.949219 C 281.621094 141.949219 281.304688 141.675781 281.257812 141.304688 C 281.21875 140.976562 280.359375 133.253906 285.691406 131.121094 C 286.066406 130.96875 286.492188 131.152344 286.644531 131.53125 C 286.796875 131.90625 286.613281 132.332031 286.234375 132.480469 C 281.9375 134.203125 282.707031 141.058594 282.714844 141.128906 C 282.761719 141.53125 282.476562 141.894531 282.074219 141.941406 C 282.042969 141.949219 282.011719 141.949219 281.988281 141.949219 "/>
<path style=" stroke:none;fill-rule:nonzero;fill:rgb(16.859436%,20.388794%,14.509583%);fill-opacity:1;" d="M 288.078125 139.753906 C 287.8125 139.753906 287.554688 139.609375 287.425781 139.359375 C 286.140625 136.863281 282.574219 136.007812 282.539062 136 C 282.144531 135.90625 281.898438 135.511719 281.992188 135.121094 C 282.078125 134.726562 282.472656 134.480469 282.867188 134.570312 C 283.039062 134.613281 287.128906 135.582031 288.726562 138.691406 C 288.910156 139.050781 288.769531 139.492188 288.410156 139.675781 C 288.304688 139.734375 288.1875 139.753906 288.078125 139.753906 "/>
<path style=" stroke:none;fill-rule:nonzero;fill:rgb(16.859436%,20.388794%,14.509583%);fill-opacity:1;" d="M 141.453125 96.039062 C 141.421875 96.039062 141.390625 96.039062 141.367188 96.035156 C 140.960938 95.988281 140.675781 95.625 140.722656 95.21875 C 140.730469 95.15625 141.488281 88.289062 137.203125 86.574219 C 136.824219 86.425781 136.644531 86 136.792969 85.621094 C 136.941406 85.246094 137.371094 85.066406 137.742188 85.214844 C 143.074219 87.347656 142.214844 95.066406 142.179688 95.394531 C 142.132812 95.769531 141.816406 96.039062 141.453125 96.039062 "/>
<path style=" stroke:none;fill-rule:nonzero;fill:rgb(16.859436%,20.388794%,14.509583%);fill-opacity:1;" d="M 135.363281 93.851562 C 135.246094 93.851562 135.132812 93.824219 135.027344 93.769531 C 134.667969 93.582031 134.527344 93.140625 134.710938 92.78125 C 136.308594 89.675781 140.394531 88.703125 140.570312 88.664062 C 140.964844 88.574219 141.355469 88.820312 141.449219 89.214844 C 141.539062 89.609375 141.292969 90 140.898438 90.09375 C 140.863281 90.101562 137.296875 90.953125 136.015625 93.453125 C 135.886719 93.707031 135.625 93.851562 135.363281 93.851562 "/>
<path style=" stroke:none;fill-rule:nonzero;fill:rgb(16.859436%,20.388794%,14.509583%);fill-opacity:1;" d="M 151.285156 108.351562 C 151.101562 108.351562 150.917969 108.285156 150.777344 108.148438 C 150.488281 107.871094 150.476562 107.410156 150.753906 107.113281 C 150.804688 107.066406 155.679688 102.070312 161.402344 106.183594 C 161.730469 106.421875 161.800781 106.878906 161.566406 107.207031 C 161.332031 107.535156 160.875 107.609375 160.542969 107.375 C 155.871094 104.007812 151.976562 107.957031 151.8125 108.125 C 151.667969 108.277344 151.480469 108.351562 151.285156 108.351562 "/>
<path style=" stroke:none;fill-rule:nonzero;fill:rgb(16.859436%,20.388794%,14.509583%);fill-opacity:1;" d="M 178.527344 114.230469 C 178.167969 114.230469 177.851562 113.960938 177.804688 113.589844 C 177.511719 111.261719 175.335938 111.144531 175.089844 111.140625 C 174.6875 111.128906 174.367188 110.796875 174.375 110.390625 C 174.382812 109.992188 174.730469 109.710938 175.113281 109.675781 C 176.382812 109.691406 178.886719 110.488281 179.257812 113.40625 C 179.308594 113.804688 179.027344 114.171875 178.625 114.222656 C 178.59375 114.226562 178.558594 114.230469 178.527344 114.230469 "/>
<path style=" stroke:none;fill-rule:nonzero;fill:rgb(16.859436%,20.388794%,14.509583%);fill-opacity:1;" d="M 261.652344 140.738281 C 261.460938 140.738281 261.269531 140.664062 261.125 140.515625 C 260.960938 140.347656 257.066406 136.398438 252.394531 139.757812 C 252.0625 140 251.609375 139.921875 251.371094 139.59375 C 251.136719 139.265625 251.207031 138.804688 251.535156 138.574219 C 257.257812 134.457031 262.132812 139.449219 262.183594 139.5 C 262.460938 139.792969 262.449219 140.253906 262.160156 140.539062 C 262.015625 140.671875 261.835938 140.738281 261.652344 140.738281 "/>
<path style=" stroke:none;fill-rule:nonzero;fill:rgb(16.859436%,20.388794%,14.509583%);fill-opacity:1;" d="M 234.316406 145.015625 C 234.226562 145.015625 234.128906 144.996094 234.042969 144.960938 C 233.667969 144.808594 233.488281 144.378906 233.636719 144.003906 C 234.746094 141.28125 237.375 141.15625 238.605469 141.46875 C 239 141.566406 239.234375 141.96875 239.136719 142.359375 C 239.039062 142.75 238.640625 142.988281 238.246094 142.886719 C 238.003906 142.828125 235.882812 142.390625 234.996094 144.558594 C 234.882812 144.84375 234.605469 145.015625 234.316406 145.015625 "/>
<path style=" stroke:none;fill-rule:nonzero;fill:rgb(44.709778%,55.688477%,38.819885%);fill-opacity:1;" d="M 158.792969 116.484375 C 158.242188 117.96875 155.65625 118.378906 153.019531 117.402344 C 150.382812 116.429688 148.691406 114.441406 149.242188 112.957031 C 149.789062 111.472656 152.371094 111.058594 155.007812 112.03125 C 157.644531 113.007812 159.339844 115 158.792969 116.484375 "/>
<path style=" stroke:none;fill-rule:nonzero;fill:rgb(44.709778%,55.688477%,38.819885%);fill-opacity:1;" d="M 178.53125 119.871094 C 178.414062 120.757812 177.039062 121.304688 175.460938 121.09375 C 173.886719 120.878906 172.707031 119.992188 172.824219 119.105469 C 172.945312 118.214844 174.320312 117.671875 175.894531 117.882812 C 177.472656 118.09375 178.652344 118.984375 178.53125 119.871094 "/>
<path style=" stroke:none;fill-rule:nonzero;fill:rgb(44.709778%,55.688477%,38.819885%);fill-opacity:1;" d="M 254.066406 147.570312 C 254.617188 149.050781 257.199219 149.460938 259.835938 148.488281 C 262.472656 147.511719 264.164062 145.519531 263.617188 144.035156 C 263.070312 142.550781 260.484375 142.140625 257.847656 143.117188 C 255.210938 144.089844 253.519531 146.085938 254.066406 147.570312 "/>
<path style=" stroke:none;fill-rule:nonzero;fill:rgb(44.709778%,55.688477%,38.819885%);fill-opacity:1;" d="M 234.324219 150.953125 C 234.445312 151.839844 235.820312 152.386719 237.398438 152.171875 C 238.96875 151.964844 240.152344 151.074219 240.035156 150.1875 C 239.910156 149.300781 238.542969 148.753906 236.964844 148.964844 C 235.390625 149.179688 234.207031 150.066406 234.324219 150.953125 "/>
<g clip-path="url(#clip7)" clip-rule="nonzero">
<path style=" stroke:none;fill-rule:nonzero;fill:rgb(44.709778%,55.688477%,38.819885%);fill-opacity:1;" d="M 141.515625 58.972656 L 181.335938 11.9375 L 190.5 78.691406 C 190.5 78.691406 167.679688 84.820312 141.515625 58.972656 "/>
</g>
<path style=" stroke:none;fill-rule:nonzero;fill:rgb(44.709778%,55.688477%,38.819885%);fill-opacity:1;" d="M 227.941406 117.4375 C 227.941406 117.4375 254.851562 120.027344 273.644531 98.671875 L 228.542969 53.664062 L 227.941406 117.4375 "/>
</g>
</svg>
