<?xml version="1.0" encoding="UTF-8"?>
<svg xmlns="http://www.w3.org/2000/svg" xmlns:xlink="http://www.w3.org/1999/xlink" width="375pt" height="374.999991pt" viewBox="0 0 375 374.999991" version="1.2">
<defs>
<clipPath id="clip1">
  <path d="M 94 311 L 141 311 L 141 339.75 L 94 339.75 Z M 94 311 "/>
</clipPath>
<clipPath id="clip2">
  <path d="M 56 192 L 79 192 L 79 339.75 L 56 339.75 Z M 56 192 "/>
</clipPath>
<clipPath id="clip3">
  <path d="M 353.15625 192.21875 L 374.6875 192.21875 L 374.6875 339.570312 L 353.15625 339.570312 Z M 353.15625 192.21875 "/>
</clipPath>
<clipPath id="clip4">
  <path d="M 296 192 L 319 192 L 319 339.75 L 296 339.75 Z M 296 192 "/>
</clipPath>
<clipPath id="clip5">
  <path d="M 0 192 L 22 192 L 22 339.75 L 0 339.75 Z M 0 192 "/>
</clipPath>
<clipPath id="clip6">
  <path d="M 156.523438 330.585938 L 229 330.585938 L 229 339.75 L 156.523438 339.75 Z M 156.523438 330.585938 "/>
</clipPath>
<clipPath id="clip7">
  <path d="M 295.691406 293.746094 L 301.976562 293.746094 L 301.976562 339.75 L 295.691406 339.75 Z M 295.691406 293.746094 "/>
</clipPath>
</defs>
<g id="surface1">
<path style=" stroke:none;fill-rule:nonzero;fill:rgb(54.899597%,65.879822%,48.629761%);fill-opacity:1;" d="M 270.171875 316.960938 L 301.648438 306.164062 L 303.472656 334.871094 L 293.578125 335.492188 L 290.597656 329.078125 L 287.183594 336.128906 L 253.246094 338.164062 C 251.878906 338.242188 250.835938 336.960938 251.191406 335.640625 C 252.289062 331.53125 255.835938 328.550781 260.070312 328.171875 C 264.101562 327.808594 267.53125 325.074219 268.785156 321.222656 L 270.171875 316.960938 "/>
<path style=" stroke:none;fill-rule:nonzero;fill:rgb(36.468506%,32.548523%,25.099182%);fill-opacity:1;" d="M 278.746094 231.960938 C 269.136719 235.3125 262.390625 243.992188 261.511719 254.136719 L 255.820312 320.125 L 305.148438 310.3125 L 270.085938 221.539062 L 297.972656 199.242188 "/>
<path style=" stroke:none;fill-rule:nonzero;fill:rgb(16.859436%,20.388794%,14.509583%);fill-opacity:1;" d="M 268.914062 321.53125 C 268.558594 321.53125 268.265625 321.253906 268.242188 320.894531 C 268.21875 320.527344 268.5 320.207031 268.871094 320.183594 L 275.066406 319.800781 C 275.425781 319.78125 275.753906 320.0625 275.777344 320.433594 C 275.800781 320.804688 275.519531 321.125 275.144531 321.148438 L 268.957031 321.527344 C 268.941406 321.53125 268.929688 321.53125 268.914062 321.53125 "/>
<path style=" stroke:none;fill-rule:nonzero;fill:rgb(16.859436%,20.388794%,14.509583%);fill-opacity:1;" d="M 267.175781 324.84375 C 266.820312 324.84375 266.527344 324.570312 266.5 324.210938 C 266.480469 323.839844 266.761719 323.519531 267.132812 323.496094 L 273.324219 323.113281 C 273.695312 323.097656 274.015625 323.371094 274.042969 323.746094 C 274.0625 324.117188 273.78125 324.4375 273.410156 324.460938 L 267.214844 324.84375 C 267.203125 324.84375 267.1875 324.84375 267.175781 324.84375 "/>
<path style=" stroke:none;fill-rule:nonzero;fill:rgb(16.859436%,20.388794%,14.509583%);fill-opacity:1;" d="M 263.332031 327.96875 C 262.984375 327.96875 262.683594 327.691406 262.664062 327.332031 C 262.640625 326.960938 262.921875 326.640625 263.296875 326.621094 L 269.484375 326.238281 C 269.847656 326.210938 270.175781 326.496094 270.199219 326.867188 C 270.222656 327.242188 269.941406 327.558594 269.570312 327.582031 L 263.375 327.964844 C 263.363281 327.96875 263.347656 327.96875 263.332031 327.96875 "/>
<path style=" stroke:none;fill-rule:nonzero;fill:rgb(36.468506%,32.548523%,25.099182%);fill-opacity:1;" d="M 278.746094 231.960938 C 269.136719 235.3125 262.390625 243.992188 261.511719 254.136719 L 255.820312 320.125 L 305.148438 310.3125 L 301.828125 255.453125 L 297.972656 199.242188 "/>
<path style=" stroke:none;fill-rule:nonzero;fill:rgb(16.859436%,20.388794%,14.509583%);fill-opacity:1;" d="M 268.914062 321.53125 C 268.558594 321.53125 268.265625 321.253906 268.242188 320.894531 C 268.21875 320.527344 268.5 320.207031 268.871094 320.183594 L 275.066406 319.800781 C 275.425781 319.78125 275.753906 320.0625 275.777344 320.433594 C 275.800781 320.804688 275.519531 321.125 275.144531 321.148438 L 268.957031 321.527344 C 268.941406 321.53125 268.929688 321.53125 268.914062 321.53125 "/>
<path style=" stroke:none;fill-rule:nonzero;fill:rgb(16.859436%,20.388794%,14.509583%);fill-opacity:1;" d="M 267.175781 324.84375 C 266.820312 324.84375 266.527344 324.570312 266.5 324.210938 C 266.480469 323.839844 266.761719 323.519531 267.132812 323.496094 L 273.324219 323.113281 C 273.695312 323.097656 274.015625 323.371094 274.042969 323.746094 C 274.0625 324.117188 273.78125 324.4375 273.410156 324.460938 L 267.214844 324.84375 C 267.203125 324.84375 267.1875 324.84375 267.175781 324.84375 "/>
<path style=" stroke:none;fill-rule:nonzero;fill:rgb(16.859436%,20.388794%,14.509583%);fill-opacity:1;" d="M 263.332031 327.96875 C 262.984375 327.96875 262.683594 327.691406 262.664062 327.332031 C 262.640625 326.960938 262.921875 326.640625 263.296875 326.621094 L 269.484375 326.238281 C 269.847656 326.210938 270.175781 326.496094 270.199219 326.867188 C 270.222656 327.242188 269.941406 327.558594 269.570312 327.582031 L 263.375 327.964844 C 263.363281 327.96875 263.347656 327.96875 263.332031 327.96875 "/>
<g clip-path="url(#clip1)" clip-rule="nonzero">
<path style=" stroke:none;fill-rule:nonzero;fill:rgb(100%,92.158508%,92.158508%);fill-opacity:1;" d="M 94.113281 317.441406 L 95.527344 333.660156 C 95.875 337.664062 99.632812 340.472656 103.570312 339.679688 L 137.507812 332.8125 C 141.179688 332.070312 141.890625 327.132812 138.585938 325.378906 L 112.183594 311.40625 L 94.113281 317.441406 "/>
</g>
<path style=" stroke:none;fill-rule:nonzero;fill:rgb(16.859436%,20.388794%,14.509583%);fill-opacity:1;" d="M 119.15625 319.449219 C 118.847656 319.449219 118.570312 319.234375 118.5 318.917969 C 118.421875 318.554688 118.652344 318.195312 119.015625 318.117188 L 123.992188 317.03125 C 124.351562 316.949219 124.714844 317.183594 124.792969 317.546875 C 124.871094 317.910156 124.644531 318.269531 124.277344 318.347656 L 119.300781 319.429688 C 119.257812 319.441406 119.207031 319.449219 119.15625 319.449219 "/>
<path style=" stroke:none;fill-rule:nonzero;fill:rgb(16.859436%,20.388794%,14.509583%);fill-opacity:1;" d="M 122.320312 321.382812 C 122.011719 321.382812 121.730469 321.167969 121.660156 320.851562 C 121.585938 320.488281 121.816406 320.128906 122.175781 320.050781 L 127.152344 318.964844 C 127.515625 318.882812 127.875 319.117188 127.953125 319.480469 C 128.035156 319.84375 127.804688 320.203125 127.4375 320.28125 L 122.464844 321.367188 C 122.414062 321.378906 122.367188 321.382812 122.320312 321.382812 "/>
<path style=" stroke:none;fill-rule:nonzero;fill:rgb(16.859436%,20.388794%,14.509583%);fill-opacity:1;" d="M 126.050781 322.992188 C 125.742188 322.992188 125.460938 322.773438 125.394531 322.460938 C 125.3125 322.09375 125.542969 321.738281 125.910156 321.65625 L 130.882812 320.570312 C 131.246094 320.488281 131.605469 320.722656 131.6875 321.085938 C 131.765625 321.449219 131.535156 321.808594 131.171875 321.886719 L 126.191406 322.972656 C 126.148438 322.984375 126.097656 322.992188 126.050781 322.992188 "/>
<path style=" stroke:none;fill-rule:nonzero;fill:rgb(36.468506%,32.548523%,25.099182%);fill-opacity:1;" d="M 71.300781 323.179688 L 119.601562 314.230469 L 114.757812 248.742188 L 104.800781 201.964844 L 84.019531 197.679688 "/>
<path style=" stroke:none;fill-rule:nonzero;fill:rgb(54.899597%,65.879822%,48.629761%);fill-opacity:1;" d="M 58.542969 196.703125 L 10.253906 196.703125 L 10.253906 188.617188 L 58.542969 188.617188 L 58.542969 196.703125 "/>
<g clip-path="url(#clip2)" clip-rule="nonzero">
<path style=" stroke:none;fill-rule:nonzero;fill:rgb(54.899597%,65.879822%,48.629761%);fill-opacity:1;" d="M 70.347656 339.003906 L 78.394531 339.003906 L 64.980469 192.292969 L 56.933594 193.03125 L 70.347656 339.003906 "/>
</g>
<path style=" stroke:none;fill-rule:nonzero;fill:rgb(54.899597%,65.879822%,48.629761%);fill-opacity:1;" d="M 63.273438 258.378906 L 14.984375 258.378906 L 14.984375 250.292969 L 63.273438 250.292969 L 63.273438 258.378906 "/>
<path style=" stroke:none;fill-rule:nonzero;fill:rgb(54.899597%,65.879822%,48.629761%);fill-opacity:1;" d="M 364.949219 196.703125 L 306.550781 196.703125 L 306.550781 188.617188 L 364.949219 188.617188 L 364.949219 196.703125 "/>
<g clip-path="url(#clip3)" clip-rule="nonzero">
<path style=" stroke:none;fill-rule:nonzero;fill:rgb(54.899597%,65.879822%,48.629761%);fill-opacity:1;" d="M 366.640625 339.003906 L 374.6875 339.003906 L 361.277344 192.292969 L 353.230469 193.03125 L 366.640625 339.003906 "/>
</g>
<path style=" stroke:none;fill-rule:nonzero;fill:rgb(54.899597%,65.879822%,48.629761%);fill-opacity:1;" d="M 359.570312 258.378906 L 311.28125 258.378906 L 311.28125 250.292969 L 359.570312 250.292969 L 359.570312 258.378906 "/>
<g clip-path="url(#clip4)" clip-rule="nonzero">
<path style=" stroke:none;fill-rule:nonzero;fill:rgb(54.899597%,65.879822%,48.629761%);fill-opacity:1;" d="M 304.640625 339.003906 L 296.59375 339.003906 L 310 192.292969 L 318.046875 193.03125 L 304.640625 339.003906 "/>
</g>
<g clip-path="url(#clip5)" clip-rule="nonzero">
<path style=" stroke:none;fill-rule:nonzero;fill:rgb(54.899597%,65.879822%,48.629761%);fill-opacity:1;" d="M 8.34375 339.003906 L 0.296875 339.003906 L 13.703125 192.292969 L 21.753906 193.03125 L 8.34375 339.003906 "/>
</g>
<path style=" stroke:none;fill-rule:nonzero;fill:rgb(16.859436%,20.388794%,14.509583%);fill-opacity:1;" d="M 29.695312 197.269531 L 10.253906 197.269531 C 9.882812 197.269531 9.582031 196.96875 9.582031 196.59375 C 9.582031 196.222656 9.882812 195.921875 10.253906 195.921875 L 29.695312 195.921875 C 30.066406 195.921875 30.367188 196.222656 30.367188 196.59375 C 30.367188 196.96875 30.066406 197.269531 29.695312 197.269531 "/>
<path style=" stroke:none;fill-rule:nonzero;fill:rgb(16.859436%,20.388794%,14.509583%);fill-opacity:1;" d="M 62.953125 259.222656 C 62.609375 259.222656 62.316406 258.960938 62.285156 258.609375 L 61.53125 250.390625 C 61.496094 250.023438 61.769531 249.695312 62.136719 249.660156 C 62.507812 249.625 62.835938 249.898438 62.871094 250.269531 L 63.625 258.484375 C 63.660156 258.859375 63.386719 259.183594 63.015625 259.21875 C 62.996094 259.222656 62.976562 259.222656 62.953125 259.222656 "/>
<path style=" stroke:none;fill-rule:nonzero;fill:rgb(16.859436%,20.388794%,14.509583%);fill-opacity:1;" d="M 15.757812 258.976562 C 15.734375 258.976562 15.714844 258.976562 15.695312 258.972656 C 15.324219 258.941406 15.050781 258.613281 15.085938 258.242188 L 15.816406 250.285156 C 15.851562 249.910156 16.175781 249.636719 16.550781 249.671875 C 16.921875 249.707031 17.191406 250.035156 17.160156 250.40625 L 16.425781 258.367188 C 16.394531 258.714844 16.101562 258.976562 15.757812 258.976562 "/>
<path style=" stroke:none;fill-rule:nonzero;fill:rgb(16.859436%,20.388794%,14.509583%);fill-opacity:1;" d="M 364.949219 197.324219 L 323.25 197.324219 C 322.878906 197.324219 322.578125 197.023438 322.578125 196.652344 C 322.578125 196.28125 322.878906 195.976562 323.25 195.976562 L 364.949219 195.976562 C 365.320312 195.976562 365.621094 196.28125 365.621094 196.652344 C 365.621094 197.023438 365.320312 197.324219 364.949219 197.324219 "/>
<path style=" stroke:none;fill-rule:nonzero;fill:rgb(16.859436%,20.388794%,14.509583%);fill-opacity:1;" d="M 359.226562 258.988281 C 358.882812 258.988281 358.589844 258.722656 358.554688 258.375 L 357.808594 250.21875 C 357.773438 249.847656 358.046875 249.523438 358.417969 249.488281 C 358.78125 249.453125 359.113281 249.726562 359.148438 250.097656 L 359.898438 258.253906 C 359.933594 258.621094 359.660156 258.953125 359.289062 258.984375 C 359.269531 258.988281 359.246094 258.988281 359.226562 258.988281 "/>
<path style=" stroke:none;fill-rule:nonzero;fill:rgb(16.859436%,20.388794%,14.509583%);fill-opacity:1;" d="M 312.054688 258.988281 C 312.03125 258.988281 312.011719 258.988281 311.988281 258.984375 C 311.617188 258.953125 311.34375 258.621094 311.378906 258.253906 L 312.128906 250.097656 C 312.160156 249.726562 312.496094 249.453125 312.859375 249.488281 C 313.230469 249.523438 313.503906 249.847656 313.46875 250.21875 L 312.722656 258.375 C 312.6875 258.722656 312.398438 258.988281 312.054688 258.988281 "/>
<path style=" stroke:none;fill-rule:nonzero;fill:rgb(100%,92.158508%,92.158508%);fill-opacity:1;" d="M 101.566406 115.117188 L 100.160156 95.8125 L 124.984375 95.8125 L 122.121094 124.753906 L 100.976562 123.519531 L 101.566406 115.117188 "/>
<path style=" stroke:none;fill-rule:nonzero;fill:rgb(16.859436%,20.388794%,14.509583%);fill-opacity:1;" d="M 278.660156 99.480469 L 302.265625 102.796875 L 299.761719 78.042969 L 304.332031 81.191406 L 314.816406 103.75 C 314.816406 103.75 331.640625 107.46875 339.421875 89.121094 C 339.421875 89.121094 331.292969 85.761719 327.582031 74.378906 C 323.867188 63.003906 316.585938 42.1875 295.621094 47.46875 C 288.726562 49.203125 284.753906 51.046875 281.464844 53.527344 C 281.464844 53.527344 266.804688 62.582031 278.660156 99.480469 "/>
<path style=" stroke:none;fill-rule:nonzero;fill:rgb(16.859436%,20.388794%,14.509583%);fill-opacity:1;" d="M 48.5625 86.933594 L 80.667969 55.382812 C 80.667969 55.382812 86.320312 51.449219 82.84375 44.59375 C 79.363281 37.734375 61.46875 37.53125 54.003906 45.410156 C 54.003906 45.410156 44.207031 41.414062 41.210938 51.640625 C 38.828125 59.78125 48.5625 86.933594 48.5625 86.933594 "/>
<path style=" stroke:none;fill-rule:nonzero;fill:rgb(67.059326%,52.938843%,25.878906%);fill-opacity:1;" d="M 304.871094 70.09375 C 304.871094 72.027344 303.835938 73.707031 302.296875 74.632812 C 301.507812 75.105469 300.585938 75.371094 299.597656 75.371094 C 296.691406 75.371094 294.332031 73.011719 294.332031 70.09375 C 294.332031 69.878906 294.34375 69.664062 294.371094 69.457031 C 294.6875 66.847656 296.914062 64.828125 299.597656 64.828125 C 302.511719 64.828125 304.871094 67.1875 304.871094 70.09375 "/>
<path style=" stroke:none;fill-rule:nonzero;fill:rgb(36.468506%,32.548523%,25.099182%);fill-opacity:1;" d="M 293.703125 81.066406 C 294.132812 82.023438 293.308594 83.324219 291.867188 83.96875 C 290.429688 84.613281 288.914062 84.363281 288.488281 83.40625 C 288.058594 82.449219 288.878906 81.152344 290.320312 80.503906 C 291.761719 79.859375 293.273438 80.113281 293.703125 81.066406 "/>
<path style=" stroke:none;fill-rule:nonzero;fill:rgb(67.059326%,52.938843%,25.878906%);fill-opacity:1;" d="M 277.441406 125.6875 L 249.566406 107.09375 L 245.964844 102.441406 C 245.285156 101.378906 244.234375 100.605469 243.003906 100.308594 C 240.597656 99.722656 236.023438 99.035156 229.4375 99.859375 C 228.066406 100.03125 226.96875 100.621094 226.96875 101.996094 L 226.96875 102.054688 C 226.96875 103.382812 227.945312 104.140625 229.230469 104.433594 L 237.246094 106.273438 C 237.246094 106.273438 234.503906 109.652344 226.261719 111.132812 C 224.496094 111.453125 217.855469 111.761719 214.710938 111.570312 C 213.371094 111.484375 213.136719 113.066406 213.554688 114.058594 C 214.066406 115.433594 217.042969 117.035156 219.695312 117 L 243.882812 117.9375 L 270.550781 148.929688 C 273.699219 152.445312 278.945312 153.128906 282.890625 150.542969 L 294.332031 143.03125 L 277.441406 125.6875 "/>
<path style=" stroke:none;fill-rule:nonzero;fill:rgb(67.059326%,52.938843%,25.878906%);fill-opacity:1;" d="M 95.441406 123.625 L 101.085938 108.582031 L 101.566406 115.117188 C 103.3125 113.328125 105.835938 112.546875 108.292969 113.023438 C 111.578125 113.660156 116.617188 114.199219 121.742188 113.082031 C 124.441406 112.488281 126.996094 114.558594 126.996094 117.328125 L 126.996094 122.261719 C 126.996094 126.207031 125.414062 129.984375 122.605469 132.75 L 114.292969 140.929688 L 98.480469 139.417969 L 95.441406 123.625 "/>
<path style=" stroke:none;fill-rule:nonzero;fill:rgb(67.059326%,52.938843%,25.878906%);fill-opacity:1;" d="M 80.476562 78.90625 L 75.898438 78 L 75.042969 81.304688 C 74.109375 84.933594 70.871094 87.414062 67.242188 87.496094 L 63.882812 97.15625 L 60.984375 106.210938 L 55.984375 104.136719 L 47.617188 111.53125 L 48.566406 86.9375 L 50.023438 72.339844 L 56.710938 69.429688 C 57.617188 69.792969 58.632812 69.929688 59.675781 69.769531 C 62.738281 69.300781 64.835938 66.433594 64.367188 63.363281 C 64.332031 63.128906 64.289062 62.902344 64.226562 62.691406 L 80.667969 55.382812 L 78.492188 65.984375 L 80.476562 78.90625 "/>
<path style=" stroke:none;fill-rule:nonzero;fill:rgb(67.059326%,52.938843%,25.878906%);fill-opacity:1;" d="M 53.261719 65.0625 C 53.574219 67.09375 54.9375 68.703125 56.707031 69.429688 C 57.617188 69.792969 58.632812 69.929688 59.671875 69.773438 C 62.734375 69.300781 64.839844 66.429688 64.371094 63.359375 C 64.335938 63.128906 64.285156 62.902344 64.226562 62.691406 C 63.46875 59.996094 60.800781 58.222656 57.96875 58.65625 C 54.902344 59.128906 52.792969 62 53.261719 65.0625 "/>
<path style=" stroke:none;fill-rule:nonzero;fill:rgb(36.468506%,32.548523%,25.099182%);fill-opacity:1;" d="M 64.484375 71.542969 C 64.1875 72.621094 65.261719 73.859375 66.882812 74.308594 C 68.507812 74.757812 70.0625 74.242188 70.359375 73.167969 C 70.65625 72.09375 69.582031 70.851562 67.957031 70.40625 C 66.339844 69.957031 64.78125 70.46875 64.484375 71.542969 "/>
<path style=" stroke:none;fill-rule:nonzero;fill:rgb(16.859436%,20.388794%,14.509583%);fill-opacity:1;" d="M 64.226562 62.691406 C 64.226562 62.691406 64.980469 64.695312 64.042969 66.265625 L 68.523438 65.859375 L 65.6875 56.515625 L 64.226562 62.691406 "/>
<path style=" stroke:none;fill-rule:nonzero;fill:rgb(67.059326%,52.938843%,25.878906%);fill-opacity:1;" d="M 312.867188 91.078125 L 307.59375 82.78125 L 302.296875 74.632812 C 301.507812 75.105469 300.585938 75.371094 299.597656 75.371094 C 296.691406 75.371094 294.332031 73.011719 294.332031 70.09375 C 294.332031 69.878906 294.34375 69.664062 294.371094 69.457031 L 279.242188 68.144531 L 281.609375 74.539062 L 281.609375 86.796875 L 285.71875 85.308594 L 286.984375 88.246094 C 287.1875 88.726562 287.4375 89.171875 287.71875 89.585938 L 291.902344 85.160156 L 290.578125 92.085938 C 292.332031 92.984375 294.414062 93.222656 296.421875 92.597656 L 299.304688 91.699219 C 303.027344 100.027344 303.03125 112.375 303.03125 112.375 L 304.011719 116.929688 L 316.703125 112.375 L 312.867188 91.078125 "/>
<path style=" stroke:none;fill-rule:nonzero;fill:rgb(36.468506%,32.548523%,25.099182%);fill-opacity:1;" d="M 293.703125 81.066406 C 294.132812 82.023438 293.308594 83.324219 291.867188 83.96875 C 290.429688 84.613281 288.914062 84.363281 288.488281 83.40625 C 288.058594 82.449219 288.878906 81.152344 290.320312 80.503906 C 291.761719 79.859375 293.273438 80.113281 293.703125 81.066406 "/>
<path style=" stroke:none;fill-rule:nonzero;fill:rgb(16.859436%,20.388794%,14.509583%);fill-opacity:1;" d="M 70.78125 65.773438 C 70.574219 65.773438 70.367188 65.675781 70.234375 65.492188 C 70.019531 65.191406 70.085938 64.773438 70.386719 64.558594 C 70.464844 64.496094 72.375 63.144531 74.550781 63.554688 C 74.914062 63.621094 75.15625 63.972656 75.085938 64.339844 C 75.019531 64.703125 74.667969 64.945312 74.300781 64.875 C 72.699219 64.578125 71.1875 65.636719 71.175781 65.648438 C 71.054688 65.734375 70.917969 65.773438 70.78125 65.773438 "/>
<path style=" stroke:none;fill-rule:nonzero;fill:rgb(16.859436%,20.388794%,14.509583%);fill-opacity:1;" d="M 62.035156 66.289062 C 61.703125 66.289062 61.410156 66.042969 61.367188 65.699219 C 60.929688 62.386719 57.757812 62.074219 57.621094 62.066406 C 57.25 62.03125 56.976562 61.707031 57.007812 61.335938 C 57.039062 60.964844 57.367188 60.695312 57.730469 60.722656 C 59.246094 60.839844 62.238281 62 62.703125 65.527344 C 62.75 65.894531 62.492188 66.230469 62.121094 66.28125 C 62.09375 66.285156 62.0625 66.289062 62.035156 66.289062 "/>
<path style=" stroke:none;fill-rule:nonzero;fill:rgb(16.859436%,20.388794%,14.509583%);fill-opacity:1;" d="M 55.820312 66.941406 C 55.734375 66.941406 55.644531 66.921875 55.558594 66.886719 C 55.21875 66.742188 55.054688 66.351562 55.199219 66.007812 C 55.269531 65.835938 57 61.804688 60.28125 61.773438 C 60.285156 61.773438 60.285156 61.773438 60.289062 61.773438 C 60.65625 61.773438 60.957031 62.070312 60.960938 62.441406 C 60.964844 62.8125 60.667969 63.117188 60.296875 63.121094 C 57.898438 63.144531 56.453125 66.496094 56.441406 66.53125 C 56.332031 66.785156 56.082031 66.941406 55.820312 66.941406 "/>
<path style=" stroke:none;fill-rule:nonzero;fill:rgb(100%,92.158508%,92.158508%);fill-opacity:1;" d="M 60.402344 281.148438 L 53.867188 298.824219 C 51.90625 304.128906 54.996094 309.960938 60.484375 311.320312 L 107.789062 323.003906 C 112.902344 324.269531 116.78125 318.414062 113.621094 314.191406 L 88.433594 280.535156 L 60.402344 281.148438 "/>
<path style=" stroke:none;fill-rule:nonzero;fill:rgb(54.899597%,65.879822%,48.629761%);fill-opacity:1;" d="M 272.132812 280.25 L 307.628906 271.554688 L 315.890625 293.761719 L 302.316406 296.90625 L 297.707031 290.167969 L 295.152344 298.847656 L 256.878906 307.621094 C 255.332031 307.976562 253.902344 306.710938 254.054688 305.140625 C 254.527344 300.25 258 296.179688 262.75 294.941406 C 267.277344 293.761719 270.664062 289.996094 271.363281 285.367188 L 272.132812 280.25 "/>
<path style=" stroke:none;fill-rule:nonzero;fill:rgb(36.468506%,32.548523%,25.099182%);fill-opacity:1;" d="M 12.238281 167.988281 C 12.238281 167.988281 6.398438 198.820312 58.203125 204.300781 L 90.683594 208.570312 L 60.402344 281.148438 L 121.183594 294.910156 L 123.28125 200.367188 C 123.414062 194.382812 119.230469 189.171875 113.363281 188.011719 L 12.238281 167.988281 "/>
<path style=" stroke:none;fill-rule:nonzero;fill:rgb(36.468506%,32.548523%,25.099182%);fill-opacity:1;" d="M 251.496094 284.925781 L 308.46875 273.589844 L 286.847656 214.519531 L 354.117188 184.636719 C 354.117188 184.636719 369.570312 177.507812 357.777344 155.28125 C 345.984375 133.054688 357.777344 155.28125 357.777344 155.28125 L 277.976562 183.089844 C 266.875 186.957031 259.082031 196.988281 258.074219 208.703125 L 251.496094 284.925781 "/>
<path style=" stroke:none;fill-rule:nonzero;fill:rgb(54.899597%,65.879822%,48.629761%);fill-opacity:1;" d="M 48.5625 86.933594 C 48.5625 86.933594 45.546875 96.6875 37.425781 104.816406 C 29.300781 112.945312 15.492188 134.316406 12.238281 167.988281 L 58.542969 177.734375 L 64.367188 184.449219 C 67.789062 188.398438 73.992188 188.167969 77.113281 183.976562 L 115.851562 142.355469 L 95.441406 123.625 L 74.09375 156.371094 L 60.980469 106.210938 L 63.878906 97.152344 L 48.5625 86.933594 "/>
<path style=" stroke:none;fill-rule:nonzero;fill:rgb(100%,92.158508%,92.158508%);fill-opacity:1;" d="M 277.441406 125.6875 L 292.78125 151.648438 L 307.285156 133.503906 L 307.285156 172.867188 L 357.777344 155.28125 C 357.777344 155.28125 345.503906 124.292969 312.867188 91.078125 C 312.867188 91.078125 307.84375 101.40625 302.265625 102.796875 L 277.441406 125.6875 "/>
<path style=" stroke:none;fill-rule:nonzero;fill:rgb(16.859436%,20.388794%,14.509583%);fill-opacity:1;" d="M 58.542969 177.734375 L 41.152344 149.304688 L 46.113281 175.117188 Z M 58.542969 177.734375 "/>
<path style=" stroke:none;fill-rule:nonzero;fill:rgb(16.859436%,20.388794%,14.509583%);fill-opacity:1;" d="M 307.285156 133.503906 L 315.566406 122.566406 L 307.285156 146.585938 Z M 307.285156 133.503906 "/>
<path style=" stroke:none;fill-rule:nonzero;fill:rgb(16.859436%,20.388794%,14.509583%);fill-opacity:1;" d="M 68.75 88.359375 C 68.195312 88.359375 67.628906 88.289062 67.074219 88.148438 L 60.488281 86.101562 C 60.132812 85.992188 59.933594 85.613281 60.042969 85.257812 C 60.15625 84.902344 60.53125 84.707031 60.886719 84.816406 L 67.441406 86.851562 C 68.800781 87.199219 70.246094 86.992188 71.480469 86.257812 C 72.714844 85.523438 73.589844 84.355469 73.941406 82.960938 L 75.242188 77.835938 C 75.335938 77.488281 75.683594 77.269531 76.027344 77.335938 L 79.664062 78.058594 L 77.828125 66.085938 C 77.8125 66.011719 77.816406 65.929688 77.832031 65.851562 L 80.214844 54.25 C 80.289062 53.882812 80.652344 53.652344 81.011719 53.722656 C 81.375 53.800781 81.609375 54.152344 81.535156 54.519531 L 79.175781 66.003906 L 81.140625 78.804688 C 81.175781 79.019531 81.101562 79.242188 80.941406 79.390625 C 80.785156 79.542969 80.5625 79.609375 80.347656 79.566406 L 76.394531 78.78125 L 75.246094 83.292969 C 74.804688 85.035156 73.714844 86.5 72.167969 87.414062 C 71.117188 88.039062 69.945312 88.359375 68.75 88.359375 "/>
<path style=" stroke:none;fill-rule:nonzero;fill:rgb(16.859436%,20.388794%,14.509583%);fill-opacity:1;" d="M 106.972656 143.710938 C 106.8125 143.710938 106.652344 143.652344 106.523438 143.539062 L 91.273438 129.832031 C 91.027344 129.605469 90.976562 129.238281 91.160156 128.960938 L 94.875 123.257812 C 94.984375 123.09375 95.160156 122.984375 95.359375 122.957031 C 95.554688 122.933594 95.75 122.992188 95.898438 123.128906 L 116.304688 141.859375 C 116.578125 142.109375 116.597656 142.535156 116.34375 142.8125 C 116.097656 143.085938 115.667969 143.105469 115.394531 142.851562 L 95.570312 124.660156 L 92.605469 129.210938 L 107.421875 142.535156 C 107.699219 142.785156 107.71875 143.210938 107.476562 143.488281 C 107.339844 143.632812 107.15625 143.710938 106.972656 143.710938 "/>
<path style=" stroke:none;fill-rule:nonzero;fill:rgb(16.859436%,20.388794%,14.509583%);fill-opacity:1;" d="M 120.507812 119.714844 C 120.171875 119.714844 119.878906 119.460938 119.839844 119.117188 C 119.796875 118.75 120.0625 118.417969 120.429688 118.375 L 126.917969 117.625 C 127.28125 117.578125 127.621094 117.84375 127.667969 118.21875 C 127.707031 118.585938 127.441406 118.917969 127.074219 118.960938 L 120.585938 119.710938 C 120.5625 119.714844 120.53125 119.714844 120.507812 119.714844 "/>
<path style=" stroke:none;fill-rule:nonzero;fill:rgb(16.859436%,20.388794%,14.509583%);fill-opacity:1;" d="M 120.507812 124.675781 C 120.171875 124.675781 119.878906 124.421875 119.839844 124.078125 C 119.796875 123.710938 120.0625 123.375 120.429688 123.332031 L 126.917969 122.578125 C 127.28125 122.539062 127.621094 122.804688 127.667969 123.171875 C 127.707031 123.542969 127.441406 123.878906 127.074219 123.921875 L 120.585938 124.671875 C 120.5625 124.675781 120.53125 124.675781 120.507812 124.675781 "/>
<path style=" stroke:none;fill-rule:nonzero;fill:rgb(16.859436%,20.388794%,14.509583%);fill-opacity:1;" d="M 121.046875 129.316406 C 120.710938 129.316406 120.421875 129.058594 120.382812 128.714844 C 120.339844 128.34375 120.609375 128.011719 120.976562 127.96875 L 125.710938 127.457031 C 126.078125 127.414062 126.410156 127.683594 126.453125 128.054688 C 126.492188 128.421875 126.226562 128.757812 125.851562 128.796875 L 121.121094 129.3125 C 121.101562 129.316406 121.074219 129.316406 121.046875 129.316406 "/>
<path style=" stroke:none;fill-rule:nonzero;fill:rgb(16.859436%,20.388794%,14.509583%);fill-opacity:1;" d="M 99.855469 296.390625 C 99.808594 296.390625 99.757812 296.386719 99.707031 296.371094 L 92.722656 294.761719 C 92.363281 294.675781 92.132812 294.316406 92.21875 293.949219 C 92.300781 293.589844 92.664062 293.363281 93.023438 293.449219 L 100.007812 295.058594 C 100.371094 295.144531 100.597656 295.507812 100.511719 295.867188 C 100.441406 296.179688 100.164062 296.390625 99.855469 296.390625 "/>
<path style=" stroke:none;fill-rule:nonzero;fill:rgb(16.859436%,20.388794%,14.509583%);fill-opacity:1;" d="M 102.71875 300.753906 C 102.671875 300.753906 102.617188 300.75 102.566406 300.734375 L 95.585938 299.125 C 95.222656 299.039062 94.996094 298.679688 95.082031 298.316406 C 95.164062 297.953125 95.527344 297.722656 95.886719 297.8125 L 102.871094 299.421875 C 103.230469 299.507812 103.460938 299.867188 103.375 300.230469 C 103.304688 300.542969 103.023438 300.753906 102.71875 300.753906 "/>
<path style=" stroke:none;fill-rule:nonzero;fill:rgb(16.859436%,20.388794%,14.509583%);fill-opacity:1;" d="M 106.5 305.042969 C 106.449219 305.042969 106.398438 305.035156 106.347656 305.023438 L 99.367188 303.410156 C 99.003906 303.328125 98.777344 302.964844 98.859375 302.601562 C 98.945312 302.242188 99.304688 302.007812 99.667969 302.097656 L 106.652344 303.710938 C 107.011719 303.792969 107.238281 304.15625 107.15625 304.519531 C 107.085938 304.832031 106.808594 305.042969 106.5 305.042969 "/>
<path style=" stroke:none;fill-rule:nonzero;fill:rgb(16.859436%,20.388794%,14.509583%);fill-opacity:1;" d="M 271.4375 285.597656 C 271.128906 285.597656 270.851562 285.386719 270.785156 285.074219 C 270.699219 284.714844 270.921875 284.351562 271.285156 284.269531 L 278.269531 282.65625 C 278.625 282.570312 278.992188 282.796875 279.078125 283.160156 C 279.160156 283.523438 278.933594 283.886719 278.574219 283.96875 L 271.589844 285.582031 C 271.539062 285.59375 271.488281 285.597656 271.4375 285.597656 "/>
<path style=" stroke:none;fill-rule:nonzero;fill:rgb(16.859436%,20.388794%,14.509583%);fill-opacity:1;" d="M 270.085938 289.703125 C 269.78125 289.703125 269.503906 289.492188 269.429688 289.179688 C 269.34375 288.820312 269.574219 288.457031 269.933594 288.375 L 276.917969 286.761719 C 277.273438 286.675781 277.640625 286.902344 277.722656 287.269531 C 277.808594 287.628906 277.582031 287.992188 277.222656 288.074219 L 270.238281 289.6875 C 270.1875 289.699219 270.136719 289.703125 270.085938 289.703125 "/>
<path style=" stroke:none;fill-rule:nonzero;fill:rgb(16.859436%,20.388794%,14.509583%);fill-opacity:1;" d="M 266.304688 293.992188 C 266 293.992188 265.722656 293.78125 265.648438 293.46875 C 265.5625 293.109375 265.792969 292.742188 266.152344 292.664062 L 273.136719 291.046875 C 273.496094 290.964844 273.859375 291.1875 273.941406 291.554688 C 274.027344 291.914062 273.804688 292.277344 273.4375 292.359375 L 266.457031 293.976562 C 266.40625 293.984375 266.355469 293.992188 266.304688 293.992188 "/>
<path style=" stroke:none;fill-rule:nonzero;fill:rgb(16.859436%,20.388794%,14.509583%);fill-opacity:1;" d="M 72.179688 71.183594 C 72.121094 71.183594 72.058594 71.175781 72 71.160156 C 71.640625 71.058594 71.429688 70.683594 71.53125 70.328125 L 72.074219 68.398438 C 72.171875 68.042969 72.546875 67.832031 72.902344 67.933594 C 73.257812 68.03125 73.46875 68.402344 73.367188 68.765625 L 72.828125 70.691406 C 72.746094 70.992188 72.476562 71.183594 72.179688 71.183594 "/>
<path style=" stroke:none;fill-rule:nonzero;fill:rgb(16.859436%,20.388794%,14.509583%);fill-opacity:1;" d="M 75.046875 81.980469 C 75.007812 81.980469 74.96875 81.976562 74.933594 81.96875 C 69.53125 81.058594 68.8125 76.410156 68.804688 76.359375 C 68.75 75.992188 69.007812 75.652344 69.375 75.597656 C 69.742188 75.550781 70.085938 75.800781 70.136719 76.171875 C 70.164062 76.339844 70.761719 79.902344 75.15625 80.640625 C 75.523438 80.703125 75.769531 81.050781 75.710938 81.417969 C 75.652344 81.746094 75.371094 81.980469 75.046875 81.980469 "/>
<path style=" stroke:none;fill-rule:nonzero;fill:rgb(16.859436%,20.388794%,14.509583%);fill-opacity:1;" d="M 297.59375 74.265625 C 297.292969 74.265625 297.019531 74.066406 296.945312 73.761719 C 296.394531 71.679688 296.296875 67.367188 299.867188 66 C 300.21875 65.867188 300.605469 66.042969 300.738281 66.390625 C 300.871094 66.738281 300.695312 67.125 300.347656 67.257812 C 297.015625 68.535156 298.191406 73.222656 298.246094 73.417969 C 298.339844 73.78125 298.125 74.148438 297.765625 74.242188 C 297.707031 74.257812 297.648438 74.265625 297.59375 74.265625 "/>
<path style=" stroke:none;fill-rule:nonzero;fill:rgb(16.859436%,20.388794%,14.509583%);fill-opacity:1;" d="M 302.699219 71.601562 C 302.539062 71.601562 302.375 71.542969 302.246094 71.425781 C 302.226562 71.40625 300.117188 69.539062 297.84375 70.300781 C 297.488281 70.417969 297.113281 70.226562 296.992188 69.871094 C 296.878906 69.519531 297.066406 69.136719 297.421875 69.019531 C 300.449219 68.011719 303.042969 70.328125 303.152344 70.429688 C 303.425781 70.679688 303.445312 71.101562 303.199219 71.378906 C 303.0625 71.527344 302.882812 71.601562 302.699219 71.601562 "/>
<path style=" stroke:none;fill-rule:nonzero;fill:rgb(16.859436%,20.388794%,14.509583%);fill-opacity:1;" d="M 289.804688 74.085938 C 289.679688 74.085938 289.554688 74.050781 289.441406 73.976562 C 289.425781 73.964844 287.871094 72.976562 286.28125 73.351562 C 285.921875 73.4375 285.558594 73.214844 285.472656 72.851562 C 285.386719 72.488281 285.613281 72.128906 285.972656 72.039062 C 288.128906 71.535156 290.09375 72.792969 290.179688 72.847656 C 290.488281 73.054688 290.574219 73.472656 290.371094 73.78125 C 290.242188 73.976562 290.027344 74.085938 289.804688 74.085938 "/>
<path style=" stroke:none;fill-rule:nonzero;fill:rgb(16.859436%,20.388794%,14.509583%);fill-opacity:1;" d="M 288.664062 79.554688 C 288.378906 79.554688 288.117188 79.375 288.019531 79.089844 L 287.394531 77.191406 C 287.277344 76.835938 287.46875 76.453125 287.820312 76.339844 C 288.171875 76.21875 288.554688 76.414062 288.671875 76.765625 L 289.300781 78.664062 C 289.417969 79.019531 289.226562 79.402344 288.875 79.519531 C 288.804688 79.542969 288.734375 79.554688 288.664062 79.554688 "/>
<path style=" stroke:none;fill-rule:nonzero;fill:rgb(36.468506%,32.548523%,25.099182%);fill-opacity:1;" d="M 197.019531 335.09375 L 188.039062 335.09375 L 188.039062 167.117188 L 197.019531 167.117188 L 197.019531 335.09375 "/>
<g clip-path="url(#clip6)" clip-rule="nonzero">
<path style=" stroke:none;fill-rule:nonzero;fill:rgb(36.468506%,32.548523%,25.099182%);fill-opacity:1;" d="M 228.378906 339.585938 L 156.679688 339.585938 L 156.679688 330.597656 L 228.378906 330.597656 L 228.378906 339.585938 "/>
</g>
<path style=" stroke:none;fill-rule:nonzero;fill:rgb(36.468506%,32.548523%,25.099182%);fill-opacity:1;" d="M 268.289062 172.867188 L 116.769531 172.867188 C 113.59375 172.867188 111.023438 170.292969 111.023438 167.117188 C 111.023438 163.945312 113.59375 161.371094 116.769531 161.371094 L 268.289062 161.371094 C 271.460938 161.371094 274.03125 163.945312 274.03125 167.117188 C 274.03125 170.292969 271.460938 172.867188 268.289062 172.867188 "/>
<path style=" stroke:none;fill-rule:nonzero;fill:rgb(16.859436%,20.388794%,14.509583%);fill-opacity:1;" d="M 197.054688 173.539062 L 188.132812 173.539062 C 187.757812 173.539062 187.457031 173.238281 187.457031 172.867188 C 187.457031 172.496094 187.757812 172.191406 188.132812 172.191406 L 197.054688 172.191406 C 197.425781 172.191406 197.726562 172.496094 197.726562 172.867188 C 197.726562 173.238281 197.425781 173.539062 197.054688 173.539062 "/>
<path style=" stroke:none;fill-rule:nonzero;fill:rgb(16.859436%,20.388794%,14.509583%);fill-opacity:1;" d="M 197.03125 331.257812 L 187.996094 331.257812 C 187.625 331.257812 187.324219 330.957031 187.324219 330.585938 C 187.324219 330.214844 187.625 329.910156 187.996094 329.910156 L 197.03125 329.910156 C 197.40625 329.910156 197.707031 330.214844 197.707031 330.585938 C 197.707031 330.957031 197.40625 331.257812 197.03125 331.257812 "/>
<path style=" stroke:none;fill-rule:nonzero;fill:rgb(16.859436%,20.388794%,14.509583%);fill-opacity:1;" d="M 310.199219 279.140625 C 309.925781 279.140625 309.664062 278.96875 309.566406 278.695312 L 303.117188 260.925781 L 286.214844 214.75 C 286.09375 214.417969 286.25 214.046875 286.574219 213.902344 L 298.386719 208.65625 C 298.730469 208.503906 299.125 208.660156 299.277344 209 C 299.425781 209.339844 299.273438 209.734375 298.933594 209.886719 L 287.695312 214.878906 L 304.382812 260.464844 L 310.832031 278.234375 C 310.957031 278.585938 310.78125 278.972656 310.429688 279.097656 C 310.351562 279.125 310.273438 279.140625 310.199219 279.140625 "/>
<path style=" stroke:none;fill-rule:nonzero;fill:rgb(16.859436%,20.388794%,14.509583%);fill-opacity:1;" d="M 218.484375 112.359375 C 217.28125 112.359375 216.011719 112.320312 214.671875 112.242188 C 214.300781 112.222656 214.015625 111.898438 214.039062 111.53125 C 214.058594 111.160156 214.40625 110.878906 214.75 110.894531 C 231.605469 111.890625 236.671875 105.910156 236.722656 105.851562 C 236.957031 105.5625 237.378906 105.519531 237.667969 105.75 C 237.957031 105.980469 238.003906 106.402344 237.773438 106.695312 C 237.574219 106.945312 233.085938 112.359375 218.484375 112.359375 "/>
<path style=" stroke:none;fill-rule:nonzero;fill:rgb(16.859436%,20.388794%,14.509583%);fill-opacity:1;" d="M 80.25 234.242188 C 80.164062 234.242188 80.078125 234.226562 79.992188 234.191406 C 79.648438 234.046875 79.488281 233.65625 79.632812 233.308594 L 89.722656 209.121094 L 82.617188 208.1875 C 82.25 208.140625 81.992188 207.800781 82.039062 207.433594 C 82.089844 207.066406 82.425781 206.796875 82.792969 206.855469 L 90.769531 207.898438 C 90.976562 207.929688 91.164062 208.050781 91.265625 208.234375 C 91.371094 208.417969 91.382812 208.632812 91.304688 208.832031 L 80.871094 233.828125 C 80.765625 234.085938 80.515625 234.242188 80.25 234.242188 "/>
<path style=" stroke:none;fill-rule:nonzero;fill:rgb(16.859436%,20.388794%,14.509583%);fill-opacity:1;" d="M 109.320312 323.871094 C 108.671875 323.871094 108.078125 323.785156 107.613281 323.65625 L 94.148438 320.332031 C 93.785156 320.238281 93.566406 319.878906 93.65625 319.511719 C 93.742188 319.152344 94.113281 318.9375 94.46875 319.019531 L 107.949219 322.351562 C 108.136719 322.402344 112.320312 323.457031 113.710938 319.402344 C 113.832031 319.050781 114.214844 318.863281 114.566406 318.984375 C 114.917969 319.105469 115.105469 319.492188 114.984375 319.84375 C 113.898438 323.023438 111.335938 323.871094 109.320312 323.871094 "/>
<g clip-path="url(#clip7)" clip-rule="nonzero">
<path style=" stroke:none;fill-rule:nonzero;fill:rgb(16.859436%,20.388794%,14.509583%);fill-opacity:1;" d="M 296.59375 339.679688 C 296.570312 339.679688 296.550781 339.675781 296.53125 339.675781 C 296.160156 339.640625 295.886719 339.3125 295.917969 338.941406 L 299.992188 294.425781 C 300.023438 294.054688 300.359375 293.785156 300.722656 293.8125 C 301.09375 293.847656 301.367188 294.175781 301.332031 294.546875 L 297.261719 339.066406 C 297.230469 339.414062 296.9375 339.679688 296.59375 339.679688 "/>
</g>
<path style=" stroke:none;fill-rule:nonzero;fill:rgb(100%,92.158508%,92.158508%);fill-opacity:1;" d="M 227.347656 161.371094 L 206.734375 161.371094 L 202.246094 125.789062 L 231.835938 125.789062 L 227.347656 161.371094 "/>
</g>
</svg>
