<?xml version="1.0" encoding="UTF-8"?>
<svg xmlns="http://www.w3.org/2000/svg" xmlns:xlink="http://www.w3.org/1999/xlink" width="375pt" height="374.999991pt" viewBox="0 0 375 374.999991" version="1.2">
<defs>
<clipPath id="clip1">
  <path d="M 120 342.128906 L 176.894531 342.128906 L 176.894531 374.472656 L 120 374.472656 Z M 120 342.128906 "/>
</clipPath>
<clipPath id="clip2">
  <path d="M 128 343.246094 L 176.894531 343.246094 L 176.894531 372 L 128 372 Z M 128 343.246094 "/>
</clipPath>
<clipPath id="clip3">
  <path d="M 273.519531 6 L 350.484375 6 L 350.484375 78 L 273.519531 78 Z M 273.519531 6 "/>
</clipPath>
<clipPath id="clip4">
  <path d="M 332 6 L 350.484375 6 L 350.484375 33.929688 L 332 33.929688 Z M 332 6 "/>
</clipPath>
<clipPath id="clip5">
  <path d="M 292 318.339844 L 337 318.339844 L 337 375 L 292 375 Z M 292 318.339844 "/>
</clipPath>
</defs>
<g id="surface1">
<path style=" stroke:none;fill-rule:nonzero;fill:rgb(96.859741%,60.389709%,56.858826%);fill-opacity:1;" d="M 60.71875 237.675781 C 62.28125 273.183594 63.835938 308.679688 65.40625 344.207031 C 71.210938 344.609375 77.019531 345.027344 82.824219 345.410156 C 85.488281 331.6875 87.964844 317.375 90.164062 302.488281 C 92.792969 284.734375 94.816406 267.632812 96.355469 251.273438 C 90.367188 250.433594 82.609375 248.707031 74.160156 245.023438 C 68.847656 242.71875 64.375 240.121094 60.71875 237.675781 "/>
<path style=" stroke:none;fill-rule:nonzero;fill:rgb(96.859741%,60.389709%,56.858826%);fill-opacity:1;" d="M 107.121094 247.878906 C 109.542969 263.898438 112.117188 280.109375 114.835938 296.492188 C 117.496094 312.5 120.234375 328.304688 123.054688 343.902344 C 128.90625 344.171875 134.769531 344.4375 140.621094 344.726562 C 141.070312 316.246094 141.519531 287.722656 141.96875 259.238281 C 137.601562 257.582031 133.070312 255.945312 128.371094 254.371094 C 121.054688 251.90625 113.949219 249.75 107.121094 247.878906 "/>
<path style=" stroke:none;fill-rule:nonzero;fill:rgb(15.689087%,25.099182%,49.409485%);fill-opacity:1;" d="M 83.429688 341.308594 C 80.480469 341.015625 77.34375 340.800781 74.039062 340.691406 C 70.339844 340.570312 66.839844 340.597656 63.566406 340.730469 C 62.871094 345.574219 62.28125 350.734375 61.847656 356.171875 C 61.429688 361.492188 61.195312 366.570312 61.113281 371.367188 C 64.113281 371.65625 67.128906 371.933594 70.125 372.21875 C 70.996094 370.304688 71.867188 368.386719 72.730469 366.46875 C 76.101562 368.164062 80.960938 370.246094 87.054688 371.613281 C 102.023438 374.976562 116.625 372.304688 116.792969 369.894531 C 116.953125 367.480469 102.429688 368.355469 92.0625 357.773438 C 86.972656 352.574219 84.613281 346.335938 83.429688 341.308594 "/>
<g clip-path="url(#clip1)" clip-rule="nonzero">
<path style=" stroke:none;fill-rule:nonzero;fill:rgb(15.689087%,25.099182%,49.409485%);fill-opacity:1;" d="M 141.230469 342.535156 C 134.433594 343.078125 127.644531 343.617188 120.851562 344.164062 C 120.417969 348.59375 120.171875 353.582031 120.28125 359.03125 C 120.394531 364.6875 120.878906 369.835938 121.527344 374.378906 C 124.554688 374.410156 127.5625 374.433594 130.582031 374.472656 C 131.160156 372.949219 131.730469 371.425781 132.308594 369.898438 C 136.339844 371.253906 142.242188 372.84375 149.496094 373.328125 C 163.5625 374.273438 176.949219 370.6875 176.890625 368.261719 C 176.832031 365.753906 162.371094 367.878906 151.234375 358.253906 C 145.707031 353.480469 142.824219 347.445312 141.230469 342.535156 "/>
</g>
<g clip-path="url(#clip2)" clip-rule="nonzero">
<path style=" stroke:none;fill-rule:nonzero;fill:rgb(100%,100%,100%);fill-opacity:1;" d="M 128.695312 344.398438 C 130.300781 349.203125 132.554688 353.796875 135.625 357.84375 C 140.460938 364.210938 147.21875 368.726562 155.058594 370.429688 C 162.238281 371.984375 169.855469 371.214844 176.496094 368.046875 C 176.679688 367.957031 176.609375 367.730469 176.464844 367.664062 C 176.457031 367.566406 176.390625 367.472656 176.261719 367.480469 C 172.570312 367.6875 168.859375 367.558594 165.207031 366.980469 C 158.867188 365.964844 152.675781 363.597656 147.660156 359.539062 C 142.613281 355.453125 138.828125 349.839844 137.519531 343.445312 C 137.460938 343.164062 137.042969 343.277344 137.097656 343.550781 C 137.84375 347.191406 139.371094 350.613281 141.519531 353.644531 C 149.238281 364.550781 162.8125 368.515625 175.660156 367.941406 C 172.109375 369.546875 168.28125 370.488281 164.382812 370.71875 C 157.222656 371.144531 149.914062 369.28125 143.953125 365.253906 C 136.671875 360.332031 131.859375 352.496094 129.117188 344.289062 C 129.027344 344.023438 128.605469 344.132812 128.695312 344.398438 "/>
</g>
<path style=" stroke:none;fill-rule:nonzero;fill:rgb(100%,100%,100%);fill-opacity:1;" d="M 71.472656 340.527344 C 73.214844 349.003906 77.054688 357.355469 83.699219 363.109375 C 89.128906 367.816406 96.167969 370.542969 103.328125 370.972656 C 107.226562 371.203125 111.136719 370.730469 114.855469 369.5625 C 102.027344 368.601562 89.027344 363.042969 82.664062 351.296875 C 80.894531 348.027344 79.789062 344.449219 79.488281 340.746094 C 79.460938 340.46875 79.894531 340.402344 79.914062 340.6875 C 80.449219 347.195312 83.53125 353.222656 88.054688 357.878906 C 92.554688 362.507812 98.414062 365.597656 104.585938 367.355469 C 108.144531 368.371094 111.816406 368.941406 115.507812 369.175781 C 115.632812 369.179688 115.6875 369.28125 115.6875 369.382812 C 115.824219 369.464844 115.867188 369.695312 115.667969 369.761719 C 108.699219 372.117188 101.042969 371.972656 94.101562 369.570312 C 86.519531 366.949219 80.347656 361.660156 76.3125 354.757812 C 73.746094 350.375 72.058594 345.546875 71.042969 340.582031 C 70.980469 340.3125 71.414062 340.25 71.472656 340.527344 "/>
<path style=" stroke:none;fill-rule:nonzero;fill:rgb(100%,100%,78.039551%);fill-opacity:1;" d="M 111.949219 270.066406 C 112.082031 272.21875 112.203125 274.367188 112.320312 276.515625 C 116.234375 277.449219 121.546875 278.367188 127.894531 278.453125 C 134.183594 278.53125 139.46875 277.765625 143.386719 276.949219 C 139.375 232.742188 135.367188 188.53125 131.355469 144.316406 C 119.53125 144.199219 107.683594 144.101562 95.847656 143.984375 C 103.78125 184.6875 109.3125 226.726562 111.949219 270.066406 "/>
<path style=" stroke:none;fill-rule:nonzero;fill:rgb(100%,100%,78.039551%);fill-opacity:1;" d="M 111.578125 279.953125 C 116.347656 234.960938 121.109375 189.972656 125.878906 144.972656 C 122.3125 145.128906 118.707031 145.269531 115.058594 145.378906 C 100.859375 145.796875 87.199219 145.703125 74.105469 145.222656 C 72.445312 153.417969 70.347656 164.265625 68.175781 177.074219 C 68.175781 177.074219 65.828125 190.867188 63.71875 205.832031 C 62.105469 217.277344 59.464844 241.660156 56.3125 275.71875 C 64.558594 277.953125 75.386719 280.121094 88.214844 280.714844 C 97.070312 281.117188 104.957031 280.691406 111.578125 279.953125 "/>
<path style=" stroke:none;fill-rule:nonzero;fill:rgb(15.689087%,25.099182%,49.409485%);fill-opacity:1;" d="M 96.445312 44.734375 C 99.789062 45.957031 102.839844 45.347656 104.417969 45.007812 C 115.761719 42.585938 125.265625 29.144531 124.488281 15.914062 C 124.332031 13.253906 123.542969 6.867188 118.160156 -0.00390625 C 116.582031 1.703125 113.96875 4.058594 110.191406 5.484375 C 105.921875 7.097656 103.59375 6.222656 99.746094 7.132812 C 94.691406 8.324219 89.601562 11.96875 87.097656 16.464844 C 81.761719 26.050781 87.1875 41.34375 96.445312 44.734375 "/>
<path style=" stroke:none;fill-rule:nonzero;fill:rgb(96.859741%,60.389709%,56.858826%);fill-opacity:1;" d="M 116.871094 55.539062 C 116.871094 55.539062 118.320312 55.832031 120.390625 56.449219 C 121.789062 56.804688 124.53125 57.597656 127.609375 59.269531 C 132.308594 61.820312 138.398438 82.015625 146.292969 93.703125 C 146.628906 85.269531 145.746094 76.207031 146.925781 67.703125 C 146.917969 66.921875 146.980469 66.125 147.070312 65.332031 C 147.105469 65.027344 147.199219 63.941406 147.367188 62.996094 C 147.667969 61.316406 148.175781 60.113281 148.53125 59.226562 C 149.085938 57.847656 149.824219 55.832031 150.648438 53.070312 C 150.867188 51.167969 150.984375 49.429688 151.035156 47.875 C 151.191406 43.175781 150.761719 40.441406 152.148438 39.738281 C 152.683594 39.472656 153.238281 39.628906 153.347656 39.660156 C 153.839844 39.800781 154.625 40.277344 155.851562 44.414062 C 156.1875 45.527344 156.441406 46.53125 156.632812 47.390625 C 157.007812 45.65625 157.476562 43.949219 158.398438 42.441406 C 159.195312 41.140625 161.675781 41.167969 161.957031 42.90625 C 162.417969 45.761719 161.960938 48.796875 161.203125 51.773438 C 163.105469 52.625 164.480469 55.058594 164.871094 56.96875 C 165.546875 60.335938 162.613281 64.429688 161.421875 67.382812 C 161.414062 67.402344 161.394531 67.421875 161.386719 67.4375 C 165.203125 84.992188 175.367188 127.945312 153.035156 124.59375 C 151.082031 124.300781 149.53125 123.695312 148.296875 122.855469 C 137.996094 119.753906 131.15625 108.605469 118.074219 86.167969 C 110.703125 73.535156 105.492188 62.636719 102.140625 55.132812 C 108.246094 54.613281 113.285156 55.027344 116.871094 55.539062 "/>
<path style=" stroke:none;fill-rule:nonzero;fill:rgb(96.859741%,60.389709%,56.858826%);fill-opacity:1;" d="M 83.695312 25.324219 C 82.285156 27.632812 83.503906 30.050781 83.664062 30.378906 C 84.621094 32.207031 86.335938 32.84375 86.800781 33.011719 C 88.773438 33.714844 90.484375 33.132812 90.933594 32.949219 C 91.03125 33.351562 91.1875 33.949219 91.398438 34.644531 C 92.230469 37.289062 92.871094 39.246094 94.273438 41.046875 C 97.570312 45.230469 103.449219 45.378906 103.855469 45.394531 C 111.9375 45.789062 118.875 39.261719 119.289062 30.886719 C 119.253906 29.199219 119.203125 27.519531 119.167969 25.832031 C 119.167969 24.570312 119.0625 19.039062 114.742188 14.617188 C 113.757812 13.609375 110.601562 10.480469 105.582031 10.113281 C 100.007812 9.730469 96.132812 13 94.996094 14.082031 C 91.042969 17.796875 90.484375 22.464844 90.375 23.679688 C 89.933594 23.417969 89.09375 23.015625 87.996094 22.996094 C 86.386719 22.945312 84.640625 23.753906 83.695312 25.324219 "/>
<path style=" stroke:none;fill-rule:nonzero;fill:rgb(96.859741%,60.389709%,56.858826%);fill-opacity:1;" d="M 81.917969 56.753906 C 86.441406 55.722656 91.476562 55.277344 96.796875 55.523438 L 96.460938 34.277344 L 107.367188 34.105469 L 107.703125 55.347656 C 108.8125 55.183594 114.433594 54.421875 121.042969 56.367188 C 124.605469 73.050781 122.292969 89.820312 120.339844 106.585938 C 115.675781 108.800781 110.625 110.160156 105.398438 110.496094 C 96.75 111.046875 88.246094 108.785156 80.898438 104.308594 C 79.257812 88.480469 81.378906 72.609375 81.917969 56.753906 "/>
<path style=" stroke:none;fill-rule:nonzero;fill:rgb(15.689087%,25.099182%,49.409485%);fill-opacity:1;" d="M 109.207031 45.277344 C 106.34375 45.921875 103.402344 45.578125 100.761719 44.285156 C 100.527344 44.179688 100.695312 43.8125 100.917969 43.933594 C 103.488281 45.203125 106.363281 45.53125 109.160156 44.902344 C 109.410156 44.828125 109.4375 45.21875 109.207031 45.277344 "/>
<path style=" stroke:none;fill-rule:nonzero;fill:rgb(15.689087%,25.099182%,49.409485%);fill-opacity:1;" d="M 105.980469 38.183594 C 104.425781 38.089844 103.039062 37.351562 102.113281 36.101562 C 101.921875 35.851562 102.296875 35.542969 102.484375 35.785156 C 103.34375 36.941406 104.574219 37.621094 106.015625 37.703125 C 106.324219 37.722656 106.292969 38.203125 105.980469 38.183594 "/>
<path style=" stroke:none;fill-rule:nonzero;fill:rgb(15.689087%,25.099182%,49.409485%);fill-opacity:1;" d="M 101.117188 17.285156 C 100.402344 18.617188 99.128906 20.609375 96.996094 22.5 C 94.894531 24.371094 92.796875 25.390625 91.398438 25.953125 C 91.15625 26.679688 90.921875 27.417969 90.679688 28.15625 C 90.445312 28.894531 90.214844 29.632812 89.980469 30.367188 C 89.621094 29.511719 89.179688 28.230469 88.882812 26.65625 C 88.882812 26.65625 88.875 26.566406 88.84375 26.433594 C 88.765625 26.472656 88.667969 26.472656 88.601562 26.402344 C 87.8125 25.625 86.402344 25.863281 85.882812 26.847656 C 85.746094 27.09375 85.375 26.863281 85.496094 26.605469 C 86.121094 25.417969 87.761719 25.152344 88.773438 25.976562 C 88.707031 25.410156 88.621094 24.515625 88.613281 23.410156 C 88.574219 20.460938 89.179688 17.832031 89.699219 16.4375 C 91.445312 11.777344 97.367188 8.308594 103.066406 7.804688 C 103.828125 7.726562 113.277344 7.070312 118.105469 14.359375 C 121.019531 18.757812 120.546875 23.476562 120.339844 24.9375 C 117.492188 24.273438 114.238281 23.328125 110.742188 21.949219 C 107 20.484375 103.78125 18.839844 101.117188 17.285156 "/>
<path style=" stroke:none;fill-rule:nonzero;fill:rgb(15.689087%,25.099182%,49.409485%);fill-opacity:1;" d="M 107.878906 31.949219 C 108.136719 32.996094 108.386719 34.035156 108.648438 35.074219 C 108.648438 35.082031 108.636719 35.082031 108.636719 35.113281 C 108.636719 35.164062 108.628906 35.203125 108.628906 35.21875 C 108.621094 35.226562 108.621094 35.226562 108.621094 35.25 C 108.578125 35.296875 108.519531 35.335938 108.433594 35.335938 C 107.722656 35.277344 107.039062 35.152344 106.351562 34.980469 C 106.082031 34.914062 106.207031 34.480469 106.496094 34.5625 C 107.046875 34.699219 107.605469 34.804688 108.167969 34.875 C 107.941406 33.941406 107.710938 32.996094 107.46875 32.054688 C 107.375 31.773438 107.796875 31.667969 107.878906 31.949219 "/>
<path style=" stroke:none;fill-rule:nonzero;fill:rgb(100%,100%,100%);fill-opacity:1;" d="M 98.847656 32.46875 C 100.132812 33.695312 102.167969 33.648438 103.394531 32.363281 C 104.621094 31.078125 104.574219 29.046875 103.289062 27.820312 C 102.003906 26.597656 99.964844 26.644531 98.738281 27.929688 C 97.515625 29.214844 97.5625 31.246094 98.847656 32.46875 Z M 111.027344 28.238281 C 112.253906 26.957031 114.289062 26.90625 115.574219 28.128906 C 116.859375 29.355469 116.90625 31.382812 115.679688 32.667969 C 114.457031 33.953125 112.417969 34 111.136719 32.777344 C 109.851562 31.554688 109.800781 29.519531 111.027344 28.238281 "/>
<path style=" stroke:none;fill-rule:nonzero;fill:rgb(15.689087%,25.099182%,49.409485%);fill-opacity:1;" d="M 102.445312 28.289062 C 101.992188 28.175781 101.695312 29.03125 101.769531 30.207031 C 101.847656 31.375 102.277344 32.414062 102.730469 32.527344 C 103.175781 32.640625 103.476562 31.78125 103.398438 30.613281 C 103.320312 29.441406 102.894531 28.398438 102.445312 28.289062 Z M 114.417969 29.992188 C 114.363281 28.816406 114.679688 27.96875 115.128906 28.085938 C 115.574219 28.210938 115.984375 29.261719 116.035156 30.433594 C 116.089844 31.601562 115.773438 32.453125 115.328125 32.335938 C 114.875 32.214844 114.46875 31.160156 114.417969 29.992188 "/>
<path style=" stroke:none;fill-rule:nonzero;fill:rgb(96.859741%,60.389709%,56.858826%);fill-opacity:1;" d="M 49.539062 186.847656 C 49.925781 186.957031 50.492188 186.730469 50.601562 186.6875 C 52.152344 186.0625 52.613281 184.117188 52.699219 183.683594 C 52.535156 186.113281 53.667969 188.035156 54.847656 188.273438 C 56.179688 188.539062 58.339844 186.796875 58.652344 183.691406 C 58.828125 185.671875 59.929688 187.238281 61.402344 187.660156 C 61.65625 187.730469 62.457031 187.960938 63.199219 187.597656 C 64.679688 186.878906 64.753906 184.398438 64.941406 181.507812 C 65.390625 174.742188 66.101562 171.753906 66.148438 171.753906 C 66.226562 171.757812 65.058594 179.070312 67.320312 180.039062 C 67.933594 180.304688 68.597656 180.011719 68.855469 179.894531 C 71.316406 178.804688 71.679688 174.484375 71.796875 173.371094 C 72.347656 168.015625 79.246094 121.300781 88.847656 56.488281 C 87.613281 56.464844 67.339844 56.363281 61.066406 69.128906 C 60.28125 70.71875 59.585938 72.773438 59.355469 75.359375 C 59.339844 75.359375 59.332031 75.375 59.320312 75.375 C 55.738281 108.722656 52.152344 142.082031 48.570312 175.445312 C 48.570312 175.445312 47.433594 186.28125 49.539062 186.847656 "/>
<path style=" stroke:none;fill-rule:nonzero;fill:rgb(15.689087%,25.099182%,49.409485%);fill-opacity:1;" d="M 53.363281 177.992188 C 52.78125 180.257812 52.304688 182.890625 52.933594 185.203125 C 53.199219 186.171875 54.4375 188.59375 55.734375 187.589844 C 57.828125 186.957031 58.765625 185.082031 59.257812 183.023438 C 59.285156 183.882812 59.375 184.753906 59.734375 185.539062 C 60.445312 187.09375 62.191406 187.929688 63.703125 186.914062 C 65.707031 185.570312 65.644531 182.445312 65.769531 180.335938 C 65.953125 177.226562 66.304688 174.132812 66.832031 171.0625 C 66.878906 170.796875 66.464844 170.722656 66.417969 170.988281 C 66.023438 173.3125 65.714844 175.648438 65.515625 177.996094 C 65.339844 180.066406 65.417969 182.230469 64.886719 184.25 C 64.550781 185.515625 63.699219 187 62.199219 186.945312 C 60.871094 186.902344 60.09375 185.644531 59.84375 184.476562 C 59.609375 183.386719 59.578125 182.21875 59.621094 181.054688 C 59.710938 180.414062 59.785156 179.800781 59.859375 179.226562 C 59.894531 178.960938 59.480469 178.886719 59.441406 179.15625 C 59.058594 182.082031 58.84375 186.628906 55.179688 187.316406 C 55.117188 187.328125 55.070312 187.363281 55.042969 187.40625 C 54.25 187.363281 53.527344 185.699219 53.386719 185.253906 C 53.183594 184.578125 53.109375 183.867188 53.09375 183.164062 C 53.070312 181.464844 53.339844 179.761719 53.757812 178.117188 C 53.828125 177.855469 53.425781 177.730469 53.363281 177.992188 "/>
<path style=" stroke:none;fill-rule:nonzero;fill:rgb(15.689087%,25.099182%,49.409485%);fill-opacity:1;" d="M 157.175781 61.039062 C 157.34375 59.519531 158.1875 58.148438 159 56.886719 C 159.195312 56.574219 159.699219 56.863281 159.496094 57.179688 C 158.910156 58.097656 158.324219 59.03125 157.988281 60.070312 C 157.71875 60.902344 157.375 63.972656 159.230469 62.921875 C 160.824219 62.023438 162.0625 60.253906 162.886719 58.671875 C 163.058594 58.34375 163.558594 58.636719 163.386719 58.964844 C 162.703125 60.265625 161.835938 61.449219 160.753906 62.445312 C 160.136719 63.011719 159.070312 64.054688 158.113281 63.710938 C 157.128906 63.363281 157.078125 61.878906 157.175781 61.039062 "/>
<path style=" stroke:none;fill-rule:nonzero;fill:rgb(15.689087%,25.099182%,49.409485%);fill-opacity:1;" d="M 150.863281 41.761719 C 151 40.625 151.75 39.359375 153.074219 39.824219 C 154.59375 40.359375 155.367188 42.433594 155.726562 43.839844 C 156.082031 45.21875 156.269531 46.652344 156.429688 48.085938 C 156.589844 47.3125 156.746094 46.535156 156.90625 45.761719 C 156.917969 45.722656 156.941406 45.710938 156.960938 45.683594 C 157.183594 44.410156 157.527344 43.121094 158.332031 42.101562 C 159.019531 41.242188 160.3125 40.3125 161.410156 41.023438 C 162.621094 41.804688 162.429688 43.824219 162.394531 45.03125 C 162.324219 47.324219 161.925781 49.582031 161.265625 51.78125 C 161.15625 52.132812 160.601562 51.980469 160.703125 51.628906 C 161.507812 48.949219 162.113281 45.914062 161.789062 43.105469 C 161.628906 41.703125 160.570312 40.867188 159.277344 41.941406 C 158.714844 42.40625 158.328125 43.089844 158.0625 43.757812 C 157.65625 44.773438 157.5 45.875 157.347656 46.949219 C 157.335938 47.050781 157.28125 47.101562 157.214844 47.132812 C 157.050781 47.9375 156.886719 48.746094 156.71875 49.546875 C 156.707031 49.621094 156.65625 49.65625 156.617188 49.691406 C 156.65625 50.0625 156.699219 50.429688 156.746094 50.796875 C 156.792969 51.164062 156.214844 51.160156 156.167969 50.796875 C 155.800781 47.960938 155.875 44.34375 154.316406 41.84375 C 154.128906 41.539062 153.882812 41.089844 153.574219 40.886719 C 153.304688 40.519531 152.929688 40.582031 152.457031 41.070312 C 151.699219 41.011719 151.359375 41.28125 151.449219 41.878906 C 151.21875 42.71875 151.363281 43.769531 151.371094 44.640625 C 151.378906 46.359375 151.464844 48.078125 151.605469 49.792969 C 151.636719 50.160156 151.058594 50.160156 151.027344 49.792969 C 150.808594 47.1875 150.546875 44.367188 150.863281 41.761719 "/>
<path style=" stroke:none;fill-rule:nonzero;fill:rgb(15.689087%,25.099182%,49.409485%);fill-opacity:1;" d="M 150.648438 55.183594 C 150.414062 55.476562 150.007812 55.066406 150.242188 54.777344 C 151.0625 53.75 152.175781 52.496094 153.625 52.570312 C 154.8125 52.632812 155.640625 53.625 155.875 54.71875 C 156.191406 56.179688 155.40625 57.585938 154.636719 58.757812 C 153.53125 60.445312 152.222656 61.996094 150.808594 63.429688 C 150.546875 63.695312 150.140625 63.285156 150.398438 63.023438 C 151.980469 61.417969 153.570312 59.636719 154.648438 57.648438 C 155.289062 56.472656 155.824219 54.785156 154.726562 53.679688 C 153.242188 52.1875 151.527344 54.09375 150.648438 55.183594 "/>
<path style=" stroke:none;fill-rule:nonzero;fill:rgb(69.018555%,90.589905%,88.238525%);fill-opacity:1;" d="M 122.765625 149.328125 L 75.40625 149.328125 C 77.316406 133.691406 79.226562 118.0625 81.136719 102.429688 C 72.730469 100.902344 64.332031 99.378906 55.929688 97.851562 C 55.882812 95.558594 55.910156 92.257812 56.3125 88.320312 C 56.710938 84.382812 57.757812 74.035156 61.273438 67.730469 C 70.625 50.972656 102.527344 53.570312 107.867188 54.003906 C 116.328125 54.695312 123.863281 55.414062 130.78125 61.25 C 139.976562 69.003906 141.519531 80.246094 141.859375 83.746094 C 136.507812 89.082031 131.167969 94.421875 125.816406 99.761719 C 128.109375 116.285156 130.402344 132.804688 132.695312 149.328125 C 129.382812 149.328125 126.070312 149.328125 122.765625 149.328125 "/>
<path style=" stroke:none;fill-rule:nonzero;fill:rgb(15.689087%,25.099182%,49.409485%);fill-opacity:1;" d="M 124.464844 75.714844 C 124.433594 75.351562 123.863281 75.347656 123.894531 75.714844 C 124.6875 84.863281 125.347656 94.027344 125.871094 103.195312 C 125.890625 103.558594 126.464844 103.5625 126.441406 103.195312 C 125.921875 94.027344 125.261719 84.863281 124.464844 75.714844 "/>
<path style=" stroke:none;fill-rule:nonzero;fill:rgb(15.689087%,25.099182%,49.409485%);fill-opacity:1;" d="M 125.449219 149.707031 L 124.308594 170.007812 C 124.300781 170.207031 124.746094 170.230469 124.757812 170.03125 L 125.90625 149.726562 C 125.917969 149.527344 125.464844 149.507812 125.449219 149.707031 "/>
<path style=" stroke:none;fill-rule:nonzero;fill:rgb(15.689087%,25.099182%,49.409485%);fill-opacity:1;" d="M 123.945312 170.089844 C 122.027344 170.390625 120.105469 170.417969 118.167969 170.164062 L 119.277344 150.851562 L 118.828125 150.851562 L 111.535156 276.957031 C 111.691406 276.9375 111.839844 276.910156 111.992188 276.898438 L 118.152344 170.460938 C 120.128906 170.714844 122.097656 170.691406 124.046875 170.382812 C 124.332031 170.339844 124.226562 170.042969 123.945312 170.089844 "/>
<path style=" stroke:none;fill-rule:nonzero;fill:rgb(15.689087%,25.099182%,49.409485%);fill-opacity:1;" d="M 85.050781 83.289062 L 81.300781 102.363281 C 81.226562 102.722656 81.78125 102.878906 81.851562 102.515625 C 83.105469 96.160156 84.351562 89.800781 85.601562 83.441406 C 85.671875 83.078125 85.121094 82.925781 85.050781 83.289062 "/>
<path style=" stroke:none;fill-rule:nonzero;fill:rgb(15.689087%,25.099182%,49.409485%);fill-opacity:1;" d="M 287.972656 10.09375 C 282.777344 8.65625 280.734375 6.535156 278.324219 4.746094 C 279.019531 5.035156 279.730469 5.332031 280.421875 5.664062 C 283.765625 7.253906 287.027344 8.929688 290.667969 9.6875 C 293.816406 10.347656 296.996094 10.539062 300.207031 10.636719 C 295.738281 10.886719 292.832031 11.4375 287.972656 10.09375 Z M 257.171875 51.84375 C 249.070312 46.980469 245.117188 37.679688 245.453125 28.476562 C 245.453125 28.316406 245.472656 28.144531 245.476562 27.996094 C 245.535156 28.316406 245.578125 28.613281 245.621094 28.886719 C 245.621094 28.886719 247.550781 39.992188 258 49.28125 C 260.394531 51.410156 263.199219 53.15625 266.332031 54.546875 C 263.132812 54.339844 260.042969 53.566406 257.171875 51.84375 Z M 322.378906 26.679688 C 322.3125 22.167969 322.242188 17.664062 322.15625 13.160156 C 320.296875 12.660156 317.523438 11.996094 314.066406 11.449219 C 310.105469 10.480469 305.90625 10.359375 301.828125 10.242188 C 298.578125 10.152344 295.328125 10.050781 292.132812 9.507812 C 288.199219 8.839844 284.742188 7.226562 281.183594 5.519531 C 279.722656 4.808594 278.242188 4.214844 276.746094 3.664062 C 275.246094 2.777344 273.4375 2.039062 270.703125 1.648438 C 268.402344 1.300781 261.113281 0.351562 254.5 4.875 C 249.152344 8.53125 247.171875 13.742188 246.488281 15.667969 C 245.070312 19.613281 244.984375 23.1875 245.21875 25.828125 C 244.613281 30.902344 245.105469 36.054688 247.148438 40.808594 C 248.945312 44.984375 251.859375 48.722656 255.589844 51.335938 C 259.183594 53.875 263.269531 55.007812 267.589844 55.046875 C 280.824219 60.339844 299.492188 59.269531 318.316406 51.539062 C 319.269531 48.5625 320.164062 45.113281 320.828125 41.28125 C 321.664062 36.523438 321.964844 32.230469 321.996094 28.550781 C 319.859375 27.644531 317.316406 26.753906 314.417969 26.085938 C 308.277344 24.667969 302.882812 24.8125 299.027344 25.261719 C 302.164062 24.375 307.28125 23.382812 313.476562 24.234375 C 317.105469 24.734375 320.128906 25.726562 322.378906 26.679688 "/>
<g clip-path="url(#clip3)" clip-rule="nonzero">
<path style=" stroke:none;fill-rule:nonzero;fill:rgb(96.859741%,60.389709%,56.858826%);fill-opacity:1;" d="M 345.945312 31.960938 C 348.03125 28.96875 351.238281 23.929688 349.636719 21.214844 C 349.511719 21.007812 349.136719 20.367188 348.476562 20.230469 C 346.089844 19.71875 342.839844 26.308594 342.769531 26.273438 C 342.726562 26.25 343.855469 23.425781 347.375 17.675781 C 348.878906 15.242188 350.238281 13.179688 349.457031 11.742188 C 349.058594 11.035156 348.273438 10.757812 348.03125 10.671875 C 346.59375 10.171875 344.820312 10.804688 343.515625 12.308594 C 345.050781 9.617188 344.289062 6.96875 343.0625 6.414062 C 341.96875 5.933594 339.957031 6.859375 338.691406 8.898438 C 338.777344 7.996094 338.773438 6.792969 338.125 6.414062 C 337.195312 5.878906 335.421875 7.355469 334.765625 7.90625 C 329.230469 12.539062 314.824219 35.304688 305.632812 42.988281 C 300.777344 47.050781 292.125 51.292969 275.75 49.703125 C 275.128906 59.035156 274.507812 68.363281 273.886719 77.695312 C 281.96875 77.488281 298.421875 75.929688 315.339844 65.566406 C 315.339844 65.566406 327.804688 57.933594 345.945312 31.960938 "/>
</g>
<g clip-path="url(#clip4)" clip-rule="nonzero">
<path style=" stroke:none;fill-rule:nonzero;fill:rgb(15.689087%,25.099182%,49.409485%);fill-opacity:1;" d="M 341.441406 6.316406 C 342.644531 6.128906 343.816406 6.953125 344.324219 8.007812 C 344.820312 9.058594 344.707031 10.195312 344.363281 11.265625 C 345.082031 10.496094 345.945312 9.902344 347.074219 9.914062 C 349.949219 9.941406 351.117188 13.226562 349.390625 15.300781 C 349.144531 15.578125 348.722656 15.195312 348.964844 14.914062 C 350.164062 13.472656 349.789062 11.292969 347.929688 10.652344 C 346.304688 10.09375 345.085938 11.171875 344.160156 12.382812 C 342.640625 14.394531 341.21875 16.507812 339.765625 18.5625 C 339.542969 18.863281 339.132812 18.46875 339.339844 18.175781 C 340.699219 16.261719 342.039062 14.332031 343.421875 12.425781 C 343.382812 12.355469 343.351562 12.269531 343.40625 12.164062 C 344.066406 10.707031 344.582031 8.75 343.242188 7.496094 C 341.570312 5.921875 340.117188 7.761719 339.078125 9.007812 C 337.085938 11.417969 335.210938 13.929688 333.4375 16.511719 C 333.238281 16.8125 332.714844 16.550781 332.925781 16.257812 C 334.304688 14.238281 335.742188 12.273438 337.25 10.359375 C 338.261719 9.101562 339.644531 6.597656 341.441406 6.316406 Z M 346.769531 20.078125 C 347.9375 19.554688 349.59375 19.734375 350.226562 21 C 350.964844 22.476562 349.898438 24.808594 349.382812 26.214844 C 348.503906 28.636719 347.257812 30.875 345.710938 32.941406 C 345.488281 33.238281 345.074219 32.84375 345.292969 32.554688 C 347.351562 29.777344 349.011719 26.519531 349.703125 23.109375 C 349.875 22.296875 349.902344 22.035156 349.464844 21.289062 C 348.972656 20.460938 348.304688 20.195312 347.363281 20.472656 C 346.398438 20.75 345.675781 21.601562 345.113281 22.371094 C 344.144531 23.65625 343.242188 25.003906 342.328125 26.324219 C 342.109375 26.628906 341.699219 26.234375 341.90625 25.9375 C 342.683594 24.824219 343.457031 23.714844 344.246094 22.605469 C 344.933594 21.636719 345.65625 20.582031 346.769531 20.078125 "/>
</g>
<path style=" stroke:none;fill-rule:nonzero;fill:rgb(96.859741%,60.389709%,56.858826%);fill-opacity:1;" d="M 181.136719 25.140625 C 179.582031 21.957031 177.277344 16.632812 179.351562 14.152344 C 179.511719 13.964844 179.996094 13.382812 180.679688 13.320312 C 183.144531 13.097656 185.21875 19.957031 185.300781 19.929688 C 185.34375 19.914062 184.714844 17.007812 182.222656 10.945312 C 181.152344 8.378906 180.164062 6.191406 181.195312 4.878906 C 181.71875 4.230469 182.546875 4.050781 182.800781 3.992188 C 184.324219 3.671875 185.976562 4.496094 187.011719 6.132812 C 185.949219 3.304688 187.175781 0.789062 188.5 0.402344 C 189.667969 0.0546875 191.511719 1.199219 192.414062 3.355469 C 192.480469 2.457031 192.703125 1.273438 193.414062 0.980469 C 194.433594 0.558594 195.9375 2.226562 196.496094 2.84375 C 201.195312 8.039062 211.539062 32.089844 219.339844 40.714844 C 223.460938 45.273438 231.332031 50.464844 247.910156 50.832031 C 246.890625 60.066406 245.871094 69.300781 244.851562 78.535156 C 236.839844 77.378906 220.730469 73.914062 205.699219 61.742188 C 205.699219 61.742188 194.632812 52.78125 181.136719 25.140625 "/>
<path style=" stroke:none;fill-rule:nonzero;fill:rgb(15.689087%,25.099182%,49.409485%);fill-opacity:1;" d="M 190.132812 0.488281 C 188.960938 0.164062 187.648438 0.839844 186.960938 1.8125 C 186.285156 2.785156 186.195312 3.917969 186.347656 5.007812 C 185.765625 4.167969 185.015625 3.484375 183.890625 3.363281 C 181.019531 3.046875 179.273438 6.136719 180.636719 8.375 C 180.828125 8.675781 181.316406 8.347656 181.121094 8.046875 C 180.1875 6.488281 180.9375 4.394531 182.90625 3.988281 C 184.625 3.628906 185.640625 4.828125 186.355469 6.132812 C 187.519531 8.277344 188.558594 10.523438 189.644531 12.714844 C 189.808594 13.035156 190.289062 12.695312 190.136719 12.382812 C 189.121094 10.34375 188.121094 8.292969 187.082031 6.253906 C 187.136719 6.191406 187.175781 6.109375 187.144531 6 C 186.738281 4.496094 186.566406 2.511719 188.125 1.4375 C 190.066406 0.0859375 191.195312 2.066406 192.007812 3.414062 C 193.574219 6.019531 194.996094 8.699219 196.304688 11.445312 C 196.453125 11.765625 197.011719 11.566406 196.859375 11.257812 C 195.839844 9.109375 194.757812 7.011719 193.589844 4.953125 C 192.800781 3.597656 191.871094 0.984375 190.132812 0.488281 Z M 182.40625 13.378906 C 181.332031 12.722656 179.652344 12.707031 178.796875 13.875 C 177.800781 15.238281 178.457031 17.652344 178.722656 19.097656 C 179.171875 21.570312 180.019531 23.921875 181.191406 26.128906 C 181.363281 26.449219 181.84375 26.113281 181.683594 25.800781 C 180.121094 22.832031 179.035156 19.4375 178.945312 16.011719 C 178.925781 15.191406 178.941406 14.925781 179.507812 14.246094 C 180.140625 13.488281 180.855469 13.3125 181.738281 13.695312 C 182.652344 14.078125 183.222656 15 183.652344 15.828125 C 184.386719 17.203125 185.046875 18.632812 185.726562 20.03125 C 185.890625 20.355469 186.371094 20.019531 186.214844 19.703125 C 185.640625 18.519531 185.0625 17.335938 184.472656 16.152344 C 183.953125 15.125 183.421875 14 182.40625 13.378906 "/>
<path style=" stroke:none;fill-rule:nonzero;fill:rgb(96.859741%,60.389709%,56.858826%);fill-opacity:1;" d="M 279.324219 269.882812 C 291.726562 287.476562 304.128906 305.058594 316.539062 322.660156 C 312.164062 326.453125 307.765625 330.265625 303.378906 334.050781 C 290.238281 320.515625 277.105469 306.988281 263.957031 293.464844 C 269.078125 285.597656 274.191406 277.742188 279.324219 269.882812 "/>
<path style=" stroke:none;fill-rule:nonzero;fill:rgb(96.859741%,60.389709%,56.858826%);fill-opacity:1;" d="M 258.570312 280.726562 C 256.8125 301.933594 255.035156 323.152344 253.28125 344.347656 C 247.441406 344.660156 241.59375 344.960938 235.753906 345.28125 C 234.40625 326.148438 233.070312 306.976562 231.722656 287.847656 C 240.660156 285.472656 249.625 283.097656 258.570312 280.726562 "/>
<path style=" stroke:none;fill-rule:nonzero;fill:rgb(73.728943%,90.19928%,88.62915%);fill-opacity:1;" d="M 318.359375 301.894531 C 284.628906 301.941406 250.890625 301.992188 217.167969 302.050781 C 218.984375 254.742188 223.519531 204.75 231.722656 152.46875 C 233.976562 138.023438 236.457031 123.816406 239.148438 109.882812 C 245.304688 110.121094 252.058594 110.183594 259.308594 109.882812 C 267.644531 109.550781 275.296875 108.832031 282.160156 107.925781 C 290.421875 134.371094 296.308594 157.128906 300.449219 174.824219 C 305.058594 194.527344 309.746094 214.757812 318.359375 301.894531 "/>
<path style=" stroke:none;fill-rule:nonzero;fill:rgb(96.859741%,60.389709%,56.858826%);fill-opacity:1;" d="M 284.546875 29.875 C 284.8125 32.554688 282.667969 34.214844 282.371094 34.441406 C 280.703125 35.671875 278.894531 35.5 278.398438 35.449219 C 276.3125 35.214844 275.039062 33.949219 274.710938 33.59375 C 274.453125 33.917969 274.054688 34.386719 273.554688 34.914062 C 271.652344 36.933594 270.214844 38.414062 268.179688 39.429688 C 263.394531 41.769531 258.023438 39.351562 257.648438 39.191406 C 250.203125 36.039062 246.796875 27.136719 250.070312 19.414062 C 250.835938 17.917969 251.617188 16.414062 252.382812 14.917969 C 252.925781 13.789062 255.441406 8.84375 261.246094 6.738281 C 262.566406 6.253906 266.769531 4.816406 271.453125 6.660156 C 276.636719 8.730469 278.703125 13.363281 279.257812 14.828125 C 281.203125 19.886719 279.671875 24.339844 279.230469 25.480469 C 279.746094 25.433594 280.667969 25.441406 281.679688 25.90625 C 283.152344 26.554688 284.367188 28.046875 284.546875 29.875 "/>
<path style=" stroke:none;fill-rule:nonzero;fill:rgb(96.859741%,60.389709%,56.858826%);fill-opacity:1;" d="M 254.042969 27.992188 L 264.941406 27.992188 C 264.941406 35.078125 264.941406 42.164062 264.941406 49.25 C 269.601562 49.578125 274.253906 49.910156 278.910156 50.238281 C 279.707031 61.238281 280.5 72.238281 281.296875 83.238281 C 278.941406 96.253906 268.078125 104.996094 257.222656 104.371094 C 245.425781 103.691406 239.082031 92.265625 238.722656 91.589844 C 238.851562 77.808594 238.984375 64.019531 239.117188 50.238281 C 244.09375 49.910156 249.066406 49.578125 254.042969 49.25 C 254.042969 42.15625 254.042969 35.078125 254.042969 27.992188 "/>
<path style=" stroke:none;fill-rule:nonzero;fill:rgb(100%,100%,78.039551%);fill-opacity:1;" d="M 239.132812 110.445312 C 237.175781 99.804688 235.816406 86.421875 236.816406 71.082031 C 237.320312 63.433594 238.332031 56.453125 239.589844 50.230469 C 240.675781 49.917969 242.035156 49.621094 243.597656 49.402344 C 244.996094 49.226562 246.238281 49.179688 247.296875 49.179688 C 251.117188 54.808594 254.960938 60.4375 258.785156 66.066406 C 263.214844 60.367188 267.632812 54.65625 272.0625 48.953125 C 273.394531 49.015625 274.816406 49.117188 276.355469 49.3125 C 277.742188 49.464844 279.03125 49.679688 280.210938 49.894531 C 281.574219 57.074219 282.683594 65.128906 283.265625 73.933594 C 283.605469 78.960938 283.648438 82.675781 283.660156 83.707031 C 283.746094 90.855469 283.367188 98.992188 282.160156 107.925781 C 278.148438 110.179688 269.753906 114.175781 258.488281 114.273438 C 249.878906 114.34375 243.105469 112.109375 239.132812 110.445312 "/>
<path style=" stroke:none;fill-rule:nonzero;fill:rgb(100%,100%,78.039551%);fill-opacity:1;" d="M 268.207031 24.816406 C 267.246094 23.492188 265.386719 23.199219 264.054688 24.148438 C 262.726562 25.109375 262.433594 26.964844 263.386719 28.292969 C 264.347656 29.621094 266.203125 29.914062 267.535156 28.964844 C 268.878906 27.996094 269.167969 26.152344 268.207031 24.816406 Z M 256.992188 22.28125 C 255.667969 23.242188 253.796875 22.945312 252.839844 21.609375 C 251.875 20.285156 252.175781 18.417969 253.507812 17.460938 C 254.847656 16.503906 256.703125 16.796875 257.664062 18.128906 C 258.609375 19.457031 258.316406 21.316406 256.992188 22.28125 "/>
<g clip-path="url(#clip5)" clip-rule="nonzero">
<path style=" stroke:none;fill-rule:nonzero;fill:rgb(15.689087%,25.099182%,49.409485%);fill-opacity:1;" d="M 300.339844 331.230469 C 304.953125 326.996094 309.570312 322.753906 314.195312 318.511719 C 321.652344 325.910156 329.125 333.316406 336.582031 340.699219 C 334.421875 342.804688 332.242188 344.898438 330.089844 347.007812 C 326.558594 343.785156 323.042969 340.546875 319.5 337.320312 C 319.894531 341.8125 319.921875 350.144531 315.265625 358.316406 C 308.203125 370.726562 294.019531 376.363281 292.261719 374.390625 C 290.527344 372.398438 302.492188 364.242188 303.929688 349.472656 C 304.636719 342.242188 302.574219 335.894531 300.339844 331.230469 "/>
</g>
<path style=" stroke:none;fill-rule:nonzero;fill:rgb(15.689087%,25.099182%,49.409485%);fill-opacity:1;" d="M 235.089844 343.109375 C 241.351562 343.027344 247.632812 342.953125 253.890625 342.871094 C 254.507812 353.347656 255.132812 363.84375 255.761719 374.339844 C 252.742188 374.460938 249.734375 374.578125 246.714844 374.722656 C 246.238281 369.972656 245.769531 365.203125 245.292969 360.453125 C 242.597656 364.066406 237.066406 370.28125 228.125 373.289062 C 214.574219 377.835938 200.226562 372.597656 200.265625 369.949219 C 200.289062 367.3125 214.648438 369.199219 225.570312 359.140625 C 230.941406 354.191406 233.640625 348.070312 235.089844 343.109375 "/>
<path style=" stroke:none;fill-rule:nonzero;fill:rgb(73.728943%,90.19928%,88.62915%);fill-opacity:1;" d="M 276.234375 33.585938 L 277.441406 34.195312 L 271.042969 46.910156 L 269.835938 46.300781 L 276.234375 33.585938 "/>
<path style=" stroke:none;fill-rule:nonzero;fill:rgb(100%,100%,78.039551%);fill-opacity:1;" d="M 233.285156 341.929688 C 235.160156 341.929688 236.671875 343.449219 236.671875 345.316406 C 236.671875 347.1875 235.160156 348.707031 233.285156 348.707031 C 231.410156 348.707031 229.890625 347.1875 229.890625 345.316406 C 229.890625 343.449219 231.410156 341.929688 233.285156 341.929688 "/>
<path style=" stroke:none;fill-rule:nonzero;fill:rgb(100%,100%,78.039551%);fill-opacity:1;" d="M 299.554688 330.890625 C 301.03125 329.738281 303.164062 329.996094 304.316406 331.476562 C 305.46875 332.949219 305.207031 335.074219 303.730469 336.230469 C 302.257812 337.382812 300.125 337.117188 298.96875 335.644531 C 297.820312 334.171875 298.082031 332.039062 299.554688 330.890625 "/>
<path style=" stroke:none;fill-rule:nonzero;fill:rgb(100%,100%,78.039551%);fill-opacity:1;" d="M 240.289062 343.574219 C 242.019531 343.574219 243.417969 344.972656 243.417969 346.703125 C 243.417969 348.425781 242.019531 349.824219 240.289062 349.824219 C 238.5625 349.824219 237.164062 348.425781 237.164062 346.703125 C 237.164062 344.972656 238.5625 343.574219 240.289062 343.574219 "/>
<path style=" stroke:none;fill-rule:nonzero;fill:rgb(100%,100%,78.039551%);fill-opacity:1;" d="M 305.46875 328.53125 C 306.601562 327.648438 308.238281 327.851562 309.121094 328.984375 C 310.003906 330.113281 309.804688 331.746094 308.671875 332.632812 C 307.539062 333.515625 305.902344 333.3125 305.019531 332.179688 C 304.136719 331.050781 304.335938 329.417969 305.46875 328.53125 "/>
<path style=" stroke:none;fill-rule:nonzero;fill:rgb(15.689087%,25.099182%,49.409485%);fill-opacity:1;" d="M 267.035156 115.847656 C 268.144531 120.378906 268.980469 124.960938 269.503906 129.589844 C 269.539062 129.875 269.980469 129.875 269.945312 129.589844 C 269.410156 124.925781 268.570312 120.296875 267.460938 115.730469 C 267.402344 115.441406 266.972656 115.558594 267.035156 115.847656 Z M 243.839844 117.097656 C 242.167969 123.066406 240.839844 129.125 239.894531 135.242188 C 239.851562 135.53125 240.289062 135.648438 240.328125 135.363281 C 241.269531 129.234375 242.574219 123.171875 244.269531 117.222656 C 244.339844 116.945312 243.910156 116.824219 243.839844 117.097656 Z M 274.566406 112.519531 C 276.429688 124.363281 278.289062 136.222656 280.152344 148.078125 C 280.203125 148.363281 280.640625 148.308594 280.597656 148.03125 C 278.734375 136.1875 276.867188 124.328125 275.007812 112.472656 C 274.960938 112.1875 274.515625 112.222656 274.566406 112.519531 Z M 281.601562 108.085938 C 277.980469 109.765625 274.335938 111.46875 270.457031 112.484375 C 266.898438 113.410156 263.1875 113.628906 259.523438 113.867188 C 259.425781 113.785156 259.28125 113.796875 259.199219 113.894531 C 252.625 114.296875 245.582031 114.164062 239.984375 110.265625 C 239.753906 110.109375 239.527344 110.480469 239.769531 110.648438 C 243.109375 112.972656 246.9375 113.964844 250.90625 114.320312 C 250.878906 114.34375 250.84375 114.371094 250.835938 114.417969 C 247.609375 127.75 245.210938 141.292969 243.648438 154.914062 C 243.613281 155.199219 244.0625 155.199219 244.089844 154.914062 C 245.652344 141.3125 248.050781 127.835938 251.261719 114.523438 C 251.285156 114.453125 251.261719 114.390625 251.214844 114.34375 C 253.863281 114.550781 256.550781 114.488281 259.179688 114.335938 C 260.015625 127.417969 260.644531 140.503906 261.113281 153.605469 C 261.125 153.886719 261.5625 153.886719 261.554688 153.605469 C 261.085938 140.492188 260.441406 127.402344 259.621094 114.308594 C 263.285156 114.082031 267.007812 113.855469 270.578125 112.914062 C 274.496094 111.886719 278.171875 110.183594 281.824219 108.472656 C 282.085938 108.347656 281.863281 107.960938 281.601562 108.085938 "/>
<path style=" stroke:none;fill-rule:nonzero;fill:rgb(15.689087%,25.099182%,49.409485%);fill-opacity:1;" d="M 258.03125 32.953125 C 256.328125 32.65625 256.214844 30.925781 256.679688 29.585938 C 257.988281 30.265625 259.367188 30.722656 260.832031 30.921875 C 260.886719 30.925781 260.925781 30.910156 260.960938 30.886719 C 260.503906 32.125 259.460938 33.207031 258.03125 32.953125 Z M 261.074219 30.578125 C 261.074219 30.578125 261.074219 30.578125 261.074219 30.582031 C 261.046875 30.542969 261.011719 30.511719 260.949219 30.503906 C 259.382812 30.289062 257.921875 29.804688 256.539062 29.027344 C 256.3125 28.902344 256.117188 29.21875 256.292969 29.371094 C 255.714844 30.921875 255.925781 32.929688 257.816406 33.363281 C 259.636719 33.773438 261.03125 32.308594 261.492188 30.691406 C 261.566406 30.421875 261.148438 30.304688 261.074219 30.578125 "/>
<path style=" stroke:none;fill-rule:nonzero;fill:rgb(15.689087%,25.099182%,49.409485%);fill-opacity:1;" d="M 264.679688 25.476562 C 263.96875 26.292969 263.550781 27.246094 263.753906 27.613281 C 263.953125 27.964844 264.714844 27.617188 265.457031 26.8125 C 266.183594 26.003906 266.585938 25.042969 266.382812 24.671875 C 266.183594 24.304688 265.402344 24.660156 264.679688 25.476562 "/>
<path style=" stroke:none;fill-rule:nonzero;fill:rgb(15.689087%,25.099182%,49.409485%);fill-opacity:1;" d="M 282.988281 19.261719 C 283.433594 14.304688 279.636719 8.605469 274.722656 5.683594 C 274.074219 5.296875 265.847656 0.585938 258.335938 5.050781 C 253.796875 7.753906 252.167969 12.207031 251.71875 13.609375 C 255.140625 15.972656 259.113281 18.488281 263.648438 20.898438 C 268.546875 23.503906 273.171875 25.519531 277.324219 27.074219 C 277.113281 28.609375 276.898438 30.144531 276.679688 31.675781 C 277.378906 31.050781 278.335938 30.105469 279.285156 28.804688 C 279.285156 28.804688 279.332031 28.734375 279.410156 28.625 C 279.460938 28.691406 279.546875 28.734375 279.644531 28.707031 C 280.703125 28.34375 281.847656 29.171875 281.886719 30.289062 C 281.902344 30.558594 282.34375 30.53125 282.339844 30.246094 C 282.292969 28.910156 280.9375 27.953125 279.664062 28.257812 C 279.976562 27.777344 280.441406 27.007812 280.929688 26.011719 C 282.242188 23.375 282.847656 20.742188 282.988281 19.261719 "/>
<path style=" stroke:none;fill-rule:nonzero;fill:rgb(15.689087%,25.099182%,49.409485%);fill-opacity:1;" d="M 259.960938 38.390625 C 257.089844 38.414062 254.363281 37.460938 252.121094 35.683594 C 251.9375 35.507812 251.742188 35.851562 251.914062 36.003906 C 254.21875 37.828125 257.011719 38.792969 259.941406 38.78125 C 260.1875 38.789062 260.207031 38.378906 259.960938 38.390625 "/>
<path style=" stroke:none;fill-rule:nonzero;fill:rgb(15.689087%,25.099182%,49.409485%);fill-opacity:1;" d="M 254.265625 18.960938 C 253.535156 19.769531 253.132812 20.730469 253.335938 21.097656 C 253.554688 21.460938 254.320312 21.113281 255.035156 20.292969 C 255.761719 19.488281 256.167969 18.527344 255.964844 18.160156 C 255.769531 17.804688 255 18.15625 254.265625 18.960938 "/>
<path style=" stroke:none;fill-rule:nonzero;fill:rgb(15.689087%,25.099182%,49.409485%);fill-opacity:1;" d="M 257.972656 23.964844 C 257.292969 24.796875 256.605469 25.625 255.925781 26.445312 C 255.921875 26.453125 255.929688 26.460938 255.921875 26.484375 C 255.898438 26.523438 255.894531 26.5625 255.882812 26.585938 C 255.886719 26.597656 255.886719 26.597656 255.882812 26.609375 C 255.894531 26.667969 255.929688 26.726562 256.003906 26.761719 C 256.664062 27.015625 257.34375 27.210938 258.035156 27.34375 C 258.316406 27.40625 258.382812 26.957031 258.097656 26.90625 C 257.539062 26.789062 257 26.648438 256.464844 26.460938 C 257.066406 25.710938 257.695312 24.96875 258.316406 24.214844 C 258.507812 24.015625 258.167969 23.738281 257.972656 23.964844 "/>
</g>
</svg>
