<?xml version="1.0" encoding="UTF-8"?>
<svg xmlns="http://www.w3.org/2000/svg" xmlns:xlink="http://www.w3.org/1999/xlink" width="375pt" height="374.999991pt" viewBox="0 0 375 374.999991" version="1.2">
<defs>
<clipPath id="clip1">
  <path d="M 0.585938 264.695312 L 374.445312 264.695312 L 374.445312 282.050781 L 0.585938 282.050781 Z M 0.585938 264.695312 "/>
</clipPath>
</defs>
<g id="surface1">
<path style=" stroke:none;fill-rule:nonzero;fill:rgb(16.859436%,20.388794%,14.509583%);fill-opacity:1;" d="M 227.109375 213.285156 L 228.328125 200.085938 C 228.953125 193.300781 231.667969 186.863281 236.113281 181.628906 C 241.054688 175.8125 243.695312 168.472656 243.667969 160.902344 C 243.648438 155.957031 244.175781 149.578125 246.09375 142.378906 C 248.546875 133.195312 256.050781 126.128906 265.484375 124.023438 L 270.527344 122.898438 C 280.136719 120.75 290.183594 124.320312 296.023438 132.105469 C 301.164062 138.957031 305.917969 148.820312 306 161.929688 C 306.179688 190.644531 302.132812 203.792969 302.132812 203.792969 L 265.582031 230.582031 L 221.121094 233.957031 L 227.109375 213.285156 "/>
<path style=" stroke:none;fill-rule:nonzero;fill:rgb(36.468506%,32.548523%,25.099182%);fill-opacity:1;" d="M 254.3125 192.09375 C 254.3125 192.09375 260.117188 189.136719 260.734375 175.167969 L 278.640625 175.167969 L 277.265625 186.152344 L 278.183594 224.742188 L 242.058594 227.898438 L 254.3125 192.09375 "/>
<path style=" stroke:none;fill-rule:nonzero;fill:rgb(36.468506%,32.548523%,25.099182%);fill-opacity:1;" d="M 264.09375 178.890625 C 273.242188 180.691406 282.144531 174.875 283.976562 165.894531 L 286.40625 153.984375 C 288.238281 145.003906 282.308594 136.269531 273.164062 134.472656 C 264.015625 132.671875 255.113281 138.488281 253.28125 147.46875 L 250.851562 159.378906 C 249.019531 168.355469 254.949219 177.09375 264.09375 178.890625 "/>
<path style=" stroke:none;fill-rule:nonzero;fill:rgb(36.468506%,32.548523%,25.099182%);fill-opacity:1;" d="M 294.382812 158.609375 C 294.570312 162.882812 291.195312 166.492188 286.84375 166.679688 C 282.492188 166.863281 278.8125 163.546875 278.628906 159.273438 C 278.441406 155.003906 281.816406 151.394531 286.167969 151.210938 C 290.519531 151.023438 294.199219 154.339844 294.382812 158.609375 "/>
<path style=" stroke:none;fill-rule:nonzero;fill:rgb(16.859436%,20.388794%,14.509583%);fill-opacity:1;" d="M 261.179688 161.121094 C 261.144531 161.121094 261.113281 161.121094 261.082031 161.113281 L 255.511719 160.148438 L 260.664062 148.648438 C 260.789062 148.367188 261.121094 148.242188 261.402344 148.367188 C 261.691406 148.488281 261.816406 148.8125 261.695312 149.09375 L 257.121094 159.300781 L 261.277344 160.027344 C 261.582031 160.078125 261.789062 160.371094 261.730469 160.667969 C 261.683594 160.933594 261.445312 161.121094 261.179688 161.121094 "/>
<path style=" stroke:none;fill-rule:nonzero;fill:rgb(16.859436%,20.388794%,14.509583%);fill-opacity:1;" d="M 257.640625 168.117188 C 257.449219 168.117188 257.25 168.105469 257.050781 168.089844 C 256.738281 168.0625 256.507812 167.792969 256.539062 167.492188 C 256.566406 167.1875 256.835938 166.960938 257.148438 166.988281 C 260.109375 167.246094 261.582031 165.121094 262.136719 164.039062 L 256.28125 163.09375 L 257.785156 159.84375 C 257.914062 159.5625 258.246094 159.441406 258.527344 159.566406 C 258.8125 159.691406 258.933594 160.019531 258.808594 160.296875 L 257.914062 162.234375 L 263.683594 163.167969 L 263.476562 163.785156 C 263.460938 163.828125 261.9375 168.117188 257.640625 168.117188 "/>
<path style=" stroke:none;fill-rule:nonzero;fill:rgb(16.859436%,20.388794%,14.509583%);fill-opacity:1;" d="M 283.660156 161.472656 C 283.585938 161.472656 283.511719 161.460938 283.441406 161.429688 C 283.15625 161.3125 283.019531 160.992188 283.140625 160.707031 C 284.8125 156.78125 289.730469 156.058594 289.9375 156.03125 C 290.238281 155.992188 290.53125 156.195312 290.574219 156.5 C 290.617188 156.800781 290.40625 157.078125 290.097656 157.125 C 290.050781 157.132812 285.597656 157.796875 284.179688 161.132812 C 284.085938 161.34375 283.878906 161.472656 283.660156 161.472656 "/>
<path style=" stroke:none;fill-rule:nonzero;fill:rgb(16.859436%,20.388794%,14.509583%);fill-opacity:1;" d="M 290.015625 163.21875 C 289.730469 163.21875 289.488281 163.007812 289.457031 162.71875 C 289.449219 162.679688 289.007812 158.59375 286.738281 158.199219 C 286.433594 158.148438 286.230469 157.859375 286.285156 157.5625 C 286.335938 157.261719 286.625 157.0625 286.933594 157.113281 C 290.042969 157.652344 290.554688 162.410156 290.578125 162.613281 C 290.609375 162.917969 290.382812 163.1875 290.074219 163.21875 C 290.054688 163.21875 290.035156 163.21875 290.015625 163.21875 "/>
<path style=" stroke:none;fill-rule:nonzero;fill:rgb(44.709778%,55.688477%,38.819885%);fill-opacity:1;" d="M 269.414062 160.167969 C 269.03125 161.261719 267.632812 161.777344 266.289062 161.320312 C 264.941406 160.867188 264.164062 159.617188 264.546875 158.523438 C 264.929688 157.4375 266.328125 156.921875 267.671875 157.371094 C 269.015625 157.828125 269.792969 159.078125 269.414062 160.167969 "/>
<path style=" stroke:none;fill-rule:nonzero;fill:rgb(16.859436%,20.388794%,14.509583%);fill-opacity:1;" d="M 265.035156 154.300781 C 265 154.300781 264.960938 154.296875 264.921875 154.289062 C 264.617188 154.226562 264.417969 153.9375 264.484375 153.636719 L 264.789062 152.160156 C 264.855469 151.863281 265.152344 151.671875 265.453125 151.726562 C 265.757812 151.792969 265.957031 152.082031 265.890625 152.382812 L 265.585938 153.859375 C 265.527344 154.121094 265.296875 154.300781 265.035156 154.300781 "/>
<path style=" stroke:none;fill-rule:nonzero;fill:rgb(16.859436%,20.388794%,14.509583%);fill-opacity:1;" d="M 255.4375 152.46875 C 255.398438 152.46875 255.363281 152.46875 255.324219 152.460938 C 255.023438 152.398438 254.824219 152.105469 254.886719 151.808594 L 255.199219 150.332031 C 255.257812 150.03125 255.550781 149.839844 255.863281 149.902344 C 256.167969 149.960938 256.359375 150.253906 256.300781 150.554688 L 255.988281 152.03125 C 255.933594 152.289062 255.699219 152.46875 255.4375 152.46875 "/>
<path style=" stroke:none;fill-rule:nonzero;fill:rgb(16.859436%,20.388794%,14.509583%);fill-opacity:1;" d="M 268.925781 150.421875 C 268.679688 150.421875 268.453125 150.257812 268.382812 150.015625 C 268.363281 149.953125 267.988281 148.71875 266.320312 148.292969 C 266.019531 148.214844 265.839844 147.914062 265.917969 147.617188 C 265.996094 147.324219 266.304688 147.148438 266.601562 147.222656 C 268.9375 147.816406 269.449219 149.652344 269.46875 149.730469 C 269.550781 150.023438 269.371094 150.324219 269.070312 150.402344 C 269.019531 150.417969 268.972656 150.421875 268.925781 150.421875 "/>
<path style=" stroke:none;fill-rule:nonzero;fill:rgb(16.859436%,20.388794%,14.509583%);fill-opacity:1;" d="M 254.238281 143.792969 C 254.238281 143.792969 260.019531 144.789062 266.460938 136.105469 C 266.460938 136.105469 271.085938 147.164062 281.582031 153.746094 C 281.582031 153.746094 283.578125 151.316406 286.835938 151.179688 L 291.546875 143.085938 L 278.820312 131.417969 L 256.320312 130.699219 L 254.238281 143.792969 "/>
<path style=" stroke:none;fill-rule:nonzero;fill:rgb(44.709778%,55.688477%,38.819885%);fill-opacity:1;" d="M 252.351562 155.140625 C 252.269531 155.800781 252.851562 156.414062 253.660156 156.519531 C 254.464844 156.625 255.191406 156.179688 255.28125 155.523438 C 255.367188 154.867188 254.785156 154.25 253.976562 154.144531 C 253.167969 154.042969 252.445312 154.488281 252.351562 155.140625 "/>
<path style=" stroke:none;fill-rule:nonzero;fill:rgb(16.859436%,20.388794%,14.509583%);fill-opacity:1;" d="M 264.214844 179.09375 C 262.628906 179.09375 260.847656 178.882812 259.132812 178.214844 C 258.847656 178.101562 258.707031 177.78125 258.820312 177.496094 C 258.933594 177.214844 259.261719 177.074219 259.550781 177.1875 C 263.898438 178.882812 268.945312 177.351562 268.992188 177.332031 C 269.292969 177.242188 269.609375 177.402344 269.699219 177.695312 C 269.792969 177.988281 269.628906 178.296875 269.332031 178.386719 C 269.191406 178.433594 267.003906 179.09375 264.214844 179.09375 "/>
<path style=" stroke:none;fill-rule:nonzero;fill:rgb(16.859436%,20.388794%,14.509583%);fill-opacity:1;" d="M 278.667969 174.976562 C 278.667969 174.976562 280.496094 184.839844 288.070312 185.691406 C 295.640625 186.542969 297.863281 176.792969 297.863281 176.792969 L 278.667969 174.976562 "/>
<path style=" stroke:none;fill-rule:nonzero;fill:rgb(16.859436%,20.388794%,14.509583%);fill-opacity:1;" d="M 119.1875 155.808594 C 119.1875 155.808594 108.359375 150.445312 106.089844 133.40625 C 104.226562 119.347656 98.644531 100.285156 118.492188 96.210938 C 133.675781 93.09375 139.320312 101.078125 144.839844 105.28125 C 149.050781 108.480469 148.246094 109.042969 156.855469 107.996094 C 164.828125 107.027344 158.324219 129.871094 144.566406 126.871094 C 130.8125 123.867188 119.1875 155.808594 119.1875 155.808594 "/>
<path style=" stroke:none;fill-rule:nonzero;fill:rgb(36.468506%,32.548523%,25.099182%);fill-opacity:1;" d="M 101.425781 172.191406 L 108.273438 163.75 C 108.273438 163.75 116.875 159.871094 117.382812 150.710938 L 133.480469 154.238281 C 133.480469 154.238281 130.648438 179.492188 133.332031 182.28125 L 123.625 194.359375 L 111.207031 200.402344 L 104.417969 170.734375 L 105 167.359375 "/>
<path style=" stroke:none;fill-rule:nonzero;fill:rgb(36.468506%,32.548523%,25.099182%);fill-opacity:1;" d="M 131.28125 160.019531 L 127.574219 159.859375 C 121.074219 159.582031 116.046875 154.113281 116.339844 147.648438 L 117.316406 126.140625 C 117.613281 119.675781 123.117188 114.664062 129.613281 114.945312 L 133.324219 115.105469 C 139.820312 115.382812 144.851562 120.851562 144.558594 127.316406 L 143.578125 148.824219 C 143.285156 155.289062 137.78125 160.296875 131.28125 160.019531 "/>
<path style=" stroke:none;fill-rule:nonzero;fill:rgb(36.468506%,32.548523%,25.099182%);fill-opacity:1;" d="M 121.414062 134.925781 C 120.960938 138.621094 117.582031 141.257812 113.867188 140.8125 C 110.152344 140.363281 107.511719 137.007812 107.96875 133.3125 C 108.421875 129.617188 111.800781 126.984375 115.515625 127.429688 C 119.230469 127.875 121.871094 131.230469 121.414062 134.925781 "/>
<path style=" stroke:none;fill-rule:nonzero;fill:rgb(44.709778%,55.688477%,38.819885%);fill-opacity:1;" d="M 130.449219 139.125 C 130.460938 140.046875 129.554688 140.804688 128.433594 140.816406 C 127.316406 140.828125 126.398438 140.09375 126.390625 139.171875 C 126.382812 138.253906 127.285156 137.496094 128.402344 137.480469 C 129.523438 137.472656 130.441406 138.207031 130.449219 139.125 "/>
<path style=" stroke:none;fill-rule:nonzero;fill:rgb(16.859436%,20.388794%,14.509583%);fill-opacity:1;" d="M 117.242188 127.816406 C 117.242188 127.816406 136.136719 122.863281 137.632812 117.261719 C 137.632812 117.261719 140.957031 125.699219 144.566406 126.871094 C 148.171875 128.039062 147.542969 117.144531 147.542969 117.144531 L 134.066406 107.316406 L 113.074219 108.53125 L 117.242188 127.816406 "/>
<path style=" stroke:none;fill-rule:nonzero;fill:rgb(65.489197%,76.469421%,58.81958%);fill-opacity:1;" d="M 31.363281 250.011719 L 56.792969 192.019531 L 56.835938 191.964844 C 65.949219 179.84375 78.925781 171.203125 93.617188 167.46875 L 108.273438 163.75 C 108.273438 163.75 112.332031 181.722656 133.332031 182.28125 L 145.898438 203.722656 L 173.320312 264.929688 L 41.101562 264.929688 C 33.425781 264.929688 28.28125 257.046875 31.363281 250.011719 "/>
<path style=" stroke:none;fill-rule:nonzero;fill:rgb(65.489197%,76.469421%,58.81958%);fill-opacity:1;" d="M 232.089844 264.4375 L 227.070312 234.4375 C 227.050781 234.316406 227.066406 234.199219 227.121094 234.089844 L 238.761719 209.578125 C 241.355469 204.121094 245.164062 199.335938 249.902344 195.585938 L 253.773438 192.527344 C 254.042969 192.3125 254.445312 192.367188 254.628906 192.660156 C 255.980469 194.753906 261.875 201.222656 277.082031 186.339844 C 277.195312 186.222656 277.363281 186.15625 277.527344 186.167969 C 278.203125 186.21875 280.132812 186.351562 282.597656 186.527344 C 294.125 187.34375 305.21875 191.289062 314.671875 197.949219 C 314.757812 198.007812 314.828125 198.09375 314.871094 198.1875 L 337.28125 248.65625 C 340.679688 256.308594 335.082031 264.929688 326.710938 264.929688 L 232.667969 264.929688 C 232.378906 264.929688 232.132812 264.722656 232.089844 264.4375 "/>
<path style=" stroke:none;fill-rule:nonzero;fill:rgb(44.709778%,55.688477%,38.819885%);fill-opacity:1;" d="M 160.515625 258.953125 L 157.804688 258.953125 L 157.804688 213.65625 L 160.515625 213.65625 L 160.515625 258.953125 "/>
<path style=" stroke:none;fill-rule:nonzero;fill:rgb(44.709778%,55.688477%,38.819885%);fill-opacity:1;" d="M 224.09375 263.410156 L 221.382812 263.410156 L 221.382812 218.113281 L 224.09375 218.113281 L 224.09375 263.410156 "/>
<path style=" stroke:none;fill-rule:nonzero;fill:rgb(16.859436%,20.388794%,14.509583%);fill-opacity:1;" d="M 110.402344 265.609375 C 110.378906 265.609375 110.351562 265.605469 110.324219 265.601562 C 109.953125 265.554688 109.6875 265.214844 109.730469 264.84375 L 112.289062 243.890625 L 67.699219 240.523438 L 88.515625 202.894531 C 88.699219 202.570312 89.109375 202.449219 89.4375 202.628906 C 89.765625 202.816406 89.882812 203.226562 89.703125 203.554688 L 69.910156 239.328125 L 113.808594 242.644531 L 111.078125 265.011719 C 111.035156 265.355469 110.742188 265.609375 110.402344 265.609375 "/>
<path style=" stroke:none;fill-rule:nonzero;fill:rgb(16.859436%,20.388794%,14.509583%);fill-opacity:1;" d="M 269.011719 265.609375 C 268.671875 265.609375 268.378906 265.351562 268.339844 265 L 266.464844 248 L 304.285156 241.769531 L 292.035156 214.617188 C 291.878906 214.277344 292.03125 213.871094 292.375 213.722656 C 292.71875 213.566406 293.117188 213.71875 293.273438 214.058594 L 306.242188 242.824219 L 267.953125 249.132812 L 269.683594 264.855469 C 269.726562 265.226562 269.460938 265.5625 269.089844 265.601562 C 269.0625 265.605469 269.035156 265.609375 269.011719 265.609375 "/>
<path style=" stroke:none;fill-rule:nonzero;fill:rgb(16.859436%,20.388794%,14.509583%);fill-opacity:1;" d="M 136.542969 264.929688 L 136.921875 213.074219 L 127.273438 264.929688 Z M 136.542969 264.929688 "/>
<path style=" stroke:none;fill-rule:nonzero;fill:rgb(16.859436%,20.388794%,14.509583%);fill-opacity:1;" d="M 241.574219 264.929688 L 250.25 221.167969 L 247.527344 264.929688 Z M 241.574219 264.929688 "/>
<path style=" stroke:none;fill-rule:nonzero;fill:rgb(16.859436%,20.388794%,14.509583%);fill-opacity:1;" d="M 117 136.601562 C 116.65625 136.601562 116.359375 136.335938 116.324219 135.988281 C 116.027344 132.78125 112.941406 132.1875 112.8125 132.164062 C 112.445312 132.097656 112.203125 131.746094 112.265625 131.378906 C 112.328125 131.011719 112.679688 130.765625 113.046875 130.828125 C 114.511719 131.082031 117.355469 132.457031 117.675781 135.859375 C 117.710938 136.234375 117.433594 136.5625 117.0625 136.597656 C 117.039062 136.597656 117.019531 136.601562 117 136.601562 "/>
<path style=" stroke:none;fill-rule:nonzero;fill:rgb(16.859436%,20.388794%,14.509583%);fill-opacity:1;" d="M 112.664062 136.558594 C 112.628906 136.558594 112.589844 136.554688 112.554688 136.550781 C 112.183594 136.488281 111.933594 136.140625 111.992188 135.773438 C 112.015625 135.628906 112.601562 132.277344 115.398438 132.085938 C 115.769531 132.058594 116.097656 132.34375 116.121094 132.714844 C 116.144531 133.089844 115.863281 133.414062 115.492188 133.4375 C 113.75 133.554688 113.339844 135.964844 113.335938 135.992188 C 113.277344 136.324219 112.992188 136.558594 112.664062 136.558594 "/>
<path style=" stroke:none;fill-rule:nonzero;fill:rgb(16.859436%,20.388794%,14.509583%);fill-opacity:1;" d="M 134.160156 140.894531 C 133.808594 140.894531 133.515625 140.628906 133.484375 140.269531 C 133.453125 139.894531 133.734375 139.570312 134.105469 139.539062 L 138.355469 139.203125 L 135.246094 128.632812 C 135.140625 128.277344 135.347656 127.898438 135.703125 127.792969 C 136.0625 127.6875 136.441406 127.890625 136.546875 128.25 L 140.128906 140.421875 L 134.214844 140.894531 C 134.195312 140.894531 134.179688 140.894531 134.160156 140.894531 "/>
<path style=" stroke:none;fill-rule:nonzero;fill:rgb(16.859436%,20.388794%,14.509583%);fill-opacity:1;" d="M 134.398438 151.832031 C 134.378906 151.832031 134.363281 151.828125 134.34375 151.828125 C 132.800781 151.703125 131.589844 151.097656 130.742188 150.019531 C 128.953125 147.753906 129.488281 144.234375 129.507812 144.082031 L 129.59375 143.554688 L 137.09375 142.957031 L 136.355469 140.164062 C 136.261719 139.800781 136.476562 139.429688 136.839844 139.335938 C 137.199219 139.238281 137.574219 139.453125 137.671875 139.820312 L 138.816406 144.183594 L 130.796875 144.820312 C 130.734375 145.78125 130.746094 147.835938 131.808594 149.183594 C 132.421875 149.960938 133.285156 150.382812 134.449219 150.476562 C 134.824219 150.503906 135.101562 150.832031 135.070312 151.207031 C 135.042969 151.558594 134.746094 151.832031 134.398438 151.832031 "/>
<path style=" stroke:none;fill-rule:nonzero;fill:rgb(16.859436%,20.388794%,14.509583%);fill-opacity:1;" d="M 130.769531 135.851562 C 130.761719 135.851562 130.753906 135.851562 130.746094 135.851562 C 130.371094 135.839844 130.078125 135.523438 130.09375 135.148438 L 130.171875 133.050781 C 130.1875 132.675781 130.523438 132.398438 130.875 132.398438 C 131.25 132.414062 131.542969 132.730469 131.527344 133.105469 L 131.449219 135.203125 C 131.433594 135.566406 131.132812 135.851562 130.769531 135.851562 "/>
<path style=" stroke:none;fill-rule:nonzero;fill:rgb(16.859436%,20.388794%,14.509583%);fill-opacity:1;" d="M 141.136719 136.515625 C 141.117188 136.515625 141.097656 136.515625 141.082031 136.515625 C 140.707031 136.484375 140.429688 136.160156 140.457031 135.785156 L 140.621094 133.503906 C 140.652344 133.128906 140.976562 132.851562 141.351562 132.878906 C 141.722656 132.902344 142.003906 133.230469 141.976562 133.601562 L 141.808594 135.886719 C 141.78125 136.242188 141.484375 136.515625 141.136719 136.515625 "/>
<path style=" stroke:none;fill-rule:nonzero;fill:rgb(16.859436%,20.388794%,14.509583%);fill-opacity:1;" d="M 124.25 132.070312 C 124.207031 132.070312 124.164062 132.066406 124.117188 132.0625 C 123.75 131.984375 123.511719 131.625 123.585938 131.257812 C 123.90625 129.691406 125.5625 126.6875 129.519531 126.535156 C 129.890625 126.515625 130.207031 126.8125 130.222656 127.1875 C 130.238281 127.5625 129.945312 127.875 129.574219 127.890625 C 125.675781 128.039062 124.921875 131.496094 124.914062 131.53125 C 124.851562 131.851562 124.570312 132.070312 124.25 132.070312 "/>
<path style=" stroke:none;fill-rule:nonzero;fill:rgb(16.859436%,20.388794%,14.509583%);fill-opacity:1;" d="M 130.5625 160.519531 C 129.191406 160.519531 127.683594 160.398438 126.042969 160.097656 C 125.675781 160.027344 125.429688 159.671875 125.496094 159.304688 C 125.5625 158.9375 125.917969 158.691406 126.285156 158.761719 C 133.777344 160.136719 138.472656 157.457031 138.519531 157.429688 C 138.839844 157.238281 139.257812 157.347656 139.445312 157.667969 C 139.632812 157.992188 139.527344 158.40625 139.207031 158.597656 C 139.042969 158.695312 135.882812 160.519531 130.5625 160.519531 "/>
<path style=" stroke:none;fill-rule:nonzero;fill:rgb(16.859436%,20.388794%,14.509583%);fill-opacity:1;" d="M 102.78125 265.609375 C 102.753906 265.609375 102.726562 265.605469 102.695312 265.601562 C 102.324219 265.550781 102.0625 265.214844 102.113281 264.84375 L 104.984375 242.621094 C 105.03125 242.25 105.367188 241.988281 105.742188 242.035156 C 106.113281 242.085938 106.375 242.425781 106.328125 242.796875 L 103.453125 265.015625 C 103.410156 265.359375 103.117188 265.609375 102.78125 265.609375 "/>
<path style=" stroke:none;fill-rule:nonzero;fill:rgb(16.859436%,20.388794%,14.509583%);fill-opacity:1;" d="M 275.710938 265.671875 C 275.371094 265.671875 275.078125 265.421875 275.039062 265.074219 L 272.992188 247.582031 C 272.949219 247.210938 273.214844 246.875 273.585938 246.828125 C 273.949219 246.789062 274.292969 247.050781 274.335938 247.425781 L 276.382812 264.917969 C 276.425781 265.289062 276.160156 265.625 275.792969 265.667969 C 275.761719 265.671875 275.738281 265.671875 275.710938 265.671875 "/>
<path style=" stroke:none;fill-rule:nonzero;fill:rgb(44.709778%,55.688477%,38.819885%);fill-opacity:1;" d="M 166.710938 225.613281 C 161.851562 227.476562 156.472656 227.476562 151.613281 225.613281 C 147.28125 223.949219 145.121094 219.097656 146.757812 214.761719 L 151.660156 199.140625 L 166.664062 199.140625 L 171.554688 214.761719 C 173.199219 219.097656 171.03125 223.949219 166.710938 225.613281 "/>
<path style=" stroke:none;fill-rule:nonzero;fill:rgb(44.709778%,55.688477%,38.819885%);fill-opacity:1;" d="M 230.289062 225.613281 C 225.429688 227.476562 220.054688 227.476562 215.191406 225.613281 C 210.859375 223.949219 208.699219 219.097656 210.339844 214.761719 L 215.238281 199.140625 L 230.246094 199.140625 L 235.136719 214.761719 C 236.78125 219.097656 234.609375 223.949219 230.289062 225.613281 "/>
<path style=" stroke:none;fill-rule:nonzero;fill:rgb(36.468506%,32.548523%,25.099182%);fill-opacity:1;" d="M 149.03125 264.929688 C 149.976562 261.289062 148.710938 257.4375 145.792969 255.070312 L 142.273438 252.214844 C 138.289062 248.984375 133.234375 247.375 128.117188 247.710938 L 113.046875 248.707031 L 111.066406 264.929688 L 149.03125 264.929688 "/>
<path style=" stroke:none;fill-rule:nonzero;fill:rgb(36.468506%,32.548523%,25.099182%);fill-opacity:1;" d="M 148.753906 236.582031 C 147.667969 238.535156 147.40625 240.839844 148.027344 242.988281 L 152.574219 258.660156 C 153.652344 262.375 157.046875 264.929688 160.914062 264.929688 L 173.320312 264.929688 L 176.488281 259.855469 C 177.933594 257.542969 178.597656 254.832031 178.390625 252.117188 L 177.742188 243.714844 C 177.429688 239.660156 175.203125 236 171.75 233.855469 L 165.664062 230.082031 L 156.742188 231.191406 C 153.371094 231.609375 150.40625 233.613281 148.753906 236.582031 "/>
<path style=" stroke:none;fill-rule:nonzero;fill:rgb(36.468506%,32.548523%,25.099182%);fill-opacity:1;" d="M 235.476562 235.96875 C 236.777344 238.316406 237.09375 241.082031 236.34375 243.660156 L 231.996094 258.660156 C 230.917969 262.375 227.519531 264.929688 223.65625 264.929688 L 211.25 264.929688 L 208.082031 259.855469 C 206.636719 257.542969 205.96875 254.832031 206.183594 252.117188 L 206.828125 243.714844 C 207.140625 239.660156 209.367188 236 212.820312 233.855469 L 218.90625 230.082031 L 228.523438 231.277344 C 231.457031 231.640625 234.039062 233.382812 235.476562 235.96875 "/>
<path style=" stroke:none;fill-rule:nonzero;fill:rgb(36.468506%,32.548523%,25.099182%);fill-opacity:1;" d="M 239.992188 264.992188 C 239.332031 262.449219 240.21875 259.753906 242.257812 258.09375 L 244.722656 256.097656 C 247.515625 253.835938 251.054688 252.714844 254.632812 252.945312 L 267.007812 252.917969 L 268.359375 264.992188 L 239.992188 264.992188 "/>
<path style=" stroke:none;fill-rule:nonzero;fill:rgb(16.859436%,20.388794%,14.509583%);fill-opacity:1;" d="M 160.542969 227.640625 L 157.777344 227.640625 C 157.40625 227.640625 157.101562 227.335938 157.101562 226.964844 C 157.101562 226.589844 157.40625 226.285156 157.777344 226.285156 L 160.542969 226.285156 C 160.917969 226.285156 161.222656 226.589844 161.222656 226.964844 C 161.222656 227.335938 160.917969 227.640625 160.542969 227.640625 "/>
<path style=" stroke:none;fill-rule:nonzero;fill:rgb(16.859436%,20.388794%,14.509583%);fill-opacity:1;" d="M 224.132812 227.640625 L 221.347656 227.640625 C 220.972656 227.640625 220.667969 227.335938 220.667969 226.964844 C 220.667969 226.589844 220.972656 226.285156 221.347656 226.285156 L 224.132812 226.285156 C 224.507812 226.285156 224.808594 226.589844 224.808594 226.964844 C 224.808594 227.335938 224.507812 227.640625 224.132812 227.640625 "/>
<path style=" stroke:none;fill-rule:nonzero;fill:rgb(16.859436%,20.388794%,14.509583%);fill-opacity:1;" d="M 148.027344 243.664062 C 147.707031 243.664062 147.421875 243.4375 147.359375 243.105469 C 147.292969 242.738281 147.539062 242.386719 147.910156 242.320312 L 162.007812 239.746094 C 162.378906 239.683594 162.730469 239.921875 162.796875 240.292969 C 162.859375 240.660156 162.617188 241.015625 162.25 241.082031 L 148.152344 243.65625 C 148.109375 243.660156 148.070312 243.664062 148.027344 243.664062 "/>
<path style=" stroke:none;fill-rule:nonzero;fill:rgb(16.859436%,20.388794%,14.509583%);fill-opacity:1;" d="M 149.917969 250.363281 C 149.597656 250.363281 149.3125 250.132812 149.253906 249.804688 C 149.1875 249.4375 149.429688 249.082031 149.796875 249.015625 L 163.898438 246.445312 C 164.261719 246.378906 164.621094 246.625 164.6875 246.992188 C 164.753906 247.359375 164.511719 247.710938 164.140625 247.777344 L 150.042969 250.351562 C 150 250.359375 149.960938 250.363281 149.917969 250.363281 "/>
<path style=" stroke:none;fill-rule:nonzero;fill:rgb(16.859436%,20.388794%,14.509583%);fill-opacity:1;" d="M 151.777344 257.433594 C 151.457031 257.433594 151.171875 257.203125 151.113281 256.875 C 151.042969 256.507812 151.289062 256.15625 151.65625 256.089844 L 165.757812 253.515625 C 166.125 253.449219 166.476562 253.691406 166.542969 254.058594 C 166.609375 254.429688 166.367188 254.78125 166 254.847656 L 151.898438 257.421875 C 151.859375 257.429688 151.816406 257.433594 151.777344 257.433594 "/>
<path style=" stroke:none;fill-rule:nonzero;fill:rgb(16.859436%,20.388794%,14.509583%);fill-opacity:1;" d="M 235.988281 244.015625 C 235.949219 244.015625 235.90625 244.011719 235.863281 244.003906 L 221.765625 241.433594 C 221.394531 241.363281 221.152344 241.011719 221.21875 240.640625 C 221.285156 240.273438 221.644531 240.027344 222.011719 240.097656 L 236.109375 242.667969 C 236.476562 242.734375 236.722656 243.089844 236.65625 243.457031 C 236.59375 243.785156 236.308594 244.015625 235.988281 244.015625 "/>
<path style=" stroke:none;fill-rule:nonzero;fill:rgb(16.859436%,20.388794%,14.509583%);fill-opacity:1;" d="M 234.097656 250.710938 C 234.054688 250.710938 234.015625 250.710938 233.976562 250.703125 L 219.875 248.128906 C 219.507812 248.0625 219.261719 247.707031 219.328125 247.339844 C 219.398438 246.96875 219.75 246.726562 220.117188 246.792969 L 234.21875 249.367188 C 234.585938 249.433594 234.828125 249.785156 234.761719 250.152344 C 234.707031 250.484375 234.417969 250.710938 234.097656 250.710938 "/>
<path style=" stroke:none;fill-rule:nonzero;fill:rgb(16.859436%,20.388794%,14.509583%);fill-opacity:1;" d="M 232.238281 257.78125 C 232.199219 257.78125 232.15625 257.777344 232.117188 257.769531 L 218.015625 255.199219 C 217.648438 255.128906 217.40625 254.777344 217.472656 254.410156 C 217.539062 254.042969 217.890625 253.796875 218.257812 253.863281 L 232.359375 256.433594 C 232.726562 256.5 232.972656 256.855469 232.90625 257.226562 C 232.84375 257.550781 232.5625 257.78125 232.238281 257.78125 "/>
<g clip-path="url(#clip1)" clip-rule="nonzero">
<path style=" stroke:none;fill-rule:nonzero;fill:rgb(78.039551%,63.139343%,35.688782%);fill-opacity:1;" d="M 365.925781 282.050781 L 9.105469 282.050781 C 4.417969 282.050781 0.585938 278.210938 0.585938 273.523438 C 0.585938 268.832031 4.417969 264.992188 9.105469 264.992188 L 365.925781 264.992188 C 370.613281 264.992188 374.449219 268.832031 374.449219 273.523438 C 374.449219 278.210938 370.613281 282.050781 365.925781 282.050781 "/>
</g>
</g>
</svg>
