<?xml version="1.0" encoding="UTF-8"?>
<svg xmlns="http://www.w3.org/2000/svg" xmlns:xlink="http://www.w3.org/1999/xlink" width="375pt" height="374.999991pt" viewBox="0 0 375 374.999991" version="1.2">
<defs>
<clipPath id="clip1">
  <path d="M 3.042969 48.671875 L 374.832031 48.671875 L 374.832031 273.695312 L 3.042969 273.695312 Z M 3.042969 48.671875 "/>
</clipPath>
<clipPath id="clip2">
  <path d="M 52 24 L 360.832031 24 L 360.832031 350.957031 L 52 350.957031 Z M 52 24 "/>
</clipPath>
<clipPath id="clip3">
  <path d="M 51.183594 23.957031 L 360.832031 23.957031 L 360.832031 350.957031 L 51.183594 350.957031 Z M 51.183594 23.957031 "/>
</clipPath>
</defs>
<g id="surface1">
<g clip-path="url(#clip1)" clip-rule="nonzero">
<path style=" stroke:none;fill-rule:nonzero;fill:rgb(70.588684%,85.879517%,73.329163%);fill-opacity:1;" d="M 75.273438 133.5625 C 75.597656 136.097656 74.230469 138.570312 71.824219 139.613281 L 42.617188 139.613281 C 40.535156 138.765625 39.039062 137.207031 38.457031 135.515625 L 8.402344 135.515625 C 5.082031 133.953125 3 130.507812 3.261719 126.863281 C 3.457031 123.742188 5.34375 121.011719 8.207031 119.582031 C 8.660156 114.636719 12.238281 110.539062 16.726562 109.761719 C 21.410156 108.980469 24.855469 111.972656 25.964844 113.078125 C 30.257812 107.222656 37.085938 104.035156 43.527344 105.078125 C 48.148438 105.792969 52.503906 108.65625 55.367188 112.945312 C 56.734375 114.960938 57.644531 117.175781 58.164062 119.449219 C 63.628906 119.449219 68.636719 123.222656 70.261719 128.683594 C 72.800781 129.011719 74.882812 131.027344 75.273438 133.5625 Z M 374.773438 82.640625 C 374.382812 79.648438 371.910156 77.308594 368.917969 76.917969 C 366.902344 70.21875 360.589844 65.664062 353.824219 66.054688 C 353.566406 66.054688 353.304688 66.121094 353.042969 66.121094 C 352.523438 63.390625 351.351562 60.589844 349.726562 58.121094 C 346.410156 53.179688 341.53125 49.925781 336.195312 49.082031 C 328.84375 47.976562 320.972656 51.554688 316.09375 58.316406 C 314.925781 57.148438 310.957031 53.570312 305.554688 54.480469 C 300.351562 55.390625 296.320312 60.074219 295.796875 65.664062 C 292.546875 67.289062 290.335938 70.414062 290.074219 73.992188 C 289.8125 78.085938 292.15625 82.054688 295.992188 83.8125 L 331.382812 83.8125 C 331.640625 86.152344 333.660156 88.425781 336.457031 89.597656 L 370.804688 89.597656 C 373.535156 88.492188 375.164062 85.566406 374.773438 82.640625 Z M 162.765625 268.511719 C 162.117188 262.332031 160.425781 253.292969 155.742188 243.34375 C 151.902344 235.214844 147.285156 229.101562 143.578125 224.9375 C 117.816406 193.785156 115.734375 150.863281 136.8125 121.660156 C 160.878906 88.296875 203.425781 89.078125 207.066406 89.207031 C 237.445312 89.339844 265.222656 105.664062 278.753906 131.675781 C 287.082031 147.675781 288.578125 166.40625 285.066406 183.902344 C 282.789062 195.152344 278.558594 206.535156 271.792969 216.09375 C 264.445312 226.5625 253.125 232.9375 245.707031 243.34375 C 238.941406 252.839844 235.886719 262.464844 234.324219 269.097656 C 225.933594 271.308594 214.9375 273.390625 201.929688 273.585938 C 185.730469 273.910156 172.265625 271.242188 162.765625 268.511719 "/>
</g>
<g clip-path="url(#clip2)" clip-rule="nonzero">
<path style=" stroke:none;fill-rule:nonzero;fill:rgb(97.648621%,100%,92.939758%);fill-opacity:1;" d="M 99.472656 198.925781 C 99.144531 198.46875 99.015625 197.949219 99.144531 197.492188 C 99.339844 196.648438 100.316406 196.128906 101.359375 196.191406 C 102.136719 195.542969 102.789062 194.761719 103.246094 193.917969 C 103.636719 193.136719 103.960938 192.289062 104.089844 191.378906 C 104.089844 191.25 104.21875 191.121094 104.285156 191.121094 C 104.414062 191.054688 104.546875 191.054688 104.609375 191.121094 C 105.390625 191.574219 106.238281 191.898438 107.148438 192.09375 C 108.320312 192.289062 109.488281 192.289062 110.660156 191.964844 C 110.855469 191.898438 111.050781 192.03125 111.117188 192.160156 C 111.703125 193.589844 112.027344 195.023438 112.15625 196.519531 C 112.351562 198.730469 112.675781 202.109375 110.53125 203.738281 C 110.011719 204.125 108.902344 204.710938 107.015625 204.515625 L 107.015625 209.523438 C 107.015625 209.65625 106.953125 209.785156 106.886719 209.851562 C 106.433594 210.175781 105.390625 210.824219 103.894531 210.824219 C 103.699219 210.824219 103.441406 210.824219 103.246094 210.761719 C 101.164062 210.5 100.058594 209.003906 99.730469 208.550781 C 99.667969 208.417969 99.667969 208.289062 99.667969 208.160156 C 100.121094 207.183594 100.445312 206.144531 100.640625 205.039062 C 101.03125 203.347656 101.097656 201.527344 100.96875 199.769531 C 100.316406 199.703125 99.796875 199.378906 99.472656 198.925781 Z M 147.023438 231.960938 C 146.960938 232.027344 146.828125 232.09375 146.699219 232.027344 L 143.054688 230.660156 C 143.316406 231.765625 143.25 232.289062 142.859375 232.484375 C 142.796875 232.546875 142.667969 232.546875 142.601562 232.546875 C 142.339844 232.546875 142.082031 232.351562 141.691406 232.09375 C 141.363281 231.898438 141.039062 231.636719 140.519531 231.375 C 140 231.117188 139.347656 230.855469 138.761719 230.726562 C 138.699219 230.726562 138.566406 230.660156 138.566406 230.53125 C 138.503906 230.464844 138.503906 230.335938 138.566406 230.269531 L 140.0625 227.34375 C 140.128906 227.28125 140.195312 227.214844 140.324219 227.148438 C 141.039062 227.085938 142.992188 227.019531 144.746094 228.320312 C 146.242188 229.425781 146.828125 230.855469 147.023438 231.636719 C 147.15625 231.765625 147.089844 231.898438 147.023438 231.960938 Z M 64.605469 232.289062 C 63.695312 232.484375 62.847656 232.742188 62.066406 233.132812 C 61.351562 233.457031 60.828125 233.847656 60.441406 234.171875 C 59.984375 234.5 59.59375 234.757812 59.269531 234.757812 C 59.140625 234.757812 59.074219 234.757812 58.945312 234.695312 C 58.488281 234.433594 58.488281 233.71875 58.816406 232.351562 L 52.4375 233.457031 C 52.308594 233.457031 52.113281 233.394531 52.046875 233.261719 C 51.984375 233.132812 51.984375 233.003906 52.046875 232.871094 C 53.21875 231.183594 54.847656 229.75 56.667969 228.777344 C 59.007812 227.476562 61.285156 227.148438 62.78125 227.148438 C 62.976562 227.148438 63.105469 227.214844 63.171875 227.410156 L 64.929688 231.898438 C 64.996094 232.027344 64.996094 232.09375 64.929688 232.222656 C 64.800781 232.222656 64.667969 232.289062 64.605469 232.289062 Z M 115.472656 267.601562 C 113.195312 259.667969 110.855469 251.601562 108.382812 243.539062 C 107.796875 241.523438 107.144531 239.507812 106.558594 237.492188 C 106.429688 237.492188 106.300781 237.425781 106.234375 237.425781 L 90.882812 233.394531 C 90.753906 233.394531 90.621094 233.328125 90.492188 233.328125 C 87.761719 237.296875 84.960938 241.328125 82.230469 245.292969 C 82.230469 245.359375 82.164062 245.359375 82.164062 245.425781 L 78.652344 258.433594 L 66.8125 245.945312 C 66.683594 245.816406 66.421875 245.816406 66.292969 245.945312 L 62.523438 249.457031 C 62.390625 249.585938 62.390625 249.71875 62.457031 249.914062 C 64.800781 255.113281 67.660156 260.121094 70.847656 264.804688 C 75.074219 270.984375 77.417969 274.429688 80.214844 274.5625 L 80.472656 274.5625 C 87.761719 274.5625 93.875 258.367188 95.175781 254.59375 L 106.886719 272.675781 L 117.425781 300.316406 C 117.488281 300.378906 117.554688 300.511719 117.617188 300.511719 L 117.878906 300.511719 L 123.277344 298.363281 C 123.472656 298.296875 123.539062 298.105469 123.472656 297.910156 C 120.871094 287.894531 118.203125 277.746094 115.472656 267.601562 Z M 292.480469 243.34375 L 292.414062 243.214844 C 291.4375 242.367188 290.527344 241.390625 289.878906 240.285156 C 289.355469 239.441406 288.902344 238.53125 288.574219 237.554688 C 288.964844 236.320312 288.445312 235.019531 287.46875 234.5625 C 286.558594 234.171875 285.714844 234.5625 285.386719 234.757812 C 284.609375 234.695312 283.828125 234.5625 283.113281 234.304688 C 282.199219 233.914062 281.355469 233.394531 280.574219 232.675781 L 280.054688 232.222656 L 279.925781 232.871094 C 279.730469 233.847656 279.339844 234.757812 278.753906 235.605469 C 278.296875 236.253906 277.710938 236.839844 277.0625 237.359375 L 276.933594 237.425781 L 276.933594 237.554688 C 276.738281 238.660156 276.738281 240.285156 277.582031 241.914062 C 278.558594 243.863281 280.769531 245.878906 283.242188 245.554688 C 283.890625 245.488281 284.542969 245.230469 285.128906 244.839844 L 286.753906 246.335938 C 287.144531 247.050781 287.796875 247.636719 288.640625 247.894531 C 288.964844 248.027344 289.292969 248.027344 289.683594 248.027344 C 290.203125 248.027344 290.722656 247.894531 291.179688 247.636719 C 292.675781 246.921875 293.324219 244.96875 292.480469 243.34375 Z M 338.535156 255.960938 C 341.007812 256.675781 343.546875 257.132812 346.082031 257.261719 C 346.992188 257.328125 347.773438 257.328125 348.425781 257.328125 C 350.699219 257.328125 351.613281 257.066406 351.804688 256.414062 C 351.9375 255.765625 351.546875 254.917969 344.976562 252.382812 C 346.863281 251.148438 347.121094 250.628906 346.925781 250.171875 C 346.734375 249.71875 346.472656 249.132812 338.535156 251.472656 C 338.40625 251.539062 338.277344 251.667969 338.277344 251.863281 L 338.277344 255.636719 C 338.277344 255.765625 338.40625 255.960938 338.535156 255.960938 Z M 260.992188 272.15625 C 259.886719 271.894531 258.914062 271.699219 258.132812 271.503906 L 257.546875 271.375 C 256.050781 270.984375 255.464844 270.855469 254.75 271.046875 C 253.902344 271.242188 253.121094 271.828125 252.472656 272.738281 C 252.40625 272.804688 252.40625 272.933594 252.40625 273.066406 C 252.40625 273.195312 252.472656 273.261719 252.601562 273.324219 L 256.308594 275.210938 C 255.726562 276.511719 255.59375 277.292969 256.050781 277.746094 C 256.179688 277.878906 256.375 277.941406 256.636719 277.941406 C 256.960938 277.941406 257.480469 277.8125 258.328125 277.617188 C 258.652344 277.550781 258.976562 277.421875 259.433594 277.355469 C 260.082031 277.164062 260.667969 277.03125 261.058594 276.96875 C 261.253906 276.902344 261.320312 276.773438 261.320312 276.578125 L 261.320312 272.609375 C 261.320312 272.347656 261.1875 272.21875 260.992188 272.15625 Z M 360.328125 269.226562 C 360.261719 268.578125 360.132812 267.535156 343.285156 268.253906 L 343.023438 268.253906 L 342.960938 268.511719 C 341.660156 273.128906 340.683594 277.878906 339.96875 282.625 C 339.511719 285.8125 339.121094 289 338.925781 292.25 L 333.460938 289.582031 C 333.917969 288.738281 334.308594 287.828125 334.761719 286.851562 C 335.152344 285.941406 334.828125 284.835938 334.046875 284.25 L 311.605469 268.316406 L 311.410156 268.511719 C 309.066406 270.464844 306.59375 272.21875 304.058594 273.78125 C 301.910156 275.082031 299.636719 276.316406 297.292969 277.355469 L 297.097656 277.488281 L 297.488281 303.890625 C 297.488281 304.605469 297.878906 305.257812 298.464844 305.648438 C 298.855469 305.90625 299.246094 306.039062 299.636719 306.039062 C 299.894531 306.039062 300.15625 305.972656 300.414062 305.90625 C 300.609375 305.84375 300.804688 305.777344 301 305.710938 L 299.894531 313.125 L 303.277344 345.320312 C 293.324219 348.117188 292.675781 349.089844 292.738281 349.871094 C 292.804688 350.328125 292.933594 350.976562 297.945312 350.976562 C 300.285156 350.976562 303.667969 350.847656 308.675781 350.457031 L 309.003906 350.457031 L 310.628906 312.671875 L 311.34375 302.460938 C 313.621094 301.941406 315.507812 301.550781 317.132812 301.289062 C 320.191406 300.769531 322.402344 300.378906 324.875 299.015625 C 325.527344 298.6875 326.109375 298.296875 326.695312 297.910156 C 328.648438 300.121094 330.988281 301.875 333.59375 303.113281 C 335.804688 304.152344 338.082031 305.257812 340.226562 305.257812 C 340.878906 305.257812 341.527344 305.128906 342.179688 304.867188 C 346.601562 303.113281 347.1875 295.4375 347.839844 286.59375 C 348.164062 282.300781 348.164062 278.007812 347.839844 273.78125 C 360.523438 270.722656 360.394531 269.8125 360.328125 269.226562 Z M 183.90625 46.804688 C 184.621094 48.171875 185.011719 49.667969 185.144531 51.160156 C 185.207031 52.332031 185.078125 53.503906 184.816406 54.609375 L 184.816406 54.871094 C 185.339844 56.039062 186.507812 56.886719 187.808594 56.886719 L 187.941406 56.886719 C 189.175781 56.820312 190.28125 56.039062 190.800781 54.871094 C 190.867188 54.804688 190.867188 54.675781 190.800781 54.609375 C 190.28125 53.246094 190.28125 52.203125 190.738281 51.554688 C 191.0625 51.097656 191.453125 51.03125 191.972656 50.902344 C 192.492188 50.773438 193.078125 50.644531 193.664062 50.1875 C 195.679688 48.496094 195.097656 44.789062 194.640625 41.796875 C 194.445312 40.625 194.183594 39.523438 193.859375 38.417969 C 193.859375 38.285156 193.730469 38.222656 193.664062 38.222656 C 193.601562 38.15625 193.46875 38.15625 193.339844 38.222656 C 192.039062 38.742188 190.609375 38.9375 189.175781 38.9375 C 187.875 38.9375 186.507812 38.675781 185.273438 38.222656 C 185.144531 38.15625 185.011719 38.222656 184.882812 38.285156 C 184.753906 38.351562 184.753906 38.546875 184.816406 38.675781 C 185.011719 39.261719 185.339844 40.367188 184.949219 41.601562 C 184.816406 42.125 184.558594 42.644531 184.230469 43.097656 C 183.386719 43.226562 182.671875 43.878906 182.542969 44.789062 C 182.476562 45.632812 183.0625 46.480469 183.90625 46.804688 Z M 248.4375 126.410156 L 229.378906 101.566406 L 229.25 101.433594 L 200.691406 87.648438 C 200.625 87.648438 200.558594 87.582031 200.496094 87.582031 L 178.964844 89.859375 C 178.769531 89.859375 178.636719 90.054688 178.636719 90.25 L 178.636719 103.257812 C 178.636719 103.386719 178.703125 103.453125 178.769531 103.515625 L 204.789062 124.976562 L 215.976562 149.496094 C 216.042969 149.625 216.171875 149.691406 216.304688 149.691406 L 216.367188 149.691406 L 223.132812 148.457031 C 223.265625 148.457031 223.328125 148.390625 223.394531 148.261719 C 223.457031 148.195312 223.457031 148.066406 223.457031 147.9375 L 216.042969 118.476562 C 216.042969 118.410156 215.976562 118.34375 215.976562 118.28125 L 201.925781 103.582031 L 222.9375 109.761719 L 243.167969 133.171875 C 243.234375 133.238281 243.363281 133.304688 243.496094 133.304688 C 243.625 133.304688 243.691406 133.238281 243.753906 133.171875 L 248.632812 126.667969 C 248.503906 126.667969 248.503906 126.539062 248.4375 126.410156 Z M 206.546875 57.144531 L 210.902344 53.503906 C 210.96875 53.4375 210.96875 53.4375 211.035156 53.375 L 219.621094 32.105469 C 221.636719 31.78125 223.457031 30.9375 224.890625 29.699219 C 225.539062 29.113281 227.6875 27.164062 227.035156 26.121094 C 226.644531 25.472656 225.476562 25.210938 219.554688 27.488281 C 219.621094 24.628906 219.359375 24.367188 218.96875 24.304688 C 218.449219 24.238281 218.058594 24.496094 216.757812 29.179688 L 205.894531 48.300781 L 201.992188 51.617188 C 201.863281 51.683594 201.863281 51.878906 201.863281 52.007812 C 202.25 53.308594 202.835938 54.414062 203.683594 55.453125 C 204.332031 56.234375 205.050781 56.882812 205.960938 57.40625 C 206.023438 57.472656 206.089844 57.472656 206.15625 57.472656 C 206.21875 57.472656 206.351562 57.472656 206.414062 57.40625 L 206.546875 57.144531 M 170.375 54.347656 C 169.335938 54.21875 168.292969 54.023438 167.253906 53.894531 L 149.558594 39 C 145.199219 33.148438 144.746094 33.472656 144.289062 33.734375 C 143.964844 33.925781 143.835938 34.382812 144.355469 36.007812 C 138.761719 33.796875 138.242188 34.644531 137.980469 35.035156 C 137.851562 35.292969 137.785156 35.617188 137.914062 36.007812 C 138.371094 37.308594 140.320312 39.324219 142.664062 40.300781 C 143.703125 40.753906 144.875 40.949219 146.046875 40.949219 L 161.269531 58.835938 C 161.335938 58.902344 161.335938 58.902344 161.398438 58.964844 C 163.414062 59.617188 165.433594 60.265625 167.382812 60.917969 L 167.773438 60.65625 L 168.035156 60.136719 C 168.359375 59.484375 169.269531 57.664062 169.335938 57.601562 C 169.726562 56.882812 170.117188 55.84375 170.375 54.347656 Z M 215.523438 182.078125 C 217.734375 184.160156 222.222656 182.46875 227.753906 180.453125 C 231.003906 179.28125 251.625 171.738281 251.496094 157.039062 C 251.429688 149.625 246.097656 140.519531 239.785156 140 C 226.515625 138.894531 208.953125 175.902344 215.523438 182.078125 Z M 173.757812 180.324219 C 171.546875 182.40625 167.058594 180.714844 161.527344 178.699219 C 158.277344 177.527344 137.65625 169.984375 137.785156 155.285156 C 137.851562 147.871094 143.183594 138.765625 149.496094 138.246094 C 162.832031 137.140625 180.328125 174.144531 173.757812 180.324219 "/>
</g>
<path style=" stroke:none;fill-rule:nonzero;fill:rgb(16.859436%,21.958923%,14.509583%);fill-opacity:1;" d="M 253.449219 221.425781 C 252.148438 222.726562 245.382812 229.6875 240.375 241.261719 C 237.445312 248.089844 235.691406 255.375 235.039062 263.113281 C 221.507812 266.367188 207.589844 267.925781 193.667969 267.796875 C 180.851562 267.730469 168.035156 266.171875 155.546875 263.246094 C 155.222656 260.773438 154.699219 258.367188 154.179688 255.960938 L 177.339844 206.273438 C 177.597656 205.6875 177.339844 205.039062 176.820312 204.777344 C 176.234375 204.515625 175.582031 204.777344 175.320312 205.296875 L 171.550781 213.425781 L 141.105469 213.425781 L 145.464844 203.800781 C 145.722656 203.214844 145.464844 202.566406 144.878906 202.304688 C 144.292969 202.046875 143.640625 202.304688 143.382812 202.890625 L 138.242188 214.140625 L 135.769531 219.539062 L 135.511719 219.28125 C 110.074219 188.519531 107.277344 146.246094 128.746094 116.457031 C 152.554688 83.550781 193.992188 84.003906 198.675781 84.199219 C 229.183594 84.328125 256.574219 100.523438 270.039062 126.410156 C 286.171875 157.105469 279.277344 196.128906 253.449219 221.425781 Z M 227.300781 280.933594 C 217.152344 282.820312 206.742188 283.796875 196.398438 283.796875 L 195.75 283.796875 C 185.664062 283.730469 175.453125 282.820312 165.5 281 C 165.109375 280.933594 164.847656 280.542969 164.914062 280.152344 C 164.980469 279.761719 165.371094 279.503906 165.757812 279.570312 C 175.648438 281.390625 185.730469 282.363281 195.75 282.363281 C 206.222656 282.429688 216.695312 281.453125 226.972656 279.570312 C 227.363281 279.503906 227.753906 279.761719 227.820312 280.152344 C 227.949219 280.480469 227.6875 280.871094 227.300781 280.933594 Z M 226.519531 293.746094 C 216.371094 295.632812 205.960938 296.609375 195.617188 296.609375 L 194.96875 296.609375 C 184.886719 296.542969 174.671875 295.632812 164.71875 293.8125 C 164.328125 293.746094 164.066406 293.355469 164.132812 292.964844 C 164.199219 292.574219 164.589844 292.316406 164.980469 292.378906 C 174.867188 294.203125 184.949219 295.175781 194.96875 295.175781 C 205.441406 295.242188 215.914062 294.265625 226.191406 292.378906 C 226.582031 292.316406 226.972656 292.574219 227.039062 292.964844 C 227.234375 293.292969 226.972656 293.679688 226.519531 293.746094 Z M 226.191406 306.492188 C 216.042969 308.378906 205.636719 309.355469 195.292969 309.355469 L 194.644531 309.355469 C 184.558594 309.289062 174.347656 308.378906 164.394531 306.558594 C 164.003906 306.492188 163.742188 306.101562 163.808594 305.710938 C 163.871094 305.324219 164.261719 305.0625 164.652344 305.128906 C 174.542969 306.949219 184.625 307.925781 194.644531 307.925781 C 205.050781 307.925781 215.589844 307.011719 225.867188 305.128906 C 226.257812 305.0625 226.648438 305.324219 226.714844 305.710938 C 226.84375 306.039062 226.582031 306.429688 226.191406 306.492188 Z M 150.796875 257.976562 L 120.808594 257.976562 L 126.988281 244.449219 L 149.953125 244.449219 C 151.121094 247.441406 152.097656 250.433594 152.878906 253.554688 Z M 144.488281 271.4375 L 114.628906 271.4375 L 119.769531 260.1875 L 149.757812 260.1875 Z M 137.332031 286.789062 L 107.667969 286.789062 L 113.652344 273.714844 L 143.445312 273.714844 Z M 130.828125 300.835938 L 101.292969 300.835938 L 106.628906 289.0625 L 136.289062 289.0625 Z M 123.605469 316.3125 L 94.203125 316.3125 L 100.253906 303.113281 L 129.785156 303.113281 Z M 117.164062 330.101562 L 87.957031 330.101562 L 93.226562 318.523438 L 122.566406 318.523438 Z M 133.167969 230.726562 L 143.054688 230.726562 C 144.355469 232.871094 145.789062 235.34375 147.089844 238.074219 C 147.738281 239.441406 148.324219 240.808594 148.910156 242.171875 L 127.964844 242.171875 Z M 137.070312 222.207031 C 138.308594 223.769531 139.933594 225.847656 141.625 228.449219 L 134.210938 228.449219 Z M 142.535156 228.449219 C 140.585938 225.457031 138.761719 223.050781 137.398438 221.425781 L 140 215.703125 L 170.441406 215.703125 L 164.523438 228.449219 Z M 157.109375 244.449219 L 153.335938 252.511719 C 152.617188 249.78125 151.707031 247.050781 150.734375 244.449219 Z M 149.820312 242.171875 C 149.171875 240.675781 148.519531 239.179688 147.804688 237.683594 C 146.570312 235.085938 145.269531 232.742188 143.96875 230.660156 L 163.484375 230.660156 L 158.148438 242.109375 Z M 270.820312 126.085938 C 257.15625 99.941406 229.574219 83.617188 198.804688 83.421875 C 194.121094 83.226562 152.230469 82.769531 128.222656 116.003906 C 117.882812 130.3125 112.808594 148.457031 113.976562 167.121094 C 115.148438 185.980469 122.566406 204.648438 134.988281 219.734375 L 135.445312 220.253906 L 131.410156 229.101562 L 125.167969 242.824219 L 118.011719 258.628906 L 104.871094 287.4375 L 91.40625 316.964844 L 85.09375 330.75 L 81.386719 338.816406 C 81.125 339.402344 81.386719 340.050781 81.972656 340.3125 C 82.101562 340.378906 82.296875 340.441406 82.429688 340.441406 C 82.882812 340.441406 83.273438 340.183594 83.46875 339.792969 L 86.851562 332.3125 L 116.058594 332.3125 L 113.003906 338.816406 C 112.742188 339.402344 113.003906 340.050781 113.523438 340.3125 C 113.652344 340.378906 113.847656 340.441406 113.976562 340.441406 C 114.433594 340.441406 114.824219 340.183594 115.019531 339.792969 L 153.59375 257.066406 C 154.050781 259.082031 154.441406 261.097656 154.699219 263.179688 C 154.570312 263.179688 154.441406 263.113281 154.308594 263.113281 L 154.308594 315.859375 C 160.75 319.566406 173.761719 325.9375 191.324219 326.65625 C 212.792969 327.566406 228.664062 319.566406 235.105469 315.859375 C 235.234375 308.378906 235.367188 300.835938 235.496094 293.355469 C 234.714844 294.589844 233.804688 295.566406 233.089844 295.4375 C 231.332031 294.980469 231.070312 287.113281 232.761719 286.527344 C 233.480469 286.332031 234.453125 287.308594 235.558594 288.738281 C 235.691406 280.21875 235.886719 271.699219 236.015625 263.113281 C 235.886719 263.113281 235.753906 263.179688 235.625 263.179688 C 236.210938 255.570312 237.96875 248.285156 240.894531 241.523438 C 245.839844 230.011719 252.472656 223.183594 253.773438 221.882812 C 280.054688 196.453125 286.953125 157.042969 270.820312 126.085938 "/>
<path style=" stroke:none;fill-rule:nonzero;fill:rgb(16.859436%,21.958923%,14.509583%);fill-opacity:1;" d="M 311.152344 240.027344 C 311.152344 241.847656 309.71875 243.734375 307.703125 244.449219 C 305.945312 245.097656 303.605469 244.773438 302.5 243.34375 C 300.808594 241.199219 302.953125 237.75 301.523438 236.773438 C 300.613281 236.191406 299.441406 237.492188 297.488281 237.359375 C 295.34375 237.230469 293.652344 235.277344 292.609375 233.589844 C 292.804688 234.433594 293.066406 236.191406 292.546875 238.269531 C 292.089844 240.089844 291.179688 241.390625 290.59375 242.042969 C 290.203125 241.585938 289.878906 241.132812 289.488281 240.546875 C 288.773438 239.441406 288.382812 238.464844 288.121094 237.621094 C 288.578125 236.515625 288.058594 235.34375 287.210938 234.953125 C 286.367188 234.5625 285.457031 235.148438 285.390625 235.148438 C 284.804688 235.148438 283.894531 235.019531 282.917969 234.628906 C 281.617188 234.109375 280.773438 233.394531 280.25 232.9375 C 280.121094 233.589844 279.796875 234.695312 279.015625 235.800781 C 278.363281 236.710938 277.714844 237.296875 277.195312 237.621094 C 277.128906 238.207031 277 239.179688 277.257812 240.351562 C 276.414062 240.027344 273.875 238.792969 273.09375 236.382812 C 272.054688 233.066406 274.527344 228.386719 279.859375 226.304688 C 279.796875 222.46875 281.488281 219.28125 284.15625 218.175781 C 286.234375 217.328125 288.316406 217.980469 288.839844 218.175781 C 292.675781 219.476562 292.285156 222.855469 295.667969 224.613281 C 299.832031 226.757812 303.605469 223.378906 305.554688 225.523438 C 307.183594 227.28125 304.644531 229.6875 306.140625 233.457031 C 307.703125 237.101562 311.152344 237.296875 311.152344 240.027344 Z M 194.1875 39.847656 C 194.121094 39.976562 193.992188 40.105469 193.925781 40.238281 C 193.796875 39.519531 193.601562 38.9375 193.472656 38.546875 C 192.5625 38.871094 191.066406 39.324219 189.179688 39.261719 C 187.421875 39.261719 186.054688 38.871094 185.144531 38.546875 C 185.339844 39.066406 185.730469 40.238281 185.273438 41.730469 C 185.078125 42.511719 184.691406 43.097656 184.363281 43.488281 C 183.582031 43.488281 183 44.074219 182.867188 44.855469 C 182.804688 45.632812 183.324219 46.351562 184.105469 46.546875 C 184.625 47.453125 185.339844 49.082031 185.46875 51.226562 L 185.46875 51.8125 C 179.289062 49.796875 176.234375 44.269531 177.402344 40.300781 C 178.445312 36.984375 182.21875 35.554688 182.867188 35.292969 C 184.039062 32.625 186.445312 30.871094 189.179688 30.742188 C 191.910156 30.675781 195.292969 32.367188 195.75 35.292969 C 196.203125 37.570312 194.449219 39.519531 194.1875 39.847656 Z M 115.605469 225.457031 C 115.472656 226.238281 115.277344 226.953125 115.082031 227.667969 C 113.457031 232.289062 109.554688 234.695312 107.277344 235.667969 C 108.773438 231.703125 110.269531 227.800781 111.703125 223.832031 Z M 113.328125 189.625 C 112.742188 191.640625 112.089844 193.65625 111.507812 195.671875 C 111.3125 194.175781 110.921875 193.003906 110.59375 192.160156 C 109.878906 192.355469 108.515625 192.617188 106.953125 192.289062 C 105.78125 192.09375 104.871094 191.640625 104.285156 191.25 C 104.15625 191.898438 103.960938 192.875 103.375 193.917969 C 102.722656 195.152344 101.8125 195.996094 101.292969 196.386719 C 100.316406 196.257812 99.472656 196.777344 99.339844 197.429688 C 99.144531 198.207031 99.863281 199.3125 101.097656 199.378906 C 101.292969 200.808594 101.292969 202.761719 100.835938 205.039062 C 100.578125 206.273438 100.1875 207.3125 99.796875 208.222656 L 92.902344 207.054688 L 83.273438 215.898438 C 82.6875 214.597656 82.363281 213.230469 82.882812 211.605469 C 84.121094 207.835938 87.828125 208.417969 89.777344 204.0625 C 91.535156 200.03125 89 198.207031 90.558594 194.046875 C 92.121094 189.949219 96.347656 187.28125 100.1875 186.371094 C 107.34375 184.617188 112.808594 189.105469 113.328125 189.625 Z M 85.617188 224.417969 C 84.507812 230.464844 77.484375 232.351562 78.265625 236.320312 C 78.785156 238.792969 81.90625 240.417969 85.160156 241.328125 L 90.429688 233.261719 L 90.949219 220.515625 Z M 111.570312 196.324219 C 111.570312 196.0625 111.507812 195.800781 111.507812 195.605469 C 112.089844 196.519531 113.585938 198.792969 113.457031 201.980469 C 113.328125 206.273438 110.53125 209.132812 109.164062 210.242188 L 106.433594 209.265625 L 106.433594 203.867188 C 108.578125 204.191406 109.683594 203.476562 110.074219 203.214844 C 112.027344 201.71875 111.765625 198.46875 111.570312 196.324219 "/>
<path style=" stroke:none;fill-rule:nonzero;fill:rgb(16.859436%,21.958923%,14.509583%);fill-opacity:1;" d="M 40.210938 134.410156 L 69.222656 134.410156 C 71.5 133.433594 72.800781 131.089844 72.476562 128.683594 C 72.148438 126.277344 70.199219 124.394531 67.792969 124.066406 L 67.597656 124.066406 L 67.53125 123.871094 C 65.96875 118.605469 61.09375 114.898438 55.757812 114.898438 L 55.5 114.898438 L 55.433594 114.636719 C 54.914062 112.425781 53.9375 110.214844 52.636719 108.265625 C 49.773438 104.035156 45.542969 101.242188 41.058594 100.523438 C 34.8125 99.550781 28.046875 102.671875 23.820312 108.394531 L 23.621094 108.71875 L 23.363281 108.460938 C 22.386719 107.484375 19.003906 104.492188 14.449219 105.273438 C 10.089844 105.988281 6.578125 110.019531 6.1875 114.769531 L 6.1875 114.960938 L 5.992188 115.027344 C 3.261719 116.394531 1.4375 119.058594 1.179688 122.050781 C 0.921875 125.5 2.933594 128.816406 6.125 130.3125 L 36.308594 130.3125 L 36.375 130.507812 C 36.890625 132.199219 38.324219 133.628906 40.210938 134.410156 Z M 69.351562 135.125 L 40.015625 135.058594 C 38 134.214844 36.4375 132.71875 35.785156 131.027344 L 5.800781 131.027344 C 2.351562 129.402344 0.203125 125.824219 0.464844 122.117188 C 0.660156 118.996094 2.609375 116.132812 5.472656 114.636719 C 5.992188 109.695312 9.703125 105.53125 14.257812 104.753906 C 18.742188 103.972656 22.191406 106.703125 23.492188 107.875 C 27.851562 102.085938 34.746094 99.027344 41.121094 100.003906 C 45.871094 100.71875 50.226562 103.648438 53.15625 108.003906 C 54.457031 109.957031 55.433594 112.101562 55.953125 114.378906 C 61.417969 114.507812 66.359375 118.28125 68.050781 123.613281 C 70.652344 124.066406 72.734375 126.148438 73.125 128.75 C 73.515625 131.417969 72.019531 134.082031 69.484375 135.125 Z M 334.050781 84.527344 L 368.203125 84.527344 C 370.867188 83.421875 372.429688 80.625 372.039062 77.824219 C 371.648438 74.964844 369.371094 72.753906 366.445312 72.429688 L 366.25 72.429688 L 366.183594 72.234375 C 364.234375 65.664062 358.054688 61.179688 351.417969 61.632812 C 351.222656 61.632812 350.964844 61.699219 350.769531 61.699219 L 350.378906 61.761719 L 350.3125 61.4375 C 349.792969 58.707031 348.621094 55.976562 346.996094 53.570312 C 343.742188 48.753906 338.929688 45.503906 333.722656 44.722656 C 326.503906 43.617188 318.761719 47.195312 313.949219 53.828125 L 313.753906 54.15625 L 313.492188 53.894531 C 312.386719 52.789062 308.484375 49.277344 303.214844 50.121094 C 298.207031 50.96875 294.171875 55.585938 293.71875 61.050781 L 293.71875 61.242188 L 293.523438 61.308594 C 290.335938 62.867188 288.253906 65.925781 287.992188 69.371094 C 287.730469 73.273438 290.007812 77.113281 293.652344 78.867188 L 329.234375 78.867188 L 329.300781 79.125 C 329.496094 81.273438 331.382812 83.421875 334.050781 84.527344 Z M 368.332031 85.175781 L 333.855469 85.113281 C 331.058594 83.941406 329.039062 81.726562 328.648438 79.386719 L 293.390625 79.386719 C 289.488281 77.566406 287.015625 73.46875 287.34375 69.242188 C 287.601562 65.664062 289.75 62.414062 293.066406 60.722656 C 293.652344 55.0625 297.816406 50.316406 303.085938 49.40625 C 308.289062 48.558594 312.257812 51.683594 313.6875 53.046875 C 318.695312 46.414062 326.570312 42.839844 333.855469 44.007812 C 339.253906 44.855469 344.261719 48.171875 347.582031 53.179688 C 349.207031 55.585938 350.3125 58.25 350.898438 61.050781 C 351.027344 61.050781 351.222656 60.984375 351.351562 60.984375 C 358.183594 60.527344 364.625 65.082031 366.707031 71.84375 C 369.761719 72.296875 372.167969 74.707031 372.625 77.824219 C 373.082031 80.949219 371.324219 84.003906 368.332031 85.175781 "/>
<path style=" stroke:none;fill-rule:nonzero;fill:rgb(16.859436%,21.958923%,14.509583%);fill-opacity:1;" d="M 243.238281 133.109375 L 247.269531 136.488281 C 251.5 132.132812 255.660156 127.773438 259.890625 123.351562 C 259.042969 122.765625 257.808594 122.117188 256.378906 122.246094 C 254.6875 122.441406 253.839844 123.675781 251.367188 125.367188 C 250.261719 126.148438 248.894531 126.929688 247.269531 127.710938 Z M 216.175781 149.300781 C 216.628906 151.058594 217.085938 152.8125 217.542969 154.570312 C 223.785156 153.398438 229.964844 152.226562 236.210938 151.058594 C 235.820312 150.015625 235.039062 148.519531 233.675781 147.9375 C 232.046875 147.285156 230.679688 148.261719 228.015625 148.585938 C 226.648438 148.78125 224.632812 148.847656 221.964844 148.261719 Z M 255.921875 280.023438 C 257.351562 277.226562 257.15625 274.105469 255.464844 272.414062 C 254.230469 271.179688 251.695312 270.074219 250.261719 271.242188 C 249.351562 272.023438 249.027344 273.648438 249.480469 275.210938 C 249.546875 275.339844 249.480469 275.472656 249.417969 275.535156 C 251.5625 277.097656 253.773438 278.527344 255.921875 280.023438 Z M 260.539062 283.144531 C 259.628906 284.964844 258.457031 286.917969 257.027344 288.933594 C 255.53125 291.144531 253.96875 292.964844 252.539062 294.527344 C 251.304688 293.679688 250.003906 292.835938 248.765625 292.054688 L 235.691406 291.796875 C 235.105469 293.097656 234.519531 293.941406 234.128906 293.875 C 233.152344 293.679688 232.957031 288.347656 233.933594 288.089844 C 234.390625 287.957031 235.039062 288.804688 235.753906 290.039062 C 238.226562 289.390625 240.699219 288.671875 243.105469 288.023438 C 241.871094 286.851562 240.570312 285.683594 239.332031 284.511719 C 239.984375 282.691406 241.15625 280.21875 243.171875 277.683594 C 244.472656 276.054688 245.839844 274.886719 246.945312 273.976562 C 247.53125 274.367188 248.117188 274.753906 248.636719 275.144531 C 248.179688 273.324219 248.636719 271.632812 249.742188 270.722656 C 251.5625 269.226562 254.554688 270.464844 255.988281 271.894531 C 257.9375 273.910156 258.199219 277.292969 256.574219 280.414062 C 257.875 281.324219 259.238281 282.234375 260.539062 283.144531 Z M 249.417969 158.730469 C 248.179688 156.066406 245.382812 153.398438 242.78125 153.398438 L 242.457031 153.398438 C 238.226562 153.722656 235.367188 161.074219 232.566406 168.097656 C 229.964844 174.601562 227.753906 180.195312 225.867188 185.007812 C 232.242188 184.226562 238.164062 181.558594 242.324219 177.65625 C 246.75 173.558594 252.277344 165.039062 249.417969 158.730469 Z M 167.972656 183.511719 C 162.117188 163.609375 155.480469 151.773438 150.015625 151.773438 L 149.886719 151.773438 C 145.917969 151.902344 141.496094 158.535156 141.496094 164.453125 C 141.496094 173.558594 152.75 180.257812 159.90625 182.273438 C 159.90625 182.273438 163.484375 183.316406 167.972656 183.511719 Z M 243.886719 179.347656 C 239.074219 183.835938 232.242188 186.761719 224.957031 187.414062 C 220.921875 197.753906 218.320312 204.648438 217.734375 207.445312 C 214.679688 221.6875 213.769531 236.449219 215.070312 251.148438 L 212.792969 251.34375 C 211.492188 236.382812 212.402344 221.425781 215.523438 206.921875 C 216.109375 204.125 218.515625 197.6875 222.484375 187.542969 L 222.484375 187.476562 C 215.65625 187.609375 209.800781 185.589844 206.613281 181.882812 C 203.945312 178.894531 203.164062 174.992188 202.515625 171.542969 C 201.796875 167.835938 201.148438 164.585938 198.414062 163.542969 C 197.246094 163.089844 195.8125 163.089844 194.316406 163.542969 C 191.390625 164.519531 190.414062 167.382812 189.242188 171.023438 C 188.203125 174.144531 187.03125 177.722656 184.234375 180.582031 C 181.113281 183.707031 176.6875 185.460938 171.027344 185.722656 L 171.027344 185.785156 C 173.109375 193.265625 174.933594 201.332031 176.167969 208.550781 C 178.445312 222.078125 179.160156 235.863281 178.316406 249.652344 L 176.039062 249.523438 C 176.882812 235.929688 176.167969 222.273438 173.890625 208.941406 C 172.65625 201.589844 170.769531 193.394531 168.621094 185.785156 C 163.484375 185.65625 159.449219 184.484375 159.253906 184.421875 C 151.1875 182.078125 139.21875 174.859375 139.21875 164.390625 C 139.21875 157.820312 144.097656 149.691406 149.757812 149.496094 C 158.472656 149.171875 165.695312 167.640625 170.25 183.511719 C 175.582031 183.378906 179.746094 181.882812 182.476562 179.023438 C 184.949219 176.550781 185.992188 173.363281 186.964844 170.375 C 188.269531 166.472656 189.4375 162.828125 193.472656 161.464844 C 195.488281 160.8125 197.441406 160.8125 199.132812 161.464844 C 202.96875 162.960938 203.75 166.925781 204.597656 171.089844 C 205.246094 174.40625 205.960938 177.851562 208.171875 180.390625 C 211.101562 183.707031 216.695312 185.460938 223.265625 185.136719 C 225.21875 180.128906 227.558594 174.144531 230.355469 167.1875 C 233.542969 159.121094 236.535156 151.511719 242.128906 151.058594 C 246.035156 150.734375 249.808594 154.246094 251.367188 157.691406 C 255.078125 165.820312 248.117188 175.382812 243.886719 179.347656 Z M 117.75 300.316406 C 118.140625 301.355469 118.464844 302.332031 118.855469 303.371094 C 128.222656 300.964844 132.777344 299.40625 132.648438 298.558594 C 132.519531 297.910156 129.394531 297.777344 123.152344 298.167969 Z M 62.785156 249.71875 C 55.105469 252.578125 51.074219 253.554688 50.621094 252.707031 C 50.164062 251.796875 54.195312 248.546875 62.785156 242.953125 L 66.554688 246.140625 L 62.785156 249.71875 "/>
<path style=" stroke:none;fill-rule:nonzero;fill:rgb(70.588684%,85.879517%,73.329163%);fill-opacity:1;" d="M 99.992188 207.769531 C 97.648438 207.507812 95.242188 207.183594 92.902344 206.921875 L 79.109375 219.671875 C 73.386719 222.140625 67.660156 224.679688 62.003906 227.148438 C 62.523438 228.96875 63.109375 230.726562 63.628906 232.546875 C 69.546875 230.855469 75.402344 229.164062 81.320312 227.476562 L 91.078125 220.449219 L 90.558594 233.261719 C 91.992188 234.304688 94.203125 235.734375 97.195312 236.644531 C 101.226562 237.878906 104.675781 237.683594 106.628906 237.425781 C 108.320312 232.871094 110.074219 228.320312 111.765625 223.769531 L 121.328125 227.539062 C 127.378906 228.644531 133.429688 229.75 139.414062 230.792969 C 140.195312 229.554688 140.910156 228.320312 141.691406 227.085938 C 136.097656 225.457031 130.4375 223.769531 124.839844 222.140625 L 111.703125 211.085938 C 110.011719 210.371094 108.382812 209.65625 106.691406 208.941406 C 106.496094 209.132812 105.195312 210.242188 103.246094 209.980469 C 101.164062 209.785156 100.121094 207.964844 99.992188 207.769531 Z M 184.820312 54.609375 C 182.414062 54.546875 179.941406 54.414062 177.535156 54.351562 C 174.671875 54.222656 171.746094 54.15625 168.882812 54.023438 C 168.6875 54.871094 168.425781 55.910156 167.972656 57.015625 C 167.320312 58.640625 166.476562 59.941406 165.824219 60.855469 C 167.710938 61.761719 169.664062 62.675781 171.746094 63.519531 C 173.628906 64.300781 175.453125 65.082031 177.207031 65.796875 C 177.339844 70.933594 177.535156 76.199219 177.859375 81.535156 C 178.054688 84.851562 178.316406 88.167969 178.574219 91.355469 C 181.175781 91.8125 184.558594 92.199219 188.59375 91.875 C 194.449219 91.355469 199.066406 89.597656 201.929688 88.167969 C 201.40625 84.527344 200.953125 80.691406 200.628906 76.65625 C 200.238281 72.296875 200.042969 68.203125 199.910156 64.234375 C 200.824219 63.261719 201.734375 62.285156 202.710938 61.242188 C 204.464844 59.421875 206.15625 57.730469 207.847656 56.039062 C 207.066406 55.652344 205.898438 54.933594 204.789062 53.699219 C 203.816406 52.59375 203.230469 51.421875 202.96875 50.707031 C 200.496094 51.421875 197.960938 52.203125 195.421875 53.050781 C 193.730469 53.570312 192.105469 54.15625 190.480469 54.675781 C 190.347656 54.871094 189.4375 55.976562 187.8125 55.976562 C 185.925781 56.039062 184.886719 54.738281 184.820312 54.609375 Z M 287.34375 246.660156 C 284.347656 249.328125 282.851562 251.929688 282.074219 253.8125 C 281.421875 255.375 281.226562 256.414062 280.316406 259.601562 C 279.40625 262.660156 278.558594 265.066406 278.039062 266.625 C 276.152344 267.796875 273.421875 269.226562 269.90625 270.269531 C 266.523438 271.242188 263.53125 271.503906 261.320312 271.570312 L 261.320312 277.421875 C 262.882812 277.550781 265.160156 277.550781 267.828125 277.292969 C 271.273438 276.96875 275.566406 276.511719 279.992188 273.910156 C 284.675781 271.179688 287.277344 267.277344 288.707031 264.742188 C 289.945312 266.234375 291.179688 268.058594 292.480469 270.136719 C 294.171875 273 295.277344 275.667969 296.058594 277.878906 C 298.597656 276.835938 301.457031 275.40625 304.582031 273.453125 C 307.507812 271.570312 309.914062 269.617188 311.867188 267.863281 C 310.628906 266.367188 308.9375 263.960938 307.769531 260.644531 C 306.792969 257.976562 306.46875 255.570312 306.335938 253.8125 C 309.914062 255.246094 314.988281 256.804688 321.167969 257.390625 C 328.257812 258.105469 334.246094 257.328125 338.34375 256.414062 L 338.34375 251.148438 L 320.648438 251.148438 C 318.632812 249.847656 315.835938 248.089844 312.386719 246.140625 C 305.296875 242.109375 303.28125 241.652344 301.914062 241.523438 C 300.027344 241.328125 296.578125 241.261719 292.222656 243.472656 C 292.871094 244.96875 292.285156 246.660156 290.984375 247.375 C 289.75 248.027344 288.253906 247.699219 287.34375 246.660156 Z M 337.105469 329.582031 L 364.882812 330.035156 C 367.160156 329.972656 369.046875 328.148438 369.242188 325.9375 C 369.503906 323.664062 367.941406 321.515625 365.664062 320.996094 C 365.859375 320.671875 366.964844 318.65625 366.121094 316.445312 C 365.210938 314.039062 362.476562 312.738281 360.003906 313.191406 C 356.949219 313.710938 355.710938 316.769531 355.648438 316.898438 C 354.996094 314.039062 352.394531 312.476562 350.246094 313.0625 C 348.75 313.453125 347.582031 314.949219 347.320312 316.769531 C 345.824219 314.363281 342.832031 313.453125 340.292969 314.492188 C 337.886719 315.535156 336.457031 318.199219 337.042969 320.867188 C 334.828125 320.996094 333.140625 322.621094 332.878906 324.574219 C 332.617188 326.980469 334.503906 329.320312 337.105469 329.582031 Z M 25.3125 327.890625 L 53.089844 328.34375 C 55.367188 328.28125 57.25 326.460938 57.445312 324.25 C 57.707031 321.972656 56.144531 319.824219 53.871094 319.304688 C 54.066406 318.980469 55.171875 316.964844 54.324219 314.753906 C 53.414062 312.347656 50.683594 311.046875 48.210938 311.5 C 45.152344 312.019531 43.914062 315.078125 43.851562 315.207031 C 43.203125 312.347656 40.597656 310.785156 38.453125 311.371094 C 36.957031 311.761719 35.785156 313.257812 35.523438 315.078125 C 34.027344 312.671875 31.035156 311.761719 28.5 312.800781 C 26.09375 313.84375 24.660156 316.507812 25.246094 319.175781 C 23.035156 319.304688 21.34375 320.929688 21.082031 322.882812 C 20.820312 325.289062 22.644531 327.695312 25.3125 327.890625 Z M 250.003906 323.011719 C 249.742188 321.0625 247.984375 319.433594 245.839844 319.304688 C 246.425781 316.640625 244.992188 313.972656 242.585938 312.933594 C 240.050781 311.828125 237.058594 312.800781 235.558594 315.207031 C 235.300781 313.386719 234.128906 311.890625 232.632812 311.5 C 230.550781 310.914062 227.882812 312.476562 227.234375 315.339844 C 227.167969 315.144531 225.933594 312.152344 222.875 311.632812 C 220.402344 311.175781 217.671875 312.542969 216.761719 314.882812 C 215.914062 317.09375 217.019531 319.109375 217.214844 319.433594 C 214.9375 319.957031 213.441406 322.101562 213.636719 324.378906 C 213.898438 326.589844 215.71875 328.410156 217.996094 328.476562 L 245.773438 328.019531 C 248.441406 327.695312 250.261719 325.289062 250.003906 323.011719 Z M 141.363281 323.011719 C 141.625 321.0625 143.382812 319.433594 145.527344 319.304688 C 144.941406 316.640625 146.375 313.972656 148.78125 312.933594 C 151.316406 311.828125 154.308594 312.800781 155.804688 315.207031 C 156.066406 313.386719 157.238281 311.890625 158.734375 311.5 C 160.816406 310.914062 163.484375 312.476562 164.132812 315.339844 C 164.199219 315.144531 165.433594 312.152344 168.492188 311.632812 C 170.964844 311.175781 173.695312 312.542969 174.605469 314.882812 C 175.453125 317.09375 174.347656 319.109375 174.152344 319.433594 C 176.429688 319.957031 177.925781 322.101562 177.730469 324.378906 C 177.46875 326.589844 175.648438 328.410156 173.371094 328.476562 L 145.59375 328.019531 C 142.859375 327.695312 141.039062 325.289062 141.363281 323.011719 "/>
<g clip-path="url(#clip3)" clip-rule="nonzero">
<path style=" stroke:none;fill-rule:nonzero;fill:rgb(16.859436%,21.958923%,14.509583%);fill-opacity:1;" d="M 292.675781 243.148438 C 292.804688 243.019531 292.804688 242.824219 292.609375 242.691406 C 291.636719 241.847656 290.789062 240.9375 290.140625 239.832031 C 289.617188 239.050781 289.226562 238.207031 288.902344 237.296875 C 289.292969 235.929688 288.707031 234.5 287.539062 233.976562 C 286.5625 233.523438 285.652344 233.914062 285.261719 234.109375 C 284.542969 234.042969 283.828125 233.914062 283.179688 233.652344 C 282.269531 233.328125 281.488281 232.808594 280.773438 232.09375 L 280.25 231.636719 C 280.1875 231.570312 280.054688 231.507812 279.925781 231.570312 C 279.796875 231.636719 279.730469 231.703125 279.730469 231.832031 L 279.601562 232.484375 C 279.40625 233.394531 279.015625 234.304688 278.496094 235.082031 C 278.039062 235.734375 277.519531 236.253906 276.867188 236.773438 L 276.738281 236.839844 C 276.671875 236.90625 276.609375 236.96875 276.609375 237.035156 L 276.609375 237.164062 C 276.414062 238.269531 276.414062 240.027344 277.257812 241.71875 C 278.300781 243.796875 280.640625 245.816406 283.242188 245.554688 C 283.894531 245.488281 284.480469 245.292969 285.066406 244.90625 L 286.496094 246.269531 C 286.5625 246.335938 286.625 246.335938 286.691406 246.335938 C 286.757812 246.335938 286.886719 246.269531 286.953125 246.207031 C 287.082031 246.074219 287.082031 245.878906 286.953125 245.75 L 285.324219 244.253906 C 285.195312 244.125 285.066406 244.125 284.933594 244.1875 C 284.347656 244.578125 283.765625 244.773438 283.179688 244.839844 C 280.902344 245.097656 278.820312 243.214844 277.84375 241.328125 C 277.0625 239.765625 277.0625 238.207031 277.257812 237.164062 L 277.257812 237.101562 C 277.972656 236.578125 278.558594 235.996094 279.082031 235.277344 C 279.664062 234.433594 280.054688 233.457031 280.316406 232.484375 L 280.316406 232.417969 L 280.382812 232.484375 C 281.160156 233.199219 282.007812 233.785156 282.984375 234.171875 C 283.765625 234.433594 284.542969 234.628906 285.324219 234.695312 C 285.390625 234.695312 285.457031 234.695312 285.519531 234.628906 C 285.78125 234.433594 286.5625 234.109375 287.34375 234.433594 C 288.1875 234.824219 288.644531 235.996094 288.316406 237.035156 L 288.316406 237.230469 C 288.644531 238.207031 289.097656 239.117188 289.683594 240.027344 C 290.398438 241.132812 291.308594 242.171875 292.351562 243.019531 C 292.351562 243.277344 292.546875 243.277344 292.675781 243.148438 Z M 338.667969 251.472656 C 346.34375 249.195312 346.605469 249.78125 346.667969 249.976562 C 346.734375 250.171875 346.667969 250.5625 344.847656 251.796875 C 344.71875 251.863281 344.71875 251.992188 344.71875 252.125 C 344.71875 252.253906 344.78125 252.320312 344.914062 252.382812 C 349.53125 254.203125 351.742188 255.375 351.546875 256.089844 C 351.417969 256.546875 350.441406 256.742188 348.492188 256.742188 C 347.839844 256.742188 347.125 256.742188 346.148438 256.675781 C 343.613281 256.546875 341.074219 256.15625 338.667969 255.441406 C 338.472656 255.375 338.34375 255.503906 338.277344 255.636719 C 338.210938 255.832031 338.34375 255.960938 338.472656 256.027344 C 340.945312 256.742188 343.546875 257.195312 346.148438 257.328125 C 347.125 257.390625 347.839844 257.390625 348.492188 257.390625 C 350.574219 257.390625 351.9375 257.195312 352.132812 256.21875 C 352.328125 255.375 351.9375 254.464844 345.628906 251.992188 C 347.058594 250.953125 347.449219 250.367188 347.191406 249.71875 C 346.929688 249 346.605469 248.351562 338.40625 250.824219 C 338.210938 250.886719 338.148438 251.082031 338.210938 251.210938 C 338.277344 251.34375 338.472656 251.539062 338.667969 251.472656 Z M 260.929688 276.25 C 260.539062 276.316406 259.953125 276.511719 259.304688 276.640625 C 258.914062 276.707031 258.652344 276.835938 258.328125 276.902344 L 258.199219 276.96875 C 257.417969 277.164062 256.898438 277.292969 256.574219 277.292969 C 256.378906 277.292969 256.3125 277.226562 256.246094 277.164062 C 255.921875 276.835938 256.050781 276.121094 256.574219 275.015625 C 256.636719 274.886719 256.574219 274.691406 256.441406 274.5625 L 252.734375 272.675781 L 252.734375 272.609375 C 253.320312 271.765625 254.035156 271.242188 254.882812 271.046875 C 255.53125 270.855469 256.050781 270.984375 257.546875 271.375 L 258.132812 271.503906 C 258.914062 271.699219 259.890625 271.894531 260.996094 272.15625 C 261.191406 272.21875 261.320312 272.089844 261.386719 271.894531 C 261.453125 271.699219 261.320312 271.570312 261.125 271.503906 C 260.019531 271.242188 259.042969 271.046875 258.261719 270.855469 L 257.679688 270.722656 C 256.183594 270.332031 255.53125 270.203125 254.6875 270.398438 C 253.710938 270.660156 252.929688 271.242188 252.214844 272.21875 C 252.082031 272.414062 252.082031 272.609375 252.082031 272.804688 C 252.148438 273 252.277344 273.195312 252.472656 273.261719 L 255.921875 275.015625 C 255.53125 275.863281 255.207031 276.96875 255.855469 277.617188 C 256.050781 277.8125 256.3125 277.941406 256.636719 277.941406 C 257.027344 277.941406 257.546875 277.8125 258.394531 277.550781 L 258.523438 277.488281 C 258.785156 277.421875 259.109375 277.355469 259.5 277.226562 C 260.148438 277.03125 260.734375 276.902344 261.125 276.835938 C 261.320312 276.773438 261.386719 276.640625 261.386719 276.445312 C 261.320312 276.316406 261.125 276.1875 260.929688 276.25 Z M 360.003906 268.96875 C 359.875 268.058594 354.410156 267.796875 343.351562 268.253906 L 343.285156 268.253906 L 343.285156 268.316406 C 342.050781 272.933594 341.011719 277.683594 340.292969 282.363281 C 339.839844 285.550781 339.449219 288.738281 339.253906 291.925781 C 339.253906 292.054688 339.1875 292.121094 339.058594 292.183594 C 338.992188 292.25 338.863281 292.25 338.734375 292.183594 L 333.527344 289.582031 L 327.089844 297.324219 C 328.976562 299.40625 331.1875 301.09375 333.660156 302.265625 C 335.871094 303.304688 338.082031 304.347656 340.097656 304.347656 C 340.75 304.347656 341.335938 304.21875 341.921875 304.023438 C 346.148438 302.332031 346.734375 294.785156 347.386719 286.007812 C 347.710938 281.78125 347.710938 277.421875 347.386719 273.195312 C 347.386719 273.066406 347.515625 272.871094 347.644531 272.871094 C 358.898438 270.398438 360.070312 269.488281 360.003906 268.96875 Z M 310.957031 302.332031 L 301.199219 305.386719 L 300.15625 312.542969 L 303.476562 344.667969 C 303.476562 344.800781 303.410156 344.996094 303.214844 344.996094 C 296.1875 347.011719 292.804688 348.3125 292.9375 349.15625 C 293 349.417969 293.066406 350.003906 297.816406 350.003906 C 300.351562 350.003906 303.929688 349.808594 308.484375 349.480469 L 308.550781 349.480469 L 310.175781 312.019531 Z M 348.164062 273.390625 C 348.425781 277.550781 348.425781 281.78125 348.101562 286.007812 C 347.449219 294.980469 346.863281 302.722656 342.246094 304.605469 C 341.59375 304.867188 340.945312 304.996094 340.164062 304.996094 C 338.015625 304.996094 335.675781 303.890625 333.398438 302.851562 C 330.863281 301.617188 328.519531 299.925781 326.570312 297.777344 C 326.046875 298.167969 325.460938 298.492188 324.941406 298.753906 C 322.40625 300.121094 320.128906 300.511719 317.070312 301.03125 C 315.574219 301.289062 313.753906 301.617188 311.542969 302.136719 L 310.824219 312.085938 L 309.199219 349.871094 C 309.199219 350.066406 309.070312 350.199219 308.875 350.199219 L 308.550781 350.199219 C 303.996094 350.523438 300.351562 350.71875 297.816406 350.71875 C 292.871094 350.71875 292.417969 350.132812 292.285156 349.351562 C 292.089844 348.375 292.804688 347.335938 302.757812 344.539062 L 299.441406 312.671875 L 299.441406 312.605469 L 300.417969 305.777344 C 299.636719 306.101562 298.792969 305.972656 298.140625 305.519531 C 297.488281 305.0625 297.035156 304.28125 297.035156 303.5 L 296.644531 277.488281 C 296.644531 277.292969 296.773438 277.164062 296.96875 277.164062 C 297.164062 277.164062 297.292969 277.292969 297.292969 277.488281 L 297.683594 303.5 C 297.683594 304.085938 298.011719 304.671875 298.53125 304.996094 C 299.050781 305.324219 299.703125 305.386719 300.222656 305.191406 L 300.808594 304.996094 L 311.214844 301.679688 C 313.558594 301.09375 315.507812 300.769531 317.003906 300.511719 C 320 299.988281 322.210938 299.597656 324.683594 298.296875 C 325.265625 297.972656 325.851562 297.648438 326.4375 297.191406 L 333.203125 289.128906 C 333.660156 288.285156 334.050781 287.371094 334.441406 286.460938 C 334.765625 285.683594 334.503906 284.707031 333.789062 284.25 L 311.738281 268.449219 C 311.605469 268.316406 311.542969 268.121094 311.671875 267.992188 C 311.800781 267.863281 311.996094 267.796875 312.125 267.925781 L 334.179688 283.601562 C 335.15625 284.25 335.480469 285.550781 335.023438 286.59375 C 334.699219 287.4375 334.308594 288.21875 333.917969 289 L 338.667969 291.339844 C 338.863281 288.285156 339.253906 285.226562 339.707031 282.167969 C 340.425781 277.421875 341.398438 272.675781 342.703125 268.058594 L 342.765625 267.796875 C 342.832031 267.667969 342.894531 267.535156 343.089844 267.535156 L 343.351562 267.535156 C 360.460938 266.886719 360.589844 267.925781 360.71875 268.835938 C 360.785156 269.75 360.914062 270.660156 348.164062 273.390625 Z M 145.007812 228.058594 C 144.097656 227.410156 143.121094 227.019531 142.015625 226.824219 C 141.820312 226.824219 141.691406 226.953125 141.625 227.085938 C 141.625 227.28125 141.753906 227.410156 141.886719 227.476562 C 142.859375 227.605469 143.773438 227.996094 144.617188 228.582031 C 145.984375 229.621094 146.570312 230.988281 146.765625 231.703125 L 143.121094 230.335938 C 142.992188 230.269531 142.859375 230.335938 142.796875 230.402344 C 142.730469 230.464844 142.667969 230.597656 142.667969 230.726562 C 142.859375 231.570312 142.859375 232.09375 142.667969 232.222656 L 142.535156 232.222656 C 142.40625 232.222656 142.144531 232.027344 141.820312 231.832031 C 141.558594 231.636719 141.167969 231.3125 140.648438 231.050781 C 140.390625 230.921875 140.0625 230.792969 139.738281 230.660156 C 139.542969 230.597656 139.414062 230.660156 139.347656 230.855469 C 139.285156 231.050781 139.347656 231.183594 139.542969 231.246094 C 139.804688 231.375 140.128906 231.507812 140.390625 231.636719 C 140.84375 231.898438 141.234375 232.15625 141.496094 232.351562 C 141.886719 232.613281 142.210938 232.871094 142.535156 232.871094 C 142.667969 232.871094 142.796875 232.808594 142.925781 232.742188 C 143.445312 232.484375 143.511719 231.832031 143.382812 231.117188 L 146.4375 232.289062 C 146.699219 232.351562 146.894531 232.351562 147.089844 232.15625 C 147.285156 231.960938 147.351562 231.765625 147.285156 231.507812 C 147.15625 230.726562 146.570312 229.230469 145.007812 228.058594 Z M 115.800781 267.472656 L 107.40625 237.945312 C 107.34375 237.75 107.210938 237.683594 107.015625 237.75 C 106.824219 237.816406 106.757812 238.011719 106.824219 238.140625 L 115.214844 267.667969 L 123.28125 298.105469 L 123.28125 298.167969 L 117.882812 300.316406 L 117.816406 300.316406 L 107.277344 272.675781 L 107.277344 272.609375 L 95.566406 254.53125 C 95.503906 254.398438 95.375 254.398438 95.242188 254.398438 C 95.113281 254.398438 95.046875 254.53125 94.984375 254.59375 C 93.8125 257.910156 87.695312 274.300781 80.542969 274.300781 L 80.28125 274.300781 C 77.613281 274.171875 75.335938 270.789062 71.171875 264.675781 C 67.984375 259.992188 65.125 254.984375 62.785156 249.71875 L 66.554688 246.203125 L 66.621094 246.203125 L 78.394531 258.625 C 78.460938 258.691406 78.589844 258.757812 78.71875 258.691406 C 78.851562 258.691406 78.914062 258.5625 78.980469 258.433594 L 82.492188 245.425781 L 90.105469 233.847656 C 90.234375 233.71875 90.167969 233.523438 90.039062 233.394531 C 89.910156 233.261719 89.714844 233.328125 89.582031 233.457031 L 81.972656 245.035156 C 81.90625 245.097656 81.90625 245.164062 81.90625 245.230469 L 78.523438 257.652344 L 67.074219 245.683594 C 66.816406 245.425781 66.359375 245.425781 66.101562 245.683594 L 62.328125 249.261719 C 62.132812 249.457031 62.070312 249.78125 62.199219 250.042969 C 64.605469 255.246094 67.402344 260.253906 70.652344 265 C 74.945312 271.308594 77.289062 274.753906 80.28125 274.886719 L 80.542969 274.886719 C 87.761719 274.886719 93.746094 259.796875 95.375 255.375 L 106.757812 272.871094 L 117.230469 300.511719 C 117.296875 300.707031 117.425781 300.835938 117.621094 300.898438 C 117.6875 300.964844 117.816406 300.964844 117.882812 300.964844 C 117.945312 300.964844 118.078125 300.964844 118.140625 300.898438 L 123.539062 298.753906 C 123.867188 298.625 124.0625 298.234375 123.929688 297.910156 Z M 63.238281 233.003906 C 63.433594 232.9375 63.5 232.742188 63.433594 232.613281 C 63.371094 232.417969 63.175781 232.351562 63.042969 232.417969 C 62.652344 232.546875 62.261719 232.742188 61.875 232.9375 C 61.15625 233.261719 60.636719 233.652344 60.179688 233.976562 C 59.660156 234.304688 59.273438 234.628906 59.007812 234.433594 C 58.75 234.238281 58.75 233.589844 59.074219 232.484375 C 59.074219 232.351562 59.074219 232.289062 59.007812 232.15625 C 58.945312 232.027344 58.816406 232.027344 58.683594 232.027344 L 52.3125 233.132812 L 52.246094 233.066406 C 53.417969 231.375 54.976562 230.011719 56.734375 229.035156 C 58.296875 228.191406 59.921875 227.667969 61.679688 227.476562 C 61.875 227.476562 62.003906 227.28125 61.9375 227.148438 C 61.9375 226.953125 61.742188 226.824219 61.613281 226.890625 C 59.792969 227.085938 58.035156 227.605469 56.40625 228.515625 C 54.523438 229.554688 52.894531 230.988281 51.722656 232.742188 C 51.59375 233.003906 51.527344 233.261719 51.722656 233.523438 C 51.855469 233.785156 52.179688 233.914062 52.441406 233.847656 L 58.296875 232.871094 C 58.101562 233.847656 58.035156 234.695312 58.683594 235.082031 C 58.816406 235.148438 59.007812 235.214844 59.207031 235.214844 C 59.660156 235.214844 60.050781 234.953125 60.574219 234.5625 C 60.960938 234.304688 61.480469 233.914062 62.199219 233.589844 C 62.523438 233.328125 62.914062 233.132812 63.238281 233.003906 Z M 100.640625 200.09375 C 100.773438 201.785156 100.707031 203.410156 100.316406 205.039062 C 100.121094 206.078125 99.796875 207.117188 99.339844 208.09375 C 99.277344 208.289062 99.339844 208.417969 99.535156 208.550781 C 99.730469 208.613281 99.863281 208.550781 99.992188 208.355469 C 100.445312 207.3125 100.773438 206.273438 101.03125 205.167969 C 101.421875 203.410156 101.488281 201.589844 101.359375 199.769531 C 101.359375 199.640625 101.226562 199.507812 101.097656 199.507812 C 100.578125 199.378906 100.121094 199.121094 99.863281 198.664062 C 99.601562 198.273438 99.472656 197.882812 99.601562 197.492188 C 99.796875 196.84375 100.640625 196.386719 101.488281 196.453125 C 101.554688 196.453125 101.683594 196.453125 101.75 196.386719 C 102.527344 195.738281 103.246094 194.890625 103.699219 193.980469 C 104.15625 193.136719 104.414062 192.289062 104.546875 191.378906 L 104.21875 191.316406 L 104.609375 191.316406 C 105.390625 191.835938 106.300781 192.160156 107.210938 192.289062 C 108.382812 192.550781 109.683594 192.484375 110.855469 192.160156 L 110.921875 192.160156 C 111.441406 193.527344 111.832031 194.957031 111.960938 196.453125 C 112.15625 198.597656 112.480469 201.851562 110.464844 203.410156 C 110.011719 203.738281 108.96875 204.320312 107.210938 204.128906 C 107.148438 204.128906 107.015625 204.128906 106.953125 204.191406 C 106.886719 204.257812 106.824219 204.320312 106.824219 204.453125 L 106.824219 209.460938 C 106.824219 209.65625 106.953125 209.785156 107.148438 209.785156 C 107.34375 209.785156 107.472656 209.65625 107.472656 209.460938 L 107.472656 204.84375 C 109.230469 204.90625 110.335938 204.320312 110.855469 203.933594 C 113.132812 202.175781 112.808594 198.730469 112.613281 196.386719 C 112.480469 194.890625 112.089844 193.394531 111.570312 191.964844 C 111.441406 191.640625 111.117188 191.445312 110.726562 191.574219 C 109.621094 191.835938 108.449219 191.898438 107.40625 191.707031 C 106.5625 191.511719 105.714844 191.25 105 190.792969 C 104.804688 190.664062 104.546875 190.664062 104.351562 190.792969 C 104.15625 190.925781 103.960938 191.121094 103.960938 191.316406 C 103.828125 192.160156 103.570312 192.941406 103.179688 193.722656 C 102.722656 194.5 102.203125 195.21875 101.488281 195.800781 L 101.421875 195.800781 C 100.316406 195.800781 99.339844 196.453125 99.082031 197.363281 C 98.949219 197.882812 99.082031 198.535156 99.472656 199.054688 C 99.535156 199.574219 100.058594 199.964844 100.640625 200.09375 Z M 183.648438 47.066406 C 184.300781 48.367188 184.691406 49.796875 184.753906 51.160156 C 184.820312 52.203125 184.753906 53.242188 184.496094 54.21875 C 184.429688 54.414062 184.558594 54.542969 184.753906 54.609375 L 184.820312 54.609375 C 184.949219 54.609375 185.078125 54.480469 185.144531 54.347656 C 185.40625 53.308594 185.46875 52.203125 185.40625 51.097656 C 185.339844 49.535156 184.886719 47.976562 184.105469 46.609375 C 184.039062 46.542969 183.972656 46.480469 183.910156 46.480469 C 183.195312 46.21875 182.738281 45.503906 182.804688 44.789062 C 182.867188 44.074219 183.453125 43.488281 184.167969 43.421875 C 184.234375 43.421875 184.363281 43.355469 184.363281 43.292969 C 184.691406 42.773438 184.949219 42.25 185.144531 41.667969 C 185.535156 40.300781 185.210938 39.128906 185.015625 38.546875 L 185.078125 38.480469 C 186.382812 38.9375 187.683594 39.195312 189.046875 39.195312 C 190.480469 39.195312 191.976562 38.9375 193.339844 38.480469 L 193.40625 38.480469 C 193.730469 39.585938 193.992188 40.691406 194.1875 41.796875 C 194.644531 44.722656 195.164062 48.300781 193.339844 49.859375 C 192.820312 50.316406 192.300781 50.445312 191.78125 50.511719 C 191.195312 50.640625 190.738281 50.773438 190.347656 51.292969 C 189.894531 51.941406 189.828125 52.917969 190.21875 54.21875 C 190.285156 54.414062 190.480469 54.480469 190.609375 54.414062 C 190.804688 54.347656 190.871094 54.152344 190.804688 54.023438 C 190.480469 52.980469 190.480469 52.203125 190.871094 51.683594 C 191.066406 51.355469 191.324219 51.292969 191.910156 51.160156 C 192.429688 51.03125 193.082031 50.902344 193.730469 50.382812 C 195.878906 48.558594 195.292969 44.789062 194.835938 41.730469 C 194.644531 40.5625 194.382812 39.390625 194.058594 38.285156 C 193.992188 38.089844 193.863281 37.960938 193.667969 37.828125 C 193.472656 37.765625 193.277344 37.765625 193.148438 37.828125 C 191.84375 38.285156 190.480469 38.546875 189.113281 38.546875 C 187.8125 38.546875 186.578125 38.285156 185.339844 37.828125 C 185.078125 37.765625 184.820312 37.828125 184.625 37.960938 C 184.429688 38.152344 184.363281 38.414062 184.429688 38.675781 C 184.625 39.195312 184.886719 40.238281 184.558594 41.40625 C 184.429688 41.863281 184.234375 42.316406 183.972656 42.707031 C 183 42.902344 182.28125 43.683594 182.152344 44.65625 C 182.152344 45.699219 182.738281 46.675781 183.648438 47.066406 Z M 229.511719 101.304688 C 229.445312 101.238281 229.378906 101.175781 229.25 101.109375 L 200.691406 87.320312 C 200.5625 87.253906 200.367188 87.320312 200.238281 87.453125 C 200.171875 87.582031 200.238281 87.777344 200.367188 87.90625 L 228.925781 101.695312 L 247.984375 126.605469 L 243.105469 133.105469 L 243.042969 133.105469 L 222.808594 109.695312 L 222.679688 109.5625 L 201.667969 103.386719 C 201.539062 103.320312 201.34375 103.386719 201.277344 103.515625 C 201.214844 103.644531 201.214844 103.777344 201.34375 103.90625 L 215.460938 118.605469 L 222.875 148.066406 L 222.808594 148.128906 L 215.980469 149.300781 L 204.789062 124.78125 C 204.789062 124.71875 204.726562 124.71875 204.726562 124.652344 L 178.703125 103.191406 L 178.703125 90.183594 C 178.703125 89.988281 178.574219 89.859375 178.378906 89.859375 C 178.183594 89.859375 178.054688 89.988281 178.054688 90.183594 L 178.054688 103.191406 C 178.054688 103.386719 178.121094 103.582031 178.316406 103.710938 L 204.269531 125.109375 L 215.394531 149.5625 C 215.523438 149.820312 215.785156 149.953125 216.042969 149.953125 L 216.175781 149.953125 L 222.941406 148.714844 C 223.136719 148.652344 223.332031 148.585938 223.394531 148.390625 C 223.527344 148.195312 223.527344 148 223.460938 147.871094 L 216.042969 118.410156 C 216.042969 118.277344 215.980469 118.148438 215.851562 118.082031 L 202.644531 104.296875 L 222.421875 110.148438 L 242.585938 133.496094 C 242.714844 133.691406 242.976562 133.757812 243.171875 133.757812 C 243.367188 133.757812 243.5625 133.628906 243.691406 133.496094 L 248.570312 126.992188 C 248.765625 126.734375 248.765625 126.410156 248.570312 126.148438 Z M 201.992188 51.8125 L 205.898438 48.496094 L 205.960938 48.429688 L 216.890625 29.3125 L 216.890625 29.246094 C 217.800781 25.992188 218.386719 24.496094 218.777344 24.5625 C 218.90625 24.5625 219.167969 24.628906 219.101562 27.421875 C 219.101562 27.554688 219.167969 27.617188 219.230469 27.683594 C 219.296875 27.746094 219.425781 27.746094 219.558594 27.746094 C 223.917969 26.058594 226.257812 25.539062 226.648438 26.253906 C 226.972656 26.773438 226.128906 28.074219 224.566406 29.441406 C 223.199219 30.675781 221.445312 31.457031 219.492188 31.78125 C 219.363281 31.78125 219.296875 31.847656 219.230469 31.976562 L 210.582031 53.242188 L 205.960938 57.082031 C 205.832031 57.210938 205.832031 57.40625 205.898438 57.535156 C 205.960938 57.601562 206.027344 57.664062 206.15625 57.664062 C 206.222656 57.664062 206.285156 57.664062 206.351562 57.601562 L 210.972656 53.761719 C 211.035156 53.699219 211.101562 53.570312 211.164062 53.503906 L 219.6875 32.367188 C 221.703125 32.042969 223.460938 31.132812 224.890625 29.894531 C 225.996094 28.917969 227.820312 27.035156 227.105469 25.929688 C 226.582031 25.015625 225.152344 24.886719 219.6875 27.035156 C 219.753906 24.820312 219.492188 24.109375 218.777344 23.976562 C 217.996094 23.847656 217.542969 24.304688 216.175781 29.046875 L 205.375 48.042969 L 201.539062 51.355469 C 201.40625 51.484375 201.40625 51.683594 201.472656 51.8125 C 201.667969 51.941406 201.863281 51.941406 201.992188 51.8125 Z M 169.140625 54.414062 C 169.078125 54.609375 168.945312 54.675781 168.75 54.675781 L 167.0625 54.21875 C 166.996094 54.21875 166.996094 54.152344 166.929688 54.152344 L 149.234375 39.261719 L 149.171875 39.195312 C 145.464844 34.1875 144.617188 33.796875 144.355469 33.992188 C 144.226562 34.058594 144.097656 34.382812 144.617188 35.878906 C 144.683594 36.007812 144.617188 36.140625 144.550781 36.203125 C 144.488281 36.269531 144.355469 36.335938 144.226562 36.269531 C 140.648438 34.902344 138.699219 34.511719 138.242188 35.164062 C 138.113281 35.359375 138.113281 35.550781 138.242188 35.878906 C 138.632812 37.113281 140.585938 39.066406 142.796875 39.976562 C 143.835938 40.367188 144.941406 40.625 146.046875 40.625 C 146.113281 40.625 146.242188 40.691406 146.308594 40.753906 L 161.53125 58.640625 L 165.5 59.941406 C 165.695312 60.007812 165.757812 60.203125 165.695312 60.332031 C 165.628906 60.460938 165.5 60.527344 165.371094 60.527344 L 165.238281 60.527344 L 161.269531 59.226562 C 161.140625 59.160156 161.074219 59.097656 161.011719 59.03125 L 145.917969 41.277344 C 144.746094 41.277344 143.578125 41.015625 142.535156 40.5625 C 140.0625 39.519531 138.046875 37.441406 137.65625 36.074219 C 137.527344 35.617188 137.527344 35.164062 137.722656 34.839844 C 138.046875 34.382812 138.566406 33.472656 143.835938 35.421875 C 143.511719 34.382812 143.511719 33.734375 144.097656 33.40625 C 144.746094 33.015625 145.269531 32.691406 149.757812 38.742188 L 167.386719 53.570312 L 169.011719 53.957031 C 169.078125 54.085938 169.140625 54.28125 169.140625 54.414062 "/>
</g>
<path style=" stroke:none;fill-rule:nonzero;fill:rgb(97.648621%,100%,92.939758%);fill-opacity:1;" d="M 234 312.347656 C 234.453125 311.371094 233.089844 309.875 232.957031 309.746094 C 232.828125 310.003906 232.113281 311.371094 232.699219 312.28125 C 232.761719 312.410156 233.023438 312.800781 233.347656 312.800781 C 233.675781 312.867188 233.933594 312.410156 234 312.347656 Z M 226.453125 310.914062 C 227.429688 309.941406 226.386719 307.535156 226.324219 307.339844 C 225.996094 307.597656 224.632812 308.964844 224.890625 310.332031 C 224.957031 310.527344 225.023438 311.109375 225.476562 311.242188 C 225.933594 311.4375 226.453125 310.914062 226.453125 310.914062 Z M 232.894531 302.460938 C 233.347656 301.484375 231.984375 299.988281 231.851562 299.859375 C 231.722656 300.121094 231.007812 301.484375 231.59375 302.394531 C 231.65625 302.527344 231.917969 302.917969 232.242188 302.917969 C 232.566406 302.980469 232.828125 302.527344 232.894531 302.460938 Z M 227.492188 300.511719 C 227.105469 300.378906 226.972656 299.792969 226.910156 299.597656 C 226.648438 298.234375 228.015625 296.867188 228.339844 296.609375 C 228.40625 296.804688 229.445312 299.210938 228.46875 300.183594 C 228.46875 300.183594 227.949219 300.640625 227.492188 300.511719 "/>
</g>
</svg>
