<?xml version="1.0" encoding="UTF-8"?>
<svg xmlns="http://www.w3.org/2000/svg" xmlns:xlink="http://www.w3.org/1999/xlink" width="375pt" height="374.999991pt" viewBox="0 0 375 374.999991" version="1.2">
<defs>
<clipPath id="clip1">
  <path d="M 206 244 L 232.785156 244 L 232.785156 330.410156 L 206 330.410156 Z M 206 244 "/>
</clipPath>
<clipPath id="clip2">
  <path d="M 332 244.296875 L 374.875 244.296875 L 374.875 330 L 332 330 Z M 332 244.296875 "/>
</clipPath>
</defs>
<g id="surface1">
<path style=" stroke:none;fill-rule:nonzero;fill:rgb(96.859741%,60.389709%,56.858826%);fill-opacity:1;" d="M 194.578125 191.574219 C 194.578125 191.574219 185.382812 187.882812 183.804688 165.015625 L 157.789062 173.257812 C 157.789062 173.257812 156.25 184.835938 142.523438 195.140625 C 128.796875 205.445312 160.433594 230.578125 160.433594 230.578125 L 191.742188 223.460938 "/>
<path style=" stroke:none;fill-rule:nonzero;fill:rgb(96.859741%,60.389709%,56.858826%);fill-opacity:1;" d="M 307.25 208.328125 C 307.25 208.328125 295.085938 202.070312 293.261719 178.699219 L 268.8125 180.105469 C 268.8125 180.105469 274.292969 183.4375 266.640625 196.785156 L 263.328125 227.734375 L 298.9375 231.828125 L 308.394531 197.796875 L 303.117188 190.800781 C 303.117188 190.800781 298.175781 189.933594 291.085938 178.761719 C 281.898438 164.285156 268.8125 180.105469 268.8125 180.105469 "/>
<path style=" stroke:none;fill-rule:nonzero;fill:rgb(96.859741%,60.389709%,56.858826%);fill-opacity:1;" d="M 276.941406 187.789062 C 288.1875 189.792969 298.9375 182.378906 300.957031 171.226562 L 304.753906 150.308594 C 306.773438 139.152344 299.304688 128.484375 288.058594 126.476562 C 276.816406 124.472656 266.066406 131.886719 264.042969 143.039062 L 260.25 163.957031 C 258.226562 175.109375 265.703125 185.78125 276.941406 187.789062 "/>
<path style=" stroke:none;fill-rule:nonzero;fill:rgb(96.859741%,60.389709%,56.858826%);fill-opacity:1;" d="M 297.90625 165.007812 C 299.335938 170.308594 304.824219 173.453125 310.167969 172.035156 C 315.507812 170.613281 318.679688 165.164062 317.25 159.867188 C 315.816406 154.566406 310.328125 151.421875 304.988281 152.839844 C 299.648438 154.257812 296.472656 159.707031 297.90625 165.007812 "/>
<path style=" stroke:none;fill-rule:nonzero;fill:rgb(15.689087%,25.099182%,49.409485%);fill-opacity:1;" d="M 304.253906 153.066406 C 304.253906 153.066406 283.363281 149.054688 282.5 134.445312 C 282.5 134.445312 276.082031 146.0625 264.042969 143.039062 L 264.628906 140.84375 C 267.445312 130.324219 278 123.78125 288.757812 125.882812 C 298.824219 127.851562 305.871094 136.773438 305.53125 146.820312 C 305.5 147.679688 305.34375 148.53125 305.140625 149.367188 L 304.253906 153.066406 "/>
<path style=" stroke:none;fill-rule:nonzero;fill:rgb(15.689087%,25.099182%,49.409485%);fill-opacity:1;" d="M 302.730469 166.335938 C 302.652344 166.335938 302.574219 166.324219 302.496094 166.300781 C 302.089844 166.171875 301.863281 165.738281 301.988281 165.332031 C 303.867188 159.324219 310.804688 157.53125 311.101562 157.460938 C 311.511719 157.355469 311.929688 157.609375 312.035156 158.019531 C 312.140625 158.433594 311.886719 158.855469 311.472656 158.960938 C 311.410156 158.972656 305.078125 160.621094 303.464844 165.792969 C 303.363281 166.125 303.058594 166.335938 302.730469 166.335938 "/>
<path style=" stroke:none;fill-rule:nonzero;fill:rgb(15.689087%,25.099182%,49.409485%);fill-opacity:1;" d="M 311.285156 168.238281 C 310.867188 168.238281 310.523438 167.902344 310.511719 167.484375 C 310.511719 167.425781 310.355469 161.796875 307.019531 160.761719 C 306.613281 160.636719 306.382812 160.207031 306.511719 159.796875 C 306.636719 159.390625 307.070312 159.160156 307.476562 159.289062 C 311.875 160.652344 312.050781 167.175781 312.058594 167.453125 C 312.066406 167.878906 311.730469 168.230469 311.304688 168.238281 C 311.296875 168.238281 311.292969 168.238281 311.285156 168.238281 "/>
<path style=" stroke:none;fill-rule:nonzero;fill:rgb(15.689087%,25.099182%,49.409485%);fill-opacity:1;" d="M 278.125 163.863281 C 278.074219 163.863281 278.023438 163.859375 277.96875 163.847656 L 269.660156 162.144531 L 276.5 148.320312 C 276.6875 147.9375 277.152344 147.78125 277.53125 147.972656 C 277.917969 148.164062 278.074219 148.625 277.882812 149.007812 L 271.929688 161.035156 L 278.277344 162.335938 C 278.695312 162.417969 278.964844 162.828125 278.878906 163.246094 C 278.804688 163.609375 278.484375 163.863281 278.125 163.863281 "/>
<path style=" stroke:none;fill-rule:nonzero;fill:rgb(15.689087%,25.099182%,49.409485%);fill-opacity:1;" d="M 277.785156 179.628906 C 277.1875 179.628906 276.5625 179.574219 275.902344 179.460938 C 275.480469 179.390625 275.195312 178.992188 275.269531 178.570312 C 275.335938 178.152344 275.730469 177.867188 276.15625 177.9375 C 278.390625 178.3125 280.132812 177.953125 281.34375 176.867188 C 283.078125 175.308594 283.363281 172.613281 283.402344 171.417969 L 270.820312 169.160156 L 274.238281 162.101562 C 274.421875 161.714844 274.886719 161.558594 275.269531 161.742188 C 275.652344 161.925781 275.8125 162.390625 275.628906 162.777344 L 273.097656 167.996094 L 284.90625 170.117188 L 284.941406 170.722656 C 284.953125 170.914062 285.203125 175.472656 282.382812 178.011719 C 281.1875 179.085938 279.648438 179.628906 277.785156 179.628906 "/>
<path style=" stroke:none;fill-rule:nonzero;fill:rgb(15.689087%,25.099182%,49.409485%);fill-opacity:1;" d="M 280.339844 188.839844 C 279.800781 188.839844 279.25 188.824219 278.679688 188.796875 C 278.253906 188.769531 277.929688 188.410156 277.949219 187.980469 C 277.972656 187.554688 278.339844 187.210938 278.765625 187.253906 C 288.722656 187.792969 293.175781 182.929688 293.214844 182.878906 C 293.503906 182.5625 293.988281 182.53125 294.308594 182.816406 C 294.625 183.097656 294.660156 183.582031 294.375 183.902344 C 294.191406 184.113281 289.917969 188.839844 280.339844 188.839844 "/>
<path style=" stroke:none;fill-rule:nonzero;fill:rgb(15.689087%,25.099182%,49.409485%);fill-opacity:1;" d="M 284.117188 158.699219 C 284.078125 158.699219 284.039062 158.695312 284 158.691406 C 283.578125 158.628906 283.289062 158.230469 283.351562 157.808594 L 283.710938 155.441406 C 283.773438 155.019531 284.164062 154.730469 284.589844 154.792969 C 285.011719 154.855469 285.300781 155.25 285.234375 155.671875 L 284.878906 158.042969 C 284.824219 158.425781 284.492188 158.699219 284.117188 158.699219 "/>
<path style=" stroke:none;fill-rule:nonzero;fill:rgb(15.689087%,25.099182%,49.409485%);fill-opacity:1;" d="M 267.628906 156.46875 C 267.589844 156.46875 267.554688 156.464844 267.515625 156.457031 C 267.089844 156.394531 266.800781 156 266.867188 155.578125 L 267.222656 153.210938 C 267.289062 152.785156 267.679688 152.496094 268.101562 152.5625 C 268.519531 152.625 268.8125 153.019531 268.746094 153.4375 L 268.390625 155.808594 C 268.335938 156.191406 268.003906 156.46875 267.628906 156.46875 "/>
<path style=" stroke:none;fill-rule:nonzero;fill:rgb(15.689087%,25.099182%,49.409485%);fill-opacity:1;" d="M 294.914062 156.648438 C 294.546875 156.648438 294.222656 156.390625 294.15625 156.015625 C 294.113281 155.78125 293.058594 150.347656 287.777344 150.347656 C 287.351562 150.347656 287.007812 150.003906 287.007812 149.578125 C 287.007812 149.152344 287.351562 148.804688 287.777344 148.804688 C 294.367188 148.804688 295.664062 155.671875 295.675781 155.742188 C 295.75 156.164062 295.46875 156.5625 295.050781 156.636719 C 295.003906 156.644531 294.960938 156.648438 294.914062 156.648438 "/>
<path style=" stroke:none;fill-rule:nonzero;fill:rgb(70.588684%,85.879517%,73.329163%);fill-opacity:1;" d="M 282.609375 163.859375 C 282.394531 164.949219 283.5625 166.097656 285.21875 166.417969 C 286.875 166.742188 288.394531 166.121094 288.609375 165.027344 C 288.824219 163.941406 287.65625 162.792969 286.003906 162.472656 C 284.347656 162.144531 282.828125 162.765625 282.609375 163.859375 "/>
<path style=" stroke:none;fill-rule:nonzero;fill:rgb(70.588684%,85.879517%,73.329163%);fill-opacity:1;" d="M 263.976562 163.121094 C 263.804688 164 264.742188 164.921875 266.070312 165.179688 C 267.402344 165.4375 268.621094 164.941406 268.796875 164.0625 C 268.96875 163.1875 268.03125 162.265625 266.703125 162.007812 C 265.371094 161.746094 264.152344 162.246094 263.976562 163.121094 "/>
<path style=" stroke:none;fill-rule:nonzero;fill:rgb(15.689087%,25.099182%,49.409485%);fill-opacity:1;" d="M 21.441406 89.183594 L 75.476562 78.773438 C 77.566406 78.367188 79.078125 76.539062 79.078125 74.410156 L 79.078125 49.488281 C 79.078125 46.757812 76.644531 44.675781 73.945312 45.101562 L 30.921875 51.84375 L 21.195312 58.539062 L 16.574219 78.199219 L 21.441406 89.183594 "/>
<path style=" stroke:none;fill-rule:nonzero;fill:rgb(96.859741%,60.389709%,56.858826%);fill-opacity:1;" d="M 27.03125 89.457031 L 26.726562 83.621094 L 18.375 90.378906 Z M 27.03125 89.457031 "/>
<path style=" stroke:none;fill-rule:nonzero;fill:rgb(96.859741%,60.389709%,56.858826%);fill-opacity:1;" d="M 185.339844 158.375 C 186.5625 162.382812 190.804688 164.640625 194.8125 163.414062 C 198.824219 162.191406 201.078125 157.949219 199.855469 153.9375 C 198.628906 149.925781 194.386719 147.671875 190.378906 148.894531 C 186.371094 150.121094 184.113281 154.363281 185.339844 158.375 "/>
<path style=" stroke:none;fill-rule:nonzero;fill:rgb(96.859741%,60.389709%,56.858826%);fill-opacity:1;" d="M 166.792969 185.59375 C 177.167969 186.882812 186.625 179.507812 187.910156 169.132812 L 191.566406 139.609375 C 192.851562 129.230469 185.480469 119.773438 175.105469 118.484375 C 164.726562 117.199219 155.273438 124.574219 153.988281 134.953125 L 150.332031 164.472656 C 149.046875 174.851562 156.414062 184.308594 166.792969 185.59375 "/>
<path style=" stroke:none;fill-rule:nonzero;fill:rgb(15.689087%,25.099182%,49.409485%);fill-opacity:1;" d="M 189.425781 159.121094 C 189.359375 159.121094 189.292969 159.113281 189.222656 159.09375 C 188.8125 158.980469 188.570312 158.558594 188.679688 158.144531 C 189.972656 153.410156 195.277344 151.832031 195.5 151.765625 C 195.910156 151.648438 196.339844 151.882812 196.457031 152.292969 C 196.574219 152.703125 196.339844 153.128906 195.929688 153.25 C 195.882812 153.261719 191.230469 154.664062 190.171875 158.550781 C 190.078125 158.894531 189.765625 159.121094 189.425781 159.121094 "/>
<path style=" stroke:none;fill-rule:nonzero;fill:rgb(15.689087%,25.099182%,49.409485%);fill-opacity:1;" d="M 195.960938 160.351562 C 195.554688 160.351562 195.214844 160.03125 195.1875 159.621094 C 195.1875 159.578125 194.921875 155.410156 192.5 154.746094 C 192.089844 154.632812 191.847656 154.207031 191.960938 153.796875 C 192.074219 153.382812 192.5 153.144531 192.910156 153.253906 C 196.40625 154.21875 196.71875 159.316406 196.730469 159.535156 C 196.753906 159.960938 196.429688 160.324219 196.003906 160.351562 C 195.988281 160.351562 195.972656 160.351562 195.960938 160.351562 "/>
<path style=" stroke:none;fill-rule:nonzero;fill:rgb(15.689087%,25.099182%,49.409485%);fill-opacity:1;" d="M 191.296875 141.785156 L 164.894531 127.1875 C 164.894531 127.1875 161.050781 135.644531 153.929688 135.429688 C 153.929688 135.429688 155.335938 118.308594 169.902344 117.917969 C 185.300781 117.503906 194.238281 123.390625 191.296875 141.785156 "/>
<path style=" stroke:none;fill-rule:nonzero;fill:rgb(15.689087%,25.099182%,49.409485%);fill-opacity:1;" d="M 168.984375 185.75 C 166.628906 185.75 163.957031 185.457031 160.960938 184.730469 C 160.542969 184.632812 160.289062 184.210938 160.390625 183.800781 C 160.488281 183.386719 160.90625 183.125 161.320312 183.230469 C 169.15625 185.125 174.527344 183.859375 177.65625 182.464844 C 181.03125 180.960938 182.59375 178.984375 182.609375 178.964844 C 182.871094 178.628906 183.355469 178.566406 183.691406 178.828125 C 184.03125 179.085938 184.09375 179.570312 183.832031 179.90625 C 183.609375 180.199219 179.207031 185.75 168.984375 185.75 "/>
<path style=" stroke:none;fill-rule:nonzero;fill:rgb(15.689087%,25.099182%,49.409485%);fill-opacity:1;" d="M 169.058594 161.730469 C 169.023438 161.730469 168.984375 161.730469 168.949219 161.722656 L 160.136719 160.472656 L 167.742188 143.167969 C 167.914062 142.777344 168.371094 142.597656 168.757812 142.769531 C 169.152344 142.941406 169.328125 143.398438 169.15625 143.789062 L 162.371094 159.230469 L 169.167969 160.191406 C 169.589844 160.253906 169.882812 160.640625 169.820312 161.066406 C 169.765625 161.449219 169.433594 161.730469 169.058594 161.730469 "/>
<path style=" stroke:none;fill-rule:nonzero;fill:rgb(15.689087%,25.099182%,49.409485%);fill-opacity:1;" d="M 167.46875 169.703125 C 163.773438 169.703125 161.664062 166.695312 161.632812 166.652344 L 161.375 166.277344 L 164.464844 160.058594 C 164.65625 159.679688 165.117188 159.523438 165.5 159.714844 C 165.882812 159.902344 166.035156 160.363281 165.847656 160.75 L 163.179688 166.121094 C 164.03125 167.09375 166.816406 169.613281 171.152344 166.992188 C 171.515625 166.773438 171.992188 166.890625 172.210938 167.253906 C 172.433594 167.621094 172.316406 168.09375 171.949219 168.3125 C 170.273438 169.328125 168.773438 169.703125 167.46875 169.703125 "/>
<path style=" stroke:none;fill-rule:nonzero;fill:rgb(15.689087%,25.099182%,49.409485%);fill-opacity:1;" d="M 174.808594 153.609375 C 174.78125 153.609375 174.75 153.609375 174.71875 153.605469 C 174.292969 153.554688 173.992188 153.171875 174.042969 152.746094 L 174.488281 148.972656 C 174.539062 148.550781 174.925781 148.25 175.347656 148.296875 C 175.769531 148.347656 176.074219 148.730469 176.023438 149.15625 L 175.574219 152.929688 C 175.527344 153.320312 175.195312 153.609375 174.808594 153.609375 "/>
<path style=" stroke:none;fill-rule:nonzero;fill:rgb(15.689087%,25.099182%,49.409485%);fill-opacity:1;" d="M 159.347656 152.269531 C 159.320312 152.269531 159.289062 152.269531 159.257812 152.261719 C 158.832031 152.214844 158.53125 151.832031 158.582031 151.40625 L 159.03125 147.632812 C 159.078125 147.210938 159.46875 146.914062 159.886719 146.957031 C 160.3125 147.007812 160.613281 147.394531 160.5625 147.816406 L 160.117188 151.585938 C 160.070312 151.980469 159.734375 152.269531 159.347656 152.269531 "/>
<path style=" stroke:none;fill-rule:nonzero;fill:rgb(70.588684%,85.879517%,73.329163%);fill-opacity:1;" d="M 173.90625 158.324219 C 173.628906 160.058594 175.515625 161.804688 178.128906 162.222656 C 180.734375 162.644531 183.078125 161.578125 183.355469 159.847656 C 183.636719 158.113281 181.746094 156.367188 179.132812 155.949219 C 176.527344 155.527344 174.183594 156.589844 173.90625 158.324219 "/>
<path style=" stroke:none;fill-rule:nonzero;fill:rgb(70.588684%,85.879517%,73.329163%);fill-opacity:1;" d="M 152.210938 156.453125 C 152.015625 157.648438 153.324219 158.851562 155.125 159.140625 C 156.925781 159.429688 158.542969 158.695312 158.730469 157.503906 C 158.925781 156.308594 157.621094 155.105469 155.820312 154.8125 C 154.019531 154.523438 152.402344 155.257812 152.210938 156.453125 "/>
<path style=" stroke:none;fill-rule:nonzero;fill:rgb(15.689087%,25.099182%,49.409485%);fill-opacity:1;" d="M 185.046875 146.859375 C 184.679688 146.859375 184.355469 146.597656 184.285156 146.226562 C 184.242188 145.984375 183.132812 140.328125 177.855469 139.796875 C 177.429688 139.753906 177.121094 139.375 177.164062 138.953125 C 177.207031 138.527344 177.585938 138.214844 178.007812 138.257812 C 184.453125 138.90625 185.792969 145.878906 185.804688 145.949219 C 185.882812 146.367188 185.605469 146.769531 185.183594 146.84375 C 185.136719 146.851562 185.089844 146.859375 185.046875 146.859375 "/>
<path style=" stroke:none;fill-rule:nonzero;fill:rgb(73.329163%,89.7995%,88.238525%);fill-opacity:1;" d="M 218.414062 219.441406 L 268.796875 192.867188 C 268.796875 192.867188 260.527344 216.234375 278.71875 219.441406 C 296.917969 222.648438 303.945312 203.210938 303.117188 190.800781 L 310.683594 193.792969 C 325.210938 199.539062 338.691406 207.605469 350.605469 217.65625 C 354.023438 220.539062 357.125 223.78125 359.917969 227.269531 L 371.542969 241.804688 L 340.035156 268.324219 L 354.398438 329.636719 L 213.871094 329.636719 L 218.414062 219.441406 L 230.75 235.476562 "/>
<path style=" stroke:none;fill-rule:nonzero;fill:rgb(96.859741%,60.389709%,56.858826%);fill-opacity:1;" d="M 39.476562 85.53125 C 39.632812 86.648438 39.042969 87.730469 38.019531 88.199219 L 29.226562 92.257812 L 29.214844 92.257812 L 27.59375 101.78125 L 14.035156 108.167969 L 3.488281 92.863281 C 1.214844 89.566406 0.136719 85.59375 0.425781 81.601562 L 0.738281 77.335938 C 0.941406 74.53125 2.289062 71.9375 4.464844 70.160156 L 9.613281 65.953125 L 12.496094 59.167969 C 14.113281 55.347656 17.273438 52.390625 21.1875 51.023438 L 29.859375 47.988281 L 33.355469 51.605469 L 24.4375 61.25 L 33.660156 61.03125 C 35.953125 60.976562 37.878906 62.753906 38.003906 65.042969 C 38.199219 68.492188 35.78125 71.542969 32.382812 72.140625 L 22.398438 73.902344 L 33.316406 74.183594 C 35.101562 74.230469 36.457031 75.8125 36.230469 77.585938 C 35.925781 79.988281 33.792969 81.738281 31.378906 81.566406 L 27.652344 82.648438 L 21.441406 89.183594 L 30.050781 87.390625 L 39.476562 85.53125 "/>
<path style=" stroke:none;fill-rule:nonzero;fill:rgb(70.588684%,85.879517%,73.329163%);fill-opacity:1;" d="M 117.832031 329.636719 L 262.234375 329.636719 L 270.695312 315.804688 C 275.390625 308.132812 276.078125 298.667969 272.550781 290.402344 L 245.824219 227.777344 C 239.695312 213.417969 227.675781 202.402344 212.839844 197.546875 L 194.578125 191.574219 C 194.578125 191.574219 182.769531 221.957031 158.089844 217.1875 C 140.421875 212.167969 142.523438 195.140625 142.523438 195.140625 L 75.789062 161.359375 L 31.113281 97.523438 L 4.203125 114.300781 L 34.445312 182.066406 C 38.375 190.875 45.414062 197.921875 54.214844 201.859375 L 125.957031 238.542969 C 125.957031 238.542969 121.246094 256.101562 117.832031 329.636719 "/>
<g clip-path="url(#clip1)" clip-rule="nonzero">
<path style=" stroke:none;fill-rule:nonzero;fill:rgb(15.689087%,25.099182%,49.409485%);fill-opacity:1;" d="M 219.589844 330.410156 C 219.46875 330.410156 219.339844 330.378906 219.226562 330.316406 C 218.851562 330.117188 218.707031 329.644531 218.910156 329.273438 L 231.046875 306.675781 L 206.570312 245.109375 C 206.410156 244.714844 206.605469 244.265625 207 244.109375 C 207.394531 243.949219 207.84375 244.140625 208.003906 244.539062 L 232.746094 306.777344 L 220.269531 330 C 220.132812 330.261719 219.867188 330.410156 219.589844 330.410156 "/>
</g>
<path style=" stroke:none;fill-rule:nonzero;fill:rgb(15.689087%,25.099182%,49.409485%);fill-opacity:1;" d="M 340.03125 269.097656 C 339.695312 269.097656 339.386719 268.871094 339.289062 268.535156 L 331.367188 240.523438 C 331.25 240.117188 331.488281 239.6875 331.898438 239.574219 C 332.308594 239.453125 332.734375 239.695312 332.851562 240.105469 L 340.777344 268.113281 C 340.890625 268.523438 340.652344 268.953125 340.242188 269.066406 C 340.171875 269.085938 340.101562 269.097656 340.03125 269.097656 "/>
<path style=" stroke:none;fill-rule:nonzero;fill:rgb(15.689087%,25.099182%,49.409485%);fill-opacity:1;" d="M 125.957031 238.542969 L 130.125 224.5625 L 49.441406 199.316406 Z M 125.957031 238.542969 "/>
<g clip-path="url(#clip2)" clip-rule="nonzero">
<path style=" stroke:none;fill-rule:nonzero;fill:rgb(96.859741%,60.389709%,56.858826%);fill-opacity:1;" d="M 340.035156 268.324219 L 367.960938 244.824219 L 373.332031 264.769531 C 376.101562 275.046875 375.113281 285.976562 370.550781 295.59375 L 354.398438 329.636719 L 332.113281 329.636719 "/>
</g>
<path style=" stroke:none;fill-rule:nonzero;fill:rgb(15.689087%,25.099182%,49.409485%);fill-opacity:1;" d="M 7.4375 122.316406 C 7.179688 122.316406 6.929688 122.191406 6.78125 121.957031 C 6.558594 121.597656 6.664062 121.121094 7.027344 120.894531 L 34.4375 103.621094 L 30.898438 98.566406 L 4.613281 114.957031 C 4.25 115.179688 3.777344 115.070312 3.550781 114.710938 C 3.324219 114.347656 3.433594 113.871094 3.796875 113.644531 L 31.324219 96.480469 L 36.632812 104.0625 L 7.851562 122.199219 C 7.722656 122.277344 7.578125 122.316406 7.4375 122.316406 "/>
<path style=" stroke:none;fill-rule:nonzero;fill:rgb(15.689087%,25.099182%,49.409485%);fill-opacity:1;" d="M 64.074219 169.699219 C 63.84375 169.699219 63.613281 169.597656 63.464844 169.398438 C 63.199219 169.0625 63.265625 168.578125 63.601562 168.316406 L 74.648438 159.792969 C 74.988281 159.53125 75.472656 159.597656 75.734375 159.933594 C 75.992188 160.273438 75.933594 160.753906 75.59375 161.015625 L 64.546875 169.539062 C 64.40625 169.648438 64.238281 169.699219 64.074219 169.699219 "/>
<path style=" stroke:none;fill-rule:nonzero;fill:rgb(15.689087%,25.099182%,49.409485%);fill-opacity:1;" d="M 9.613281 66.726562 C 9.285156 66.726562 8.984375 66.519531 8.878906 66.191406 C 8.746094 65.785156 8.96875 65.351562 9.375 65.21875 L 27.414062 59.363281 C 27.824219 59.234375 28.253906 59.457031 28.386719 59.859375 C 28.519531 60.269531 28.296875 60.703125 27.890625 60.835938 L 9.851562 66.6875 C 9.773438 66.714844 9.691406 66.726562 9.613281 66.726562 "/>
<path style=" stroke:none;fill-rule:nonzero;fill:rgb(15.689087%,25.099182%,49.409485%);fill-opacity:1;" d="M 9.613281 77.863281 C 9.257812 77.863281 8.941406 77.621094 8.859375 77.265625 C 8.765625 76.847656 9.023438 76.433594 9.441406 76.339844 L 36.195312 70.148438 C 36.609375 70.050781 37.023438 70.3125 37.121094 70.726562 C 37.21875 71.144531 36.957031 71.558594 36.542969 71.652344 L 9.785156 77.839844 C 9.726562 77.855469 9.667969 77.863281 9.613281 77.863281 "/>
<path style=" stroke:none;fill-rule:nonzero;fill:rgb(15.689087%,25.099182%,49.409485%);fill-opacity:1;" d="M 14.898438 86.394531 C 14.550781 86.394531 14.230469 86.152344 14.148438 85.796875 C 14.050781 85.378906 14.308594 84.964844 14.722656 84.871094 L 27.574219 81.878906 L 32.65625 81.347656 C 33.082031 81.300781 33.460938 81.609375 33.507812 82.03125 C 33.554688 82.457031 33.246094 82.835938 32.820312 82.882812 L 27.78125 83.414062 L 15.074219 86.371094 C 15.015625 86.386719 14.957031 86.394531 14.898438 86.394531 "/>
<path style=" stroke:none;fill-rule:nonzero;fill:rgb(73.329163%,89.7995%,88.238525%);fill-opacity:1;" d="M 52.96875 64.523438 C 52.96875 66.835938 51.097656 68.710938 48.789062 68.710938 C 46.476562 68.710938 44.605469 66.835938 44.605469 64.523438 C 44.605469 62.214844 46.476562 60.339844 48.789062 60.339844 C 51.097656 60.339844 52.96875 62.214844 52.96875 64.523438 "/>
<path style=" stroke:none;fill-rule:nonzero;fill:rgb(73.329163%,89.7995%,88.238525%);fill-opacity:1;" d="M 76.105469 49.671875 C 76.105469 50.828125 75.167969 51.765625 74.011719 51.765625 C 72.859375 51.765625 71.921875 50.828125 71.921875 49.671875 C 71.921875 48.519531 72.859375 47.578125 74.011719 47.578125 C 75.167969 47.578125 76.105469 48.519531 76.105469 49.671875 "/>
<path style=" stroke:none;fill-rule:nonzero;fill:rgb(73.329163%,89.7995%,88.238525%);fill-opacity:1;" d="M 53.679688 63.953125 C 54.226562 63.746094 56.023438 63.238281 56.609375 65.105469 C 56.636719 65.1875 56.585938 65.277344 56.503906 65.304688 C 56.019531 65.4375 54.476562 65.722656 53.601562 64.167969 C 53.554688 64.085938 53.59375 63.980469 53.679688 63.953125 "/>
</g>
</svg>
