<?xml version="1.0" encoding="UTF-8"?>
<svg xmlns="http://www.w3.org/2000/svg" xmlns:xlink="http://www.w3.org/1999/xlink" width="375pt" height="374.999991pt" viewBox="0 0 375 374.999991" version="1.2">
<defs>
<clipPath id="clip1">
  <path d="M 309 122.65625 L 374.984375 122.65625 L 374.984375 180 L 309 180 Z M 309 122.65625 "/>
</clipPath>
<clipPath id="clip2">
  <path d="M 179 37.5 L 232 37.5 L 232 108 L 179 108 Z M 179 37.5 "/>
</clipPath>
<clipPath id="clip3">
  <path d="M 246 293.0625 L 292.675781 293.0625 L 292.675781 341.90625 L 246 341.90625 Z M 246 293.0625 "/>
</clipPath>
</defs>
<g id="surface1">
<path style=" stroke:none;fill-rule:nonzero;fill:rgb(96.859741%,60.389709%,56.858826%);fill-opacity:1;" d="M 199.976562 105 L 202.652344 98.28125 L 192.746094 93.441406 L 185.039062 94.78125 L 187.640625 105.539062 L 195.746094 111.152344 L 199.386719 111.152344 L 199.476562 110.152344 L 200 108.792969 L 200.566406 104.394531 L 200.15625 104.480469 "/>
<path style=" stroke:none;fill-rule:nonzero;fill:rgb(96.859741%,60.389709%,56.858826%);fill-opacity:1;" d="M 355.113281 164.804688 L 363.261719 157.472656 L 371.726562 169.304688 L 369.457031 172.101562 L 364.125 174.660156 L 359.96875 177.273438 L 357.015625 177.273438 L 355.113281 164.804688 "/>
<path style=" stroke:none;fill-rule:nonzero;fill:rgb(96.859741%,60.389709%,56.858826%);fill-opacity:1;" d="M 2.757812 177.636719 L 10.398438 167.167969 L 17.675781 167.167969 L 19.167969 170.804688 L 17.820312 178.621094 L 15.449219 183.324219 L 11.15625 180.699219 L 5.828125 178.136719 L 2.757812 177.636719 "/>
<path style=" stroke:none;fill-rule:nonzero;fill:rgb(15.689087%,25.099182%,49.409485%);fill-opacity:1;" d="M 264.625 66.097656 C 264.625 66.097656 252.925781 47.332031 270.546875 46.855469 C 289.429688 46.34375 287.671875 58.582031 287.671875 58.582031 C 287.671875 58.582031 297.292969 61.511719 294.214844 66.097656 C 291.136719 70.6875 284.960938 77.078125 284.960938 77.078125 L 280.378906 67.226562 L 264.625 66.097656 "/>
<path style=" stroke:none;fill-rule:nonzero;fill:rgb(15.689087%,25.099182%,49.409485%);fill-opacity:1;" d="M 369.671875 171.480469 C 369.304688 170.34375 368.671875 169.003906 367.996094 167.726562 C 366.699219 165.269531 365.234375 163.03125 365.140625 162.894531 C 364.96875 162.640625 364.632812 162.566406 364.375 162.734375 C 364.117188 162.902344 364.050781 163.246094 364.214844 163.5 C 364.238281 163.53125 365.566406 165.558594 366.804688 167.847656 C 367.535156 169.199219 368.238281 170.640625 368.621094 171.824219 C 368.644531 171.902344 368.683594 171.96875 368.734375 172.023438 C 368.878906 172.179688 369.105469 172.246094 369.316406 172.175781 C 369.371094 172.160156 369.414062 172.128906 369.457031 172.101562 C 369.652344 171.964844 369.75 171.71875 369.671875 171.480469 "/>
<path style=" stroke:none;fill-rule:nonzero;fill:rgb(15.689087%,25.099182%,49.409485%);fill-opacity:1;" d="M 364.484375 173.964844 L 362.617188 168.265625 L 362.371094 167.527344 C 362.273438 167.234375 361.964844 167.078125 361.671875 167.171875 C 361.382812 167.269531 361.226562 167.582031 361.320312 167.871094 L 361.484375 168.382812 L 363.433594 174.308594 C 363.457031 174.386719 363.5 174.449219 363.546875 174.507812 C 363.6875 174.664062 363.914062 174.730469 364.125 174.664062 C 364.125 174.660156 364.128906 174.664062 364.132812 174.660156 C 364.171875 174.648438 364.195312 174.625 364.230469 174.605469 C 364.453125 174.476562 364.566406 174.21875 364.484375 173.964844 "/>
<path style=" stroke:none;fill-rule:nonzero;fill:rgb(15.689087%,25.099182%,49.409485%);fill-opacity:1;" d="M 360.390625 176.613281 L 358.628906 168.667969 L 358.296875 167.15625 C 358.226562 166.859375 357.933594 166.671875 357.632812 166.734375 C 357.335938 166.804688 357.148438 167.097656 357.210938 167.394531 L 357.519531 168.78125 L 359.308594 176.855469 C 359.328125 176.953125 359.375 177.035156 359.4375 177.105469 C 359.539062 177.21875 359.683594 177.28125 359.835938 177.285156 C 359.878906 177.285156 359.925781 177.285156 359.96875 177.273438 C 360.027344 177.261719 360.074219 177.234375 360.125 177.207031 C 360.324219 177.085938 360.445312 176.855469 360.390625 176.613281 "/>
<g clip-path="url(#clip1)" clip-rule="nonzero">
<path style=" stroke:none;fill-rule:nonzero;fill:rgb(96.859741%,60.389709%,56.858826%);fill-opacity:1;" d="M 374.773438 171.3125 C 374.933594 172.417969 374.34375 173.507812 373.332031 173.980469 C 372.203125 174.5 370.867188 174.140625 370.15625 173.113281 L 369.457031 172.101562 C 369.65625 171.964844 369.75 171.71875 369.671875 171.484375 C 369.300781 170.34375 368.675781 169.003906 367.996094 167.726562 C 366.695312 165.265625 365.230469 163.027344 365.144531 162.890625 C 364.964844 162.640625 364.625 162.566406 364.375 162.734375 C 364.117188 162.90625 364.050781 163.246094 364.214844 163.5 C 364.238281 163.53125 365.566406 165.5625 366.804688 167.847656 C 367.535156 169.199219 368.238281 170.640625 368.621094 171.824219 C 368.644531 171.894531 368.6875 171.964844 368.734375 172.023438 C 368.878906 172.175781 369.101562 172.242188 369.316406 172.175781 L 370.214844 174.945312 C 370.59375 176.109375 370.089844 177.371094 369.019531 177.953125 C 367.808594 178.617188 366.296875 178.1875 365.601562 176.996094 L 364.226562 174.605469 C 364.449219 174.476562 364.566406 174.21875 364.488281 173.960938 L 362.613281 168.265625 L 362.375 167.53125 C 362.273438 167.234375 361.964844 167.082031 361.671875 167.175781 C 361.378906 167.269531 361.226562 167.582031 361.320312 167.871094 L 361.488281 168.375 L 363.433594 174.308594 C 363.460938 174.382812 363.5 174.449219 363.550781 174.507812 C 363.691406 174.660156 363.910156 174.730469 364.125 174.660156 L 364.898438 177.121094 C 365.230469 178.152344 364.714844 179.265625 363.71875 179.695312 C 362.738281 180.117188 361.59375 179.738281 361.0625 178.816406 L 360.125 177.207031 C 360.324219 177.089844 360.441406 176.855469 360.390625 176.617188 L 358.632812 168.664062 L 358.292969 167.15625 C 358.226562 166.859375 357.933594 166.671875 357.632812 166.730469 C 357.332031 166.800781 357.148438 167.09375 357.214844 167.398438 L 357.515625 168.777344 L 359.304688 176.855469 C 359.324219 176.949219 359.378906 177.039062 359.4375 177.105469 C 359.542969 177.214844 359.683594 177.28125 359.835938 177.28125 C 359.6875 178.277344 358.832031 179.058594 357.765625 179.042969 L 357.753906 179.039062 C 356.757812 179.023438 355.921875 178.292969 355.761719 177.316406 L 353.910156 169.144531 C 353.269531 166.570312 352.636719 164.085938 351.859375 162.71875 C 351.675781 162.394531 351.335938 161.828125 350.867188 161.058594 C 350.394531 160.285156 349.785156 159.320312 349.070312 158.183594 L 309.335938 136.597656 L 330.132812 122.777344 L 357.761719 148.0625 C 357.761719 148.0625 368.007812 148.121094 373.980469 150.8125 C 375.082031 151.308594 375.304688 152.710938 374.527344 154.066406 C 373.628906 155.652344 371.699219 156.582031 370.355469 156.082031 C 368 155.203125 366.132812 155.25 364.6875 155.253906 C 364.6875 155.253906 369.765625 159.015625 372.757812 163.640625 C 373.191406 164.320312 373.953125 165.789062 374.179688 167.109375 L 374.179688 167.117188 L 374.222656 167.425781 L 374.773438 171.3125 "/>
</g>
<path style=" stroke:none;fill-rule:nonzero;fill:rgb(15.689087%,25.099182%,49.409485%);fill-opacity:1;" d="M 5.613281 177.515625 C 5.984375 176.378906 6.613281 175.042969 7.289062 173.765625 C 8.585938 171.304688 10.050781 169.070312 10.144531 168.929688 C 10.316406 168.675781 10.65625 168.601562 10.910156 168.773438 C 11.164062 168.9375 11.238281 169.28125 11.070312 169.539062 C 11.050781 169.570312 9.71875 171.59375 8.480469 173.882812 C 7.75 175.234375 7.050781 176.679688 6.667969 177.859375 C 6.640625 177.933594 6.601562 178.003906 6.550781 178.058594 C 6.410156 178.214844 6.183594 178.285156 5.96875 178.214844 C 5.917969 178.195312 5.875 178.164062 5.828125 178.136719 C 5.632812 178 5.535156 177.757812 5.613281 177.515625 "/>
<path style=" stroke:none;fill-rule:nonzero;fill:rgb(15.689087%,25.099182%,49.409485%);fill-opacity:1;" d="M 10.800781 180 L 12.671875 174.304688 L 12.914062 173.5625 C 13.011719 173.273438 13.324219 173.113281 13.609375 173.210938 C 13.902344 173.304688 14.0625 173.617188 13.964844 173.910156 L 13.796875 174.417969 L 11.851562 180.347656 C 11.828125 180.421875 11.789062 180.488281 11.738281 180.546875 C 11.59375 180.703125 11.375 180.765625 11.160156 180.703125 C 11.15625 180.703125 11.15625 180.703125 11.152344 180.699219 C 11.117188 180.6875 11.085938 180.664062 11.054688 180.644531 C 10.832031 180.515625 10.71875 180.253906 10.800781 180 "/>
<path style=" stroke:none;fill-rule:nonzero;fill:rgb(15.689087%,25.099182%,49.409485%);fill-opacity:1;" d="M 14.898438 182.652344 L 16.65625 174.703125 L 16.992188 173.191406 C 17.058594 172.894531 17.355469 172.707031 17.652344 172.769531 C 17.953125 172.835938 18.140625 173.132812 18.074219 173.429688 L 17.765625 174.816406 L 15.980469 182.890625 C 15.957031 182.988281 15.910156 183.074219 15.847656 183.140625 C 15.75 183.25 15.605469 183.316406 15.453125 183.324219 C 15.40625 183.324219 15.363281 183.320312 15.320312 183.3125 C 15.261719 183.296875 15.210938 183.273438 15.164062 183.242188 C 14.960938 183.125 14.84375 182.890625 14.898438 182.652344 "/>
<path style=" stroke:none;fill-rule:nonzero;fill:rgb(96.859741%,60.389709%,56.858826%);fill-opacity:1;" d="M 73.703125 135.027344 L 26.21875 164.21875 C 25.511719 165.355469 24.898438 166.328125 24.425781 167.09375 C 23.953125 167.859375 23.605469 168.429688 23.429688 168.753906 C 22.648438 170.125 22.011719 172.597656 21.382812 175.179688 L 21.382812 175.1875 L 19.523438 183.351562 C 19.367188 184.335938 18.527344 185.058594 17.535156 185.078125 L 17.511719 185.078125 C 16.453125 185.101562 15.59375 184.3125 15.449219 183.324219 C 15.601562 183.316406 15.75 183.25 15.847656 183.140625 C 15.914062 183.074219 15.957031 182.984375 15.980469 182.886719 L 17.765625 174.816406 L 18.074219 173.429688 C 18.140625 173.136719 17.949219 172.839844 17.65625 172.773438 C 17.351562 172.707031 17.058594 172.890625 16.992188 173.195312 L 16.65625 174.707031 L 14.894531 182.652344 C 14.84375 182.886719 14.960938 183.125 15.160156 183.242188 L 14.226562 184.851562 C 13.6875 185.773438 12.554688 186.148438 11.570312 185.734375 C 10.566406 185.308594 10.058594 184.1875 10.382812 183.152344 L 11.15625 180.699219 C 11.371094 180.769531 11.601562 180.699219 11.738281 180.542969 C 11.785156 180.492188 11.828125 180.425781 11.851562 180.34375 L 13.800781 174.417969 L 13.972656 173.910156 C 14.058594 173.617188 13.902344 173.308594 13.617188 173.210938 C 13.320312 173.113281 13.011719 173.277344 12.917969 173.5625 L 12.671875 174.300781 L 10.800781 180.003906 C 10.714844 180.253906 10.832031 180.515625 11.054688 180.648438 L 9.679688 183.03125 C 8.992188 184.222656 7.480469 184.652344 6.269531 183.988281 C 5.199219 183.402344 4.691406 182.144531 5.066406 180.988281 L 5.964844 178.210938 C 6.183594 178.285156 6.410156 178.21875 6.550781 178.054688 C 6.601562 178.003906 6.640625 177.9375 6.667969 177.855469 C 7.054688 176.675781 7.753906 175.238281 8.484375 173.878906 C 9.71875 171.59375 11.046875 169.566406 11.070312 169.535156 C 11.238281 169.277344 11.164062 168.9375 10.914062 168.769531 C 10.65625 168.597656 10.316406 168.671875 10.148438 168.929688 C 10.050781 169.070312 8.585938 171.308594 7.289062 173.761719 C 6.617188 175.039062 5.984375 176.382812 5.613281 177.515625 C 5.539062 177.753906 5.632812 178 5.828125 178.136719 L 5.125 179.15625 C 4.425781 180.175781 3.078125 180.535156 1.949219 180.007812 C 0.9375 179.539062 0.355469 178.460938 0.511719 177.351562 L 1.066406 173.460938 L 1.109375 173.152344 L 1.109375 173.144531 C 1.335938 171.832031 2.089844 170.363281 2.535156 169.675781 C 5.515625 165.050781 10.597656 161.289062 10.597656 161.289062 C 9.148438 161.28125 7.28125 161.234375 4.933594 162.113281 C 3.582031 162.617188 1.664062 161.6875 0.753906 160.101562 C -0.0234375 158.753906 0.199219 157.34375 1.308594 156.847656 C 7.273438 154.160156 17.523438 154.097656 17.523438 154.097656 L 45.148438 128.808594 L 73.703125 135.027344 "/>
<g clip-path="url(#clip2)" clip-rule="nonzero">
<path style=" stroke:none;fill-rule:nonzero;fill:rgb(96.859741%,60.389709%,56.858826%);fill-opacity:1;" d="M 231.464844 89.394531 L 214.621094 107.835938 L 199.308594 65.316406 C 198.296875 64.4375 197.425781 63.695312 196.738281 63.105469 C 196.050781 62.519531 195.535156 62.09375 195.246094 61.867188 C 194.003906 60.890625 191.652344 59.886719 189.199219 58.867188 L 181.394531 55.792969 C 180.453125 55.492188 179.859375 54.554688 179.992188 53.566406 L 180 53.550781 C 180.140625 52.496094 181.039062 51.765625 182.042969 51.769531 C 182.03125 51.925781 182.066406 52.082031 182.160156 52.191406 C 182.222656 52.265625 182.304688 52.324219 182.394531 52.363281 L 190.109375 55.359375 L 191.429688 55.867188 C 191.71875 55.976562 192.035156 55.835938 192.152344 55.558594 C 192.257812 55.269531 192.113281 54.953125 191.835938 54.835938 L 190.386719 54.273438 L 182.800781 51.332031 C 182.558594 51.242188 182.316406 51.320312 182.171875 51.507812 L 180.722656 50.332031 C 179.890625 49.660156 179.691406 48.484375 180.25 47.574219 C 180.828125 46.652344 182.007812 46.3125 182.984375 46.800781 L 185.292969 47.9375 C 185.191406 48.136719 185.226562 48.371094 185.359375 48.535156 C 185.402344 48.59375 185.464844 48.636719 185.535156 48.671875 L 191.105469 51.5 L 191.585938 51.742188 C 191.855469 51.882812 192.191406 51.769531 192.332031 51.5 C 192.46875 51.226562 192.359375 50.894531 192.085938 50.753906 L 191.390625 50.398438 L 186.039062 47.683594 C 185.804688 47.566406 185.523438 47.640625 185.367188 47.839844 L 183.210938 46.125 C 182.132812 45.257812 181.949219 43.703125 182.78125 42.601562 C 183.519531 41.636719 184.851562 41.335938 185.9375 41.878906 L 188.542969 43.1875 C 188.4375 43.390625 188.476562 43.621094 188.609375 43.785156 C 188.652344 43.839844 188.710938 43.894531 188.785156 43.929688 C 189.898438 44.492188 191.214844 45.398438 192.441406 46.328125 C 194.523438 47.898438 196.324219 49.523438 196.355469 49.546875 C 196.578125 49.75 196.929688 49.730469 197.128906 49.507812 C 197.335938 49.277344 197.316406 48.933594 197.09375 48.726562 C 196.964844 48.617188 194.980469 46.824219 192.742188 45.167969 C 191.585938 44.308594 190.351562 43.480469 189.289062 42.941406 C 189.058594 42.832031 188.800781 42.890625 188.640625 43.058594 L 187.738281 42.21875 C 186.835938 41.363281 186.679688 39.984375 187.375 38.953125 C 187.996094 38.023438 189.15625 37.609375 190.226562 37.933594 L 193.992188 39.0625 L 194.296875 39.160156 C 195.566406 39.589844 196.898438 40.558594 197.503906 41.09375 C 201.632812 44.75 204.582031 50.332031 204.582031 50.332031 C 204.808594 48.902344 205.132812 47.066406 204.625 44.609375 C 204.335938 43.207031 205.546875 41.445312 207.25 40.796875 C 208.703125 40.238281 210.0625 40.671875 210.382812 41.828125 C 212.140625 48.136719 210.640625 58.261719 210.640625 58.261719 L 231.464844 89.394531 "/>
</g>
<path style=" stroke:none;fill-rule:nonzero;fill:rgb(15.689087%,25.099182%,49.409485%);fill-opacity:1;" d="M 189.285156 42.945312 C 190.351562 43.480469 191.582031 44.308594 192.742188 45.167969 C 194.980469 46.828125 196.964844 48.613281 197.09375 48.726562 C 197.316406 48.933594 197.335938 49.277344 197.132812 49.507812 C 196.925781 49.734375 196.578125 49.75 196.347656 49.546875 C 196.320312 49.519531 194.519531 47.902344 192.445312 46.328125 C 191.21875 45.402344 189.898438 44.488281 188.785156 43.933594 C 188.714844 43.894531 188.652344 43.847656 188.609375 43.785156 C 188.472656 43.625 188.441406 43.390625 188.542969 43.191406 C 188.566406 43.140625 188.601562 43.105469 188.640625 43.0625 C 188.804688 42.890625 189.0625 42.828125 189.285156 42.945312 "/>
<path style="fill:none;stroke-width:1;stroke-linecap:butt;stroke-linejoin:miter;stroke:rgb(10.5896%,23.529053%,37.649536%);stroke-opacity:1;stroke-miterlimit:10;" d="M 2559.678256 4052.682305 C 2574.121663 4045.427733 2590.787133 4034.201681 2606.50029 4022.552004 C 2636.815573 4000.046946 2663.69195 3975.84739 2665.437856 3974.311751 C 2668.453513 3971.505238 2668.718044 3966.845367 2665.966919 3963.721135 C 2663.162887 3960.649857 2658.454231 3960.438044 2655.332762 3963.191604 C 2654.962418 3963.562276 2630.572635 3985.48485 2602.479415 4006.82494 C 2585.866851 4019.374819 2567.984538 4031.765839 2552.906256 4039.285176 C 2551.953943 4039.814707 2551.107443 4040.450144 2550.525474 4041.297393 C 2548.673755 4043.468469 2548.250505 4046.645654 2549.626068 4049.346261 C 2549.943505 4050.034651 2550.419662 4050.511229 2550.948724 4051.093712 C 2553.170787 4053.423648 2556.662599 4054.270897 2559.678256 4052.682305 Z M 2559.678256 4052.682305 " transform="matrix(0.0738334,0,0,-0.0737681,0.295338,341.904148)"/>
<path style=" stroke:none;fill-rule:nonzero;fill:rgb(15.689087%,25.099182%,49.409485%);fill-opacity:1;" d="M 186.039062 47.6875 L 191.386719 50.402344 L 192.085938 50.753906 C 192.359375 50.894531 192.46875 51.226562 192.332031 51.496094 C 192.191406 51.769531 191.859375 51.878906 191.585938 51.742188 L 191.105469 51.496094 L 185.539062 48.675781 C 185.46875 48.640625 185.40625 48.589844 185.359375 48.53125 C 185.226562 48.371094 185.191406 48.136719 185.292969 47.9375 C 185.292969 47.9375 185.292969 47.933594 185.292969 47.933594 C 185.3125 47.898438 185.339844 47.871094 185.363281 47.84375 C 185.523438 47.644531 185.800781 47.570312 186.039062 47.6875 "/>
<path style="fill:none;stroke-width:1;stroke-linecap:butt;stroke-linejoin:miter;stroke:rgb(10.5896%,23.529053%,37.649536%);stroke-opacity:1;stroke-miterlimit:10;" d="M 2515.713159 3988.397269 L 2588.14182 3951.594881 L 2597.61204 3946.829104 C 2601.315477 3944.922793 2602.796852 3940.421781 2600.945134 3936.768019 C 2599.040508 3933.061304 2594.543477 3931.578617 2590.840039 3933.431975 L 2584.33257 3936.768019 L 2508.941159 3975.000141 C 2507.988846 3975.476718 2507.142346 3976.165108 2506.507471 3976.959404 C 2504.708659 3979.130481 2504.232502 3982.307665 2505.608065 3985.008272 C 2505.608065 3985.008272 2505.608065 3985.061225 2505.608065 3985.061225 C 2505.872596 3985.537803 2506.24294 3985.908475 2506.560378 3986.279146 C 2508.729534 3988.979753 2512.485878 3989.985861 2515.713159 3988.397269 Z M 2515.713159 3988.397269 " transform="matrix(0.0738334,0,0,-0.0737681,0.295338,341.904148)"/>
<path style=" stroke:none;fill-rule:nonzero;fill:rgb(15.689087%,25.099182%,49.409485%);fill-opacity:1;" d="M 182.796875 51.332031 L 190.386719 54.277344 L 191.832031 54.835938 C 192.117188 54.949219 192.257812 55.269531 192.148438 55.554688 C 192.039062 55.839844 191.71875 55.980469 191.429688 55.871094 L 190.109375 55.355469 L 182.394531 52.363281 C 182.300781 52.328125 182.222656 52.265625 182.164062 52.199219 C 182.070312 52.078125 182.027344 51.925781 182.046875 51.773438 C 182.050781 51.734375 182.0625 51.691406 182.078125 51.648438 C 182.097656 51.59375 182.132812 51.546875 182.167969 51.503906 C 182.316406 51.320312 182.566406 51.242188 182.796875 51.332031 "/>
<path style="fill:none;stroke-width:1;stroke-linecap:butt;stroke-linejoin:miter;stroke:rgb(10.5896%,23.529053%,37.649536%);stroke-opacity:1;stroke-miterlimit:10;" d="M 2471.800969 3938.992048 L 2574.597819 3899.065428 L 2594.173133 3891.493138 C 2598.03529 3889.957499 2599.939915 3885.615347 2598.45854 3881.749772 C 2596.977165 3877.884197 2592.638852 3875.977887 2588.723789 3877.460573 L 2570.841475 3884.450379 L 2466.351625 3925.012436 C 2465.081875 3925.489014 2464.02375 3926.336263 2463.230156 3927.236465 C 2461.960406 3928.878011 2461.378437 3930.943181 2461.642969 3933.008351 C 2461.695875 3933.537881 2461.854594 3934.120365 2462.066219 3934.702849 C 2462.33075 3935.444192 2462.806906 3936.079629 2463.283062 3936.662113 C 2465.2935 3939.150907 2468.6795 3940.209969 2471.800969 3938.992048 Z M 2471.800969 3938.992048 " transform="matrix(0.0738334,0,0,-0.0737681,0.295338,341.904148)"/>
<path style=" stroke:none;fill-rule:nonzero;fill:rgb(15.689087%,25.099182%,49.409485%);fill-opacity:1;" d="M 201.8125 98.972656 C 200.71875 98.480469 199.304688 98.050781 197.90625 97.6875 C 195.210938 96.988281 192.566406 96.566406 192.402344 96.539062 C 192.101562 96.492188 191.816406 96.695312 191.769531 96.996094 C 191.722656 97.300781 191.925781 97.582031 192.230469 97.632812 C 192.269531 97.636719 194.660156 98.019531 197.191406 98.644531 C 198.683594 99.015625 200.21875 99.46875 201.351562 99.984375 C 201.425781 100.015625 201.503906 100.03125 201.578125 100.03125 C 201.792969 100.03125 201.992188 99.914062 202.085938 99.710938 C 202.109375 99.65625 202.113281 99.605469 202.121094 99.554688 C 202.15625 99.316406 202.039062 99.078125 201.8125 98.972656 "/>
<path style=" stroke:none;fill-rule:nonzero;fill:rgb(15.689087%,25.099182%,49.409485%);fill-opacity:1;" d="M 200.152344 104.480469 L 194.679688 102.023438 L 193.964844 101.707031 C 193.691406 101.582031 193.359375 101.703125 193.234375 101.984375 C 193.109375 102.261719 193.234375 102.589844 193.515625 102.714844 L 194.003906 102.933594 L 199.699219 105.488281 C 199.773438 105.519531 199.847656 105.539062 199.925781 105.539062 C 200.136719 105.539062 200.335938 105.417969 200.429688 105.214844 C 200.429688 105.210938 200.429688 105.210938 200.433594 105.210938 C 200.449219 105.175781 200.449219 105.136719 200.457031 105.101562 C 200.511719 104.851562 200.398438 104.585938 200.152344 104.480469 "/>
<path style=" stroke:none;fill-rule:nonzero;fill:rgb(15.689087%,25.099182%,49.409485%);fill-opacity:1;" d="M 199.355469 109.289062 L 192.292969 105.238281 L 190.945312 104.464844 C 190.683594 104.316406 190.34375 104.410156 190.191406 104.671875 C 190.039062 104.9375 190.132812 105.273438 190.394531 105.425781 L 191.628906 106.132812 L 198.804688 110.25 C 198.890625 110.300781 198.984375 110.320312 199.078125 110.320312 C 199.226562 110.320312 199.375 110.261719 199.476562 110.148438 C 199.511719 110.121094 199.539062 110.082031 199.5625 110.046875 C 199.589844 109.992188 199.601562 109.9375 199.613281 109.882812 C 199.664062 109.652344 199.570312 109.410156 199.355469 109.289062 "/>
<path style=" stroke:none;fill-rule:nonzero;fill:rgb(96.859741%,60.389709%,56.858826%);fill-opacity:1;" d="M 206.15625 103.816406 C 205.835938 105.15625 204.496094 105.984375 203.148438 105.6875 L 200.457031 105.101562 C 200.511719 104.851562 200.398438 104.589844 200.15625 104.480469 L 194.675781 102.023438 L 193.96875 101.707031 C 193.691406 101.582031 193.363281 101.707031 193.238281 101.980469 C 193.113281 102.257812 193.238281 102.589844 193.511719 102.71875 L 194.003906 102.929688 L 199.699219 105.488281 C 199.773438 105.519531 199.84375 105.535156 199.929688 105.535156 C 200.132812 105.535156 200.335938 105.417969 200.429688 105.21875 L 202.769531 106.296875 C 203.753906 106.75 204.230469 107.882812 203.875 108.90625 C 203.523438 109.914062 202.484375 110.5 201.433594 110.277344 L 199.617188 109.886719 C 199.660156 109.660156 199.574219 109.414062 199.355469 109.289062 L 192.292969 105.242188 L 190.949219 104.464844 C 190.683594 104.320312 190.34375 104.40625 190.1875 104.671875 C 190.042969 104.9375 190.128906 105.277344 190.394531 105.425781 L 191.628906 106.132812 L 198.804688 110.25 C 198.894531 110.300781 198.980469 110.320312 199.078125 110.320312 C 199.226562 110.320312 199.375 110.265625 199.476562 110.152344 C 200.117188 110.925781 200.117188 112.085938 199.390625 112.859375 L 199.375 112.875 C 198.695312 113.589844 197.585938 113.726562 196.761719 113.175781 L 189.464844 109.046875 L 189.457031 109.046875 C 187.125 107.777344 184.863281 106.582031 183.332031 106.226562 C 182.964844 106.148438 182.316406 106.015625 181.433594 105.851562 C 180.539062 105.683594 179.410156 105.46875 178.09375 105.234375 L 135.367188 120.054688 L 139.148438 95.378906 L 176.464844 91.996094 C 176.464844 91.996094 183.410156 84.472656 189.421875 81.878906 C 190.527344 81.390625 191.71875 82.179688 192.195312 83.65625 C 192.757812 85.394531 192.152344 87.4375 190.875 88.097656 C 188.644531 89.246094 187.417969 90.65625 186.445312 91.726562 C 186.445312 91.726562 192.644531 90.507812 198.082031 91.421875 C 198.886719 91.558594 200.480469 91.984375 201.609375 92.699219 L 201.617188 92.707031 L 201.875 92.886719 L 205.125 95.097656 C 206.046875 95.722656 206.453125 96.882812 206.121094 97.953125 C 205.75 99.136719 204.582031 99.886719 203.347656 99.71875 L 202.121094 99.554688 C 202.15625 99.316406 202.039062 99.082031 201.8125 98.976562 C 200.714844 98.480469 199.308594 98.050781 197.902344 97.6875 C 195.210938 96.984375 192.566406 96.566406 192.402344 96.535156 C 192.101562 96.492188 191.820312 96.699219 191.769531 97 C 191.722656 97.304688 191.929688 97.582031 192.234375 97.632812 C 192.269531 97.632812 194.664062 98.019531 197.1875 98.644531 C 198.679688 99.015625 200.222656 99.472656 201.351562 99.980469 C 201.425781 100.015625 201.503906 100.03125 201.582031 100.03125 C 201.789062 100.03125 201.996094 99.914062 202.082031 99.710938 L 204.742188 100.910156 C 205.847656 101.410156 206.445312 102.636719 206.15625 103.816406 "/>
<path style=" stroke:none;fill-rule:nonzero;fill:rgb(15.689087%,25.099182%,49.409485%);fill-opacity:1;" d="M 120.726562 97.480469 C 120.726562 97.480469 109.558594 90.910156 109.558594 78.851562 C 109.558594 66.796875 113.605469 62.988281 106.554688 57.410156 C 98.539062 51.066406 72.191406 61.625 80.53125 75.664062 C 80.71875 75.980469 80.898438 76.3125 81.042969 76.65625 C 82.28125 79.566406 80.945312 85.289062 63.90625 92.558594 C 40.179688 102.679688 72.207031 119.675781 84.394531 112.085938 C 96.585938 104.492188 120.726562 97.480469 120.726562 97.480469 "/>
<path style=" stroke:none;fill-rule:nonzero;fill:rgb(96.859741%,60.389709%,56.858826%);fill-opacity:1;" d="M 95.273438 100.269531 C 95.273438 100.269531 98.261719 96.226562 97.015625 89.582031 L 108.214844 90.808594 L 112.355469 97.429688 L 118.742188 101.621094 L 107.523438 115.683594 L 94.371094 111.554688 L 93.960938 103.148438 "/>
<path style=" stroke:none;fill-rule:nonzero;fill:rgb(96.859741%,60.389709%,56.858826%);fill-opacity:1;" d="M 107.59375 92.082031 C 102.535156 94.359375 96.585938 92.109375 94.304688 87.054688 L 90.628906 78.902344 C 88.351562 73.847656 90.601562 67.902344 95.660156 65.625 C 100.722656 63.347656 106.671875 65.601562 108.953125 70.652344 L 112.628906 78.804688 C 114.90625 83.859375 112.65625 89.804688 107.59375 92.082031 "/>
<path style=" stroke:none;fill-rule:nonzero;fill:rgb(96.859741%,60.389709%,56.858826%);fill-opacity:1;" d="M 94.371094 83.332031 C 94.371094 86.089844 92.140625 88.316406 89.386719 88.316406 C 86.628906 88.316406 84.394531 86.089844 84.394531 83.332031 C 84.394531 80.582031 86.628906 78.351562 89.386719 78.351562 C 92.140625 78.351562 94.371094 80.582031 94.371094 83.332031 "/>
<path style=" stroke:none;fill-rule:nonzero;fill:rgb(73.728943%,90.19928%,88.62915%);fill-opacity:1;" d="M 95.675781 82.773438 C 96.101562 83.511719 97.347656 83.589844 98.457031 82.953125 C 99.566406 82.3125 100.125 81.199219 99.703125 80.464844 C 99.277344 79.726562 98.03125 79.644531 96.921875 80.285156 C 95.808594 80.925781 95.253906 82.035156 95.675781 82.773438 "/>
<path style=" stroke:none;fill-rule:nonzero;fill:rgb(73.728943%,90.19928%,88.62915%);fill-opacity:1;" d="M 108.058594 76.207031 C 108.136719 76.597656 108.675781 76.816406 109.261719 76.703125 C 109.84375 76.589844 110.261719 76.179688 110.1875 75.792969 C 110.109375 75.402344 109.570312 75.179688 108.984375 75.296875 C 108.398438 75.410156 107.984375 75.816406 108.058594 76.207031 "/>
<path style=" stroke:none;fill-rule:nonzero;fill:rgb(15.689087%,25.099182%,49.409485%);fill-opacity:1;" d="M 90.402344 78.351562 C 90.402344 78.351562 98.671875 73.125 100.375 66.179688 C 100.375 66.179688 103.605469 69.960938 109.71875 72.355469 L 109.121094 63.296875 L 96.222656 60.785156 L 84.394531 68.691406 L 90.402344 78.351562 "/>
<path style=" stroke:none;fill-rule:nonzero;fill:rgb(96.859741%,60.389709%,56.858826%);fill-opacity:1;" d="M 279.074219 94.015625 C 279.074219 94.015625 276.082031 89.964844 277.328125 83.328125 L 266.128906 84.550781 L 262.015625 91.421875 L 255.605469 95.359375 L 266.820312 109.429688 L 279.972656 105.300781 L 280.378906 96.890625 "/>
<path style=" stroke:none;fill-rule:nonzero;fill:rgb(96.859741%,60.389709%,56.858826%);fill-opacity:1;" d="M 266.75 85.824219 C 271.8125 88.101562 277.761719 85.851562 280.039062 80.796875 L 283.714844 72.644531 C 285.996094 67.589844 283.742188 61.644531 278.683594 59.367188 C 273.625 57.089844 267.671875 59.339844 265.394531 64.398438 L 261.71875 72.546875 C 259.4375 77.605469 261.691406 83.550781 266.75 85.824219 "/>
<path style=" stroke:none;fill-rule:nonzero;fill:rgb(96.859741%,60.389709%,56.858826%);fill-opacity:1;" d="M 279.972656 77.078125 C 279.972656 79.828125 282.207031 82.0625 284.960938 82.0625 C 287.714844 82.0625 289.949219 79.828125 289.949219 77.078125 C 289.949219 74.324219 287.714844 72.09375 284.960938 72.09375 C 282.207031 72.09375 279.972656 74.324219 279.972656 77.078125 "/>
<path style=" stroke:none;fill-rule:nonzero;fill:rgb(15.689087%,25.099182%,49.409485%);fill-opacity:1;" d="M 283.945312 72.09375 C 283.945312 72.09375 275.671875 66.867188 273.972656 59.921875 C 273.972656 59.921875 270.738281 63.703125 264.625 66.097656 L 265.222656 57.039062 L 278.125 54.527344 L 289.949219 62.4375 L 283.945312 72.09375 "/>
<path style=" stroke:none;fill-rule:nonzero;fill:rgb(73.728943%,90.19928%,88.62915%);fill-opacity:1;" d="M 277.550781 78.007812 C 277.125 78.746094 275.882812 78.824219 274.769531 78.1875 C 273.65625 77.546875 273.101562 76.433594 273.523438 75.695312 C 273.949219 74.960938 275.195312 74.878906 276.304688 75.519531 C 277.417969 76.15625 277.976562 77.269531 277.550781 78.007812 "/>
<path style=" stroke:none;fill-rule:nonzero;fill:rgb(73.728943%,90.19928%,88.62915%);fill-opacity:1;" d="M 265.292969 73.035156 C 265.21875 73.421875 264.683594 73.644531 264.09375 73.53125 C 263.507812 73.417969 263.09375 73.007812 263.171875 72.621094 C 263.246094 72.234375 263.78125 72.011719 264.371094 72.125 C 264.957031 72.238281 265.371094 72.644531 265.292969 73.035156 "/>
<path style=" stroke:none;fill-rule:nonzero;fill:rgb(15.689087%,25.099182%,49.409485%);fill-opacity:1;" d="M 104.996094 80.78125 C 104.855469 80.78125 104.722656 80.707031 104.660156 80.570312 C 104.578125 80.382812 104.65625 80.164062 104.839844 80.078125 L 107.761719 78.746094 L 102.605469 73.871094 C 102.460938 73.730469 102.453125 73.5 102.59375 73.347656 C 102.734375 73.203125 102.96875 73.195312 103.113281 73.335938 L 109.0625 78.960938 L 105.148438 80.75 C 105.101562 80.773438 105.050781 80.78125 104.996094 80.78125 "/>
<path style=" stroke:none;fill-rule:nonzero;fill:rgb(15.689087%,25.099182%,49.409485%);fill-opacity:1;" d="M 107.023438 87.207031 C 103.429688 87.207031 103.011719 83.40625 103.007812 83.371094 L 102.980469 83.109375 L 107.757812 80.945312 L 106.582031 79.84375 C 106.433594 79.707031 106.425781 79.472656 106.566406 79.320312 C 106.703125 79.175781 106.9375 79.167969 107.089844 79.304688 L 109.066406 81.160156 L 103.785156 83.554688 C 103.929688 84.316406 104.566406 86.46875 107.023438 86.46875 C 107.226562 86.46875 107.390625 86.632812 107.390625 86.835938 C 107.390625 87.042969 107.226562 87.207031 107.023438 87.207031 "/>
<path style=" stroke:none;fill-rule:nonzero;fill:rgb(15.689087%,25.099182%,49.409485%);fill-opacity:1;" d="M 103.425781 93.328125 C 99.199219 93.328125 96.449219 91.117188 96.320312 91.015625 C 96.167969 90.886719 96.144531 90.65625 96.269531 90.496094 C 96.398438 90.339844 96.632812 90.316406 96.789062 90.445312 C 96.824219 90.472656 100.066406 93.066406 104.777344 92.511719 C 104.972656 92.488281 105.160156 92.632812 105.1875 92.832031 C 105.210938 93.039062 105.066406 93.21875 104.863281 93.246094 C 104.367188 93.304688 103.886719 93.328125 103.425781 93.328125 "/>
<path style=" stroke:none;fill-rule:nonzero;fill:rgb(15.689087%,25.099182%,49.409485%);fill-opacity:1;" d="M 92.167969 84.144531 C 92.050781 84.144531 91.9375 84.089844 91.867188 83.988281 C 90.117188 81.484375 87.097656 81.222656 87.070312 81.222656 C 86.867188 81.203125 86.714844 81.027344 86.730469 80.824219 C 86.746094 80.621094 86.929688 80.46875 87.128906 80.484375 C 87.265625 80.496094 90.527344 80.78125 92.472656 83.566406 C 92.585938 83.734375 92.546875 83.964844 92.378906 84.078125 C 92.316406 84.125 92.242188 84.144531 92.167969 84.144531 "/>
<path style=" stroke:none;fill-rule:nonzero;fill:rgb(15.689087%,25.099182%,49.409485%);fill-opacity:1;" d="M 88.050781 86.339844 C 87.855469 86.339844 87.691406 86.183594 87.679688 85.980469 C 87.679688 85.839844 87.558594 82.472656 89.167969 81.320312 C 89.335938 81.199219 89.566406 81.238281 89.6875 81.402344 C 89.804688 81.570312 89.765625 81.800781 89.597656 81.917969 C 88.527344 82.683594 88.386719 85.089844 88.417969 85.953125 C 88.429688 86.15625 88.269531 86.328125 88.066406 86.335938 C 88.0625 86.339844 88.054688 86.339844 88.050781 86.339844 "/>
<path style=" stroke:none;fill-rule:nonzero;fill:rgb(15.689087%,25.099182%,49.409485%);fill-opacity:1;" d="M 282.425781 77.78125 C 282.351562 77.78125 282.277344 77.761719 282.214844 77.714844 C 282.046875 77.597656 282.007812 77.367188 282.121094 77.199219 C 284.066406 74.414062 287.328125 74.128906 287.46875 74.117188 C 287.671875 74.109375 287.847656 74.257812 287.863281 74.457031 C 287.878906 74.660156 287.730469 74.839844 287.523438 74.855469 C 287.496094 74.859375 284.46875 75.128906 282.726562 77.621094 C 282.65625 77.726562 282.539062 77.78125 282.425781 77.78125 "/>
<path style=" stroke:none;fill-rule:nonzero;fill:rgb(15.689087%,25.099182%,49.409485%);fill-opacity:1;" d="M 286.542969 79.972656 C 286.539062 79.972656 286.53125 79.972656 286.527344 79.972656 C 286.324219 79.960938 286.167969 79.792969 286.171875 79.585938 C 286.207031 78.726562 286.0625 76.320312 284.996094 75.554688 C 284.828125 75.433594 284.789062 75.203125 284.910156 75.035156 C 285.03125 74.871094 285.261719 74.835938 285.425781 74.953125 C 287.035156 76.105469 286.917969 79.476562 286.910156 79.617188 C 286.90625 79.816406 286.738281 79.972656 286.542969 79.972656 "/>
<path style=" stroke:none;fill-rule:nonzero;fill:rgb(15.689087%,25.099182%,49.409485%);fill-opacity:1;" d="M 270.394531 87.066406 C 270.195312 87.066406 270.03125 86.910156 270.023438 86.710938 C 270.019531 86.503906 270.179688 86.339844 270.382812 86.328125 C 270.460938 86.328125 278.128906 86.03125 280.265625 79.410156 C 280.324219 79.210938 280.535156 79.109375 280.730469 79.167969 C 280.921875 79.234375 281.03125 79.441406 280.964844 79.632812 C 278.671875 86.761719 270.484375 87.066406 270.40625 87.066406 C 270.398438 87.066406 270.394531 87.066406 270.394531 87.066406 "/>
<path style=" stroke:none;fill-rule:nonzero;fill:rgb(15.689087%,25.099182%,49.409485%);fill-opacity:1;" d="M 268.574219 73.886719 C 268.515625 73.886719 268.453125 73.871094 268.394531 73.839844 L 265.457031 72.152344 L 270.824219 67.558594 C 270.976562 67.429688 271.210938 67.445312 271.34375 67.601562 C 271.472656 67.753906 271.457031 67.988281 271.304688 68.121094 L 266.726562 72.035156 L 268.761719 73.199219 C 268.9375 73.300781 269 73.523438 268.898438 73.703125 C 268.828125 73.820312 268.707031 73.886719 268.574219 73.886719 "/>
<path style=" stroke:none;fill-rule:nonzero;fill:rgb(15.689087%,25.099182%,49.409485%);fill-opacity:1;" d="M 265.722656 80.726562 C 265.210938 80.726562 264.664062 80.617188 264.082031 80.363281 C 263.898438 80.28125 263.8125 80.066406 263.894531 79.878906 C 263.976562 79.695312 264.195312 79.609375 264.382812 79.6875 C 267.121094 80.890625 268.890625 78.191406 269.414062 77.238281 L 264.199219 74.550781 L 266.785156 72.535156 C 266.945312 72.410156 267.179688 72.441406 267.304688 72.601562 C 267.429688 72.761719 267.402344 72.992188 267.242188 73.121094 L 265.566406 74.421875 L 270.390625 76.910156 L 270.242188 77.230469 C 269.621094 78.601562 267.992188 80.726562 265.722656 80.726562 "/>
<path style=" stroke:none;fill-rule:nonzero;fill:rgb(15.689087%,25.099182%,49.409485%);fill-opacity:1;" d="M 99.128906 77.894531 C 99.097656 77.894531 99.0625 77.890625 99.027344 77.882812 C 98.832031 77.824219 98.71875 77.617188 98.773438 77.425781 C 98.792969 77.359375 99.253906 75.808594 100.640625 75.632812 C 100.84375 75.613281 101.027344 75.75 101.054688 75.953125 C 101.082031 76.15625 100.9375 76.339844 100.734375 76.367188 C 99.832031 76.480469 99.488281 77.617188 99.484375 77.628906 C 99.4375 77.792969 99.289062 77.894531 99.128906 77.894531 "/>
<path style=" stroke:none;fill-rule:nonzero;fill:rgb(15.689087%,25.099182%,49.409485%);fill-opacity:1;" d="M 105.894531 74.433594 C 105.789062 74.433594 105.6875 74.390625 105.613281 74.304688 C 105.480469 74.148438 105.5 73.917969 105.652344 73.785156 C 105.699219 73.746094 106.765625 72.84375 107.988281 73.550781 C 108.167969 73.652344 108.226562 73.875 108.125 74.054688 C 108.023438 74.230469 107.796875 74.289062 107.621094 74.191406 C 106.847656 73.742188 106.140625 74.335938 106.136719 74.34375 C 106.066406 74.402344 105.980469 74.433594 105.894531 74.433594 "/>
<path style=" stroke:none;fill-rule:nonzero;fill:rgb(15.689087%,25.099182%,49.409485%);fill-opacity:1;" d="M 274.300781 72.464844 C 274.164062 72.464844 274.027344 72.382812 273.964844 72.246094 C 273.367188 70.941406 271.828125 71.042969 271.761719 71.046875 C 271.5625 71.058594 271.382812 70.910156 271.367188 70.707031 C 271.351562 70.507812 271.5 70.328125 271.707031 70.3125 C 271.792969 70.304688 273.820312 70.160156 274.636719 71.9375 C 274.722656 72.125 274.640625 72.34375 274.453125 72.429688 C 274.40625 72.453125 274.351562 72.464844 274.300781 72.464844 "/>
<path style=" stroke:none;fill-rule:nonzero;fill:rgb(15.689087%,25.099182%,49.409485%);fill-opacity:1;" d="M 267.523438 69.257812 C 267.402344 69.257812 267.28125 69.195312 267.210938 69.085938 C 266.757812 68.363281 265.722656 68.664062 265.679688 68.675781 C 265.488281 68.734375 265.28125 68.625 265.222656 68.433594 C 265.160156 68.238281 265.269531 68.03125 265.464844 67.972656 C 265.53125 67.953125 267.078125 67.492188 267.835938 68.691406 C 267.949219 68.863281 267.890625 69.09375 267.722656 69.199219 C 267.660156 69.238281 267.59375 69.257812 267.523438 69.257812 "/>
<g clip-path="url(#clip3)" clip-rule="nonzero">
<path style=" stroke:none;fill-rule:nonzero;fill:rgb(79.60968%,92.939758%,86.669922%);fill-opacity:1;" d="M 281.054688 293.496094 L 290.6875 310.6875 C 293.371094 314.476562 292.15625 319.761719 288.085938 322 L 252.992188 341.3125 C 249.195312 343.402344 244.871094 339.582031 246.484375 335.5625 L 259.34375 303.515625 L 273.734375 293.496094 "/>
</g>
<path style=" stroke:none;fill-rule:nonzero;fill:rgb(73.728943%,90.19928%,88.62915%);fill-opacity:1;" d="M 100.582031 312.023438 L 71.390625 304.886719 L 64.601562 323.117188 L 75.757812 325.699219 L 79.546875 320.167969 L 81.652344 327.292969 L 113.125 334.496094 C 114.394531 334.789062 115.574219 333.753906 115.445312 332.460938 C 115.058594 328.445312 112.203125 325.101562 108.296875 324.085938 C 104.574219 323.117188 101.789062 320.023438 101.214844 316.222656 L 100.582031 312.023438 "/>
<path style=" stroke:none;fill-rule:nonzero;fill:rgb(73.728943%,90.19928%,88.62915%);fill-opacity:1;" d="M 127.480469 264.734375 L 116.890625 236.632812 L 97.996094 241.328125 L 102.164062 251.988281 L 108.875 251.988281 L 104.175781 257.746094 L 115.996094 287.769531 C 116.472656 288.976562 117.992188 289.363281 118.992188 288.53125 C 122.085938 285.945312 123.238281 281.703125 121.871094 277.90625 C 120.570312 274.292969 121.550781 270.246094 124.363281 267.628906 L 127.480469 264.734375 "/>
<path style=" stroke:none;fill-rule:nonzero;fill:rgb(79.60968%,92.939758%,86.669922%);fill-opacity:1;" d="M 292.8125 212.941406 L 312.5 211.785156 C 317.085938 211.027344 321.308594 214.425781 321.550781 219.0625 L 323.632812 259.039062 C 323.851562 263.363281 318.527344 265.582031 315.613281 262.378906 L 292.363281 236.835938 L 289.617188 219.523438 "/>
<path style=" stroke:none;fill-rule:nonzero;fill:rgb(79.60968%,92.939758%,86.669922%);fill-opacity:1;" d="M 82.261719 178.265625 L 80.511719 232.589844 L 58.921875 297.296875 C 58.921875 297.296875 64.15625 313.308594 100.789062 313.308594 L 108.964844 236.511719 L 111.421875 188.53125 L 132.519531 210.042969 L 112.238281 237.492188 C 112.238281 237.492188 114.265625 253.828125 133.234375 273.105469 L 161.480469 207.789062 C 162.898438 204.722656 161.96875 201.078125 159.257812 199.066406 L 118.6875 168.96875 L 99.152344 153.832031 L 82.261719 178.265625 "/>
<path style=" stroke:none;fill-rule:nonzero;fill:rgb(70.588684%,85.879517%,73.329163%);fill-opacity:1;" d="M 297.734375 260.300781 L 273.597656 241.96875 L 280.730469 293.660156 C 268.5 311.347656 249.128906 309.378906 249.128906 309.378906 L 245.933594 224.207031 L 228.738281 213.789062 L 255.6875 162.964844 L 271.023438 148.0625 L 292.109375 172.257812 C 290.167969 190.015625 277.316406 197.464844 276.914062 197.695312 C 276.90625 197.703125 276.90625 197.703125 276.90625 197.703125 L 270.050781 209.171875 L 295.164062 212.707031 C 301.277344 244.226562 297.734375 260.300781 297.734375 260.300781 "/>
<path style=" stroke:none;fill-rule:nonzero;fill:rgb(15.689087%,25.099182%,49.409485%);fill-opacity:1;" d="M 132.519531 210.042969 L 140.695312 207.007812 L 111.421875 188.53125 Z M 132.519531 210.042969 "/>
<path style=" stroke:none;fill-rule:nonzero;fill:rgb(15.689087%,25.099182%,49.409485%);fill-opacity:1;" d="M 101.820312 316.6875 C 101.78125 316.6875 101.746094 316.683594 101.707031 316.675781 L 96.875 315.707031 C 96.574219 315.648438 96.378906 315.355469 96.441406 315.058594 C 96.5 314.757812 96.796875 314.566406 97.09375 314.625 L 101.925781 315.59375 C 102.226562 315.652344 102.417969 315.945312 102.359375 316.246094 C 102.304688 316.507812 102.074219 316.6875 101.820312 316.6875 "/>
<path style=" stroke:none;fill-rule:nonzero;fill:rgb(15.689087%,25.099182%,49.409485%);fill-opacity:1;" d="M 102.675781 319.816406 C 102.640625 319.816406 102.605469 319.8125 102.566406 319.804688 L 97.734375 318.835938 C 97.433594 318.773438 97.238281 318.484375 97.300781 318.183594 C 97.359375 317.882812 97.65625 317.691406 97.953125 317.75 L 102.785156 318.71875 C 103.085938 318.777344 103.277344 319.070312 103.21875 319.371094 C 103.167969 319.632812 102.933594 319.816406 102.675781 319.816406 "/>
<path style=" stroke:none;fill-rule:nonzero;fill:rgb(15.689087%,25.099182%,49.409485%);fill-opacity:1;" d="M 124.9375 267.71875 C 124.757812 267.71875 124.582031 267.628906 124.472656 267.464844 L 121.796875 263.328125 C 121.632812 263.070312 121.707031 262.726562 121.960938 262.5625 C 122.21875 262.398438 122.5625 262.472656 122.730469 262.726562 L 125.402344 266.863281 C 125.570312 267.121094 125.496094 267.460938 125.242188 267.628906 C 125.144531 267.691406 125.042969 267.71875 124.9375 267.71875 "/>
<path style=" stroke:none;fill-rule:nonzero;fill:rgb(15.689087%,25.099182%,49.409485%);fill-opacity:1;" d="M 123.296875 270.515625 C 123.117188 270.515625 122.9375 270.425781 122.828125 270.261719 L 120.15625 266.125 C 119.988281 265.867188 120.0625 265.527344 120.320312 265.359375 C 120.574219 265.195312 120.917969 265.265625 121.085938 265.523438 L 123.761719 269.65625 C 123.925781 269.914062 123.855469 270.257812 123.597656 270.425781 C 123.503906 270.484375 123.398438 270.515625 123.296875 270.515625 "/>
<path style=" stroke:none;fill-rule:nonzero;fill:rgb(15.689087%,25.099182%,49.409485%);fill-opacity:1;" d="M 253.933594 314.828125 C 253.671875 314.828125 253.441406 314.648438 253.390625 314.386719 C 253.332031 314.082031 253.523438 313.792969 253.824219 313.734375 L 258.65625 312.761719 C 258.953125 312.703125 259.25 312.898438 259.308594 313.199219 C 259.371094 313.5 259.175781 313.789062 258.875 313.851562 L 254.042969 314.816406 C 254.003906 314.824219 253.96875 314.828125 253.933594 314.828125 "/>
<path style=" stroke:none;fill-rule:nonzero;fill:rgb(15.689087%,25.099182%,49.409485%);fill-opacity:1;" d="M 253.074219 317.957031 C 252.8125 317.957031 252.582031 317.773438 252.53125 317.507812 C 252.472656 317.210938 252.664062 316.917969 252.964844 316.859375 L 257.796875 315.890625 C 258.09375 315.832031 258.390625 316.027344 258.449219 316.324219 C 258.511719 316.625 258.316406 316.914062 258.015625 316.976562 L 253.183594 317.945312 C 253.144531 317.949219 253.109375 317.957031 253.074219 317.957031 "/>
<path style=" stroke:none;fill-rule:nonzero;fill:rgb(15.689087%,25.099182%,49.409485%);fill-opacity:1;" d="M 302.589844 250.542969 C 302.515625 250.542969 302.441406 250.527344 302.371094 250.496094 C 302.089844 250.375 301.960938 250.050781 302.082031 249.769531 L 304.035156 245.246094 C 304.15625 244.964844 304.484375 244.832031 304.761719 244.957031 C 305.046875 245.078125 305.171875 245.402344 305.050781 245.683594 L 303.097656 250.207031 C 303.007812 250.414062 302.804688 250.542969 302.589844 250.542969 "/>
<path style=" stroke:none;fill-rule:nonzero;fill:rgb(15.689087%,25.099182%,49.409485%);fill-opacity:1;" d="M 304.671875 253.027344 C 304.601562 253.027344 304.527344 253.011719 304.453125 252.980469 C 304.175781 252.859375 304.042969 252.53125 304.167969 252.253906 L 306.117188 247.730469 C 306.238281 247.449219 306.570312 247.320312 306.84375 247.441406 C 307.128906 247.5625 307.257812 247.886719 307.136719 248.171875 L 305.179688 252.691406 C 305.09375 252.902344 304.886719 253.027344 304.671875 253.027344 "/>
<path style=" stroke:none;fill-rule:nonzero;fill:rgb(70.588684%,85.879517%,73.329163%);fill-opacity:1;" d="M 44.238281 128.78125 L 64.976562 147.183594 L 82.261719 125.136719 C 82.261719 125.136719 80.867188 146.800781 82.261719 178.265625 L 118.6875 168.96875 L 127.480469 121.617188 L 145.558594 119.558594 L 143.1875 94.929688 L 112.355469 97.429688 C 112.355469 97.429688 118.160156 107.535156 109.5 110.625 C 100.839844 113.714844 95.273438 100.269531 95.273438 100.269531 L 86.195312 102.78125 C 80.335938 104.398438 74.71875 106.808594 69.507812 109.941406 L 44.238281 128.78125 "/>
<path style=" stroke:none;fill-rule:nonzero;fill:rgb(73.728943%,90.19928%,88.62915%);fill-opacity:1;" d="M 330.132812 122.773438 L 309.394531 141.175781 L 292.109375 119.128906 C 292.109375 119.128906 297.164062 141.441406 292.109375 172.257812 L 255.683594 162.960938 L 246.894531 115.613281 L 211.238281 111.550781 L 228.738281 85.324219 L 262.015625 91.421875 C 262.015625 91.421875 256.210938 101.527344 264.871094 104.621094 C 273.535156 107.707031 279.101562 94.265625 279.101562 94.265625 L 288.175781 96.773438 C 294.035156 98.390625 299.652344 100.800781 304.863281 103.9375 L 330.132812 122.773438 "/>
<path style=" stroke:none;fill-rule:nonzero;fill:rgb(15.689087%,25.099182%,49.409485%);fill-opacity:1;" d="M 245.929688 224.757812 C 245.632812 224.757812 245.386719 224.523438 245.375 224.222656 L 244.703125 206.203125 L 261.496094 177.59375 C 261.648438 177.332031 261.988281 177.242188 262.253906 177.398438 C 262.515625 177.550781 262.605469 177.890625 262.449219 178.152344 L 245.824219 206.484375 L 246.484375 224.183594 C 246.496094 224.488281 246.253906 224.746094 245.953125 224.757812 C 245.945312 224.757812 245.9375 224.757812 245.929688 224.757812 "/>
<path style=" stroke:none;fill-rule:nonzero;fill:rgb(15.689087%,25.099182%,49.409485%);fill-opacity:1;" d="M 270.054688 209.167969 L 273.59375 241.972656 L 280.730469 247.390625 Z M 270.054688 209.167969 "/>
<path style=" stroke:none;fill-rule:nonzero;fill:rgb(15.689087%,25.099182%,49.409485%);fill-opacity:1;" d="M 127.480469 122.171875 C 127.21875 122.171875 126.984375 121.988281 126.9375 121.722656 L 124.308594 107.96875 C 124.253906 107.667969 124.449219 107.375 124.75 107.320312 C 125.046875 107.265625 125.34375 107.457031 125.398438 107.761719 L 128.023438 121.515625 C 128.082031 121.816406 127.882812 122.105469 127.582031 122.164062 C 127.546875 122.167969 127.515625 122.171875 127.480469 122.171875 "/>
<path style=" stroke:none;fill-rule:nonzero;fill:rgb(15.689087%,25.099182%,49.409485%);fill-opacity:1;" d="M 255.683594 163.515625 C 255.421875 163.515625 255.1875 163.328125 255.140625 163.0625 L 246.332031 115.625 L 246.34375 115.539062 L 248.289062 101.175781 C 248.328125 100.875 248.605469 100.660156 248.910156 100.699219 C 249.214844 100.742188 249.425781 101.019531 249.386719 101.324219 L 247.453125 115.597656 L 256.230469 162.863281 C 256.285156 163.160156 256.085938 163.449219 255.785156 163.503906 C 255.75 163.511719 255.714844 163.515625 255.683594 163.515625 "/>
</g>
</svg>
