<?xml version="1.0" encoding="UTF-8"?>
<svg xmlns="http://www.w3.org/2000/svg" xmlns:xlink="http://www.w3.org/1999/xlink" width="375pt" height="374.999991pt" viewBox="0 0 375 374.999991" version="1.2">
<defs>
<clipPath id="clip1">
  <path d="M 262.375 89 L 344.335938 89 L 344.335938 341.789062 L 262.375 341.789062 Z M 262.375 89 "/>
</clipPath>
<clipPath id="clip2">
  <path d="M 34.214844 316.105469 L 337 316.105469 L 337 374.195312 L 34.214844 374.195312 Z M 34.214844 316.105469 "/>
</clipPath>
<clipPath id="clip3">
  <path d="M 30.859375 94 L 123 94 L 123 286 L 30.859375 286 Z M 30.859375 94 "/>
</clipPath>
</defs>
<g id="surface1">
<path style=" stroke:none;fill-rule:nonzero;fill:rgb(15.689087%,25.099182%,49.409485%);fill-opacity:1;" d="M 104.550781 42.503906 C 105.992188 51.433594 101.058594 57.792969 100.246094 58.796875 C 77.9375 77.289062 56.214844 84.988281 46.636719 77.511719 C 39.066406 71.617188 38.878906 63.300781 38.878906 63.300781 C 38.746094 57.5 41.941406 53.285156 43.257812 51.734375 C 42.625 50.832031 39.820312 46.621094 40.667969 41.140625 C 41.878906 33.382812 49.277344 30.425781 49.667969 30.28125 C 49.632812 28.675781 49.609375 18.089844 57.863281 10.996094 C 65.011719 4.859375 75.65625 3.632812 84.390625 8.4375 C 92.03125 12.648438 96.957031 20.78125 97.316406 29.683594 C 98.59375 30.785156 103.355469 35.136719 104.550781 42.503906 "/>
<path style=" stroke:none;fill-rule:nonzero;fill:rgb(92.158508%,62.348938%,58.428955%);fill-opacity:1;" d="M 145.53125 74.460938 C 140.796875 122.394531 137.492188 157.488281 137.136719 162.632812 C 137.011719 164.472656 136.886719 168.019531 138.851562 169.335938 C 139.082031 169.492188 139.664062 169.878906 140.289062 169.730469 C 142.601562 169.183594 142.707031 162.023438 142.78125 162.035156 C 142.828125 162.039062 143.007812 164.996094 142.304688 171.523438 C 142.007812 174.304688 141.664062 176.675781 142.957031 177.609375 C 143.601562 178.078125 144.402344 177.992188 144.652344 177.964844 C 146.128906 177.8125 147.433594 176.507812 147.945312 174.640625 C 147.714844 177.65625 149.488281 179.675781 150.808594 179.640625 C 151.96875 179.609375 153.359375 177.96875 153.617188 175.625 C 154.53125 176.886719 155.90625 178.425781 157.308594 178.222656 C 160.027344 177.828125 161.203125 171.15625 161.746094 167.652344 C 165.804688 141.539062 165.472656 99.992188 165.433594 93.992188 C 165.328125 78.023438 165.003906 60.402344 160.21875 58.898438 C 158.089844 58.234375 154.046875 60.421875 145.53125 74.460938 "/>
<path style=" stroke:none;fill-rule:nonzero;fill:rgb(92.158508%,62.348938%,58.428955%);fill-opacity:1;" d="M 180.6875 259.683594 C 179.074219 279.078125 177.453125 298.476562 175.847656 317.863281 C 170.492188 318.140625 165.152344 318.417969 159.804688 318.707031 C 158.570312 301.207031 157.34375 283.695312 156.117188 266.191406 C 164.300781 264.035156 172.5 261.855469 180.6875 259.683594 Z M 220.375 268.207031 C 219.402344 287.863281 218.4375 307.507812 217.46875 327.167969 C 212.164062 327.429688 206.855469 327.707031 201.550781 327.972656 C 199.707031 310.835938 197.855469 293.691406 196.007812 276.554688 C 204.132812 273.773438 212.257812 270.992188 220.375 268.207031 "/>
<path style=" stroke:none;fill-rule:nonzero;fill:rgb(73.728943%,90.19928%,88.62915%);fill-opacity:1;" d="M 235.386719 279.050781 C 204.523438 279.101562 173.660156 279.148438 142.800781 279.191406 C 144.460938 235.941406 148.609375 190.230469 156.117188 142.425781 C 158.191406 129.21875 160.457031 116.230469 162.902344 103.484375 C 168.546875 103.710938 174.722656 103.75 181.359375 103.484375 C 188.988281 103.179688 195.988281 102.519531 202.257812 101.695312 C 209.8125 125.871094 215.191406 146.691406 218.988281 162.855469 C 223.21875 180.878906 227.511719 199.378906 235.386719 279.050781 "/>
<path style=" stroke:none;fill-rule:nonzero;fill:rgb(15.689087%,25.099182%,49.409485%);fill-opacity:1;" d="M 204.085938 21.277344 C 200.453125 17.957031 199.652344 15.382812 198.433594 12.925781 C 198.886719 13.457031 199.34375 13.988281 199.769531 14.542969 C 201.835938 17.214844 203.796875 19.929688 206.453125 22.070312 C 208.742188 23.914062 211.269531 25.386719 213.832031 26.792969 C 210.085938 25.148438 207.484375 24.382812 204.085938 21.277344 Z M 161.621094 42.539062 C 157.039062 35.226562 157.664062 26 161.769531 18.640625 C 161.839844 18.515625 161.921875 18.390625 161.996094 18.261719 C 161.898438 18.546875 161.820312 18.808594 161.746094 19.042969 C 161.746094 19.042969 158.710938 28.894531 163.378906 40.789062 C 164.441406 43.515625 166.003906 46.109375 167.980469 48.53125 C 165.457031 47.058594 163.261719 45.152344 161.621094 42.539062 Z M 225.257812 49.054688 C 227.066406 45.351562 228.875 41.648438 230.683594 37.945312 C 229.378906 36.773438 227.386719 35.074219 224.808594 33.203125 C 221.976562 30.769531 218.605469 28.9375 215.320312 27.148438 C 212.714844 25.726562 210.101562 24.296875 207.710938 22.53125 C 204.785156 20.371094 202.632812 17.617188 200.4375 14.746094 C 199.539062 13.574219 198.582031 12.464844 197.589844 11.394531 C 196.742188 10.058594 195.5625 8.710938 193.503906 7.257812 C 191.761719 6.027344 186.21875 2.230469 178.945312 3.179688 C 173.074219 3.945312 169.292969 7.371094 167.933594 8.648438 C 165.132812 11.269531 163.585938 14.148438 162.671875 16.394531 C 160.082031 20.285156 158.339844 24.679688 158.03125 29.410156 C 157.761719 33.554688 158.59375 37.804688 160.542969 41.488281 C 162.429688 45.039062 165.28125 47.65625 168.78125 49.472656 C 177.378906 59.265625 193.039062 66.132812 211.617188 67.617188 C 213.628906 65.582031 215.785156 63.152344 217.933594 60.300781 C 220.578125 56.777344 222.609375 53.394531 224.175781 50.410156 C 222.808594 48.78125 221.109375 47.003906 219.015625 45.257812 C 214.585938 41.5625 210.132812 39.449219 206.804688 38.214844 C 209.726562 38.796875 214.320312 40.109375 219.015625 43.367188 C 221.769531 45.273438 223.8125 47.335938 225.257812 49.054688 "/>
<path style=" stroke:none;fill-rule:nonzero;fill:rgb(92.158508%,62.348938%,58.428955%);fill-opacity:1;" d="M 198.054688 20.234375 C 199.375 22.324219 198.300781 24.558594 198.152344 24.855469 C 197.304688 26.53125 195.742188 27.144531 195.324219 27.304688 C 193.523438 27.972656 191.957031 27.460938 191.542969 27.304688 C 191.460938 27.679688 191.328125 28.21875 191.140625 28.859375 C 190.425781 31.296875 189.855469 33.09375 188.601562 34.753906 C 185.652344 38.628906 180.273438 38.851562 179.910156 38.875 C 172.53125 39.351562 166.082031 33.484375 165.582031 25.835938 C 165.601562 24.289062 165.613281 22.753906 165.621094 21.210938 C 165.601562 20.054688 165.621094 14.992188 169.503906 10.894531 C 170.390625 9.949219 173.21875 7.046875 177.816406 6.640625 C 182.902344 6.199219 186.492188 9.144531 187.558594 10.109375 C 191.234375 13.449219 191.808594 17.722656 191.921875 18.820312 C 192.320312 18.578125 193.089844 18.191406 194.097656 18.164062 C 195.5625 18.105469 197.15625 18.8125 198.054688 20.234375 "/>
<path style=" stroke:none;fill-rule:nonzero;fill:rgb(92.158508%,62.348938%,58.428955%);fill-opacity:1;" d="M 176.539062 28.605469 L 186.515625 28.605469 C 186.515625 35.082031 186.515625 41.5625 186.515625 48.039062 C 201.59375 47.121094 214.265625 52.164062 218.339844 61.316406 C 219.132812 63.101562 219.804688 65.503906 219.761719 68.636719 C 214.175781 87.117188 197.242188 99.292969 179.460938 98.441406 C 165.054688 97.753906 151.960938 88.605469 145.464844 74.933594 C 145.476562 73.191406 145.71875 62.859375 154.214844 55.019531 C 163.464844 46.476562 174.972656 47.832031 176.539062 48.042969 C 176.539062 41.566406 176.539062 35.082031 176.539062 28.605469 "/>
<path style=" stroke:none;fill-rule:nonzero;fill:rgb(73.728943%,90.19928%,88.62915%);fill-opacity:1;" d="M 162.902344 104 C 162.488281 93.019531 162.097656 84.417969 161.816406 78.554688 C 161.609375 74.269531 161.449219 71.25 161.546875 67.007812 C 161.710938 59.382812 162.574219 53.144531 163.308594 48.945312 C 164.308594 48.664062 165.539062 48.378906 166.972656 48.195312 C 168.242188 48.03125 169.386719 47.980469 170.363281 47.980469 C 173.871094 53.132812 177.378906 58.28125 180.882812 63.429688 C 184.933594 58.210938 188.980469 52.988281 193.027344 47.769531 C 194.242188 47.824219 195.5625 47.925781 196.964844 48.085938 C 198.226562 48.238281 199.40625 48.421875 200.492188 48.621094 C 201.246094 55.109375 201.855469 61.921875 202.257812 69.042969 C 202.9375 81.050781 202.945312 92.3125 202.527344 102.71875 C 198.90625 104.667969 191.273438 108.140625 181.085938 108.0625 C 172.847656 108 166.472656 105.640625 162.902344 104 "/>
<path style=" stroke:none;fill-rule:nonzero;fill:rgb(97.648621%,100%,92.939758%);fill-opacity:1;" d="M 182.625 22.8125 C 181.289062 22.117188 179.648438 22.636719 178.953125 23.972656 C 178.261719 25.308594 178.78125 26.949219 180.117188 27.640625 C 181.453125 28.332031 183.097656 27.8125 183.789062 26.476562 C 184.484375 25.136719 183.964844 23.5 182.625 22.8125 Z M 172.40625 25.335938 C 171.714844 26.671875 170.070312 27.191406 168.734375 26.503906 C 167.402344 25.808594 166.875 24.167969 167.570312 22.832031 C 168.261719 21.503906 169.910156 20.980469 171.246094 21.671875 C 172.578125 22.371094 173.097656 24.007812 172.40625 25.335938 "/>
<path style=" stroke:none;fill-rule:nonzero;fill:rgb(92.158508%,62.348938%,58.428955%);fill-opacity:1;" d="M 201.851562 59.691406 C 202.53125 115.503906 203.21875 156.394531 203.523438 161.570312 C 203.824219 166.707031 205.59375 167.757812 206.078125 168 C 206.332031 168.128906 206.957031 168.433594 207.554688 168.207031 C 209.785156 167.367188 208.964844 160.257812 209.046875 160.253906 C 209.09375 160.253906 209.648438 163.164062 209.789062 169.730469 C 209.847656 172.523438 209.8125 174.925781 211.214844 175.679688 C 211.921875 176.0625 212.703125 175.875 212.941406 175.816406 C 214.394531 175.472656 215.515625 174.015625 215.78125 172.097656 C 215.941406 175.117188 217.957031 176.890625 219.265625 176.6875 C 220.414062 176.507812 221.578125 174.703125 221.53125 172.351562 C 221.601562 172.769531 221.945312 174.671875 223.429688 175.339844 C 223.527344 175.382812 224.066406 175.625 224.445312 175.539062 C 226.507812 175.078125 225.871094 164.5625 225.871094 164.5625 C 223.835938 132.183594 221.796875 99.800781 219.761719 67.414062 C 213.789062 64.839844 207.820312 62.269531 201.851562 59.691406 "/>
<path style=" stroke:none;fill-rule:nonzero;fill:rgb(92.158508%,62.348938%,58.428955%);fill-opacity:1;" d="M 253.496094 59.777344 C 247.640625 114.566406 243.480469 154.480469 242.992188 159.550781 C 242.835938 161.121094 242.519531 164.886719 244.519531 166.300781 C 244.75 166.460938 245.320312 166.863281 245.949219 166.730469 C 248.269531 166.242188 248.40625 159.082031 248.648438 159.105469 C 248.835938 159.125 249.074219 163.070312 248.40625 168.367188 C 247.875 172.609375 247.480469 174.480469 248.949219 175.023438 C 251.09375 175.824219 253.003906 172.414062 253.46875 171.84375 C 253.164062 174.855469 254.878906 176.917969 256.199219 176.917969 C 257.367188 176.917969 258.796875 175.316406 259.113281 172.984375 C 259.992188 174.269531 261.328125 175.84375 262.734375 175.675781 C 265.464844 175.355469 266.816406 168.714844 267.460938 165.226562 C 272.214844 139.238281 272.996094 97.691406 273.121094 91.695312 C 273.574219 69.808594 274.789062 59.625 268.84375 56.476562 C 264.4375 54.148438 258.3125 56.824219 253.496094 59.777344 "/>
<path style=" stroke:none;fill-rule:nonzero;fill:rgb(15.689087%,25.099182%,49.409485%);fill-opacity:1;" d="M 269.160156 147.605469 C 270.191406 130.089844 271.03125 112.113281 271.632812 93.710938 C 272.1875 76.746094 272.527344 60.144531 272.660156 43.917969 C 270.277344 44.199219 267.410156 44.769531 264.46875 45.941406 C 264.46875 45.941406 259.863281 47.890625 255.878906 51.617188 C 246.328125 60.574219 245.253906 94.085938 245.253906 94.085938 C 244.511719 117.058594 244.171875 135.398438 244 147.683594 C 247.460938 148.050781 251.230469 148.292969 255.269531 148.328125 C 260.308594 148.367188 264.96875 148.074219 269.160156 147.605469 "/>
<path style=" stroke:none;fill-rule:nonzero;fill:rgb(92.158508%,62.348938%,58.428955%);fill-opacity:1;" d="M 273.304688 305.617188 C 271.691406 317.511719 270.074219 329.410156 268.460938 341.296875 C 263.109375 341.464844 257.773438 341.636719 252.421875 341.816406 C 251.191406 331.085938 249.960938 320.34375 248.734375 309.613281 C 256.914062 308.289062 265.117188 306.953125 273.304688 305.617188 Z M 328.609375 305.132812 C 328.867188 317.222656 329.128906 329.300781 329.390625 341.390625 C 324.132812 342.089844 318.871094 342.796875 313.609375 343.5 C 310.707031 333.230469 307.796875 322.960938 304.890625 312.691406 C 312.792969 310.171875 320.703125 307.65625 328.609375 305.132812 "/>
<path style=" stroke:none;fill-rule:nonzero;fill:rgb(73.728943%,90.19928%,88.62915%);fill-opacity:1;" d="M 256.859375 89.320312 C 249.710938 169.21875 242.566406 249.128906 235.421875 329.035156 C 252.890625 329.839844 270.367188 330.652344 287.839844 331.453125 C 288.195312 250.761719 288.5625 170.074219 288.921875 89.378906 C 278.230469 89.351562 267.539062 89.339844 256.859375 89.320312 "/>
<g clip-path="url(#clip1)" clip-rule="nonzero">
<path style=" stroke:none;fill-rule:nonzero;fill:rgb(73.728943%,90.19928%,88.62915%);fill-opacity:1;" d="M 262.507812 89.976562 C 272.515625 173.855469 282.53125 257.738281 292.539062 341.617188 C 309.804688 338.832031 327.070312 336.046875 344.335938 333.261719 C 334.976562 277.679688 325.613281 222.097656 316.25 166.507812 C 316.492188 164.898438 316.796875 162.621094 317.0625 159.890625 C 317.503906 155.359375 317.902344 151.289062 317.675781 146.882812 C 317.429688 142.0625 316.273438 133.5625 311.367188 124.933594 C 309.859375 122.28125 308.574219 120.632812 307.699219 119.445312 C 303.605469 113.871094 298.484375 104.710938 294.464844 89.160156 C 287.332031 89.605469 279.929688 89.890625 272.28125 89.976562 C 268.972656 90.011719 265.71875 90.011719 262.507812 89.976562 "/>
</g>
<path style=" stroke:none;fill-rule:nonzero;fill:rgb(15.689087%,25.099182%,49.409485%);fill-opacity:1;" d="M 283.964844 10.027344 C 286.195312 12.082031 287.179688 14.207031 288.539062 17.230469 C 290.8125 22.308594 293.636719 28.855469 296.746094 36.675781 C 282.359375 38.738281 267.972656 40.800781 253.585938 42.863281 C 254.070312 36.449219 254.6875 29.503906 255.484375 22.097656 C 256.039062 16.933594 256.410156 13.953125 258.71875 11.101562 C 262.457031 6.480469 268.296875 5.808594 269.730469 5.632812 C 270.464844 5.546875 278.246094 4.765625 283.964844 10.027344 "/>
<path style=" stroke:none;fill-rule:nonzero;fill:rgb(92.158508%,62.348938%,58.428955%);fill-opacity:1;" d="M 290.675781 19.640625 C 291.992188 21.730469 290.917969 23.964844 290.769531 24.257812 C 289.921875 25.941406 288.359375 26.550781 287.9375 26.710938 C 286.140625 27.378906 284.574219 26.867188 284.160156 26.710938 C 284.078125 27.085938 283.945312 27.625 283.757812 28.265625 C 283.046875 30.703125 282.472656 32.5 281.21875 34.164062 C 278.273438 38.035156 272.886719 38.257812 272.527344 38.28125 C 265.148438 38.761719 258.699219 32.894531 258.199219 25.242188 C 258.21875 23.699219 258.234375 22.164062 258.242188 20.617188 C 258.21875 19.460938 258.242188 14.398438 262.117188 10.296875 C 263.007812 9.355469 265.839844 6.453125 270.433594 6.046875 C 275.523438 5.609375 279.109375 8.550781 280.175781 9.519531 C 283.851562 12.863281 284.425781 17.128906 284.539062 18.226562 C 284.941406 17.984375 285.707031 17.597656 286.714844 17.570312 C 288.179688 17.511719 289.777344 18.21875 290.675781 19.640625 "/>
<path style=" stroke:none;fill-rule:nonzero;fill:rgb(92.158508%,62.348938%,58.428955%);fill-opacity:1;" d="M 268.882812 23.40625 L 281.609375 23.40625 L 281.609375 52.632812 L 268.882812 52.632812 L 268.882812 23.40625 "/>
<path style=" stroke:none;fill-rule:nonzero;fill:rgb(15.689087%,25.099182%,49.409485%);fill-opacity:1;" d="M 256.613281 91.199219 C 256.425781 89.523438 256.183594 87.140625 255.945312 84.277344 C 255.796875 82.425781 255.269531 76.296875 255.292969 71.621094 C 255.34375 60.464844 255.523438 54.175781 259.902344 49.476562 C 263.339844 45.796875 267.917969 44.980469 270.226562 44.574219 C 276.667969 43.425781 284.800781 45.027344 289.382812 50.449219 C 291.917969 53.460938 292.601562 56.746094 293.261719 61.3125 C 294.289062 68.464844 295.210938 78.621094 294.613281 91.296875 C 281.953125 91.261719 269.285156 91.230469 256.613281 91.199219 "/>
<path style=" stroke:none;fill-rule:nonzero;fill:rgb(97.648621%,100%,92.939758%);fill-opacity:1;" d="M 275.242188 22.21875 C 273.910156 21.523438 272.261719 22.046875 271.574219 23.378906 C 270.878906 24.714844 271.398438 26.355469 272.734375 27.046875 C 274.074219 27.738281 275.714844 27.21875 276.410156 25.882812 C 277.101562 24.542969 276.582031 22.90625 275.242188 22.21875 Z M 265.023438 24.746094 C 264.335938 26.078125 262.6875 26.597656 261.355469 25.910156 C 260.019531 25.214844 259.496094 23.574219 260.1875 22.242188 C 260.878906 20.910156 262.523438 20.386719 263.863281 21.082031 C 265.195312 21.777344 265.714844 23.414062 265.023438 24.746094 "/>
<path style=" stroke:none;fill-rule:nonzero;fill:rgb(92.158508%,62.348938%,58.428955%);fill-opacity:1;" d="M 256.65625 51.5 C 264.605469 60.476562 272.566406 69.4375 280.554688 78.386719 C 286.109375 84.601562 291.667969 90.804688 297.230469 97.003906 C 286.445312 106.011719 275.660156 115.003906 264.871094 124.011719 C 262.976562 124.035156 260.179688 124.03125 256.796875 123.890625 C 249.886719 123.609375 246.191406 122.976562 245.367188 124.609375 C 244.933594 125.492188 245.53125 126.597656 245.703125 126.914062 C 247.363281 129.988281 252.582031 129.375 252.679688 130.445312 C 252.753906 131.304688 250.730469 132.132812 245.136719 134.378906 C 241.492188 135.839844 239.816406 136.355469 240.035156 137.785156 C 240.34375 139.871094 243.929688 139.890625 244.585938 140.015625 C 242.035156 141.109375 241.140625 143.417969 241.71875 144.476562 C 242.230469 145.417969 244.160156 145.863281 246.167969 145.078125 C 245.523438 146.355469 244.855469 148.140625 245.609375 149.203125 C 246.914062 151.042969 251.8125 149.789062 256.082031 148.351562 C 280.429688 140.148438 308.941406 118.949219 308.941406 118.949219 C 324.253906 108.828125 325.464844 98.601562 325.640625 96.027344 C 326.148438 88.363281 317.566406 78.667969 300.359375 59.589844 C 290.460938 48.609375 287.09375 46.027344 282.207031 44.820312 C 270.890625 42.023438 260.425781 48.789062 256.65625 51.5 "/>
<path style=" stroke:none;fill-rule:nonzero;fill:rgb(15.689087%,25.099182%,49.409485%);fill-opacity:1;" d="M 300.28125 58.574219 C 293.722656 51.304688 289.523438 45.574219 281.8125 43.542969 C 273.773438 41.421875 266.699219 44.03125 265.914062 44.320312 C 260.796875 46.277344 257.523438 49.433594 255.910156 51.226562 C 263.644531 60.289062 271.621094 69.421875 279.855469 78.625 C 285.402344 84.832031 290.9375 90.917969 296.449219 96.886719 C 287.0625 104.816406 277.667969 112.753906 268.273438 120.691406 C 270.890625 127.023438 272.988281 133.574219 275.457031 139.976562 C 293.488281 130.507812 309.007812 118.972656 309.007812 118.972656 C 324.589844 108.671875 325.824219 98.265625 325.988281 95.648438 C 326.519531 87.847656 317.785156 77.980469 300.28125 58.574219 "/>
<path style=" stroke:none;fill-rule:nonzero;fill:rgb(92.158508%,62.348938%,58.428955%);fill-opacity:1;" d="M 81.273438 62.933594 C 75.542969 66.460938 77.414062 76.542969 79.289062 98.355469 C 79.800781 104.335938 83.277344 145.738281 89.707031 171.367188 C 90.578125 174.804688 92.355469 181.34375 95.097656 181.484375 C 96.515625 181.566406 97.746094 179.90625 98.542969 178.566406 C 99.007812 180.875 100.542969 182.378906 101.707031 182.304688 C 103.019531 182.21875 104.601562 180.050781 104.09375 177.066406 C 104.597656 177.605469 106.730469 180.878906 108.8125 179.945312 C 110.246094 179.308594 109.730469 177.46875 108.921875 173.265625 C 107.917969 168.027344 107.894531 164.070312 108.078125 164.039062 C 108.324219 164 108.925781 171.140625 111.273438 171.476562 C 111.90625 171.566406 112.449219 171.132812 112.667969 170.953125 C 114.570312 169.414062 114.011719 165.675781 113.753906 164.125 C 112.941406 159.089844 106.195312 119.53125 96.800781 65.234375 C 91.796875 62.605469 85.515625 60.332031 81.273438 62.933594 "/>
<path style=" stroke:none;fill-rule:nonzero;fill:rgb(73.728943%,90.19928%,88.62915%);fill-opacity:1;" d="M 100.773438 153.710938 C 104.804688 153.417969 108.550781 152.929688 111.980469 152.339844 C 111.011719 140.097656 109.476562 121.816406 107.25 98.9375 C 107.25 98.9375 104.003906 65.566406 93.890625 57.242188 C 89.671875 53.789062 84.949219 52.140625 84.949219 52.140625 C 81.941406 51.15625 79.042969 50.777344 76.644531 50.648438 C 77.832031 66.832031 79.246094 83.375 80.902344 100.269531 C 82.695312 118.601562 84.695312 136.480469 86.867188 153.890625 C 91.078125 154.085938 95.75 154.078125 100.773438 153.710938 "/>
<path style=" stroke:none;fill-rule:nonzero;fill:rgb(92.158508%,62.348938%,58.428955%);fill-opacity:1;" d="M 112.28125 241.390625 C 113.753906 273.75 115.230469 306.105469 116.703125 338.464844 C 111.351562 338.628906 106.011719 338.804688 100.660156 338.980469 C 99.445312 333.148438 98.253906 327.265625 97.085938 321.34375 C 92.035156 295.652344 87.769531 270.472656 84.191406 245.859375 C 87.324219 246.429688 91.683594 246.863281 96.8125 246.269531 C 103.734375 245.464844 109.039062 243.140625 112.28125 241.390625 Z M 71.160156 251.148438 C 66.027344 282.132812 60.886719 313.117188 55.753906 344.101562 C 50.457031 343.742188 45.164062 343.375 39.867188 343.019531 C 40.527344 310.363281 41.191406 277.703125 41.851562 245.050781 C 51.625 247.082031 61.394531 249.117188 71.160156 251.148438 "/>
<g clip-path="url(#clip2)" clip-rule="nonzero">
<path style=" stroke:none;fill-rule:nonzero;fill:rgb(15.689087%,25.099182%,49.409485%);fill-opacity:1;" d="M 126.867188 351.1875 C 137.4375 359.707031 150.441406 357.140625 150.625 359.546875 C 150.792969 361.953125 138.015625 367.582031 125.371094 364.242188 C 117.035156 362.035156 111.621094 356.683594 108.9375 353.550781 C 108.789062 357.910156 108.640625 362.277344 108.488281 366.644531 C 105.730469 366.710938 102.976562 366.773438 100.214844 366.839844 C 100.164062 357.230469 100.105469 347.628906 100.054688 338.027344 C 105.777344 337.738281 111.511719 337.441406 117.238281 337.144531 C 118.847656 341.574219 121.667969 346.996094 126.867188 351.1875 Z M 63.523438 358.117188 C 72.515625 368.285156 85.765625 367.929688 85.542969 370.335938 C 85.316406 372.734375 71.765625 376.148438 59.863281 370.734375 C 52.023438 367.171875 47.574219 360.980469 45.457031 357.445312 C 44.578125 361.722656 43.695312 366.007812 42.816406 370.285156 C 40.089844 369.882812 37.355469 369.488281 34.625 369.085938 C 36.1875 359.617188 37.753906 350.136719 39.316406 340.664062 C 45.015625 341.335938 50.710938 342 56.410156 342.664062 C 57.253906 347.3125 59.121094 353.121094 63.523438 358.117188 Z M 251.804688 340.527344 C 257.535156 340.457031 263.277344 340.382812 269.007812 340.300781 C 269.578125 349.890625 270.144531 359.472656 270.71875 369.066406 C 267.957031 369.179688 265.203125 369.292969 262.441406 369.40625 C 262.015625 365.054688 261.582031 360.707031 261.148438 356.367188 C 258.671875 359.667969 253.617188 365.355469 245.441406 368.097656 C 233.039062 372.25 219.925781 367.464844 219.941406 365.046875 C 219.964844 362.636719 233.105469 364.359375 243.105469 355.171875 C 248.023438 350.652344 250.480469 345.054688 251.804688 340.527344 Z M 312.863281 342.105469 C 318.503906 341.074219 324.148438 340.039062 329.789062 339 C 331.964844 348.359375 334.136719 357.714844 336.3125 367.066406 C 333.617188 367.644531 330.910156 368.210938 328.214844 368.789062 C 327.0625 364.578125 325.90625 360.359375 324.75 356.144531 C 322.867188 359.8125 318.832031 366.277344 311.234375 370.339844 C 299.714844 376.511719 285.96875 373.984375 285.585938 371.597656 C 285.199219 369.21875 298.449219 368.714844 306.765625 357.984375 C 310.832031 352.714844 312.3125 346.796875 312.863281 342.105469 Z M 159.183594 316.734375 C 164.914062 316.660156 170.65625 316.589844 176.386719 316.507812 C 176.960938 326.089844 177.527344 335.675781 178.101562 345.269531 C 175.339844 345.382812 172.585938 345.496094 169.824219 345.609375 C 169.394531 341.261719 168.964844 336.910156 168.53125 332.570312 C 166.054688 335.871094 161 341.5625 152.824219 344.300781 C 140.421875 348.453125 127.308594 343.667969 127.320312 341.253906 C 127.347656 338.835938 140.488281 340.5625 150.488281 331.375 C 155.402344 326.855469 157.863281 321.261719 159.183594 316.734375 Z M 200.949219 324.230469 C 206.667969 323.777344 212.386719 323.324219 218.105469 322.855469 C 219.316406 332.386719 220.53125 341.914062 221.742188 351.4375 C 219.003906 351.738281 216.253906 352.03125 213.515625 352.332031 C 212.792969 348.027344 212.074219 343.710938 211.351562 339.402344 C 209.105469 342.863281 204.433594 348.882812 196.457031 352.15625 C 184.371094 357.125 170.953125 353.21875 170.816406 350.808594 C 170.675781 348.402344 183.90625 349.242188 193.269531 339.410156 C 197.855469 334.582031 199.933594 328.84375 200.949219 324.230469 "/>
</g>
<g clip-path="url(#clip3)" clip-rule="nonzero">
<path style=" stroke:none;fill-rule:nonzero;fill:rgb(97.648621%,100%,92.939758%);fill-opacity:1;" d="M 122.867188 270.25 C 116.816406 274.675781 102.859375 283.609375 82.972656 285.289062 C 56.019531 287.566406 36.472656 274.976562 30.859375 271.066406 C 34.269531 239.3125 37.6875 207.5625 41.097656 175.808594 C 39.832031 172.054688 31.5 146.171875 46.3125 125.265625 C 50.742188 119.007812 56.066406 114.859375 60.535156 112.144531 C 61.863281 112.605469 63.191406 113.066406 64.515625 113.527344 C 64.136719 108.039062 63.753906 102.550781 63.371094 97.0625 C 74.035156 96.347656 84.707031 95.640625 95.363281 94.9375 C 104.53125 153.375 113.699219 211.808594 122.867188 270.25 "/>
</g>
<path style=" stroke:none;fill-rule:nonzero;fill:rgb(92.158508%,62.348938%,58.428955%);fill-opacity:1;" d="M 61.105469 24.558594 C 62.113281 24.585938 62.882812 24.972656 63.28125 25.214844 C 63.394531 24.117188 63.972656 19.851562 67.644531 16.507812 C 68.710938 15.539062 72.300781 12.597656 77.386719 13.035156 C 81.984375 13.441406 84.816406 16.34375 85.703125 17.289062 C 89.582031 21.386719 89.601562 26.449219 89.582031 27.605469 C 89.589844 29.148438 89.601562 30.6875 89.621094 32.230469 C 89.121094 39.882812 82.675781 45.753906 75.296875 45.273438 C 74.933594 45.246094 69.550781 45.027344 66.601562 41.152344 C 65.347656 39.492188 64.777344 37.695312 64.0625 35.257812 C 63.875 34.613281 63.742188 34.074219 63.664062 33.703125 C 63.246094 33.855469 61.679688 34.367188 59.886719 33.703125 C 59.460938 33.539062 57.898438 32.933594 57.050781 31.25 C 56.902344 30.957031 55.832031 28.71875 57.152344 26.628906 C 58.042969 25.207031 59.640625 24.5 61.105469 24.558594 "/>
<path style=" stroke:none;fill-rule:nonzero;fill:rgb(92.158508%,62.348938%,58.428955%);fill-opacity:1;" d="M 79.578125 60.4375 L 67.296875 60.4375 L 67.296875 31.203125 L 79.578125 31.203125 L 79.578125 60.4375 "/>
<path style=" stroke:none;fill-rule:nonzero;fill:rgb(73.728943%,90.19928%,88.62915%);fill-opacity:1;" d="M 53.699219 98.039062 C 53.054688 85.320312 54.054688 75.132812 55.175781 67.953125 C 55.898438 63.371094 56.640625 60.074219 59.414062 57.054688 C 64.40625 51.617188 73.28125 50.011719 80.3125 51.15625 C 82.835938 51.566406 87.828125 52.382812 91.578125 56.078125 C 96.359375 60.792969 96.554688 67.105469 96.605469 78.296875 C 96.632812 82.988281 96.054688 89.136719 95.898438 90.996094 C 95.636719 93.867188 95.371094 96.257812 95.167969 97.941406 C 81.339844 97.972656 67.519531 98.003906 53.699219 98.039062 "/>
<path style=" stroke:none;fill-rule:nonzero;fill:rgb(97.648621%,100%,92.939758%);fill-opacity:1;" d="M 71.414062 32.871094 C 72.105469 34.207031 73.75 34.726562 75.085938 34.035156 C 76.421875 33.34375 76.941406 31.703125 76.25 30.371094 C 75.558594 29.035156 73.914062 28.519531 72.578125 29.207031 C 71.242188 29.894531 70.722656 31.53125 71.414062 32.871094 Z M 83.957031 28.070312 C 85.296875 27.378906 86.941406 27.898438 87.632812 29.230469 C 88.328125 30.5625 87.804688 32.207031 86.472656 32.898438 C 85.132812 33.589844 83.488281 33.066406 82.796875 31.734375 C 82.105469 30.402344 82.625 28.765625 83.957031 28.070312 "/>
<path style=" stroke:none;fill-rule:nonzero;fill:rgb(92.158508%,62.348938%,58.428955%);fill-opacity:1;" d="M 47.359375 69.296875 C 45.445312 73.9375 45.539062 78.179688 48.539062 92.644531 C 53.761719 117.78125 56.503906 130.429688 62.992188 134.550781 C 65.175781 135.933594 74.152344 141.015625 91.386719 134.683594 C 91.386719 134.683594 125.375 124.285156 146.40625 109.542969 C 150.09375 106.960938 154 103.757812 153.292969 101.617188 C 152.878906 100.382812 151.046875 99.859375 149.628906 99.625 C 151.453125 98.472656 152.234375 96.660156 151.777344 95.691406 C 151.265625 94.59375 148.871094 93.953125 146.476562 95.359375 C 146.769531 94.757812 148.871094 91.855469 147.375 90.371094 C 146.347656 89.351562 144.941406 90.398438 141.601562 92.460938 C 136.476562 95.632812 134.617188 96.773438 133.964844 96.203125 C 133.15625 95.5 136.738281 91.660156 135.242188 88.507812 C 135.089844 88.171875 134.550781 87.039062 133.582031 86.871094 C 131.773438 86.558594 130.09375 89.910156 126.238281 95.640625 C 124.347656 98.445312 122.695312 100.699219 121.554688 102.210938 C 107.898438 105.5625 94.25 108.921875 80.597656 112.269531 C 78.890625 104.121094 77.167969 95.976562 75.433594 87.828125 C 72.945312 76.109375 70.417969 64.390625 67.882812 52.683594 C 63.460938 54.109375 51.800781 58.53125 47.359375 69.296875 "/>
<path style=" stroke:none;fill-rule:nonzero;fill:rgb(15.689087%,25.099182%,49.409485%);fill-opacity:1;" d="M 80.222656 38.054688 C 79.132812 38.585938 77.832031 38.363281 77.007812 37.464844 C 76.828125 37.273438 77.117188 36.984375 77.296875 37.175781 C 77.996094 37.9375 79.082031 38.15625 80.019531 37.703125 C 80.253906 37.589844 80.460938 37.941406 80.222656 38.054688 Z M 73.585938 43.996094 C 75.972656 45.214844 78.660156 45.578125 81.289062 45.027344 C 81.511719 44.980469 81.484375 44.621094 81.257812 44.671875 C 78.683594 45.214844 76.074219 44.863281 73.734375 43.667969 C 73.53125 43.5625 73.378906 43.890625 73.585938 43.996094 Z M 59.132812 28.027344 C 59.625 27.140625 60.910156 26.9375 61.628906 27.664062 C 61.8125 27.851562 62.113281 27.570312 61.929688 27.382812 C 61.03125 26.484375 59.414062 26.6875 58.792969 27.808594 C 58.664062 28.039062 59.011719 28.257812 59.132812 28.027344 Z M 79.835938 35.449219 C 80.460938 35.621094 81.09375 35.742188 81.738281 35.808594 C 81.824219 35.816406 81.875 35.785156 81.910156 35.738281 C 81.917969 35.726562 81.917969 35.71875 81.925781 35.710938 C 81.929688 35.679688 81.941406 35.644531 81.941406 35.605469 C 81.941406 35.589844 81.949219 35.589844 81.949219 35.570312 C 81.730469 34.621094 81.511719 33.660156 81.289062 32.699219 C 81.234375 32.445312 80.835938 32.53125 80.890625 32.785156 C 81.09375 33.648438 81.289062 34.507812 81.484375 35.371094 C 80.976562 35.304688 80.46875 35.203125 79.964844 35.070312 C 79.710938 34.996094 79.589844 35.382812 79.835938 35.449219 Z M 74.019531 31.964844 C 74.28125 32.921875 74.761719 33.527344 75.085938 33.3125 C 75.414062 33.101562 75.46875 32.152344 75.207031 31.191406 C 74.945312 30.230469 74.464844 29.628906 74.140625 29.839844 C 73.8125 30.054688 73.757812 31.003906 74.019531 31.964844 Z M 85.191406 30.914062 C 85.453125 31.871094 85.929688 32.472656 86.257812 32.265625 C 86.585938 32.050781 86.640625 31.101562 86.378906 30.140625 C 86.117188 29.179688 85.636719 28.578125 85.3125 28.792969 C 84.988281 29.003906 84.929688 29.953125 85.191406 30.914062 "/>
<path style=" stroke:none;fill-rule:nonzero;fill:rgb(73.728943%,90.19928%,88.62915%);fill-opacity:1;" d="M 62.480469 134.609375 C 64.695312 136.023438 73.824219 141.191406 91.363281 134.75 C 91.363281 134.75 109.863281 129.085938 128.175781 120.179688 C 124.472656 114.410156 120.421875 108.835938 116.855469 102.984375 C 104.894531 105.84375 92.921875 108.707031 80.964844 111.570312 C 79.410156 103.601562 77.773438 95.546875 76.046875 87.40625 C 73.492188 75.335938 70.835938 63.507812 68.097656 51.921875 C 65.695312 52.15625 61.214844 52.917969 56.605469 55.890625 C 55.902344 56.34375 49.609375 60.496094 46.5625 68.222656 C 43.636719 75.628906 45.78125 82.398438 47.765625 91.976562 C 53.074219 117.554688 55.871094 130.421875 62.480469 134.609375 "/>
<path style=" stroke:none;fill-rule:nonzero;fill:rgb(15.689087%,25.099182%,49.409485%);fill-opacity:1;" d="M 150.941406 179.542969 C 147.570312 178.28125 148.125 173.917969 148.242188 171.058594 C 148.25 170.796875 147.84375 170.800781 147.835938 171.058594 C 147.808594 171.617188 147.777344 172.214844 147.757812 172.835938 C 147.605469 173.957031 147.386719 175.0625 146.976562 176.0625 C 146.542969 177.132812 145.589844 178.199219 144.324219 178.027344 C 142.882812 177.828125 142.320312 176.273438 142.210938 175.011719 C 142.039062 173 142.476562 170.945312 142.65625 168.949219 C 142.855469 166.679688 142.953125 164.402344 142.960938 162.125 C 142.960938 161.863281 142.550781 161.863281 142.550781 162.125 C 142.539062 165.136719 142.367188 168.140625 142.023438 171.132812 C 141.789062 173.167969 141.210938 176.132812 142.894531 177.746094 C 144.167969 178.964844 145.972656 178.453125 146.902344 177.09375 C 147.378906 176.402344 147.609375 175.589844 147.777344 174.777344 C 147.910156 176.984375 148.558594 179.082031 150.832031 179.933594 C 151.078125 180.027344 151.1875 179.628906 150.941406 179.542969 Z M 136.910156 95.132812 C 135.886719 95.738281 134.746094 96.007812 133.558594 95.941406 C 133.296875 95.925781 133.289062 96.335938 133.550781 96.347656 C 134.800781 96.421875 136.023438 96.132812 137.105469 95.488281 C 137.332031 95.359375 137.140625 95 136.910156 95.132812 Z M 105.035156 105.648438 C 96.351562 107.414062 87.753906 109.601562 79.28125 112.195312 C 79.027344 112.273438 79.140625 112.667969 79.394531 112.585938 C 87.859375 109.992188 96.460938 107.804688 105.148438 106.042969 C 105.410156 105.992188 105.289062 105.601562 105.035156 105.648438 Z M 72.300781 75.171875 C 74.425781 82.96875 76.367188 90.8125 78.105469 98.707031 C 78.164062 98.964844 78.554688 98.84375 78.496094 98.59375 C 76.746094 90.707031 74.820312 82.855469 72.691406 75.058594 C 72.621094 74.808594 72.226562 74.921875 72.300781 75.171875 Z M 188.429688 108.929688 C 189.445312 113.070312 190.203125 117.261719 190.6875 121.496094 C 190.71875 121.753906 191.125 121.757812 191.097656 121.496094 C 190.605469 117.226562 189.847656 112.996094 188.820312 108.820312 C 188.761719 108.566406 188.367188 108.671875 188.429688 108.929688 Z M 167.195312 110.085938 C 165.65625 115.539062 164.457031 121.078125 163.601562 126.679688 C 163.558594 126.9375 163.949219 127.046875 163.992188 126.789062 C 164.855469 121.1875 166.050781 115.648438 167.589844 110.191406 C 167.660156 109.941406 167.269531 109.832031 167.195312 110.085938 Z M 147.308594 94.804688 C 148.078125 93.691406 148.601562 92.222656 147.945312 90.992188 C 147.03125 89.285156 144.890625 90.144531 143.628906 90.851562 C 143.402344 90.984375 143.597656 91.339844 143.824219 91.210938 C 145.136719 90.480469 147.382812 89.683594 147.769531 91.859375 C 147.984375 93.058594 147.324219 94.257812 146.570312 95.132812 C 144.582031 96.222656 142.699219 97.457031 140.902344 98.832031 C 140.699219 98.992188 140.980469 99.277344 141.1875 99.125 C 142.886719 97.824219 144.671875 96.648438 146.542969 95.613281 C 146.550781 95.601562 146.570312 95.613281 146.578125 95.601562 C 146.609375 95.585938 146.640625 95.566406 146.664062 95.554688 C 146.714844 95.554688 146.765625 95.546875 146.8125 95.503906 C 146.828125 95.488281 146.828125 95.480469 146.828125 95.464844 C 147.902344 94.886719 149.570312 94.632812 150.664062 95.125 C 152.773438 96.058594 150.804688 98.632812 149.628906 99.539062 C 149.589844 99.527344 149.539062 99.527344 149.492188 99.5625 C 147.945312 100.660156 146.398438 101.75 144.851562 102.839844 C 144.636719 102.984375 144.835938 103.351562 145.046875 103.199219 C 146.535156 102.136719 148.035156 101.082031 149.53125 100.027344 C 149.570312 100.039062 149.625 100.039062 149.675781 100 C 150.949219 99.105469 152.78125 96.941406 151.585938 95.328125 C 150.746094 94.183594 148.738281 94.304688 147.308594 94.804688 Z M 148.445312 167.882812 C 148.464844 166.304688 148.457031 164.722656 148.421875 163.140625 C 148.417969 162.878906 148.007812 162.878906 148.015625 163.140625 C 148.050781 164.722656 148.058594 166.304688 148.039062 167.882812 C 148.035156 168.144531 148.441406 168.144531 148.445312 167.882812 Z M 173.914062 26.304688 C 173.695312 27.265625 173.472656 28.226562 173.253906 29.175781 C 173.253906 29.195312 173.257812 29.195312 173.257812 29.207031 C 173.257812 29.25 173.269531 29.28125 173.277344 29.316406 C 173.285156 29.324219 173.285156 29.328125 173.292969 29.339844 C 173.328125 29.386719 173.386719 29.421875 173.464844 29.410156 C 174.105469 29.347656 174.746094 29.222656 175.371094 29.054688 C 175.613281 28.988281 175.492188 28.597656 175.242188 28.671875 C 174.734375 28.808594 174.230469 28.90625 173.71875 28.972656 C 173.914062 28.113281 174.105469 27.25 174.3125 26.390625 C 174.371094 26.136719 173.972656 26.042969 173.914062 26.304688 Z M 177.289062 21.480469 C 182.363281 21.605469 186.96875 21.34375 191.007812 20.90625 C 191.460938 22.25 191.917969 23.59375 192.375 24.921875 C 192.6875 24.128906 193.074219 22.957031 193.324219 21.503906 C 193.324219 21.503906 193.335938 21.429688 193.355469 21.296875 C 193.425781 21.328125 193.507812 21.335938 193.574219 21.261719 C 194.296875 20.542969 195.582031 20.746094 196.070312 21.628906 C 196.191406 21.859375 196.542969 21.640625 196.410156 21.410156 C 195.820312 20.339844 194.316406 20.117188 193.40625 20.886719 C 193.460938 20.371094 193.523438 19.550781 193.523438 18.53125 C 193.503906 15.839844 192.914062 13.445312 192.421875 12.1875 C 190.753906 7.960938 185.296875 4.863281 180.074219 4.476562 C 179.375 4.425781 170.730469 3.949219 166.421875 10.691406 C 163.828125 14.75 164.320312 19.0625 164.53125 20.394531 C 168.304688 20.953125 172.585938 21.367188 177.289062 21.480469 Z M 173.914062 38.628906 C 176.546875 39.183594 179.230469 38.816406 181.617188 37.601562 C 181.828125 37.496094 181.675781 37.167969 181.46875 37.273438 C 179.132812 38.46875 176.519531 38.816406 173.945312 38.273438 C 173.71875 38.222656 173.695312 38.582031 173.914062 38.628906 Z M 44.949219 127.375 C 42.765625 130.039062 41.167969 133.09375 40.050781 136.34375 C 37.953125 142.445312 37.371094 149.066406 37.457031 155.476562 C 37.554688 162.636719 38.699219 169.746094 40.820312 176.589844 C 40.894531 176.839844 41.289062 176.699219 41.203125 176.449219 C 40.007812 172.601562 39.117188 168.660156 38.5625 164.671875 C 37.625 157.976562 37.574219 151.117188 38.558594 144.429688 C 39.449219 138.394531 41.34375 132.410156 45.257812 127.644531 C 45.425781 127.433594 45.113281 127.171875 44.949219 127.375 Z M 79.410156 20.824219 C 79.894531 21.589844 81.730469 24.265625 84.972656 25.199219 C 87.558594 25.945312 89.632812 25.171875 90.441406 24.8125 C 90.574219 23.304688 90.613281 20.152344 88.78125 17.085938 C 84.742188 10.316406 75.65625 10.832031 75.128906 10.871094 C 69.910156 11.257812 64.453125 14.355469 62.78125 18.582031 C 62.285156 19.839844 61.699219 22.242188 61.679688 24.933594 C 61.675781 26.695312 61.878906 27.898438 61.878906 27.898438 C 62.132812 29.355469 62.511719 30.523438 62.832031 31.316406 C 63.289062 29.988281 63.742188 28.644531 64.199219 27.304688 C 65.527344 27.683594 69.65625 28.660156 73.984375 26.230469 C 76.894531 24.605469 78.601562 22.175781 79.410156 20.824219 Z M 168.824219 23.746094 C 168.5625 24.707031 168.621094 25.65625 168.949219 25.867188 C 169.273438 26.078125 169.75 25.476562 170.011719 24.519531 C 170.277344 23.558594 170.21875 22.605469 169.890625 22.398438 C 169.566406 22.183594 169.085938 22.785156 168.824219 23.746094 Z M 181.183594 25.566406 C 181.445312 24.609375 181.390625 23.652344 181.0625 23.445312 C 180.738281 23.230469 180.253906 23.832031 179.996094 24.792969 C 179.734375 25.753906 179.792969 26.703125 180.117188 26.917969 C 180.441406 27.125 180.921875 26.523438 181.183594 25.566406 Z M 95.351562 96.917969 C 95.335938 97.167969 95.742188 97.246094 95.753906 96.996094 C 96.222656 89.488281 96.183594 81.957031 95.628906 74.460938 C 95.609375 74.203125 95.203125 74.234375 95.222656 74.496094 C 95.761719 81.953125 95.8125 89.449219 95.351562 96.917969 Z M 174.488281 31.035156 C 174.496094 31.046875 174.507812 31.046875 174.511719 31.066406 C 174.953125 32.28125 175.722656 33.660156 177.257812 32.9375 C 178.429688 32.386719 179.03125 31.070312 178.824219 29.820312 C 177.347656 30.117188 175.902344 30.523438 174.488281 31.035156 Z M 174.125 31.175781 C 174.117188 31.148438 174.128906 31.136719 174.128906 31.113281 C 173.972656 31.066406 173.933594 30.804688 174.128906 30.730469 C 175.667969 30.15625 177.226562 29.722656 178.835938 29.402344 C 178.953125 29.382812 179.035156 29.457031 179.070312 29.542969 C 179.136719 29.550781 179.203125 29.585938 179.214844 29.679688 C 179.484375 31.183594 178.738281 32.785156 177.273438 33.378906 C 175.558594 34.074219 174.632812 32.582031 174.125 31.175781 Z M 267.105469 30.441406 C 267.113281 30.453125 267.125 30.453125 267.132812 30.472656 C 267.570312 31.6875 268.34375 33.0625 269.875 32.34375 C 271.042969 31.792969 271.652344 30.476562 271.441406 29.230469 C 269.964844 29.527344 268.519531 29.929688 267.105469 30.441406 Z M 266.742188 30.582031 C 266.734375 30.554688 266.746094 30.542969 266.746094 30.519531 C 266.589844 30.472656 266.550781 30.210938 266.746094 30.136719 C 268.285156 29.566406 269.847656 29.128906 271.449219 28.808594 C 271.570312 28.789062 271.652344 28.863281 271.6875 28.949219 C 271.757812 28.957031 271.816406 28.992188 271.832031 29.082031 C 272.101562 30.589844 271.355469 32.195312 269.894531 32.785156 C 268.175781 33.480469 267.25 31.988281 266.742188 30.582031 Z M 267.859375 28.078125 C 267.351562 28.21875 266.851562 28.3125 266.335938 28.378906 C 266.53125 27.519531 266.726562 26.65625 266.929688 25.796875 C 266.984375 25.542969 266.589844 25.453125 266.53125 25.714844 C 266.3125 26.671875 266.089844 27.632812 265.871094 28.582031 C 265.871094 28.601562 265.878906 28.601562 265.878906 28.617188 C 265.878906 28.65625 265.890625 28.6875 265.894531 28.722656 C 265.902344 28.726562 265.902344 28.734375 265.910156 28.746094 C 265.945312 28.796875 266.003906 28.828125 266.082031 28.820312 C 266.726562 28.753906 267.363281 28.632812 267.992188 28.460938 C 268.230469 28.394531 268.113281 28.007812 267.859375 28.078125 Z M 272.613281 24.199219 C 272.355469 25.160156 272.414062 26.113281 272.734375 26.324219 C 273.0625 26.53125 273.539062 25.929688 273.800781 24.976562 C 274.0625 24.015625 274.007812 23.066406 273.679688 22.851562 C 273.355469 22.640625 272.875 23.238281 272.613281 24.199219 Z M 297.953125 95.898438 C 290.839844 101.183594 283.984375 106.808594 277.421875 112.75 C 277.234375 112.925781 277.480469 113.257812 277.671875 113.074219 C 284.238281 107.128906 291.09375 101.5 298.199219 96.222656 C 298.417969 96.066406 298.167969 95.742188 297.953125 95.898438 Z M 195.3125 105.894531 C 197.019531 116.730469 198.726562 127.5625 200.429688 138.398438 C 200.46875 138.65625 200.875 138.613281 200.835938 138.355469 C 199.128906 127.515625 197.425781 116.683594 195.71875 105.84375 C 195.679688 105.589844 195.273438 105.632812 195.3125 105.894531 Z M 317.328125 145.652344 C 316.714844 139.269531 315.414062 132.75 312.671875 126.914062 C 311.464844 124.347656 309.941406 121.953125 308.066406 119.839844 C 307.941406 119.910156 307.816406 119.980469 307.691406 120.054688 C 311.394531 124.203125 313.632812 129.421875 315.03125 134.785156 C 316.738281 141.328125 317.429688 148.152344 317.234375 154.910156 C 317.113281 158.9375 316.65625 162.949219 315.882812 166.90625 C 315.832031 167.160156 316.234375 167.261719 316.28125 167.003906 C 317.640625 159.972656 318.011719 152.777344 317.328125 145.652344 Z M 268.398438 143.363281 L 291.96875 341.449219 C 292 341.710938 292.410156 341.65625 292.375 341.402344 L 268.78125 143.140625 C 268.65625 143.214844 268.527344 143.289062 268.398438 143.363281 Z M 271.871094 68.617188 C 276.90625 74.941406 282.105469 81.144531 287.433594 87.21875 C 287.601562 87.414062 287.933594 87.171875 287.757812 86.96875 C 282.417969 80.898438 277.230469 74.695312 272.195312 68.371094 C 272.03125 68.160156 271.707031 68.410156 271.871094 68.617188 Z M 274.234375 37.007812 C 274.445312 36.898438 274.289062 36.574219 274.089844 36.679688 C 271.753906 37.875 269.136719 38.222656 266.5625 37.683594 C 266.335938 37.628906 266.3125 37.988281 266.53125 38.035156 C 269.160156 38.589844 271.847656 38.222656 274.234375 37.007812 Z M 221.152344 167.75 C 221.488281 169.355469 221.679688 171.007812 221.578125 172.648438 C 221.535156 173.328125 221.4375 174.011719 221.203125 174.65625 C 221.054688 175.082031 220.285156 176.660156 219.519531 176.667969 C 219.492188 176.625 219.449219 176.589844 219.386719 176.574219 C 215.882812 175.757812 215.867188 171.355469 215.617188 168.507812 C 215.59375 168.25 215.191406 168.300781 215.214844 168.558594 C 215.261719 169.113281 215.304688 169.714844 215.367188 170.332031 C 215.359375 171.460938 215.28125 172.585938 215.003906 173.632812 C 214.710938 174.746094 213.90625 175.933594 212.628906 175.917969 C 211.167969 175.90625 210.410156 174.441406 210.140625 173.195312 C 209.71875 171.226562 209.882812 169.136719 209.800781 167.128906 C 209.710938 164.851562 209.511719 162.582031 209.230469 160.324219 C 209.199219 160.0625 208.792969 160.113281 208.828125 160.375 C 209.203125 163.363281 209.414062 166.367188 209.460938 169.378906 C 209.492188 171.421875 209.292969 174.441406 211.171875 175.824219 C 212.59375 176.871094 214.3125 176.132812 215.066406 174.664062 C 215.445312 173.921875 215.566406 173.082031 215.632812 172.253906 C 216.019531 174.265625 216.84375 176.113281 218.84375 176.816406 C 220.050781 177.84375 221.347656 175.550781 221.648438 174.628906 C 222.359375 172.425781 222.007812 169.855469 221.542969 167.640625 C 221.488281 167.382812 221.097656 167.492188 221.152344 167.75 Z M 201.757812 101.839844 C 198.445312 103.378906 195.109375 104.929688 191.566406 105.855469 C 188.304688 106.703125 184.90625 106.90625 181.554688 107.113281 C 181.472656 107.039062 181.335938 107.050781 181.269531 107.132812 C 175.257812 107.5 168.8125 107.378906 163.6875 103.8125 C 163.46875 103.660156 163.269531 104.011719 163.476562 104.160156 C 166.53125 106.285156 170.046875 107.207031 173.664062 107.527344 C 173.640625 107.550781 173.613281 107.570312 173.601562 107.613281 C 170.652344 119.808594 168.457031 132.179688 167.019531 144.648438 C 166.996094 144.902344 167.402344 144.902344 167.425781 144.648438 C 168.859375 132.214844 171.054688 119.882812 173.992188 107.722656 C 174.011719 107.652344 173.988281 107.59375 173.953125 107.550781 C 176.378906 107.746094 178.84375 107.6875 181.238281 107.539062 C 181.992188 119.496094 182.582031 131.464844 183.007812 143.4375 C 183.019531 143.699219 183.421875 143.699219 183.414062 143.4375 C 182.988281 131.457031 182.398438 119.480469 181.644531 107.515625 C 185 107.308594 188.40625 107.101562 191.675781 106.246094 C 195.253906 105.3125 198.621094 103.742188 201.964844 102.191406 C 202.203125 102.082031 202 101.730469 201.757812 101.839844 Z M 247.886719 158.195312 C 247.773438 159.863281 247.609375 161.519531 247.382812 163.171875 C 247.289062 163.796875 247.234375 164.453125 247.019531 165.058594 C 246.59375 166.285156 245.394531 166.722656 244.351562 165.847656 C 243.132812 164.820312 243.1875 162.722656 243.140625 161.269531 C 243.078125 159.53125 243.203125 157.808594 243.472656 156.089844 C 243.511719 155.832031 243.121094 155.726562 243.078125 155.984375 C 242.726562 158.253906 242.617188 160.539062 242.832031 162.828125 C 242.960938 164.257812 243.257812 165.96875 244.765625 166.578125 C 246.132812 167.128906 247.152344 166.167969 247.5 164.894531 C 248.082031 162.769531 248.152344 160.378906 248.300781 158.203125 C 248.308594 157.933594 247.902344 157.933594 247.886719 158.195312 Z M 261.441406 23.152344 C 261.183594 24.113281 261.238281 25.0625 261.5625 25.277344 C 261.890625 25.484375 262.367188 24.882812 262.628906 23.925781 C 262.890625 22.964844 262.835938 22.015625 262.507812 21.804688 C 262.183594 21.589844 261.703125 22.191406 261.441406 23.152344 Z M 268.410156 13.835938 C 269.21875 15.1875 270.925781 17.617188 273.835938 19.242188 C 278.167969 21.671875 282.292969 20.695312 283.621094 20.316406 C 284.078125 21.65625 284.535156 23 284.992188 24.332031 C 285.308594 23.535156 285.6875 22.363281 285.941406 20.910156 C 285.941406 20.910156 285.957031 20.835938 285.972656 20.707031 C 286.042969 20.734375 286.125 20.746094 286.195312 20.675781 C 286.914062 19.949219 288.195312 20.152344 288.6875 21.042969 C 288.808594 21.269531 289.160156 21.046875 289.027344 20.820312 C 288.4375 19.746094 286.933594 19.523438 286.019531 20.296875 C 286.078125 19.777344 286.144531 18.957031 286.140625 17.941406 C 286.121094 15.253906 285.535156 12.851562 285.039062 11.59375 C 283.371094 7.367188 277.917969 4.269531 272.695312 3.886719 C 272.167969 3.84375 263.082031 3.320312 259.039062 10.097656 C 257.207031 13.164062 257.246094 16.3125 257.378906 17.828125 C 258.1875 18.183594 260.261719 18.957031 262.851562 18.210938 C 266.089844 17.277344 267.925781 14.597656 268.410156 13.835938 Z M 251.589844 143.128906 C 249.792969 143.730469 248 144.332031 246.199219 144.925781 C 246.140625 144.949219 246.117188 144.988281 246.09375 145.027344 C 244.675781 145.433594 241.429688 145.492188 241.921875 143.242188 C 242.175781 142.078125 243.363281 140.882812 244.464844 140.359375 C 244.476562 140.367188 244.484375 140.375 244.507812 140.371094 C 244.570312 140.355469 244.605469 140.320312 244.632812 140.28125 C 244.660156 140.269531 244.695312 140.253906 244.726562 140.238281 C 244.738281 140.238281 244.738281 140.21875 244.753906 140.214844 C 246.699219 139.324219 248.703125 138.582031 250.761719 137.980469 C 251.003906 137.910156 250.941406 137.515625 250.691406 137.578125 C 248.519531 138.214844 246.410156 138.996094 244.351562 139.953125 C 243.203125 140.050781 241.839844 139.867188 241 138.988281 C 239.46875 137.382812 241.445312 136.046875 242.8125 135.425781 C 243.054688 135.316406 242.878906 134.949219 242.636719 135.054688 C 241.324219 135.652344 239.355469 136.863281 240.195312 138.609375 C 240.792969 139.871094 242.296875 140.3125 243.652344 140.355469 C 242.402344 141.203125 241.117188 142.757812 241.542969 144.105469 C 242.136719 146.023438 244.964844 145.828125 246.441406 145.335938 C 246.507812 145.3125 246.539062 145.273438 246.546875 145.234375 C 248.285156 144.65625 250.03125 144.074219 251.765625 143.5 C 252.015625 143.421875 251.835938 143.046875 251.589844 143.128906 Z M 255.265625 68.90625 C 255.199219 76.425781 255.644531 83.9375 256.597656 91.402344 C 256.632812 91.65625 257.027344 91.546875 256.996094 91.296875 C 256.050781 83.875 255.613281 76.398438 255.671875 68.914062 C 255.671875 68.652344 255.265625 68.644531 255.265625 68.90625 Z M 252.707031 129.964844 C 252.058594 130.957031 251.167969 131.71875 250.066406 132.179688 C 249.824219 132.289062 250 132.65625 250.238281 132.550781 C 251.398438 132.058594 252.359375 131.25 253.039062 130.195312 C 253.179688 129.976562 252.847656 129.742188 252.707031 129.964844 Z M 113.890625 165.472656 C 114.09375 167.179688 114.664062 169.601562 113.277344 170.980469 C 112.222656 172.035156 110.691406 171.605469 109.875 170.480469 C 109.246094 169.609375 109.035156 168.496094 108.761719 167.480469 C 108.433594 166.257812 108.105469 165.03125 107.777344 163.808594 C 107.707031 163.554688 108.101562 163.449219 108.167969 163.699219 C 108.621094 165.382812 109.011719 167.105469 109.539062 168.773438 C 109.871094 169.820312 110.496094 171.175781 111.800781 171.207031 C 112.949219 171.234375 113.5625 170.078125 113.695312 169.101562 C 113.933594 167.34375 113.496094 165.339844 113.230469 163.605469 C 112.957031 161.816406 112.589844 160.039062 112.152344 158.28125 C 112.089844 158.03125 112.480469 157.921875 112.542969 158.171875 C 113.140625 160.578125 113.597656 163.015625 113.890625 165.472656 "/>
<path style=" stroke:none;fill-rule:nonzero;fill:rgb(15.689087%,25.099182%,49.409485%);fill-opacity:1;" d="M 281.644531 40.992188 L 268.617188 40.992188 L 268.617188 50.746094 L 281.644531 50.746094 Z M 254.503906 0.0742188 C 250.527344 0.0742188 247.308594 3.289062 247.308594 7.257812 C 247.308594 11.222656 250.527344 14.4375 254.503906 14.4375 C 258.476562 14.4375 261.695312 11.222656 261.695312 7.257812 C 261.695312 3.289062 258.476562 0.0742188 254.503906 0.0742188 Z M 295.347656 7.527344 C 295.347656 11.492188 292.128906 14.707031 288.15625 14.707031 C 284.1875 14.707031 280.964844 11.492188 280.964844 7.527344 C 280.964844 3.558594 284.1875 0.34375 288.15625 0.34375 C 292.128906 0.34375 295.347656 3.558594 295.347656 7.527344 "/>
<path style=" stroke:none;fill-rule:nonzero;fill:rgb(97.648621%,100%,92.939758%);fill-opacity:1;" d="M 194.035156 26.675781 L 192.804688 26.675781 L 192.804688 39.695312 L 194.035156 39.695312 Z M 109.035156 338.511719 C 110.351562 341.785156 111.667969 345.078125 113.472656 348.121094 C 115.210938 351.039062 117.429688 353.640625 120.066406 355.796875 C 125.386719 360.140625 132.160156 362.449219 139.035156 362.246094 C 142.664062 362.132812 146.242188 361.332031 149.585938 359.910156 C 137.558594 362.523438 124.921875 357.410156 118.222656 347.050781 C 116.429688 344.273438 115.121094 341.214844 114.324219 338.007812 C 114.257812 337.75 114.648438 337.644531 114.714844 337.898438 C 117.605469 349.566406 127.527344 358.488281 139.488281 359.980469 C 143.019531 360.414062 146.605469 360.214844 150.066406 359.390625 C 150.234375 359.347656 150.328125 359.503906 150.300781 359.632812 C 150.480469 359.648438 150.605469 359.898438 150.402344 359.996094 C 144.183594 362.820312 137.046875 363.441406 130.449219 361.625 C 123.816406 359.796875 117.914062 355.535156 114.074219 349.835938 C 111.746094 346.367188 110.179688 342.460938 108.644531 338.605469 C 108.546875 338.355469 108.949219 338.253906 109.035156 338.511719 Z M 47.015625 342.160156 C 47.796875 345.601562 48.574219 349.066406 49.882812 352.355469 C 51.128906 355.503906 52.921875 358.421875 55.179688 360.960938 C 59.757812 366.089844 66.082031 369.4375 72.902344 370.3125 C 76.503906 370.78125 80.171875 370.542969 83.695312 369.664062 C 71.402344 370.355469 59.734375 363.320312 54.75 352.042969 C 53.410156 349.027344 52.597656 345.796875 52.320312 342.507812 C 52.292969 342.238281 52.699219 342.207031 52.722656 342.464844 C 53.738281 354.429688 62.121094 364.792969 73.710938 368.148438 C 77.125 369.136719 80.699219 369.496094 84.246094 369.226562 C 84.425781 369.21875 84.488281 369.382812 84.445312 369.511719 C 84.628906 369.554688 84.703125 369.820312 84.488281 369.882812 C 77.902344 371.691406 70.753906 371.195312 64.527344 368.355469 C 58.269531 365.5 53.105469 360.371094 50.207031 354.136719 C 48.449219 350.351562 47.527344 346.246094 46.613281 342.195312 C 46.550781 341.9375 46.957031 341.902344 47.015625 342.160156 Z M 285.941406 25.8125 C 286.769531 25.8125 287.433594 26.476562 287.433594 27.300781 C 287.433594 28.121094 286.769531 28.789062 285.941406 28.789062 C 285.121094 28.789062 284.453125 28.121094 284.453125 27.300781 C 284.453125 26.476562 285.121094 25.8125 285.941406 25.8125 Z M 260.472656 341.429688 C 259.1875 345.382812 257.886719 349.382812 255.785156 352.992188 C 252.324219 358.925781 246.707031 363.558594 240.207031 365.816406 C 233.742188 368.058594 226.578125 367.894531 220.191406 365.480469 C 219.980469 365.398438 220.085938 365.140625 220.265625 365.113281 C 220.234375 364.980469 220.316406 364.820312 220.488281 364.851562 C 223.996094 365.453125 227.585938 365.421875 231.078125 364.753906 C 242.917969 362.496094 252.242188 352.953125 254.367188 341.121094 C 254.417969 340.863281 254.8125 340.941406 254.765625 341.203125 C 254.179688 344.457031 253.070312 347.59375 251.457031 350.476562 C 245.453125 361.253906 233.171875 367.171875 221 365.339844 C 224.429688 366.542969 228.050781 367.117188 231.679688 366.992188 C 238.554688 366.75 245.164062 364.007812 250.191406 359.324219 C 252.683594 357.007812 254.722656 354.269531 256.273438 351.246094 C 257.875 348.09375 258.976562 344.714844 260.074219 341.367188 C 260.148438 341.109375 260.554688 341.183594 260.472656 341.429688 Z M 322.605469 341 C 321.957031 345.109375 321.304688 349.261719 319.792969 353.15625 C 317.308594 359.558594 312.488281 365.015625 306.429688 368.265625 C 300.394531 371.503906 293.296875 372.464844 286.609375 371.082031 C 286.394531 371.03125 286.445312 370.761719 286.628906 370.707031 C 286.582031 370.585938 286.628906 370.414062 286.808594 370.414062 C 290.363281 370.457031 293.90625 369.863281 297.253906 368.660156 C 308.59375 364.558594 316.289062 353.675781 316.523438 341.667969 C 316.535156 341.410156 316.941406 341.417969 316.929688 341.683594 C 316.871094 344.984375 316.265625 348.261719 315.121094 351.359375 C 310.878906 362.9375 299.695312 370.707031 287.382812 370.8125 C 290.957031 371.464844 294.632812 371.464844 298.199219 370.761719 C 304.949219 369.449219 311.039062 365.703125 315.269531 360.285156 C 317.363281 357.601562 318.957031 354.578125 320.003906 351.351562 C 321.09375 347.984375 321.644531 344.480469 322.199219 340.996094 C 322.238281 340.734375 322.652344 340.742188 322.605469 341 Z M 167.855469 317.636719 C 166.570312 321.585938 165.269531 325.585938 163.167969 329.195312 C 159.703125 335.132812 154.089844 339.765625 147.585938 342.015625 C 141.125 344.261719 133.957031 344.097656 127.574219 341.683594 C 127.363281 341.601562 127.46875 341.34375 127.648438 341.316406 C 127.617188 341.1875 127.695312 341.027344 127.867188 341.054688 C 131.378906 341.65625 134.96875 341.628906 138.460938 340.960938 C 150.300781 338.699219 159.625 329.15625 161.746094 317.324219 C 161.796875 317.0625 162.199219 317.148438 162.148438 317.410156 C 161.558594 320.660156 160.453125 323.800781 158.84375 326.683594 C 152.835938 337.457031 140.554688 343.375 128.382812 341.542969 C 131.8125 342.75 135.433594 343.316406 139.0625 343.199219 C 145.9375 342.953125 152.546875 340.214844 157.570312 335.527344 C 160.0625 333.210938 162.105469 330.472656 163.652344 327.445312 C 165.253906 324.292969 166.355469 320.921875 167.457031 317.570312 C 167.527344 317.3125 167.9375 317.382812 167.855469 317.636719 Z M 210.757812 324.121094 C 209.691406 328.140625 208.621094 332.207031 206.722656 335.925781 C 203.597656 342.046875 198.25 346.984375 191.894531 349.605469 C 185.558594 352.214844 178.398438 352.449219 171.886719 350.394531 C 171.671875 350.324219 171.761719 350.0625 171.945312 350.023438 C 171.90625 349.898438 171.976562 349.738281 172.148438 349.753906 C 175.6875 350.15625 179.269531 349.925781 182.722656 349.066406 C 194.421875 346.136719 203.183594 336.085938 204.640625 324.164062 C 204.671875 323.910156 205.078125 323.957031 205.042969 324.222656 C 204.644531 327.503906 203.710938 330.699219 202.261719 333.667969 C 196.863281 344.75 184.945312 351.351562 172.6875 350.207031 C 176.179688 351.214844 179.832031 351.589844 183.449219 351.253906 C 190.296875 350.628906 196.738281 347.515625 201.5 342.5625 C 203.855469 340.105469 205.75 337.257812 207.113281 334.152344 C 208.542969 330.914062 209.453125 327.484375 210.355469 324.070312 C 210.421875 323.816406 210.824219 323.863281 210.757812 324.121094 "/>
</g>
</svg>
