<?xml version="1.0" encoding="UTF-8"?>
<svg xmlns="http://www.w3.org/2000/svg" xmlns:xlink="http://www.w3.org/1999/xlink" width="375pt" height="374.999991pt" viewBox="0 0 375 374.999991" version="1.2">
<defs>
<filter id="alpha" filterUnits="objectBoundingBox" x="0%" y="0%" width="100%" height="100%">
  <feColorMatrix type="matrix" in="SourceGraphic" values="0 0 0 0 1 0 0 0 0 1 0 0 0 0 1 0 0 0 1 0"/>
</filter>
<mask id="mask0">
  <g filter="url(#alpha)">
<rect x="0" y="0" width="375" height="374.999991" style="fill:rgb(0%,0%,0%);fill-opacity:0.4;stroke:none;"/>
  </g>
</mask>
<clipPath id="clip2">
  <path d="M 0.0390625 0.0390625 L 27 0.0390625 L 27 31 L 0.0390625 31 Z M 0.0390625 0.0390625 "/>
</clipPath>
<clipPath id="clip1">
  <rect x="0" y="0" width="28" height="31"/>
</clipPath>
<g id="surface5" clip-path="url(#clip1)">
<g clip-path="url(#clip2)" clip-rule="nonzero">
<path style=" stroke:none;fill-rule:nonzero;fill:rgb(65.098572%,19.60907%,47.44873%);fill-opacity:1;" d="M 1.945312 25.164062 C 5.492188 31.632812 15.25 32.636719 20.988281 27.308594 C 27.582031 21.1875 29.574219 7.796875 22.511719 2.992188 C 9.304688 -5.984375 -3.207031 17.242188 1.945312 25.164062 Z M 1.945312 25.164062 "/>
</g>
</g>
</defs>
<g id="surface1">
<path style=" stroke:none;fill-rule:nonzero;fill:rgb(11.369324%,5.488586%,2.749634%);fill-opacity:1;" d="M 148.96875 25.363281 C 158.675781 4.863281 188.875 0.0078125 209.371094 3.242188 C 232.558594 7.019531 256.289062 33.457031 260.066406 56.117188 C 261.683594 67.445312 263.300781 80.394531 256.828125 90.648438 C 251.4375 99.28125 236.875 107.910156 243.886719 120.320312 C 250.355469 131.652344 268.152344 133.269531 277.863281 140.285156 C 289.726562 148.917969 304.828125 161.867188 309.679688 175.894531 C 311.839844 182.367188 313.457031 189.382812 311.839844 195.316406 C 311.296875 201.253906 308.0625 206.648438 307.523438 212.582031 C 306.984375 228.769531 325.320312 229.308594 330.175781 242.253906 C 336.644531 260.597656 310.21875 257.902344 315.074219 274.089844 C 317.769531 281.640625 322.085938 285.957031 316.152344 293.511719 C 311.839844 298.90625 303.75 301.605469 296.738281 301.066406 C 275.164062 298.90625 267.613281 274.628906 268.152344 256.285156 "/>
<path style=" stroke:none;fill-rule:nonzero;fill:rgb(54.899597%,65.879822%,48.629761%);fill-opacity:1;" d="M 185.101562 152.152344 C 152.203125 157.007812 150.046875 190.460938 126.855469 207.726562 C 116.609375 215.277344 102.046875 217.976562 96.117188 230.386719 C 90.183594 242.253906 100.96875 253.585938 102.046875 265.453125 C 103.664062 278.402344 88.566406 289.734375 80.476562 298.367188 C 70.769531 308.617188 61.597656 315.09375 68.609375 329.121094 C 82.632812 356.09375 115.53125 367.964844 144.113281 372.28125 C 161.371094 374.980469 181.867188 373.359375 198.585938 368.503906 C 217.460938 363.109375 224.472656 352.859375 231.480469 335.054688 C 243.347656 303.761719 254.132812 270.851562 269.234375 241.714844 C 274.085938 232.542969 281.636719 222.832031 283.257812 213.121094 C 285.414062 200.171875 279.480469 181.828125 271.390625 172.117188 C 263.300781 162.945312 256.832031 154.851562 246.042969 148.914062 C 239.03125 145.136719 230.402344 142.980469 222.316406 141.902344 Z M 185.101562 152.152344 "/>
<path style=" stroke:none;fill-rule:nonzero;fill:rgb(97.648621%,93.728638%,89.019775%);fill-opacity:1;" d="M 72.15625 226.847656 C 67.289062 219.929688 31.015625 175.039062 31.386719 171.410156 C 31.757812 167.78125 48.023438 152.167969 53.5625 154.710938 C 59.105469 157.253906 98.929688 212.238281 98.234375 216.585938 C 97.542969 220.933594 77.027344 233.765625 72.15625 226.847656 Z M 72.15625 226.847656 "/>
<path style=" stroke:none;fill-rule:nonzero;fill:rgb(96.859741%,60.389709%,56.858826%);fill-opacity:1;" d="M 219.398438 134.890625 C 220.222656 124.449219 220.550781 114.75 226.199219 101.09375 C 229.632812 92.785156 229.148438 95.519531 237.953125 80.59375 C 246.757812 65.671875 222.878906 0.816406 166.90625 22.875 C 166.757812 22.933594 166.601562 22.96875 166.445312 23.015625 C 143.363281 30.238281 139.671875 50.285156 143.816406 74.9375 C 146.285156 89.617188 136.304688 96.484375 137.222656 101.542969 C 138.144531 106.605469 145.238281 103.929688 148.570312 112.535156 C 151.902344 121.140625 160.363281 137.351562 166.835938 137.921875 C 169.722656 138.175781 172.835938 138.785156 185.398438 133.214844 C 191.828125 147.738281 177.261719 160.832031 178.230469 164.917969 C 179.519531 170.367188 199.488281 157.699219 209.554688 151.378906 C 219.617188 145.058594 218.570312 145.328125 219.398438 134.890625 Z M 219.398438 134.890625 "/>
<use xlink:href="#surface5" transform="matrix(1,0,0,1,167,83)" mask="url(#mask0)"/>
<path style=" stroke:none;fill-rule:nonzero;fill:rgb(11.369324%,5.488586%,2.749634%);fill-opacity:1;" d="M 152.183594 81.855469 C 153.578125 90.058594 166.5625 85 169.929688 80.996094 C 170.1875 80.691406 170.132812 80.144531 169.679688 80.046875 C 167.277344 79.527344 164.785156 81.050781 162.675781 82.011719 C 161.109375 82.726562 159.453125 83.335938 157.726562 83.460938 C 155.917969 83.585938 154.816406 82.171875 153.765625 80.929688 C 153.089844 80.132812 152.039062 81.015625 152.183594 81.855469 Z M 152.183594 81.855469 "/>
<path style=" stroke:none;fill-rule:nonzero;fill:rgb(11.369324%,5.488586%,2.749634%);fill-opacity:1;" d="M 157.757812 118.179688 C 160.25 117.628906 167.558594 116.757812 166.984375 112.875 C 166.933594 112.53125 166.53125 112.394531 166.238281 112.453125 C 165.558594 112.585938 165.152344 113 164.609375 113.414062 C 163.851562 113.992188 162.933594 114.417969 162.046875 114.753906 C 160.472656 115.347656 158.816406 115.691406 157.242188 116.300781 C 156.085938 116.746094 156.515625 118.453125 157.757812 118.179688 Z M 157.757812 118.179688 "/>
<path style=" stroke:none;fill-rule:nonzero;fill:rgb(65.098572%,19.60907%,47.44873%);fill-opacity:1;" d="M 220.050781 80.386719 C 220.753906 78.972656 221.792969 77.558594 223.183594 76.757812 C 225.460938 75.433594 226.015625 79.804688 225.691406 81.144531 C 225.175781 83.308594 223.449219 85.351562 222.078125 87.027344 C 221.085938 88.242188 219.699219 89.617188 219.164062 91.097656 C 219.046875 91.429688 219.429688 91.847656 219.773438 91.707031 C 222.214844 90.695312 224.261719 87.765625 225.773438 85.6875 C 227.652344 83.09375 228.453125 80.542969 227.542969 77.449219 C 226.925781 75.351562 225.246094 74.082031 223.082031 74.464844 C 220.613281 74.902344 219.132812 77.601562 218.667969 79.804688 C 218.496094 80.605469 219.652344 81.195312 220.050781 80.386719 Z M 220.050781 80.386719 "/>
<path style=" stroke:none;fill-rule:nonzero;fill:rgb(65.098572%,19.60907%,47.44873%);fill-opacity:1;" d="M 190.839844 131.011719 C 198.875 125.914062 207.199219 120.316406 212.902344 112.546875 C 213.210938 112.128906 212.585938 111.777344 212.246094 112.042969 C 204.796875 117.820312 197.386719 123.65625 189.898438 129.398438 C 188.96875 130.105469 189.792969 131.675781 190.839844 131.011719 Z M 190.839844 131.011719 "/>
<path style=" stroke:none;fill-rule:nonzero;fill:rgb(11.369324%,5.488586%,2.749634%);fill-opacity:1;" d="M 162.0625 87.421875 C 162.710938 84.257812 159.019531 82.554688 156.53125 83.804688 C 156.261719 83.753906 155.972656 83.78125 155.683594 83.921875 C 154.421875 84.519531 153.621094 85.828125 153.957031 87.246094 C 153.992188 87.40625 154.070312 87.539062 154.128906 87.683594 C 154.351562 89.359375 156.074219 90.421875 157.722656 90.367188 C 158.183594 90.355469 158.617188 90.25 158.972656 90.035156 C 160.433594 89.84375 161.738281 89.015625 162.0625 87.421875 Z M 162.0625 87.421875 "/>
<path style=" stroke:none;fill-rule:nonzero;fill:rgb(96.859741%,60.389709%,56.858826%);fill-opacity:1;" d="M 90.519531 212.015625 C 88.164062 215.550781 80.140625 212.824219 77.125 210.765625 C 73.597656 208.359375 70.722656 204.058594 68 200.867188 C 64.597656 196.875 54.332031 187.976562 52.933594 188.9375 C 51.535156 189.902344 57.710938 197.542969 58.75 201.964844 C 59.433594 204.890625 57.785156 204.914062 56.910156 207.714844 C 56.15625 210.132812 56.859375 212.59375 57.777344 214.757812 C 58.84375 217.261719 59.984375 218.363281 59.542969 221.175781 C 59.171875 223.550781 57.847656 225.699219 58.773438 228.273438 C 59.988281 231.660156 64.648438 234.171875 67.070312 236.730469 C 73.386719 243.410156 86.847656 242.71875 91.296875 250.757812 C 95.742188 258.800781 103.550781 284.039062 108.066406 294.042969 C 114.105469 307.417969 141.160156 287.589844 135.613281 276.351562 C 130.0625 265.113281 117.257812 243.234375 112.90625 233.941406 C 110.902344 229.667969 106.480469 210.976562 103.832031 206.441406 C 100.03125 199.953125 87.792969 186.121094 83.664062 189.730469 C 80.535156 192.464844 93.757812 207.15625 90.519531 212.015625 Z M 90.519531 212.015625 "/>
<path style=" stroke:none;fill-rule:nonzero;fill:rgb(54.899597%,65.879822%,48.629761%);fill-opacity:1;" d="M 199.898438 251.222656 C 199.699219 251.460938 199.492188 251.691406 199.277344 251.921875 C 192.574219 259.070312 180.320312 261.164062 171.078125 262.757812 C 155.4375 265.453125 137.101562 258.441406 122.542969 264.914062 C 84.789062 282.71875 98.273438 330.199219 120.921875 353.9375 C 132.789062 366.347656 152.742188 366.347656 168.921875 366.886719 C 187.796875 367.425781 207.753906 360.953125 225.011719 353.398438 C 239.570312 346.382812 254.671875 337.753906 265.996094 325.882812 C 276.785156 314.011719 280.558594 294.589844 283.796875 278.945312 C 286.492188 264.914062 285.953125 250.886719 285.953125 236.320312 C 285.953125 223.371094 287.570312 206.105469 281.097656 194.238281 C 264.917969 166.722656 232.023438 182.367188 218 202.871094 C 213.160156 210.292969 210.359375 218.855469 207.808594 227.277344 C 205.367188 235.324219 205.503906 244.601562 199.898438 251.222656 Z M 199.898438 251.222656 "/>
<path style=" stroke:none;fill-rule:nonzero;fill:rgb(11.369324%,5.488586%,2.749634%);fill-opacity:1;" d="M 244.964844 38.3125 C 235.257812 22.125 223.929688 11.875 205.59375 9.175781 C 196.964844 8.097656 169.367188 5.300781 157.5 14.472656 C 145.636719 23.648438 142.496094 24.285156 139.800781 32.378906 C 138.71875 36.691406 139.800781 42.089844 137.640625 45.867188 C 135.484375 50.722656 129.550781 52.878906 127.933594 57.734375 C 138.71875 64.75 146.808594 54.5 154.359375 49.101562 C 155.976562 51.261719 155.4375 55.039062 154.359375 57.734375 C 163.527344 62.589844 171.078125 46.945312 173.777344 41.011719 C 174.507812 39.632812 175.277344 38.546875 176.082031 37.652344 C 176.136719 37.691406 176.195312 37.734375 176.25 37.777344 C 174.605469 41.925781 173.03125 46.277344 174.75 50.40625 C 177.84375 57.828125 185.117188 56.308594 190.257812 60.589844 C 191.730469 61.816406 192.414062 63.316406 192.789062 64.929688 C 194.351562 68.238281 195.867188 71.621094 197.910156 74.632812 C 200.785156 78.871094 204.59375 81.882812 208.546875 85.054688 C 216.085938 91.113281 223.507812 97.828125 226.871094 107.15625 C 227.117188 107.84375 226.433594 108.242188 225.878906 108.101562 C 228.433594 112.160156 230.96875 114.640625 235.796875 107.914062 C 250.898438 86.871094 258.984375 62.589844 244.964844 38.3125 Z M 244.964844 38.3125 "/>
<path style=" stroke:none;fill-rule:nonzero;fill:rgb(11.369324%,5.488586%,2.749634%);fill-opacity:1;" d="M 200.742188 72.84375 C 207.210938 80.933594 194.808594 86.871094 194.808594 94.964844 C 194.808594 103.054688 202.359375 102.515625 203.4375 109.53125 C 203.976562 113.308594 198.042969 121.941406 200.742188 125.175781 C 205.054688 128.953125 212.605469 117.625 213.683594 114.386719 C 216.382812 107.910156 213.144531 104.675781 212.605469 98.738281 C 210.988281 90.648438 217.460938 91.1875 222.851562 86.332031 C 225.550781 83.09375 229.324219 75.539062 226.628906 71.761719 L 226.089844 71.761719 "/>
<path style=" stroke:none;fill-rule:nonzero;fill:rgb(11.369324%,5.488586%,2.749634%);fill-opacity:1;" d="M 148.425781 71.082031 C 151.65625 71.148438 154.808594 70.796875 158.023438 70.652344 C 161.914062 70.472656 164.570312 72.339844 168.015625 73.632812 C 169.113281 74.042969 170.265625 72.5625 169.570312 71.605469 C 164.648438 64.828125 154.917969 67.824219 148.179688 69.242188 C 147.117188 69.464844 147.398438 71.058594 148.425781 71.082031 Z M 148.425781 71.082031 "/>
<path style=" stroke:none;fill-rule:nonzero;fill:rgb(11.369324%,5.488586%,2.749634%);fill-opacity:1;" d="M 216.046875 6.535156 C 226.019531 7.242188 233.917969 15.890625 240.160156 22.878906 C 246.464844 29.9375 252.816406 37.148438 258.503906 44.714844 C 265.1875 53.601562 271.136719 64.371094 269.425781 75.859375 C 268.238281 83.820312 262.898438 88.898438 256.621094 93.261719 C 248.570312 98.859375 234.921875 105.234375 237.0625 117.257812 C 240.148438 134.582031 258.46875 138.824219 273.136719 141.523438 C 282.175781 143.1875 290.703125 144.929688 298.800781 149.503906 C 307.183594 154.234375 313.8125 161.449219 317.109375 170.539062 C 320.535156 179.980469 319.058594 188.484375 315.101562 197.394531 C 312.382812 203.519531 309.160156 209.707031 310.273438 216.605469 C 311.582031 224.695312 319.574219 229.566406 326.242188 232.871094 C 330.367188 234.914062 334.363281 237.039062 337.105469 240.867188 C 339.753906 244.570312 341.082031 250.9375 338.050781 254.773438 C 333.296875 260.800781 323.242188 259.132812 316.996094 262.632812 C 309.886719 266.621094 309.09375 277.714844 311.296875 284.585938 C 311.644531 285.664062 312.21875 286.65625 312.839844 287.59375 C 313.734375 288.945312 315.925781 287.683594 315.023438 286.316406 C 311.691406 281.265625 312.246094 274.21875 314.726562 268.9375 C 316.710938 264.714844 320.734375 263.597656 324.929688 262.761719 C 330.730469 261.605469 339.554688 260.113281 341.683594 253.496094 C 343.890625 246.625 340.230469 238.726562 334.558594 234.703125 C 327.007812 229.34375 316.613281 227.273438 313.125 217.570312 C 310.492188 210.253906 315.863281 202.230469 318.53125 195.726562 C 321.804688 187.742188 322.425781 180.324219 320.15625 171.953125 C 315.671875 155.40625 300.058594 144.914062 284.117188 141.191406 C 268.191406 137.472656 244.964844 137.367188 239.675781 118.085938 C 236.140625 105.191406 254.445312 98.21875 262.257812 91.832031 C 267.5 87.539062 271.027344 81.796875 271.675781 74.933594 C 272.613281 65.042969 268.460938 56.003906 263.121094 47.933594 C 258.035156 40.242188 251.625 33.527344 245.636719 26.550781 C 239.796875 19.746094 233.679688 12.78125 225.785156 8.3125 C 222.796875 6.617188 219.480469 5.710938 216.046875 5.726562 C 215.519531 5.726562 215.53125 6.5 216.046875 6.535156 Z M 216.046875 6.535156 "/>
<path style=" stroke:none;fill-rule:nonzero;fill:rgb(65.098572%,19.60907%,47.44873%);fill-opacity:1;" d="M 236.808594 43.519531 C 243.824219 53.449219 235.738281 69.011719 226.917969 74.800781 C 222.871094 77.457031 218.394531 79.234375 214.617188 82.308594 C 212.597656 83.949219 210.824219 85.898438 209.058594 87.800781 C 207.765625 89.195312 205.742188 90.648438 204.984375 92.40625 C 204.761719 92.921875 205.117188 93.445312 205.699219 93.332031 C 207.441406 92.996094 208.640625 91.199219 209.789062 89.960938 C 212.265625 87.285156 214.722656 84.636719 217.648438 82.429688 C 222.484375 78.78125 228.25 76.882812 232.667969 72.574219 C 239.566406 65.847656 244.105469 51.230469 237.304688 43.132812 C 237.074219 42.859375 236.601562 43.226562 236.808594 43.519531 Z M 236.808594 43.519531 "/>
<path style=" stroke:none;fill-rule:nonzero;fill:rgb(54.899597%,65.879822%,48.629761%);fill-opacity:1;" d="M 217.378906 44.332031 C 221.132812 50.59375 213.9375 52.355469 211.03125 56.628906 C 209.230469 59.273438 208.289062 65.128906 212.300781 66.304688 C 216.089844 67.417969 219.96875 62.414062 221.242188 59.554688 C 223.691406 54.046875 221.828125 48.148438 217.039062 44.660156 C 216.714844 44.421875 216.398438 44.863281 216.539062 45.160156 C 217.621094 47.460938 219.410156 49.316406 220.292969 51.714844 C 221.234375 54.273438 220.421875 57.519531 219.21875 59.859375 C 218.257812 61.734375 216.628906 63.285156 214.789062 64.277344 C 211.613281 65.988281 210.878906 62.394531 211.265625 59.941406 C 211.859375 56.164062 216.226562 54.207031 218.457031 51.5 C 220.5 49.023438 219.648438 46.398438 217.949219 44 C 217.707031 43.660156 217.160156 43.964844 217.378906 44.332031 Z M 217.378906 44.332031 "/>
<path style=" stroke:none;fill-rule:nonzero;fill:rgb(65.098572%,19.60907%,47.44873%);fill-opacity:1;" d="M 192.066406 22.011719 C 183.863281 33.949219 194.214844 45.824219 199.074219 56.769531 C 199.507812 57.742188 201.011719 57.039062 200.75 56.0625 C 199.421875 51.085938 196.3125 46.679688 193.886719 42.191406 C 190.234375 35.441406 190.058594 29.640625 193.105469 22.621094 C 193.410156 21.917969 192.515625 21.363281 192.066406 22.011719 Z M 192.066406 22.011719 "/>
<path style=" stroke:none;fill-rule:nonzero;fill:rgb(65.098572%,19.60907%,47.44873%);fill-opacity:1;" d="M 171.207031 27.078125 C 170.382812 30.433594 167.980469 33.46875 165.898438 36.128906 C 163.828125 38.769531 160.730469 41.0625 159.128906 44 C 158.996094 44.246094 159.21875 44.585938 159.507812 44.488281 C 162.65625 43.480469 165.238281 39.597656 167.132812 37.085938 C 169.121094 34.453125 172.292969 30.730469 171.914062 27.171875 C 171.875 26.792969 171.308594 26.652344 171.207031 27.078125 Z M 171.207031 27.078125 "/>
<path style=" stroke:none;fill-rule:nonzero;fill:rgb(54.899597%,65.879822%,48.629761%);fill-opacity:1;" d="M 155.769531 30.167969 C 153.945312 32.617188 151.96875 35.488281 151 38.410156 C 150.886719 38.753906 151.332031 38.957031 151.570312 38.742188 C 153.878906 36.667969 155.085938 33.300781 156.597656 30.652344 C 156.914062 30.101562 156.128906 29.683594 155.769531 30.167969 Z M 155.769531 30.167969 "/>
<path style=" stroke:none;fill-rule:nonzero;fill:rgb(54.899597%,65.879822%,48.629761%);fill-opacity:1;" d="M 239.71875 124.125 C 237 140.359375 260.554688 144.484375 271.003906 149.390625 C 278.324219 152.828125 284.738281 157.804688 289.011719 164.746094 C 293.90625 172.703125 295.78125 183.054688 294.984375 192.246094 C 294.183594 201.480469 289.300781 212.097656 293.234375 221.214844 C 296.015625 227.667969 304.0625 230.828125 305.890625 237.730469 C 306.453125 239.839844 305.351562 242.582031 304.742188 244.566406 C 303.757812 247.742188 302.53125 250.84375 301.402344 253.96875 C 299.535156 259.140625 297.078125 265.277344 297.9375 270.894531 C 298.589844 275.167969 301.539062 277.695312 305.839844 277.839844 C 306.527344 277.863281 306.628906 276.863281 306 276.671875 C 298.753906 274.492188 299.222656 268.375 300.847656 262.113281 C 302.46875 255.871094 305.238281 249.996094 307.074219 243.820312 C 308.734375 238.242188 307.457031 234.816406 303.609375 230.371094 C 301.394531 227.808594 298.585938 225.839844 296.558594 223.097656 C 293.234375 218.601562 293.679688 212.417969 294.449219 207.199219 C 295.1875 202.191406 296.449219 197.285156 297.027344 192.246094 C 297.613281 187.160156 296.964844 182.121094 295.90625 177.144531 C 294.394531 170.03125 291.28125 163.398438 286.4375 157.960938 C 281.476562 152.390625 274.71875 148.738281 267.921875 145.917969 C 260.042969 142.648438 251.773438 140.96875 245.3125 134.980469 C 242.25 132.140625 240.765625 128.4375 240.933594 124.289062 C 240.964844 123.597656 239.835938 123.429688 239.71875 124.125 Z M 239.71875 124.125 "/>
<path style=" stroke:none;fill-rule:nonzero;fill:rgb(11.369324%,5.488586%,2.749634%);fill-opacity:1;" d="M 191.222656 5.695312 C 184.761719 0.894531 176.355469 0.0859375 168.550781 0.449219 C 161.085938 0.796875 152.71875 2.664062 146.71875 7.367188 C 139.960938 12.660156 137.921875 20.394531 138.003906 28.679688 C 138.058594 34.296875 141.941406 46.875 134.972656 49.1875 C 134.390625 49.378906 134.277344 50.347656 134.972656 50.480469 C 140.695312 51.570312 141.046875 44.082031 140.882812 40.222656 C 140.558594 32.523438 139.050781 25.070312 141.597656 17.53125 C 144.710938 8.316406 154.667969 4.480469 163.417969 2.914062 C 172.148438 1.355469 183.113281 1.425781 190.714844 6.566406 C 191.261719 6.9375 191.734375 6.074219 191.222656 5.695312 Z M 191.222656 5.695312 "/>
<path style=" stroke:none;fill-rule:nonzero;fill:rgb(65.098572%,19.60907%,47.44873%);fill-opacity:1;" d="M 227.011719 206.625 C 221.726562 215.660156 219.464844 225.921875 214.546875 235.113281 C 209.066406 245.355469 198.507812 251.589844 187.066406 252.609375 C 176.5 253.550781 165.820312 251.882812 155.230469 252.023438 C 148.121094 252.113281 137.5625 252.769531 133.632812 259.835938 C 133.179688 260.648438 134.257812 261.503906 134.921875 260.832031 C 142.101562 253.578125 152.71875 253.9375 162.25 254.234375 C 172.203125 254.542969 182.484375 255.960938 192.34375 253.980469 C 202.222656 251.996094 210.765625 245.507812 215.800781 236.914062 C 221.234375 227.636719 223.0625 216.683594 227.734375 207.046875 C 227.964844 206.566406 227.285156 206.15625 227.011719 206.625 Z M 227.011719 206.625 "/>
<path style=" stroke:none;fill-rule:nonzero;fill:rgb(65.098572%,19.60907%,47.44873%);fill-opacity:1;" d="M 101.570312 294.933594 C 97.238281 309.445312 97.921875 324.738281 104.082031 338.632812 C 109.914062 351.785156 122.648438 364.359375 137.578125 365.792969 C 137.984375 365.832031 137.988281 365.261719 137.667969 365.132812 C 130.621094 362.324219 124.105469 359.664062 118.246094 354.6875 C 112.816406 350.070312 108.734375 344.085938 105.75 337.65625 C 99.722656 324.667969 98.878906 308.949219 102.398438 295.164062 C 102.535156 294.625 101.726562 294.402344 101.570312 294.933594 Z M 101.570312 294.933594 "/>
<path style=" stroke:none;fill-rule:nonzero;fill:rgb(65.098572%,19.60907%,47.44873%);fill-opacity:1;" d="M 223.695312 287.214844 C 225.953125 291.511719 226.503906 295.628906 227.128906 300.402344 C 227.585938 303.894531 228.300781 307.507812 230.609375 310.277344 C 233.832031 314.148438 238.535156 315.898438 243.253906 313.867188 C 248.800781 311.480469 257.46875 297.074219 248.898438 293.394531 C 248.226562 293.101562 247.449219 293.433594 247.425781 294.238281 C 247.246094 300.222656 251.691406 303.339844 257.28125 301.183594 C 263.597656 298.75 266.628906 291.425781 264.324219 285.1875 C 264.117188 284.628906 263.121094 284.660156 263.207031 285.335938 C 263.875 290.519531 262.746094 295.417969 258.203125 298.492188 C 253.882812 301.414062 249.226562 299.75 249.386719 294.238281 C 248.894531 294.523438 248.402344 294.804688 247.910156 295.085938 C 251.339844 296.554688 250.308594 301.054688 249.339844 303.820312 C 247.964844 307.742188 244.863281 311.585938 240.757812 312.722656 C 234.519531 314.449219 230.347656 307.339844 229.292969 302.390625 C 228.195312 297.222656 228.753906 290.480469 224.5 286.59375 C 224.066406 286.199219 223.421875 286.695312 223.695312 287.214844 Z M 223.695312 287.214844 "/>
<path style=" stroke:none;fill-rule:nonzero;fill:rgb(65.098572%,19.60907%,47.44873%);fill-opacity:1;" d="M 169.582031 171.128906 C 169.207031 173 169.972656 175.019531 170.054688 176.890625 C 170.074219 177.292969 170.355469 177.542969 170.746094 177.582031 C 179.65625 178.414062 188.363281 175.351562 196.246094 171.46875 C 203.984375 167.652344 213.335938 162.230469 218.789062 155.359375 C 219.085938 154.988281 218.707031 154.347656 218.246094 154.652344 C 214.457031 157.160156 211.09375 160.355469 207.375 162.992188 C 202.902344 166.160156 198.140625 168.90625 193.191406 171.25 C 188.203125 173.609375 182.878906 175.347656 177.402344 176.078125 C 176.863281 176.152344 171.417969 176.6875 171.378906 176.109375 C 171.261719 174.472656 170.898438 172.65625 170.289062 171.128906 C 170.167969 170.828125 169.660156 170.734375 169.582031 171.128906 Z M 169.582031 171.128906 "/>
<path style=" stroke:none;fill-rule:nonzero;fill:rgb(65.098572%,19.60907%,47.44873%);fill-opacity:1;" d="M 50.675781 159.027344 C 57.539062 167.242188 63.980469 175.878906 70.140625 184.632812 C 75.289062 191.949219 79.578125 199.96875 85.007812 207.066406 C 85.363281 207.535156 86.023438 207.148438 85.792969 206.605469 C 82.1875 198.140625 76.148438 190.308594 70.875 182.808594 C 64.878906 174.28125 58.453125 165.984375 51.363281 158.339844 C 50.929688 157.871094 50.277344 158.550781 50.675781 159.027344 Z M 50.675781 159.027344 "/>
<path style=" stroke:none;fill-rule:nonzero;fill:rgb(65.098572%,19.60907%,47.44873%);fill-opacity:1;" d="M 131.996094 237.835938 C 133.449219 233.195312 136.886719 229.792969 140.824219 227.140625 C 144.222656 224.851562 148.171875 223.949219 151.671875 221.992188 C 152.300781 221.640625 151.972656 220.769531 151.328125 220.71875 C 146.625 220.375 141.324219 223.679688 137.722656 226.367188 C 134.039062 229.113281 131.039062 232.746094 130.214844 237.34375 C 130.007812 238.503906 131.632812 238.984375 131.996094 237.835938 Z M 131.996094 237.835938 "/>
<path style=" stroke:none;fill-rule:nonzero;fill:rgb(65.098572%,19.60907%,47.44873%);fill-opacity:1;" d="M 229.621094 190.210938 C 232.898438 185.773438 235.742188 181.015625 239.355469 176.835938 C 244.070312 171.375 249.457031 170.21875 255.917969 168.023438 C 256.65625 167.769531 256.839844 166.484375 255.917969 166.339844 C 242.308594 164.179688 233.402344 179.320312 228.355469 189.46875 C 227.929688 190.332031 229.066406 190.964844 229.621094 190.210938 Z M 229.621094 190.210938 "/>
<path style=" stroke:none;fill-rule:nonzero;fill:rgb(54.899597%,65.879822%,48.629761%);fill-opacity:1;" d="M 102.773438 217.574219 C 105.742188 209 121.714844 207.539062 129.359375 205.757812 C 136.097656 204.1875 139.226562 199.859375 141.882812 193.703125 C 145.308594 185.785156 148.132812 177.339844 153.828125 170.6875 C 160.460938 162.949219 170.351562 162.917969 179.644531 161.691406 C 180.894531 161.527344 180.925781 159.855469 179.644531 159.71875 C 160.441406 157.691406 149.625 168.539062 142.746094 185.074219 C 140.394531 190.722656 138.757812 197.914062 133.570312 201.65625 C 129.875 204.320312 123.792969 204.667969 119.492188 205.789062 C 113.332031 207.390625 102.601562 209.71875 101.191406 217.140625 C 100.992188 218.175781 102.425781 218.582031 102.773438 217.574219 Z M 102.773438 217.574219 "/>
<path style=" stroke:none;fill-rule:nonzero;fill:rgb(54.899597%,65.879822%,48.629761%);fill-opacity:1;" d="M 201.886719 358.863281 C 224.152344 345.632812 260.546875 353.636719 276.945312 330.691406 C 280.484375 325.738281 281.355469 319.371094 281.238281 313.445312 C 281.132812 308.121094 279.816406 302.957031 279.941406 297.597656 C 280.105469 290.789062 282.71875 284.144531 284.957031 277.816406 C 288.269531 268.46875 292.003906 258.261719 292.636719 248.296875 C 293.238281 238.816406 282.761719 233.085938 277.898438 226.378906 C 277.054688 225.21875 274.824219 225.871094 275.402344 227.429688 C 278.75 236.441406 289.671875 239.519531 289.078125 250.3125 C 288.503906 260.644531 283.625 271.75 280.324219 281.4375 C 277.261719 290.429688 276.144531 299 277.667969 308.40625 C 278.953125 316.335938 278.136719 324.429688 273.066406 330.910156 C 265.027344 341.183594 249.28125 343.632812 237.328125 346.097656 C 225.066406 348.625 211.660156 350.257812 201.085938 357.484375 C 200.246094 358.058594 200.992188 359.394531 201.886719 358.863281 Z M 201.886719 358.863281 "/>
</g>
</svg>
