<?xml version="1.0" encoding="UTF-8"?>
<svg xmlns="http://www.w3.org/2000/svg" xmlns:xlink="http://www.w3.org/1999/xlink" width="375pt" height="374.999991pt" viewBox="0 0 375 374.999991" version="1.2">
<defs>
<clipPath id="clip1">
  <path d="M 229.160156 213.460938 L 374.558594 213.460938 L 374.558594 337.640625 L 229.160156 337.640625 Z M 229.160156 213.460938 "/>
</clipPath>
<clipPath id="clip2">
  <path d="M 207 191.789062 L 374.796875 191.789062 L 374.796875 310.460938 L 207 310.460938 Z M 207 191.789062 "/>
</clipPath>
</defs>
<g id="surface1">
<path style=" stroke:none;fill-rule:nonzero;fill:rgb(96.859741%,60.389709%,56.858826%);fill-opacity:1;" d="M 110.097656 171.652344 L 114.410156 185.851562 C 116.78125 193.652344 123.75 199.148438 131.878906 199.632812 L 190.773438 203.117188 L 256.519531 273.683594 L 334.183594 226.003906 L 316.105469 138.3125 C 309.585938 106.710938 293.078125 78.046875 269.019531 56.5625 C 253.140625 42.386719 232.105469 35.417969 210.914062 37.3125 L 175.175781 40.507812 C 165.195312 41.402344 156.605469 47.933594 153.078125 57.324219 L 110.097656 171.652344 "/>
<path style=" stroke:none;fill-rule:nonzero;fill:rgb(16.859436%,21.958923%,14.509583%);fill-opacity:1;" d="M 207.589844 177.882812 L 12.609375 177.882812 C 5.800781 177.882812 0.234375 172.3125 0.234375 165.5 L 0.234375 78.414062 C 0.234375 71.601562 5.800781 66.03125 12.609375 66.03125 L 207.589844 66.03125 C 214.394531 66.03125 219.964844 71.601562 219.964844 78.414062 L 219.964844 165.5 C 219.964844 172.3125 214.394531 177.882812 207.589844 177.882812 "/>
<path style=" stroke:none;fill-rule:nonzero;fill:rgb(73.329163%,89.7995%,88.238525%);fill-opacity:1;" d="M 206.355469 171.652344 L 14.113281 171.652344 C 10.363281 171.652344 7.324219 168.609375 7.324219 164.855469 L 7.324219 79.347656 C 7.324219 75.597656 10.363281 72.554688 14.113281 72.554688 L 206.355469 72.554688 C 210.109375 72.554688 213.148438 75.597656 213.148438 79.347656 L 213.148438 164.855469 C 213.148438 168.609375 210.109375 171.652344 206.355469 171.652344 "/>
<path style=" stroke:none;fill-rule:nonzero;fill:rgb(96.859741%,60.389709%,56.858826%);fill-opacity:1;" d="M 54.566406 131.621094 C 54.566406 131.621094 61.082031 128.238281 62.0625 115.609375 L 75.160156 116.367188 C 75.160156 116.367188 72.222656 118.167969 76.324219 125.386719 C 81.472656 134.433594 72.1875 133.480469 72.1875 133.480469 L 76.609375 139.601562 L 71.523438 149.777344 L 55.339844 145.253906 L 54.566406 131.621094 "/>
<path style=" stroke:none;fill-rule:nonzero;fill:rgb(96.859741%,60.389709%,56.858826%);fill-opacity:1;" d="M 70.800781 120.519531 C 64.78125 121.605469 59.019531 117.597656 57.9375 111.570312 L 55.902344 100.269531 C 54.820312 94.238281 58.824219 88.472656 64.84375 87.390625 C 70.871094 86.304688 76.632812 90.3125 77.714844 96.339844 L 79.75 107.640625 C 80.832031 113.671875 76.828125 119.433594 70.800781 120.519531 "/>
<path style=" stroke:none;fill-rule:nonzero;fill:rgb(96.859741%,60.389709%,56.858826%);fill-opacity:1;" d="M 59.570312 108.210938 C 58.804688 111.074219 55.863281 112.777344 53.003906 112.007812 C 50.136719 111.242188 48.4375 108.296875 49.207031 105.433594 C 49.972656 102.570312 52.914062 100.867188 55.777344 101.632812 C 58.636719 102.40625 60.335938 105.347656 59.570312 108.210938 "/>
<path style=" stroke:none;fill-rule:nonzero;fill:rgb(96.859741%,60.389709%,56.858826%);fill-opacity:1;" d="M 118.019531 109.292969 C 117.253906 112.160156 114.308594 113.859375 111.449219 113.089844 C 108.585938 112.324219 106.890625 109.382812 107.65625 106.515625 C 108.421875 103.652344 111.367188 101.953125 114.226562 102.71875 C 117.085938 103.488281 118.785156 106.429688 118.019531 109.292969 "/>
<path style=" stroke:none;fill-rule:nonzero;fill:rgb(96.859741%,60.389709%,56.858826%);fill-opacity:1;" d="M 15.660156 171.652344 L 20.757812 162.828125 L 47.027344 158.511719 L 50.191406 171.671875 L 15.660156 171.652344 "/>
<path style=" stroke:none;fill-rule:nonzero;fill:rgb(96.859741%,60.389709%,56.858826%);fill-opacity:1;" d="M 131.789062 128.078125 C 124.488281 129.242188 117.628906 124.265625 116.46875 116.960938 L 113.160156 96.1875 C 111.996094 88.886719 116.96875 82.019531 124.269531 80.855469 C 131.566406 79.691406 138.425781 84.667969 139.589844 91.972656 L 142.898438 112.742188 C 144.0625 120.046875 139.085938 126.914062 131.789062 128.078125 "/>
<path style=" stroke:none;fill-rule:nonzero;fill:rgb(96.859741%,60.389709%,56.858826%);fill-opacity:1;" d="M 161.25 135.265625 C 161.25 135.265625 148.800781 134.261719 142.492188 118.984375 L 128.800781 113.007812 L 121.179688 124.65625 C 121.179688 124.65625 121.03125 129.425781 117.871094 134.414062 C 114.714844 139.402344 119.597656 149.613281 119.597656 149.613281 L 150.546875 154.125 L 166.320312 140.035156 L 161.25 135.265625 "/>
<path style=" stroke:none;fill-rule:nonzero;fill:rgb(97.648621%,100%,92.939758%);fill-opacity:1;" d="M 50.191406 171.671875 L 48.175781 171.070312 L 16.484375 161.542969 L 58.785156 126.832031 C 58.785156 126.832031 65.585938 134.867188 72.523438 133.503906 C 79.460938 132.140625 77.023438 126.417969 76.203125 125.464844 C 75.386719 124.511719 92.0625 132.15625 104.035156 142.769531 L 113.511719 171.671875 L 50.191406 171.671875 "/>
<path style=" stroke:none;fill-rule:nonzero;fill:rgb(16.859436%,21.958923%,14.509583%);fill-opacity:1;" d="M 56.167969 101.757812 C 56.167969 101.757812 67.363281 99.589844 67.824219 91.695312 C 67.824219 91.695312 71.265625 97.972656 77.714844 96.339844 L 77.402344 95.152344 C 75.894531 89.46875 70.238281 85.929688 64.46875 87.066406 C 59.082031 88.132812 55.300781 92.953125 55.488281 98.382812 C 55.5 98.84375 55.585938 99.308594 55.691406 99.761719 L 56.167969 101.757812 "/>
<path style=" stroke:none;fill-rule:nonzero;fill:rgb(16.859436%,21.958923%,14.509583%);fill-opacity:1;" d="M 50.191406 172.445312 C 50.082031 172.445312 49.96875 172.421875 49.859375 172.375 C 49.476562 172.1875 49.3125 171.730469 49.492188 171.34375 L 54.832031 160.042969 C 55.011719 159.65625 55.476562 159.496094 55.859375 159.675781 C 56.246094 159.859375 56.410156 160.320312 56.230469 160.707031 L 50.890625 172.003906 C 50.757812 172.285156 50.480469 172.445312 50.191406 172.445312 "/>
<path style=" stroke:none;fill-rule:nonzero;fill:rgb(16.859436%,21.958923%,14.509583%);fill-opacity:1;" d="M 56.984375 109.027344 C 56.769531 109.027344 56.5625 108.882812 56.496094 108.664062 C 55.644531 105.921875 52.308594 105.042969 52.273438 105.035156 C 52 104.96875 51.828125 104.6875 51.902344 104.410156 C 51.972656 104.132812 52.253906 103.96875 52.527344 104.039062 C 52.6875 104.078125 56.457031 105.058594 57.480469 108.359375 C 57.5625 108.628906 57.414062 108.917969 57.140625 109.003906 C 57.089844 109.019531 57.039062 109.027344 56.984375 109.027344 "/>
<path style=" stroke:none;fill-rule:nonzero;fill:rgb(16.859436%,21.958923%,14.509583%);fill-opacity:1;" d="M 52.402344 110.054688 C 52.398438 110.054688 52.394531 110.054688 52.390625 110.054688 C 52.105469 110.050781 51.878906 109.8125 51.886719 109.53125 C 51.890625 109.378906 51.988281 105.78125 54.410156 105.027344 C 54.683594 104.941406 54.972656 105.09375 55.054688 105.363281 C 55.140625 105.636719 54.988281 105.925781 54.71875 106.011719 C 53.003906 106.546875 52.917969 109.523438 52.917969 109.550781 C 52.910156 109.832031 52.679688 110.054688 52.402344 110.054688 "/>
<path style=" stroke:none;fill-rule:nonzero;fill:rgb(16.859436%,21.958923%,14.509583%);fill-opacity:1;" d="M 115.132812 109.894531 C 114.910156 109.894531 114.707031 109.753906 114.636719 109.53125 C 113.789062 106.789062 110.453125 105.910156 110.417969 105.902344 C 110.144531 105.835938 109.976562 105.554688 110.042969 105.277344 C 110.113281 105 110.394531 104.832031 110.667969 104.902344 C 110.832031 104.945312 114.601562 105.925781 115.625 109.226562 C 115.707031 109.5 115.554688 109.785156 115.28125 109.871094 C 115.234375 109.886719 115.179688 109.894531 115.132812 109.894531 "/>
<path style=" stroke:none;fill-rule:nonzero;fill:rgb(16.859436%,21.958923%,14.509583%);fill-opacity:1;" d="M 110.542969 110.921875 C 110.539062 110.921875 110.535156 110.921875 110.535156 110.921875 C 110.25 110.917969 110.023438 110.683594 110.027344 110.398438 C 110.03125 110.246094 110.128906 106.648438 112.554688 105.894531 C 112.824219 105.808594 113.113281 105.960938 113.199219 106.234375 C 113.285156 106.503906 113.132812 106.792969 112.859375 106.878906 C 111.148438 107.414062 111.058594 110.390625 111.058594 110.417969 C 111.054688 110.699219 110.824219 110.921875 110.542969 110.921875 "/>
<path style=" stroke:none;fill-rule:nonzero;fill:rgb(15.689087%,25.099182%,49.409485%);fill-opacity:1;" d="M 172.789062 171.671875 L 85.609375 171.652344 L 86.933594 165.835938 C 90.40625 150.609375 100.957031 143.863281 114.167969 135.550781 L 119.445312 132.230469 C 119.445312 132.230469 130.65625 147.152344 147.070312 126.796875 L 181.441406 131.042969 L 213.148438 136.070312 L 213.148438 164.996094 "/>
<path style=" stroke:none;fill-rule:nonzero;fill:rgb(16.859436%,21.958923%,14.509583%);fill-opacity:1;" d="M 113.402344 97.714844 L 131.695312 86.753906 C 131.695312 86.753906 134.621094 92.636719 139.644531 92.308594 C 139.644531 92.308594 138.230469 80.242188 127.929688 80.324219 C 117.042969 80.410156 110.871094 84.789062 113.402344 97.714844 "/>
<path style=" stroke:none;fill-rule:nonzero;fill:rgb(16.859436%,21.958923%,14.509583%);fill-opacity:1;" d="M 129.574219 128.480469 C 122.714844 128.480469 119.597656 124.816406 119.433594 124.625 C 119.164062 124.292969 119.210938 123.804688 119.539062 123.53125 C 119.871094 123.261719 120.355469 123.308594 120.625 123.636719 C 120.820312 123.859375 125.222656 128.925781 135.535156 126.054688 C 135.945312 125.9375 136.371094 126.175781 136.484375 126.589844 C 136.601562 127 136.359375 127.429688 135.949219 127.542969 C 133.539062 128.214844 131.421875 128.480469 129.574219 128.480469 "/>
<path style=" stroke:none;fill-rule:nonzero;fill:rgb(16.859436%,21.958923%,14.509583%);fill-opacity:1;" d="M 111.453125 175.226562 C 111.027344 175.226562 110.679688 174.882812 110.679688 174.453125 L 110.679688 163.066406 C 110.679688 162.640625 111.027344 162.292969 111.453125 162.292969 C 111.882812 162.292969 112.226562 162.640625 112.226562 163.066406 L 112.226562 174.453125 C 112.226562 174.882812 111.882812 175.226562 111.453125 175.226562 "/>
<path style=" stroke:none;fill-rule:nonzero;fill:rgb(16.859436%,21.958923%,14.509583%);fill-opacity:1;" d="M 166.875 160.292969 L 172.789062 171.683594 L 213.148438 164.996094 Z M 166.875 160.292969 "/>
<path style=" stroke:none;fill-rule:nonzero;fill:rgb(16.859436%,21.958923%,14.509583%);fill-opacity:1;" d="M 129.582031 111.496094 C 129.214844 111.496094 128.886719 111.230469 128.824219 110.859375 C 128.746094 110.433594 129.027344 110.035156 129.449219 109.957031 L 133.925781 109.164062 L 128.886719 98.6875 C 128.703125 98.300781 128.863281 97.839844 129.246094 97.65625 C 129.628906 97.46875 130.09375 97.632812 130.28125 98.015625 L 136.207031 110.332031 L 129.71875 111.480469 C 129.671875 111.492188 129.628906 111.496094 129.582031 111.496094 "/>
<path style=" stroke:none;fill-rule:nonzero;fill:rgb(16.859436%,21.958923%,14.509583%);fill-opacity:1;" d="M 130.769531 117.089844 C 129.828125 117.089844 128.765625 116.835938 127.609375 116.191406 C 127.238281 115.984375 127.105469 115.511719 127.308594 115.136719 C 127.519531 114.761719 127.988281 114.628906 128.363281 114.839844 C 131.203125 116.425781 132.945312 114.949219 133.589844 114.203125 L 131.648438 110.605469 C 131.441406 110.230469 131.582031 109.757812 131.957031 109.554688 C 132.335938 109.351562 132.804688 109.492188 133.003906 109.867188 L 135.402344 114.304688 L 135.160156 114.6875 C 134.511719 115.707031 132.960938 117.089844 130.769531 117.089844 "/>
<path style=" stroke:none;fill-rule:nonzero;fill:rgb(16.859436%,21.958923%,14.509583%);fill-opacity:1;" d="M 125.320312 105.894531 C 124.945312 105.894531 124.613281 105.621094 124.558594 105.242188 L 124.148438 102.585938 C 124.082031 102.164062 124.371094 101.769531 124.796875 101.703125 C 125.214844 101.644531 125.613281 101.929688 125.679688 102.351562 L 126.085938 105.003906 C 126.148438 105.429688 125.859375 105.824219 125.441406 105.886719 C 125.398438 105.894531 125.359375 105.894531 125.320312 105.894531 "/>
<path style=" stroke:none;fill-rule:nonzero;fill:rgb(16.859436%,21.958923%,14.509583%);fill-opacity:1;" d="M 136.207031 104.570312 C 135.832031 104.570312 135.503906 104.296875 135.445312 103.914062 L 135.039062 101.261719 C 134.972656 100.835938 135.261719 100.441406 135.683594 100.378906 C 136.101562 100.3125 136.5 100.601562 136.566406 101.023438 L 136.972656 103.679688 C 137.039062 104.101562 136.75 104.496094 136.328125 104.5625 C 136.289062 104.566406 136.246094 104.570312 136.207031 104.570312 "/>
<path style=" stroke:none;fill-rule:nonzero;fill:rgb(15.689087%,25.099182%,49.409485%);fill-opacity:1;" d="M 126.097656 108.980469 C 126.335938 110.195312 125.042969 111.476562 123.207031 111.835938 C 121.375 112.199219 119.695312 111.507812 119.453125 110.289062 C 119.214844 109.070312 120.507812 107.789062 122.34375 107.425781 C 124.175781 107.070312 125.855469 107.761719 126.097656 108.980469 "/>
<path style=" stroke:none;fill-rule:nonzero;fill:rgb(15.689087%,25.099182%,49.409485%);fill-opacity:1;" d="M 141.375 107.121094 C 141.539062 107.964844 140.644531 108.847656 139.382812 109.097656 C 138.117188 109.347656 136.957031 108.867188 136.792969 108.023438 C 136.625 107.183594 137.519531 106.300781 138.785156 106.050781 C 140.050781 105.800781 141.210938 106.28125 141.375 107.121094 "/>
<path style=" stroke:none;fill-rule:nonzero;fill:rgb(16.859436%,21.958923%,14.509583%);fill-opacity:1;" d="M 117.921875 101.375 C 117.886719 101.375 117.847656 101.371094 117.8125 101.367188 C 117.386719 101.304688 117.097656 100.914062 117.160156 100.492188 C 117.421875 98.703125 118.910156 95.183594 122.667969 94.671875 C 123.085938 94.609375 123.484375 94.910156 123.539062 95.335938 C 123.597656 95.761719 123.300781 96.148438 122.878906 96.210938 C 119.339844 96.6875 118.714844 100.554688 118.6875 100.71875 C 118.632812 101.101562 118.300781 101.375 117.921875 101.375 "/>
<path style=" stroke:none;fill-rule:nonzero;fill:rgb(16.859436%,21.958923%,14.509583%);fill-opacity:1;" d="M 70.171875 107.6875 C 69.933594 107.6875 69.71875 107.523438 69.667969 107.277344 C 69.609375 107 69.789062 106.726562 70.066406 106.667969 L 73.34375 105.992188 L 70.207031 99.601562 C 70.082031 99.347656 70.1875 99.039062 70.445312 98.914062 C 70.699219 98.792969 71.007812 98.894531 71.132812 99.152344 L 74.855469 106.734375 L 70.273438 107.679688 C 70.242188 107.683594 70.207031 107.6875 70.171875 107.6875 "/>
<path style=" stroke:none;fill-rule:nonzero;fill:rgb(16.859436%,21.958923%,14.509583%);fill-opacity:1;" d="M 70.351562 116.210938 C 69.332031 116.210938 68.492188 115.914062 67.828125 115.320312 C 66.273438 113.921875 66.40625 111.402344 66.414062 111.292969 L 66.441406 110.890625 L 72.714844 109.753906 L 71.417969 107.042969 C 71.292969 106.789062 71.402344 106.480469 71.65625 106.359375 C 71.914062 106.234375 72.222656 106.34375 72.34375 106.597656 L 74.234375 110.527344 L 67.445312 111.757812 C 67.480469 112.425781 67.652344 113.777344 68.523438 114.554688 C 69.148438 115.113281 70.050781 115.300781 71.210938 115.101562 C 71.488281 115.058594 71.753906 115.242188 71.800781 115.523438 C 71.851562 115.804688 71.660156 116.070312 71.378906 116.117188 C 71.019531 116.179688 70.675781 116.210938 70.351562 116.210938 "/>
<path style=" stroke:none;fill-rule:nonzero;fill:rgb(16.859436%,21.958923%,14.509583%);fill-opacity:1;" d="M 68.984375 121.445312 C 63.6875 121.445312 61.296875 118.773438 61.191406 118.652344 C 60.910156 118.332031 60.941406 117.84375 61.265625 117.5625 C 61.585938 117.28125 62.074219 117.316406 62.351562 117.632812 C 62.453125 117.742188 64.679688 120.167969 69.808594 119.875 C 70.246094 119.855469 70.597656 120.179688 70.621094 120.605469 C 70.644531 121.03125 70.320312 121.398438 69.890625 121.421875 C 69.582031 121.4375 69.28125 121.445312 68.984375 121.445312 "/>
<path style=" stroke:none;fill-rule:nonzero;fill:rgb(16.859436%,21.958923%,14.509583%);fill-opacity:1;" d="M 66.960938 105.15625 C 66.582031 105.15625 66.253906 104.882812 66.195312 104.496094 L 66.003906 103.21875 C 65.941406 102.796875 66.230469 102.402344 66.652344 102.335938 C 67.074219 102.273438 67.472656 102.566406 67.53125 102.988281 L 67.726562 104.269531 C 67.789062 104.691406 67.496094 105.085938 67.078125 105.148438 C 67.035156 105.15625 66.996094 105.15625 66.960938 105.15625 "/>
<path style=" stroke:none;fill-rule:nonzero;fill:rgb(16.859436%,21.958923%,14.509583%);fill-opacity:1;" d="M 75.792969 103.953125 C 75.417969 103.953125 75.089844 103.675781 75.03125 103.292969 L 74.839844 102.007812 C 74.773438 101.589844 75.066406 101.195312 75.488281 101.128906 C 75.910156 101.0625 76.304688 101.359375 76.371094 101.785156 L 76.558594 103.0625 C 76.625 103.484375 76.332031 103.878906 75.910156 103.945312 C 75.871094 103.949219 75.832031 103.953125 75.792969 103.953125 "/>
<path style=" stroke:none;fill-rule:nonzero;fill:rgb(16.859436%,21.958923%,14.509583%);fill-opacity:1;" d="M 61.175781 103.792969 C 61.144531 103.792969 61.113281 103.789062 61.082031 103.78125 C 60.800781 103.734375 60.617188 103.464844 60.664062 103.1875 C 60.898438 101.859375 62.105469 99.355469 64.996094 99.355469 C 65.285156 99.355469 65.511719 99.585938 65.511719 99.875 C 65.511719 100.15625 65.285156 100.390625 64.996094 100.390625 C 62.253906 100.390625 61.703125 103.246094 61.683594 103.367188 C 61.632812 103.617188 61.417969 103.792969 61.175781 103.792969 "/>
<path style=" stroke:none;fill-rule:nonzero;fill:rgb(15.689087%,25.099182%,49.409485%);fill-opacity:1;" d="M 67.765625 107.589844 C 67.882812 108.179688 67.257812 108.796875 66.371094 108.976562 C 65.480469 109.148438 64.667969 108.8125 64.550781 108.222656 C 64.4375 107.632812 65.0625 107.011719 65.949219 106.839844 C 66.839844 106.664062 67.652344 107 67.765625 107.589844 "/>
<path style=" stroke:none;fill-rule:nonzero;fill:rgb(15.689087%,25.099182%,49.409485%);fill-opacity:1;" d="M 77.75 107.191406 C 77.84375 107.664062 77.34375 108.164062 76.632812 108.304688 C 75.914062 108.441406 75.261719 108.171875 75.167969 107.703125 C 75.078125 107.226562 75.578125 106.730469 76.292969 106.589844 C 77.007812 106.449219 77.660156 106.71875 77.75 107.191406 "/>
<path style=" stroke:none;fill-rule:nonzero;fill:rgb(96.859741%,60.389709%,56.858826%);fill-opacity:1;" d="M 265.050781 122.96875 L 227.105469 98.398438 C 226.636719 98.09375 226.070312 97.980469 225.523438 98.066406 L 179.648438 105.582031 C 172.953125 106.675781 168.3125 113.074219 169.640625 119.730469 C 171.863281 130.851562 182.019531 144.582031 220.191406 139.371094 C 221.105469 139.246094 222.011719 139.6875 222.464844 140.496094 L 239.273438 170.53125 C 240.148438 172.105469 242.425781 172.054688 243.238281 170.449219 L 265.832031 125.875 C 266.355469 124.847656 266.019531 123.59375 265.050781 122.96875 "/>
<path style="fill:none;stroke-width:15;stroke-linecap:round;stroke-linejoin:miter;stroke:rgb(10.5896%,23.529053%,37.649536%);stroke-opacity:1;stroke-miterlimit:10;" d="M 2584.520644 2069.655746 L 2193.025151 2323.013364 L 1758.34583 2253.58891 C 1657.848728 2237.538763 1605.762971 2121.970139 1663.568691 2038.16112 C 1725.806436 1947.803338 1860.017228 1870.353811 2147.757893 1923.463139 L 2338.0319 1583.760277 " transform="matrix(0.10312,0,0,-0.103192,0.233713,337.642653)"/>
<path style="fill:none;stroke-width:15;stroke-linecap:round;stroke-linejoin:miter;stroke:rgb(10.5896%,23.529053%,37.649536%);stroke-opacity:1;stroke-miterlimit:10;" d="M 1083.731099 1548.177405 L 1109.451993 1464.633365 C 1129.86961 1398.350803 1188.887508 1351.373841 1258.133155 1346.339244 L 1847.74393 1303.639798 " transform="matrix(0.10312,0,0,-0.103192,0.233713,337.642653)"/>
<path style="fill:none;stroke-width:15;stroke-linecap:round;stroke-linejoin:miter;stroke:rgb(10.5896%,23.529053%,37.649536%);stroke-opacity:1;stroke-miterlimit:10;" d="M 2116.203394 2568.875866 L 2403.148567 2357.574174 " transform="matrix(0.10312,0,0,-0.103192,0.233713,337.642653)"/>
<g clip-path="url(#clip1)" clip-rule="nonzero">
<path style=" stroke:none;fill-rule:nonzero;fill:rgb(15.689087%,25.099182%,49.409485%);fill-opacity:1;" d="M 374.027344 263.339844 L 262.054688 337.640625 L 229.253906 288.136719 L 341.226562 213.835938 L 374.027344 263.339844 "/>
</g>
<g clip-path="url(#clip2)" clip-rule="nonzero">
<path style="fill:none;stroke-width:15;stroke-linecap:round;stroke-linejoin:miter;stroke:rgb(10.5896%,23.529053%,37.649536%);stroke-opacity:1;stroke-miterlimit:10;" d="M 2220.905547 479.744901 L 3306.751689 1199.768095 L 3624.83472 720.042847 " transform="matrix(0.10312,0,0,-0.103192,0.233713,337.642653)"/>
</g>
<path style=" stroke:none;fill-rule:nonzero;fill:rgb(16.859436%,21.958923%,14.509583%);fill-opacity:1;" d="M 240.265625 256.238281 L 332.820312 219.414062 L 254.425781 271.433594 Z M 240.265625 256.238281 "/>
<path style="fill:none;stroke-width:15;stroke-linecap:round;stroke-linejoin:miter;stroke:rgb(10.5896%,23.529053%,37.649536%);stroke-opacity:1;stroke-miterlimit:10;" d="M 2679.82811 366.636794 C 2679.82811 313.75459 2636.985207 270.903727 2584.103958 270.903727 C 2531.26059 270.903727 2488.379806 313.75459 2488.379806 366.636794 C 2488.379806 419.481144 2531.26059 462.332006 2584.103958 462.332006 C 2636.985207 462.332006 2679.82811 419.481144 2679.82811 366.636794 Z M 2679.82811 366.636794 " transform="matrix(0.10312,0,0,-0.103192,0.233713,337.642653)"/>
</g>
</svg>
