<?xml version="1.0" encoding="UTF-8"?>
<svg xmlns="http://www.w3.org/2000/svg" xmlns:xlink="http://www.w3.org/1999/xlink" width="375pt" height="374.999991pt" viewBox="0 0 375 374.999991" version="1.2">
<defs>
<clipPath id="clip1">
  <path d="M 8 23 L 365 23 L 365 359 L 8 359 Z M 8 23 "/>
</clipPath>
<clipPath id="clip2">
  <path d="M 42.976562 0 L 408.320312 150.820312 L 290.984375 435.050781 L -74.359375 284.234375 Z M 42.976562 0 "/>
</clipPath>
<clipPath id="clip3">
  <path d="M 42.976562 0 L 408.320312 150.820312 L 290.984375 435.050781 L -74.359375 284.234375 Z M 42.976562 0 "/>
</clipPath>
<clipPath id="clip4">
  <path d="M 309.054688 156.511719 C 305.964844 155.238281 302.960938 154.179688 299.898438 153.273438 C 277.542969 146.941406 258.351562 132.507812 247.203125 112.167969 C 239.101562 97.605469 226.222656 85.414062 209.523438 78.523438 C 199.320312 74.3125 188.535156 72.390625 178.0625 72.769531 C 166.320312 73.167969 155.171875 67.300781 148.691406 57.570312 C 139.769531 44.121094 126.625 33.445312 110.164062 27.738281 C 73.09375 14.96875 30.453125 31.914062 15.523438 68.082031 C -1.832031 110.121094 17.757812 139.375 35.285156 155.652344 C 45.890625 165.460938 48.109375 181.570312 40.765625 194.097656 C 35.765625 202.703125 30.816406 212.058594 28.15625 219.824219 C 10.710938 269.96875 34.261719 326 82.402344 348.765625 C 124.179688 368.546875 171.5 358.230469 201.773438 327.855469 C 212.261719 317.351562 228.101562 314.484375 241.796875 320.320312 L 242.105469 320.445312 C 287.402344 339.144531 339.164062 317.640625 357.703125 272.289062 C 375.960938 227.1875 354.105469 174.929688 309.054688 156.511719 Z M 309.054688 156.511719 "/>
</clipPath>
<linearGradient id="linear0" gradientUnits="userSpaceOnUse" x1="-20.69722" y1="91.945" x2="267.219798" y2="91.945" gradientTransform="matrix(1.545961,0.63819,-0.638036,1.545588,43.533099,0.23099)">
<stop offset="0" style="stop-color:rgb(9.399414%,57.598877%,97.299194%);stop-opacity:1;"/>
<stop offset="0.0625" style="stop-color:rgb(9.399414%,57.598877%,97.299194%);stop-opacity:1;"/>
<stop offset="0.0703125" style="stop-color:rgb(9.399414%,57.598877%,97.299194%);stop-opacity:1;"/>
<stop offset="0.0742187" style="stop-color:rgb(9.616089%,57.739258%,97.261047%);stop-opacity:1;"/>
<stop offset="0.078125" style="stop-color:rgb(9.832764%,57.881165%,97.224426%);stop-opacity:1;"/>
<stop offset="0.0820312" style="stop-color:rgb(10.10437%,58.056641%,97.177124%);stop-opacity:1;"/>
<stop offset="0.0859375" style="stop-color:rgb(10.375977%,58.233643%,97.131348%);stop-opacity:1;"/>
<stop offset="0.0898437" style="stop-color:rgb(10.647583%,58.409119%,97.084045%);stop-opacity:1;"/>
<stop offset="0.09375" style="stop-color:rgb(10.919189%,58.584595%,97.036743%);stop-opacity:1;"/>
<stop offset="0.0976562" style="stop-color:rgb(11.190796%,58.760071%,96.989441%);stop-opacity:1;"/>
<stop offset="0.101562" style="stop-color:rgb(11.462402%,58.937073%,96.943665%);stop-opacity:1;"/>
<stop offset="0.105469" style="stop-color:rgb(11.734009%,59.112549%,96.896362%);stop-opacity:1;"/>
<stop offset="0.109375" style="stop-color:rgb(12.005615%,59.289551%,96.850586%);stop-opacity:1;"/>
<stop offset="0.113281" style="stop-color:rgb(12.277222%,59.465027%,96.803284%);stop-opacity:1;"/>
<stop offset="0.117187" style="stop-color:rgb(12.548828%,59.642029%,96.755981%);stop-opacity:1;"/>
<stop offset="0.121094" style="stop-color:rgb(12.820435%,59.817505%,96.708679%);stop-opacity:1;"/>
<stop offset="0.125" style="stop-color:rgb(13.093567%,59.994507%,96.662903%);stop-opacity:1;"/>
<stop offset="0.128906" style="stop-color:rgb(13.365173%,60.169983%,96.615601%);stop-opacity:1;"/>
<stop offset="0.132812" style="stop-color:rgb(13.63678%,60.346985%,96.569824%);stop-opacity:1;"/>
<stop offset="0.136719" style="stop-color:rgb(13.908386%,60.522461%,96.522522%);stop-opacity:1;"/>
<stop offset="0.140625" style="stop-color:rgb(14.179993%,60.699463%,96.47522%);stop-opacity:1;"/>
<stop offset="0.144531" style="stop-color:rgb(14.451599%,60.874939%,96.427917%);stop-opacity:1;"/>
<stop offset="0.148438" style="stop-color:rgb(14.723206%,61.051941%,96.382141%);stop-opacity:1;"/>
<stop offset="0.152344" style="stop-color:rgb(14.994812%,61.227417%,96.334839%);stop-opacity:1;"/>
<stop offset="0.15625" style="stop-color:rgb(15.266418%,61.404419%,96.289062%);stop-opacity:1;"/>
<stop offset="0.160156" style="stop-color:rgb(15.538025%,61.579895%,96.24176%);stop-opacity:1;"/>
<stop offset="0.164062" style="stop-color:rgb(15.809631%,61.756897%,96.195984%);stop-opacity:1;"/>
<stop offset="0.167969" style="stop-color:rgb(16.081238%,61.932373%,96.148682%);stop-opacity:1;"/>
<stop offset="0.171875" style="stop-color:rgb(16.352844%,62.107849%,96.101379%);stop-opacity:1;"/>
<stop offset="0.175781" style="stop-color:rgb(16.624451%,62.283325%,96.054077%);stop-opacity:1;"/>
<stop offset="0.179687" style="stop-color:rgb(16.896057%,62.460327%,96.008301%);stop-opacity:1;"/>
<stop offset="0.183594" style="stop-color:rgb(17.167664%,62.635803%,95.960999%);stop-opacity:1;"/>
<stop offset="0.1875" style="stop-color:rgb(17.43927%,62.812805%,95.915222%);stop-opacity:1;"/>
<stop offset="0.191406" style="stop-color:rgb(17.710876%,62.988281%,95.86792%);stop-opacity:1;"/>
<stop offset="0.195312" style="stop-color:rgb(17.982483%,63.165283%,95.820618%);stop-opacity:1;"/>
<stop offset="0.199219" style="stop-color:rgb(18.254089%,63.340759%,95.773315%);stop-opacity:1;"/>
<stop offset="0.203125" style="stop-color:rgb(18.525696%,63.517761%,95.727539%);stop-opacity:1;"/>
<stop offset="0.207031" style="stop-color:rgb(18.797302%,63.693237%,95.680237%);stop-opacity:1;"/>
<stop offset="0.210938" style="stop-color:rgb(19.068909%,63.870239%,95.63446%);stop-opacity:1;"/>
<stop offset="0.214844" style="stop-color:rgb(19.340515%,64.045715%,95.587158%);stop-opacity:1;"/>
<stop offset="0.21875" style="stop-color:rgb(19.612122%,64.222717%,95.539856%);stop-opacity:1;"/>
<stop offset="0.222656" style="stop-color:rgb(19.883728%,64.398193%,95.492554%);stop-opacity:1;"/>
<stop offset="0.226562" style="stop-color:rgb(20.155334%,64.575195%,95.446777%);stop-opacity:1;"/>
<stop offset="0.230469" style="stop-color:rgb(20.426941%,64.750671%,95.399475%);stop-opacity:1;"/>
<stop offset="0.234375" style="stop-color:rgb(20.698547%,64.927673%,95.353699%);stop-opacity:1;"/>
<stop offset="0.238281" style="stop-color:rgb(20.970154%,65.103149%,95.306396%);stop-opacity:1;"/>
<stop offset="0.242187" style="stop-color:rgb(21.24176%,65.280151%,95.259094%);stop-opacity:1;"/>
<stop offset="0.246094" style="stop-color:rgb(21.513367%,65.455627%,95.211792%);stop-opacity:1;"/>
<stop offset="0.25" style="stop-color:rgb(21.784973%,65.631104%,95.166016%);stop-opacity:1;"/>
<stop offset="0.253906" style="stop-color:rgb(22.05658%,65.80658%,95.118713%);stop-opacity:1;"/>
<stop offset="0.257812" style="stop-color:rgb(22.328186%,65.983582%,95.072937%);stop-opacity:1;"/>
<stop offset="0.261719" style="stop-color:rgb(22.599792%,66.159058%,95.025635%);stop-opacity:1;"/>
<stop offset="0.265625" style="stop-color:rgb(22.871399%,66.33606%,94.978333%);stop-opacity:1;"/>
<stop offset="0.269531" style="stop-color:rgb(23.143005%,66.511536%,94.93103%);stop-opacity:1;"/>
<stop offset="0.273438" style="stop-color:rgb(23.414612%,66.688538%,94.885254%);stop-opacity:1;"/>
<stop offset="0.277344" style="stop-color:rgb(23.686218%,66.864014%,94.837952%);stop-opacity:1;"/>
<stop offset="0.28125" style="stop-color:rgb(23.959351%,67.041016%,94.792175%);stop-opacity:1;"/>
<stop offset="0.285156" style="stop-color:rgb(24.230957%,67.216492%,94.744873%);stop-opacity:1;"/>
<stop offset="0.289062" style="stop-color:rgb(24.502563%,67.393494%,94.697571%);stop-opacity:1;"/>
<stop offset="0.292969" style="stop-color:rgb(24.77417%,67.56897%,94.650269%);stop-opacity:1;"/>
<stop offset="0.296875" style="stop-color:rgb(25.045776%,67.745972%,94.604492%);stop-opacity:1;"/>
<stop offset="0.300781" style="stop-color:rgb(25.317383%,67.921448%,94.55719%);stop-opacity:1;"/>
<stop offset="0.304687" style="stop-color:rgb(25.588989%,68.09845%,94.511414%);stop-opacity:1;"/>
<stop offset="0.308594" style="stop-color:rgb(25.860596%,68.273926%,94.464111%);stop-opacity:1;"/>
<stop offset="0.3125" style="stop-color:rgb(26.132202%,68.450928%,94.416809%);stop-opacity:1;"/>
<stop offset="0.316406" style="stop-color:rgb(26.403809%,68.626404%,94.369507%);stop-opacity:1;"/>
<stop offset="0.320312" style="stop-color:rgb(26.675415%,68.803406%,94.32373%);stop-opacity:1;"/>
<stop offset="0.324219" style="stop-color:rgb(26.947021%,68.978882%,94.276428%);stop-opacity:1;"/>
<stop offset="0.328125" style="stop-color:rgb(27.218628%,69.154358%,94.230652%);stop-opacity:1;"/>
<stop offset="0.332031" style="stop-color:rgb(27.490234%,69.329834%,94.18335%);stop-opacity:1;"/>
<stop offset="0.335938" style="stop-color:rgb(27.761841%,69.506836%,94.136047%);stop-opacity:1;"/>
<stop offset="0.339844" style="stop-color:rgb(28.033447%,69.682312%,94.088745%);stop-opacity:1;"/>
<stop offset="0.34375" style="stop-color:rgb(28.305054%,69.859314%,94.042969%);stop-opacity:1;"/>
<stop offset="0.347656" style="stop-color:rgb(28.57666%,70.03479%,93.995667%);stop-opacity:1;"/>
<stop offset="0.351562" style="stop-color:rgb(28.848267%,70.211792%,93.94989%);stop-opacity:1;"/>
<stop offset="0.355469" style="stop-color:rgb(29.119873%,70.387268%,93.902588%);stop-opacity:1;"/>
<stop offset="0.359375" style="stop-color:rgb(29.391479%,70.56427%,93.855286%);stop-opacity:1;"/>
<stop offset="0.363281" style="stop-color:rgb(29.663086%,70.739746%,93.807983%);stop-opacity:1;"/>
<stop offset="0.367188" style="stop-color:rgb(29.934692%,70.916748%,93.762207%);stop-opacity:1;"/>
<stop offset="0.371094" style="stop-color:rgb(30.206299%,71.092224%,93.714905%);stop-opacity:1;"/>
<stop offset="0.375" style="stop-color:rgb(30.477905%,71.269226%,93.669128%);stop-opacity:1;"/>
<stop offset="0.378906" style="stop-color:rgb(30.749512%,71.444702%,93.621826%);stop-opacity:1;"/>
<stop offset="0.382812" style="stop-color:rgb(31.021118%,71.621704%,93.574524%);stop-opacity:1;"/>
<stop offset="0.386719" style="stop-color:rgb(31.292725%,71.79718%,93.527222%);stop-opacity:1;"/>
<stop offset="0.390625" style="stop-color:rgb(31.564331%,71.974182%,93.481445%);stop-opacity:1;"/>
<stop offset="0.394531" style="stop-color:rgb(31.835938%,72.149658%,93.434143%);stop-opacity:1;"/>
<stop offset="0.398437" style="stop-color:rgb(32.107544%,72.32666%,93.388367%);stop-opacity:1;"/>
<stop offset="0.402344" style="stop-color:rgb(32.37915%,72.502136%,93.341064%);stop-opacity:1;"/>
<stop offset="0.40625" style="stop-color:rgb(32.650757%,72.677612%,93.293762%);stop-opacity:1;"/>
<stop offset="0.410156" style="stop-color:rgb(32.922363%,72.853088%,93.24646%);stop-opacity:1;"/>
<stop offset="0.414062" style="stop-color:rgb(33.19397%,73.03009%,93.200684%);stop-opacity:1;"/>
<stop offset="0.417969" style="stop-color:rgb(33.465576%,73.205566%,93.153381%);stop-opacity:1;"/>
<stop offset="0.421875" style="stop-color:rgb(33.737183%,73.382568%,93.107605%);stop-opacity:1;"/>
<stop offset="0.425781" style="stop-color:rgb(34.008789%,73.558044%,93.060303%);stop-opacity:1;"/>
<stop offset="0.429687" style="stop-color:rgb(34.280396%,73.735046%,93.014526%);stop-opacity:1;"/>
<stop offset="0.433594" style="stop-color:rgb(34.552002%,73.910522%,92.967224%);stop-opacity:1;"/>
<stop offset="0.4375" style="stop-color:rgb(34.825134%,74.087524%,92.919922%);stop-opacity:1;"/>
<stop offset="0.441406" style="stop-color:rgb(35.096741%,74.263%,92.87262%);stop-opacity:1;"/>
<stop offset="0.445312" style="stop-color:rgb(35.368347%,74.440002%,92.826843%);stop-opacity:1;"/>
<stop offset="0.449219" style="stop-color:rgb(35.639954%,74.615479%,92.779541%);stop-opacity:1;"/>
<stop offset="0.453125" style="stop-color:rgb(35.91156%,74.79248%,92.733765%);stop-opacity:1;"/>
<stop offset="0.457031" style="stop-color:rgb(36.183167%,74.967957%,92.686462%);stop-opacity:1;"/>
<stop offset="0.460937" style="stop-color:rgb(36.454773%,75.144958%,92.63916%);stop-opacity:1;"/>
<stop offset="0.464844" style="stop-color:rgb(36.726379%,75.320435%,92.591858%);stop-opacity:1;"/>
<stop offset="0.46875" style="stop-color:rgb(36.997986%,75.497437%,92.546082%);stop-opacity:1;"/>
<stop offset="0.472656" style="stop-color:rgb(37.269592%,75.672913%,92.498779%);stop-opacity:1;"/>
<stop offset="0.476562" style="stop-color:rgb(37.541199%,75.849915%,92.453003%);stop-opacity:1;"/>
<stop offset="0.480469" style="stop-color:rgb(37.812805%,76.025391%,92.405701%);stop-opacity:1;"/>
<stop offset="0.484375" style="stop-color:rgb(38.084412%,76.200867%,92.358398%);stop-opacity:1;"/>
<stop offset="0.488281" style="stop-color:rgb(38.356018%,76.376343%,92.311096%);stop-opacity:1;"/>
<stop offset="0.492187" style="stop-color:rgb(38.627625%,76.553345%,92.26532%);stop-opacity:1;"/>
<stop offset="0.496094" style="stop-color:rgb(38.899231%,76.728821%,92.218018%);stop-opacity:1;"/>
<stop offset="0.5" style="stop-color:rgb(39.170837%,76.905823%,92.172241%);stop-opacity:1;"/>
<stop offset="0.503906" style="stop-color:rgb(39.442444%,77.081299%,92.124939%);stop-opacity:1;"/>
<stop offset="0.507812" style="stop-color:rgb(39.71405%,77.258301%,92.077637%);stop-opacity:1;"/>
<stop offset="0.511719" style="stop-color:rgb(39.985657%,77.433777%,92.030334%);stop-opacity:1;"/>
<stop offset="0.515625" style="stop-color:rgb(40.257263%,77.610779%,91.984558%);stop-opacity:1;"/>
<stop offset="0.519531" style="stop-color:rgb(40.52887%,77.786255%,91.937256%);stop-opacity:1;"/>
<stop offset="0.523438" style="stop-color:rgb(40.800476%,77.963257%,91.891479%);stop-opacity:1;"/>
<stop offset="0.527344" style="stop-color:rgb(41.072083%,78.138733%,91.844177%);stop-opacity:1;"/>
<stop offset="0.53125" style="stop-color:rgb(41.343689%,78.315735%,91.796875%);stop-opacity:1;"/>
<stop offset="0.535156" style="stop-color:rgb(41.615295%,78.491211%,91.749573%);stop-opacity:1;"/>
<stop offset="0.539062" style="stop-color:rgb(41.886902%,78.668213%,91.703796%);stop-opacity:1;"/>
<stop offset="0.542969" style="stop-color:rgb(42.158508%,78.843689%,91.656494%);stop-opacity:1;"/>
<stop offset="0.546875" style="stop-color:rgb(42.430115%,79.020691%,91.610718%);stop-opacity:1;"/>
<stop offset="0.550781" style="stop-color:rgb(42.701721%,79.196167%,91.563416%);stop-opacity:1;"/>
<stop offset="0.554688" style="stop-color:rgb(42.973328%,79.373169%,91.516113%);stop-opacity:1;"/>
<stop offset="0.558594" style="stop-color:rgb(43.244934%,79.548645%,91.468811%);stop-opacity:1;"/>
<stop offset="0.5625" style="stop-color:rgb(43.516541%,79.724121%,91.423035%);stop-opacity:1;"/>
<stop offset="0.566406" style="stop-color:rgb(43.788147%,79.899597%,91.375732%);stop-opacity:1;"/>
<stop offset="0.570312" style="stop-color:rgb(44.059753%,80.076599%,91.329956%);stop-opacity:1;"/>
<stop offset="0.574219" style="stop-color:rgb(44.33136%,80.252075%,91.282654%);stop-opacity:1;"/>
<stop offset="0.578125" style="stop-color:rgb(44.602966%,80.429077%,91.235352%);stop-opacity:1;"/>
<stop offset="0.582031" style="stop-color:rgb(44.874573%,80.604553%,91.188049%);stop-opacity:1;"/>
<stop offset="0.585937" style="stop-color:rgb(45.146179%,80.781555%,91.142273%);stop-opacity:1;"/>
<stop offset="0.589844" style="stop-color:rgb(45.417786%,80.957031%,91.094971%);stop-opacity:1;"/>
<stop offset="0.59375" style="stop-color:rgb(45.690918%,81.134033%,91.049194%);stop-opacity:1;"/>
<stop offset="0.597656" style="stop-color:rgb(45.962524%,81.309509%,91.001892%);stop-opacity:1;"/>
<stop offset="0.601562" style="stop-color:rgb(46.234131%,81.486511%,90.95459%);stop-opacity:1;"/>
<stop offset="0.605469" style="stop-color:rgb(46.505737%,81.661987%,90.907288%);stop-opacity:1;"/>
<stop offset="0.609375" style="stop-color:rgb(46.777344%,81.838989%,90.861511%);stop-opacity:1;"/>
<stop offset="0.613281" style="stop-color:rgb(47.04895%,82.014465%,90.814209%);stop-opacity:1;"/>
<stop offset="0.617187" style="stop-color:rgb(47.320557%,82.191467%,90.768433%);stop-opacity:1;"/>
<stop offset="0.621094" style="stop-color:rgb(47.592163%,82.366943%,90.72113%);stop-opacity:1;"/>
<stop offset="0.625" style="stop-color:rgb(47.86377%,82.543945%,90.673828%);stop-opacity:1;"/>
<stop offset="0.628906" style="stop-color:rgb(48.135376%,82.719421%,90.626526%);stop-opacity:1;"/>
<stop offset="0.632812" style="stop-color:rgb(48.406982%,82.896423%,90.58075%);stop-opacity:1;"/>
<stop offset="0.636719" style="stop-color:rgb(48.678589%,83.071899%,90.533447%);stop-opacity:1;"/>
<stop offset="0.640625" style="stop-color:rgb(48.950195%,83.247375%,90.487671%);stop-opacity:1;"/>
<stop offset="0.644531" style="stop-color:rgb(49.221802%,83.422852%,90.440369%);stop-opacity:1;"/>
<stop offset="0.648437" style="stop-color:rgb(49.493408%,83.599854%,90.393066%);stop-opacity:1;"/>
<stop offset="0.652344" style="stop-color:rgb(49.765015%,83.77533%,90.345764%);stop-opacity:1;"/>
<stop offset="0.65625" style="stop-color:rgb(50.036621%,83.952332%,90.299988%);stop-opacity:1;"/>
<stop offset="0.660156" style="stop-color:rgb(50.308228%,84.127808%,90.252686%);stop-opacity:1;"/>
<stop offset="0.664062" style="stop-color:rgb(50.579834%,84.30481%,90.206909%);stop-opacity:1;"/>
<stop offset="0.667969" style="stop-color:rgb(50.85144%,84.480286%,90.159607%);stop-opacity:1;"/>
<stop offset="0.671875" style="stop-color:rgb(51.123047%,84.657288%,90.112305%);stop-opacity:1;"/>
<stop offset="0.675781" style="stop-color:rgb(51.394653%,84.832764%,90.065002%);stop-opacity:1;"/>
<stop offset="0.679687" style="stop-color:rgb(51.66626%,85.009766%,90.019226%);stop-opacity:1;"/>
<stop offset="0.683594" style="stop-color:rgb(51.937866%,85.185242%,89.971924%);stop-opacity:1;"/>
<stop offset="0.6875" style="stop-color:rgb(52.209473%,85.362244%,89.926147%);stop-opacity:1;"/>
<stop offset="0.691406" style="stop-color:rgb(52.481079%,85.53772%,89.878845%);stop-opacity:1;"/>
<stop offset="0.695312" style="stop-color:rgb(52.752686%,85.714722%,89.833069%);stop-opacity:1;"/>
<stop offset="0.699219" style="stop-color:rgb(53.024292%,85.890198%,89.785767%);stop-opacity:1;"/>
<stop offset="0.703125" style="stop-color:rgb(53.295898%,86.0672%,89.738464%);stop-opacity:1;"/>
<stop offset="0.707031" style="stop-color:rgb(53.567505%,86.242676%,89.691162%);stop-opacity:1;"/>
<stop offset="0.710938" style="stop-color:rgb(53.839111%,86.419678%,89.645386%);stop-opacity:1;"/>
<stop offset="0.714844" style="stop-color:rgb(54.110718%,86.595154%,89.598083%);stop-opacity:1;"/>
<stop offset="0.71875" style="stop-color:rgb(54.382324%,86.77063%,89.552307%);stop-opacity:1;"/>
<stop offset="0.722656" style="stop-color:rgb(54.653931%,86.946106%,89.505005%);stop-opacity:1;"/>
<stop offset="0.726562" style="stop-color:rgb(54.925537%,87.123108%,89.457703%);stop-opacity:1;"/>
<stop offset="0.730469" style="stop-color:rgb(55.197144%,87.298584%,89.4104%);stop-opacity:1;"/>
<stop offset="0.734375" style="stop-color:rgb(55.46875%,87.475586%,89.364624%);stop-opacity:1;"/>
<stop offset="0.738281" style="stop-color:rgb(55.740356%,87.651062%,89.317322%);stop-opacity:1;"/>
<stop offset="0.742188" style="stop-color:rgb(56.011963%,87.828064%,89.271545%);stop-opacity:1;"/>
<stop offset="0.746094" style="stop-color:rgb(56.283569%,88.00354%,89.224243%);stop-opacity:1;"/>
<stop offset="0.75" style="stop-color:rgb(56.556702%,88.180542%,89.176941%);stop-opacity:1;"/>
<stop offset="0.753906" style="stop-color:rgb(56.828308%,88.356018%,89.129639%);stop-opacity:1;"/>
<stop offset="0.757812" style="stop-color:rgb(57.099915%,88.53302%,89.083862%);stop-opacity:1;"/>
<stop offset="0.761719" style="stop-color:rgb(57.371521%,88.708496%,89.03656%);stop-opacity:1;"/>
<stop offset="0.765625" style="stop-color:rgb(57.643127%,88.885498%,88.990784%);stop-opacity:1;"/>
<stop offset="0.769531" style="stop-color:rgb(57.914734%,89.060974%,88.943481%);stop-opacity:1;"/>
<stop offset="0.773437" style="stop-color:rgb(58.18634%,89.237976%,88.896179%);stop-opacity:1;"/>
<stop offset="0.777344" style="stop-color:rgb(58.457947%,89.413452%,88.848877%);stop-opacity:1;"/>
<stop offset="0.78125" style="stop-color:rgb(58.729553%,89.590454%,88.803101%);stop-opacity:1;"/>
<stop offset="0.785156" style="stop-color:rgb(59.00116%,89.76593%,88.755798%);stop-opacity:1;"/>
<stop offset="0.789062" style="stop-color:rgb(59.272766%,89.942932%,88.710022%);stop-opacity:1;"/>
<stop offset="0.792969" style="stop-color:rgb(59.544373%,90.118408%,88.66272%);stop-opacity:1;"/>
<stop offset="0.796875" style="stop-color:rgb(59.815979%,90.293884%,88.615417%);stop-opacity:1;"/>
<stop offset="0.800781" style="stop-color:rgb(60.087585%,90.46936%,88.568115%);stop-opacity:1;"/>
<stop offset="0.804687" style="stop-color:rgb(60.359192%,90.646362%,88.522339%);stop-opacity:1;"/>
<stop offset="0.808594" style="stop-color:rgb(60.630798%,90.821838%,88.475037%);stop-opacity:1;"/>
<stop offset="0.8125" style="stop-color:rgb(60.902405%,90.99884%,88.42926%);stop-opacity:1;"/>
<stop offset="0.816406" style="stop-color:rgb(61.174011%,91.174316%,88.381958%);stop-opacity:1;"/>
<stop offset="0.820312" style="stop-color:rgb(61.445618%,91.351318%,88.334656%);stop-opacity:1;"/>
<stop offset="0.824219" style="stop-color:rgb(61.717224%,91.526794%,88.287354%);stop-opacity:1;"/>
<stop offset="0.828125" style="stop-color:rgb(61.988831%,91.703796%,88.241577%);stop-opacity:1;"/>
<stop offset="0.832031" style="stop-color:rgb(62.260437%,91.879272%,88.194275%);stop-opacity:1;"/>
<stop offset="0.835937" style="stop-color:rgb(62.532043%,92.056274%,88.148499%);stop-opacity:1;"/>
<stop offset="0.839844" style="stop-color:rgb(62.80365%,92.23175%,88.101196%);stop-opacity:1;"/>
<stop offset="0.84375" style="stop-color:rgb(63.075256%,92.408752%,88.053894%);stop-opacity:1;"/>
<stop offset="0.847656" style="stop-color:rgb(63.346863%,92.584229%,88.006592%);stop-opacity:1;"/>
<stop offset="0.851562" style="stop-color:rgb(63.618469%,92.76123%,87.960815%);stop-opacity:1;"/>
<stop offset="0.855469" style="stop-color:rgb(63.890076%,92.936707%,87.913513%);stop-opacity:1;"/>
<stop offset="0.859375" style="stop-color:rgb(64.161682%,93.113708%,87.867737%);stop-opacity:1;"/>
<stop offset="0.863281" style="stop-color:rgb(64.433289%,93.289185%,87.820435%);stop-opacity:1;"/>
<stop offset="0.867188" style="stop-color:rgb(64.704895%,93.466187%,87.773132%);stop-opacity:1;"/>
<stop offset="0.871094" style="stop-color:rgb(64.976501%,93.641663%,87.72583%);stop-opacity:1;"/>
<stop offset="0.875" style="stop-color:rgb(65.248108%,93.818665%,87.680054%);stop-opacity:1;"/>
<stop offset="0.878906" style="stop-color:rgb(65.519714%,93.994141%,87.632751%);stop-opacity:1;"/>
<stop offset="0.882812" style="stop-color:rgb(65.791321%,94.169617%,87.586975%);stop-opacity:1;"/>
<stop offset="0.886719" style="stop-color:rgb(66.044617%,94.334412%,87.542725%);stop-opacity:1;"/>
<stop offset="0.890625" style="stop-color:rgb(66.299438%,94.499207%,87.5%);stop-opacity:1;"/>
<stop offset="0.90625" style="stop-color:rgb(66.299438%,94.499207%,87.5%);stop-opacity:1;"/>
<stop offset="0.9375" style="stop-color:rgb(66.299438%,94.499207%,87.5%);stop-opacity:1;"/>
<stop offset="1" style="stop-color:rgb(66.299438%,94.499207%,87.5%);stop-opacity:1;"/>
</linearGradient>
<clipPath id="clip5">
  <path d="M 59.308594 239 L 216 239 L 216 365 L 59.308594 365 Z M 59.308594 239 "/>
</clipPath>
<clipPath id="clip6">
  <path d="M 100 131 L 315.808594 131 L 315.808594 369 L 100 369 Z M 100 131 "/>
</clipPath>
</defs>
<g id="surface1">
<g clip-path="url(#clip1)" clip-rule="nonzero">
<g clip-path="url(#clip2)" clip-rule="nonzero">
<g clip-path="url(#clip3)" clip-rule="nonzero">
<g clip-path="url(#clip4)" clip-rule="nonzero">
<path style=" stroke:none;fill-rule:nonzero;fill:url(#linear0);" d="M 54.601562 -117.296875 L -124.707031 317.0625 L 320.398438 500.808594 L 499.707031 66.449219 Z M 54.601562 -117.296875 "/>
</g>
</g>
</g>
</g>
<path style=" stroke:none;fill-rule:nonzero;fill:rgb(73.329163%,89.7995%,88.238525%);fill-opacity:1;" d="M 289.183594 248.265625 C 289.675781 245.640625 289.957031 242.171875 289.542969 237.824219 C 288.488281 226.65625 286.582031 214.433594 284.472656 204.742188 C 282.359375 195.042969 276.019531 188.9375 267.992188 187.460938 C 259.960938 185.988281 253.09375 186.425781 253.09375 186.425781 L 247.453125 219.453125 L 245.269531 217.105469 L 235.546875 226.421875 L 228.582031 192.570312 C 228.582031 192.570312 216.667969 194.183594 212.46875 204.742188 C 208.273438 215.296875 208.65625 223 208.273438 234.027344 C 208.074219 239.808594 207.960938 244.429688 208.753906 248.265625 L 65.628906 248.265625 L 65.628906 364.21875 L 296.78125 364.21875 L 296.78125 248.265625 Z M 242.847656 248.25 C 242.847656 248.25 242.855469 248.261719 242.863281 248.265625 L 242.824219 248.265625 Z M 198.433594 243.152344 L 107.953125 243.371094 L 107.953125 238.378906 L 141.824219 238.378906 L 158.761719 200.347656 L 213.445312 200.648438 L 198.445312 238.460938 L 198.445312 243.152344 Z M 198.433594 243.152344 "/>
<g clip-path="url(#clip5)" clip-rule="nonzero">
<path style=" stroke:none;fill-rule:nonzero;fill:rgb(0%,74.899292%,65.879822%);fill-opacity:1;" d="M 215.785156 364.21875 L 140.441406 364.21875 C 140.667969 364.148438 140.898438 364.074219 141.132812 364.003906 C 175.160156 353.421875 182.964844 316.066406 182.964844 316.066406 Z M 208.183594 242.695312 L 198.433594 242.695312 L 198.433594 240.035156 L 143.003906 239.964844 L 142.378906 239.136719 L 141.859375 242.695312 L 59.308594 242.695312 L 59.308594 248.699219 L 208.703125 248.699219 C 208.703125 248.699219 208.355469 245.953125 208.183594 242.695312 Z M 208.183594 242.695312 "/>
</g>
<path style=" stroke:none;fill-rule:nonzero;fill:rgb(100%,100%,100%);fill-opacity:1;" d="M 292.605469 271.109375 C 292.605469 271.109375 287.417969 271.109375 279.511719 271.109375 C 271.605469 271.109375 261.21875 270.988281 253.453125 278.992188 C 244.847656 287.859375 246.578125 298.515625 246.578125 298.515625 L 236.078125 298.515625 L 229.464844 310.925781 L 193.550781 310.925781 C 193.550781 310.925781 191.085938 291.664062 190.570312 281.707031 C 190.050781 271.75 195.367188 261.535156 205.609375 259.082031 C 215.851562 256.625 235.867188 253.152344 235.867188 253.152344 L 242.851562 248.246094 L 245.699219 251.417969 C 245.699219 251.417969 252.015625 259.988281 261.34375 260.566406 C 270.671875 261.152344 277.597656 254.410156 277.597656 254.410156 L 287.117188 254.410156 C 292.621094 257.566406 292.605469 271.109375 292.605469 271.109375 Z M 147.269531 180.96875 C 139.90625 179.792969 139.90625 179.792969 139.90625 179.792969 L 136.148438 198.652344 L 111.929688 179.058594 C 111.929688 179.058594 100.59375 180.671875 93.820312 183.609375 C 87.046875 186.546875 84.835938 196.972656 86.457031 206.074219 C 88.074219 215.175781 91.167969 228.394531 92.492188 234.414062 C 93.820312 240.433594 102.210938 242.855469 102.210938 242.855469 L 107.957031 242.855469 L 107.957031 238.382812 L 141.824219 238.382812 L 158.761719 200.351562 L 164.976562 200.121094 C 164.976562 200.121094 163.28125 194.054688 160.074219 189.171875 C 156.855469 184.28125 154.632812 182.140625 147.269531 180.96875 Z M 236.511719 212.667969 L 243.039062 219.546875 L 245.191406 217.402344 L 247.453125 219.453125 L 253.09375 186.425781 C 253.09375 186.425781 250.25 183.867188 244.941406 185.804688 C 239.628906 187.738281 238.507812 191.089844 238.546875 194.558594 C 236.808594 190.847656 234.355469 189.632812 231.613281 190.128906 C 228.871094 190.628906 228.582031 192.570312 228.582031 192.570312 L 231.988281 209.929688 C 231.988281 209.929688 234.746094 210.902344 236.511719 212.667969 Z M 181.023438 226.03125 C 183.707031 226.03125 185.886719 223.820312 185.886719 221.097656 C 185.886719 218.375 183.707031 216.167969 181.023438 216.167969 C 178.339844 216.167969 176.160156 218.375 176.160156 221.097656 C 176.167969 223.820312 178.339844 226.03125 181.023438 226.03125 Z M 221.632812 354.257812 L 200.117188 363.011719 L 202.96875 359.273438 L 185.003906 356.605469 C 185.003906 356.605469 179.410156 359.460938 175.371094 361.761719 C 171.335938 364.066406 171.046875 370.007812 177.582031 369.820312 C 184.121094 369.625 196.617188 368.574219 196.617188 368.574219 C 196.617188 368.574219 194.789062 370.683594 196.042969 372.601562 C 197.289062 374.515625 200.945312 374.230469 206.136719 372.3125 C 211.328125 370.398438 216.730469 368.40625 220.132812 366.765625 C 223.539062 365.121094 224.3125 363.492188 224.210938 361.289062 C 224.117188 359.085938 221.632812 354.257812 221.632812 354.257812 Z M 65.828125 363.886719 L 88.175781 363.886719 L 88.175781 249.324219 L 65.828125 249.324219 Z M 65.828125 363.886719 "/>
<path style=" stroke:none;fill-rule:nonzero;fill:rgb(96.859741%,60.389709%,56.858826%);fill-opacity:1;" d="M 229.464844 310.925781 L 216.832031 333.671875 C 216.832031 333.671875 217.636719 339.542969 218.707031 344.875 C 219.777344 350.207031 221.648438 354.339844 221.648438 354.339844 L 200.117188 363.011719 L 202.292969 359.355469 C 187.050781 363.621094 185.007812 356.613281 185.007812 356.613281 C 185.007812 356.613281 192.09375 351.945312 192.761719 347.941406 C 193.429688 343.9375 195.839844 327.804688 195.839844 327.804688 L 193.558594 310.925781 Z M 268.964844 234.652344 C 267.46875 232.917969 266.351562 231.054688 263.246094 229.195312 C 260.136719 227.335938 254.539062 227.832031 254.539062 227.832031 L 260.632812 233.535156 C 260.632812 233.535156 262.496094 240.476562 263.617188 241.097656 C 264.734375 241.714844 268.214844 242.953125 270.207031 242.460938 C 272.195312 241.96875 270.453125 236.394531 268.964844 234.652344 Z M 226.902344 210.171875 C 223.820312 211.125 217.59375 215.496094 217.59375 215.496094 C 217.59375 215.496094 211.914062 213.859375 209.386719 213.925781 C 206.851562 213.996094 205.347656 215.972656 205.757812 217.75 C 206.167969 219.527344 211.230469 222.050781 213.078125 223.207031 C 214.925781 224.367188 219.648438 224.234375 222.179688 224.023438 C 224.714844 223.820312 227.929688 223.070312 229.78125 224.84375 C 231.628906 226.617188 233.613281 228.390625 233.613281 228.390625 L 243.332031 219.042969 C 243.332031 219.042969 238.609375 214.535156 235.941406 212.078125 C 233.269531 209.625 229.984375 209.21875 226.902344 210.171875 Z M 251.332031 163.871094 C 251.332031 154.792969 247.429688 143.234375 231.613281 144.421875 C 215.792969 145.609375 213.082031 155.660156 213.515625 163.976562 C 213.949219 172.296875 215.464844 180.9375 220.667969 183.640625 C 225.867188 186.34375 230.527344 184.71875 230.527344 184.71875 L 231.605469 190.117188 C 231.605469 190.117188 235.617188 189.472656 238.542969 194.550781 C 238.542969 194.550781 238 187.851562 244.933594 185.796875 L 243.523438 180.5 C 243.53125 180.511719 251.332031 172.941406 251.332031 163.871094 Z M 139.882812 174.058594 C 138.460938 173.347656 136.921875 173.824219 137.394531 175.121094 C 137.871094 176.421875 141.1875 179.847656 141.1875 179.847656 C 141.1875 179.847656 137.574219 179.847656 135.195312 179.847656 L 134.839844 174.652344 C 134.839844 174.652344 139.976562 173.265625 142.652344 168.84375 C 145.332031 164.421875 144.226562 156.960938 144.226562 156.960938 C 144.226562 156.960938 146.351562 152.539062 142.652344 148.671875 C 142.652344 148.671875 138.402344 137.339844 125.933594 137.519531 C 113.460938 137.703125 103.945312 151.707031 108.378906 163.226562 C 108.378906 163.226562 111.863281 170.949219 118.945312 170.863281 L 119.371094 174.839844 L 129.988281 189.128906 C 129.765625 190.316406 129.585938 192.152344 130.167969 193.679688 C 131.117188 196.160156 134.789062 200.886719 134.789062 200.886719 L 144.03125 196.277344 C 144.03125 196.277344 146.285156 186 146.757812 183.753906 C 147.234375 181.507812 146.167969 179.621094 144.507812 177.964844 C 142.84375 176.300781 141.300781 174.765625 139.882812 174.058594 Z M 139.882812 174.058594 "/>
<g clip-path="url(#clip6)" clip-rule="nonzero">
<path style=" stroke:none;fill-rule:nonzero;fill:rgb(15.289307%,24.708557%,48.629761%);fill-opacity:1;" d="M 195.832031 327.804688 C 195.832031 327.804688 194.25 338.574219 193.644531 342.644531 C 193.039062 346.71875 193.496094 349.128906 190.167969 352.445312 C 186.839844 355.761719 182.714844 358.027344 182.714844 358.027344 C 182.714844 358.027344 182.714844 307.59375 182.714844 294.21875 C 182.714844 280.847656 191.367188 273.726562 191.367188 273.726562 C 190.148438 282.628906 195.832031 327.804688 195.832031 327.804688 Z M 300.234375 239.425781 C 290.035156 239.425781 289.640625 239.425781 289.640625 239.425781 C 289.640625 239.425781 290.023438 252.464844 286.714844 254.421875 C 286.714844 254.421875 292.105469 258.324219 292.605469 271.109375 C 292.605469 271.109375 290.867188 271.109375 276.722656 271.109375 C 256.816406 271.109375 246.753906 278.402344 246.058594 298.515625 L 236.914062 298.515625 C 237.222656 297.972656 237.613281 297.253906 237.988281 296.5 C 238.648438 295.1875 240.066406 295.15625 240.125 295.15625 C 240.316406 295.15625 240.476562 294.996094 240.476562 294.800781 C 240.476562 294.609375 240.316406 294.453125 240.125 294.453125 C 240.046875 294.453125 238.21875 294.472656 237.355469 296.183594 C 236.898438 297.097656 236.410156 297.964844 236.097656 298.511719 L 236.066406 298.511719 L 216.824219 333.667969 C 216.824219 333.667969 216.832031 333.757812 216.847656 333.902344 L 196.777344 367.589844 C 196.679688 367.757812 196.738281 367.96875 196.90625 368.070312 C 196.960938 368.101562 197.023438 368.117188 197.082031 368.117188 C 197.203125 368.117188 197.316406 368.054688 197.386719 367.945312 L 216.996094 335.027344 C 217.484375 338.660156 219.015625 348.695312 221.636719 354.335938 C 224.703125 360.941406 225.101562 364.410156 220.125 366.761719 L 315.902344 366.761719 C 315.902344 366.761719 315.902344 275.773438 315.902344 260.328125 C 315.914062 244.886719 310.433594 239.425781 300.234375 239.425781 Z M 244.675781 217.75 C 244.539062 217.613281 244.3125 217.609375 244.175781 217.75 L 229.046875 232.738281 L 214.136719 240.050781 C 213.964844 240.132812 213.894531 240.347656 213.976562 240.519531 C 214.039062 240.644531 214.164062 240.714844 214.289062 240.714844 C 214.34375 240.714844 214.394531 240.707031 214.445312 240.679688 L 229.171875 233.460938 L 242.207031 247.5625 C 242.277344 247.636719 242.371094 247.679688 242.46875 247.679688 C 242.554688 247.679688 242.640625 247.648438 242.710938 247.585938 C 242.851562 247.453125 242.863281 247.230469 242.730469 247.089844 L 229.75 233.042969 L 244.679688 218.253906 C 244.808594 218.109375 244.808594 217.890625 244.675781 217.75 Z M 262.539062 228.65625 C 262.738281 228.65625 262.894531 228.492188 262.890625 228.300781 L 262.765625 210.523438 C 262.765625 210.328125 262.609375 210.171875 262.414062 210.171875 C 262.414062 210.171875 262.414062 210.171875 262.410156 210.171875 C 262.214844 210.171875 262.058594 210.335938 262.058594 210.527344 L 262.183594 228.304688 C 262.191406 228.5 262.347656 228.65625 262.539062 228.65625 Z M 278.496094 253.890625 C 278.605469 253.890625 278.714844 253.839844 278.78125 253.746094 C 279 253.441406 284.082031 246.246094 284.207031 239.871094 C 284.332031 233.605469 284.949219 208.792969 284.953125 208.542969 C 284.960938 208.351562 284.804688 208.1875 284.609375 208.183594 C 284.605469 208.183594 284.605469 208.183594 284.597656 208.183594 C 284.40625 208.183594 284.25 208.335938 284.25 208.527344 C 284.242188 208.777344 283.621094 233.589844 283.503906 239.855469 C 283.382812 246.011719 278.257812 253.261719 278.207031 253.332031 C 278.09375 253.488281 278.132812 253.707031 278.289062 253.824219 C 278.351562 253.871094 278.425781 253.890625 278.496094 253.890625 Z M 225.621094 258.09375 C 232.875 256.671875 245.539062 253.8125 245.667969 253.78125 C 245.855469 253.738281 245.972656 253.550781 245.933594 253.359375 C 245.890625 253.171875 245.703125 253.046875 245.507812 253.09375 C 245.382812 253.125 232.730469 255.984375 225.488281 257.402344 C 218.109375 258.84375 209.398438 264.695312 207.792969 272.691406 C 206.242188 280.433594 196.109375 325.761719 196.011719 326.21875 C 195.96875 326.40625 196.089844 326.59375 196.277344 326.640625 C 196.304688 326.648438 196.328125 326.652344 196.355469 326.652344 C 196.519531 326.652344 196.664062 326.542969 196.699219 326.375 C 196.804688 325.917969 206.929688 280.582031 208.488281 272.832031 C 210.023438 265.132812 218.460938 259.496094 225.621094 258.09375 Z M 222.984375 212.75 C 223.105469 212.597656 223.078125 212.375 222.929688 212.253906 C 222.769531 212.136719 222.550781 212.160156 222.429688 212.316406 C 222.414062 212.332031 220.996094 214.144531 219.820312 215.550781 C 219.03125 216.496094 219.117188 217.519531 219.597656 218.046875 C 219.816406 218.285156 220.15625 218.464844 220.589844 218.464844 C 220.972656 218.464844 221.433594 218.324219 221.957031 217.964844 C 223.746094 216.71875 228.9375 213.578125 228.992188 213.546875 C 229.15625 213.449219 229.210938 213.230469 229.109375 213.0625 C 229.011719 212.894531 228.792969 212.84375 228.625 212.941406 C 228.574219 212.972656 223.359375 216.125 221.554688 217.378906 C 220.949219 217.800781 220.394531 217.871094 220.117188 217.566406 C 219.847656 217.269531 219.839844 216.625 220.363281 216 C 221.539062 214.589844 222.96875 212.765625 222.984375 212.75 Z M 213.835938 218.386719 C 211.886719 217.375 207.484375 214.628906 207.4375 214.605469 C 207.277344 214.5 207.058594 214.550781 206.953125 214.714844 C 206.847656 214.878906 206.898438 215.09375 207.0625 215.199219 C 207.246094 215.3125 211.539062 217.984375 213.507812 219.003906 C 214.457031 219.5 215.871094 219.636719 217.140625 219.636719 C 218.613281 219.636719 219.886719 219.453125 219.980469 219.4375 C 220.175781 219.410156 220.304688 219.230469 220.28125 219.035156 C 220.253906 218.84375 220.070312 218.714844 219.878906 218.738281 C 219.839844 218.753906 215.695312 219.355469 213.835938 218.386719 Z M 216.351562 222.640625 C 218.25 222.640625 220.085938 222.382812 220.222656 222.363281 C 220.414062 222.335938 220.550781 222.160156 220.519531 221.96875 C 220.492188 221.773438 220.3125 221.640625 220.125 221.671875 C 218.613281 221.882812 214.410156 222.253906 213.066406 221.40625 C 211.355469 220.316406 206.632812 216.871094 206.585938 216.832031 C 206.429688 216.71875 206.210938 216.75 206.097656 216.90625 C 205.980469 217.0625 206.011719 217.28125 206.167969 217.394531 C 206.363281 217.535156 210.953125 220.894531 212.6875 221.992188 C 213.476562 222.5 214.925781 222.640625 216.351562 222.640625 Z M 212.816406 151.601562 C 212.816406 151.601562 211.328125 146.335938 217.558594 145.796875 C 217.558594 145.796875 218.777344 140.796875 224.871094 142.421875 C 224.871094 142.421875 228.390625 137.828125 232.726562 141.207031 C 232.726562 141.207031 236.515625 139.046875 239.363281 142.421875 C 239.363281 142.421875 242.609375 140.53125 245.050781 143.90625 C 245.050781 143.90625 248.03125 141.878906 251.28125 143.632812 C 254.527344 145.390625 254.394531 147.957031 254.394531 147.957031 C 254.394531 147.957031 259.132812 147.957031 260.078125 151.601562 C 261.03125 155.246094 258.457031 157.949219 258.457031 157.949219 C 258.457031 157.949219 260.894531 160.246094 259.945312 163.351562 C 258.992188 166.453125 256.695312 166.453125 256.695312 166.453125 C 256.695312 166.453125 256.015625 170.640625 253.449219 171.582031 C 250.871094 172.53125 249.519531 171.449219 249.519531 171.449219 C 249.519531 171.449219 248.167969 176.691406 243.53125 180.5 L 243.089844 171.277344 C 243.089844 171.277344 247.691406 167.898438 247.042969 163.871094 C 246.398438 159.847656 241.957031 160.570312 241.957031 160.570312 L 240.832031 167.734375 C 240.832031 167.734375 238.734375 166.402344 236.960938 164.058594 L 233.527344 165.125 C 233.738281 166.289062 233.492188 167.929688 232.441406 169.292969 C 231.691406 170.273438 230.25 171.425781 227.667969 171.425781 C 227.632812 171.425781 227.589844 171.425781 227.554688 171.425781 C 222.960938 171.363281 222.394531 166.796875 222.332031 165.796875 C 220.859375 164.84375 219.992188 165.402344 219.742188 165.621094 C 219.675781 166.492188 219.136719 170.980469 215.414062 171.042969 C 214.367188 171.050781 213.539062 170.722656 212.917969 170.054688 C 211.480469 168.496094 211.746094 165.683594 211.757812 165.5625 C 211.757812 165.539062 211.761719 165.515625 211.773438 165.492188 C 211.78125 165.464844 212.617188 162.917969 215.542969 162.839844 C 217.804688 162.792969 219.015625 164.265625 219.453125 164.964844 C 219.960938 164.621094 221.054688 164.183594 222.613281 165.140625 C 223.078125 164.308594 224.464844 162.511719 227.789062 162.339844 C 231.285156 162.164062 232.8125 163.820312 233.277344 164.46875 L 236.539062 163.453125 C 235.972656 162.621094 235.464844 161.683594 235.105469 160.648438 C 233.570312 156.222656 234.355469 149.304688 234.355469 149.304688 L 213.902344 157.816406 C 213.898438 157.816406 209.296875 155.113281 212.816406 151.601562 Z M 219.03125 165.664062 C 219.019531 165.648438 219.015625 165.632812 219.003906 165.617188 C 218.964844 165.527344 218.003906 163.476562 215.558594 163.546875 C 213.289062 163.605469 212.554688 165.390625 212.453125 165.671875 C 212.425781 166 212.296875 168.351562 213.433594 169.585938 C 213.917969 170.109375 214.570312 170.367188 215.398438 170.34375 C 218.460938 170.289062 218.957031 166.59375 219.03125 165.664062 Z M 232.796875 165.023438 C 232.640625 164.75 231.402344 162.859375 227.828125 163.046875 C 224.066406 163.246094 223.121094 165.699219 223.078125 165.804688 C 223.070312 165.828125 223.058594 165.855469 223.042969 165.875 C 223.121094 166.933594 223.667969 170.675781 227.570312 170.730469 C 227.605469 170.730469 227.636719 170.730469 227.675781 170.730469 C 229.96875 170.730469 231.230469 169.71875 231.890625 168.867188 C 232.875 167.585938 233.046875 165.984375 232.796875 165.023438 Z M 244.527344 166.808594 C 244.578125 166.839844 244.640625 166.855469 244.699219 166.855469 C 244.820312 166.855469 244.941406 166.792969 245.007812 166.679688 C 245.691406 165.476562 245.84375 164.433594 245.460938 163.585938 C 244.914062 162.367188 243.476562 162.046875 243.421875 162.03125 C 243.226562 161.992188 243.042969 162.109375 243.003906 162.304688 C 242.960938 162.492188 243.082031 162.679688 243.269531 162.71875 C 243.28125 162.726562 244.421875 162.984375 244.820312 163.875 C 245.101562 164.511719 244.960938 165.335938 244.398438 166.328125 C 244.296875 166.496094 244.355469 166.710938 244.527344 166.808594 Z M 225.167969 160.605469 C 225.304688 160.515625 228.550781 158.457031 231.289062 160.648438 C 231.355469 160.699219 231.429688 160.726562 231.507812 160.726562 C 231.613281 160.726562 231.710938 160.679688 231.785156 160.59375 C 231.90625 160.445312 231.882812 160.222656 231.734375 160.101562 C 228.59375 157.585938 224.824219 159.992188 224.785156 160.019531 C 224.625 160.121094 224.578125 160.339844 224.683594 160.5 C 224.785156 160.664062 225.007812 160.710938 225.167969 160.605469 Z M 214.878906 161.324219 C 214.972656 161.261719 217.25 159.820312 219.15625 161.351562 C 219.226562 161.402344 219.296875 161.429688 219.375 161.429688 C 219.480469 161.429688 219.582031 161.382812 219.652344 161.296875 C 219.773438 161.148438 219.753906 160.921875 219.601562 160.804688 C 217.292969 158.949219 214.523438 160.71875 214.492188 160.734375 C 214.332031 160.839844 214.285156 161.058594 214.390625 161.21875 C 214.5 161.386719 214.71875 161.429688 214.878906 161.324219 Z M 226.929688 164.761719 C 226.464844 164.761719 226.085938 165.136719 226.085938 165.601562 C 226.085938 166.0625 226.464844 166.4375 226.929688 166.4375 C 227.394531 166.4375 227.769531 166.0625 227.769531 165.601562 C 227.769531 165.136719 227.394531 164.761719 226.929688 164.761719 Z M 216.503906 164.5 C 216.039062 164.5 215.664062 164.875 215.664062 165.339844 C 215.664062 165.804688 216.039062 166.179688 216.503906 166.179688 C 216.96875 166.179688 217.34375 165.804688 217.34375 165.339844 C 217.34375 164.875 216.96875 164.5 216.503906 164.5 Z M 220.917969 166.792969 L 220.242188 166.589844 C 220.242188 166.589844 219.660156 168.527344 219.273438 169.953125 C 219.015625 170.886719 219.261719 171.472656 219.507812 171.796875 C 219.941406 172.363281 220.738281 172.652344 221.871094 172.652344 C 222.066406 172.652344 222.222656 172.496094 222.222656 172.300781 C 222.222656 172.109375 222.066406 171.953125 221.871094 171.953125 C 220.980469 171.953125 220.359375 171.753906 220.066406 171.375 C 219.839844 171.082031 219.804688 170.671875 219.945312 170.140625 C 220.335938 168.726562 220.917969 166.796875 220.917969 166.792969 Z M 226.109375 174.160156 C 224.144531 174.730469 222.023438 175.113281 222.003906 175.121094 C 221.808594 175.15625 221.683594 175.339844 221.722656 175.527344 C 221.757812 175.71875 221.941406 175.84375 222.132812 175.808594 C 222.15625 175.800781 224.304688 175.410156 226.308594 174.832031 C 227.195312 174.578125 227.550781 174.683594 227.621094 174.78125 C 227.695312 174.878906 227.664062 175.230469 227.277344 175.777344 C 226.703125 176.582031 224.433594 177.253906 223.605469 177.441406 C 223.417969 177.484375 223.296875 177.675781 223.339844 177.863281 C 223.375 178.027344 223.523438 178.136719 223.683594 178.136719 C 223.710938 178.136719 223.738281 178.128906 223.761719 178.125 C 224.097656 178.050781 227.023438 177.355469 227.851562 176.175781 C 228.375 175.4375 228.5 174.796875 228.195312 174.371094 C 227.875 173.925781 227.167969 173.855469 226.109375 174.160156 Z M 235.515625 184.460938 C 235.148438 183.507812 234.339844 183.289062 230.527344 184.722656 L 231.277344 188.460938 C 233.371094 186.898438 235.722656 185 235.515625 184.460938 Z M 240.835938 199.636719 C 240.835938 200.589844 240.058594 201.367188 239.101562 201.367188 C 238.144531 201.367188 237.367188 200.589844 237.367188 199.636719 C 237.367188 198.683594 238.144531 197.910156 239.101562 197.910156 C 240.058594 197.910156 240.835938 198.683594 240.835938 199.636719 Z M 240.128906 199.636719 C 240.128906 199.070312 239.671875 198.613281 239.101562 198.613281 C 238.53125 198.613281 238.074219 199.070312 238.074219 199.636719 C 238.074219 200.207031 238.53125 200.664062 239.101562 200.664062 C 239.671875 200.664062 240.128906 200.207031 240.128906 199.636719 Z M 239.984375 210.136719 C 240.941406 210.136719 241.71875 210.914062 241.71875 211.863281 C 241.71875 212.816406 240.941406 213.59375 239.984375 213.59375 C 239.027344 213.59375 238.25 212.816406 238.25 211.863281 C 238.25 210.914062 239.027344 210.136719 239.984375 210.136719 Z M 239.984375 210.839844 C 239.414062 210.839844 238.957031 211.296875 238.957031 211.863281 C 238.957031 212.433594 239.414062 212.890625 239.984375 212.890625 C 240.554688 212.890625 241.011719 212.433594 241.011719 211.863281 C 241.011719 211.296875 240.546875 210.839844 239.984375 210.839844 Z M 111.058594 167.117188 C 111.058594 167.117188 107.519531 160.359375 113.171875 159.386719 L 116.921875 161.75 L 129.457031 142.070312 C 129.457031 142.070312 135.871094 149.351562 142.976562 150.632812 C 142.976562 150.632812 142.582031 140.003906 133.304688 137.25 C 127.890625 135.640625 122.496094 134.90625 117.796875 136.097656 C 117.113281 134.535156 114.652344 130.292969 108.335938 131.34375 C 100.640625 132.625 100.242188 140.691406 101.429688 143.84375 C 102.304688 146.179688 104.113281 147.429688 106 147.765625 C 102.738281 158.199219 111.058594 167.117188 111.058594 167.117188 Z M 136.472656 162.664062 C 136.304688 162.761719 136.246094 162.976562 136.339844 163.140625 C 136.402344 163.257812 136.523438 163.320312 136.644531 163.320312 C 136.699219 163.320312 136.761719 163.304688 136.820312 163.273438 C 136.871094 163.242188 138.140625 162.5 138.386719 161.496094 C 138.480469 161.101562 138.414062 160.714844 138.183594 160.359375 C 137.375 159.121094 135.921875 157.367188 135.859375 157.292969 C 135.734375 157.144531 135.515625 157.121094 135.363281 157.246094 C 135.210938 157.371094 135.191406 157.589844 135.316406 157.742188 C 135.332031 157.757812 136.804688 159.539062 137.589844 160.746094 C 137.714844 160.933594 137.75 161.125 137.699219 161.335938 C 137.5625 161.921875 136.769531 162.492188 136.472656 162.664062 Z M 136.007812 167.1875 C 135.976562 166.996094 135.796875 166.867188 135.605469 166.898438 C 133.453125 167.234375 131.9375 165.882812 131.921875 165.871094 C 131.777344 165.742188 131.554688 165.75 131.425781 165.890625 C 131.296875 166.03125 131.304688 166.257812 131.445312 166.386719 C 131.507812 166.445312 132.851562 167.65625 134.898438 167.65625 C 135.160156 167.65625 135.4375 167.636719 135.71875 167.59375 C 135.902344 167.558594 136.03125 167.382812 136.007812 167.1875 Z M 138.761719 157.519531 C 138.761719 157.996094 139.15625 158.386719 139.636719 158.386719 C 140.117188 158.386719 140.507812 157.996094 140.507812 157.519531 C 140.507812 157.039062 140.117188 156.648438 139.636719 156.648438 C 139.15625 156.648438 138.761719 157.039062 138.761719 157.519531 Z M 128.386719 159.621094 C 128.867188 159.621094 129.257812 159.230469 129.257812 158.753906 C 129.257812 158.273438 128.867188 157.882812 128.386719 157.882812 C 127.90625 157.882812 127.515625 158.273438 127.515625 158.753906 C 127.519531 159.238281 127.90625 159.621094 128.386719 159.621094 Z M 141.71875 154.371094 C 141.828125 154.210938 141.792969 153.992188 141.636719 153.882812 C 138.722656 151.835938 135.777344 154.117188 135.746094 154.144531 C 135.59375 154.261719 135.566406 154.488281 135.6875 154.636719 C 135.753906 154.726562 135.859375 154.773438 135.964844 154.773438 C 136.042969 154.773438 136.121094 154.746094 136.183594 154.695312 C 136.210938 154.675781 138.738281 152.710938 141.226562 154.460938 C 141.390625 154.570312 141.609375 154.535156 141.71875 154.371094 Z M 132.832031 154.820312 C 132.980469 154.933594 133.207031 154.910156 133.328125 154.757812 C 133.445312 154.601562 133.414062 154.382812 133.265625 154.261719 C 133.226562 154.238281 129.453125 151.398438 125.734375 154.648438 C 125.585938 154.777344 125.570312 154.996094 125.703125 155.144531 C 125.769531 155.222656 125.871094 155.261719 125.96875 155.261719 C 126.050781 155.261719 126.136719 155.230469 126.199219 155.175781 C 129.472656 152.316406 132.695312 154.722656 132.832031 154.820312 Z M 112.59375 161.640625 C 112.410156 161.585938 112.210938 161.683594 112.148438 161.871094 C 112.125 161.960938 111.476562 164.027344 112.386719 165.65625 C 112.851562 166.496094 113.628906 167.058594 114.699219 167.335938 C 114.730469 167.34375 114.757812 167.34375 114.789062 167.34375 C 114.945312 167.34375 115.085938 167.242188 115.125 167.078125 C 115.175781 166.890625 115.0625 166.699219 114.875 166.652344 C 114.003906 166.429688 113.371094 165.980469 113.007812 165.320312 C 112.25 163.953125 112.820312 162.101562 112.824219 162.078125 C 112.882812 161.898438 112.777344 161.699219 112.59375 161.640625 Z M 143.332031 233.023438 C 143.402344 233.132812 143.515625 233.195312 143.636719 233.195312 C 143.699219 233.195312 143.761719 233.179688 143.820312 233.144531 C 143.984375 233.042969 144.039062 232.824219 143.9375 232.660156 C 143.789062 232.410156 128.996094 207.789062 128.558594 206.914062 C 128.203125 206.203125 128.507812 205.601562 128.523438 205.574219 C 128.585938 205.453125 128.570312 205.3125 128.496094 205.210938 L 134.785156 200.878906 C 134.785156 200.878906 131.074219 195.816406 130.164062 193.667969 C 129.25 191.519531 130.28125 187.878906 130.28125 187.878906 L 131.691406 184.367188 C 131.765625 184.1875 131.675781 183.984375 131.492188 183.910156 C 131.316406 183.835938 131.109375 183.925781 131.035156 184.109375 L 129.675781 187.488281 C 128.476562 186.453125 128.359375 184.441406 128.355469 183.882812 C 128.625 183.492188 130.09375 181.414062 131.414062 180.859375 C 132.902344 180.234375 134.503906 180.144531 134.496094 180.144531 L 136.230469 180.144531 C 136.421875 180.144531 136.582031 179.988281 136.582031 179.796875 C 136.582031 179.605469 136.421875 179.449219 136.230469 179.449219 L 134.480469 179.449219 C 134.414062 179.453125 132.746094 179.542969 131.144531 180.214844 C 129.792969 180.78125 128.40625 182.597656 127.910156 183.296875 L 119.367188 174.828125 L 111.929688 179.058594 L 128.027344 205.117188 C 127.972656 205.148438 127.925781 205.183594 127.902344 205.242188 C 127.878906 205.277344 127.398438 206.179688 127.925781 207.226562 C 128.058594 207.484375 129.359375 209.679688 131.144531 212.675781 L 110.917969 219.296875 L 106.785156 199.710938 C 106.746094 199.523438 106.558594 199.398438 106.367188 199.441406 C 106.179688 199.480469 106.054688 199.664062 106.097656 199.855469 L 110.242188 219.519531 L 109.257812 219.84375 C 109.074219 219.90625 108.96875 220.105469 109.03125 220.285156 C 109.078125 220.433594 109.21875 220.527344 109.367188 220.527344 C 109.402344 220.527344 109.441406 220.519531 109.476562 220.511719 L 131.390625 213.339844 C 131.429688 213.324219 131.472656 213.300781 131.503906 213.269531 C 134.4375 218.1875 138.496094 224.953125 141.019531 229.160156 C 141.007812 229.164062 140.992188 229.164062 140.984375 229.175781 L 126.773438 237.753906 C 126.605469 237.851562 126.554688 238.070312 126.652344 238.238281 C 126.71875 238.347656 126.835938 238.410156 126.957031 238.410156 C 127.019531 238.410156 127.082031 238.394531 127.136719 238.355469 L 141.347656 229.78125 C 141.359375 229.773438 141.363281 229.765625 141.375 229.753906 C 142.460938 231.570312 143.203125 232.804688 143.332031 233.023438 Z M 144.101562 196.617188 L 145.269531 196.371094 L 154.011719 209.839844 C 154.082031 209.945312 154.195312 210 154.3125 210 C 154.378906 210 154.441406 209.984375 154.503906 209.945312 C 154.664062 209.839844 154.710938 209.621094 154.609375 209.460938 L 151.796875 205.132812 C 151.828125 205.078125 151.855469 205.023438 151.855469 204.953125 C 151.972656 200.773438 149.347656 195.066406 149.238281 194.824219 C 149.15625 194.648438 148.945312 194.570312 148.769531 194.652344 C 148.59375 194.738281 148.515625 194.945312 148.597656 195.121094 C 148.625 195.175781 150.917969 200.183594 151.136719 204.117188 L 145.730469 195.792969 C 145.652344 195.675781 145.503906 195.613281 145.359375 195.644531 L 143.953125 195.941406 C 143.765625 195.980469 143.640625 196.164062 143.683594 196.355469 C 143.71875 196.535156 143.90625 196.660156 144.101562 196.617188 Z M 198.195312 240.335938 C 198.386719 240.335938 198.542969 240.179688 198.542969 239.988281 C 198.542969 239.792969 198.386719 239.636719 198.195312 239.636719 L 143.613281 239.636719 L 160.089844 202.101562 L 212.40625 202.101562 C 212.597656 202.101562 212.753906 201.945312 212.753906 201.75 C 212.753906 201.558594 212.597656 201.402344 212.40625 201.402344 L 159.863281 201.402344 C 159.722656 201.402344 159.59375 201.484375 159.539062 201.609375 L 142.988281 239.308594 L 142.101562 238.175781 C 141.980469 238.023438 141.761719 237.992188 141.605469 238.113281 C 141.453125 238.230469 141.421875 238.449219 141.542969 238.605469 L 142.796875 240.210938 C 142.800781 240.214844 142.804688 240.214844 142.804688 240.222656 C 142.828125 240.246094 142.859375 240.269531 142.890625 240.289062 C 142.898438 240.292969 142.910156 240.308594 142.925781 240.316406 C 142.925781 240.316406 142.929688 240.320312 142.929688 240.320312 C 142.976562 240.339844 143.023438 240.351562 143.070312 240.351562 L 198.195312 240.351562 Z M 135.09375 178.371094 L 134.835938 174.652344 C 131.8125 174.910156 129.304688 174.046875 129.132812 174.824219 C 128.972656 175.542969 131.785156 177.59375 135.09375 178.371094 Z M 214.761719 349.421875 C 214.617188 349.550781 214.609375 349.773438 214.738281 349.914062 C 214.753906 349.929688 216.285156 351.617188 216.160156 353.628906 C 216.148438 353.820312 216.296875 353.988281 216.488281 354.003906 C 216.492188 354.003906 216.503906 354.003906 216.507812 354.003906 C 216.691406 354.003906 216.847656 353.859375 216.859375 353.675781 C 217.003906 351.359375 215.328125 349.519531 215.257812 349.441406 C 215.125 349.300781 214.90625 349.289062 214.761719 349.421875 Z M 208.144531 243.21875 C 207.960938 243.199219 207.789062 243.371094 207.789062 243.5625 C 207.78125 243.949219 207.683594 253.109375 210.753906 257.703125 C 210.820312 257.808594 210.933594 257.859375 211.046875 257.859375 C 211.113281 257.859375 211.183594 257.839844 211.238281 257.800781 C 211.402344 257.691406 211.445312 257.472656 211.339844 257.3125 C 208.394531 252.902344 208.492188 243.667969 208.492188 243.574219 C 208.492188 243.382812 208.335938 243.21875 208.144531 243.21875 Z M 264.757812 240.886719 C 264.628906 241.035156 264.644531 241.257812 264.789062 241.382812 C 264.859375 241.441406 264.941406 241.472656 265.019531 241.472656 C 265.121094 241.472656 265.214844 241.429688 265.285156 241.351562 C 266.289062 240.207031 264.972656 233.992188 264.695312 232.761719 C 264.65625 232.574219 264.464844 232.457031 264.273438 232.496094 C 264.085938 232.539062 263.964844 232.726562 264.007812 232.917969 C 264.785156 236.371094 265.277344 240.300781 264.757812 240.886719 Z M 267.414062 241.855469 C 267.300781 242.015625 267.347656 242.234375 267.511719 242.34375 C 267.570312 242.386719 267.640625 242.402344 267.703125 242.402344 C 267.820312 242.402344 267.929688 242.34375 267.996094 242.246094 C 268.839844 240.988281 267.855469 235.574219 267.648438 234.503906 C 267.609375 234.308594 267.421875 234.191406 267.234375 234.222656 C 267.042969 234.257812 266.917969 234.441406 266.953125 234.632812 C 267.414062 237.011719 267.941406 241.070312 267.414062 241.855469 Z M 269.46875 242.621094 C 269.539062 242.621094 269.601562 242.605469 269.664062 242.5625 C 270.78125 241.84375 270.585938 238.617188 270.535156 237.976562 C 270.519531 237.785156 270.347656 237.644531 270.160156 237.652344 C 269.964844 237.667969 269.820312 237.835938 269.835938 238.035156 C 269.945312 239.457031 269.851562 241.617188 269.28125 241.976562 C 269.121094 242.078125 269.074219 242.296875 269.175781 242.460938 C 269.238281 242.5625 269.355469 242.621094 269.46875 242.621094 Z M 269.46875 242.621094 "/>
</g>
</g>
</svg>
